<?xml version="1.0" encoding="utf-8"?>
<!-- Generator: Adobe Illustrator 16.0.0, SVG Export Plug-In . SVG Version: 6.00 Build 0)  -->
<!DOCTYPE svg PUBLIC "-//W3C//DTD SVG 1.1//EN" "http://www.w3.org/Graphics/SVG/1.1/DTD/svg11.dtd">
<svg version="1.1" id="圖層_1" xmlns="http://www.w3.org/2000/svg" xmlns:xlink="http://www.w3.org/1999/xlink" x="0px" y="0px"
	 width="65.041px" height="64.561px" viewBox="0 0 65.041 64.561" enable-background="new 0 0 65.041 64.561" xml:space="preserve">
<g id="BG">
</g>
<g id="UI">
</g>
<g id="_x24_">
	<g>
		<g>
			<g>
				<circle fill="#FF9933" cx="32.281" cy="32.28" r="32.281"/>
				<circle fill="#E07117" cx="32.281" cy="32.279" r="25.238"/>
				<path fill="#CC6633" d="M8.362,33.086c0-13.493,10.938-24.434,24.432-24.434c13.494,0,24.433,10.94,24.433,24.434
					c0,3.67-0.815,7.149-2.265,10.269c1.637-3.343,2.558-7.102,2.558-11.075c0-13.938-11.301-25.237-25.238-25.237
					c-13.94,0-25.239,11.299-25.239,25.237c0,13.938,11.299,25.237,25.239,25.237c0.084,0,0.17-0.003,0.255-0.005
					C19.161,57.376,8.362,46.494,8.362,33.086z"/>
			</g>
		</g>
		<g>
			<g>
				<g>
					<path fill="#CC6633" d="M38.16,15.67v33.075h-9.14V27.071c-1.479,1.124-2.91,2.036-4.292,2.731
						c-1.383,0.693-3.119,1.359-5.203,1.995v-7.41c3.077-0.99,5.464-2.181,7.165-3.572c1.7-1.389,3.031-3.105,3.992-5.145
						L38.16,15.67L38.16,15.67z"/>
				</g>
			</g>
			<g>
				<g>
					<path fill="#FFA142" d="M37.165,15.67v31.309h-8.651V26.463c-1.4,1.064-2.754,1.925-4.063,2.582
						c-1.308,0.659-2.951,1.289-4.923,1.891v-7.014c2.912-0.938,5.173-2.064,6.782-3.381c1.61-1.316,2.869-2.939,3.78-4.87
						L37.165,15.67L37.165,15.67z"/>
				</g>
			</g>
		</g>
	</g>
</g>
<g id="選單">
</g>
<g id="BG_1_">
</g>
<g id="_x24__1_">
</g>
</svg>
