<?xml version="1.0" encoding="utf-8"?>
<!-- Generator: Adobe Illustrator 16.0.0, SVG Export Plug-In . SVG Version: 6.00 Build 0)  -->
<!DOCTYPE svg PUBLIC "-//W3C//DTD SVG 1.1//EN" "http://www.w3.org/Graphics/SVG/1.1/DTD/svg11.dtd">
<svg version="1.1" id="圖層_1" xmlns="http://www.w3.org/2000/svg" xmlns:xlink="http://www.w3.org/1999/xlink" x="0px" y="0px"
	 width="82.8px" height="82.081px" viewBox="0 0 82.8 82.081" enable-background="new 0 0 82.8 82.081" xml:space="preserve">
<g id="BG">
</g>
<g id="UI">
</g>
<g id="_x24_">
	<g>
		<g>
			<g>
				<circle fill="#BFBFBF" cx="41.04" cy="41.039" r="41.04"/>
				<circle fill="#8C8C8C" cx="41.039" cy="41.039" r="32.086"/>
				<path fill="#767B81" d="M10.629,42.064c0-17.156,13.906-31.063,31.06-31.063c17.156,0,31.063,13.907,31.063,31.063
					c0,4.666-1.035,9.086-2.878,13.059c2.079-4.252,3.251-9.031,3.251-14.085c0-17.719-14.364-32.086-32.086-32.086
					c-17.72,0-32.086,14.366-32.086,32.086c0,17.721,14.366,32.087,32.086,32.087c0.109,0,0.216-0.007,0.326-0.007
					C24.362,72.943,10.629,59.11,10.629,42.064z"/>
			</g>
		</g>
		<g>
			<g>
				<path fill="#767B81" d="M35.722,25.852V57.18h-8.578V36.651c-1.388,1.065-2.73,1.926-4.026,2.586
					c-1.299,0.656-2.926,1.286-4.882,1.89v-7.019c2.887-0.938,5.128-2.067,6.725-3.383c1.595-1.315,2.844-2.941,3.747-4.874
					L35.722,25.852L35.722,25.852z"/>
				<path fill="#767B81" d="M40.683,41.653c0-5.855,1.044-9.952,3.132-12.291c2.088-2.341,5.27-3.51,9.545-3.51
					c2.055,0,3.74,0.255,5.058,0.767c1.318,0.51,2.395,1.176,3.228,1.995c0.834,0.819,1.489,1.682,1.968,2.585
					c0.479,0.904,0.864,1.958,1.155,3.164c0.569,2.298,0.854,4.694,0.854,7.186c0,5.591-0.938,9.681-2.812,12.273
					c-1.873,2.594-5.101,3.889-9.681,3.889c-2.567,0-4.644-0.414-6.225-1.239c-1.582-0.827-2.881-2.037-3.894-3.636
					c-0.736-1.134-1.308-2.687-1.717-4.655C40.888,46.211,40.683,44.037,40.683,41.653z M49.093,41.675
					c0,3.922,0.344,6.603,1.029,8.037c0.688,1.437,1.684,2.153,2.988,2.153c0.861,0,1.606-0.304,2.238-0.911
					c0.631-0.611,1.096-1.574,1.395-2.891c0.299-1.315,0.448-3.37,0.448-6.156c0-4.092-0.345-6.841-1.031-8.248
					c-0.687-1.409-1.718-2.112-3.093-2.112c-1.401,0-2.414,0.718-3.039,2.153C49.406,35.135,49.093,37.796,49.093,41.675z"/>
			</g>
		</g>
		<g>
			<g>
				<path fill="#BFBFBF" d="M35.066,25.852v29.876h-8.255V36.151c-1.335,1.015-2.628,1.835-3.876,2.464
					c-1.249,0.627-2.816,1.227-4.699,1.803v-6.692c2.778-0.895,4.936-1.97,6.472-3.226c1.536-1.256,2.737-2.805,3.606-4.649
					L35.066,25.852L35.066,25.852z"/>
				<path fill="#BFBFBF" d="M39.839,40.919c0-5.583,1.005-9.491,3.016-11.722c2.012-2.231,5.074-3.346,9.188-3.346
					c1.977,0,3.6,0.243,4.868,0.731c1.27,0.485,2.305,1.122,3.105,1.901c0.802,0.781,1.433,1.604,1.893,2.464
					c0.462,0.862,0.833,1.868,1.113,3.016c0.548,2.192,0.822,4.477,0.822,6.853c0,5.332-0.903,9.231-2.705,11.703
					c-1.803,2.471-4.908,3.706-9.318,3.706c-2.471,0-4.468-0.395-5.99-1.181c-1.522-0.79-2.772-1.944-3.748-3.468
					c-0.708-1.082-1.259-2.562-1.652-4.438C40.037,45.264,39.839,43.191,39.839,40.919z M47.934,40.939
					c0,3.739,0.33,6.295,0.992,7.664c0.66,1.369,1.618,2.053,2.874,2.053c0.829,0,1.546-0.29,2.154-0.869
					c0.607-0.581,1.056-1.502,1.343-2.758c0.287-1.254,0.431-3.211,0.431-5.869c0-3.901-0.331-6.522-0.992-7.865
					c-0.66-1.342-1.651-2.013-2.976-2.013c-1.35,0-2.323,0.685-2.925,2.054C48.234,34.703,47.934,37.24,47.934,40.939z"/>
			</g>
		</g>
	</g>
</g>
<g id="選單">
</g>
</svg>
