<?xml version="1.0" encoding="utf-8"?>
<!-- Generator: Adobe Illustrator 16.0.0, SVG Export Plug-In . SVG Version: 6.00 Build 0)  -->
<!DOCTYPE svg PUBLIC "-//W3C//DTD SVG 1.1//EN" "http://www.w3.org/Graphics/SVG/1.1/DTD/svg11.dtd">
<svg version="1.1" id="圖層_1" xmlns="http://www.w3.org/2000/svg" xmlns:xlink="http://www.w3.org/1999/xlink" x="0px" y="0px"
	 width="147.84px" height="71.52px" viewBox="0 0 147.84 71.52" enable-background="new 0 0 147.84 71.52" xml:space="preserve">
<g id="BG">
</g>
<g id="UI">
</g>
<g id="_x24_">
	<g>
		<g>
			<g>
				<rect fill="#FF7074" width="147.84" height="71.52"/>
			</g>
			<g>
				<path fill="#FFB0B0" d="M129.704,66.95H16.781c0.046-0.369,0.073-0.748,0.073-1.127c0-5.757-5.329-10.422-11.895-10.422v-40.47
					c0.421,0.039,0.853,0.062,1.283,0.062c6.57,0,11.894-4.67,11.894-10.424H131.06c-0.046,0.371-0.072,0.75-0.072,1.125
					c0,5.758,5.328,10.422,11.896,10.422v40.472c-0.42-0.038-0.853-0.061-1.285-0.061C135.028,56.527,129.704,61.196,129.704,66.95z
					"/>
			</g>
		</g>
		<g>
			<path fill="#FF7074" d="M55.121,19.151v32.668h-8.385V30.413c-1.357,1.112-2.669,2.009-3.938,2.695
				c-1.268,0.688-2.86,1.345-4.772,1.971v-7.318c2.822-0.979,5.013-2.154,6.573-3.527c1.56-1.373,2.781-3.067,3.663-5.083
				L55.121,19.151L55.121,19.151z"/>
			<path fill="#FF7074" d="M59.004,35.629c0-6.106,1.021-10.379,3.063-12.819c2.042-2.439,5.153-3.659,9.332-3.659
				c2.008,0,3.656,0.265,4.946,0.799c1.288,0.534,2.34,1.227,3.154,2.082c0.813,0.855,1.456,1.753,1.923,2.695
				c0.467,0.942,0.844,2.042,1.129,3.297c0.556,2.395,0.835,4.893,0.835,7.493c0,5.828-0.918,10.094-2.748,12.797
				c-1.833,2.699-4.987,4.053-9.464,4.053c-2.509,0-4.538-0.431-6.084-1.293c-1.546-0.863-2.817-2.127-3.806-3.792
				c-0.72-1.181-1.279-2.799-1.679-4.853C59.205,40.379,59.004,38.111,59.004,35.629z M67.226,35.65c0,4.089,0.337,6.883,1.008,8.38
				c0.671,1.498,1.645,2.247,2.92,2.247c0.842,0,1.571-0.317,2.188-0.954c0.618-0.635,1.073-1.639,1.364-3.013
				c0.292-1.373,0.438-3.514,0.438-6.42c0-4.264-0.337-7.132-1.008-8.601c-0.671-1.466-1.678-2.202-3.022-2.202
				c-1.371,0-2.36,0.749-2.971,2.248C67.533,28.833,67.226,31.604,67.226,35.65z"/>
			<path fill="#FF7074" d="M85.434,35.629c0-6.106,1.021-10.379,3.063-12.819c2.042-2.439,5.153-3.659,9.331-3.659
				c2.008,0,3.657,0.265,4.945,0.799c1.289,0.534,2.341,1.227,3.155,2.082c0.813,0.855,1.456,1.753,1.923,2.695
				c0.469,0.942,0.846,2.042,1.13,3.297c0.556,2.395,0.835,4.893,0.835,7.493c0,5.828-0.917,10.094-2.748,12.797
				c-1.83,2.699-4.987,4.053-9.464,4.053c-2.51,0-4.538-0.431-6.085-1.293c-1.547-0.863-2.814-2.127-3.806-3.792
				c-0.72-1.181-1.279-2.799-1.679-4.853C85.635,40.379,85.434,38.111,85.434,35.629z M93.657,35.65c0,4.089,0.336,6.883,1.007,8.38
				c0.672,1.498,1.646,2.247,2.92,2.247c0.843,0,1.57-0.317,2.189-0.954c0.617-0.635,1.071-1.639,1.363-3.013
				c0.291-1.373,0.437-3.514,0.437-6.42c0-4.264-0.336-7.132-1.006-8.601c-0.673-1.466-1.68-2.202-3.023-2.202
				c-1.372,0-2.359,0.749-2.971,2.248C93.962,28.833,93.657,31.604,93.657,35.65z"/>
		</g>
	</g>
</g>
<g id="選單">
</g>
<g id="BG_1_">
</g>
<g id="_x24__1_">
</g>
<g id="選單_1_">
</g>
</svg>
