<?xml version="1.0" encoding="utf-8"?>
<!-- Generator: Adobe Illustrator 16.0.0, SVG Export Plug-In . SVG Version: 6.00 Build 0)  -->
<!DOCTYPE svg PUBLIC "-//W3C//DTD SVG 1.1//EN" "http://www.w3.org/Graphics/SVG/1.1/DTD/svg11.dtd">
<svg version="1.1" id="圖層_1" xmlns="http://www.w3.org/2000/svg" xmlns:xlink="http://www.w3.org/1999/xlink" x="0px" y="0px"
	 width="166.8px" height="72.48px" viewBox="0 0 166.8 72.48" enable-background="new 0 0 166.8 72.48" xml:space="preserve">
<g id="BG">
</g>
<g id="UI">
</g>
<g id="_x24_">
	<g>
		<g>
			<g>
				<rect y="0" fill="#2C8EC7" width="166.8" height="72.48"/>
			</g>
			<g>
				<path fill="#89ECF5" d="M146.337,67.85H18.933c0.052-0.374,0.082-0.759,0.082-1.142c0-5.835-6.012-10.563-13.421-10.563V15.133
					c0.476,0.039,0.961,0.062,1.449,0.062c7.412,0,13.419-4.733,13.419-10.563h127.404c-0.052,0.376-0.081,0.759-0.081,1.141
					c0,5.835,6.012,10.562,13.422,10.562v41.015c-0.476-0.038-0.963-0.062-1.449-0.062C152.343,57.287,146.337,62.019,146.337,67.85
					z"/>
			</g>
		</g>
		<g>
			<path fill="#2C8EC7" d="M46.662,19.409v33.107h-9.459V30.821c-1.53,1.126-3.012,2.037-4.442,2.731
				c-1.431,0.697-3.227,1.363-5.385,1.997v-7.415c3.184-0.991,5.657-2.184,7.417-3.575c1.76-1.392,3.137-3.108,4.132-5.152
				L46.662,19.409L46.662,19.409z"/>
			<path fill="#2C8EC7" d="M51.849,36.108c0-6.188,1.152-10.518,3.457-12.992c2.304-2.472,5.813-3.708,10.527-3.708
				c2.266,0,4.126,0.269,5.58,0.811c1.454,0.541,2.641,1.244,3.559,2.11c0.919,0.867,1.642,1.777,2.17,2.731
				s0.954,2.069,1.274,3.342c0.628,2.427,0.942,4.958,0.942,7.594c0,5.905-1.034,10.229-3.1,12.968
				c-2.066,2.737-5.626,4.107-10.679,4.107c-2.831,0-5.12-0.437-6.865-1.311c-1.744-0.874-3.176-2.154-4.294-3.842
				c-0.812-1.197-1.442-2.838-1.894-4.918C52.076,40.922,51.849,38.623,51.849,36.108z M61.126,36.129
				c0,4.144,0.379,6.976,1.135,8.492c0.759,1.519,1.857,2.277,3.297,2.277c0.949,0,1.771-0.321,2.468-0.966
				c0.697-0.644,1.21-1.662,1.539-3.054c0.328-1.392,0.493-3.561,0.493-6.506c0-4.321-0.38-7.228-1.136-8.716
				c-0.759-1.486-1.895-2.231-3.411-2.231c-1.547,0-2.662,0.759-3.352,2.277C61.47,29.22,61.126,32.028,61.126,36.129z"/>
			<path fill="#2C8EC7" d="M80.865,36.108c0-6.188,1.151-10.518,3.455-12.992c2.305-2.472,5.813-3.708,10.528-3.708
				c2.265,0,4.125,0.269,5.579,0.811c1.455,0.541,2.642,1.244,3.56,2.11c0.918,0.867,1.642,1.777,2.169,2.731
				c0.529,0.955,0.955,2.069,1.276,3.342c0.626,2.427,0.941,4.958,0.941,7.594c0,5.905-1.035,10.229-3.102,12.968
				c-2.064,2.737-5.625,4.107-10.677,4.107c-2.831,0-5.12-0.437-6.865-1.311c-1.744-0.874-3.178-2.154-4.293-3.842
				c-0.813-1.197-1.443-2.838-1.894-4.918C81.089,40.922,80.865,38.623,80.865,36.108z M90.139,36.129
				c0,4.144,0.379,6.976,1.137,8.492c0.759,1.519,1.856,2.277,3.295,2.277c0.95,0,1.771-0.321,2.469-0.966
				c0.696-0.644,1.209-1.662,1.538-3.054s0.494-3.561,0.494-6.506c0-4.321-0.38-7.228-1.137-8.716
				c-0.758-1.486-1.894-2.231-3.41-2.231c-1.547,0-2.663,0.759-3.352,2.277C90.485,29.22,90.139,32.028,90.139,36.129z"/>
			<path fill="#2C8EC7" d="M109.878,36.108c0-6.188,1.151-10.518,3.455-12.992c2.306-2.472,5.814-3.708,10.528-3.708
				c2.266,0,4.127,0.269,5.58,0.811c1.455,0.541,2.641,1.244,3.559,2.11c0.919,0.867,1.643,1.777,2.17,2.731
				c0.529,0.955,0.954,2.069,1.275,3.342c0.628,2.427,0.942,4.958,0.942,7.594c0,5.905-1.035,10.229-3.101,12.968
				c-2.066,2.737-5.626,4.107-10.679,4.107c-2.83,0-5.119-0.437-6.865-1.311c-1.743-0.874-3.176-2.154-4.293-3.842
				c-0.813-1.197-1.443-2.838-1.894-4.918C110.103,40.922,109.878,38.623,109.878,36.108z M119.155,36.129
				c0,4.144,0.378,6.976,1.135,8.492c0.759,1.519,1.856,2.277,3.296,2.277c0.949,0,1.771-0.321,2.468-0.966
				c0.697-0.644,1.211-1.662,1.539-3.054c0.329-1.392,0.493-3.561,0.493-6.506c0-4.321-0.379-7.228-1.136-8.716
				c-0.758-1.486-1.894-2.231-3.41-2.231c-1.547,0-2.663,0.759-3.353,2.277C119.499,29.22,119.155,32.028,119.155,36.129z"/>
		</g>
	</g>
</g>
<g id="選單">
</g>
<g id="BG_1_">
</g>
<g id="_x24__1_">
</g>
<g id="選單_1_">
</g>
</svg>
