<?xml version="1.0" encoding="utf-8"?>
<!-- Generator: Adobe Illustrator 16.0.0, SVG Export Plug-In . SVG Version: 6.00 Build 0)  -->
<!DOCTYPE svg PUBLIC "-//W3C//DTD SVG 1.1//EN" "http://www.w3.org/Graphics/SVG/1.1/DTD/svg11.dtd">
<svg version="1.1" id="圖層_1" xmlns="http://www.w3.org/2000/svg" xmlns:xlink="http://www.w3.org/1999/xlink" x="0px" y="0px"
	 width="73.454px" height="73.453px" viewBox="0 0 73.454 73.453" enable-background="new 0 0 73.454 73.453" xml:space="preserve">
<g id="BG">
</g>
<g id="UI">
</g>
<g id="_x24_">
	<g>
		<g>
			<g>
				<circle fill="#BFBFBF" cx="36.727" cy="36.726" r="36.727"/>
				<circle fill="#8C8C8C" cx="36.727" cy="36.726" r="28.715"/>
				<path fill="#767B81" d="M9.512,37.644c0-15.354,12.446-27.798,27.798-27.798S65.108,22.29,65.108,37.644
					c0,4.174-0.928,8.129-2.576,11.685c1.861-3.807,2.91-8.082,2.91-12.604c0-15.857-12.856-28.715-28.716-28.715
					c-15.857,0-28.715,12.856-28.715,28.715c0,15.859,12.856,28.716,28.715,28.716c0.099,0,0.194-0.008,0.293-0.008
					C21.801,65.277,9.512,52.897,9.512,37.644z"/>
			</g>
		</g>
		<g>
			<g>
				<g>
					<path fill="#767B81" d="M26.415,19.988h21.712v7.297H33.42l-0.786,4.94c1.017-0.479,2.024-0.838,3.02-1.077
						c0.997-0.239,1.979-0.361,2.953-0.361c3.293,0,5.967,0.996,8.016,2.988c2.051,1.991,3.077,4.497,3.077,7.521
						c0,2.126-0.527,4.17-1.584,6.131c-1.054,1.962-2.551,3.458-4.489,4.49c-1.939,1.033-4.42,1.549-7.445,1.549
						c-2.17,0-4.029-0.205-5.579-0.617c-1.55-0.411-2.867-1.024-3.952-1.84c-1.086-0.815-1.964-1.739-2.638-2.774
						c-0.673-1.032-1.235-2.319-1.684-3.861l9.251-1.009c0.225,1.48,0.749,2.608,1.572,3.377c0.822,0.771,1.803,1.157,2.941,1.157
						c1.272,0,2.324-0.482,3.154-1.448c0.831-0.964,1.247-2.405,1.247-4.322c0-1.961-0.42-3.396-1.258-4.312
						c-0.839-0.912-1.954-1.369-3.345-1.369c-0.883,0-1.737,0.217-2.56,0.652c-0.613,0.314-1.287,0.882-2.021,1.706l-7.793-1.123
						L26.415,19.988z"/>
				</g>
			</g>
			<g>
				<g>
					<path fill="#BFBFBF" d="M26.212,19.988H46.85v6.936H32.871l-0.748,4.696c0.967-0.455,1.924-0.797,2.87-1.025
						c0.946-0.227,1.881-0.342,2.806-0.342c3.131,0,5.671,0.947,7.619,2.84c1.95,1.893,2.925,4.276,2.925,7.15
						c0,2.021-0.501,3.963-1.506,5.825c-1.003,1.865-2.426,3.288-4.269,4.269c-1.842,0.982-4.201,1.474-7.074,1.474
						c-2.063,0-3.832-0.196-5.304-0.587c-1.473-0.393-2.724-0.975-3.756-1.75c-1.031-0.777-1.868-1.654-2.507-2.637
						c-0.64-0.98-1.173-2.205-1.6-3.671l8.793-0.96c0.214,1.409,0.711,2.479,1.494,3.212c0.781,0.731,1.714,1.099,2.795,1.099
						c1.209,0,2.209-0.459,2.999-1.376c0.79-0.918,1.185-2.287,1.185-4.107c0-1.865-0.399-3.23-1.195-4.099
						c-0.797-0.868-1.857-1.303-3.18-1.303c-0.839,0-1.65,0.208-2.433,0.62c-0.582,0.297-1.224,0.84-1.92,1.623l-7.406-1.068
						L26.212,19.988z"/>
				</g>
			</g>
		</g>
	</g>
</g>
<g id="選單">
</g>
<g id="BG_1_">
</g>
<g id="_x24__1_">
</g>
<g id="選單_1_">
</g>
</svg>
