<?xml version="1.0" encoding="utf-8"?>
<!-- Generator: Adobe Illustrator 16.0.0, SVG Export Plug-In . SVG Version: 6.00 Build 0)  -->
<!DOCTYPE svg PUBLIC "-//W3C//DTD SVG 1.1//EN" "http://www.w3.org/Graphics/SVG/1.1/DTD/svg11.dtd">
<svg version="1.1" id="圖層_1" xmlns="http://www.w3.org/2000/svg" xmlns:xlink="http://www.w3.org/1999/xlink" x="0px" y="0px"
	 width="88.8px" height="88.08px" viewBox="0 0 88.8 88.08" enable-background="new 0 0 88.8 88.08" xml:space="preserve">
<g id="BG">
</g>
<g id="UI">
</g>
<g id="_x24_">
	<g>
		<g>
			<g>
				<circle fill="#FFDB03" cx="43.483" cy="43.486" r="43.483"/>
				<circle fill="#F5B400" cx="43.485" cy="43.485" r="33.998"/>
				<path fill="#EA9C00" d="M11.262,44.57c0-18.178,14.735-32.912,32.912-32.912c18.177,0,32.912,14.733,32.912,32.912
					c0,4.944-1.096,9.629-3.049,13.835c2.205-4.507,3.445-9.566,3.445-14.922c0-18.775-15.221-33.998-33.999-33.998
					c-18.775,0-33.997,15.222-33.997,33.998c0,18.777,15.221,34,33.997,34c0.116,0,0.23-0.009,0.345-0.011
					C25.811,77.288,11.262,62.632,11.262,44.57z"/>
			</g>
		</g>
		<g>
			<path fill="#EA9C00" d="M22.498,29.526h19.019v6.408H28.635l-0.689,4.338c0.892-0.421,1.773-0.736,2.645-0.947
				c0.873-0.211,1.734-0.315,2.587-0.315c2.884,0,5.226,0.875,7.021,2.623c1.796,1.748,2.695,3.95,2.695,6.605
				c0,1.866-0.463,3.66-1.386,5.381c-0.924,1.725-2.235,3.038-3.934,3.944s-3.871,1.359-6.52,1.359c-1.9,0-3.53-0.181-4.886-0.541
				c-1.357-0.362-2.512-0.901-3.461-1.616c-0.951-0.718-1.722-1.529-2.312-2.437c-0.589-0.906-1.082-2.037-1.474-3.392l8.102-0.888
				c0.197,1.303,0.656,2.292,1.377,2.968c0.72,0.677,1.579,1.017,2.576,1.017c1.115,0,2.035-0.425,2.762-1.272
				c0.729-0.848,1.092-2.113,1.092-3.795c0-1.723-0.367-2.984-1.101-3.784c-0.735-0.802-1.711-1.205-2.932-1.205
				c-0.773,0-1.521,0.192-2.241,0.572c-0.537,0.276-1.129,0.776-1.77,1.499l-6.825-0.985L22.498,29.526z"/>
			<path fill="#EA9C00" d="M46.038,43.86c0-5.494,0.987-9.34,2.96-11.536c1.974-2.194,4.979-3.292,9.017-3.292
				c1.939,0,3.533,0.241,4.778,0.72c1.246,0.478,2.263,1.104,3.049,1.872c0.786,0.769,1.406,1.578,1.858,2.426
				c0.453,0.847,0.816,1.837,1.092,2.967c0.537,2.157,0.808,4.404,0.808,6.743c0,5.245-0.887,9.082-2.657,11.515
				c-1.77,2.433-4.818,3.647-9.144,3.647c-2.427,0-4.387-0.387-5.882-1.162c-1.494-0.775-2.72-1.913-3.677-3.411
				c-0.696-1.064-1.236-2.521-1.623-4.366C46.231,48.137,46.038,46.094,46.038,43.86z M53.983,43.88
				c0,3.681,0.325,6.194,0.974,7.542c0.65,1.347,1.59,2.021,2.823,2.021c0.813,0,1.517-0.288,2.114-0.856
				c0.597-0.573,1.035-1.478,1.318-2.714c0.281-1.233,0.422-3.161,0.422-5.775c0-3.839-0.325-6.419-0.974-7.74
				c-0.648-1.322-1.622-1.981-2.921-1.981c-1.324,0-2.281,0.675-2.871,2.02C54.279,37.744,53.983,40.239,53.983,43.88z"/>
		</g>
		<g>
			<g>
				<path fill="#FFDB03" d="M22.389,29.51h18.436v6.195H28.337l-0.667,4.196c0.864-0.407,1.719-0.713,2.564-0.915
					c0.846-0.204,1.681-0.307,2.508-0.307c2.796,0,5.065,0.846,6.806,2.538c1.742,1.69,2.612,3.819,2.612,6.385
					c0,1.806-0.447,3.541-1.343,5.205c-0.896,1.666-2.167,2.938-3.814,3.814c-1.646,0.877-3.752,1.315-6.321,1.315
					c-1.842,0-3.422-0.175-4.737-0.524c-1.316-0.35-2.435-0.87-3.354-1.563c-0.922-0.692-1.668-1.477-2.241-2.354
					c-0.572-0.876-1.048-1.97-1.43-3.279l7.855-0.857c0.191,1.26,0.635,2.215,1.334,2.868c0.698,0.654,1.531,0.983,2.497,0.983
					c1.08,0,1.974-0.41,2.679-1.229c0.706-0.82,1.058-2.043,1.058-3.669c0-1.667-0.355-2.886-1.068-3.662s-1.658-1.164-2.841-1.164
					c-0.749,0-1.475,0.186-2.173,0.554c-0.52,0.266-1.094,0.751-1.715,1.451l-6.616-0.954L22.389,29.51z"/>
				<path fill="#FFDB03" d="M45.208,43.37c0-5.313,0.957-9.032,2.87-11.154c1.913-2.121,4.826-3.183,8.741-3.183
					c1.882,0,3.426,0.231,4.634,0.696c1.207,0.462,2.191,1.067,2.955,1.81c0.763,0.744,1.363,1.525,1.802,2.345
					c0.44,0.821,0.793,1.777,1.059,2.87c0.521,2.085,0.782,4.259,0.782,6.521c0,5.072-0.858,8.783-2.574,11.135
					s-4.671,3.527-8.866,3.527c-2.352,0-4.252-0.375-5.701-1.124c-1.448-0.751-2.638-1.849-3.564-3.299
					c-0.675-1.029-1.199-2.438-1.574-4.223C45.396,47.505,45.208,45.531,45.208,43.37z M52.911,43.389
					c0,3.558,0.314,5.99,0.943,7.292c0.629,1.302,1.542,1.953,2.735,1.953c0.789,0,1.472-0.275,2.05-0.828
					c0.579-0.555,1.004-1.428,1.277-2.622c0.273-1.193,0.41-3.057,0.41-5.585c0-3.712-0.314-6.207-0.944-7.483
					c-0.628-1.278-1.571-1.916-2.831-1.916c-1.284,0-2.212,0.65-2.783,1.954C53.197,37.456,52.911,39.869,52.911,43.389z"/>
			</g>
		</g>
	</g>
</g>
<g id="選單">
</g>
<g id="BG_1_">
</g>
<g id="_x24__1_">
</g>
</svg>
