<?xml version="1.0" encoding="utf-8"?>
<!-- Generator: Adobe Illustrator 16.0.0, SVG Export Plug-In . SVG Version: 6.00 Build 0)  -->
<!DOCTYPE svg PUBLIC "-//W3C//DTD SVG 1.1//EN" "http://www.w3.org/Graphics/SVG/1.1/DTD/svg11.dtd">
<svg version="1.1" id="圖層_1" xmlns="http://www.w3.org/2000/svg" xmlns:xlink="http://www.w3.org/1999/xlink" x="0px" y="0px"
	 width="161.28px" height="72px" viewBox="0 0 161.28 72" enable-background="new 0 0 161.28 72" xml:space="preserve">
<g id="BG">
</g>
<g id="UI">
</g>
<g id="_x24_">
	<g>
		<g>
			<g>
				<rect fill="#FF8521" width="161.28" height="72"/>
			</g>
			<g>
				<path fill="#FFE570" d="M141.495,67.399H18.307c0.05-0.372,0.079-0.754,0.079-1.134c0-5.796-5.813-10.492-12.977-10.492V15.032
					c0.459,0.04,0.93,0.062,1.401,0.062c7.167,0,12.975-4.702,12.975-10.494h123.188c-0.05,0.374-0.078,0.754-0.078,1.133
					c0,5.797,5.813,10.492,12.978,10.492v40.744c-0.46-0.038-0.931-0.062-1.401-0.062C147.302,56.906,141.495,61.607,141.495,67.399
					z"/>
			</g>
		</g>
		<g>
			<path fill="#FF8521" d="M42.154,19.832h21.469V27H49.082l-0.778,4.853c1.006-0.47,2.001-0.825,2.986-1.06s1.958-0.353,2.92-0.353
				c3.255,0,5.897,0.979,7.926,2.935c2.027,1.956,3.042,4.42,3.042,7.389c0,2.089-0.521,4.097-1.565,6.021
				c-1.044,1.928-2.524,3.398-4.441,4.412c-1.917,1.015-4.37,1.522-7.36,1.522c-2.146,0-3.985-0.202-5.518-0.606
				c-1.532-0.405-2.834-1.008-3.907-1.81c-1.074-0.802-1.944-1.708-2.609-2.724c-0.666-1.014-1.221-2.279-1.664-3.794l9.146-0.993
				c0.223,1.456,0.74,2.563,1.554,3.32c0.813,0.756,1.784,1.136,2.908,1.136c1.258,0,2.298-0.474,3.119-1.423
				c0.822-0.949,1.233-2.363,1.233-4.244c0-1.929-0.415-3.339-1.243-4.236C54,36.449,52.899,36,51.522,36
				c-0.874,0-1.717,0.214-2.531,0.64c-0.606,0.307-1.273,0.869-1.998,1.678l-7.705-1.103L42.154,19.832z"/>
			<path fill="#FF8521" d="M67.458,35.868c0-6.146,1.114-10.449,3.342-12.904c2.228-2.456,5.621-3.683,10.179-3.683
				c2.191,0,3.99,0.267,5.395,0.805c1.407,0.536,2.555,1.235,3.441,2.094c0.888,0.861,1.588,1.765,2.098,2.713
				c0.513,0.949,0.922,2.056,1.233,3.32c0.606,2.413,0.91,4.927,0.91,7.543c0,5.868-1,10.16-2.998,12.882
				c-1.997,2.721-5.438,4.08-10.324,4.08c-2.738,0-4.951-0.434-6.638-1.3c-1.687-0.868-3.071-2.14-4.151-3.816
				c-0.785-1.191-1.396-2.82-1.832-4.885C67.677,40.652,67.458,38.367,67.458,35.868z M76.427,35.89
				c0,4.116,0.367,6.928,1.099,8.435c0.733,1.507,1.794,2.262,3.186,2.262c0.918,0,1.713-0.319,2.387-0.959
				c0.675-0.64,1.17-1.652,1.487-3.035c0.319-1.38,0.478-3.535,0.478-6.461c0-4.294-0.365-7.18-1.099-8.658
				c-0.731-1.478-1.831-2.215-3.297-2.215c-1.496,0-2.575,0.754-3.241,2.261S76.427,31.817,76.427,35.89z"/>
			<path fill="#FF8521" d="M96.569,35.868c0-6.146,1.114-10.449,3.342-12.904c2.229-2.456,5.621-3.683,10.179-3.683
				c2.191,0,3.99,0.267,5.396,0.805c1.405,0.536,2.553,1.235,3.44,2.094c0.889,0.861,1.587,1.765,2.099,2.713
				c0.511,0.949,0.923,2.056,1.232,3.32c0.606,2.413,0.91,4.927,0.91,7.543c0,5.868-1,10.16-2.997,12.882
				c-1.997,2.721-5.439,4.08-10.324,4.08c-2.738,0-4.951-0.434-6.639-1.3c-1.687-0.868-3.07-2.14-4.151-3.816
				c-0.785-1.191-1.396-2.82-1.831-4.885C96.789,40.652,96.569,38.367,96.569,35.868z M105.539,35.89
				c0,4.116,0.367,6.928,1.099,8.435c0.732,1.507,1.795,2.262,3.186,2.262c0.919,0,1.713-0.319,2.388-0.959
				c0.674-0.64,1.169-1.652,1.488-3.035c0.317-1.38,0.476-3.535,0.476-6.461c0-4.294-0.366-7.18-1.098-8.658
				c-0.733-1.478-1.831-2.216-3.298-2.216c-1.496,0-2.574,0.753-3.241,2.26C105.872,29.024,105.539,31.817,105.539,35.89z"/>
		</g>
	</g>
</g>
<g id="選單">
</g>
<g id="選單_1_">
</g>
</svg>
