<?xml version="1.0" encoding="utf-8"?>
<!-- Generator: Adobe Illustrator 16.0.0, SVG Export Plug-In . SVG Version: 6.00 Build 0)  -->
<!DOCTYPE svg PUBLIC "-//W3C//DTD SVG 1.1//EN" "http://www.w3.org/Graphics/SVG/1.1/DTD/svg11.dtd">
<svg version="1.1" id="圖層_1" xmlns="http://www.w3.org/2000/svg" xmlns:xlink="http://www.w3.org/1999/xlink" x="0px" y="0px"
	 width="261.078px" height="57.809px" viewBox="0 0 261.078 57.809" enable-background="new 0 0 261.078 57.809"
	 xml:space="preserve">
<g id="BG">
</g>
<g id="UI">
	<g>
		<g>
			<g>
				<path fill="#FFFFFF" d="M257.828,32.242c0,13.723-11.815,24.846-26.394,24.846H28.144c-14.576,0-26.394-11.123-26.394-24.846
					v-7.009c0-13.723,11.817-24.848,26.394-24.848h203.291c14.577,0,26.393,11.125,26.393,24.848V32.242L257.828,32.242z"/>
			</g>
			<g>
				
					<linearGradient id="SVGID_1_" gradientUnits="userSpaceOnUse" x1="38.688" y1="-43.843" x2="38.688" y2="8.7864" gradientTransform="matrix(1 0 0 -1 91.1001 11.2095)">
					<stop  offset="0.1828" style="stop-color:#EFEFEF"/>
					<stop  offset="0.2993" style="stop-color:#E9E9E9"/>
					<stop  offset="0.4584" style="stop-color:#D7D7D7"/>
					<stop  offset="0.6423" style="stop-color:#BBBABA"/>
					<stop  offset="0.843" style="stop-color:#939393"/>
					<stop  offset="0.9892" style="stop-color:#727171"/>
				</linearGradient>
				<path fill="url(#SVGID_1_)" d="M254.494,31.99c0,12.736-11.508,23.063-25.705,23.063h-198
					c-14.196,0-25.706-10.326-25.706-23.063v-6.504c0-12.737,11.51-23.063,25.706-23.063h198c14.197,0,25.705,10.324,25.705,23.063
					V31.99L254.494,31.99z"/>
			</g>
			<g opacity="0.6">
				
					<linearGradient id="SVGID_2_" gradientUnits="userSpaceOnUse" x1="39.6875" y1="-40.1526" x2="39.6875" y2="-6.5691" gradientTransform="matrix(1 0 0 -1 91.1001 11.2095)">
					<stop  offset="0.2151" style="stop-color:#FFFFFF;stop-opacity:0.03"/>
					<stop  offset="0.8482" style="stop-color:#FFFFFF;stop-opacity:0.3458"/>
					<stop  offset="0.957" style="stop-color:#FFFFFF;stop-opacity:0.4"/>
				</linearGradient>
				<path fill="url(#SVGID_2_)" d="M248.63,36.646c0,8.129-9.914,14.717-22.146,14.717H35.093c-12.231,0-22.148-6.588-22.148-14.717
					v-4.149c0-8.127,9.917-14.718,22.148-14.718h191.391c12.232,0,22.146,6.591,22.146,14.718V36.646L248.63,36.646z"/>
			</g>
		</g>
		<g>
			<g opacity="0.2">
				<path fill="#231815" d="M261.078,32.477c0,13.99-12.048,25.332-26.908,25.332H26.909C12.048,57.809,0,46.466,0,32.477v-7.145
					C0,11.341,12.048,0,26.909,0h207.26c14.86,0,26.908,11.341,26.908,25.332V32.477z"/>
			</g>
			<g>
				<path fill="#FFFFFF" d="M257.828,32.242c0,13.723-11.815,24.846-26.394,24.846H28.144c-14.576,0-26.394-11.123-26.394-24.846
					v-7.009c0-13.723,11.817-24.848,26.394-24.848h203.291c14.577,0,26.393,11.125,26.393,24.848V32.242L257.828,32.242z"/>
			</g>
			<g>
				
					<linearGradient id="SVGID_3_" gradientUnits="userSpaceOnUse" x1="38.688" y1="-43.843" x2="38.688" y2="8.7864" gradientTransform="matrix(1 0 0 -1 91.1001 11.2095)">
					<stop  offset="0.4086" style="stop-color:#EFEFEF"/>
					<stop  offset="0.4622" style="stop-color:#E4E4E4"/>
					<stop  offset="0.6125" style="stop-color:#CACACB"/>
					<stop  offset="0.7479" style="stop-color:#BABABB"/>
					<stop  offset="0.8548" style="stop-color:#B5B5B6"/>
				</linearGradient>
				<path fill="url(#SVGID_3_)" d="M254.494,31.99c0,12.736-11.508,23.063-25.705,23.063h-198
					c-14.196,0-25.706-10.326-25.706-23.063v-6.504c0-12.737,11.51-23.063,25.706-23.063h198c14.197,0,25.705,10.324,25.705,23.063
					V31.99L254.494,31.99z"/>
			</g>
			<g opacity="0.6">
				
					<linearGradient id="SVGID_4_" gradientUnits="userSpaceOnUse" x1="39.6875" y1="-40.1526" x2="39.6875" y2="-6.5691" gradientTransform="matrix(1 0 0 -1 91.1001 11.2095)">
					<stop  offset="0.2151" style="stop-color:#FFFFFF;stop-opacity:0.03"/>
					<stop  offset="0.8482" style="stop-color:#FFFFFF;stop-opacity:0.3458"/>
					<stop  offset="0.957" style="stop-color:#FFFFFF;stop-opacity:0.4"/>
				</linearGradient>
				<path fill="url(#SVGID_4_)" d="M248.63,36.646c0,8.129-9.914,14.717-22.146,14.717H35.093c-12.231,0-22.148-6.588-22.148-14.717
					v-4.149c0-8.127,9.917-14.718,22.148-14.718h191.391c12.232,0,22.146,6.591,22.146,14.718V36.646L248.63,36.646z"/>
			</g>
		</g>
		<g>
			<g>
				<path fill="#727171" d="M165.72,16.33c-0.405,1.225-0.749,2.227-1.032,3.006l-0.987,2.535v21.132h-2.763V27.124
					c-0.405,0.678-1.124,1.67-2.155,2.976l-1.428-2.976c2.449-3.147,4.316-6.983,5.602-11.508L165.72,16.33z M184.469,25.59
					l-10.566,1.063c0.354,4.424,1.252,7.812,2.695,10.164c1.442,2.354,2.548,3.529,3.317,3.529c0.9,0,1.478-1.776,1.729-5.329
					l2.703,1.336c-0.476,4.717-1.894,7.075-4.251,7.075c-1.741,0-3.545-1.364-5.412-4.092c-1.867-2.729-3.096-6.874-3.682-12.44
					l-6.027,0.592l-0.121-2.672l5.936-0.562c-0.162-2.317-0.223-5.106-0.182-8.365h2.764c0,3.461,0.08,6.158,0.242,8.092
					l10.764-1.032L184.469,25.59z M182.48,20.869l-2.277,1.807c-1.093-1.64-2.51-3.152-4.25-4.539l2.141-1.776
					C179.864,17.767,181.326,19.27,182.48,20.869z"/>
				<path fill="#727171" d="M196.535,19.153l-2.246,1.095c-0.932-1.316-1.686-2.287-2.263-2.915l2.142-1.094
					C194.854,16.998,195.644,17.969,196.535,19.153z M205.264,28.93c0,0.566-0.21,1.091-0.63,1.571
					c-0.42,0.479-1.536,0.681-3.348,0.6l-0.714-2.368c0.496,0.062,1.037,0.091,1.624,0.091c0.365,0,0.547-0.218,0.547-0.652v-5.085
					h-2.763v7.862h-2.55v-7.862h-2.824v8.38h-2.52V20.656h5.344v-4.689h2.55v4.689h5.283V28.93L205.264,28.93z M216.407,39.238
					c0,1.022-0.286,1.717-0.858,2.08c-0.571,0.364-1.582,0.547-3.028,0.547c-0.729,0-1.427-0.024-2.095-0.075l-0.774-2.643
					c0.546,0.021,1.71,0.03,3.492,0.03c0.344,0,0.517-0.197,0.517-0.592v-2.854h-7.242v7.333h-2.701v-7.333h-7.303v6.027h-2.703
					v-8.486h10.006v-1.67h2.701v1.67h9.989V39.238z M196.975,24.285c-0.183,1.882-0.425,3.49-0.729,4.826l-1.427-0.379
					c0.324-1.509,0.562-3.071,0.713-4.69L196.975,24.285z M202.44,27.458l-1.427,0.501c-0.121-1.113-0.37-2.358-0.744-3.734
					l1.427-0.365C202.071,25.013,202.319,26.212,202.44,27.458z M205.735,17.575c-0.871,0.939-1.782,1.82-2.733,2.642l-2.367-1.154
					c1.031-0.749,1.988-1.64,2.869-2.672L205.735,17.575z M218.76,29.735l-1.185,2.292c-1.781-0.638-3.436-1.478-4.964-2.521
					c-1.589,1.124-3.446,1.913-5.571,2.369l-1.215-2.369c1.619-0.172,3.198-0.708,4.737-1.608c-0.952-1.072-1.66-2.069-2.125-2.991
					l1.989-1.365c0.617,1.072,1.279,1.942,1.988,2.61c0.84-1.355,1.371-2.879,1.594-4.568h-4.098
					c-0.811,1.306-1.695,2.469-2.658,3.49l-1.578-2.033c1.801-2.034,3.188-4.479,4.16-7.333l2.459,0.563
					c-0.264,0.87-0.612,1.771-1.047,2.702h7.332v2.611h-2.049c-0.344,2.52-1.083,4.554-2.217,6.103
					C215.416,28.504,216.898,29.188,218.76,29.735z"/>
			</g>
		</g>
	</g>
</g>
<g id="_x24_">
</g>
<g id="選單">
</g>
<g>
	<path fill="#727171" d="M53.86,21.48l-1.807,1.896c-1.073-1.021-2.338-2.101-3.795-3.232c-0.708,1.032-1.655,2.275-2.839,3.733
		h6.695v2.551h-2.899v2.384h3.644v2.551h-3.644v8.152c0.992-0.162,2.216-0.445,3.674-0.852v2.611
		c-3.846,0.992-7.287,1.71-10.323,2.155l-0.592-2.55c1.417-0.152,2.94-0.399,4.57-0.744v-8.773h-4.101v-2.551h4.099v-2.384h-2.384
		v-1.274c-0.283,0.334-0.617,0.622-1.002,0.865l-1.427-2.368c2.044-1.741,3.932-4.125,5.663-7.15l2.475,0.773
		c-0.061,0.192-0.172,0.41-0.334,0.653C51.304,19.182,52.746,20.366,53.86,21.48z M45.859,39.014l-2.262,0.622
		c-0.203-2.459-0.577-4.666-1.124-6.619l2.202-0.652C45.262,34.165,45.657,36.382,45.859,39.014z M53.01,32.85
		c-0.091,1.741-0.39,3.588-0.896,5.541l-2.216-0.743c0.566-1.923,0.891-3.705,0.972-5.344L53.01,32.85z M69.087,26.323
		c-0.385,1.093-0.825,2.036-1.321,2.831c-0.496,0.795-1.229,1.191-2.201,1.191c-1.458,0-3.011-0.887-4.661-2.656
		c-2.368,0.961-4.524,1.619-6.467,1.974l-1.108-2.399c2.489-0.445,4.519-0.986,6.087-1.624c-0.445-0.83-0.86-1.73-1.245-2.702
		l-3.795,0.38l-0.243-2.399l3.294-0.349c-0.354-1.478-0.602-2.783-0.744-3.917h2.642c0.263,1.67,0.531,2.896,0.804,3.674
		l8.304-0.835l0.152,2.398l-7.682,0.744c0.182,0.638,0.476,1.29,0.88,1.958c0.951-0.536,1.963-1.256,3.037-2.155l1.958,1.412
		c-1.093,0.991-2.242,1.861-3.446,2.609c0.9,0.739,1.528,1.108,1.882,1.108c0.526,0,1.037-0.814,1.533-2.444L69.087,26.323z
		 M69.497,39.226c-0.78,3.117-2.11,4.676-3.993,4.676c-1.367,0-3.011-0.997-4.934-2.99c-1.468,0.729-3.457,1.452-5.966,2.171
		l-1.184-2.354c2.267-0.546,4.154-1.158,5.663-1.837c-0.708-1.315-1.25-2.55-1.625-3.704l-3.446,0.38l-0.258-2.398l2.96-0.35
		c-0.314-1.314-0.521-2.267-0.623-2.854l2.642-0.305c0.243,1.244,0.471,2.206,0.683,2.885l9.428-0.973l0.243,2.431l-8.835,0.909
		c0.162,0.698,0.567,1.609,1.214,2.733c1.295-0.779,2.541-1.711,3.735-2.794l2.019,1.549c-1.447,1.285-2.844,2.343-4.19,3.173
		c1.022,1.022,1.781,1.533,2.277,1.533c0.638,0,1.245-1.063,1.822-3.188L69.497,39.226z M63.454,30.997l-1.867,1.199
		c-0.405-0.598-1.002-1.164-1.792-1.7l1.579-1.458C62.204,29.596,62.898,30.248,63.454,30.997z M65.382,18.457l-1.928,1.307
		c-1.083-0.82-2.014-1.407-2.793-1.762l1.897-1.352C63.52,17.035,64.462,17.638,65.382,18.457z"/>
	<path fill="#727171" d="M81.184,19.914l-2.248,1.095c-0.931-1.316-1.685-2.287-2.262-2.915L78.814,17
		C79.503,17.76,80.292,18.732,81.184,19.914z M89.912,29.693c0,0.566-0.21,1.091-0.631,1.571c-0.42,0.479-1.535,0.681-3.348,0.6
		l-0.713-2.368c0.496,0.062,1.037,0.091,1.624,0.091c0.365,0,0.548-0.218,0.548-0.652v-5.085h-2.764v7.862h-2.55v-7.862h-2.824v8.38
		h-2.521V21.418h5.345v-4.689h2.55v4.689h5.283V29.693L89.912,29.693z M101.055,39.999c0,1.022-0.285,1.717-0.857,2.08
		c-0.572,0.364-1.582,0.547-3.029,0.547c-0.729,0-1.428-0.024-2.096-0.075l-0.773-2.643c0.546,0.021,1.71,0.03,3.492,0.03
		c0.344,0,0.516-0.197,0.516-0.592v-2.854h-7.24v7.333h-2.703v-7.333h-7.301v6.027h-2.703v-8.486h10.004v-1.67h2.703v1.67h9.988
		V39.999z M81.623,25.047c-0.182,1.882-0.426,3.49-0.729,4.826l-1.428-0.379c0.324-1.509,0.563-3.071,0.713-4.69L81.623,25.047z
		 M87.088,28.22l-1.427,0.501c-0.121-1.113-0.37-2.358-0.744-3.734l1.427-0.365C86.719,25.776,86.967,26.975,87.088,28.22z
		 M90.383,18.336c-0.871,0.94-1.781,1.821-2.732,2.643l-2.369-1.154c1.033-0.749,1.99-1.64,2.869-2.672L90.383,18.336z
		 M103.408,30.496l-1.184,2.292c-1.783-0.638-3.437-1.478-4.965-2.521c-1.589,1.124-3.445,1.913-5.57,2.369l-1.215-2.369
		c1.618-0.172,3.197-0.708,4.736-1.608c-0.952-1.073-1.66-2.069-2.125-2.991l1.988-1.365c0.617,1.072,1.281,1.942,1.99,2.61
		c0.84-1.355,1.371-2.879,1.594-4.568h-4.1c-0.81,1.306-1.695,2.469-2.656,3.49l-1.58-2.033c1.802-2.034,3.188-4.479,4.16-7.333
		l2.459,0.563c-0.263,0.87-0.611,1.771-1.047,2.702h7.334v2.611h-2.05c-0.344,2.52-1.083,4.554-2.217,6.103
		C100.063,29.267,101.546,29.95,103.408,30.496z"/>
</g>
</svg>
