<?xml version="1.0" encoding="utf-8"?>
<!-- Generator: Adobe Illustrator 16.0.3, SVG Export Plug-In . SVG Version: 6.00 Build 0)  -->
<!DOCTYPE svg PUBLIC "-//W3C//DTD SVG 1.1//EN" "http://www.w3.org/Graphics/SVG/1.1/DTD/svg11.dtd">
<svg version="1.1" xmlns="http://www.w3.org/2000/svg" xmlns:xlink="http://www.w3.org/1999/xlink" x="0px" y="0px"
	 width="132.412px" height="105.258px" viewBox="0 0 132.412 105.258" enable-background="new 0 0 132.412 105.258"
	 xml:space="preserve">
<g id="BG">
</g>
<g id="_x24_">
</g>
<g id="UI">
	<g>
		<g>
			<g>
				<path fill="#898989" d="M132.412,29.566c0,12.738-11.508,23.063-25.707,23.063H25.707C11.51,52.629,0,42.304,0,29.566v-6.504
					C0,10.326,11.51,0,25.707,0h80.998c14.199,0,25.707,10.326,25.707,23.063V29.566z"/>
			</g>
			<g>
				
					<linearGradient id="SVGID_1_" gradientUnits="userSpaceOnUse" x1="-2653.6877" y1="52.0356" x2="-2653.6877" y2="0.5942" gradientTransform="matrix(1 0 0 1 2719.8936 0)">
					<stop  offset="0" style="stop-color:#86C166"/>
					<stop  offset="0.0068" style="stop-color:#80BF62"/>
					<stop  offset="0.0493" style="stop-color:#5FB24E"/>
					<stop  offset="0.0931" style="stop-color:#45A83F"/>
					<stop  offset="0.138" style="stop-color:#33A234"/>
					<stop  offset="0.1848" style="stop-color:#289D2D"/>
					<stop  offset="0.2366" style="stop-color:#249C2B"/>
					<stop  offset="0.2909" style="stop-color:#38A437"/>
					<stop  offset="0.3829" style="stop-color:#55AE48"/>
					<stop  offset="0.482" style="stop-color:#6AB755"/>
					<stop  offset="0.5904" style="stop-color:#7ABC5F"/>
					<stop  offset="0.715" style="stop-color:#83C064"/>
					<stop  offset="0.8925" style="stop-color:#86C166"/>
					<stop  offset="1" style="stop-color:#BEE0A2"/>
				</linearGradient>
				<path fill="url(#SVGID_1_)" d="M129.453,29.494c0,12.449-11.248,22.541-25.127,22.541h-76.24
					c-13.877,0-25.127-10.092-25.127-22.541v-6.359c0-12.449,11.25-22.541,25.127-22.541h76.24
					c13.879,0,25.127,10.092,25.127,22.541V29.494z"/>
			</g>
			<g opacity="0.6">
				
					<linearGradient id="SVGID_2_" gradientUnits="userSpaceOnUse" x1="-2653.6877" y1="48.1196" x2="-2653.6877" y2="2.0103" gradientTransform="matrix(1 0 0 1 2719.8936 0)">
					<stop  offset="0" style="stop-color:#FFFFFF;stop-opacity:0.03"/>
					<stop  offset="0.957" style="stop-color:#FFFFFF;stop-opacity:0.6"/>
				</linearGradient>
				<path fill="url(#SVGID_2_)" d="M122.896,27.916c0,11.158-10.082,20.203-22.521,20.203H32.037
					c-12.438,0-22.521-9.045-22.521-20.203v-5.701C9.516,11.057,19.6,2.01,32.037,2.01h68.338c12.439,0,22.521,9.047,22.521,20.205
					V27.916z"/>
			</g>
		</g>
		<g>
			<g>
				<path fill="#FFFFFF" d="M43.943,18.293l-1.807,1.897c-1.073-1.022-2.338-2.101-3.795-3.233
					c-0.708,1.032-1.655,2.276-2.839,3.734h6.695v2.55h-2.899v2.384h3.644v2.551h-3.644v8.152c0.992-0.162,2.216-0.445,3.674-0.851
					v2.611c-3.846,0.992-7.287,1.71-10.323,2.155l-0.592-2.55c1.417-0.152,2.94-0.399,4.57-0.744v-8.774h-4.099v-2.551h4.099v-2.384
					h-2.384v-1.274c-0.283,0.334-0.617,0.622-1.002,0.865l-1.427-2.368c2.044-1.741,3.932-4.125,5.663-7.15l2.475,0.773
					c-0.061,0.192-0.172,0.41-0.334,0.653C41.387,15.996,42.829,17.18,43.943,18.293z M35.942,35.828L33.68,36.45
					c-0.203-2.459-0.577-4.666-1.124-6.619l2.202-0.652C35.345,30.98,35.74,33.196,35.942,35.828z M43.093,29.664
					c-0.091,1.741-0.39,3.588-0.896,5.541l-2.216-0.743c0.566-1.923,0.891-3.705,0.972-5.344L43.093,29.664z M59.169,23.136
					c-0.385,1.093-0.825,2.036-1.321,2.831s-1.229,1.191-2.201,1.191c-1.458,0-3.011-0.886-4.661-2.656
					c-2.368,0.961-4.524,1.619-6.467,1.974l-1.108-2.399c2.489-0.445,4.519-0.986,6.087-1.624c-0.445-0.83-0.86-1.73-1.245-2.702
					l-3.795,0.38l-0.243-2.399l3.294-0.349c-0.354-1.478-0.602-2.783-0.744-3.917h2.642c0.263,1.67,0.531,2.895,0.804,3.674
					l8.304-0.835l0.152,2.398l-7.682,0.744c0.182,0.638,0.476,1.29,0.88,1.958c0.951-0.536,1.963-1.255,3.037-2.155l1.958,1.412
					c-1.093,0.991-2.242,1.862-3.446,2.61c0.9,0.739,1.528,1.108,1.882,1.108c0.526,0,1.037-0.814,1.533-2.444L59.169,23.136z
					 M59.58,36.04c-0.78,3.117-2.11,4.676-3.993,4.676c-1.367,0-3.011-0.997-4.934-2.99c-1.468,0.729-3.457,1.452-5.966,2.171
					l-1.184-2.354c2.267-0.546,4.154-1.158,5.663-1.837c-0.708-1.315-1.25-2.55-1.625-3.704l-3.446,0.38l-0.258-2.398l2.96-0.35
					c-0.314-1.315-0.521-2.267-0.623-2.854l2.642-0.304c0.243,1.244,0.471,2.206,0.683,2.884l9.428-0.972l0.243,2.43l-8.835,0.91
					c0.162,0.698,0.567,1.609,1.214,2.733c1.295-0.779,2.541-1.711,3.735-2.794l2.019,1.549c-1.447,1.285-2.844,2.343-4.19,3.173
					c1.022,1.022,1.781,1.533,2.277,1.533c0.638,0,1.245-1.063,1.822-3.188L59.58,36.04z M53.537,27.812l-1.867,1.199
					c-0.405-0.598-1.002-1.164-1.792-1.7l1.579-1.458C52.287,26.41,52.98,27.063,53.537,27.812z M55.465,15.272l-1.928,1.306
					c-1.083-0.82-2.014-1.407-2.793-1.761l1.897-1.352C53.603,13.85,54.544,14.452,55.465,15.272z"/>
				<path fill="#FFFFFF" d="M71.266,16.729l-2.247,1.094c-0.931-1.316-1.685-2.287-2.262-2.915l2.141-1.093
					C69.585,14.574,70.375,15.545,71.266,16.729z M79.995,26.506c0,0.566-0.21,1.091-0.63,1.571c-0.42,0.48-1.536,0.681-3.348,0.6
					l-0.713-2.368C75.8,26.37,76.341,26.4,76.928,26.4c0.365,0,0.547-0.218,0.547-0.653v-5.085h-2.763v7.863h-2.55v-7.863h-2.824
					v8.38h-2.52v-10.81h5.344v-4.69h2.55v4.69h5.283V26.506z M91.138,36.814c0,1.022-0.286,1.716-0.858,2.08
					s-1.582,0.547-3.029,0.547c-0.729,0-1.427-0.025-2.095-0.076l-0.774-2.642c0.546,0.021,1.71,0.03,3.492,0.03
					c0.344,0,0.516-0.197,0.516-0.592v-2.854h-7.241v7.333h-2.702v-7.333h-7.302v6.027h-2.703v-8.486h10.005v-1.67h2.702v1.67h9.989
					V36.814z M71.706,21.861c-0.182,1.882-0.425,3.491-0.729,4.827l-1.427-0.379c0.324-1.509,0.562-3.072,0.713-4.691L71.706,21.861
					z M77.171,25.034l-1.427,0.501c-0.121-1.113-0.37-2.358-0.744-3.734l1.427-0.365C76.802,22.589,77.05,23.789,77.171,25.034z
					 M80.466,15.151c-0.871,0.94-1.782,1.821-2.733,2.642l-2.368-1.154c1.032-0.749,1.989-1.64,2.869-2.672L80.466,15.151z
					 M93.491,27.311l-1.184,2.292c-1.782-0.638-3.436-1.478-4.964-2.521c-1.589,1.124-3.446,1.913-5.571,2.369l-1.215-2.369
					c1.619-0.172,3.198-0.708,4.737-1.608c-0.952-1.073-1.66-2.07-2.125-2.991l1.989-1.366c0.617,1.073,1.28,1.943,1.989,2.611
					c0.84-1.356,1.371-2.879,1.594-4.569h-4.099c-0.81,1.306-1.695,2.469-2.657,3.491l-1.579-2.034
					c1.801-2.034,3.188-4.479,4.16-7.333l2.459,0.563c-0.263,0.87-0.612,1.771-1.047,2.702h7.333v2.611H91.26
					c-0.344,2.52-1.083,4.554-2.217,6.103C90.146,26.081,91.629,26.764,93.491,27.311z"/>
			</g>
		</g>
	</g>
	<g>
		<g>
			<g>
				<path fill="#898989" d="M0,82.195c0,12.738,11.508,23.063,25.707,23.063h80.998c14.197,0,25.707-10.324,25.707-23.063v-6.504
					c0-12.736-11.51-23.063-25.707-23.063H25.707C11.508,52.629,0,62.955,0,75.691V82.195z"/>
			</g>
			<g>
				
					<linearGradient id="SVGID_3_" gradientUnits="userSpaceOnUse" x1="2699.2427" y1="104.6636" x2="2699.2427" y2="53.2222" gradientTransform="matrix(-1 0 0 1 2765.4492 0)">
					<stop  offset="0" style="stop-color:#86C166"/>
					<stop  offset="0.0068" style="stop-color:#80BF62"/>
					<stop  offset="0.0493" style="stop-color:#5FB24E"/>
					<stop  offset="0.0931" style="stop-color:#45A83F"/>
					<stop  offset="0.138" style="stop-color:#33A234"/>
					<stop  offset="0.1848" style="stop-color:#289D2D"/>
					<stop  offset="0.2366" style="stop-color:#249C2B"/>
					<stop  offset="0.2909" style="stop-color:#38A437"/>
					<stop  offset="0.3829" style="stop-color:#55AE48"/>
					<stop  offset="0.482" style="stop-color:#6AB755"/>
					<stop  offset="0.5904" style="stop-color:#7ABC5F"/>
					<stop  offset="0.715" style="stop-color:#83C064"/>
					<stop  offset="0.8925" style="stop-color:#86C166"/>
					<stop  offset="1" style="stop-color:#BEE0A2"/>
				</linearGradient>
				<path fill="url(#SVGID_3_)" d="M2.959,82.123c0,12.449,11.248,22.541,25.127,22.541h76.24c13.877,0,25.127-10.092,25.127-22.541
					v-6.359c0-12.449-11.25-22.541-25.127-22.541h-76.24c-13.879,0-25.127,10.092-25.127,22.541V82.123z"/>
			</g>
			<g opacity="0.6">
				
					<linearGradient id="SVGID_4_" gradientUnits="userSpaceOnUse" x1="2699.2427" y1="100.7476" x2="2699.2427" y2="54.6382" gradientTransform="matrix(-1 0 0 1 2765.4492 0)">
					<stop  offset="0" style="stop-color:#FFFFFF;stop-opacity:0.03"/>
					<stop  offset="0.957" style="stop-color:#FFFFFF;stop-opacity:0.6"/>
				</linearGradient>
				<path fill="url(#SVGID_4_)" d="M9.516,80.545c0,11.158,10.082,20.203,22.521,20.203h68.338c12.438,0,22.521-9.045,22.521-20.203
					v-5.701c0-11.158-10.084-20.205-22.521-20.205H32.037c-12.439,0-22.521,9.047-22.521,20.205V80.545z"/>
			</g>
		</g>
		<g>
			<path fill="#FFFFFF" d="M43.93,66.536c-0.405,1.225-0.749,2.227-1.032,3.006l-0.987,2.535v21.132h-2.763V77.33
				c-0.405,0.678-1.124,1.67-2.156,2.976l-1.427-2.976c2.449-3.147,4.317-6.983,5.602-11.508L43.93,66.536z M62.679,75.797
				l-10.566,1.063c0.354,4.423,1.252,7.811,2.695,10.164c1.442,2.353,2.548,3.529,3.317,3.529c0.901,0,1.478-1.776,1.73-5.329
				l2.703,1.336c-0.476,4.717-1.893,7.075-4.251,7.075c-1.741,0-3.545-1.364-5.412-4.092s-3.095-6.874-3.682-12.44l-6.027,0.592
				l-0.121-2.672L49,74.461c-0.162-2.317-0.223-5.106-0.182-8.365h2.763c0,3.461,0.081,6.158,0.243,8.092l10.764-1.032
				L62.679,75.797z M60.69,71.075l-2.277,1.807c-1.093-1.64-2.51-3.152-4.251-4.539l2.141-1.776
				C58.074,67.974,59.536,69.477,60.69,71.075z"/>
			<path fill="#FFFFFF" d="M74.745,69.359l-2.247,1.094c-0.931-1.316-1.685-2.287-2.262-2.915l2.141-1.093
				C73.064,67.204,73.854,68.176,74.745,69.359z M83.474,79.137c0,0.566-0.21,1.091-0.63,1.571c-0.42,0.48-1.536,0.681-3.348,0.6
				l-0.713-2.368C79.279,79,79.82,79.03,80.407,79.03c0.365,0,0.547-0.218,0.547-0.653v-5.085h-2.763v7.863h-2.55v-7.863h-2.824
				v8.38h-2.52v-10.81h5.344v-4.69h2.55v4.69h5.283V79.137z M94.617,89.444c0,1.022-0.286,1.716-0.858,2.08
				s-1.582,0.547-3.029,0.547c-0.729,0-1.427-0.025-2.095-0.076l-0.774-2.642c0.546,0.021,1.71,0.03,3.492,0.03
				c0.344,0,0.516-0.197,0.516-0.592v-2.854h-7.241v7.333h-2.702v-7.333h-7.302v6.027h-2.703v-8.486h10.005v-1.67h2.702v1.67h9.989
				V89.444z M75.185,74.491c-0.182,1.882-0.425,3.491-0.729,4.827l-1.427-0.379c0.324-1.509,0.562-3.072,0.713-4.691L75.185,74.491z
				 M80.65,77.664l-1.427,0.501c-0.121-1.113-0.37-2.358-0.744-3.734l1.427-0.365C80.281,75.22,80.529,76.419,80.65,77.664z
				 M83.945,67.781c-0.871,0.94-1.782,1.821-2.733,2.642l-2.368-1.154c1.032-0.749,1.989-1.64,2.869-2.672L83.945,67.781z
				 M96.97,79.941l-1.184,2.292c-1.782-0.638-3.436-1.478-4.964-2.521c-1.589,1.124-3.446,1.913-5.571,2.369l-1.215-2.369
				c1.619-0.172,3.198-0.708,4.737-1.608c-0.952-1.073-1.66-2.07-2.125-2.991l1.989-1.366c0.617,1.073,1.28,1.943,1.989,2.611
				c0.84-1.356,1.371-2.879,1.594-4.569H88.12c-0.81,1.306-1.695,2.469-2.657,3.491l-1.579-2.034
				c1.801-2.034,3.188-4.479,4.16-7.333l2.459,0.563c-0.263,0.87-0.612,1.771-1.047,2.702h7.333v2.611h-2.049
				c-0.344,2.52-1.083,4.554-2.217,6.103C93.625,78.711,95.108,79.395,96.97,79.941z"/>
		</g>
	</g>
</g>
<g id="選單">
</g>
</svg>
