<?xml version="1.0" encoding="utf-8"?>
<!-- Generator: Adobe Illustrator 16.0.3, SVG Export Plug-In . SVG Version: 6.00 Build 0)  -->
<!DOCTYPE svg PUBLIC "-//W3C//DTD SVG 1.1//EN" "http://www.w3.org/Graphics/SVG/1.1/DTD/svg11.dtd">
<svg version="1.1" xmlns="http://www.w3.org/2000/svg" xmlns:xlink="http://www.w3.org/1999/xlink" x="0px" y="0px"
	 width="258.383px" height="76.835px" viewBox="0 0 258.383 76.835" enable-background="new 0 0 258.383 76.835"
	 xml:space="preserve">
<g id="BG">
</g>
<g id="UI">
	<g>
		<g>
			<path opacity="0.2" fill="#231815" d="M258.383,42.041c0,18.11-14.936,34.794-33.365,34.794H33.367
				C14.938,76.835,0,60.151,0,42.041v-9.247C0,14.683,14.938,0,33.367,0h191.65c18.43,0,33.365,14.683,33.365,32.794V42.041z"/>
			<path fill="#FFFFFF" d="M255.717,41.818c0,17.808-14.686,32.245-32.807,32.245H34.475c-18.119,0-32.807-14.438-32.807-32.245
				v-9.092c0-17.808,14.688-32.244,32.807-32.244H222.91c18.121,0,32.807,14.437,32.807,32.244V41.818z"/>
			<path fill="#9FA0A0" d="M252.244,41.577c0,16.862-14.285,30.533-31.91,30.533H37.049c-17.621,0-31.908-13.671-31.908-30.533
				v-8.609c0-16.862,14.287-30.533,31.908-30.533h183.285c17.625,0,31.91,13.671,31.91,30.533V41.577z"/>
			<linearGradient id="SVGID_1_" gradientUnits="userSpaceOnUse" x1="128.6924" y1="69.5869" x2="128.6924" y2="4.958">
				<stop  offset="0" style="stop-color:#86C166"/>
				<stop  offset="0.0068" style="stop-color:#80BF62"/>
				<stop  offset="0.0493" style="stop-color:#5FB24E"/>
				<stop  offset="0.0931" style="stop-color:#45A83F"/>
				<stop  offset="0.138" style="stop-color:#33A234"/>
				<stop  offset="0.1848" style="stop-color:#289D2D"/>
				<stop  offset="0.2366" style="stop-color:#249C2B"/>
				<stop  offset="0.2909" style="stop-color:#38A437"/>
				<stop  offset="0.3829" style="stop-color:#55AE48"/>
				<stop  offset="0.482" style="stop-color:#6AB755"/>
				<stop  offset="0.5904" style="stop-color:#7ABC5F"/>
				<stop  offset="0.715" style="stop-color:#83C064"/>
				<stop  offset="0.8925" style="stop-color:#86C166"/>
				<stop  offset="1" style="stop-color:#BEE0A2"/>
			</linearGradient>
			<path fill="url(#SVGID_1_)" d="M250.217,41.266c0,15.642-14.051,28.321-31.385,28.321H38.553
				c-17.332,0-31.385-12.68-31.385-28.321v-7.986c0-15.642,14.053-28.321,31.385-28.321h180.279
				c17.334,0,31.385,12.68,31.385,28.321V41.266z"/>
			<linearGradient id="SVGID_2_" gradientUnits="userSpaceOnUse" x1="128.6924" y1="58.6064" x2="128.6924" y2="7.7031">
				<stop  offset="0" style="stop-color:#FFFFFF;stop-opacity:0.03"/>
				<stop  offset="0.957" style="stop-color:#FFFFFF;stop-opacity:0.6"/>
			</linearGradient>
			<path opacity="0.45" fill="url(#SVGID_2_)" d="M242.709,36.3c0,12.319-11.066,22.307-24.721,22.307H39.396
				c-13.652,0-24.721-9.987-24.721-22.307v-6.291c0-12.318,11.068-22.306,24.721-22.306h178.592
				c13.654,0,24.721,9.987,24.721,22.306V36.3z"/>
		</g>
		<g>
			<path fill="#F7F8F8" d="M60.159,19.061c-0.26,1.1-0.68,2.524-1.259,4.273l-0.851,2.483v24.685H54.75v-17.68
				c-0.473,0.934-1.129,1.938-1.968,3.015l-1.738-3.601c2.282-3.215,4.256-7.79,5.923-13.726L60.159,19.061z M83.408,47.453
				l-1.277,2.979c-5.616-0.58-10.049-1.773-13.3-3.583c-2.306,1.845-4.954,3.163-7.945,3.955l-1.561-2.838
				c2.826-0.768,5.066-1.749,6.721-2.943c-1.478-1.288-2.784-2.701-3.919-4.238l2.678-1.578c0.922,1.289,2.01,2.453,3.263,3.493
				c0.804-1.017,1.265-2.482,1.383-4.397h-8.317V28.248h8.423v-3.016h-9.576v-3.015h9.576v-3.422h3.245v3.422h9.576v3.015h-9.576
				v3.016h8.388v10.055h-8.494c-0.177,2.411-0.798,4.469-1.862,6.171C74.488,46.117,78.679,47.11,83.408,47.453z M69.558,31.226
				h-5.107v4.097h5.072C69.593,33.999,69.605,32.633,69.558,31.226z M77.964,35.323v-4.097h-5.09c0,1.289-0.024,2.654-0.071,4.097
				H77.964z"/>
			<path fill="#F7F8F8" d="M121.07,46.885c0,0.981-0.354,1.838-1.064,2.571c-0.709,0.732-1.957,1.1-3.742,1.1
				c-0.816,0-1.661-0.03-2.536-0.089l-0.975-3.192l4.061-0.035c0.284,0,0.538-0.121,0.763-0.363
				c0.224-0.242,0.337-0.506,0.337-0.789v-6.544h-8.938v10.161h-3.085V39.543h-8.796c-0.402,4.67-1.478,8.388-3.228,11.154
				l-2.873-1.862c1.017-1.513,1.803-3.514,2.359-6.003c0.556-2.488,0.833-4.867,0.833-7.138V19.611h26.884V46.885z M105.891,28.035
				v-5.268h-8.477v5.268H105.891z M105.891,36.494v-5.444h-8.477v5.444H105.891z M117.914,28.035v-5.268h-8.938v5.268H117.914z
				 M117.914,36.494v-5.444h-8.938v5.444H117.914z"/>
			<path fill="#F7F8F8" d="M142.134,25.09h-10.977v-2.837h4.398c-0.367-0.981-0.739-1.874-1.117-2.678l3.228-0.887
				c0.532,1.17,0.969,2.358,1.313,3.564h3.156V25.09z M142.063,30.535h-10.073v-2.873h10.073V30.535z M142.063,35.766h-10.073
				v-2.873h10.073V35.766z M142.099,49.811h-3.121v-1.472h-3.813v2.287h-3.139V38.196h10.073V49.811z M138.978,45.431v-4.327h-3.813
				v4.327H138.978z M152.118,20.799c-2.4,2.436-4.954,4.422-7.661,5.958l-1.862-2.802c2.423-1.229,4.752-2.985,6.987-5.267
				L152.118,20.799z M162.936,42.913c0,1.632-0.133,3.048-0.399,4.247c-0.266,1.2-0.736,2.033-1.41,2.501
				c-0.674,0.467-1.88,0.7-3.618,0.7c-1.407,0-2.415-0.251-3.023-0.754s-0.913-1.397-0.913-2.687v-9.186h-2.217
				c0.189,5.557-1.785,9.901-5.923,13.034l-2.766-1.934c2.021-1.607,3.476-3.254,4.362-4.938s1.265-3.739,1.135-6.162h-3.121V26.899
				h15.287v10.836h-3.494v8.742c0,0.473,0.39,0.709,1.17,0.709c0.567,0,0.934-0.082,1.1-0.248c0.166-0.165,0.319-0.747,0.461-1.746
				c0.142-0.999,0.213-2.131,0.213-3.396L162.936,42.913z M157.048,34.56v-4.54h-8.672v4.54H157.048z M163.078,24.399l-2.164,2.571
				c-2.187-2.175-4.623-4.149-7.306-5.923l2.394-2.395C158.887,20.557,161.245,22.472,163.078,24.399z"/>
			<path fill="#F7F8F8" d="M183.308,46.087h-3.156v-2.11h-5.037v2.943h-3.174V20.48h11.367V46.087z M180.151,30.641v-7.04h-5.037
				v7.04H180.151z M180.151,40.926v-7.271h-5.037v7.271H180.151z M201.769,46.69c0,1.194-0.178,2.051-0.532,2.571
				s-0.816,0.857-1.383,1.011s-1.655,0.23-3.263,0.23c-1.053,0-2.063-0.023-3.033-0.07l-1.1-3.192
				c1.951,0.047,3.564,0.071,4.841,0.071c0.792,0,1.188-0.361,1.188-1.082v-6.792h-8.459c-0.521,4.812-1.827,8.601-3.919,11.367
				l-2.731-1.897c2.376-3.417,3.564-7.909,3.564-13.478V19.646h14.826V46.69z M198.488,27.804v-5.001h-8.264v5.001H198.488z
				 M198.488,36.351v-5.338h-8.264v5.338H198.488z"/>
		</g>
	</g>
</g>
<g id="_x24_">
</g>
<g id="選單">
</g>
</svg>
