<?xml version="1.0" encoding="utf-8"?>
<!-- Generator: Adobe Illustrator 16.0.0, SVG Export Plug-In . SVG Version: 6.00 Build 0)  -->
<!DOCTYPE svg PUBLIC "-//W3C//DTD SVG 1.1//EN" "http://www.w3.org/Graphics/SVG/1.1/DTD/svg11.dtd">
<svg version="1.1" id="圖層_1" xmlns="http://www.w3.org/2000/svg" xmlns:xlink="http://www.w3.org/1999/xlink" x="0px" y="0px"
	 width="323.667px" height="932px" viewBox="0 52.968 323.667 932" enable-background="new 0 52.968 323.667 932"
	 xml:space="preserve">
<g id="BG">
</g>
<g id="_x24_">
	<rect x="-1.46" y="185.167" fill="#FFFFFF" width="326.615" height="136.784"/>
	<rect x="-1.46" y="52.201" fill="#FFFFFF" width="326.615" height="136.784"/>
	<g>
		<g>
			
				<line fill="none" stroke="#9FA0A0" stroke-width="4" stroke-miterlimit="10" x1="-1.46" y1="187.177" x2="325.155" y2="187.177"/>
			
				<line fill="none" stroke="#F7F8F8" stroke-width="2" stroke-miterlimit="10" x1="-1.46" y1="187.552" x2="325.155" y2="187.552"/>
		</g>
	</g>
	<g>
		<line fill="none" stroke="#9FA0A0" stroke-width="4" stroke-miterlimit="10" x1="-1.46" y1="53.776" x2="325.156" y2="53.776"/>
		<line fill="none" stroke="#F7F8F8" stroke-width="2" stroke-miterlimit="10" x1="-1.46" y1="53.377" x2="324.507" y2="53.377"/>
	</g>
	<g>
		<g>
			
				<line fill="none" stroke="#9FA0A0" stroke-width="4" stroke-miterlimit="10" x1="-1.46" y1="320.144" x2="325.155" y2="320.144"/>
			
				<line fill="none" stroke="#F7F8F8" stroke-width="2" stroke-miterlimit="10" x1="-1.46" y1="320.519" x2="325.155" y2="320.519"/>
		</g>
	</g>
	<rect x="-1.46" y="318.432" fill="#FFFFFF" width="326.615" height="136.784"/>
	<g>
		<line fill="none" stroke="#9FA0A0" stroke-width="4" stroke-miterlimit="10" x1="-1.46" y1="320.007" x2="325.156" y2="320.007"/>
		<line fill="none" stroke="#F7F8F8" stroke-width="2" stroke-miterlimit="10" x1="-1.46" y1="319.608" x2="324.507" y2="319.608"/>
	</g>
	<rect x="-1.127" y="851.193" fill="#FFFFFF" width="326.615" height="133.19"/>
	<rect x="-1.127" y="584.663" fill="#FFFFFF" width="326.615" height="136.785"/>
	<rect x="-1.127" y="451.697" fill="#FFFFFF" width="326.615" height="136.784"/>
	<g>
		<g>
			<line fill="none" stroke="#9FA0A0" stroke-width="4" stroke-miterlimit="10" x1="-1.127" y1="719.64" x2="325.488" y2="719.64"/>
			
				<line fill="none" stroke="#F7F8F8" stroke-width="2" stroke-miterlimit="10" x1="-1.127" y1="720.015" x2="325.488" y2="720.015"/>
		</g>
	</g>
	<rect x="-1.127" y="717.927" fill="#FFFFFF" width="326.615" height="136.785"/>
	<g>
		<g>
			
				<line fill="none" stroke="#9FA0A0" stroke-width="4" stroke-miterlimit="10" x1="-1.127" y1="452.886" x2="325.489" y2="452.886"/>
			<line fill="none" stroke="#F7F8F8" stroke-width="2" stroke-miterlimit="10" x1="-1.127" y1="453.26" x2="325.489" y2="453.26"/>
		</g>
	</g>
	<g>
		<g>
			
				<line fill="none" stroke="#9FA0A0" stroke-width="4" stroke-miterlimit="10" x1="-1.127" y1="719.117" x2="325.489" y2="719.117"/>
			
				<line fill="none" stroke="#F7F8F8" stroke-width="2" stroke-miterlimit="10" x1="-1.127" y1="719.491" x2="325.489" y2="719.491"/>
		</g>
	</g>
	<g>
		
			<line fill="none" stroke="#9FA0A0" stroke-width="4" stroke-miterlimit="10" x1="-1.127" y1="853.293" x2="325.489" y2="853.293"/>
		
			<line fill="none" stroke="#F7F8F8" stroke-width="2" stroke-miterlimit="10" x1="-1.127" y1="852.893" x2="324.841" y2="852.893"/>
	</g>
	<g>
		
			<line fill="none" stroke="#9FA0A0" stroke-width="4" stroke-miterlimit="10" x1="-1.127" y1="587.061" x2="325.489" y2="587.061"/>
		
			<line fill="none" stroke="#F7F8F8" stroke-width="2" stroke-miterlimit="10" x1="-1.127" y1="586.663" x2="324.841" y2="586.663"/>
	</g>
</g>
<g id="選單">
</g>
<g>
	<g>
		<g>
			<rect x="80.348" y="881.016" fill="#2C8EC7" width="163.666" height="73.543"/>
		</g>
		<g>
			<path fill="#89ECF5" d="M223.936,949.861H98.925c0.052-0.38,0.08-0.771,0.08-1.158c0-5.921-5.899-10.717-13.168-10.717v-41.615
				c0.466,0.04,0.942,0.063,1.421,0.063c7.273,0,13.167-4.803,13.167-10.719h125.011c-0.052,0.381-0.08,0.771-0.08,1.157
				c0,5.921,5.898,10.717,13.168,10.717v41.617c-0.465-0.04-0.943-0.063-1.422-0.063
				C229.829,939.143,223.936,943.945,223.936,949.861z"/>
		</g>
	</g>
	<g>
		<path fill="#2C8EC7" d="M126.133,900.711v33.592h-9.281v-22.012c-1.502,1.143-2.955,2.066-4.359,2.771
			c-1.404,0.707-3.166,1.384-5.283,2.027v-7.525c3.124-1.006,5.55-2.215,7.277-3.627c1.727-1.411,3.078-3.153,4.055-5.227
			L126.133,900.711L126.133,900.711z"/>
		<path fill="#2C8EC7" d="M131.223,917.654c0-6.279,1.131-10.672,3.391-13.183c2.262-2.508,5.705-3.762,10.33-3.762
			c2.224,0,4.049,0.273,5.476,0.822s2.591,1.262,3.492,2.141s1.61,1.803,2.129,2.771s0.937,2.1,1.251,3.391
			c0.615,2.463,0.924,5.031,0.924,7.705c0,5.992-1.015,10.379-3.042,13.158c-2.026,2.776-5.521,4.168-10.478,4.168
			c-2.777,0-5.023-0.443-6.735-1.33s-3.117-2.186-4.213-3.898c-0.797-1.215-1.416-2.879-1.858-4.989
			C131.444,922.539,131.223,920.207,131.223,917.654z M140.325,917.676c0,4.205,0.371,7.078,1.115,8.617
			c0.744,1.541,1.82,2.312,3.232,2.312c0.932,0,1.738-0.326,2.422-0.98s1.188-1.686,1.51-3.098c0.323-1.412,0.484-3.613,0.484-6.603
			c0-4.385-0.372-7.334-1.115-8.844c-0.742-1.508-1.857-2.264-3.346-2.264c-1.518,0-2.613,0.77-3.289,2.311
			C140.664,910.666,140.325,913.515,140.325,917.676z"/>
		<path fill="#2C8EC7" d="M159.692,917.654c0-6.279,1.129-10.672,3.391-13.183c2.261-2.508,5.704-3.762,10.33-3.762
			c2.223,0,4.048,0.273,5.475,0.822c1.428,0.549,2.592,1.262,3.492,2.141s1.611,1.803,2.129,2.771c0.52,0.969,0.936,2.1,1.251,3.391
			c0.615,2.463,0.925,5.031,0.925,7.705c0,5.992-1.016,10.379-3.043,13.158c-2.026,2.776-5.52,4.168-10.477,4.168
			c-2.778,0-5.023-0.443-6.736-1.33c-1.712-0.887-3.117-2.186-4.213-3.898c-0.797-1.215-1.416-2.879-1.857-4.989
			C159.914,922.539,159.692,920.207,159.692,917.654z M168.793,917.676c0,4.205,0.372,7.078,1.115,8.617
			c0.744,1.541,1.82,2.312,3.232,2.312c0.933,0,1.738-0.326,2.422-0.98c0.685-0.654,1.188-1.686,1.51-3.098
			c0.324-1.412,0.484-3.613,0.484-6.603c0-4.385-0.371-7.334-1.115-8.844c-0.742-1.508-1.857-2.264-3.346-2.264
			c-1.518,0-2.613,0.77-3.289,2.311C169.132,910.666,168.793,913.515,168.793,917.676z"/>
		<path fill="#2C8EC7" d="M188.161,917.654c0-6.279,1.13-10.672,3.391-13.183c2.262-2.508,5.704-3.762,10.33-3.762
			c2.223,0,4.049,0.273,5.475,0.822c1.428,0.549,2.592,1.262,3.492,2.141c0.901,0.879,1.611,1.803,2.129,2.771
			c0.52,0.969,0.937,2.1,1.252,3.391c0.614,2.463,0.924,5.031,0.924,7.705c0,5.992-1.016,10.379-3.043,13.158
			c-2.026,2.776-5.52,4.168-10.477,4.168c-2.777,0-5.023-0.443-6.736-1.33c-1.711-0.887-3.117-2.186-4.213-3.898
			c-0.797-1.215-1.416-2.879-1.857-4.989C188.382,922.539,188.161,920.207,188.161,917.654z M197.262,917.676
			c0,4.205,0.372,7.078,1.115,8.617c0.744,1.541,1.821,2.312,3.232,2.312c0.933,0,1.738-0.326,2.423-0.98
			c0.684-0.654,1.187-1.686,1.51-3.098s0.483-3.613,0.483-6.603c0-4.385-0.371-7.334-1.114-8.844
			c-0.743-1.508-1.858-2.264-3.347-2.264c-1.518,0-2.612,0.77-3.289,2.311C197.602,910.666,197.262,913.515,197.262,917.676z"/>
	</g>
</g>
<g>
	<g>
		<g>
			<rect x="80.348" y="747.422" fill="#FF8521" width="163.666" height="73.543"/>
		</g>
		<g>
			<path fill="#FFE570" d="M223.936,816.265H98.925c0.052-0.379,0.08-0.77,0.08-1.158c0-5.92-5.899-10.717-13.168-10.717v-41.615
				c0.466,0.039,0.942,0.063,1.421,0.063c7.273,0,13.167-4.803,13.167-10.719h125.011c-0.052,0.383-0.08,0.771-0.08,1.158
				c0,5.92,5.898,10.717,13.168,10.717v41.617c-0.465-0.041-0.943-0.063-1.422-0.063
				C229.829,805.549,223.936,810.349,223.936,816.265z"/>
		</g>
	</g>
	<g>
		<path fill="#FF8521" d="M123.125,767.679h21.786v7.322h-14.757l-0.789,4.957c1.021-0.48,2.031-0.844,3.029-1.082
			c1-0.24,1.986-0.361,2.963-0.361c3.305,0,5.985,1,8.043,2.998c2.059,1.998,3.088,4.514,3.088,7.547c0,2.133-0.529,4.184-1.59,6.15
			c-1.059,1.969-2.561,3.471-4.506,4.506c-1.945,1.037-4.435,1.555-7.469,1.555c-2.178,0-4.044-0.207-5.599-0.619
			c-1.556-0.414-2.876-1.029-3.966-1.848c-1.088-0.82-1.971-1.746-2.646-2.783c-0.676-1.035-1.238-2.328-1.689-3.875l9.283-1.014
			c0.225,1.486,0.75,2.615,1.576,3.391c0.825,0.773,1.811,1.16,2.951,1.16c1.275,0,2.332-0.484,3.165-1.453
			c0.834-0.969,1.251-2.414,1.251-4.336c0-1.969-0.421-3.41-1.262-4.326c-0.842-0.916-1.961-1.375-3.357-1.375
			c-0.886,0-1.742,0.219-2.568,0.654c-0.615,0.313-1.291,0.887-2.026,1.713l-7.819-1.127L123.125,767.679z"/>
		<path fill="#FF8521" d="M148.803,784.058c0-6.277,1.131-10.672,3.391-13.18c2.262-2.51,5.705-3.764,10.33-3.764
			c2.224,0,4.049,0.273,5.476,0.822c1.427,0.547,2.591,1.262,3.492,2.139c0.901,0.881,1.61,1.805,2.129,2.771
			c0.519,0.969,0.937,2.1,1.251,3.391c0.615,2.465,0.924,5.033,0.924,7.705c0,5.994-1.016,10.379-3.042,13.158
			s-5.521,4.168-10.478,4.168c-2.777,0-5.023-0.443-6.735-1.328c-1.712-0.887-3.117-2.186-4.213-3.896
			c-0.798-1.219-1.416-2.881-1.859-4.99C149.026,788.945,148.803,786.611,148.803,784.058z M157.905,784.082
			c0,4.203,0.371,7.076,1.115,8.615s1.82,2.311,3.232,2.311c0.932,0,1.738-0.326,2.422-0.98c0.684-0.652,1.188-1.688,1.51-3.1
			c0.323-1.41,0.484-3.611,0.484-6.6c0-4.387-0.372-7.334-1.115-8.844c-0.742-1.51-1.857-2.264-3.346-2.264
			c-1.518,0-2.613,0.77-3.289,2.309S157.905,779.922,157.905,784.082z"/>
		<path fill="#FF8521" d="M178.345,784.058c0-6.277,1.13-10.672,3.392-13.18c2.261-2.51,5.703-3.764,10.33-3.764
			c2.223,0,4.047,0.273,5.475,0.822c1.427,0.547,2.591,1.262,3.492,2.139c0.9,0.881,1.611,1.805,2.129,2.771
			c0.52,0.969,0.936,2.1,1.251,3.391c0.614,2.465,0.924,5.033,0.924,7.705c0,5.994-1.015,10.379-3.042,13.158
			s-5.52,4.168-10.477,4.168c-2.778,0-5.024-0.443-6.736-1.328c-1.712-0.887-3.117-2.186-4.213-3.896
			c-0.797-1.219-1.416-2.881-1.859-4.99S178.345,786.611,178.345,784.058z M187.446,784.082c0,4.203,0.373,7.076,1.115,8.615
			c0.744,1.539,1.821,2.311,3.233,2.311c0.933,0,1.738-0.326,2.422-0.98c0.685-0.652,1.187-1.688,1.511-3.1
			c0.322-1.41,0.483-3.611,0.483-6.6c0-4.387-0.372-7.334-1.115-8.844s-1.858-2.264-3.346-2.264c-1.519,0-2.613,0.77-3.289,2.309
			S187.446,779.922,187.446,784.082z"/>
	</g>
</g>
<g>
	<g>
		<g>
			<rect x="80.348" y="613.826" fill="#FF7074" width="163.666" height="73.543"/>
		</g>
		<g>
			<path fill="#FFB0B0" d="M223.936,682.67H98.925c0.052-0.381,0.081-0.77,0.081-1.158c0-5.922-5.898-10.717-13.168-10.717v-41.615
				c0.467,0.039,0.944,0.063,1.421,0.063c7.273,0,13.167-4.801,13.167-10.717h125.01c-0.05,0.381-0.08,0.77-0.08,1.156
				c0,5.92,5.899,10.717,13.17,10.717v41.617c-0.467-0.041-0.944-0.063-1.422-0.063C229.829,671.951,223.936,676.754,223.936,682.67
				z"/>
		</g>
	</g>
	<g>
		<path fill="#FF7074" d="M141.369,633.519v33.592h-9.282v-22.012c-1.502,1.143-2.955,2.066-4.359,2.771
			c-1.404,0.707-3.166,1.383-5.283,2.027v-7.525c3.125-1.006,5.551-2.215,7.277-3.627s3.078-3.154,4.055-5.229h7.593V633.519z"/>
		<path fill="#FF7074" d="M145.668,650.463c0-6.279,1.13-10.672,3.391-13.182c2.26-2.508,5.705-3.764,10.33-3.764
			c2.223,0,4.049,0.273,5.475,0.822c1.427,0.549,2.592,1.264,3.492,2.143c0.901,0.879,1.611,1.803,2.129,2.77
			c0.519,0.969,0.936,2.1,1.25,3.391c0.617,2.465,0.925,5.031,0.925,7.705c0,5.992-1.015,10.381-3.042,13.158
			c-2.028,2.777-5.52,4.168-10.477,4.168c-2.779,0-5.024-0.441-6.736-1.33c-1.713-0.887-3.118-2.186-4.213-3.896
			c-0.797-1.215-1.416-2.879-1.859-4.99C145.891,655.347,145.668,653.015,145.668,650.463z M154.77,650.484
			c0,4.205,0.373,7.078,1.115,8.615c0.744,1.541,1.821,2.313,3.233,2.313c0.932,0,1.739-0.326,2.422-0.98
			c0.685-0.654,1.187-1.686,1.51-3.098s0.485-3.613,0.485-6.602c0-4.387-0.373-7.334-1.116-8.846
			c-0.743-1.508-1.858-2.264-3.347-2.264c-1.518,0-2.612,0.771-3.288,2.311C155.11,643.474,154.77,646.324,154.77,650.484z"/>
		<path fill="#FF7074" d="M174.927,650.463c0-6.279,1.13-10.672,3.392-13.182c2.261-2.508,5.703-3.764,10.33-3.764
			c2.223,0,4.047,0.273,5.475,0.822c1.427,0.549,2.591,1.264,3.492,2.143c0.902,0.879,1.611,1.803,2.129,2.77
			c0.52,0.969,0.936,2.1,1.251,3.391c0.614,2.465,0.924,5.031,0.924,7.705c0,5.992-1.015,10.381-3.042,13.158
			s-5.52,4.168-10.477,4.168c-2.778,0-5.024-0.441-6.736-1.33c-1.712-0.887-3.117-2.186-4.213-3.896
			c-0.797-1.215-1.416-2.879-1.858-4.99C175.149,655.347,174.927,653.015,174.927,650.463z M184.028,650.484
			c0,4.205,0.373,7.078,1.115,8.615c0.744,1.541,1.821,2.313,3.233,2.313c0.933,0,1.737-0.326,2.422-0.98s1.187-1.686,1.511-3.098
			c0.322-1.412,0.483-3.613,0.483-6.602c0-4.387-0.372-7.334-1.115-8.846c-0.743-1.508-1.858-2.264-3.346-2.264
			c-1.519,0-2.613,0.771-3.289,2.311C184.368,643.474,184.028,646.324,184.028,650.484z"/>
	</g>
</g>
<g>
	<g>
		<g>
			<circle fill="#FFDB03" cx="162.181" cy="517.002" r="46.718"/>
			<circle fill="#F5B400" cx="162.183" cy="517.002" r="36.527"/>
			<path fill="#EA9C00" d="M127.564,518.169c0-19.53,15.83-35.359,35.359-35.359s35.36,15.829,35.36,35.359
				c0,5.312-1.179,10.345-3.276,14.863c2.369-4.842,3.702-10.275,3.702-16.031c0-20.172-16.354-36.525-36.528-36.525
				c-20.172,0-36.525,16.354-36.525,36.525c0,20.175,16.354,36.528,36.525,36.528c0.125,0,0.247-0.008,0.371-0.01
				C143.195,553.32,127.564,537.573,127.564,518.169z"/>
		</g>
	</g>
	<g>
		<path fill="#EA9C00" d="M139.635,502.005h20.433v6.885h-13.84l-0.74,4.66c0.959-0.452,1.906-0.791,2.843-1.019
			c0.937-0.226,1.862-0.339,2.778-0.339c3.1,0,5.615,0.94,7.543,2.819c1.931,1.878,2.896,4.243,2.896,7.096
			c0,2.004-0.497,3.932-1.49,5.781c-0.992,1.852-2.4,3.264-4.226,4.236c-1.825,0.975-4.159,1.461-7.005,1.461
			c-2.042,0-3.793-0.193-5.25-0.58c-1.458-0.391-2.698-0.969-3.719-1.736c-1.021-0.771-1.85-1.645-2.483-2.619
			c-0.633-0.973-1.162-2.188-1.584-3.643l8.705-0.953c0.212,1.398,0.705,2.461,1.479,3.188c0.773,0.729,1.696,1.092,2.768,1.092
			c1.197,0,2.188-0.457,2.968-1.367c0.782-0.91,1.173-2.27,1.173-4.076c0-1.852-0.395-3.207-1.183-4.067
			c-0.79-0.86-1.839-1.294-3.149-1.294c-0.83,0-1.634,0.206-2.408,0.615c-0.578,0.296-1.213,0.834-1.901,1.609l-7.333-1.058
			L139.635,502.005z"/>
		<path fill="#EA9C00" d="M164.926,517.406c0-5.901,1.06-10.035,3.181-12.393c2.119-2.358,5.35-3.537,9.688-3.537
			c2.084,0,3.796,0.258,5.134,0.772c1.339,0.515,2.431,1.188,3.275,2.012c0.845,0.825,1.511,1.694,1.997,2.605
			c0.486,0.91,0.877,1.975,1.173,3.188c0.577,2.316,0.866,4.731,0.866,7.245c0,5.635-0.951,9.758-2.854,12.37
			c-1.902,2.613-5.177,3.92-9.824,3.92c-2.606,0-4.713-0.416-6.318-1.248c-1.605-0.834-2.924-2.057-3.951-3.666
			c-0.748-1.145-1.328-2.709-1.743-4.691C165.133,522.001,164.926,519.807,164.926,517.406z M173.461,517.427
			c0,3.955,0.349,6.654,1.046,8.103c0.698,1.447,1.708,2.17,3.033,2.17c0.874,0,1.63-0.307,2.271-0.92
			c0.641-0.615,1.112-1.586,1.416-2.914c0.303-1.326,0.453-3.396,0.453-6.206c0-4.124-0.349-6.896-1.046-8.314
			c-0.696-1.42-1.743-2.128-3.138-2.128c-1.424,0-2.451,0.724-3.085,2.17S173.461,513.516,173.461,517.427z"/>
	</g>
	<g>
		<g>
			<path fill="#FFDB03" d="M139.517,501.988h19.807v6.657h-13.416l-0.717,4.507c0.93-0.437,1.848-0.766,2.756-0.982
				c0.908-0.22,1.806-0.329,2.693-0.329c3.004,0,5.442,0.908,7.313,2.726c1.87,1.817,2.807,4.104,2.807,6.861
				c0,1.939-0.481,3.805-1.444,5.592c-0.961,1.791-2.328,3.156-4.097,4.098c-1.769,0.943-4.032,1.414-6.791,1.414
				c-1.979,0-3.677-0.188-5.09-0.563c-1.414-0.377-2.614-0.938-3.604-1.682c-0.989-0.744-1.791-1.586-2.406-2.529
				c-0.614-0.941-1.126-2.115-1.536-3.523l8.438-0.92c0.205,1.352,0.684,2.379,1.435,3.082c0.75,0.703,1.646,1.055,2.683,1.055
				c1.16,0,2.12-0.439,2.877-1.32c0.758-0.881,1.137-2.195,1.137-3.941c0-1.791-0.381-3.101-1.146-3.935
				c-0.766-0.832-1.781-1.25-3.053-1.25c-0.805,0-1.584,0.199-2.335,0.596c-0.56,0.286-1.175,0.807-1.843,1.558l-7.108-1.023
				L139.517,501.988z"/>
			<path fill="#FFDB03" d="M164.035,516.878c0-5.707,1.027-9.702,3.083-11.982c2.056-2.279,5.186-3.42,9.392-3.42
				c2.021,0,3.68,0.249,4.979,0.748c1.297,0.497,2.354,1.146,3.175,1.943c0.819,0.8,1.465,1.64,1.937,2.521
				c0.471,0.881,0.85,1.909,1.137,3.083c0.56,2.24,0.84,4.576,0.84,7.005c0,5.45-0.922,9.436-2.766,11.963s-5.019,3.789-9.525,3.789
				c-2.526,0-4.568-0.402-6.125-1.207c-1.557-0.807-2.834-1.986-3.83-3.545c-0.725-1.105-1.288-2.619-1.689-4.537
				C164.236,521.321,164.035,519.201,164.035,516.878z M172.31,516.9c0,3.824,0.338,6.435,1.014,7.835
				c0.676,1.398,1.656,2.098,2.938,2.098c0.847,0,1.581-0.295,2.202-0.889c0.622-0.596,1.079-1.535,1.373-2.818
				c0.294-1.281,0.439-3.283,0.439-6c0-3.987-0.338-6.668-1.014-8.04c-0.675-1.372-1.689-2.059-3.042-2.059
				c-1.38,0-2.376,0.7-2.991,2.1C172.618,510.526,172.31,513.117,172.31,516.9z"/>
		</g>
	</g>
</g>
<g>
	<g>
		<g>
			<circle fill="#BFBFBF" cx="162.181" cy="383.407" r="46.146"/>
			<circle fill="#8C8C8C" cx="162.181" cy="383.408" r="36.078"/>
			<path fill="#767B81" d="M127.988,384.561c0-19.29,15.637-34.928,34.925-34.928c19.29,0,34.927,15.638,34.927,34.928
				c0,5.246-1.164,10.218-3.236,14.685c2.338-4.782,3.656-10.154,3.656-15.837c0-19.926-16.152-36.078-36.078-36.078
				c-19.925,0-36.078,16.152-36.078,36.078s16.153,36.079,36.078,36.079c0.123,0,0.243-0.009,0.366-0.009
				C143.428,419.282,127.988,403.727,127.988,384.561z"/>
		</g>
	</g>
	<g>
		<g>
			<path fill="#767B81" d="M156.203,366.332v35.226h-9.645v-23.082c-1.562,1.196-3.07,2.165-4.529,2.907
				c-1.459,0.738-3.289,1.446-5.488,2.125v-7.892c3.246-1.056,5.766-2.324,7.561-3.805c1.795-1.479,3.198-3.308,4.213-5.479H156.203
				z"/>
			<path fill="#767B81" d="M161.781,384.099c0-6.584,1.174-11.19,3.522-13.82c2.349-2.633,5.927-3.946,10.732-3.946
				c2.31,0,4.206,0.287,5.688,0.862c1.481,0.572,2.691,1.321,3.627,2.242c0.938,0.921,1.676,1.893,2.213,2.906
				c0.539,1.016,0.973,2.202,1.299,3.557c0.641,2.584,0.961,5.278,0.961,8.079c0,6.287-1.055,10.888-3.16,13.801
				c-2.105,2.917-5.735,4.372-10.887,4.372c-2.887,0-5.221-0.465-6.998-1.394c-1.778-0.93-3.239-2.292-4.377-4.088
				c-0.83-1.275-1.473-3.021-1.932-5.234C162.011,389.224,161.781,386.779,161.781,384.099z M171.238,384.124
				c0,4.409,0.386,7.423,1.158,9.037c0.772,1.613,1.893,2.421,3.358,2.421c0.97,0,1.808-0.341,2.519-1.024
				c0.709-0.688,1.231-1.771,1.567-3.252c0.335-1.479,0.503-3.788,0.503-6.922c0-4.601-0.387-7.691-1.16-9.274
				c-0.771-1.584-1.931-2.375-3.477-2.375c-1.576,0-2.715,0.809-3.417,2.423C171.587,376.77,171.238,379.761,171.238,384.124z"/>
		</g>
	</g>
	<g>
		<g>
			<path fill="#BFBFBF" d="M155.464,366.332v33.592h-9.281v-22.012c-1.502,1.141-2.955,2.063-4.359,2.771
				c-1.404,0.704-3.166,1.38-5.283,2.027v-7.525c3.124-1.006,5.55-2.215,7.277-3.627c1.727-1.412,3.078-3.153,4.055-5.227
				L155.464,366.332L155.464,366.332z"/>
			<path fill="#BFBFBF" d="M160.833,383.273c0-6.276,1.13-10.673,3.392-13.18c2.26-2.508,5.704-3.762,10.33-3.762
				c2.223,0,4.047,0.271,5.475,0.822c1.427,0.546,2.591,1.262,3.492,2.138c0.9,0.879,1.61,1.804,2.129,2.771
				c0.519,0.971,0.936,2.101,1.25,3.392c0.615,2.466,0.925,5.034,0.925,7.705c0,5.995-1.015,10.379-3.042,13.157
				c-2.027,2.779-5.52,4.169-10.478,4.169c-2.778,0-5.024-0.443-6.735-1.327c-1.713-0.888-3.117-2.188-4.213-3.899
				c-0.797-1.217-1.416-2.88-1.858-4.989C161.053,388.159,160.833,385.828,160.833,383.273z M169.933,383.296
				c0,4.205,0.372,7.079,1.115,8.617c0.744,1.54,1.821,2.309,3.232,2.309c0.933,0,1.738-0.325,2.423-0.978
				c0.684-0.654,1.187-1.688,1.51-3.101s0.483-3.61,0.483-6.6c0-4.387-0.371-7.334-1.114-8.845c-0.743-1.51-1.858-2.264-3.347-2.264
				c-1.517,0-2.612,0.771-3.289,2.31C170.273,376.284,169.933,379.136,169.933,383.296z"/>
		</g>
	</g>
</g>
<g>
	<g>
		<g>
			<circle fill="#BFBFBF" cx="162.181" cy="249.812" r="38.771"/>
			<circle fill="#8C8C8C" cx="162.181" cy="249.812" r="30.313"/>
			<path fill="#767B81" d="M133.453,250.783c0-16.209,13.139-29.346,29.344-29.346c16.207,0,29.346,13.137,29.346,29.346
				c0,4.406-0.979,8.582-2.719,12.334c1.965-4.019,3.072-8.531,3.072-13.305c0-16.74-13.572-30.313-30.314-30.313
				c-16.74,0-30.313,13.572-30.313,30.313s13.572,30.313,30.313,30.313c0.104,0,0.205-0.008,0.309-0.008
				C146.424,279.953,133.453,266.884,133.453,250.783z"/>
		</g>
	</g>
	<g>
		<g>
			<g>
				<path fill="#767B81" d="M151.295,232.142h22.921v7.703h-15.525l-0.83,5.216c1.074-0.507,2.138-0.886,3.188-1.138
					c1.052-0.252,2.091-0.381,3.117-0.381c3.478,0,6.298,1.051,8.462,3.154c2.165,2.102,3.248,4.748,3.248,7.938
					c0,2.244-0.557,4.402-1.672,6.474c-1.113,2.069-2.693,3.649-4.74,4.739c-2.047,1.091-4.666,1.636-7.857,1.636
					c-2.291,0-4.254-0.218-5.891-0.652c-1.636-0.434-3.025-1.082-4.172-1.943c-1.146-0.86-2.074-1.836-2.785-2.928
					c-0.711-1.09-1.304-2.449-1.777-4.076l9.767-1.065c0.237,1.563,0.79,2.754,1.659,3.565c0.867,0.814,1.904,1.222,3.105,1.222
					c1.342,0,2.452-0.511,3.329-1.529s1.315-2.539,1.315-4.563c0-2.069-0.442-3.586-1.327-4.551
					c-0.886-0.963-2.063-1.445-3.532-1.445c-0.932,0-1.833,0.229-2.701,0.688c-0.647,0.332-1.359,0.932-2.134,1.801l-8.228-1.186
					L151.295,232.142z"/>
			</g>
		</g>
		<g>
			<g>
				<path fill="#BFBFBF" d="M151.083,232.142h21.786v7.322h-14.758l-0.789,4.957c1.021-0.479,2.031-0.842,3.031-1.082
					c0.998-0.24,1.985-0.36,2.963-0.36c3.304,0,5.984,1,8.043,2.998c2.058,1.997,3.086,4.514,3.086,7.547
					c0,2.133-0.528,4.184-1.588,6.149c-1.06,1.969-2.562,3.472-4.506,4.506c-1.945,1.037-4.436,1.556-7.47,1.556
					c-2.178,0-4.044-0.207-5.599-0.619c-1.555-0.414-2.877-1.029-3.965-1.849c-1.09-0.818-1.973-1.745-2.647-2.782
					c-0.676-1.035-1.239-2.328-1.688-3.875l9.281-1.015c0.227,1.488,0.752,2.617,1.577,3.392c0.825,0.772,1.81,1.16,2.951,1.16
					c1.276,0,2.332-0.484,3.165-1.453c0.834-0.97,1.251-2.414,1.251-4.336c0-1.97-0.421-3.41-1.263-4.326s-1.959-1.375-3.356-1.375
					c-0.886,0-1.741,0.219-2.567,0.653c-0.615,0.314-1.293,0.888-2.027,1.714l-7.818-1.127L151.083,232.142z"/>
			</g>
		</g>
	</g>
</g>
<g>
	<g>
		<g>
			<circle fill="#FF9933" cx="162.181" cy="116.217" r="34.635"/>
			<circle fill="#E07117" cx="162.181" cy="116.218" r="27.079"/>
			<path fill="#CC6633" d="M136.517,117.082c0-14.477,11.735-26.215,26.215-26.215c14.477,0,26.215,11.738,26.215,26.215
				c0,3.938-0.875,7.671-2.43,11.019c1.756-3.586,2.743-7.62,2.743-11.883c0-14.954-12.125-27.077-27.079-27.077
				c-14.955,0-27.078,12.123-27.078,27.077c0,14.956,12.123,27.079,27.078,27.079c0.092,0,0.184-0.005,0.274-0.008
				C148.105,143.142,136.517,131.468,136.517,117.082z"/>
		</g>
	</g>
	<g>
		<g>
			<g>
				<path fill="#CC6633" d="M168.49,98.395v35.488h-9.805V110.63c-1.588,1.206-3.123,2.183-4.605,2.929
					c-1.484,0.745-3.346,1.46-5.582,2.142v-7.949c3.301-1.063,5.863-2.341,7.688-3.832s3.252-3.332,4.283-5.521h8.021V98.395z"/>
			</g>
		</g>
		<g>
			<g>
				<path fill="#FFA142" d="M167.421,98.395v33.592h-9.281v-22.012c-1.503,1.142-2.955,2.064-4.359,2.771
					c-1.404,0.707-3.166,1.383-5.283,2.028v-7.525c3.124-1.006,5.55-2.215,7.277-3.627c1.727-1.411,3.078-3.153,4.055-5.226
					L167.421,98.395L167.421,98.395z"/>
			</g>
		</g>
	</g>
</g>
<g id="選單_1_">
</g>
</svg>
