<?xml version="1.0" encoding="utf-8"?>
<!-- Generator: Adobe Illustrator 16.0.3, SVG Export Plug-In . SVG Version: 6.00 Build 0)  -->
<!DOCTYPE svg PUBLIC "-//W3C//DTD SVG 1.1//EN" "http://www.w3.org/Graphics/SVG/1.1/DTD/svg11.dtd">
<svg version="1.1" xmlns="http://www.w3.org/2000/svg" xmlns:xlink="http://www.w3.org/1999/xlink" x="0px" y="0px"
	 width="353.314px" height="199.418px" viewBox="0 0 353.314 199.418" enable-background="new 0 0 353.314 199.418"
	 xml:space="preserve">
<g id="BG">
</g>
<g id="UI">
	<g>
		<path opacity="0.2" fill="#231815" d="M353.314,180.337c0,10.538-8.464,19.082-18.908,19.082H18.908
			C8.465,199.418,0,190.875,0,180.337V19.083C0,8.543,8.465,0,18.908,0h315.499c10.443,0,18.908,8.543,18.908,19.083V180.337z"/>
		<linearGradient id="SVGID_1_" gradientUnits="userSpaceOnUse" x1="175.3247" y1="2.1665" x2="175.3247" y2="196.4072">
			<stop  offset="0.2849" style="stop-color:#EFEFEF"/>
			<stop  offset="0.6452" style="stop-color:#B5B5B6"/>
			<stop  offset="0.6882" style="stop-color:#C0C0C1"/>
			<stop  offset="0.8074" style="stop-color:#DADADA"/>
			<stop  offset="0.9149" style="stop-color:#EAEAEA"/>
			<stop  offset="1" style="stop-color:#EFEFEF"/>
		</linearGradient>
		<path fill="url(#SVGID_1_)" d="M348.981,177.821c0,10.264-8.321,18.586-18.586,18.586H20.254
			c-10.266,0-18.586-8.322-18.586-18.586V20.753c0-10.265,8.321-18.587,18.586-18.587h310.141c10.265,0,18.586,8.322,18.586,18.587
			V177.821z"/>
		<path fill="#9FA0A0" d="M342.391,174.841c0,9.874-8.007,17.88-17.883,17.88H26.139c-9.874,0-17.881-8.007-17.881-17.88V23.734
			c0-9.875,8.007-17.881,17.881-17.881h298.37c9.876,0,17.883,8.006,17.883,17.881V174.841z"/>
		<path fill="#FFFFFF" d="M338.632,173.141c0,9.651-7.825,17.478-17.479,17.478H29.495c-9.653,0-17.479-7.827-17.479-17.478V25.434
			c0-9.653,7.826-17.479,17.479-17.479h291.659c9.653,0,17.479,7.826,17.479,17.479V173.141z"/>
		<linearGradient id="SVGID_2_" gradientUnits="userSpaceOnUse" x1="174.4438" y1="192.1602" x2="174.4438" y2="9.4956">
			<stop  offset="0.0471" style="stop-color:#BCBCBC;stop-opacity:0.7"/>
			<stop  offset="0.1313" style="stop-color:#D4D4D4;stop-opacity:0.7899"/>
			<stop  offset="0.2574" style="stop-color:#F3F3F3;stop-opacity:0.9246"/>
			<stop  offset="0.328" style="stop-color:#FFFFFF"/>
			<stop  offset="0.7419" style="stop-color:#FFFFFF;stop-opacity:0.9992"/>
			<stop  offset="0.7928" style="stop-color:#F4F4F4;stop-opacity:0.9271"/>
			<stop  offset="0.8809" style="stop-color:#D8D8D8;stop-opacity:0.8018"/>
			<stop  offset="0.9526" style="stop-color:#BCBCBC;stop-opacity:0.7"/>
		</linearGradient>
		<path fill="url(#SVGID_2_)" d="M337.751,174.682c0,9.651-7.825,17.478-17.479,17.478H28.615c-9.653,0-17.479-7.827-17.479-17.478
			V26.975c0-9.653,7.825-17.479,17.479-17.479h291.658c9.653,0,17.479,7.826,17.479,17.479V174.682z"/>
		<g>
			<line fill="none" stroke="#9FA0A0" stroke-width="4" stroke-miterlimit="10" x1="12.017" y1="59.054" x2="338.632" y2="59.054"/>
			<line fill="none" stroke="#F7F8F8" stroke-width="2" stroke-miterlimit="10" x1="12.017" y1="58.637" x2="338.632" y2="58.637"/>
		</g>
		<g>
			<line fill="none" stroke="#9FA0A0" stroke-width="4" stroke-miterlimit="10" x1="12.017" y1="142.22" x2="338.632" y2="142.22"/>
			
				<line fill="none" stroke="#F7F8F8" stroke-width="2" stroke-miterlimit="10" x1="12.017" y1="142.637" x2="338.632" y2="142.637"/>
		</g>
	</g>
</g>
<g id="_x24_">
</g>
<g id="選單">
</g>
</svg>
