<?xml version="1.0" encoding="utf-8"?>
<!-- Generator: Adobe Illustrator 16.0.3, SVG Export Plug-In . SVG Version: 6.00 Build 0)  -->
<!DOCTYPE svg PUBLIC "-//W3C//DTD SVG 1.1//EN" "http://www.w3.org/Graphics/SVG/1.1/DTD/svg11.dtd">
<svg version="1.1" xmlns="http://www.w3.org/2000/svg" xmlns:xlink="http://www.w3.org/1999/xlink" x="0px" y="0px"
	 width="51.872px" height="51.869px" viewBox="0 0 51.872 51.869" enable-background="new 0 0 51.872 51.869" xml:space="preserve">
<g id="BG">
	<g>
		<circle opacity="0.2" fill="#231815" cx="25.936" cy="25.934" r="25.936"/>
		<path fill="#FFFFFF" d="M49.878,25.281c0,13.582-11.013,24.594-24.598,24.594S0.683,38.863,0.683,25.281
			c0-13.586,11.013-24.6,24.598-24.6S49.878,11.695,49.878,25.281z"/>
		<path fill="#9FA0A0" d="M48.504,25.281c0,12.822-10.398,23.221-23.223,23.221S2.058,38.104,2.058,25.281
			c0-12.828,10.398-23.223,23.223-23.223S48.504,12.453,48.504,25.281z"/>
		<circle fill="#D32424" cx="25.281" cy="25.281" r="22.092"/>
		<linearGradient id="SVGID_1_" gradientUnits="userSpaceOnUse" x1="25.1938" y1="48.0898" x2="25.1938" y2="3.2793">
			<stop  offset="0.2151" style="stop-color:#FFFFFF;stop-opacity:0.03"/>
			<stop  offset="0.8482" style="stop-color:#FFFFFF;stop-opacity:0.5164"/>
			<stop  offset="0.957" style="stop-color:#FFFFFF;stop-opacity:0.6"/>
		</linearGradient>
		<circle opacity="0.6" fill="url(#SVGID_1_)" cx="25.194" cy="25.684" r="22.407"/>
		<g>
			<path fill="none" d="M15.412,18.986c-1.166-1.184-1.044-3.164,0.361-4.568c1.447-1.445,2.833-2.209,4.159-0.926l5.299,5.109
				l5.217-5.047c1.205-1.268,2.571-0.514,4.098,0.895c1.447,1.426,1.586,3.406,0.422,4.57l-5.095,5.068l5.909,5.857
				c1.205,1.287,1.085,3.346-0.361,4.813c-1.406,1.404-2.724,2.158-3.949,0.895l-6.206-6.043l-6.117,6.07
				c-1.206,1.307-2.541,0.572-4.006-0.832c-1.467-1.408-1.568-3.486-0.302-4.873l5.818-5.855L15.412,18.986z"/>
		</g>
		<g>
			<g>
				<path fill="#FFFFFF" d="M15.909,18.623c-1.108-1.125-0.992-2.355,0.342-3.693c1.374-1.373,2.69-1.449,3.95-0.229l5.036,5.238
					l4.95-5.18c1.145-1.203,2.441-1.135,3.892,0.201c1.373,1.354,1.507,2.584,0.4,3.689l-5.207,5.467l5.98,6.209
					c1.145,1.219,1.03,2.527-0.344,3.92c-1.335,1.332-2.586,1.4-3.75,0.201l-5.894-6.125l-5.808,6.152
					c-1.146,1.238-2.415,1.191-3.806-0.143c-1.394-1.338-1.488-2.662-0.286-3.979l5.894-6.209L15.909,18.623z"/>
			</g>
		</g>
	</g>
</g>
<g id="_x24_">
</g>
<g id="UI">
</g>
<g id="選單">
</g>
</svg>
