<?xml version="1.0" encoding="utf-8"?>
<!-- Generator: Adobe Illustrator 16.0.3, SVG Export Plug-In . SVG Version: 6.00 Build 0)  -->
<!DOCTYPE svg PUBLIC "-//W3C//DTD SVG 1.1//EN" "http://www.w3.org/Graphics/SVG/1.1/DTD/svg11.dtd">
<svg version="1.1" xmlns="http://www.w3.org/2000/svg" xmlns:xlink="http://www.w3.org/1999/xlink" x="0px" y="0px"
	 width="382.817px" height="90.431px" viewBox="0 0 382.817 90.431" enable-background="new 0 0 382.817 90.431"
	 xml:space="preserve">
<g id="圖層_1" display="none">
</g>
<g id="BG">
	<g>
		<defs>
			
				<rect id="SVGID_4_" x="-1.015" y="-0.548" transform="matrix(-1 0.0015 -0.0015 -1 382.6263 89.4165)" width="384.589" height="90.798"/>
		</defs>
		<clipPath id="SVGID_2_">
			<use xlink:href="#SVGID_4_"  overflow="visible"/>
		</clipPath>
		<g clip-path="url(#SVGID_2_)">
			<path fill="#B05302" d="M382.873,104.032c0.012,8.285-7.443,15.012-16.651,15.025l-345.135,0.515
				c-9.209,0.014-16.685-6.689-16.696-14.975L4.258,16.104C4.246,7.82,11.701,1.093,20.91,1.078l345.134-0.515
				c9.208-0.014,16.684,6.692,16.696,14.975L382.873,104.032z"/>
			<path fill="#FF983D" d="M378.74,103.745c0.013,8.284-7.442,15.011-16.651,15.024l-345.134,0.516
				c-9.209,0.013-16.684-6.691-16.697-14.976L0.125,15.815C0.113,7.532,7.568,0.805,16.777,0.791l345.134-0.516
				c9.208-0.014,16.684,6.691,16.696,14.976L378.74,103.745z"/>
			<g>
				<defs>
					<path id="SVGID_6_" d="M378.737,103.745c0.012,8.284-7.447,15.011-16.66,15.024l-345.3,0.516
						c-9.213,0.014-16.692-6.691-16.704-14.975L-0.06,15.816C-0.072,7.532,7.387,0.805,16.6,0.791l345.3-0.516
						c9.213-0.014,16.692,6.691,16.704,14.976L378.737,103.745z"/>
				</defs>
				<clipPath id="SVGID_3_">
					<use xlink:href="#SVGID_6_"  overflow="visible"/>
				</clipPath>
				<g opacity="0.5" clip-path="url(#SVGID_3_)">
					<path fill-rule="evenodd" clip-rule="evenodd" fill="#F77705" d="M127.903-0.357l-4.147,0.006
						c-0.624,0.707-0.892,1.553-1.116,2.396C125.103,1.46,126.612,0.351,127.903-0.357z"/>
					<path fill-rule="evenodd" clip-rule="evenodd" fill="#F77705" d="M296.422,1.862c-2.353-1.057,0.156-1.766,1.104-2.473
						l-3.865,0.005c-1.747,0.355-3.514,1.063-2.755,2.477C292.744,1.868,294.585,1.865,296.422,1.862z"/>
					<path fill-rule="evenodd" clip-rule="evenodd" fill="#F77705" d="M88.16,4.334c-1.662-2.739-3.873-2.719-6.903-5.039
						C79.356,0.685,83.041,5.203,88.16,4.334z"/>
					<path fill-rule="evenodd" clip-rule="evenodd" fill="#F77705" d="M168.154,3.373c-2.126-1.136,2.281-2.604-4.143-2.938
						C160.453,1.651,163.896,3.271,168.154,3.373z"/>
					<path fill-rule="evenodd" clip-rule="evenodd" fill="#F77705" d="M306.079,2.325c-2.042-0.214-3.479-0.617-5.521-0.834
						c0.216,1.048-2.163,1.308-2.755,2.109C302.465,3.755,303.688,2.861,306.079,2.325z"/>
					<path fill-rule="evenodd" clip-rule="evenodd" fill="#F77705" d="M177.814,6.725c-0.398-2.062,2.224-3.128-0.007-4.627
						C176.86,3.555,169.165,6.01,177.814,6.725z"/>
					<path fill-rule="evenodd" clip-rule="evenodd" fill="#F77705" d="M327.608,3.556c-0.001-0.561-0.001-1.121-0.002-1.683
						c-5.316-0.35-7.337,2.792-4.133,3.792C325.059,4.918,323.354,2.377,327.608,3.556z"/>
					<path fill-rule="evenodd" clip-rule="evenodd" fill="#F77705" d="M42.644,2.718c-1.033,1.371-2.496,2.608-4.133,3.793
						c2.75,0.421,4.834,1.043,6.901,1.672C41.469,6.38,45.113,4.489,42.644,2.718z"/>
					<path fill-rule="evenodd" clip-rule="evenodd" fill="#F77705" d="M168.162,8.421c-0.983-1.046,6.069-1.737,1.378-2.525
						C169.286,7,161.536,7.658,168.162,8.421z"/>
					<path fill-rule="evenodd" clip-rule="evenodd" fill="#F77705" d="M176.445,12.616c-0.929-1.96-4.042-3.25-5.525-5.039
						C166.986,9.537,172.084,11.848,176.445,12.616z"/>
					<path fill-rule="evenodd" clip-rule="evenodd" fill="#F77705" d="M271.611,12.054c1.715,0.876,4.013,1.575,6.899,2.094
						c-5.34-2.229-2.766-3.973,2.75-6.735C273.433,7.561,274.646,10.452,271.611,12.054z"/>
					<path fill-rule="evenodd" clip-rule="evenodd" fill="#F77705" d="M316.986,9.883c0-0.563,0-0.291-0.001-0.996
						c-2.126,0.003-1.242,0.002-2.62,0.004C313.978,9.949,312.734,10.014,316.986,9.883z"/>
					<path fill-rule="evenodd" clip-rule="evenodd" fill="#F77705" d="M117.133,9.338c-1.031,0.976-5.492,1.967,1.382,2.101
						C117.76,10.831,120.123,9.263,117.133,9.338z"/>
					<path fill-rule="evenodd" clip-rule="evenodd" fill="#F77705" d="M152.994,10.969c2.627,0.176,3.467,0.899,6.898,0.831
						c-1.533-1.319-0.648-1.111,1.377-2.106c-1.865-0.128-2.637-0.594-5.518-0.413C156.758,10.428,153.01,10.133,152.994,10.969z"/>
					<path fill-rule="evenodd" clip-rule="evenodd" fill="#F77705" d="M30.242,10.311c-2.045,1.341-2.855,3.059-5.511,4.216
						c2.064,0.768,5.758,1.039,6.898,2.092c-0.584,3.841,1.571,2.517,2.759-0.004C28.194,14.8,32.708,12.586,30.242,10.311z"/>
					<path fill-rule="evenodd" clip-rule="evenodd" fill="#F77705" d="M362.642,11.918c0.073-0.725-1.065-1.076-2.76-1.258
						c10.12,4.884-7.624,8.109-6.876,13.893c2.245,0.192,4.313,2.551,6.898,1.25c-6.164-2.697,0.56-9.426,6.884-8.002
						c-4.947-2.442,4.262-4.319-0.01-6.31C366.546,11.979,364.6,11.95,362.642,11.918z"/>
					<path fill-rule="evenodd" clip-rule="evenodd" fill="#F77705" d="M73.007,16.136c0.618-0.218-1.454-3.182-2.766-4.202
						C67.921,12.952,68.001,16.047,73.007,16.136z"/>
					<path fill-rule="evenodd" clip-rule="evenodd" fill="#F77705" d="M168.167,11.787c-3.098,1.04-3.746,3.229,2.764,3.361
						C168.018,13.708,172.645,12.571,168.167,11.787z"/>
					<path fill-rule="evenodd" clip-rule="evenodd" fill="#F77705" d="M268.854,12.478c-0.987,0.449-5.383,1.945-1.374,2.526
						C267.168,14.16,273.63,13.29,268.854,12.478z"/>
					<path fill-rule="evenodd" clip-rule="evenodd" fill="#F77705" d="M140.585,13.93c-1.752,1.01-5.033,1.557-4.132,3.375
						C140.556,17.261,143.191,14.614,140.585,13.93z"/>
					<path fill-rule="evenodd" clip-rule="evenodd" fill="#F77705" d="M187.486,17.647c-0.073,0.539-1.766,0.585-1.376,1.265
						c0.076,0.256,0.206,0.498,1.378,0.418c1.199-0.638,2.064,0.114,5.517-0.429c-0.463,1.429,3.827,3.563,6.899,2.514
						c-4.559-0.624,2.867-1.034,1.376-2.105c-2.608-0.09-3.042,0.479-5.515,0.428c-3.838-1.57-0.171-2.958-4.146-4.62
						C188.727,16.258,193.08,19.569,187.486,17.647z"/>
					<path fill-rule="evenodd" clip-rule="evenodd" fill="#F77705" d="M110.25,19.025c1.644-1.821-4.522-2.353-1.383-3.363
						C100.435,15.891,108.594,18.147,110.25,19.025z"/>
					<path fill-rule="evenodd" clip-rule="evenodd" fill="#F77705" d="M121.283,18.587c1.381-1.3,2.276,0.911,4.14,0.835
						c-0.754-0.609,1.607-2.176-1.381-2.099c-1.615,1.253-1.717-1.379-4.141-1.258C120.696,16.803,118.239,18.539,121.283,18.587z"
						/>
					<path fill-rule="evenodd" clip-rule="evenodd" fill="#F77705" d="M242.654,16.724c1.608,0.068,1.498,0.663,1.381,1.26
						c4.273,0.155,5.61-2.034,1.376-2.106C245.396,16.433,242.994,16.267,242.654,16.724z"/>
					<path fill-rule="evenodd" clip-rule="evenodd" fill="#F77705" d="M101.97,16.934c0.008,1.124-4.356,0.919-4.133,2.11
						c0.775,0.604,2.153,1.022,4.138,1.255C100.171,18.87,105.045,17.357,101.97,16.934z"/>
					<path fill-rule="evenodd" clip-rule="evenodd" fill="#F77705" d="M110.253,21.128c3.199-0.138,5.296,0.06,6.898,0.41
						c-2.064-1.569,1.453-2.411-2.765-2.941C112.393,19.254,111.49,20.24,110.253,21.128z"/>
					<path fill-rule="evenodd" clip-rule="evenodd" fill="#F77705" d="M129.56,19.416c-2.014,0.925-1.292,3.826,4.144,3.781
						C130.499,22.495,131.904,20.382,129.56,19.416z"/>
					<path fill-rule="evenodd" clip-rule="evenodd" fill="#F77705" d="M66.118,20.353c-0.155,1.495-5.1,1.537-4.135,3.371
						C66.086,23.684,68.72,21.034,66.118,20.353z"/>
					<path fill-rule="evenodd" clip-rule="evenodd" fill="#F77705" d="M150.252,21.835c-3.079,1.415-6.101,4.837,2.762,3.361
						c-6.123-0.63,0.546-2.309,1.376-3.368C153.009,21.831,151.632,21.833,150.252,21.835z"/>
					<path fill-rule="evenodd" clip-rule="evenodd" fill="#F77705" d="M191.628,21.427c-4.778,1.804-4.773,4.808,0.01,6.73
						C189.267,25.63,195.432,21.633,191.628,21.427z"/>
					<path fill-rule="evenodd" clip-rule="evenodd" fill="#F77705" d="M295.074,22.534c0.382,1.657-5.894,1.297-5.512,2.954
						c2.294,0.839,3.706,1.949,8.278,2.091C289.558,25.719,300.317,23.821,295.074,22.534z"/>
					<path fill-rule="evenodd" clip-rule="evenodd" fill="#F77705" d="M114.398,25.75c2.064-0.075,5.09,0.143,5.517-0.431
						c-3.431-0.058-0.406-1.424-0.003-1.683C115.574,23.582,115.174,24.723,114.398,25.75z"/>
					<path fill-rule="evenodd" clip-rule="evenodd" fill="#F77705" d="M306.111,24.2c-0.079,1.849,0.559,3.478,2.765,4.625
						c1.39-1.063,2.386,1.465,5.521,1.254C310.993,28.315,311.838,25.25,306.111,24.2z"/>
					<path fill-rule="evenodd" clip-rule="evenodd" fill="#F77705" d="M21.988,25.047c-0.387,1.099,0.506,1.808,4.14,1.676
						C26.516,25.623,25.622,24.913,21.988,25.047z"/>
					<path fill-rule="evenodd" clip-rule="evenodd" fill="#F77705" d="M73.021,24.971c-1.224,0.749-3.85,1.074-2.755,2.527
						c3.12-0.076,6.069,2.013,8.276,0.828C74.004,28.035,75.355,25.936,73.021,24.971z"/>
					<path fill-rule="evenodd" clip-rule="evenodd" fill="#F77705" d="M267.506,32.671c-4.454-1.874-1.099-5.385-1.392-7.148
						c-8.822,1.688,0.882,6.415-5.503,8.843C266.556,34.907,262.316,32.359,267.506,32.671z"/>
					<path fill-rule="evenodd" clip-rule="evenodd" fill="#F77705" d="M1.306,28.861c2.267-0.655,0.585-1.963-1.384-2.521
						c-0.231,0.491-2.179,0.461-4.138,0.428C-4.571,28.14-2.575,28.789,1.306,28.861z"/>
					<path fill-rule="evenodd" clip-rule="evenodd" fill="#F77705" d="M19.23,26.733c0.048,2.299-12.362,4.491-2.749,5.893
						C13.569,30.382,25.496,28.193,19.23,26.733z"/>
					<path fill-rule="evenodd" clip-rule="evenodd" fill="#F77705" d="M147.503,27.383c0.575,2.206,1.794,4.219,5.522,5.46
						c-0.848-2.308-4.457-4.18-0.009-5.889C150.41,26.864,149.978,27.433,147.503,27.383z"/>
					<path fill-rule="evenodd" clip-rule="evenodd" fill="#F77705" d="M239.915,28.506c-1.367,1.27-4.878,1.886-4.135,3.793
						c2.403-0.037,4.291,0.087,5.517,0.412C236.511,30.886,243.114,30.27,239.915,28.506z"/>
					<path fill-rule="evenodd" clip-rule="evenodd" fill="#F77705" d="M217.85,31.903c-2.297-0.696,0.87-3.071-4.143-2.937
						C213.763,30.352,213.148,31.944,217.85,31.903z"/>
					<path fill-rule="evenodd" clip-rule="evenodd" fill="#F77705" d="M23.379,33.878c1.2,0.613,2.068,1.331,5.52,1.253
						c-4.638-2.208,0.508-2.233,2.752-4.21C26.566,31.201,24.419,32.371,23.379,33.878z"/>
					<path fill-rule="evenodd" clip-rule="evenodd" fill="#F77705" d="M33.054,47.324c-0.354-2.457-7.382-3.282-1.387-5.466
						c-7.492-1.07-7.16-4.538-9.665-7.136c-1.557,1.349-2.802,2.793-2.753,4.629C32.199,40.229,21.845,45.781,33.054,47.324z"/>
					<path fill-rule="evenodd" clip-rule="evenodd" fill="#F77705" d="M256.474,35.211c3.918,0.204,1.989,2.197,8.279,1.674
						c-2.368-1.073,1.579-1.477-1.383-2.104C261.308,36.184,257.611,33.127,256.474,35.211z"/>
					<path fill-rule="evenodd" clip-rule="evenodd" fill="#F77705" d="M78.558,39.263c5.913-0.45,4.484-3.01,4.131-4.212
						C81.167,36.594,75.945,37.662,78.558,39.263z"/>
					<path fill-rule="evenodd" clip-rule="evenodd" fill="#F77705" d="M129.589,39.187c-0.174-1.486-2.268-2.39-4.143-3.357
						c-0.666,0.75-1.47-0.18-2.757-0.418C122.615,37.398,124.976,38.638,129.589,39.187z"/>
					<path fill-rule="evenodd" clip-rule="evenodd" fill="#F77705" d="M67.523,38.019c3.632,0.12,4.524-0.589,4.132-1.689
						C68.024,36.208,67.13,36.92,67.523,38.019z"/>
					<path fill-rule="evenodd" clip-rule="evenodd" fill="#F77705" d="M337.857,39.768c2.67,1.707-0.816,5.065,4.146,6.068
						c-1.813-2.679,4.244-0.483,4.133-2.646c-3.892-0.418-3.456-0.201-5.517-0.422c1.161-1.891,4.113-2.879,5.51-4.646
						c-1.379,0.002-2.757,0.004-4.137,0.006C340.405,38.836,341.722,40.947,337.857,39.768z"/>
					<path fill-rule="evenodd" clip-rule="evenodd" fill="#F77705" d="M266.14,42.77c3.138-2.016-1.929-3.831-5.524-5.04
						C264.575,39.636,259.7,42.195,266.14,42.77z"/>
					<path fill-rule="evenodd" clip-rule="evenodd" fill="#F77705" d="M133.727,38.76c-0.932,0.98-4.582,1.133-5.514,2.112
						c5.333,0.05,5.442,1.698,9.659,2.09C136.362,41.131,133.291,40.172,133.727,38.76z"/>
					<path fill-rule="evenodd" clip-rule="evenodd" fill="#F77705" d="M366.826,43.461c-3.781-1.603,2.553-3.771-2.765-4.624
						c-1.607,1.257,0.977,2.878-2.751,4.212C363.172,43.177,363.943,43.643,366.826,43.461z"/>
					<path fill-rule="evenodd" clip-rule="evenodd" fill="#F77705" d="M84.081,43.042c-0.475-1.538-0.149-3.321-5.522-3.356
						C79.629,41.039,81.447,42.166,84.081,43.042z"/>
					<path fill-rule="evenodd" clip-rule="evenodd" fill="#F77705" d="M115.805,44.677c4.323,0.917,5.483,2.808,12.418,2.926
						c-0.663-2.835-8.677-0.917-6.904-4.617c0.149-0.663,8.222-1.945,1.378-2.106C122.153,42.679,116.595,42.954,115.805,44.677z"/>
					<path fill-rule="evenodd" clip-rule="evenodd" fill="#F77705" d="M16.496,41.881c1.054,1.499-4.27,2.896,1.384,3.363
						C17.039,44.239,19.607,42.189,16.496,41.881z"/>
					<path fill-rule="evenodd" clip-rule="evenodd" fill="#F77705" d="M357.195,59.04c-2.133-1.639-4.435-2.835-8.28-2.933
						c6.074,0.058,0.389-1.188-0.002-1.681c5.821-1.037,3.652-2.373,4.129-4.633c1.631,0.057,3.129,0.742,4.139-0.006
						c-2.562-1.295-3.854-3.312,1.373-3.79c-2.99,0.075-0.626-1.491-1.382-2.102c-3.453-0.066-4.315,0.653-5.516,1.272
						C359.049,48.996,333.97,57.387,357.195,59.04z"/>
					<path fill-rule="evenodd" clip-rule="evenodd" fill="#F77705" d="M333.725,44.352c-0.29,0.474-1.53,0.657-2.756,0.846
						c2.589,2.714,10.465,3.804,15.179,5.866c4.604-1.534-4.054-1.554-4.142-2.938c2.071-0.632,4.125-1.271,5.514-2.111
						c-5.124-0.153-3.603,1.711-9.651,1.276C337.812,45.904,338.427,44.313,333.725,44.352z"/>
					<path fill-rule="evenodd" clip-rule="evenodd" fill="#F77705" d="M379.247,48.069c-7.183,0.239-1.741-3.394-8.28-3.352
						c1.818,1.265,0.144,3.603,2.766,4.622C374.663,48.871,378.315,49.416,379.247,48.069z"/>
					<path fill-rule="evenodd" clip-rule="evenodd" fill="#F77705" d="M34.442,52.793c3.747-2.188,4.119-5.18,2.747-7.156
						C32.965,47.669,34.881,51.19,34.442,52.793z"/>
					<path fill-rule="evenodd" clip-rule="evenodd" fill="#F77705" d="M176.494,45.849c1.012,1.232,5.195,1.493,8.278,2.091
						c-0.698-1.049-2.608-1.725-4.141-2.518C180.399,45.912,178.452,45.883,176.494,45.849z"/>
					<path fill-rule="evenodd" clip-rule="evenodd" fill="#F77705" d="M190.292,49.613c0.681-1.079,4.587-3.341,1.372-4.207
						C189.666,46.261,184.659,49.033,190.292,49.613z"/>
					<path fill-rule="evenodd" clip-rule="evenodd" fill="#F77705" d="M259.253,48.248c-0.251-1.436-5.245-2.811-8.28-2.09
						C250.76,47.767,256.608,47.516,259.253,48.248z"/>
					<path fill-rule="evenodd" clip-rule="evenodd" fill="#F77705" d="M358.555,46.838c-0.233,1.054,2.12,1.313,4.141,1.677
						c-1.513-1.6,3.646-2.631-1.383-2.942C361.182,46.233,361.498,47.031,358.555,46.838z"/>
					<path fill-rule="evenodd" clip-rule="evenodd" fill="#F77705" d="M117.19,47.199c0.334,1.722,3.88,2.457,5.522,3.777
						C121.764,49.443,123.005,47.239,117.19,47.199z"/>
					<path fill-rule="evenodd" clip-rule="evenodd" fill="#F77705" d="M210.977,47.479c-3.609,2.257,4.073,3.485,9.662,4.193
						C216.862,50.446,216.167,48.272,210.977,47.479z"/>
					<path fill-rule="evenodd" clip-rule="evenodd" fill="#F77705" d="M197.189,50.865c3.335-0.004,8.815-1.486,5.516-2.111
						C202.457,49.94,196.149,49.289,197.189,50.865z"/>
					<path fill-rule="evenodd" clip-rule="evenodd" fill="#F77705" d="M340.639,56.119c-6.973-2.302-4.465-3.708-4.149-7.145
						c-1.761-0.021-1.909-0.536-4.137-0.415c-1.405,0.993,2.198,4.847-2.749,5.895c5.613-0.18,5.44,1.417,8.278,2.09
						c-4.839-0.319-3.21,3.474-1.375,3.789C339.112,59.301,336.55,56.703,340.639,56.119z"/>
					<path fill-rule="evenodd" clip-rule="evenodd" fill="#F77705" d="M169.618,58.058c-2.608-3.223,0.866-5.766-4.151-7.985
						c-3.806,6.386,5.206,9.792,9.678,14.709C177.086,61.658,178.061,59.647,169.618,58.058z"/>
					<path fill-rule="evenodd" clip-rule="evenodd" fill="#F77705" d="M24.792,55.155c-1.447-2.4,4.797-2.451,5.512-4.213
						c-1.381,0.002-2.761,0.004-4.139,0.006C25.761,53.063,19.442,53.312,24.792,55.155z"/>
					<path fill-rule="evenodd" clip-rule="evenodd" fill="#F77705" d="M63.403,50.644c-2.065,0.126,0.855,2.223,2.764,2.521
						C65.329,52.299,68.387,50.238,63.403,50.644z"/>
					<path fill-rule="evenodd" clip-rule="evenodd" fill="#F77705" d="M78.576,51.042c-5.182,0.872,2.306,3.294,0.009,5.89
						C83.119,55.979,81.75,51.684,78.576,51.042z"/>
					<path fill-rule="evenodd" clip-rule="evenodd" fill="#F77705" d="M144.786,55.151c0.011-2.107-4.404-2.858-8.281-3.774
						C136.637,53.441,142.217,53.833,144.786,55.151z"/>
					<path fill-rule="evenodd" clip-rule="evenodd" fill="#F77705" d="M44.104,58.245c-1.097-2.469-3.609-4.504-8.282-5.876
						C36.776,54.882,39.867,56.74,44.104,58.245z"/>
					<path fill-rule="evenodd" clip-rule="evenodd" fill="#F77705" d="M20.656,56.178c1.078-0.294,3.065-2.353-0.004-2.523
						C19.508,54.448,15.563,55.846,20.656,56.178z"/>
					<path fill-rule="evenodd" clip-rule="evenodd" fill="#F77705" d="M175.127,53.424c0.439,1.687,0.967,3.349,4.144,4.199
						C181.483,56.533,178.488,54.133,175.127,53.424z"/>
					<path fill-rule="evenodd" clip-rule="evenodd" fill="#F77705" d="M135.134,57.689c-0.872-1.415,4.528-3.075,1.374-3.789
						C134.4,54.638,129.054,57.032,135.134,57.689z"/>
					<path fill-rule="evenodd" clip-rule="evenodd" fill="#F77705" d="M31.697,61.629c-4.788-3.234,7.521-5.001,2.748-7.154
						C31.979,56.725,20.567,60.098,31.697,61.629z"/>
					<path fill-rule="evenodd" clip-rule="evenodd" fill="#F77705" d="M86.857,54.817c-6.234,2.839-6.033,9.174,4.151,10.508
						c-3.147-1.733,2.399-2.094-0.004-2.943c-0.23,0.49-2.179,0.459-4.136,0.426C80.569,60.333,90.472,57.387,86.857,54.817z"/>
					<path fill-rule="evenodd" clip-rule="evenodd" fill="#F77705" d="M375.522,54.808c0,0.418,0.001,0.84,0.002,1.259
						c-5.315-0.752-9.815,3.396-4.331,4.635c0.692-1.55,2.616-3.774,8.146-3.802c0.189,0.012,0.716,0.304,0.992,0.289
						c-0.229-0.006-0.13,0.284-0.344,0.285c0.008,0,0.013,0,0.019,0C377.594,57.124,378.712,54.626,375.522,54.808z"/>
					<path fill-rule="evenodd" clip-rule="evenodd" fill="#F77705" d="M249.609,55.414c-0.995,2.42-18.042,5.549-8.267,7.164
						C239.466,59.169,255.1,57.188,249.609,55.414z"/>
					<path fill-rule="evenodd" clip-rule="evenodd" fill="#F77705" d="M304.787,60.801c-2.261-2.288,2.251-5.222-4.149-5.463
						C302.06,57.942,295.893,60.373,304.787,60.801z"/>
					<path fill-rule="evenodd" clip-rule="evenodd" fill="#F77705" d="M199.958,57.593c-4.187,2.081-2.936,5.789,1.391,7.568
						C201.677,61.716,202.259,59.818,199.958,57.593z"/>
					<path fill-rule="evenodd" clip-rule="evenodd" fill="#F77705" d="M110.313,61.092c4.454,0.201,7.424-2.195,4.134-2.952
						C114.314,59.504,108.197,59.048,110.313,61.092z"/>
					<path fill-rule="evenodd" clip-rule="evenodd" fill="#F77705" d="M133.76,61.07c-0.455-0.982-1.66-1.816-2.762-2.52
						c-1.38,0.002-2.759,0.004-4.138,0.007C127.992,59.613,129.976,60.689,133.76,61.07z"/>
					<path fill-rule="evenodd" clip-rule="evenodd" fill="#F77705" d="M179.273,59.305c-2.598,0.921-0.533,2.961,2.763,3.361
						C180.021,61.882,181.977,59.879,179.273,59.305z"/>
					<path fill-rule="evenodd" clip-rule="evenodd" fill="#F77705" d="M209.618,60.102c3.204,0.28,3.694,1.393,6.899,1.673
						c-0.153-1.047-2.586-1.298-0.003-2.103C214.509,59.905,209.383,59.19,209.618,60.102z"/>
					<path fill-rule="evenodd" clip-rule="evenodd" fill="#F77705" d="M222.036,64.712c1.765-0.753,2.652-3.931-0.007-4.629
						C219.522,61.319,217.876,63.644,222.036,64.712z"/>
					<path fill-rule="evenodd" clip-rule="evenodd" fill="#F77705" d="M242.731,68.465c1.595-1.618-6.582-3.486-6.906-5.879
						C232.936,64.602,237.075,67.709,242.731,68.465z"/>
					<path fill-rule="evenodd" clip-rule="evenodd" fill="#F77705" d="M211,63.465c-2.498,0.476-5.031,3.086,0.005,3.365
						C210.208,65.706,215.082,64.197,211,63.465z"/>
					<path fill-rule="evenodd" clip-rule="evenodd" fill="#F77705" d="M144.801,65.668c0.156,0.514,0.414,0.993,2.761,0.837
						c-0.704-1.048,0.041-2.539-4.145-2.518c1.031,1.293-3.783,0.814-2.754,2.106C142.563,66.11,143.693,65.892,144.801,65.668z"/>
					<path fill-rule="evenodd" clip-rule="evenodd" fill="#F77705" d="M244.117,72.249c-5.288-1.185-9.562-2.679-11.042-5.03
						c-0.669,0.497-1.47,0.955-2.754,1.266c-1.606-1.034-5.059-3.147-0.006-3.785c-1.971-0.099-2.33-0.691-4.141-0.835
						c-4.165,2.152,1.531,4.453,4.149,5.882c-4.813-0.039-1.876,3.612-2.752,5.893c4.396-0.364,5.235,0.359,6.896,0.832
						c0.878-2.364-2.503-2.172-5.521-2.515c3.083-0.887,1.048-3.326,4.132-4.213C236.071,70.524,239.665,73.312,244.117,72.249z"/>
					<path fill-rule="evenodd" clip-rule="evenodd" fill="#F77705" d="M180.66,64.352c-2.031,1.065-4.87,1.887-5.511,3.374
						c3.743-0.125,3.224-1.545,6.893-1.694C178.171,66.218,185.495,64.46,180.66,64.352z"/>
					<path fill-rule="evenodd" clip-rule="evenodd" fill="#F77705" d="M322.721,64.562c-2.545,1.718-3.722,3.486-1.371,5.049
						c-0.725-1.784,2.938-1.361,5.22-0.715C323.592,67.12,329.101,65.368,322.721,64.562z"/>
					<path fill-rule="evenodd" clip-rule="evenodd" fill="#F77705" d="M326.571,68.896c0.395,0.233,0.933,0.47,1.675,0.705
						C328.066,69.399,327.41,69.133,326.571,68.896z"/>
					<path fill-rule="evenodd" clip-rule="evenodd" fill="#F77705" d="M353.072,69.563c-8.059-1.396,0.846-3.302-1.386-4.627
						c-1.711,0.883-4.01,1.59-6.894,2.115C346.146,68.06,349.812,70.535,353.072,69.563z"/>
					<path fill-rule="evenodd" clip-rule="evenodd" fill="#F77705" d="M251.008,69.294c-6.065-0.622,1.293-2.861-2.763-3.78
						C246.882,66.932,243.145,70.864,251.008,69.294z"/>
					<path fill-rule="evenodd" clip-rule="evenodd" fill="#F77705" d="M136.527,66.521c-6.476,2.684-2.895,2.912,2.766,5.043
						C134.307,69.718,140.223,67.227,136.527,66.521z"/>
					<path fill-rule="evenodd" clip-rule="evenodd" fill="#F77705" d="M191.702,71.067c2.271-2.225-8.802-2.353-2.538-3.363
						c-1.824-0.001-1.789-0.733-3.915-0.836c0,0.28,0,0.562,0.001,0.842c-1.063-0.022-0.756-0.538-2.982-0.416
						C184.081,68.841,188.009,70.093,191.702,71.067z"/>
					<path fill-rule="evenodd" clip-rule="evenodd" fill="#F77705" d="M177.912,72.348c3.627-0.322,7.236-2.823,4.133-3.792
						C180.945,69.904,177.973,70.686,177.912,72.348z"/>
					<path fill-rule="evenodd" clip-rule="evenodd" fill="#F77705" d="M310.314,68.364c-7.151,1.398,0.789,3.744,4.148,5.464
						C313.428,71.593,309.463,70.048,310.314,68.364z"/>
					<path fill-rule="evenodd" clip-rule="evenodd" fill="#F77705" d="M128.255,69.478c-2.068,1.233-4.571,2.894-6.889,5.059
						C126.567,74.017,132.673,70.225,128.255,69.478z"/>
					<path fill-rule="evenodd" clip-rule="evenodd" fill="#F77705" d="M89.643,72.06c-0.592,0.801-2.97,1.061-2.756,2.108
						c4.966-0.262,4.065,1.279,8.276,1.249C94.14,73.126,91.519,73.939,89.643,72.06z"/>
					<path fill-rule="evenodd" clip-rule="evenodd" fill="#F77705" d="M303.426,74.686c-0.835-0.865,2.222-2.928-2.763-2.521
						C300.382,73.375,301.018,74.303,303.426,74.686z"/>
					<path fill-rule="evenodd" clip-rule="evenodd" fill="#F77705" d="M37.637,75.503c1.897-0.021,2.541,0.193,3.65,0.414
						c1.614-1.109,1.519-1.467,3.647-0.425c-0.001-0.562-0.002-1.121-0.003-1.684C40.679,73.889,37.684,74.116,37.637,75.503z"/>
					<path fill-rule="evenodd" clip-rule="evenodd" fill="#F77705" d="M92.414,81.311c-4.945-2.022-5.396-5.096-8.286-6.719
						c-0.986,1.243-1.57,2.606-4.132,3.373C86.587,78.326,86.315,80.796,92.414,81.311z"/>
					<path fill-rule="evenodd" clip-rule="evenodd" fill="#F77705" d="M300.669,75.952c0.215-1.188-3.899-1.049-5.518-1.676
						C294.513,75.595,296.353,76.153,300.669,75.952z"/>
					<path fill-rule="evenodd" clip-rule="evenodd" fill="#F77705" d="M358.597,74.603c-6.33,0.882-9.302,2.785-13.787,4.229
						c3.55,0.734,6.488,1.656,9.66,2.507c0.771-1.779-5.426-1.421-5.521-2.934C354.299,78.607,356.303,76.453,358.597,74.603z"/>
					<path fill-rule="evenodd" clip-rule="evenodd" fill="#F77705" d="M302.049,75.528c-0.391,3.065,4.921,4.385,9.665,5.874
						c-2.915,0.518-3.871,1.631-5.513,2.534c1.354,0.566,3.68,0.834,5.519,1.253c-0.581-1.997,2.001-3.038,2.753-4.632
						C306,80.21,308.884,76.379,302.049,75.528z"/>
					<path fill-rule="evenodd" clip-rule="evenodd" fill="#F77705" d="M224.813,76.382c-0.164,1.212-5.88,0.899-5.514,2.271
						c0.841,0.023,1.633,0.226,1.381,0.579c0.919-0.001,1.838-0.003,2.758-0.004C222.37,78.17,228.832,76.967,224.813,76.382z"/>
					<path fill-rule="evenodd" clip-rule="evenodd" fill="#F77705" d="M231.714,79.84c2.038-0.675,0.308-2.566-1.382-3.363
						C228.955,77.571,227.912,79.299,231.714,79.84z"/>
					<path fill-rule="evenodd" clip-rule="evenodd" fill="#F77705" d="M381.935,76.991c0-0.286-1.232-0.537-2.303-0.737
						c-1.408,1.338,0.18,3.044,2.308,4.114L381.935,76.991z"/>
					<path fill-rule="evenodd" clip-rule="evenodd" fill="#F77705" d="M325.501,78.018c-3.643,2.684-10.394,6.651-9.642,9.27
						C319.357,83.632,327.631,81.602,325.501,78.018z"/>
					<path fill-rule="evenodd" clip-rule="evenodd" fill="#F77705" d="M344.813,80.512c-2.278-0.002-0.774-1.166-2.76-1.256
						c-3.263,1.392-5.273,3.167-9.648,4.221c2.87,0.242,4.459,0.877,6.897,1.252c1.578-1.326-2.167-1.02-2.762-1.68
						C341.321,82.816,340.721,80.954,344.813,80.512z"/>
					<path fill-rule="evenodd" clip-rule="evenodd" fill="#F77705" d="M33.104,80.978c-0.36,1.713-2.591,2.858-4.131,4.214
						c5.139-0.453,4.454,0.878,6.9,1.252C31.972,84.627,38.733,81.778,33.104,80.978z"/>
					<path fill-rule="evenodd" clip-rule="evenodd" fill="#F77705" d="M381.941,81.42c0-0.137-1.161-0.194-2.301-0.12
						c-2.089,0.691-0.884,2.759,2.306,2.927L381.941,81.42z"/>
					<path fill-rule="evenodd" clip-rule="evenodd" fill="#F77705" d="M240.005,89.082c-6.671-2.748,7.126-5.941-1.391-6.726
						C239.16,84.773,228.579,88.356,240.005,89.082z"/>
					<path fill-rule="evenodd" clip-rule="evenodd" fill="#F77705" d="M342.081,97.763c-4.453,0.384-1.941-1.369-4.139-1.675
						c4.866-0.31,0.587-1.724,2.752-3.369c-8.748,1.712,1.991,9.125-16.537,9.278c-2.631-3.189,4.602-5.916-0.011-7.15
						c4.028-1.324,9.121-2.541,5.511-5.055c3.625-0.131,1.086,1.629,5.518,1.251c-3.989-2.165,0.984-5.189-8.286-7.558
						c3.067,3.245,4.617,9.024-5.501,10.524c0.653,2.301-2.413,3.472-4.133,5.054c2.711,0.121,2.736-0.572,4.139-0.848
						c-1.071,3.314,3.502,5.116,12.423,7.134c-0.079-1.519-3.441-2.031-4.141-3.361C335.443,101.077,338.531,99.351,342.081,97.763z
						"/>
					<path fill-rule="evenodd" clip-rule="evenodd" fill="#F77705" d="M379.301,84.248c-1.224,0.749-3.85,1.075-2.755,2.528
						C381.189,87.303,382.245,84.635,379.301,84.248z"/>
					<path fill-rule="evenodd" clip-rule="evenodd" fill="#F77705" d="M322.751,85.173c0.074,0.787-1.061,0.894-2.755,0.424
						c-4.295,3.188-13.329,7.166-11.02,10.955c0.078-0.257,0.207-0.498,1.378-0.423c0.078,0.256,0.208,0.497,1.38,0.419
						c-2.111-1.336-0.487-1.85-0.005-3.364c1.383-0.006,1.642,0.339,2.761,0.416C312.295,89.505,326.232,87.447,322.751,85.173z"/>
					<path fill-rule="evenodd" clip-rule="evenodd" fill="#F77705" d="M381.948,85.979c-1.063,0.53-1.062,1.356,0.003,1.781
						L381.948,85.979z"/>
					<path fill-rule="evenodd" clip-rule="evenodd" fill="#F77705" d="M125.527,89.253c0.073-1.172-2.771-3.602-5.521-2.516
						C123.099,87.193,122.434,88.798,125.527,89.253z"/>
					<path fill-rule="evenodd" clip-rule="evenodd" fill="#F77705" d="M176.563,91.702c0.804-1.539-2.186-2.412-2.766-4.624
						c-0.72,1.322-2.417,2.35-4.131,3.372C175.11,89.903,173.004,91.672,176.563,91.702z"/>
					<path fill-rule="evenodd" clip-rule="evenodd" fill="#F77705" d="M151.736,91.317c-3.328-0.802-0.666-3.442-5.523-3.777
						c0.229,1.331-3.662,1.412-2.755,2.949C148.61,90.031,147.392,91.526,151.736,91.317z"/>
					<path fill-rule="evenodd" clip-rule="evenodd" fill="#F77705" d="M350.353,94.386c-5.525-2.195,2.396-3.913-1.388-5.467
						c-0.407,0.375-3.729,1.849-4.137,0.85c0.682-1.613-1.899-2.224-5.521-2.517c1.522,1.735,7.426,3.071,4.146,5.041
						C345.166,93.171,347.464,93.868,350.353,94.386z"/>
					<path fill-rule="evenodd" clip-rule="evenodd" fill="#F77705" d="M384.365,88.452c-0.429-0.485-1.539-0.92-3.68-1.262
						c4.557,2.697-4.206,4.112-1.371,5.893c1.223-0.992,4.226-2.317,5.052-3.526C384.629,89.171,384.67,88.798,384.365,88.452z"/>
					<path fill-rule="evenodd" clip-rule="evenodd" fill="#F77705" d="M40.022,95.271c-2.152-2.301-6.897-3.542-6.904-5.458
						c-5.497,3.098-7.921,7.127-12.396,10.535c9.695-0.842,5.461-5.911,12.4-7.591C36.816,93.168,34.837,95.317,40.022,95.271z"/>
					<path fill-rule="evenodd" clip-rule="evenodd" fill="#F77705" d="M92.293,1.247c0.875-0.491,1.633-1.201,2.352-1.555
						L92.38-0.305c-0.06,0-0.094,0.206-0.088,0.29c-0.266-0.095-0.543-0.289-0.824-0.289l-4.398,0.006
						C88.451,0.054,90.15,0.823,92.293,1.247z"/>
					<path fill-rule="evenodd" clip-rule="evenodd" fill="#F77705" d="M119.885,5.835c-2.409-2.219-6.402-4.406-7.806-6.169
						l-2.289,0.004C110.225,2.141,111.943,4.873,119.885,5.835z"/>
					<path fill-rule="evenodd" clip-rule="evenodd" fill="#F77705" d="M125.402,5.962c1.138-1.191-1.946-1.087-1.381-2.102
						c-3.306-0.162,0.767,1.915-4.137,1.27c0.324,3.294,0.76,4.167,2.771,7.146C127.036,10.68,119.675,7.662,125.402,5.962z"/>
					<path fill-rule="evenodd" clip-rule="evenodd" fill="#F77705" d="M197.674-0.462l-3.254,0.005
						c1.384,0.704,2.766,1.373,4.075,1.968C199.167,1.018,198.684,0.243,197.674-0.462z"/>
					<path fill-rule="evenodd" clip-rule="evenodd" fill="#F77705" d="M212.537-0.484l-1.443,0.002
						c0.397-0.001,1.007,0.481,1.261,0.798C212.397,0.039,212.458-0.483,212.537-0.484z"/>
					<path fill-rule="evenodd" clip-rule="evenodd" fill="#F77705" d="M187.844,5.908c-0.202-0.327-0.337-0.624-0.377-0.879
						C187.261,5.424,187.454,5.697,187.844,5.908z"/>
					<path fill-rule="evenodd" clip-rule="evenodd" fill="#F77705" d="M212.353-0.389c-0.038,0.242-0.063,0.491-0.067,0.752
						C212.534,0.044,212.512-0.194,212.353-0.389z"/>
					<path fill-rule="evenodd" clip-rule="evenodd" fill="#F77705" d="M187.844,5.908c1.454,2.356,6.511,6.298,6.532,8.365
						c5.076-0.877,0.633-2.723-1.384-3.786c-0.007-1.402,4.485-1.441,4.132-2.949c2.229-0.123,2.376,0.393,4.139,0.413
						c-2.216-1.48,1.147-3.112-0.008-5.47c2.883-0.182,3.654,0.283,5.518,0.413c1.474-1.573-3.425-0.841-2.762-2.167
						c3.214,0.15,2.901-0.498,3.014-1.204l-2.523,0.004c-3.827,2.122-7.098,4.148-5.997,7.52c-2.136,0.472-2.871,1.194-6.896,1.096
						C192.451,6.813,189.098,6.595,187.844,5.908z"/>
					<path fill-rule="evenodd" clip-rule="evenodd" fill="#F77705" d="M245.569-0.533l-1.336,0.002c0.389,0,0.772,0.482,1.155,0.709
						C245.517-0.04,245.565-0.533,245.569-0.533z"/>
					<path fill-rule="evenodd" clip-rule="evenodd" fill="#F77705" d="M321.247,0.2c1.312-0.279,0.932-0.742,0.578-1.266
						c-0.657-0.033-1.321-0.055-1.982-0.081c0.01,0.03,0.012,0.057,0.025,0.086c-0.131-0.033-0.234-0.066-0.357-0.1
						c-1.082-0.042-2.17-0.076-3.267-0.103C318.399-0.925,319.676-0.317,321.247,0.2z"/>
					<path fill-rule="evenodd" clip-rule="evenodd" fill="#F77705" d="M299.191,9.909c12.323,3.87-6.05,10.866,4.16,13.877
						c-1.944-2.419,4.692-6.562,5.502-10.526c-0.488-0.589-2.429-0.032-2.757,0.424c-3.216-1.968-1.795-6.142,5.507-6.316
						c-2.823-1.558,0.477-2.645,1.373-4.21c5.426-0.681,0.481,1.816,4.138,1.679c0.989-1.91-1.982-3.771-2.711-6.144
						c-0.694-0.01-1.395-0.009-2.094-0.014C311.674,3.036,308.303,7.122,299.191,9.909z"/>
					<path fill-rule="evenodd" clip-rule="evenodd" fill="#F77705" d="M365.093,6.6c-0.753-0.274-1.529-0.542-2.321-0.805
						c-2.014,1.163-3.869,2.374-4.272,4.026C362.75,9.371,363.874,7.969,365.093,6.6z"/>
					<path fill-rule="evenodd" clip-rule="evenodd" fill="#F77705" d="M30.383,104.96c-2.834,0.197-3.201-1.098-2.765-2.94
						c-2.326,0.697-1.707,2.284-4.133,2.951c5.609,2.365,7.737,6.726,0.013,8.833c-6.216-1.571-9.825-5.424-1.389-7.146
						c-3.409-0.735-7.287,1.976-9.651,2.958c-2.291-1.963-4.484-3.957-4.146-6.725c3.763-0.313,2.778,0.831,5.516,0.833
						c2.649-0.543-3.254-0.863-0.003-2.103c-6.973-0.935-2.142-1.218-6.9-3.776c1.108,0.221,2.239,0.436,4.138,0.414
						c-2.693-1.418-3.128-3.529-9.66-3.771c1.739-1.804-0.106-2.081-0.006-4.206c2.637-0.202,5.937,1.286,5.516-0.43
						c-6.252,0.582,0.33-3.411,2.751-4.211c-8.953,0.115-3.398-3.284-2.767-5.885c3.693,0.27,5.247,1.197,8.278,1.67
						c-0.157-1.495-5.104-1.522-4.143-3.357c2.504,1.309,4.795-1.386,2.755-1.268c2.174-1.917,4.936,0.619,8.278,0.828
						c-0.821-1.432-3.01-2.444-5.522-3.356c1.558-0.895,1.585-0.903,5.515-1.691c-2.27-1.362-0.54-2.603,1.372-3.788
						c-2.294-1.072-3.699,1.648-8.272,1.274c2.354,3.185-3.629,6.76-6.882,8.687c-6.834-1-0.621-3.438-5.526-5.194
						c1.841-0.002,3.679-0.005,5.519-0.008c-3.071-1.055-5.058-2.642-4.146-4.886c3.764-0.312,2.777,0.699,5.518,0.701
						c1.125-1.012-4.233-2.396-0.004-3.012c-0.603-0.624-1.766,0.136-4.137-0.027c1.238-1.232,1.238-1.31-0.003-2.539
						c7.01,1.262,0.661-1.823,5.512-2.962c3.187,0.988,5.753,2.16,5.523,4.193c1.235,1.156,5.596-0.99,4.14,1.255
						c4.918-0.259,0.969-2.432-2.764-2.52c0.588-0.805,3.942-0.77,2.757-2.108c-7.094,2.698-9.49-6.605-2.772-7.989
						c-4.507-0.793-2.049-2.609-1.384-3.363c4.4-0.368,4.268,0.655,6.897,0.83c0.746-1.49-4.885-1.027-4.142-2.519
						c3.166-0.581,4.433-1.737,6.894-2.534c-1.603,0.071-2.454-0.09-2.76-0.416c-15.982,3.768-7.254,11.408-16.525,16.43
						c-7.642-4.966-10.555-9.262-2.782-15.561c4.88,0.329,5.057,2.097,9.657,2.509c0.493-2.472-8.828-2.041-6.903-5.878
						c1.813,0.425,5.085,0.405,6.896,0.83c-2.06-0.49-1.625-1.745-5.517-1.673c3.806-0.107,1.461-2.08,4.132-2.529
						c-0.602-0.624-1.765,0.168-4.136,0.006c-0.314-1.757,2.24-1.992-0.005-3.367c1.81-0.507,2.169-0.165,4.136-0.006
						c-3.165-1.107-3.167-2.668-0.005-3.785c-3.08-1.045-3.357,2.319-8.272,2.116c-1.143-1.714-0.214-1.448-0.005-3.366
						c-2.463,2.043-2.149-0.12-6.894,0.851c21.106,4.765-1.371,15.652,0.033,21.875c1.023,1.139-2.9,0.775-3.912,1.295
						c-0.188,0.097-0.288,0.221-0.225,0.394c0.067,0.075,0.15,0.144,0.226,0.214C-4.02,58.6,2.16,60.118,5.494,62.51
						c-6.061,4.347-3.438,10.801-5.496,14.311c1.713,0.877,4.014,1.575,6.899,2.094c-2.48,1.712-3.148,2.346-6.893,2.953
						c6.199,4.536-1.231,6.404-1.287,10.94c-3.852,0.041-6.913-0.68-7.977-1.368l0.001,1.223c3.191,1.062,9.712,1.632,12.119,3.083
						c6.244,3.772-1.541,9.122,6.187,13.874c-0.485,0.895-1.486,1.955-2.503,3.048c1.309,0.613,2.86,1.203,4.33,1.773
						c-0.462-2.012-0.313-1.946-1.253-3.982c6.529,0.523,8.564,2.438,12.46,3.769c-2.929,0.906-2.429,2.323-0.59,3.54
						c1.681,0.437,3.427,0.85,5.222,1.238c-0.863-0.622-3.623-1.442-4.593-1.833c3.413-1.748,2.975-3.548,6.89-5.9
						c4.883-0.237,3.396,1.484,8.279,1.249C35.381,110.563,26.694,108.496,30.383,104.96z"/>
					<path fill-rule="evenodd" clip-rule="evenodd" fill="#F77705" d="M357.611,4.239c-1.486-0.409-3.031-0.794-4.615-1.162
						c1.023,1.141,2.758,2.27,5.499,3.377C358.258,5.604,357.959,4.882,357.611,4.239z"/>
					<path fill-rule="evenodd" clip-rule="evenodd" fill="#F77705" d="M167.969-0.417l-1.188,0.001
						c0.525,0.353,0.99,0.73,1.37,1.131C167.874,0.188,167.835-0.417,167.969-0.417z"/>
					<path fill-rule="evenodd" clip-rule="evenodd" fill="#F77705" d="M252.287,2.405c2.605,2.729-8.904,4.122-12.401,6.329
						c2.155,0.763,4.616,3.608,8.278,2.511c-3.355-1.575-3.648-1.77-4.144-3.776c4.335,1.19,3.06-1.87,8.271-1.696
						c5.175,1.779,7.383,4.823,15.184,5.798c-1.631-4.762,3.912-8.26,10.948-12.152l-5.583,0.008
						c-4.045,2.83-4.873,6.319-9.51,9.207C252.082,8.239,258.863,3.479,252.287,2.405z"/>
					<path fill-rule="evenodd" clip-rule="evenodd" fill="#F77705" d="M231.496,6.157c-7.558,0.642-14.439,3.854-6.995,5.546
						c-0.002-1.122-0.003-2.245-0.005-3.366c5.317,1.237,3.076-2.632,8.379-2.536c3.546,0.035,2.717,1.638,6.264,1.674
						c-2.72-1.559-0.954-2.464-2.391-3.783c3.215-0.633,6.126,0.132,7.081-0.432c-4.04-0.534,7.145-2.166,0.09-2.524
						c-2.639,1.161-5.809,2.148-9.605,2.958c-3.106-0.415,3.001-1.944-1.36-2.588c-2.29-0.218-3.337-0.91-3.672-1.616l-5.179,0.008
						C227.583,1.61,232.901,2.481,231.496,6.157z"/>
					<path fill-rule="evenodd" clip-rule="evenodd" fill="#F77705" d="M135.063,10.574c9.434,0.896,14.17,3.229,15.182,6.71
						c-4.72,0.669-7.22,2.013-9.65,3.377c3.765-0.312,2.778,0.832,5.518,0.833c-2.504-2.516,1.952-2.677,5.512-4.213
						c2.356,0.68,4.889,1.306,6.899,2.091c0.896-1.983-2.386-2.385-4.141-2.517c-0.289-0.837,5.843-1.807,2.755-2.109
						c-1.995,1.801-7.897-0.407-8.278-1.668c-0.701-0.836,7.607-0.977,2.757-1.69c-0.203,0.922-3.473,0.912-6.896,0.854
						c0.483-1.461-7.015-1.587-2.762-2.942c-3.453,0.059-4.318,0.81-5.519-0.413c2.992,0.066,0.623-1.491,1.377-2.104
						c2.063-0.074,5.089,0.495,5.515-0.077c-1.729-1.24,5.725-4.273,7.944-7.1l-3.191,0.005c-0.713,2.473-3.778,4.663-10.27,5.842
						c0.239-1.618-4.767-1.447-5.521-2.762c4.23-0.653,6.632-2.009,8.462-3.069l-3.469,0.005c0.268,0,0.471,0.141,0.52,0.358
						c-2.779,0.977-4.885,1.994-8.275,0.676C129.999,4.207,139.198,6.217,135.063,10.574z"/>
					<path fill-rule="evenodd" clip-rule="evenodd" fill="#F77705" d="M15.069,9.491c1.779,1.699,6.387,2.532,9.66,3.773
						c-0.473-3.083-11.924-2.799-8.286-7.14c5.235,0.266,5.159-0.429,3.952-1.532c-0.961,0.261-1.901,0.53-2.821,0.806
						c-7.423,3.514-10.738,10.306-1.113,13.344C13.395,15.075,12.613,12.755,15.069,9.491z"/>
					<path fill-rule="evenodd" clip-rule="evenodd" fill="#F77705" d="M74.372,6.879c-2.851-2.886-7.497-4.762-1.39-7.571
						c-4.904-0.646-0.83,1.432-4.138,1.27c-2.146-0.272-3.072-0.847-3.438-1.533c-0.794,0.007-1.591,0.008-2.38,0.023
						c1.104,0.851,2.428,1.685,3.063,2.356C68.231,3.69,67.831,5.96,74.372,6.879z"/>
					<path fill-rule="evenodd" clip-rule="evenodd" fill="#F77705" d="M78.5,0.006c-0.171-0.1-0.256-0.29-0.303-0.29l-2.812,0.004
						C76.287-0.28,77.042,0.04,78.5,0.006z"/>
					<path fill-rule="evenodd" clip-rule="evenodd" fill="#F77705" d="M50.923,6.073c5.151-0.458,3.933,1.04,8.278,0.829
						c-2.073-0.768-2.388-2.074-4.143-2.938c-0.306,0.329-1.155,0.49-2.76,0.424c-2.385-1.649-6.183-3.823-2.091-4.695
						c-1.543,0.12-3.071,0.254-4.574,0.406C44.89,0.35,43.939,0.535,42.64,0.616C43.509,2.841,54.647,3.802,50.923,6.073z"/>
					<path fill-rule="evenodd" clip-rule="evenodd" fill="#F77705" d="M67.482,10.675c-2.218-1.839-6.414-3.146-1.386-5.046
						c-4.786,0.53-2.207,1.327-6.895,1.272C57.678,9.473,65.457,9.191,67.482,10.675z"/>
					<path fill-rule="evenodd" clip-rule="evenodd" fill="#F77705" d="M189.407,4.604c0-0.562-0.001-1.122-0.002-1.684
						c-2.125-0.015-1.93,0.554-3.038,0.778c-0.225-0.865-2.074-3.083-1.741-4.142l-3.455,0.005c-0.547,0.354-2.26,0.735-3.083,1.204
						C182.373,2.119,183.028,3.992,189.407,4.604z"/>
					<path fill-rule="evenodd" clip-rule="evenodd" fill="#F77705" d="M335.054,10.275c8.049,2.582,11.651,6.528,19.324,9.226
						c1.001-2.129-3.792-2.485-4.144-4.199c1.628-0.629,1.189-1.883,5.512-1.692c-3.904-1.899,4.122-2.67-0.006-4.207
						c-3.701,1.541-0.253,5.25-9.646,5.063c-0.259-1.926-3.19-3.272-5.521-3.366c3.553-0.464,1.204-2.25,4.133-2.959
						c0.92-0.001,1.839-0.003,2.758-0.004c0.507,1.057,2.393,1.658,5.521,2.104c-1.599-1.755-5.013-3.158-8.282-4.399
						c-0.542,0.111-0.984,0.152-1.375,0.31c0.879-2.559-0.683-3.018-1.39-4.667c-1.472,0.396-0.427,1.526-4.135,1.241
						c-3.409-0.849-3.95-1.824-3.436-2.766c-0.863-0.098-1.729-0.199-2.609-0.284c0.749,2.274,7.674,4.852,11.558,6.381
						C340.167,7.344,341.238,9.909,335.054,10.275z"/>
					<path fill-rule="evenodd" clip-rule="evenodd" fill="#F77705" d="M5.417,10.768c-0.512-0.023-0.928-0.016-1.274,0.01
						c-1.041,0.563-2.006,1.144-2.911,1.737c0.429,0.125,0.891,0.248,1.429,0.361C1.476,11.533,4.829,11.57,5.417,10.768z"/>
					<path fill-rule="evenodd" clip-rule="evenodd" fill="#F77705" d="M89.544,6.015c7.061,0.834-2.305,3.335-1.374,5.051
						c5.788,1.31,7.238,3.954,12.421,5.449c-0.914-1.122-0.583-2.627-2.764-3.36c-13.701-3.511,5.281-10.052,6.875-13.896
						C95.904,0.376,98.697,5.009,89.544,6.015z"/>
					<path fill-rule="evenodd" clip-rule="evenodd" fill="#F77705" d="M205.429,25.614c2.402-0.037,4.288,0.087,5.516,0.412
						c-0.377-3.007,1.189-3.023,1.371-5.471c2.041,0.216,3.478,0.618,5.519,0.833c-2.981-1.707-2.834-3.247,1.372-4.628
						c-8.275-1.1-1.781-4.881-5.527-6.722c-0.152,0.334-4.558,1.282-4.135,0.426c3.217-1.042,4.842-7.771,12.402-5.907
						c-0.365-1.625-0.999-3.431,2.756-2.951c0.058-0.576-0.651-0.92-1.381-1.258c-0.08-0.256-0.209-0.497-1.382-0.42
						c-5.819,4.919-15.532,6.219-13.773,12.222C220.223,15.62,207.789,21.524,205.429,25.614z"/>
					<path fill-rule="evenodd" clip-rule="evenodd" fill="#F77705" d="M34.377,9.041c-2.777,1.375,5.013,2.498,6.9,3.776
						c-2.167-1.86-4.415-3.696-5.523-5.881c-0.772,0.607-2.153,1.029-4.138,1.268c-4.955-1.942,0.085-3.634-1.386-5.468
						c-0.565,0.531-1.778,0.864-4.138,0.849c-0.141-0.128-0.107-0.263,0.011-0.401c-0.4,0.089-0.798,0.183-1.193,0.274
						c0.23,2.069,4.299,4.137,5.33,6.009C32.138,9.483,33.268,9.265,34.377,9.041z"/>
					<path fill-rule="evenodd" clip-rule="evenodd" fill="#F77705" d="M284.03,15.82c6.734,2.406-2.998,3.132-4.129,5.475
						c3.341,0.798,2.126,2.997,8.28,2.931c-3.343-1.608-7.027-5.392,2.749-5.893c0.013-1.119-0.525-2.4,1.374-2.946
						c-1.622-0.063-3.914,0.079-4.136-0.415c1.994-0.656,1.835-1.966,4.132-2.531c0.409,0.98,3.736,0.975,4.139-0.006
						c-2.354-0.168,0.29-0.543-0.002-1.263c-3.144-0.572-5.183,1.093-5.517,0.008c-0.106-2.793,0.5-2.832,2.75-4.63
						c-6.941-0.239,0.267-2.076-0.004-2.944c-5.657,0.2,0.562-0.9-1.382-2.103C281.249,4.952,295.366,11.175,284.03,15.82z"/>
					<path fill-rule="evenodd" clip-rule="evenodd" fill="#F77705" d="M275.736,2.792c0.854,1.715,5.315,4.526,9.659,3.771
						C280.864,5.708,279.968,3.739,275.736,2.792z"/>
					<path fill-rule="evenodd" clip-rule="evenodd" fill="#F77705" d="M160.261,5.335c0.617,0.104,1.387,0.161,2.38,0.15
						C161.892,5.408,161.085,5.356,160.261,5.335z"/>
					<path fill-rule="evenodd" clip-rule="evenodd" fill="#F77705" d="M146.094,8.454c2.741,0.001,1.757,1.146,5.52,0.833
						c-3.719-2.941,2.955-4.109,8.647-3.952c-0.857-0.145-1.408-0.384-1.759-0.685c0.075-0.539,1.768-0.586,1.377-1.265
						c-3.899-0.071-3.211,1.586-6.896,0.431C154.337,6.469,145.947,6.167,146.094,8.454z"/>
					<path fill-rule="evenodd" clip-rule="evenodd" fill="#F77705" d="M79.898,12.76c-3.73-1.026-1.04-3.338-6.898-1.671
						c-0.527-1.421,2.387-1.801,4.133-2.531c2.742,0,1.756,1.146,5.518,0.832c-3.417-1.429-3.42-3.608-0.007-5.048
						c-8.407,1.889-7.024,4.253-12.403,6.751C71.187,12.088,78.953,13.156,79.898,12.76z"/>
					<path fill-rule="evenodd" clip-rule="evenodd" fill="#F77705" d="M110.236,9.349c-3.324-1.273,0.596-4.378-1.386-5.046
						c-3.925,1.219-5.049,5.229-2.751,5.895C106.665,9.667,107.877,9.334,110.236,9.349z"/>
					<path fill-rule="evenodd" clip-rule="evenodd" fill="#F77705" d="M319.89,14.085c5.605-1.103,2.92-4.721,6.886-6.321
						c3.63,0.431,4.647,1.662,8.278,2.092c-1.752-1.835-7.544-2.268-4.144-4.621C321.713,6.798,318.61,11.683,319.89,14.085z"/>
					<path fill-rule="evenodd" clip-rule="evenodd" fill="#F77705" d="M49.549,8.177c-3.375,0.997,2.058,0.781,1.38,2.103
						c0.135,1.299,5.382-1.31,5.518-0.008c1.256,7.197,16.559,8.152,20.708,13.852c15.441,0.951,8.12,3.574,1.389,5.886
						c8.557,1.726,10.586,5.451,16.563,7.968c-9.473,3.873,1.005,7.306,6.911,10.505c20.352,2.618-14.498,10.078,1.403,13.881
						c-3.103-3.746,2.811-6.883,6.88-9.684c1.823,0.001,1.262,0.732,2.761,0.837c-2.964-2.34,3.945-2.775-0.007-4.629
						c-0.292,0.472-1.53,0.658-2.758,0.845c1.799-1.813-3.916-1.322-5.52-2.095c4.358,0.202,0.507-2.087,5.514-1.69
						c-0.399-1.281,0.216-2.872-4.142-2.938c2.26,1.961,0.429,3.303-4.132,4.212c-3.353-1.624-3.774-5.48-8.282-5.456
						c0.114-1.367,0.707-2.588,2.752-3.37c3.725,0.883,9.268,0.751,5.516-0.85c-1.205,2.387-2.402-3.123-5.518-0.41
						c-0.381-0.739,3.881-2.105-0.004-2.524c-0.667,0.498-1.467,0.954-2.755,1.265c-2.747-2.642-14.306-7.25-2.774-9.25
						c1.25,0.238,5.082,1.725,5.519,0.833c-7.652-2.32-22.426-4.578-20.7-8.382C61.095,17.429,62.671,11.442,55.066,8.59
						C54.674,10.647,50.016,8.684,49.549,8.177z"/>
					<path fill-rule="evenodd" clip-rule="evenodd" fill="#F77705" d="M381.856,24.58l-0.001-1.239
						c-1.063,0.891-2.537,1.622-5.229,2.018c-0.157-1.076-1.926-1.471-3.537-2.1c-3.617,1.319,4.52,1.822,4.444,3.359
						c-8.428,2.349-10.647,6.928-17.678,9.701c3.478,0.758,2.886,2.446,7.139,2.936c-0.001-0.704-0.002-1.404-0.003-2.105
						c-4.251,0.373-3.021-0.643-4.228-1.256c6.892,1.429,3.839-6.31,13.056-2.964c-3.892-2.248-3.799-4.53,1.865-6.313
						c1.967,0.353,3.112,0.796,4.177,1.317l-0.001-0.728c-1.065-0.62-1.639-1.408-0.926-2.697
						C381.303,24.514,381.856,24.543,381.856,24.58z"/>
					<path fill-rule="evenodd" clip-rule="evenodd" fill="#F77705" d="M359.907,27.906c7.286,1.625-0.631,3.728,4.145,5.042
						c4.451-4.557,0.284-4.209,2.745-9.257c6.256,0.488,5.504-2.413,9.653-1.278c-2.035-2.019,3.437-1.762,2.754-3.369
						c-4.463-0.513-1.054,1.364-5.516,0.85c1.746-1.152,2.18-2.702,4.131-3.792c1.503,0.119,2.791,0.312,3.896,0.557
						c-0.257-0.317-0.522-0.632-0.816-0.945c-0.106-0.011-0.209-0.025-0.32-0.036c-0.329-0.252-0.441-0.475-0.407-0.674
						c-0.485-0.464-1.002-0.924-1.569-1.373c-0.245-0.013-0.504-0.028-0.786-0.054c-0.531-0.365-0.74-0.738-0.777-1.109
						c-0.417-0.286-0.857-0.565-1.306-0.845c-0.159,3.438-3.192,6.644-4.799,10.799C362.541,22.819,364.875,26.469,359.907,27.906z"
						/>
					<path fill-rule="evenodd" clip-rule="evenodd" fill="#F77705" d="M180.586,14.712c0.312-1.878,8.368-3.611,6.889-4.636
						C185.226,11.376,173.867,13.373,180.586,14.712z"/>
					<path fill-rule="evenodd" clip-rule="evenodd" fill="#F77705" d="M170.934,16.831c0.856,1.843,3.583,3.11,4.146,5.041
						c-7.014,0.416-7.101,4.647-1.373,5.472c-2.121-2.876-0.476-4.228,4.129-5.896c2.129,1.031,5.543,1.667,8.281,2.513
						c-2.622-1.723-4.742-3.598-11.041-4.192c1.188-2.676-0.406-3.637,2.749-5.471C174.044,14.691,172.062,15.63,170.934,16.831z"/>
					<path fill-rule="evenodd" clip-rule="evenodd" fill="#F77705" d="M248.169,15.033c-1.074-1.448,0.765-2.011,5.515-1.69
						c-0.14-1.305,0.62-2.336,2.752-2.95c-0.002,0.232,1.118,0.476,1.381-0.002C254.075,9.869,241.813,13.838,248.169,15.033z"/>
					<path fill-rule="evenodd" clip-rule="evenodd" fill="#F77705" d="M38.526,17.451c2.742-0.001,1.756,1.144,5.518,0.831
						c-0.391-2.585,5.37-4.488,10.609-4.24c-1.662-0.143-0.493-1.155-2.342-1.241c-0.254,0.624-3.332,0.392-5.515,0.43
						c0.586-0.806,3.939-0.769,2.757-2.108C39.935,12.719,50.161,15.213,38.526,17.451z"/>
					<path fill-rule="evenodd" clip-rule="evenodd" fill="#F77705" d="M113.003,15.235c-2.719-2.032-0.523-2.596-1.386-3.786
						c-1.96,2.403-5.332,0.322-8.274-0.406C103.437,11.891,106.42,15.021,113.003,15.235z"/>
					<path fill-rule="evenodd" clip-rule="evenodd" fill="#F77705" d="M132.307,11.418c-3.722,0.848-11.506,2.662-6.89,4.64
						c1.476-0.959,3.135,1.525,5.52,1.674c0.166-1.874-3.408-2.601-4.144-4.2C132.448,14.271,134.564,10.386,132.307,11.418z"/>
					<path fill-rule="evenodd" clip-rule="evenodd" fill="#F77705" d="M241.638,27.578c-0.073-0.03-0.145-0.062-0.215-0.091
						c-0.042,0.058-0.078,0.12-0.133,0.176C241.411,27.63,241.523,27.606,241.638,27.578z"/>
					<path fill-rule="evenodd" clip-rule="evenodd" fill="#F77705" d="M238.508,10.842c-5.789,0.625-11.525,1.267-13.788,2.963
						c3.663,0.421,7.848,0.681,8.279,2.092c-2.106,3.895,1.148,8.495,8.424,11.59c2.667-3.604-14.713-9.14-1.527-12.021
						c-4.708-0.242-7.986-0.92-9.658-2.09C232.546,12.394,236.328,11.86,238.508,10.842z"/>
					<path fill-rule="evenodd" clip-rule="evenodd" fill="#F77705" d="M250.949,30.173c-8.545-3.39,13.725-10.083,2.746-9.259
						c-1.497-1.075,4.187-2.012-0.004-2.524c-3.732,3.366-1.9,6.966-9.641,9.69c0.068-0.73-0.915-0.863-2.413-0.501
						C244.254,28.669,247.376,29.568,250.949,30.173z"/>
					<path fill-rule="evenodd" clip-rule="evenodd" fill="#F77705" d="M86.793,11.909c-2.2,0.314,0.318,2.058-4.136,1.688
						c-0.217-0.496,0.235-1.194-1.38-1.26c3.631,3.389,3.555,7.122,4.151,10.09c5.508-0.422,2.645,1.301,5.52,2.516
						c-0.676-1.328,2.486-1.49,1.376-2.948c-4.949-0.306-6.02-1.8-5.522-3.776c0.846,0.122,5.313,1.037,5.517-0.008
						C82.355,17.854,90.355,13.464,86.793,11.909z"/>
					<path fill-rule="evenodd" clip-rule="evenodd" fill="#F77705" d="M322.666,27.542c1.163-2.568-0.178-7.623,2.529-9.914
						c-0.614,0.401-2.123,0.748-2.543,0.238c1.004-3.06,9.325-3.9,12.405-6.328c-5.981-0.272-3.174,2.121-9.651,1.697
						c0.287,1.207-0.347,2.137-2.757,2.527c-2.276-0.003-0.771-1.165-2.758-1.258c-2.631,2.907,3.821,7.685-2.748,9.679
						C321.078,24.662,320.376,26.561,322.666,27.542z"/>
					<path fill-rule="evenodd" clip-rule="evenodd" fill="#F77705" d="M202.658,17.625c0.643-1.486-2.26-4.051,4.131-3.794
						c-0.102,0.591,0.311,1.61,1.38,0.84c-0.763-0.748-0.71-1.746-2.76-2.098c-2.038,1.064-5.333,1.746-9.652,2.117
						c-0.123,1.15,2.298,0.845,0.002,1.684C203.976,14.942,197.999,17.701,202.658,17.625z"/>
					<path fill-rule="evenodd" clip-rule="evenodd" fill="#F77705" d="M255.062,13.34c15.141,3.564,7.65,12.487,22.092,15.532
						c0.132-2.004-5.808-2.149-5.524-4.198c2.226-0.704,9.938-2.377,4.135-2.952c1.504,1.718-4.745,1.085-5.514,2.113
						c-0.668-2.614-4.089-4.567,1.369-6.313C263.532,16.917,263.609,13.805,255.062,13.34z"/>
					<path fill-rule="evenodd" clip-rule="evenodd" fill="#F77705" d="M4.061,27.176c0.761-0.751,0.706-1.748,2.755-2.106
						c3.354,0.934,0.852,3.666,5.522,4.198c0.164-2.627-2.807-3.074-4.145-5.883c3.143-0.583,5.186,1.076,5.515-0.009
						c-6.975-0.343,3.896-1.661-1.382-2.522c0.42,1.108-2.879,1.089-5.515,1.27c-0.567-1.368-2.882-2.203-5.521-2.935
						c2.254-1.28,1.071-3.599,5.51-4.216c-16.172,1.881-2.758,4.534-1.368,7.153C6.676,24.467,0.684,25.124,4.061,27.176z"/>
					<path fill-rule="evenodd" clip-rule="evenodd" fill="#F77705" d="M23.352,15.369c-4.553,2.652-5.858,6.443,2.771,7.989
						c0.698-0.699-2.292-3.401-4.142-2.52C20.656,18.985,27.377,16.243,23.352,15.369z"/>
					<path fill-rule="evenodd" clip-rule="evenodd" fill="#F77705" d="M329.57,31.737c1.516,2.277,2.724,4.777-4.129,5.475
						c4.342-0.209,1.035,1.928,4.141,2.1c0.434-1.396,0.956-4.402,4.132-2.53C333.934,34.746,337.756,32.365,329.57,31.737z"/>
					<path fill-rule="evenodd" clip-rule="evenodd" fill="#F77705" d="M332.32,26.686c7.047,0.808-2.339,4.062,2.766,5.464
						c0.668-0.751,1.472,0.182,2.76,0.416c-1.488-4.264,0.106-7.172-0.016-10.516c2.04,0.216,3.475,0.618,5.518,0.834
						c-4.2-2.674-4.76-4.142-2.771-7.989C332.538,17.465,337.428,24.387,332.32,26.686z"/>
					<path fill-rule="evenodd" clip-rule="evenodd" fill="#F77705" d="M49.103,19.536c0.001,0.561,0.002,1.122,0.003,1.683
						c5.314-0.375,5.829,1.019,9.197,1.249c0.383-1.228,0.127-1.446-2.3-0.838c-3.754-2.095,5.726-1.985,2.983-4.631
						c-1.595,0.83-3.824,2.821-7.7,1.693C51.459,19.855,53.355,20.134,49.103,19.536z"/>
					<path fill-rule="evenodd" clip-rule="evenodd" fill="#F77705" d="M132.318,18.992c1.757,0.082,6.757,1.213,6.896,0.41
						c-4.406-0.052-3.044-1.873-5.521-2.516C134.259,17.898,131.176,17.804,132.318,18.992z"/>
					<path fill-rule="evenodd" clip-rule="evenodd" fill="#F77705" d="M27.502,23.775c1.259,3.427,2.049,7.212,13.806,9.234
						c-1.034-1.992-6.486-3.69-9.66-3.771c-0.214-3.309-1.96-6.458,6.883-8.003c-1.566-1.842,0.007-1.382,1.375-2.946
						C33.048,19.291,35.068,22.987,27.502,23.775z"/>
					<path fill-rule="evenodd" clip-rule="evenodd" fill="#F77705" d="M150.281,40.42c-3.274-2.33-10.931-2.685-8.285-6.3
						c-1.364,1.269-4.877,1.885-4.132,3.794c5.236,0.919,10.507,1.828,13.797,3.345c-1.192,3.423-1.366,7.154-5.503,9.683
						c5.522,0.413,4.095,2.954,11.039,2.928c-0.407-2.393-7.053-1.999-6.903-4.616c0.049-0.838,5.12-2.305,5.512-3.374
						c-0.173,0.469-4.6-2.321-2.765-3.361c1.739-0.983,2.209-2.99,5.512-4.635c14.213,3.719,1.145,12.543,19.331,15.115
						c-5.061-3.851-8.119-6.182-9.67-10.081c3.949-0.597,7.53,1.294,6.897-0.431c-5.518-0.793,0.455-2.847-1.388-5.047
						c2.401-0.034,4.289,0.087,5.519,0.414c-0.863-0.998-1.858-1.955-5.521-2.095c-2.821,1.667,0.285,5.131-8.268,5.06
						c2.639-1.619-2.499-2.696-4.143-4.2c0.152-1.075,2.526-1.476,4.133-2.107c-5.587-4.71-2.909-8.073-1.399-12.198
						c-2.832-0.396-1.17-2.167-5.518-2.096c5.211,3.09-3.73,11.234,4.158,14.297C155.877,35.668,157.824,39.483,150.281,40.42z"/>
					<path fill-rule="evenodd" clip-rule="evenodd" fill="#F77705" d="M53.719,31.309c-1.792-1.04,3.075-2.047-0.003-2.104
						c-0.29,0.474-1.527,0.657-2.757,0.846c-2.703-3.23,0.147-5.846-4.15-8.829c-1.771,5.182,5.12,12.783-11.01,16.004
						c4.006,0.733,5.451,2.253,11.037,2.507c-5.078-3.465-3.776-2.291-2.768-5.467c2.529,0.16,4.673,0.661,6.896-0.01
						c-1.993-0.999-2.093-1.029-4.139-1.255C49.064,31.973,48.825,30.496,53.719,31.309z"/>
					<path fill-rule="evenodd" clip-rule="evenodd" fill="#F77705" d="M139.217,21.084c-2.088,1.174-6.42,5.728-5.509,5.056
						c0.332-0.74,2.371-0.963,5.515-0.85c-0.269,1.205-0.168,2.297,4.14,2.098C140.542,25.509,138.97,22.729,139.217,21.084z"/>
					<path fill-rule="evenodd" clip-rule="evenodd" fill="#F77705" d="M16.466,21.689c2.02,1.168-1.954,2.502,2.762,3.362
						C17.597,23.219,21.034,22.446,16.466,21.689z"/>
					<path fill-rule="evenodd" clip-rule="evenodd" fill="#F77705" d="M100.599,21.563c-2.736,4.018-1.637,7.865,2.776,10.512
						c-1.824,0.007-2.399,0.741-3.897,0.847c-0.308-0.326-1.455-0.828-2.518-0.838c0.001,0.702,0.002,1.402,0.003,2.104
						c5.316,0.449,4.129-3.175,9.41-1.695c-3.883-2.77-3.827-4.753-6.339-8.403c1.384-0.002,1.925-0.344,3.042-0.427
						c0.448,0.484,6.161,1.44,7.04,0.412c-8.605-0.11,2.042-2.23-4.07-2.1C105.656,24.033,101.069,22.068,100.599,21.563z"/>
					<path fill-rule="evenodd" clip-rule="evenodd" fill="#F77705" d="M219.214,21.806c4.274,1.81,1.953,3.588,5.525,5.041
						c-1.129-1.604,2.933-1.632,5.516-2.111c-0.653,0.821,3.712,2.145,4.137,1.255c-1.85-0.273-2.569-0.896-2.761-1.68
						c-7.142,0.227-6.984-1.784-9.66-2.929C222.048,22.169,220.912,22.272,219.214,21.806z"/>
					<path fill-rule="evenodd" clip-rule="evenodd" fill="#F77705" d="M77.175,37.165c-4.506-2.655,0.396-5.135-0.01-6.732
						c-2.502,0.923-2.255,2.679-8.272,2.536c-0.088-3.894-10.022-5.589-8.288-8.819C54.287,29.039,70.775,33.448,77.175,37.165z"/>
					<path fill-rule="evenodd" clip-rule="evenodd" fill="#F77705" d="M348.869,24.559c-5.029,7.24-4.687,12.354,6.921,18.499
						c-1.521-2.004,1.759-2.552,4.135-3.374c-6.47-0.399-8.319-2.218-11.04-3.769c2.039-1.062,6.555-1.374,5.512-3.373
						c1.931,0.029,5.274-0.1,2.758-0.424c-5.583,0.129-5.779,1.89-8.271,2.956c-0.333-0.6-2.273-0.706-2.762-1.257
						c2.848-1.741,1.841-4.131,6.892-3.375C347.757,28.389,356.595,25.485,348.869,24.559z"/>
					<path fill-rule="evenodd" clip-rule="evenodd" fill="#F77705" d="M143.371,32.437c-5.342-4.137-12.101-5.244-20.696-7.121
						c-0.997,1.287,1.411,1.532,1.382,2.523c-11.59,2.832-24.486,12.22-8.253,15.576c-2.821-1.543-9.083-3.98-2.767-5.886
						c1.969,0.099,2.326,0.69,4.14,0.836c-5.657-2.013-0.45-2.693-4.146-4.621c2.629-0.184,2.495-1.206,6.894-0.853
						c-0.004,0.233,1.119,0.476,1.379-0.002c-3.523-0.04-2.74-1.404-2.761-2.52c8.004,0.884,2.392-1.957,8.271-2.957
						c6.884,1.537,12.493,3.133,14.1,6.289c7.731-0.266,4.954,2.173,11.334,2.507c-0.001-0.28-0.001-0.561-0.001-0.842
						c1.063-0.025,2.714-0.066,2.461-0.424C146.705,35.193,150.968,31.07,143.371,32.437z"/>
					<path fill-rule="evenodd" clip-rule="evenodd" fill="#F77705" d="M215.083,25.177c-5.581,1.225,4.94,4.196,8.281,3.775
						c-2.974-0.351-1.167-2.166-4.143-2.518C216.064,28.163,217.38,25.095,215.083,25.177z"/>
					<path fill-rule="evenodd" clip-rule="evenodd" fill="#F77705" d="M183.36,25.646c-9.721,1.256-9.791,5.438-15.16,8.015
						c8.851,0.112,2.754-3.096,9.648-4.221c1.356,0.566,3.682,0.835,5.519,1.254c0.185-1.818-4.372-0.898-5.521-2.936
						C182.183,27.813,182.584,26.673,183.36,25.646z"/>
					<path fill-rule="evenodd" clip-rule="evenodd" fill="#F77705" d="M202.683,34.453c-2.267-0.918-4.4-2.671,2.756-2.531
						c-4.763-1.79-0.143-3.728,1.369-5.891C197.703,27.265,196.757,33.613,202.683,34.453z"/>
					<path fill-rule="evenodd" clip-rule="evenodd" fill="#F77705" d="M286.822,37.691c15.909,2.692,6.666,10.544,24.845,12.582
						c-0.147-1.076-0.784-2.003-2.763-2.52c-0.23,0.491-2.18,0.461-4.136,0.426c-0.217-2.879-8.011-5.63-1.392-7.148
						c-0.096-1.966-3.151,0.497-5.517,0.429c-6.847-2.62,4.272-6.353,1.365-8.837c-3.579,1.576-2.336,4.617-9.646,5.063
						c0.422-2.233-4.638-2.786-5.523-4.62c3.305,0.162-0.769-1.914,4.137-1.269c-5.535-1.847-3.509-3.753-0.009-5.889
						c-11.877,1.632-3.648,5.156-8.264,8.004C284.533,34.464,286.895,35.704,286.822,37.691z"/>
					<path fill-rule="evenodd" clip-rule="evenodd" fill="#F77705" d="M329.564,27.532c-9.999,0.472-11.172,3.618-15.163,5.911
						c3.761,0.301,2.773-0.84,5.516-0.85c0.459,0.979,1.414,1.81,4.139,2.097c-1.894-1.329-5.504-4.368-0.008-5.469
						c2.587,0.471,2.934,1.625,5.521,2.096C329.554,29.477,324.479,28.729,329.564,27.532z"/>
					<path fill-rule="evenodd" clip-rule="evenodd" fill="#F77705" d="M299.218,27.997c-2.736,1.023-5.924,1.869,0.004,2.524
						c0.315-0.745-1.392-2.105,2.757-1.687c0.774,0.604,2.153,1.022,4.141,1.255C305.556,28.859,301.398,28.733,299.218,27.997z"/>
					<path fill-rule="evenodd" clip-rule="evenodd" fill="#F77705" d="M191.65,36.15c-1.211-1.552,0.84-6.631-0.011-7.15
						c-0.303,0.328-1.152,0.49-2.757,0.424c1.478,2.269-1.715,3.124-2.75,4.631C189.374,33.734,190.026,34.941,191.65,36.15z"/>
					<path fill-rule="evenodd" clip-rule="evenodd" fill="#F77705" d="M226.121,28.526c-0.505,1.936,4.975,5.419,6.908,7.982
						c-1.261,1.711-10.295,3.644-4.13,5.055c1.48-1.095,3.348-2.068,2.753-3.79c5.967,0.66,8.671-1.818,6.893-2.114
						c0.59,0.695-5.143-0.03-5.518-0.414C236.532,33.543,230.316,30.326,226.121,28.526z"/>
					<path fill-rule="evenodd" clip-rule="evenodd" fill="#F77705" d="M259.224,28.898c-0.829,0.119-1.577,0.252-2.291,0.395
						C257.959,29.239,259.191,29.251,259.224,28.898z"/>
					<path fill-rule="evenodd" clip-rule="evenodd" fill="#F77705" d="M244.074,43.644c1.132,1.196,3.117,2.132,6.899,2.515
						c1.535-1.873-3.65-1.685-4.142-2.938c4.749,0.164,4.554-1.794,8.271-2.957c-0.134-1.57-5.384-0.023-5.517-0.833
						c1.425-3.693-1.082-6.371,8.266-7.165c-0.434-0.97-2.107-1.557-1.412-2.874C242.13,32.417,251.336,39.824,244.074,43.644z"/>
					<path fill-rule="evenodd" clip-rule="evenodd" fill="#F77705" d="M256.438,29.392c0.161-0.034,0.33-0.067,0.495-0.099
						c-0.163,0.008-0.321,0.018-0.469,0.03C256.451,29.347,256.451,29.366,256.438,29.392z"/>
					<path fill-rule="evenodd" clip-rule="evenodd" fill="#F77705" d="M122.687,33.729c0.628,1.35,5.37,1.44,8.277,2.091
						c-1.188-1.311-4.041-1.804-0.004-2.945c-0.073,0.725,1.062,1.078,2.759,1.258c-1.244-1.328-4.161-1.84-1.384-3.362
						c-2.607-0.091-3.043,0.479-5.517,0.43c-0.157-0.514-0.412-0.996-2.759-0.838c-0.071,1.285,4.968,1.002,4.141,2.517
						C126.956,33.616,125.119,34.505,122.687,33.729z"/>
					<path fill-rule="evenodd" clip-rule="evenodd" fill="#F77705" d="M300.601,30.099c5.002,2.679,9.276,7.813,15.187,8.811
						c-5.446-1.962,2.583-3.505-2.766-5.044c-0.668,0.499-1.468,0.957-2.757,1.266C308.685,32.952,305.64,31.22,300.601,30.099z"/>
					<path fill-rule="evenodd" clip-rule="evenodd" fill="#F77705" d="M324.938,55.243c0.216-0.099,0.4-0.216,0.529-0.361
						C325.231,54.987,325.064,55.11,324.938,55.243z"/>
					<path fill-rule="evenodd" clip-rule="evenodd" fill="#F77705" d="M311.66,45.646c2.608,0.09,3.041-0.478,5.514-0.428
						c-1.993,2.998,3.201,10.113-1.358,12.621c3.762,0.032,2.776-0.705,5.517-0.009c0.312-0.744-1.394-2.103,2.755-1.688
						c-0.936,1.54-1.92,3.063-1.373,5.051c7.029-0.596-0.282-4.259,1.307-5.95c-1.359,0.612-4.844,0.346-5.906,0.067
						c-0.001-1.122-0.003-2.243-0.005-3.364c3.189-0.093,6.811,1.775,7.813,0.829c-5.882-0.051,2.338-1.88-2.302-2.521
						c-3.347,0.574-0.63,0.843-2.528,1.268c-0.306-0.328-1.042-0.487-2.645-0.418c2.922-1.075-0.858-4.202,5.567-4.216
						c-8.238-1.261-6.369-5.613-12.397-7.552c1.551,1.77,0.747,4.263,4.161,5.462C313.409,44.781,312.261,45.128,311.66,45.646z"/>
					<path fill-rule="evenodd" clip-rule="evenodd" fill="#F77705" d="M71.668,44.743c-4.064,0.447-7.547,1.074-9.65,2.12
						c1.433,1.258,3.549,4.5,9.658,2.927c-5.175-0.199,0.857-2.164-5.518-2.515c0.957-1.251,4.523-1.711,6.892-2.534
						c3.202,0.28,3.692,1.392,6.898,1.672c-5.107-1.259-3.607-4.489-2.768-5.465c-2.911,0.379-2.393,1.797-6.894,1.694
						c-5.578-4.106-12.301-7.407-13.81-11.758c-3.537,2.08,1.718,4.213-2.75,5.893C65.899,37.536,64.525,42.443,71.668,44.743z"/>
					<path fill-rule="evenodd" clip-rule="evenodd" fill="#F77705" d="M381.868,31.824c0-0.192,0.684-0.389,0.285-0.586
						c-2.519,5.36-7.058,9.435-6.272,13.893c0.438-0.72,4.571,0.38,5.818-0.851c-2.427-0.098-4.201-0.719-3.815-1.677
						c2.646,0.112,1.875,1.021,4.002,1.224l-0.002-1.336c-1.065-0.914-3.214-0.824-5.061-1.569c3.762-0.766,0.803-2.578,5.055-2.284
						l0-0.556c-2.128-1.433-1.068-2.74-0.006-4.051L381.868,31.824z"/>
					<path fill-rule="evenodd" clip-rule="evenodd" fill="#F77705" d="M208.197,32.76c0.005-0.232-1.116-0.475-1.379,0.002
						c8.655,1.005,1.459,4.17-1.372,4.211c0.354,0.871,6.058,0.104,6.895,0.83c1.893-0.962-3.557-1.577-0.002-1.684
						c9.498,2.154-3.578,4.121-5.507,6.318c-1.024,1.166,2.449,4.875-2.753,4.213c-0.23,1.051,2.122,1.311,4.141,1.673
						c1.335-2.141-1.947-4.202,5.509-5.055c0.939,1.537,4.306,2.327,8.279,2.932c-0.425-0.982-2.701-1.733-0.003-2.524
						c-2.607-0.09-3.042,0.479-5.514,0.428c-0.01-1.119-3.838-1.067-5.521-1.673c4.021-0.883,3.406-3.171,9.65-3.381
						c-4.032-2.466-7.626-4.114-6.907-7.141C209.251,31.397,212.661,33.275,208.197,32.76z"/>
					<path fill-rule="evenodd" clip-rule="evenodd" fill="#F77705" d="M195.785,33.199c-6.091,3.221,2.665,5.177,0.012,7.993
						c2.626,0.178,3.465,0.901,6.898,0.832c-6.849-1.484,1.971-3.319-0.007-4.207c-0.771,0.606-2.151,1.028-4.136,1.267
						C193.789,36.876,201.299,35.595,195.785,33.199z"/>
					<path fill-rule="evenodd" clip-rule="evenodd" fill="#F77705" d="M271.648,36.874c0.329-0.459,2.269-1.015,2.759-0.427
						c-2.793,1.003-3.681,2.838,0.005,3.787c3.762-1.975-1.978-4.782,4.129-5.476c-0.36-0.592-3.027-0.477-4.139-0.836
						C277.509,35.881,266.843,35.792,271.648,36.874z"/>
					<path fill-rule="evenodd" clip-rule="evenodd" fill="#F77705" d="M54.821,49.635c0.194-0.192,0.308-0.409,0.306-0.662
						C55.038,49.189,54.93,49.412,54.821,49.635z"/>
					<path fill-rule="evenodd" clip-rule="evenodd" fill="#F77705" d="M53.771,66.223c-1.137,1.193,1.946,1.087,1.384,2.103
						c3.184,2.727-0.579-3.747-0.009-5.471c1.096-0.048,4.177-1.396,1.377-1.264c-1.855,0.699-3.523,1.453-6.892,1.693
						c-1.801-4.28,3.195-9.56,5.189-13.65c-0.889,0.88-3.546,1.224-5.207,1.871c-2.272-2.792,2.63-6.906,8.263-7.165
						c-7.891-1.682,4.414-3.077-0.007-4.625c0.178,0.752-1.369,0.984-4.137,0.847c-1.062-1.583,1.68-2.013,1.376-3.367
						c-9.465,2.421,4.18,8.115-8.261,10.106c1.158-1.897-3.233-2.095-4.143-3.359c-0.396-0.741,6.494-1.313,2.757-1.686
						c-0.383,0.864-3.683,0.845-5.517,1.27c2.604-1.436-4.161-3.058-4.144-5.042c-5.841,2.763,5.385,4.371,4.146,6.725
						c16.263,2.426,1.184,14.365,9.687,19.336c-2.294,0.847-3.702,1.96-8.276,2.116c-7.973-3.156-4.822-4.226,2.748-7.156
						c-11.398,1.448-14.676,5.358-20.676,8.445c6.618,0.636,7.244,3.11,9.662,5.033c-4.98,1.588-12.483,6.367-6.883,8.424
						c-0.95-1.398,2.852-0.681,4.139-0.428c-2.494-1.396-2.542-1.981-2.768-4.622c5.986-0.642,4.539-3.571,11.029-2.961
						c-1.601-0.185-1.558-1.845-2.76-2.519c0.28,0.157-0.756,1.038-1.38,0.843c-4.933-1.545-6.541-4.736-1.392-7.991
						c6.185,2.12,11.863,4.044,6.907,7.563c8.861,0.203-2.649-3.51,8.272-2.957c-2.575-1.459,0.698-2.228,2.753-3.37
						C52.746,65.137,53.831,65.504,53.771,66.223z"/>
					<path fill-rule="evenodd" clip-rule="evenodd" fill="#F77705" d="M187.529,46.253c-4.462-1.795-0.306-7.133,1.056-7.907
						c-2.672,0.753-4.235-0.146-6.585-0.498C185.392,40.989,179.543,44.438,187.529,46.253z"/>
					<path fill-rule="evenodd" clip-rule="evenodd" fill="#F77705" d="M188.584,38.346c0.104-0.027,0.204-0.055,0.311-0.088
						C188.828,38.238,188.72,38.271,188.584,38.346z"/>
					<path fill-rule="evenodd" clip-rule="evenodd" fill="#F77705" d="M330.963,40.991c-6.082,0.608-4.644-1.405-6.902-2.936
						c-2.208,1.933-0.095,2.857,0.008,5.049c5.144-0.456,2.186,1.573,6.899,1.251C328.407,43.319,326.913,41.941,330.963,40.991z"/>
					<path fill-rule="evenodd" clip-rule="evenodd" fill="#F77705" d="M262.022,55.817c2.255,0.758,5.394,1.358,9.655,0.826
						c0.191,0.783,0.91,1.404,2.762,1.68c0.698-2.04-6.323-1.709-4.144-4.201c4.903-0.333,5.197-2.069,9.65-2.538
						c2.954,3.087,6.753,5.318,8.288,7.98c-0.075-0.725,1.06-1.081,2.756-1.266c-3.899-2.02-6.803-5.638,1.37-5.471
						c-2.855-1.688-4.342,0.147-8.274,0.434c-1.362-0.987-2.421-2.063-2.763-3.36c6.436,0.034,0.213-0.731,5.515-1.693
						c2.1,0.372,5.89,2.358,8.276,1.25c-3.752-0.249-5.408-1.146-5.521-2.515c1.192-0.923,7.362-2.501,4.132-3.372
						c-2.926,1.216-3.632,3.105-9.648,3.38c-4.792-3.482,3.324-6.138,2.747-7.997c-2.228,1.006-3.792,2.215-8.272,2.538
						c-0.133-0.662,0.181-1.458-2.76-1.258c3.816,2.196,4.472,5.362,8.286,7.559c-5.724,1.628-8.298,4.21-13.783,5.909
						c-5.969-2.381-3.153-6.831,2.748-7.575c-1.063-1.583,1.68-2.013,1.374-3.367C257.081,45.263,271.977,55.321,262.022,55.817z"/>
					<path fill-rule="evenodd" clip-rule="evenodd" fill="#F77705" d="M239.952,52.905c-0.674,1.478-3.514,2.298-5.514,3.373
						c5.106-0.302,2.381,1.798,5.522,2.098c1.978-1.126,4.24-4.825-0.003-2.105c-0.142-1.302,0.62-2.333,2.752-2.947
						c1.967,0.096,2.327,0.687,4.138,0.834c-1.226-1.461-1.784-3.378-6.897-2.513c-3.225-3.019-8.647-5.421-2.773-8.831
						c2.041,0.217,3.475,0.617,5.518,0.833c0.03-0.99-2.377-1.236-1.385-2.521c-7.474,0.256-6.295,3.136-11.024,4.223
						c-3.591-1.702-0.758-3.495-6.904-3.776C227.719,45.713,233.548,49.396,239.952,52.905z"/>
					<path fill-rule="evenodd" clip-rule="evenodd" fill="#F77705" d="M144.766,42.11c-1.255,0.74-4.832,0.776-6.894,1.272
						c-0.366,2.94-4.337,4.692-8.269,5.479c3.368,0.231,2.942,1.624,8.278,1.252c-1.025-2.544-1.284-4.474,4.129-5.897
						c0.359,0.593,3.024,0.478,4.138,0.836C143.708,44.139,146.311,42.33,144.766,42.11z"/>
					<path fill-rule="evenodd" clip-rule="evenodd" fill="#F77705" d="M199.94,45.394c-2.808-0.402-2.98-1.613-2.764-2.941
						c-3.431-0.06-4.267,0.667-6.895,0.852C190.086,44.788,197.833,46.012,199.94,45.394z"/>
					<path fill-rule="evenodd" clip-rule="evenodd" fill="#F77705" d="M263.382,42.774c-4.465-0.512-1.052,1.363-5.515,0.849
						c0.014,0.617-0.517,3.444,1.383,2.102C257.84,43.897,262.099,43.787,263.382,42.774z"/>
					<path fill-rule="evenodd" clip-rule="evenodd" fill="#F77705" d="M100.651,56.059c-0.354-4.309-16.973-5.167-12.428-9.658
						c-9.314,1.462,1.915-2.625-5.521-2.936c0.968,1.834-2.339,2.373-1.372,4.208C90.365,49.672,91.408,54.122,100.651,56.059z"/>
					<path fill-rule="evenodd" clip-rule="evenodd" fill="#F77705" d="M224.789,59.659c3.761-0.178,11.771,1.898,9.655,0.827
						c-2.404-0.377-5.314-0.934-2.761-1.679c-7.974,0.204-1.888-1.287-1.38-2.102C223.917,57.156,226.829,58.518,224.789,59.659z"/>
					<path fill-rule="evenodd" clip-rule="evenodd" fill="#F77705" d="M223.409,59.239c2.099-2.614,1.324-3.707,6.561-5.373
						c-2.857-1.889,0.392-4.587-3.82-6.409C225.623,52.593,219.939,56.249,223.409,59.239z"/>
					<path fill-rule="evenodd" clip-rule="evenodd" fill="#F77705" d="M233.056,55.02c-1.18-0.268-2.042-0.575-2.677-0.912
						C230.654,54.602,231.66,54.87,233.056,55.02z"/>
					<path fill-rule="evenodd" clip-rule="evenodd" fill="#F77705" d="M230.298,53.76c-0.118,0.037-0.217,0.071-0.329,0.106
						c0.125,0.084,0.264,0.162,0.41,0.241C230.32,54.002,230.285,53.889,230.298,53.76z"/>
					<path fill-rule="evenodd" clip-rule="evenodd" fill="#F77705" d="M253.743,52.885c-0.355-2.436-3.65-2.606-1.389-5.046
						c-1.897,0.022-3.03-0.193-4.137-0.415c1.24,1.919-2.294,2.388-2.753,3.79c2.608,0.09,3.041-0.477,5.516-0.429
						c2.227,1.561,1.385,4.067,5.524,5.041c-1.582-1.322,2.165-1.026,2.758-1.687c-6.061-1.183,0.872-1.536,1.374-2.947
						C255.917,51.021,256.494,52.457,253.743,52.885z"/>
					<path fill-rule="evenodd" clip-rule="evenodd" fill="#F77705" d="M190.312,63.075c1.599,1.023,6.497-0.478,2.758-0.846
						c-1.934,0.676-4.749,1.084-8.274,1.274c1.778-1.144,3.372-2.339,2.752-4.211c1.838-0.064,4.165,1.704,5.518,0.413
						c-10.27-2.266-3.829-7.064-8.292-10.926c-9.355,4.278,7.331,10.582-2.736,14.728c3.68,1.118,7.136,2.3,12.417,2.927
						C194.449,64.894,187.998,65.329,190.312,63.075z"/>
					<path fill-rule="evenodd" clip-rule="evenodd" fill="#F77705" d="M303.39,49.867c-3.37-1.063-2.937,0.89-8.274,0.431
						c3.386,2.749,9.472,4.672,17.939,5.862c0.342-1.228-2.6-1.445-4.141-2.096c-0.593-0.929,8.285-1.064,4.136-1.688
						c-2.5,0.361-3.801,1.087-6.894,1.27c-3.481-0.616-5.704-1.619-6.903-2.934C301.626,50.733,302.788,50.385,303.39,49.867z"/>
					<path fill-rule="evenodd" clip-rule="evenodd" fill="#F77705" d="M366.861,67.02c-1.953-2.382-8.844-1.819-8.281-4.196
						c-3.078,0.187-4.916,0.752-5.515,1.693c15.07,0.1,7.023,4.978,0.009,6.311c1.535,1.315,0.648,1.11-1.376,2.104
						c2.402-0.035,4.29,0.087,5.518,0.411c-1.6-3.568,6.29-4.258,8.265-6.742C365.561,66.856,365.689,67.098,366.861,67.02z"/>
					<path fill-rule="evenodd" clip-rule="evenodd" fill="#F77705" d="M362.719,63.66c-3.409-1.585,5.3-2.383,4.131-3.793
						c-0.257,0.622-3.333,0.392-5.515,0.43c-0.868-3.069,5.559-6.05,8.261-9.268c3.82,0.566,5.838,3.27,9.659,2.509
						c-2.906-0.598-5.941-2.686-9.662-4.192C361.494,52.934,354.527,61.077,362.719,63.66z"/>
					<path fill-rule="evenodd" clip-rule="evenodd" fill="#F77705" d="M130.992,54.331c-8.64-0.086,0.743-4.438-2.765-3.783
						c-1.245,0.735-3.082,1.626-5.514,0.85C120.245,53.717,128.315,54.987,130.992,54.331z"/>
					<path fill-rule="evenodd" clip-rule="evenodd" fill="#F77705" d="M68.954,73.772c0.035-1.973-6.85-1.828-6.901-3.775
						c1.316-1.982,4.335-3.451,6.888-5.057c4.972,0.036,4.803,3.832,9.66,2.509c-2.864-1.367-6.454-2.512-8.282-4.196
						c5.691-0.776,1.01-2.686,6.89-3.796c-6.642-1.379-4.805,2.873-9.648,3.379c-1.545-1.501-5.08-4.598-2.768-5.884
						c2.174,0.035,1.08,1.073,4.138,0.835c-1.69-1.777-4.396-4.705,2.753-2.948c1.005-1.15-2.739-0.845-2.76-1.68
						c1.5-0.103,3.312-0.697,1.379-0.843c-12.252,2.548-9.359,8.398-2.739,12.203c-3.071,2.292-9.452,3.581-9.646,6.747
						C62.294,71.887,65.431,72.888,68.954,73.772z"/>
					<path fill-rule="evenodd" clip-rule="evenodd" fill="#F77705" d="M210.994,59.258c-3.487-2.241-6.31-4.452-0.01-6.729
						c-0.733,0.874,5.378,0.883,1.38,0.417c-2.721-0.288,0.336-2.348-2.761-2.521c-4.24,1.959-2.832,3.838-8.268,5.901
						C203.654,57.581,206.875,58.558,210.994,59.258z"/>
					<path fill-rule="evenodd" clip-rule="evenodd" fill="#F77705" d="M199.955,55.488c-3.727-1.1-0.85-4.228-8.282-4.194
						C194.189,52.768,195.711,54.546,199.955,55.488z"/>
					<path fill-rule="evenodd" clip-rule="evenodd" fill="#F77705" d="M110.813,53.938c0,0.561,0.001,1.121,0.002,1.683
						c6.38,0.048,3.489,3.483,8.026,4.196c0.196-1.435-0.521-4.578,3.318-2.53c-1.018-1.894-3.433-1.373,0.275-2.944
						c-4.331-0.193-4.624,1.139-7.877,1.273C112.646,55.359,112.939,54,110.813,53.938z"/>
					<path fill-rule="evenodd" clip-rule="evenodd" fill="#F77705" d="M151.68,54.299c-0.329,0.739-2.372,0.961-5.517,0.85
						c0.969,1.292,0.968,0.806,0.003,2.102c14.543,2.459,0.188,11.544,2.781,14.3c0.188-0.783,0.906-1.407,2.756-1.687
						c6.032,1.041,4.686,5.034-1.37,5.89c4.492,2.495-0.691,8.567-8.265,6.745c-1.042,1.014-1.092,2.038,1.381,2.941
						c0.292-0.508,1.533-0.26,2.759-0.004c-4.034-1.879,8.72-2.214,5.51-5.477c4.05-0.874,5.926-2.408,9.65-3.38
						c-3.426-0.542-5.723,1.243-6.897,0.01c2.8-1.354,0.615-5.158,8.27-3.798c-4.675-1.627,5.319-2.608,1.372-3.788
						c-2.176,0.881-3.188,2.115-8.271,2.117c-4.271-2.192-3.005-6.469-0.013-8.836c6.181,3.704,20.077,8.142,15.19,12.598
						c5.217-0.886,2.048-1.389,6.896-0.01c-2.409-2.701-5.183-4.808-5.528-7.143c-0.214,0.496,0.239,1.193-1.377,1.265
						c-2.877-1.083,0.484-4.077-2.767-5.044c0.388,0.957-0.33,1.582-2.755,1.687c-4.038-2.403-9.875-4.069-9.665-6.716
						C150.107,58.892,152.394,55.82,151.68,54.299z"/>
					<path fill-rule="evenodd" clip-rule="evenodd" fill="#F77705" d="M292.37,59.558c-0.324,1.303-3.834,1.639-5.512,2.532
						c-3.453-0.626-3.161-2.397-6.901-2.935c2.62-1.055-1.147-1.649,1.375-2.948c-10.144,1.244-2.096,4.575,2.767,5.887
						c-2.408,1.621,2.272,3.094,6.902,3.775c0.343-1.228-2.601-1.447-4.141-2.096C287.506,62.271,296.629,61.151,292.37,59.558z"/>
					<path fill-rule="evenodd" clip-rule="evenodd" fill="#F77705" d="M267.557,66.746c5.246,0.611,0.268-1.881,5.514-1.269
						c1.463-1.571-5.174-0.659-4.142-2.099c-0.424-0.968,3.984-0.472,4.137-1.268c-4.411-0.312,1.439-3.113-1.385-2.943
						c-0.771,0.607-2.149,1.03-4.134,1.27c-2.668-0.867-3.365-2.335-5.523-3.359c-5.47-0.258-3.948,1.606-9.653,1.278
						c0.575,4.021-2.434,7.813,5.535,10.927c-12.682,3.303-13.82,10.104-28.947,12.665c2.641,1.477-1.304,2.043-2.753,3.37
						c3.522-0.053,4.827-0.779,6.895-1.272c-3.373-1.718,5.755-3.62,9.649-3.381c-2.426-0.097-3.144-0.721-2.759-1.676
						c9.771-2.104,11.164-6.105,16.536-8.018c4.713-0.323,1.757,1.705,6.899,1.25c-5.741-3.495-13.79-10.644-2.78-14.299
						C268.649,59.275,267.437,64.186,267.557,66.746z"/>
					<path fill-rule="evenodd" clip-rule="evenodd" fill="#F77705" d="M142.04,63.147c-0.304,0.33-1.155,0.491-2.759,0.425
						c-1.254-1.635-2.026-3.441,2.753-4.211c4.419-0.856,4.316,1.659,5.519,0.414c-0.591-0.8-3.944-0.756-2.763-2.1
						c-5.319,0.908-7.859,2.662-11.028,4.223C135.228,63.269,144.037,65.469,142.04,63.147z"/>
					<path fill-rule="evenodd" clip-rule="evenodd" fill="#F77705" d="M347.538,58.214c-2.687,0.725-4.175,1.815-8.272,2.116
						c1.821,2.8,0.625,6.852,1.393,8.83c5.262-2.748,3.296-5.067,1.367-8.415C345.233,61.951,348.455,58.179,347.538,58.214z"/>
					<path fill-rule="evenodd" clip-rule="evenodd" fill="#F77705" d="M314.439,58.685c-1.253,2.702-6.275,4.263-5.507,7.579
						c-1.631-0.058-3.127-0.745-4.137,0.006c1.961,1.308,4.258,0.257,6.895-0.432C308.844,64.256,319.973,61.083,314.439,58.685z"/>
					<path fill-rule="evenodd" clip-rule="evenodd" fill="#F77705" d="M103.422,63.625c4.581,2.157,13.992,4.712,6.906,7.983
						c0.893,0.742,6.269,2.242,8.278,1.249c-7.968-2.09-1.711-5.123,4.128-7.156c1.589,1.193,6.511,1.37,8.278,2.512
						c-3.483-2.624-14.312-4.428-6.908-7.983c-4.699-0.304-2.271,1.554-5.515,1.69c-0.312-0.327-0.038-0.83-1.38-0.839
						c1.173,2.47,6.03,5.79-4.129,6.317c-1.011-1.603-9.079-4.088-2.766-4.204c-3.554-0.096,1.894-0.727-0.002-1.683
						C107.12,61.944,103.895,62.367,103.422,63.625z"/>
					<path fill-rule="evenodd" clip-rule="evenodd" fill="#F77705" d="M328.233,60.767c-2.918,2.28,6.691,4.031,9.665,5.874
						C334.257,62.49,333.606,62.613,328.233,60.767z"/>
					<path fill-rule="evenodd" clip-rule="evenodd" fill="#F77705" d="M379.267,61.531c-6.875,3.077-15.399,4.538-6.886,6.741
						c-0.245-1.585,0.655-4.215,5.512-2.951C373.645,63.315,383.035,62.961,379.267,61.531z"/>
					<path fill-rule="evenodd" clip-rule="evenodd" fill="#F77705" d="M133.766,65.262c-2.279-0.932,0.291-2.281-1.383-2.521
						C129.976,63.295,127.347,65.42,133.766,65.262z"/>
					<path fill-rule="evenodd" clip-rule="evenodd" fill="#F77705" d="M296.525,70.911c-1.621-0.066-3.914,0.074-4.139-0.416
						c1.899-0.544,1.362-1.831,1.374-2.947c2.608-0.1,3.045,0.469,5.518,0.414c-3.863-1.354-2.625-4.328,4.134-3.372
						c1.802-1.303-3.915-2.382-5.519-1.255c-8.539,3.335-3.822,11.737-19.288,14.333c-0.065-2.557-4.558-2.54-8.281-4.617
						c-1.209,1.373,4.091,3.96,8.282,5.036c-6.703,2.316,4.007,4.502,0.011,7.571c2.789,0.97,4.588,2.242,9.66,2.512
						c-5.736-2.277-8.178-6.971-9.67-9.241C288.722,77.513,291.063,73.738,296.525,70.911z"/>
					<path fill-rule="evenodd" clip-rule="evenodd" fill="#F77705" d="M271.697,69.685c-0.239,3.291-17.471,5.44-8.262,8.848
						C262.054,75.14,276.074,72.168,271.697,69.685z"/>
					<path fill-rule="evenodd" clip-rule="evenodd" fill="#F77705" d="M284.117,73.873c2.187-1.193-4.481-2.661-5.523-4.198
						c3.421-0.553,6.696,0.928,6.896-0.011c-1.606-0.068-1.496-0.664-1.38-1.261c1.07-0.096,2.72-0.016,2.758-0.423
						c-3.322-0.167-2.997,0.771-6.896,0.429c-0.331-0.6-2.271-0.705-2.761-1.256c1.673-1.394,6.608-3.27-0.005-3.787
						c2.325,3.669-3.093,3.371-5.512,3.795C279.888,68.154,275.763,72.927,284.117,73.873z"/>
					<path fill-rule="evenodd" clip-rule="evenodd" fill="#F77705" d="M82.746,72.911c-1.356-1.646-4.126-3.368,1.372-4.628
						c0.152,0.333,4.562,1.267,4.139,0.413c-1.606-0.067-1.498-0.662-1.38-1.259c-2.568-0.398-4.607,1.266-5.517,0.008
						c1.36-1.211,4.582-1.843,1.374-3.367C81.938,66.559,70.556,71.698,82.746,72.911z"/>
					<path fill-rule="evenodd" clip-rule="evenodd" fill="#F77705" d="M205.525,89.977c-0.786-2.006-4.695-3.051-5.527-5.04
						c-3.465,1.306-8.413-2.714-4.142-3.78c5.192,0.511,5.786,2.435,8.281,3.773c4.337,0.054,4.736-1.086,5.515-2.111
						c-11.153,0.587-11.5-5.332-15.186-8.392c2.608-0.099,3.043,0.47,5.518,0.413c-0.378-0.837-5.928-3.029-0.003-2.104
						c-7.699-2.599,7.675-5.616,2.749-7.577c-15.892,5.297-4.023,12.262-12.386,19.371C199.594,85.06,198.367,88.804,205.525,89.977
						z"/>
					<path fill-rule="evenodd" clip-rule="evenodd" fill="#F77705" d="M103.457,86.762c-0.565,0.53-1.778,0.862-4.138,0.849
						c-5.965-5.747,0.101-8.67,6.877-12.631c-5.248-2.88-7.495-6.68-13.806-9.233c-1.06,1.181,3.786,4.095,2.767,5.466
						c3.825-0.734,4.453,3.108,8.282,3.771c-9.658,3.378-6.807,10.551-22.05,12.232c-0.624,2.016,1.5,3.188,5.522,3.779
						c-4.668-3.158,2.514-4.693,6.886-6.321c8.176,0.657-0.156,6.329,5.526,5.881c-0.436-0.568-1.964-0.799-1.383-1.681
						C101.92,89.915,106.638,87.635,103.457,86.762z"/>
					<path fill-rule="evenodd" clip-rule="evenodd" fill="#F77705" d="M104.805,67.41c-3.009-0.071-4.386,0.351-4.135,1.267
						c1.288,0.448,5.088,0.125,4.139,1.257C112.086,69.778,99.015,68.501,104.805,67.41z"/>
					<path fill-rule="evenodd" clip-rule="evenodd" fill="#F77705" d="M212.402,78.187c1.031-1.298-4.756-0.505-2.76-2.099
						c1.897,0.015,3.027-0.204,4.136-0.428c0.132,0.66-0.183,1.457,2.761,1.259c-0.952-1.545-3.536-3.898,2.751-4.212
						c-4.886-0.038,2.93-1.394-1.382-1.259c-3.866,1.067-7.623-2.848-1.381-2.103c0.384-0.958-0.335-1.581-2.762-1.677
						c-4.193,2.102-5.545,3.977,0.007,5.048c-1.253,1.872-10.119,3.644-6.887,5.479C207.482,76.091,209.326,78.518,212.402,78.187z"
						/>
					<path fill-rule="evenodd" clip-rule="evenodd" fill="#F77705" d="M381.928,72.149c0,0.137-0.204,0.249-1.095,0.316
						c1.462-1.959-6.204-2.332-2.159-3.782c-3.421-0.057-7.599-0.067-7.801,0.853c5.045,0.869,5.74,2.869,11.057,3.584
						L381.928,72.149z"/>
					<path fill-rule="evenodd" clip-rule="evenodd" fill="#F77705" d="M317.22,76.347c-1.053-3.182,3.739-0.255,4.139-0.848
						c-2.398-2.291-0.672-3.153,1.37-5.47C317.294,70.718,312.391,75.251,317.22,76.347z"/>
					<path fill-rule="evenodd" clip-rule="evenodd" fill="#F77705" d="M380.664,73.308c-7.992,0.38-6.096,3.757-13.787,4.229
						c-6.359-3.342,3.035-5.519,2.748-7.578c-11.269,2.909-7.555,7.612,2.774,10.091c-5.28,1.903-9.148,4.235-12.403,6.75
						c10.584-0.433,6.727-5.247,15.161-6.333c0.002-1.402-4.488-1.429-4.141-2.936C373.953,76.037,380.083,75.515,380.664,73.308z"
						/>
					<path fill-rule="evenodd" clip-rule="evenodd" fill="#F77705" d="M335.159,80.526c-5.445-1.768,2.668-3.196-2.765-4.202
						c-0.215,0.495,0.238,1.193-1.376,1.266c-2.833-1.381,2.592-3.244,2.749-5.054c-5.286,0.253,1.133-1.731-4.14-2.096
						c-1.994,2.337,1.295,4.854-2.748,7.156C331.39,77.773,332.938,81.042,335.159,80.526z"/>
					<path fill-rule="evenodd" clip-rule="evenodd" fill="#F77705" d="M347.566,76.724c-1.514-1.641-4.718-2.763-6.902-4.197
						c2.658-0.782,1.089-0.772,5.516-0.43c0.236-1.055-3.089-1.017-4.14-1.675c-2.842,1.604-4.182,2.031-2.752,4.21
						C343.876,74.769,344.18,76.217,347.566,76.724z"/>
					<path fill-rule="evenodd" clip-rule="evenodd" fill="#F77705" d="M66.208,80.087c-1.442,1.106-4.375,1.757-6.893,2.536
						c-0.433-2.707-3.11-4.876,2.748-6.314c-3.897-0.342-3.572,0.597-6.894,0.43c2.131-0.62-1.927-2.693,4.133-2.951
						c-0.765-0.747-0.712-1.745-2.762-2.099c-2.904,1.082-2.167,3.268-4.132,4.634c10.453,1.525-3.351,11.095,6.914,10.505
						c-3.048-0.049-0.59-1.782-1.384-2.521C64.446,84.307,66.898,80.875,66.208,80.087z"/>
					<path fill-rule="evenodd" clip-rule="evenodd" fill="#F77705" d="M44.179,108.306c-1.864-3.882-4.521-6.018-0.013-8.834
						c-0.947,1.132,2.852,0.809,4.14,1.258c-4.412-2.847-1.886-6.566,1.369-8.418c12.057,0.821,3.34,4.761,4.147,7.986
						c5.814,0.042,6.979,1.508,11.038,2.086c-3.096-1.435-5.289-3.146-8.283-4.614c0.337-1.719,2.662-2.838,5.511-3.793
						c-4.423-0.609-8.727-1.252-9.66-2.931c3.483-0.146,2.438-3.283,1.374-4.21c-2.261,1.137-0.687,3.436-5.511,3.796
						c-2.237-1.562-6.941-2.362-8.283-4.195c1.833-0.424,5.133-0.405,5.517-1.27c-4.693-1.864,3.008-3.56,1.37-5.891
						c-2.373-0.164-3.536,0.628-4.138,0.006c-3.481-3.5,1.716-1.853-8.281-3.354c12.936,3.654,4.358,9.8,2.778,13.878
						c0.668-0.499,1.471-0.956,2.756-1.265c4.45,0.598,6.124,2.05,8.282,3.353c-11.817,3.828-6.036,14.048-12.387,17.267
						C41.49,109.731,40.266,108.239,44.179,108.306z"/>
					<path fill-rule="evenodd" clip-rule="evenodd" fill="#F77705" d="M136.559,87.975c-3.569-2.888-2.198-7.109,5.504-8.841
						c-2.078-1.324,0.894-5.737,5.512-3.795c-3.091-1.443-0.805-2.622-2.765-3.782c-1.627,1.117-1.191,1.308-5.516,0.849
						c-1.026,1.296,3.787,0.803,2.762,2.1c-9.635,4.086-7.695,11.682-16.527,16.011c2.417,0.802,2.927,2.188,4.143,3.358
						c-1.899,0.02-3.029-0.194-4.139-0.413c4.942,2.58-0.167,5.008,0.013,8.412c10.335-2.955-0.833-11.09,8.254-14.736
						C134.092,87.609,135.331,87.791,136.559,87.975z"/>
					<path fill-rule="evenodd" clip-rule="evenodd" fill="#F77705" d="M184.809,72.338c-5.552,1.51-4.846,5.532,1.391,6.73
						c0.012-1.119-0.524-2.402,1.373-2.947C177.996,76.494,189.196,71.485,184.809,72.338z"/>
					<path fill-rule="evenodd" clip-rule="evenodd" fill="#F77705" d="M68.955,74.194c-0.563,1.015,2.521,0.908,1.383,2.102
						c3.143-0.583,5.187,1.075,5.517-0.008c-3.781-0.366,2.689-1.872-2.759-0.837c-0.065-1.281,2.908-1.642,4.133-2.531
						C73.114,72.933,72.541,74.021,68.955,74.194z"/>
					<path fill-rule="evenodd" clip-rule="evenodd" fill="#F77705" d="M183.441,80.332c-11.034,0.993-12.068-6.952-19.321-7.122
						c8.195,5.099-8.499,9.689-13.771,13.482c10.651-2.097,15.441-5.968,17.914-10.543c1.162,1.524,6.813,2.52,1.387,3.783
						c9.206-0.298,8.922,2.315,15.174,2.923C184.029,82.116,186.488,80.383,183.441,80.332z"/>
					<path fill-rule="evenodd" clip-rule="evenodd" fill="#F77705" d="M117.257,92.21c-3.042-2.577-3.652-6.305,5.506-7.158
						c0.68-1.497-7.589-2.41-2.766-3.782c3.628-0.131,1.088,1.631,5.519,1.255c-2.06-1.894-7.313-2.81-9.662-4.613
						c1.391-1.387,2.383-1.234,5.516-0.431c-1.134-1.282-3.878-1.001-1.382-2.521c-4.427,0.376-2.86-1.086-5.519-1.255
						c-3.093,3.454,6.787,9.078-1.359,13.043c0.145-2.467-10.971-2.639-8.283-4.614c-1.899-0.017-3.029,0.202-4.137,0.428
						c-0.841,0.024-1.632,0.063-1.378,0.422c7.231,1.59,17.255,3.808,11.044,7.136C113.471,90.566,114.377,91.689,117.257,92.21z"/>
					<path fill-rule="evenodd" clip-rule="evenodd" fill="#F77705" d="M132.4,74.1c-0.292,0.471-1.53,0.657-2.757,0.845
						c-0.305-0.327-1.153-0.486-2.759-0.417c-0.131,0.662,0.186,1.458-2.756,1.266c-0.243,1.088,4.77,2.702,5.519,2.097
						c-0.588-0.801-3.941-0.757-2.761-2.101c2.808-0.848,3.673-0.115,5.518,0.414C130.612,75.163,135.478,74.158,132.4,74.1z"/>
					<path fill-rule="evenodd" clip-rule="evenodd" fill="#F77705" d="M79.998,79.103c-0.862,1-1.853,1.813-5.515,1.963
						c-0.874-1.415-3.962-2.226-2.766-4.277c-5.013-0.12-1.838,2.208-4.131,2.913c4.193,0.398,5.76,1.583,8.278,2.495
						c-3.82,1.783-4.625,4.474-4.128,7.569c-1.896,0.021-3.027-0.201-4.135-0.421c2.428,1.619-0.442,3.652-1.371,5.469
						c6.148,0.465-0.846-2.762,6.893-1.817c-2.743-3.342,4.08-5.436,2.744-8.963c1.38-0.002,2.759-0.004,4.139-0.006
						C76.07,81.21,84.881,80.509,79.998,79.103z"/>
					<path fill-rule="evenodd" clip-rule="evenodd" fill="#F77705" d="M362.74,77.543c-4.425,3.423-9.229,6.729-19.296,8.441
						c-1.945-1.203,4.275-2.303-1.383-2.102c-1.058,1.586,1.686,2.009,1.385,3.363c7.569,0.182,3.568-2.792,11.031-1.7
						c-1.787-1.301-1.332-3.008,4.133-2.108C356.357,80.639,367.525,79.709,362.74,77.543z"/>
					<path fill-rule="evenodd" clip-rule="evenodd" fill="#F77705" d="M266.194,78.528c-3.334,1.463-3.18,3.607,1.388,4.625
						C266.756,81.331,267.15,78.049,266.194,78.528z"/>
					<path fill-rule="evenodd" clip-rule="evenodd" fill="#F77705" d="M303.444,86.463c-7.516-2.631-8.148-6.072-4.151-8.407
						c-5.18,1.017-0.799,2.99-8.271,2.115c5.68,3.133,4.069,6.034,8.286,7.982C299.889,87.348,299.807,86.342,303.444,86.463z"/>
					<path fill-rule="evenodd" clip-rule="evenodd" fill="#F77705" d="M259.298,78.538c-8.431,1.32-18.465,5.662-11.022,8.008
						c3.162,0.497-2.183-5.104,5.514-2.532c0.999-1.289-2.382-1.233-1.385-2.523c2.228-1.353,3.793-1.983,8.275-0.854
						C261.245,79.622,258.159,79.729,259.298,78.538z"/>
					<path fill-rule="evenodd" clip-rule="evenodd" fill="#F77705" d="M222.073,89.952c-12.575,0.366,2.451-5.565-4.149-8.41
						c1.899-0.018,3.03,0.196,4.137,0.416c-1.793-1.041,4.045-1.752-0.003-2.104c-2.479,1.64-2.57-0.721-5.516-0.832
						c-3.916,1.003,4.918,7.045-4.131,5.895c6.712,1.814-6.631,6.477,6.907,7.14C218.139,90.718,220.518,90.46,222.073,89.952z"/>
					<path fill-rule="evenodd" clip-rule="evenodd" fill="#F77705" d="M24.848,93.19c-4.604-0.335-7.821-0.185-9.658-2.088
						c3.774-0.398,2.182-2.102,4.465-2.953c4.593,0.274,4.039,1.89,7.229,2.514c-0.001-0.701-0.002-1.403-0.003-2.103
						c-7.44,0.396-3.683-2.853-8.608-2.091c2.154-1.333-0.238-1.846-0.858-3.364c2.4-0.036,4.551,0.086,5.777,0.411
						c-1.259-0.734-0.345-2.099-2.629-2.521c-7.055,1.084-5.154,5.061-1.303,7.153c-3.994,0.75-2.648,3.111-9.619,2.961
						c-0.069,2.124,11.638,0.645,8.298,3.771C22.438,94.986,21.937,93.567,24.848,93.19z"/>
					<path fill-rule="evenodd" clip-rule="evenodd" fill="#F77705" d="M281.385,91.123c-6.439,0.405-5.725-3.423-5.524-4.618
						c-1.629,0.629-1.191,1.88-5.515,1.693c-3.461-2.364,1.39-4.968-0.01-6.312c-0.704,1.017-3,2.46-6.895,1.272
						c0.3,4.677,11.459,6.026,15.186,9.653C282.118,93.249,284.74,91.384,281.385,91.123z"/>
					<path fill-rule="evenodd" clip-rule="evenodd" fill="#F77705" d="M171.032,82.456c-0.328,0.6-2.271,0.712-2.757,1.266
						c6.795,0.019,6.95,2.076,9.66,3.349C183.823,84.722,174.61,84.011,171.032,82.456z"/>
					<path fill-rule="evenodd" clip-rule="evenodd" fill="#F77705" d="M242.766,91.181c-1.711,0.883-4.009,1.589-6.894,2.116
						c-2.796-1.266,2.145-5.665-5.521-5.04c4.312,3.578,0.792,10.548,9.67,10.5c-3.249-0.534-3.191-1.673-0.003-2.103
						c-1.612-0.63-3.987-1.022-4.144-2.098C239.668,95.541,243.358,92.236,242.766,91.181z"/>
					<path fill-rule="evenodd" clip-rule="evenodd" fill="#F77705" d="M164.137,84.569c-2.691,3.312-7.816,3.701-9.642,7.585
						c5.142-0.402,2.972-3.022,6.891-3.794c4.329-0.207,3.645,1.126,6.896,1.25c0.666-1.466-3.458-1.465-5.52-2.095
						C166.756,87.472,165.127,85.248,164.137,84.569z"/>
					<path fill-rule="evenodd" clip-rule="evenodd" fill="#F77705" d="M260.697,91.996c-3.038-0.331-5.508-0.836-5.521-2.093
						c1.943-0.834,7.122-2.86,4.134-3.793c-0.152,1.491-4.563-0.888-4.14,0.426c-4.292,5.497-9.72,11.834-15.141,18.533
						c-4.46,0.742-7.217,0.749-8.275,1.694c1.349,0.429,2.727,0.848,4.139,1.257c2.075-0.913,1.535-2.62,5.513-2.953
						c4.695-1.265,5.141,1.197,6.898,0.411c-1.741-0.753-6.927-2.614-2.765-3.783c3.506-0.325,2.319,2.872,5.519,1.256
						c-6.879-2.043-2.323-3.856-0.01-6.732c4.227,0.386,3.393,2.326,6.902,2.935c0.926-2.562-7.65-3.184-1.388-5.045
						c-3.898-0.343-3.571,0.596-6.895,0.429c2.366-0.684,3.422-1.763,2.752-3.369C255.541,91.094,258.488,93.181,260.697,91.996z"/>
					<path fill-rule="evenodd" clip-rule="evenodd" fill="#F77705" d="M194.485,87.047c-0.939,0.836-4.2,0.971-5.515,1.691
						c0.308-0.795-1.554-0.926-1.381-1.681c-3.142,0.582-5.186-1.076-5.517,0.008c3.767,0.528,5.5,1.681,8.278,2.512
						C189.405,88.276,198.79,87.977,194.485,87.047z"/>
					<path fill-rule="evenodd" clip-rule="evenodd" fill="#F77705" d="M66.221,89.341c0.274-1.344-2.315-1.816-5.522-2.094
						C62.236,88.038,62.64,89.179,66.221,89.341z"/>
					<path fill-rule="evenodd" clip-rule="evenodd" fill="#F77705" d="M369.666,97.722c-7.856-3.748,3.481-6.71,4.123-10.943
						C366.48,89.674,358.221,95.523,369.666,97.722z"/>
					<path fill-rule="evenodd" clip-rule="evenodd" fill="#F77705" d="M288.277,88.59c3.789,2.382-12.515,5.622-2.748,8.418
						c-1.132-1.121,8.172-0.344,4.136-1.689c-9.598-1.25,4.779-4.909,5.505-8.001C290.457,87.009,293.421,89.029,288.277,88.59z"/>
					<path fill-rule="evenodd" clip-rule="evenodd" fill="#F77705" d="M362.778,103.624c0.931-1.004,2.726-3.907,1.373-4.21
						c-0.291,0.473-1.53,0.656-2.756,0.848c-0.611-0.937,4.256-2.29,1.375-2.529c-5.647,2.494-2.025,7.796-12.399,8.854
						c1.372-2.104-4.288-2.051-4.145-3.778c4.805-1.076-1.641-5.19,8.271-4.222c-0.074-1.83,2.066-1.935-1.385-2.94
						c7.91,0.016,3.12-3.819,11.028-3.804c-2.44-1.636-3.385-3.732-8.284-4.614c-1.827,2.663,7.354,1.955,5.526,4.618
						c-4.941,0.027-12.949,4.176-11.024,6.327c-9.639,0.862-4.83,6.104-15.163,6.753c-0.122,1.859,2.003,3.034,5.522,3.779
						c-2.055-2.167,3.287-2.087,4.133-3.372c-3.827-0.414-3.898,2.396-6.894,0.853c1.983-1.107,4.47-1.759,4.133-2.531
						c12.201,0.946,8.046,8.367-2.747,7.576c-0.232,1.053,2.118,1.313,4.142,1.675c0.201-1.62,3.092-2.425,6.892-2.956
						c-2.207,3.587-1.216,6.384-0.746,8.882c1.13-0.236,2.237-0.481,3.325-0.737c0.608-3.233,0.11-5.842-1.205-9.827
						c7.643,0.542,1.433-3.974,9.649-4.223c6.093,2.323,7.441,4.791,6.907,7.562c-2.66,0.595-8.441,0.241-6.893,2.114
						c7.25,0.519,3.998-2.15,9.651-2.118c-0.53-1.905-1.726-3.104,2.753-4.211C366.58,107.227,368.197,104.345,362.778,103.624z"/>
					<path fill-rule="evenodd" clip-rule="evenodd" fill="#F77705" d="M197.245,88.307c3.457,5.839-0.085,6.62,8.294,10.502
						C204.568,95.783,201.009,90.849,197.245,88.307z"/>
					<path fill-rule="evenodd" clip-rule="evenodd" fill="#F77705" d="M187.615,104.304c-3.049-2.586-1.393-3.593-2.767-5.464
						c2.862-1.417,4.705,1.01,5.517-0.008c-7.729-2.147-6.664-5.748-4.15-9.669c-5.686,1.905-7.086,6.968-1.367,8.836
						C181.037,99.331,180.621,103.852,187.615,104.304z"/>
					<path fill-rule="evenodd" clip-rule="evenodd" fill="#F77705" d="M92.434,94.942c1.839-0.002,3.678-0.005,5.517-0.008
						c0.217,0.707-0.236,0.896,1.381,0.965c3.375-0.997-2.061-0.929-1.383-2.25c-2.004-0.228-7.128,0.429-6.898-0.484
						c-0.289-0.802,4.755-2.154,1.375-3.404c0.957,1.69-5.808,1.023-5.513,2.515c0.407,0.856,3.733,0.809,4.138,1.667
						c-8.799,1.34-7.89,6.323-2.744,8.834c-1.638,1.323-4.65,2.228-5.511,3.79c6.082-0.603,0.027,2.518,4.142,2.518
						c3.715-2.02-4.102-5.355,5.508-5.897c-4.653-2.031-3.638-3.264-6.906-6.005C91.234,98.118,87.349,96.01,92.434,94.942z"/>
					<path fill-rule="evenodd" clip-rule="evenodd" fill="#F77705" d="M260.716,104.616c1.385,0.558,1.305,1.563,4.14,1.679
						c-1.829-1.509-1.417-2.001,1.376-2.108c-8.796-3.744,0.873-7.228,5.5-10.944c-8.109-0.238,5.704-4.075-4.141-3.781
						c0.831,6.139-10.547,8.575-8.254,15.156c-3.636,0.127-2.914,2.488-6.896,1.273c0.519,1.804,3.711,2.789,4.145,4.62
						c-3.399,1.199-7.117,4.112-11.028,3.804c6.224,1.458,5.639,5.003,12.424,6.291c-1.752-2.408-4.741-4.439-8.285-6.297
						c9.027,0.256,1.052-2.146,6.891-2.536c1.387,0.558,1.306,1.563,4.141,1.676C261.913,110.814,253.158,107.666,260.716,104.616z"
						/>
					<path fill-rule="evenodd" clip-rule="evenodd" fill="#F77705" d="M297.938,93.624c0.541,1.097,0.713,2.306,2.762,2.94
						c1.047-2.067,4.478-3.408,5.512-5.479c-4.319-0.076-5.642-1.073-8.28-1.669C300.663,90.982,307.264,93.995,297.938,93.624z"/>
					<path fill-rule="evenodd" clip-rule="evenodd" fill="#F77705" d="M265.764-0.563l-2.969,0.005
						c0.826-0.001,2.108,0.496,3.281,0.706C266.062-0.116,265.944-0.563,265.764-0.563z"/>
					<path fill-rule="evenodd" clip-rule="evenodd" fill="#F77705" d="M253.667,2.337c1.053-1.107,1.569-2.179,3.418-2.887
						l-3.638,0.005c-2.388,0.356-4.875,0.738-5.299,1.804C252.58,0.883,250.039,2.467,253.667,2.337z"/>
				</g>
			</g>
			
				<linearGradient id="SVGID_5_" gradientUnits="userSpaceOnUse" x1="190.9844" y1="115.4595" x2="190.9844" y2="8.9619" gradientTransform="matrix(1 -0.0015 0.0015 1 -1.6394 1.8562)">
				<stop  offset="0.0421" style="stop-color:#C72800;stop-opacity:0.3"/>
				<stop  offset="0.5158" style="stop-color:#C72800;stop-opacity:0"/>
				<stop  offset="0.8474" style="stop-color:#C72800;stop-opacity:0"/>
				<stop  offset="1" style="stop-color:#C72800;stop-opacity:0.2"/>
			</linearGradient>
			<path fill="url(#SVGID_5_)" d="M369.35,102.266c0.012,8.004-7.192,14.504-16.089,14.518l-327.484,0.488
				c-8.898,0.014-16.121-6.465-16.133-14.469L9.528,25.295c-0.012-8.004,7.191-14.504,16.09-14.518l327.484-0.488
				c8.897-0.014,16.121,6.465,16.132,14.469L369.35,102.266z"/>
			<g>
				<path fill="none" stroke="#EFC1AB" stroke-width="2.5" stroke-linecap="round" stroke-miterlimit="10" stroke-dasharray="7" d="
					M370.581,103.265c0.012,8.005-7.192,14.504-16.089,14.518l-327.484,0.488c-8.898,0.014-16.121-6.464-16.133-14.469
					l-0.116-77.507c-0.012-8.004,7.192-14.505,16.089-14.518l327.484-0.489c8.897-0.014,16.12,6.466,16.132,14.47L370.581,103.265z"
					/>
				<path fill="none" stroke="#ED5F07" stroke-width="2.5" stroke-linecap="round" stroke-miterlimit="10" stroke-dasharray="7" d="
					M369.35,102.266c0.012,8.004-7.192,14.504-16.089,14.518l-327.484,0.488c-8.898,0.014-16.121-6.465-16.133-14.469L9.528,25.295
					c-0.012-8.004,7.191-14.504,16.09-14.518l327.484-0.488c8.897-0.014,16.121,6.465,16.132,14.469L369.35,102.266z"/>
			</g>
		</g>
	</g>
</g>
<g id="日期">
</g>
<g id="表格">
</g>
<g id="UI">
</g>
</svg>
