<?xml version="1.0" encoding="utf-8"?>
<!-- Generator: Adobe Illustrator 16.0.3, SVG Export Plug-In . SVG Version: 6.00 Build 0)  -->
<!DOCTYPE svg PUBLIC "-//W3C//DTD SVG 1.1//EN" "http://www.w3.org/Graphics/SVG/1.1/DTD/svg11.dtd">
<svg version="1.1" xmlns="http://www.w3.org/2000/svg" xmlns:xlink="http://www.w3.org/1999/xlink" x="0px" y="0px"
	 width="370.666px" height="89.667px" viewBox="0 0 370.666 89.667" enable-background="new 0 0 370.666 89.667"
	 xml:space="preserve">
<g id="圖層_1" display="none">
</g>
<g id="BG">
	<g>
		<defs>
			<rect id="SVGID_19_" width="370.666" height="89.667"/>
		</defs>
		<clipPath id="SVGID_2_">
			<use xlink:href="#SVGID_19_"  overflow="visible"/>
		</clipPath>
		<g clip-path="url(#SVGID_2_)">
			<g>
				<path fill="#B05302" d="M370.192,104.148c0,8.285-7.218,15-16.124,15H20.302c-8.906,0-16.124-6.715-16.124-15V15.654
					c0-8.283,7.218-15,16.124-15h333.767c8.906,0,16.124,6.717,16.124,15V104.148z"/>
				<path fill="#FF983D" d="M366.197,103.854c0,8.284-7.22,15-16.125,15H16.306c-8.904,0-16.125-6.716-16.125-15V15.36
					c0-8.284,7.221-15,16.125-15h333.767c8.905,0,16.125,6.716,16.125,15V103.854z"/>
				<g>
					<defs>
						<path id="SVGID_21_" d="M366.197,103.854c0,8.284-7.22,15-16.125,15H16.306c-8.904,0-16.125-6.716-16.125-15V15.36
							c0-8.284,7.221-15,16.125-15h333.767c8.905,0,16.125,6.716,16.125,15V103.854z"/>
					</defs>
					<clipPath id="SVGID_3_">
						<use xlink:href="#SVGID_21_"  overflow="visible"/>
					</clipPath>
					<g opacity="0.5" clip-path="url(#SVGID_3_)">
						<path fill-rule="evenodd" clip-rule="evenodd" fill="#F77705" d="M123.773-0.623h-4.012c-0.604,0.706-0.864,1.551-1.082,2.394
							C121.063,1.191,122.523,0.083,123.773-0.623z"/>
						<path fill-rule="evenodd" clip-rule="evenodd" fill="#F77705" d="M286.738,1.849c-2.273-1.061,0.153-1.766,1.071-2.472h-3.738
							c-1.689,0.353-3.399,1.058-2.668,2.472C283.182,1.849,284.961,1.849,286.738,1.849z"/>
						<path fill-rule="evenodd" clip-rule="evenodd" fill="#F77705" d="M85.333,4.009c-1.604-2.741-3.742-2.725-6.669-5.049
							C76.823,0.347,80.381,4.871,85.333,4.009z"/>
						<path fill-rule="evenodd" clip-rule="evenodd" fill="#F77705" d="M162.693,3.168c-2.055-1.14,2.209-2.601-4.003-2.944
							C155.249,1.435,158.575,3.059,162.693,3.168z"/>
						<path fill-rule="evenodd" clip-rule="evenodd" fill="#F77705" d="M296.076,2.326c-1.975-0.217-3.363-0.622-5.338-0.842
							c0.208,1.049-2.094,1.305-2.667,2.105C292.579,3.75,293.763,2.859,296.076,2.326z"/>
						<path fill-rule="evenodd" clip-rule="evenodd" fill="#F77705" d="M172.03,6.534c-0.384-2.062,2.154-3.124,0-4.627
							C171.112,3.363,163.667,5.806,172.03,6.534z"/>
						<path fill-rule="evenodd" clip-rule="evenodd" fill="#F77705" d="M316.895,3.589c0-0.561,0-1.121,0-1.683
							c-5.141-0.358-7.1,2.78-4.003,3.786C314.427,4.947,312.781,2.404,316.895,3.589z"/>
						<path fill-rule="evenodd" clip-rule="evenodd" fill="#F77705" d="M41.317,2.326c-1,1.369-2.416,2.604-4.003,3.787
							c2.659,0.425,4.674,1.051,6.671,1.683C40.177,5.986,43.703,4.1,41.317,2.326z"/>
						<path fill-rule="evenodd" clip-rule="evenodd" fill="#F77705" d="M162.693,8.216c-0.95-1.048,5.872-1.729,1.336-2.523
							C163.782,6.796,156.285,7.443,162.693,8.216z"/>
						<path fill-rule="evenodd" clip-rule="evenodd" fill="#F77705" d="M170.697,12.423c-0.896-1.961-3.904-3.256-5.336-5.047
							C161.555,9.331,166.481,11.649,170.697,12.423z"/>
						<path fill-rule="evenodd" clip-rule="evenodd" fill="#F77705" d="M262.729,12.003c1.657,0.879,3.878,1.581,6.67,2.104
							c-5.162-2.236-2.669-3.977,2.667-6.73C264.498,7.513,265.667,10.406,262.729,12.003z"/>
						<path fill-rule="evenodd" clip-rule="evenodd" fill="#F77705" d="M306.612,9.9c0-0.563,0-0.291,0-0.996
							c-2.055,0-1.2,0-2.533,0C303.703,9.961,302.5,10.025,306.612,9.9z"/>
						<path fill-rule="evenodd" clip-rule="evenodd" fill="#F77705" d="M113.344,9.057c-0.998,0.974-5.313,1.959,1.334,2.103
							C113.948,10.55,116.235,8.987,113.344,9.057z"/>
						<path fill-rule="evenodd" clip-rule="evenodd" fill="#F77705" d="M148.021,10.742c2.541,0.18,3.353,0.904,6.671,0.841
							c-1.481-1.321-0.625-1.112,1.334-2.104c-1.803-0.131-2.548-0.598-5.336-0.421C151.661,10.206,148.039,9.906,148.021,10.742z"
							/>
						<path fill-rule="evenodd" clip-rule="evenodd" fill="#F77705" d="M29.313,9.9c-1.979,1.338-2.766,3.055-5.336,4.207
							c1.995,0.771,5.568,1.048,6.67,2.103c-0.572,3.84,1.514,2.519,2.666,0C27.326,14.386,31.695,12.179,29.313,9.9z"/>
						<path fill-rule="evenodd" clip-rule="evenodd" fill="#F77705" d="M350.761,12.003c0.072-0.725-1.027-1.078-2.667-1.262
							c9.78,4.898-7.385,8.098-6.669,13.882c2.17,0.196,4.167,2.558,6.669,1.261c-5.957-2.706,0.555-9.426,6.669-7.992
							c-4.78-2.449,4.128-4.313,0-6.31C354.537,12.071,352.656,12.039,350.761,12.003z"/>
						<path fill-rule="evenodd" clip-rule="evenodd" fill="#F77705" d="M70.662,15.789c0.598-0.217-1.401-3.184-2.668-4.206
							C65.748,12.597,65.819,15.693,70.662,15.789z"/>
						<path fill-rule="evenodd" clip-rule="evenodd" fill="#F77705" d="M162.693,11.583c-2.998,1.035-3.626,3.224,2.668,3.365
							C162.547,13.502,167.023,12.374,162.693,11.583z"/>
						<path fill-rule="evenodd" clip-rule="evenodd" fill="#F77705" d="M260.063,12.423c-0.955,0.447-5.208,1.938-1.333,2.524
							C258.431,14.103,264.679,13.243,260.063,12.423z"/>
						<path fill-rule="evenodd" clip-rule="evenodd" fill="#F77705" d="M136.018,13.684c-1.695,1.008-4.87,1.55-4.001,3.368
							C135.984,17.015,138.536,14.372,136.018,13.684z"/>
						<path fill-rule="evenodd" clip-rule="evenodd" fill="#F77705" d="M181.366,17.471c-0.071,0.539-1.707,0.583-1.33,1.263
							c0.072,0.256,0.197,0.498,1.33,0.42c1.162-0.636,1.997,0.117,5.336-0.42c-0.449,1.428,3.696,3.568,6.669,2.523
							c-4.407-0.631,2.773-1.029,1.335-2.104c-2.522-0.094-2.943,0.475-5.336,0.42c-3.708-1.576-0.161-2.959-4.003-4.626
							C182.569,16.083,186.774,19.402,181.366,17.471z"/>
						<path fill-rule="evenodd" clip-rule="evenodd" fill="#F77705" d="M106.673,18.734c1.594-1.818-4.369-2.359-1.332-3.365
							C97.186,15.584,105.073,17.853,106.673,18.734z"/>
						<path fill-rule="evenodd" clip-rule="evenodd" fill="#F77705" d="M117.345,18.312c1.337-1.298,2.198,0.914,4,0.842
							c-0.728-0.61,1.559-2.174-1.332-2.102c-1.563,1.251-1.657-1.382-4.002-1.264C116.778,16.527,114.399,18.259,117.345,18.312z"
							/>
						<path fill-rule="evenodd" clip-rule="evenodd" fill="#F77705" d="M234.72,16.63c1.555,0.07,1.448,0.665,1.334,1.262
							c4.133,0.162,5.428-2.025,1.334-2.104C237.371,16.343,235.05,16.173,234.72,16.63z"/>
						<path fill-rule="evenodd" clip-rule="evenodd" fill="#F77705" d="M98.67,16.63c0.006,1.123-4.214,0.913-4.001,2.104
							c0.748,0.605,2.082,1.025,4.001,1.262C96.928,18.564,101.643,17.058,98.67,16.63z"/>
						<path fill-rule="evenodd" clip-rule="evenodd" fill="#F77705" d="M106.673,20.836c3.095-0.133,5.122,0.067,6.671,0.421
							c-1.994-1.573,1.409-2.409-2.669-2.945C108.746,18.966,107.87,19.951,106.673,20.836z"/>
						<path fill-rule="evenodd" clip-rule="evenodd" fill="#F77705" d="M125.347,19.154c-1.948,0.922-1.255,3.824,4.002,3.787
							C126.249,22.234,127.613,20.123,125.347,19.154z"/>
						<path fill-rule="evenodd" clip-rule="evenodd" fill="#F77705" d="M63.993,19.996c-0.151,1.494-4.934,1.529-4.003,3.364
							C63.958,23.326,66.508,20.681,63.993,19.996z"/>
						<path fill-rule="evenodd" clip-rule="evenodd" fill="#F77705" d="M145.355,21.603c-2.98,1.41-5.907,4.828,2.665,3.365
							c-5.92-0.639,0.53-2.308,1.336-3.365C148.021,21.603,146.688,21.603,145.355,21.603z"/>
						<path fill-rule="evenodd" clip-rule="evenodd" fill="#F77705" d="M185.367,21.257c-4.622,1.797-4.622,4.801,0,6.73
							C183.078,25.457,189.047,21.469,185.367,21.257z"/>
						<path fill-rule="evenodd" clip-rule="evenodd" fill="#F77705" d="M285.403,22.519c0.368,1.657-5.7,1.288-5.334,2.945
							c2.217,0.843,3.582,1.955,8.002,2.104C280.065,25.695,290.473,23.814,285.403,22.519z"/>
						<path fill-rule="evenodd" clip-rule="evenodd" fill="#F77705" d="M110.675,25.464c1.997-0.072,4.923,0.15,5.336-0.422
							c-3.317-0.063-0.392-1.425,0-1.683C111.815,23.298,111.427,24.439,110.675,25.464z"/>
						<path fill-rule="evenodd" clip-rule="evenodd" fill="#F77705" d="M296.076,24.201c-0.08,1.849,0.535,3.479,2.667,4.629
							c1.346-1.061,2.305,1.469,5.336,1.262C300.792,28.324,301.613,25.259,296.076,24.201z"/>
						<path fill-rule="evenodd" clip-rule="evenodd" fill="#F77705" d="M21.311,24.624c-0.376,1.099,0.487,1.809,4.001,1.683
							C25.688,25.207,24.825,24.496,21.311,24.624z"/>
						<path fill-rule="evenodd" clip-rule="evenodd" fill="#F77705" d="M70.662,24.624c-1.186,0.747-3.726,1.068-2.668,2.523
							c3.017-0.071,5.865,2.021,8.002,0.841C71.608,27.69,72.918,25.592,70.662,24.624z"/>
						<path fill-rule="evenodd" clip-rule="evenodd" fill="#F77705" d="M258.729,32.615c-4.305-1.881-1.054-5.387-1.335-7.15
							c-8.534,1.675,0.845,6.416-5.335,8.835C257.808,34.849,253.712,32.294,258.729,32.615z"/>
						<path fill-rule="evenodd" clip-rule="evenodd" fill="#F77705" d="M1.305,28.408c2.193-0.652,0.568-1.963-1.335-2.523
							c-0.225,0.49-2.108,0.458-4.003,0.422C-4.378,27.677-2.449,28.33,1.305,28.408z"/>
						<path fill-rule="evenodd" clip-rule="evenodd" fill="#F77705" d="M18.642,26.306c0.043,2.299-11.962,4.473-2.666,5.889
							C13.16,29.946,24.698,27.775,18.642,26.306z"/>
						<path fill-rule="evenodd" clip-rule="evenodd" fill="#F77705" d="M142.688,27.147c0.553,2.207,1.728,4.222,5.332,5.468
							c-0.815-2.309-4.304-4.186,0-5.889C145.5,26.632,145.081,27.201,142.688,27.147z"/>
						<path fill-rule="evenodd" clip-rule="evenodd" fill="#F77705" d="M232.055,28.408c-1.324,1.268-4.722,1.879-4.005,3.787
							c2.324-0.033,4.149,0.094,5.334,0.42C228.759,30.783,235.145,30.176,232.055,28.408z"/>
						<path fill-rule="evenodd" clip-rule="evenodd" fill="#F77705" d="M210.711,31.773c-2.22-0.7,0.847-3.07-4.002-2.943
							C206.761,30.214,206.163,31.806,210.711,31.773z"/>
						<path fill-rule="evenodd" clip-rule="evenodd" fill="#F77705" d="M22.643,33.457c1.16,0.615,1.998,1.334,5.337,1.262
							c-4.483-2.215,0.493-2.232,2.668-4.206C25.729,30.785,23.65,31.952,22.643,33.457z"/>
						<path fill-rule="evenodd" clip-rule="evenodd" fill="#F77705" d="M31.979,46.917c-0.339-2.457-7.133-3.293-1.332-5.468
							c-7.244-1.081-6.918-4.549-9.337-7.15c-1.509,1.347-2.715,2.789-2.669,4.625C31.162,39.822,21.143,45.358,31.979,46.917z"/>
						<path fill-rule="evenodd" clip-rule="evenodd" fill="#F77705" d="M248.058,35.138c3.788,0.209,1.92,2.199,8.003,1.686
							c-2.288-1.076,1.529-1.474-1.334-2.105C252.731,36.118,249.159,33.055,248.058,35.138z"/>
						<path fill-rule="evenodd" clip-rule="evenodd" fill="#F77705" d="M75.996,38.924c5.719-0.441,4.341-3.003,4.001-4.206
							C78.522,36.259,73.472,37.32,75.996,38.924z"/>
						<path fill-rule="evenodd" clip-rule="evenodd" fill="#F77705" d="M125.347,38.924c-0.166-1.487-2.188-2.394-4.002-3.364
							c-0.644,0.75-1.421-0.182-2.665-0.422C118.604,37.125,120.886,38.369,125.347,38.924z"/>
						<path fill-rule="evenodd" clip-rule="evenodd" fill="#F77705" d="M65.327,37.664c3.514,0.125,4.376-0.582,3.998-1.684
							C65.814,35.854,64.95,36.564,65.327,37.664z"/>
						<path fill-rule="evenodd" clip-rule="evenodd" fill="#F77705" d="M326.754,39.816c2.579,1.711-0.796,5.064,4,6.074
							c-1.748-2.682,4.105-0.477,4.002-2.64c-3.765-0.424-3.343-0.206-5.337-0.431c1.127-1.889,3.982-2.873,5.337-4.637
							c-1.334,0-2.667,0-4.002,0C329.22,38.888,330.489,41.001,326.754,39.816z"/>
						<path fill-rule="evenodd" clip-rule="evenodd" fill="#F77705" d="M257.395,42.711c3.037-2.012-1.86-3.834-5.335-5.048
							C255.885,39.575,251.167,42.126,257.395,42.711z"/>
						<path fill-rule="evenodd" clip-rule="evenodd" fill="#F77705" d="M129.349,38.503c-0.901,0.979-4.432,1.126-5.335,2.104
							c5.156,0.059,5.26,1.706,9.338,2.104C131.894,40.878,128.925,39.915,129.349,38.503z"/>
						<path fill-rule="evenodd" clip-rule="evenodd" fill="#F77705" d="M354.763,43.552c-3.654-1.608,2.475-3.768-2.668-4.628
							c-1.557,1.255,0.94,2.88-2.667,4.208C351.229,43.263,351.974,43.73,354.763,43.552z"/>
						<path fill-rule="evenodd" clip-rule="evenodd" fill="#F77705" d="M81.331,42.711c-0.457-1.538-0.139-3.321-5.335-3.364
							C77.03,40.702,78.786,41.832,81.331,42.711z"/>
						<path fill-rule="evenodd" clip-rule="evenodd" fill="#F77705" d="M112.009,44.394c4.18,0.924,5.298,2.816,12.005,2.944
							c-0.638-2.836-8.391-0.931-6.669-4.627c0.145-0.663,7.953-1.933,1.335-2.104C118.149,42.405,112.774,42.672,112.009,44.394z"
							/>
						<path fill-rule="evenodd" clip-rule="evenodd" fill="#F77705" d="M15.976,41.45c1.015,1.501-4.134,2.89,1.332,3.365
							C16.496,43.808,18.982,41.762,15.976,41.45z"/>
						<path fill-rule="evenodd" clip-rule="evenodd" fill="#F77705" d="M345.427,59.117c-2.061-1.643-4.285-2.842-8.002-2.945
							c5.874,0.066,0.378-1.188,0-1.681c5.63-1.028,3.535-2.367,4-4.627c1.576,0.06,3.024,0.747,4.002,0
							c-2.477-1.3-3.722-3.317,1.333-3.787c-2.892,0.07-0.604-1.492-1.333-2.104c-3.339-0.071-4.175,0.646-5.335,1.264
							C347.233,49.076,322.97,57.429,345.427,59.117z"/>
						<path fill-rule="evenodd" clip-rule="evenodd" fill="#F77705" d="M322.751,44.394c-0.281,0.473-1.48,0.654-2.666,0.842
							c2.499,2.718,10.114,3.82,14.671,5.889c4.453-1.527-3.92-1.561-4.002-2.945c2.004-0.629,3.991-1.264,5.335-2.103
							c-4.954-0.161-3.486,1.705-9.335,1.262C326.701,45.953,327.298,44.362,322.751,44.394z"/>
						<path fill-rule="evenodd" clip-rule="evenodd" fill="#F77705" d="M366.768,48.179c-6.946,0.229-1.68-3.396-8.003-3.364
							c1.757,1.268,0.133,3.604,2.668,4.626C362.334,48.974,365.865,49.525,366.768,48.179z"/>
						<path fill-rule="evenodd" clip-rule="evenodd" fill="#F77705" d="M33.313,52.388c3.628-2.182,3.991-5.174,2.667-7.152
							C31.894,47.262,33.74,50.787,33.313,52.388z"/>
						<path fill-rule="evenodd" clip-rule="evenodd" fill="#F77705" d="M170.697,45.656c0.977,1.234,5.021,1.501,8.003,2.104
							c-0.675-1.05-2.521-1.729-4.001-2.523C174.474,45.725,172.591,45.693,170.697,45.656z"/>
						<path fill-rule="evenodd" clip-rule="evenodd" fill="#F77705" d="M184.033,49.441c0.661-1.078,4.441-3.334,1.334-4.205
							C183.434,46.087,178.589,48.853,184.033,49.441z"/>
						<path fill-rule="evenodd" clip-rule="evenodd" fill="#F77705" d="M250.728,48.179c-0.241-1.436-5.068-2.818-8.006-2.103
							C242.514,47.685,248.17,47.443,250.728,48.179z"/>
						<path fill-rule="evenodd" clip-rule="evenodd" fill="#F77705" d="M346.76,46.917c-0.228,1.053,2.049,1.316,4.001,1.683
							c-1.459-1.602,3.53-2.626-1.333-2.944C349.302,46.316,349.604,47.115,346.76,46.917z"/>
						<path fill-rule="evenodd" clip-rule="evenodd" fill="#F77705" d="M113.344,46.917c0.321,1.723,3.749,2.463,5.336,3.786
							C117.764,49.169,118.969,46.966,113.344,46.917z"/>
						<path fill-rule="evenodd" clip-rule="evenodd" fill="#F77705" d="M204.042,47.338c-3.494,2.252,3.932,3.491,9.337,4.208
							C209.729,50.314,209.06,48.139,204.042,47.338z"/>
						<path fill-rule="evenodd" clip-rule="evenodd" fill="#F77705" d="M190.703,50.704c3.224,0.001,8.526-1.473,5.336-2.104
							C195.8,49.787,189.699,49.125,190.703,50.704z"/>
						<path fill-rule="evenodd" clip-rule="evenodd" fill="#F77705" d="M329.419,56.171c-6.739-2.313-4.311-3.715-4.001-7.15
							c-1.703-0.023-1.846-0.539-4-0.421c-1.36,0.991,2.118,4.851-2.667,5.891c5.429-0.171,5.259,1.426,8.003,2.103
							c-4.68-0.326-3.11,3.469-1.336,3.787C327.939,59.351,325.466,56.75,329.419,56.171z"/>
						<path fill-rule="evenodd" clip-rule="evenodd" fill="#F77705" d="M164.029,57.855c-2.517-3.227,0.846-5.765-4.003-7.991
							c-3.69,6.38,5.02,9.8,9.337,14.724C171.246,61.466,172.192,59.457,164.029,57.855z"/>
						<path fill-rule="evenodd" clip-rule="evenodd" fill="#F77705" d="M23.978,54.736c-1.396-2.402,4.643-2.443,5.336-4.205
							c-1.334,0-2.669,0-4.002,0C24.918,52.646,18.808,52.884,23.978,54.736z"/>
						<path fill-rule="evenodd" clip-rule="evenodd" fill="#F77705" d="M61.324,50.283c-1.998,0.123,0.823,2.225,2.669,2.524
							C63.185,51.941,66.145,49.884,61.324,50.283z"/>
						<path fill-rule="evenodd" clip-rule="evenodd" fill="#F77705" d="M75.996,50.704c-5.012,0.864,2.226,3.298,0,5.89
							C80.383,55.647,79.064,51.349,75.996,50.704z"/>
						<path fill-rule="evenodd" clip-rule="evenodd" fill="#F77705" d="M140.019,54.912c0.015-2.107-4.254-2.865-8.002-3.787
							C132.142,53.189,137.537,53.589,140.019,54.912z"/>
						<path fill-rule="evenodd" clip-rule="evenodd" fill="#F77705" d="M42.65,57.855c-1.058-2.471-3.483-4.51-8.001-5.889
							C35.567,54.481,38.556,56.343,42.65,57.855z"/>
						<path fill-rule="evenodd" clip-rule="evenodd" fill="#F77705" d="M19.977,55.752c1.044-0.292,2.968-2.348,0-2.523
							C18.87,54.021,15.054,55.414,19.977,55.752z"/>
						<path fill-rule="evenodd" clip-rule="evenodd" fill="#F77705" d="M169.363,53.229c0.423,1.688,0.932,3.351,4.003,4.206
							C175.506,56.348,172.612,53.943,169.363,53.229z"/>
						<path fill-rule="evenodd" clip-rule="evenodd" fill="#F77705" d="M130.683,57.435c-0.842-1.416,4.383-3.068,1.334-3.787
							C129.977,54.382,124.803,56.769,130.683,57.435z"/>
						<path fill-rule="evenodd" clip-rule="evenodd" fill="#F77705" d="M30.647,61.22c-4.627-3.241,7.28-4.99,2.666-7.15
							C30.927,56.316,19.886,59.672,30.647,61.22z"/>
						<path fill-rule="evenodd" clip-rule="evenodd" fill="#F77705" d="M84,54.491c-6.033,2.83-5.848,9.165,3.999,10.515
							c-3.042-1.737,2.323-2.09,0-2.943c-0.223,0.49-2.106,0.456-3.999,0.42C77.911,59.998,87.492,57.066,84,54.491z"/>
						<path fill-rule="evenodd" clip-rule="evenodd" fill="#F77705" d="M363.156,54.912c0,0.419,0,0.841,0,1.26
							c-5.138-0.76-9.495,3.381-4.195,4.629c0.671-1.549,2.535-3.771,7.883-3.79c0.184,0.013,0.692,0.306,0.96,0.291
							c-0.221-0.007-0.127,0.284-0.332,0.284c0.007,0,0.012,0,0.018,0C365.156,57.232,366.241,54.736,363.156,54.912z"/>
						<path fill-rule="evenodd" clip-rule="evenodd" fill="#F77705" d="M241.389,55.331c-0.966,2.419-17.454,5.522-8.005,7.151
							C231.575,59.071,246.696,57.113,241.389,55.331z"/>
						<path fill-rule="evenodd" clip-rule="evenodd" fill="#F77705" d="M294.743,60.8c-2.184-2.291,2.184-5.219-4.005-5.47
							C292.108,57.937,286.142,60.359,294.743,60.8z"/>
						<path fill-rule="evenodd" clip-rule="evenodd" fill="#F77705" d="M193.371,57.435c-4.052,2.074-2.847,5.785,1.335,7.57
							C195.028,61.561,195.593,59.665,193.371,57.435z"/>
						<path fill-rule="evenodd" clip-rule="evenodd" fill="#F77705" d="M106.673,60.8c4.309,0.208,7.184-2.184,4.002-2.945
							C110.545,59.218,104.63,58.753,106.673,60.8z"/>
						<path fill-rule="evenodd" clip-rule="evenodd" fill="#F77705" d="M129.349,60.814c-0.438-0.982-1.603-1.818-2.667-2.523
							c-1.335,0-2.668,0-4.002,0C123.773,59.348,125.69,60.427,129.349,60.814z"/>
						<path fill-rule="evenodd" clip-rule="evenodd" fill="#F77705" d="M173.366,59.117c-2.514,0.917-0.52,2.961,2.667,3.365
							C174.084,61.695,175.979,59.695,173.366,59.117z"/>
						<path fill-rule="evenodd" clip-rule="evenodd" fill="#F77705" d="M202.709,59.958c3.098,0.285,3.57,1.398,6.669,1.683
							c-0.146-1.047-2.499-1.302,0-2.103C207.439,59.769,202.483,59.046,202.709,59.958z"/>
						<path fill-rule="evenodd" clip-rule="evenodd" fill="#F77705" d="M214.711,64.587c1.708-0.75,2.571-3.927,0-4.629
							C212.284,61.191,210.69,63.513,214.711,64.587z"/>
						<path fill-rule="evenodd" clip-rule="evenodd" fill="#F77705" d="M234.72,68.372c1.545-1.615-6.359-3.496-6.67-5.89
							C225.253,64.493,229.251,67.607,234.72,68.372z"/>
						<path fill-rule="evenodd" clip-rule="evenodd" fill="#F77705" d="M204.042,63.324c-2.417,0.472-4.871,3.079,0,3.365
							C203.272,65.564,207.987,64.062,204.042,63.324z"/>
						<path fill-rule="evenodd" clip-rule="evenodd" fill="#F77705" d="M140.019,65.428c0.152,0.514,0.399,0.993,2.67,0.841
							c-0.68-1.049,0.043-2.539-4.005-2.523c0.996,1.294-3.66,0.809-2.666,2.102C137.854,65.867,138.946,65.65,140.019,65.428z"/>
						<path fill-rule="evenodd" clip-rule="evenodd" fill="#F77705" d="M236.054,72.158c-5.112-1.193-9.243-2.693-10.671-5.047
							c-0.647,0.496-1.423,0.952-2.665,1.261c-1.553-1.036-4.888-3.154,0-3.784c-1.905-0.102-2.252-0.694-4.004-0.842
							c-4.03,2.146,1.475,4.455,4.004,5.889c-4.653-0.047-1.82,3.609-2.669,5.889c4.251-0.357,5.062,0.367,6.667,0.842
							c0.853-2.363-2.417-2.176-5.335-2.523c2.983-0.883,1.019-3.324,4.002-4.207C228.275,70.42,231.747,73.213,236.054,72.158z"/>
						<path fill-rule="evenodd" clip-rule="evenodd" fill="#F77705" d="M174.699,64.166c-1.966,1.063-4.712,1.879-5.336,3.365
							c3.621-0.119,3.12-1.54,6.67-1.684C172.289,66.028,179.374,64.281,174.699,64.166z"/>
						<path fill-rule="evenodd" clip-rule="evenodd" fill="#F77705" d="M312.081,64.587c-2.465,1.714-3.604,3.48-1.334,5.047
							c-0.697-1.785,2.844-1.357,5.05-0.707C312.919,67.147,318.249,65.404,312.081,64.587z"/>
						<path fill-rule="evenodd" clip-rule="evenodd" fill="#F77705" d="M315.797,68.927c0.381,0.233,0.901,0.471,1.619,0.707
							C317.243,69.433,316.608,69.166,315.797,68.927z"/>
						<path fill-rule="evenodd" clip-rule="evenodd" fill="#F77705" d="M341.425,69.634c-7.791-1.408,0.822-3.301-1.333-4.629
							c-1.657,0.881-3.881,1.584-6.67,2.105C334.729,68.121,338.271,70.601,341.425,69.634z"/>
						<path fill-rule="evenodd" clip-rule="evenodd" fill="#F77705" d="M242.722,69.212c-5.864-0.631,1.255-2.859-2.667-3.784
							C238.736,66.844,235.116,70.771,242.722,69.212z"/>
						<path fill-rule="evenodd" clip-rule="evenodd" fill="#F77705" d="M132.017,66.269c-6.268,2.674-2.804,2.908,2.667,5.048
							C129.865,69.462,135.59,66.98,132.017,66.269z"/>
						<path fill-rule="evenodd" clip-rule="evenodd" fill="#F77705" d="M185.367,70.898c2.2-2.222-8.508-2.366-2.448-3.367
							c-1.764-0.004-1.73-0.736-3.786-0.842c0,0.279,0,0.562,0,0.842c-1.027-0.023-0.729-0.539-2.883-0.42
							C178.001,68.66,181.798,69.917,185.367,70.898z"/>
						<path fill-rule="evenodd" clip-rule="evenodd" fill="#F77705" d="M172.03,72.158c3.508-0.316,7.002-2.813,4.003-3.786
							C174.967,69.718,172.092,70.496,172.03,72.158z"/>
						<path fill-rule="evenodd" clip-rule="evenodd" fill="#F77705" d="M300.076,68.372c-6.918,1.388,0.757,3.745,4.003,5.47
							C303.083,71.605,299.252,70.054,300.076,68.372z"/>
						<path fill-rule="evenodd" clip-rule="evenodd" fill="#F77705" d="M124.014,69.212c-2.002,1.23-4.425,2.888-6.669,5.049
							C122.374,73.75,128.284,69.966,124.014,69.212z"/>
						<path fill-rule="evenodd" clip-rule="evenodd" fill="#F77705" d="M86.669,71.738c-0.575,0.801-2.876,1.057-2.669,2.104
							c4.803-0.254,3.929,1.285,8.002,1.262C91.017,72.81,88.479,73.62,86.669,71.738z"/>
						<path fill-rule="evenodd" clip-rule="evenodd" fill="#F77705" d="M293.406,74.682c-0.808-0.866,2.153-2.924-2.668-2.524
							C290.464,73.367,291.077,74.296,293.406,74.682z"/>
						<path fill-rule="evenodd" clip-rule="evenodd" fill="#F77705" d="M36.371,75.103c1.835-0.019,2.456,0.197,3.529,0.42
							c1.562-1.107,1.472-1.465,3.527-0.42c0-0.562,0-1.121,0-1.684C39.313,73.494,36.418,73.716,36.371,75.103z"/>
						<path fill-rule="evenodd" clip-rule="evenodd" fill="#F77705" d="M89.335,80.993c-4.78-2.03-5.211-5.104-8.004-6.731
							c-0.956,1.242-1.522,2.604-4.001,3.367C83.704,78,83.438,80.468,89.335,80.993z"/>
						<path fill-rule="evenodd" clip-rule="evenodd" fill="#F77705" d="M290.738,75.945c0.21-1.188-3.77-1.055-5.335-1.684
							C284.786,75.579,286.563,76.139,290.738,75.945z"/>
						<path fill-rule="evenodd" clip-rule="evenodd" fill="#F77705" d="M346.76,74.682c-6.122,0.872-8.999,2.771-13.338,4.208
							c3.432,0.739,6.271,1.666,9.338,2.521c0.748-1.778-5.245-1.43-5.335-2.942C342.598,78.68,344.539,76.529,346.76,74.682z"/>
						<path fill-rule="evenodd" clip-rule="evenodd" fill="#F77705" d="M292.072,75.523c-0.383,3.064,4.754,4.393,9.338,5.889
							c-2.819,0.514-3.745,1.625-5.334,2.525c1.308,0.568,3.558,0.84,5.334,1.262c-0.559-1.998,1.94-3.035,2.669-4.628
							C295.886,80.21,298.682,76.384,292.072,75.523z"/>
						<path fill-rule="evenodd" clip-rule="evenodd" fill="#F77705" d="M217.38,76.261c-0.16,1.212-5.687,0.891-5.336,2.263
							c0.814,0.024,1.58,0.228,1.335,0.581c0.889,0,1.778,0,2.668,0C215.015,78.045,221.266,76.852,217.38,76.261z"/>
						<path fill-rule="evenodd" clip-rule="evenodd" fill="#F77705" d="M224.05,79.73c1.972-0.672,0.3-2.566-1.332-3.365
							C221.384,77.457,220.372,79.183,224.05,79.73z"/>
						<path fill-rule="evenodd" clip-rule="evenodd" fill="#F77705" d="M369.326,77.105c0-0.285-1.191-0.538-2.226-0.74
							c-1.364,1.336,0.169,3.044,2.226,4.117V77.105z"/>
						<path fill-rule="evenodd" clip-rule="evenodd" fill="#F77705" d="M314.749,78.047c-3.526,2.679-10.061,6.636-9.337,9.255
							C308.8,83.653,316.804,81.635,314.749,78.047z"/>
						<path fill-rule="evenodd" clip-rule="evenodd" fill="#F77705" d="M333.422,80.571c-2.204-0.006-0.748-1.167-2.668-1.261
							c-3.157,1.387-5.103,3.158-9.336,4.207c2.774,0.246,4.312,0.884,6.668,1.262c1.528-1.323-2.095-1.022-2.668-1.684
							C330.041,82.87,329.463,81.006,333.422,80.571z"/>
						<path fill-rule="evenodd" clip-rule="evenodd" fill="#F77705" d="M31.979,80.571c-0.351,1.713-2.51,2.854-4,4.208
							c4.97-0.445,4.305,0.885,6.67,1.262C30.879,84.218,37.422,81.38,31.979,80.571z"/>
						<path fill-rule="evenodd" clip-rule="evenodd" fill="#F77705" d="M369.326,81.535c0-0.138-1.124-0.195-2.226-0.123
							c-2.022,0.688-0.859,2.758,2.226,2.93V81.535z"/>
						<path fill-rule="evenodd" clip-rule="evenodd" fill="#F77705" d="M232.055,88.984c-6.448-2.758,6.899-5.931-1.336-6.729
							C231.242,84.674,221.005,88.242,232.055,88.984z"/>
						<path fill-rule="evenodd" clip-rule="evenodd" fill="#F77705" d="M330.754,97.818c-4.308,0.377-1.876-1.372-4-1.682
							c4.706-0.303,0.57-1.723,2.665-3.365c-8.461,1.699,1.914,9.128-16.006,9.254c-2.538-3.193,4.46-5.909,0-7.15
							c3.898-1.318,8.825-2.527,5.338-5.047c3.507-0.125,1.047,1.631,5.335,1.26c-3.855-2.171,0.958-5.188-8.003-7.57
							c2.962,3.25,4.451,9.031-5.336,10.517c0.629,2.302-2.338,3.468-4.003,5.048c2.621,0.125,2.646-0.568,4.003-0.842
							c-1.041,3.313,3.38,5.121,12.004,7.152c-0.074-1.52-3.325-2.037-4-3.367C324.331,101.122,327.319,99.4,330.754,97.818z"/>
						<path fill-rule="evenodd" clip-rule="evenodd" fill="#F77705" d="M366.768,84.358c-1.185,0.747-3.724,1.069-2.668,2.523
							C368.589,87.416,369.614,84.75,366.768,84.358z"/>
						<path fill-rule="evenodd" clip-rule="evenodd" fill="#F77705" d="M312.081,85.199c0.069,0.787-1.028,0.892-2.665,0.42
							c-4.16,3.182-12.901,7.146-10.673,10.938c0.076-0.257,0.2-0.498,1.333-0.421c0.075,0.256,0.2,0.497,1.334,0.421
							c-2.039-1.339-0.468-1.851,0-3.364c1.338-0.004,1.589,0.342,2.669,0.42C301.961,89.515,315.442,87.478,312.081,85.199z"/>
						<path fill-rule="evenodd" clip-rule="evenodd" fill="#F77705" d="M369.326,86.093c-1.029,0.529-1.029,1.355,0,1.781V86.093z"
							/>
						<path fill-rule="evenodd" clip-rule="evenodd" fill="#F77705" d="M121.345,88.984c0.074-1.172-2.672-3.605-5.334-2.523
							C119.001,86.92,118.356,88.525,121.345,88.984z"/>
						<path fill-rule="evenodd" clip-rule="evenodd" fill="#F77705" d="M170.697,91.509c0.779-1.537-2.11-2.415-2.669-4.628
							c-0.697,1.321-2.34,2.347-3.999,3.366C169.295,89.708,167.255,91.474,170.697,91.509z"/>
						<path fill-rule="evenodd" clip-rule="evenodd" fill="#F77705" d="M146.688,91.087c-3.218-0.808-0.638-3.443-5.336-3.785
							c0.219,1.331-3.544,1.406-2.669,2.945C143.669,89.796,142.487,91.291,146.688,91.087z"/>
						<path fill-rule="evenodd" clip-rule="evenodd" fill="#F77705" d="M338.758,94.453c-5.34-2.203,2.323-3.909-1.333-5.469
							c-0.395,0.374-3.609,1.843-4.003,0.844c0.661-1.612-1.834-2.227-5.336-2.525c1.47,1.738,7.178,3.082,4.003,5.048
							C333.745,93.23,335.967,93.931,338.758,94.453z"/>
						<path fill-rule="evenodd" clip-rule="evenodd" fill="#F77705" d="M371.658,88.57c-0.413-0.486-1.485-0.922-3.556-1.268
							c4.402,2.703-4.074,4.105-1.335,5.891c1.185-0.99,4.091-2.311,4.891-3.519C371.914,89.29,371.954,88.917,371.658,88.57z"/>
						<path fill-rule="evenodd" clip-rule="evenodd" fill="#F77705" d="M38.648,94.875c-2.079-2.305-6.665-3.553-6.669-5.469
							c-5.32,3.09-7.669,7.115-12.003,10.517c9.378-0.827,5.291-5.902,12.003-7.572C35.552,92.767,33.635,94.914,38.648,94.875z"/>
						<path fill-rule="evenodd" clip-rule="evenodd" fill="#F77705" d="M89.335,0.929c0.846-0.49,1.579-1.199,2.275-1.552h-2.189
							c-0.059,0-0.092,0.206-0.086,0.29c-0.258-0.096-0.525-0.29-0.798-0.29h-4.253C85.62-0.27,87.263,0.501,89.335,0.929z"/>
						<path fill-rule="evenodd" clip-rule="evenodd" fill="#F77705" d="M116.011,5.558c-2.326-2.223-6.185-4.416-7.54-6.181h-2.214
							C106.673,1.849,108.331,4.583,116.011,5.558z"/>
						<path fill-rule="evenodd" clip-rule="evenodd" fill="#F77705" d="M121.345,5.693c1.103-1.189-1.88-1.09-1.332-2.104
							c-3.196-0.167,0.738,1.916-4.002,1.264c0.308,3.294,0.729,4.168,2.669,7.15C122.918,10.414,115.805,7.385,121.345,5.693z"/>
						<path fill-rule="evenodd" clip-rule="evenodd" fill="#F77705" d="M191.247-0.623H188.1c1.337,0.706,2.672,1.377,3.939,1.974
							C192.688,0.859,192.222,0.083,191.247-0.623z"/>
						<path fill-rule="evenodd" clip-rule="evenodd" fill="#F77705" d="M205.619-0.623h-1.396c0.385,0,0.973,0.483,1.217,0.8
							C205.482-0.1,205.543-0.623,205.619-0.623z"/>
						<path fill-rule="evenodd" clip-rule="evenodd" fill="#F77705" d="M181.73,5.733c-0.194-0.327-0.324-0.625-0.364-0.88
							C181.168,5.248,181.354,5.521,181.73,5.733z"/>
						<path fill-rule="evenodd" clip-rule="evenodd" fill="#F77705" d="M205.44-0.528c-0.036,0.242-0.062,0.491-0.065,0.752
							C205.615-0.094,205.595-0.333,205.44-0.528z"/>
						<path fill-rule="evenodd" clip-rule="evenodd" fill="#F77705" d="M181.73,5.733c1.403,2.358,6.288,6.308,6.306,8.374
							c4.909-0.869,0.616-2.722-1.334-3.787c-0.004-1.402,4.34-1.436,4.001-2.943c2.155-0.12,2.297,0.396,4.003,0.419
							c-2.143-1.483,1.111-3.11,0-5.47c2.787-0.178,3.533,0.289,5.335,0.422c1.427-1.571-3.312-0.847-2.669-2.171
							c3.109,0.155,2.807-0.493,2.917-1.199h-2.44c-3.704,2.116-6.869,4.138-5.81,7.511c-2.066,0.469-2.779,1.189-6.672,1.086
							C186.185,6.644,182.942,6.421,181.73,5.733z"/>
						<path fill-rule="evenodd" clip-rule="evenodd" fill="#F77705" d="M237.564-0.623h-1.292c0.375,0,0.745,0.483,1.115,0.711
							C237.512-0.129,237.561-0.623,237.564-0.623z"/>
						<path fill-rule="evenodd" clip-rule="evenodd" fill="#F77705" d="M310.747,0.224c1.27-0.277,0.902-0.741,0.561-1.266
							c-0.635-0.034-1.277-0.057-1.917-0.084c0.01,0.029,0.012,0.057,0.025,0.086c-0.128-0.033-0.227-0.066-0.347-0.101
							c-1.046-0.044-2.098-0.079-3.158-0.107C307.995-0.906,309.229-0.296,310.747,0.224z"/>
						<path fill-rule="evenodd" clip-rule="evenodd" fill="#F77705" d="M289.403,9.9c11.913,3.889-5.866,10.857,4.003,13.883
							c-1.876-2.422,4.548-6.555,5.337-10.518c-0.472-0.59-2.349-0.036-2.667,0.419c-3.108-1.973-1.728-6.144,5.334-6.308
							c-2.727-1.563,0.465-2.645,1.334-4.208c5.248-0.673,0.463,1.817,4,1.685c0.958-1.908-1.911-3.773-2.613-6.147
							c-0.671-0.011-1.35-0.011-2.025-0.017C301.486,3.045,298.22,7.126,289.403,9.9z"/>
						<path fill-rule="evenodd" clip-rule="evenodd" fill="#F77705" d="M353.14,6.689c-0.728-0.275-1.478-0.545-2.242-0.809
							c-1.949,1.16-3.744,2.368-4.138,4.02C350.871,9.457,351.959,8.056,353.14,6.689z"/>
						<path fill-rule="evenodd" clip-rule="evenodd" fill="#F77705" d="M29.313,104.549c-2.741,0.192-3.094-1.103-2.669-2.944
							c-2.251,0.693-1.654,2.281-4.002,2.944c5.423,2.374,7.474,6.737,0,8.833c-6.009-1.58-9.493-5.439-1.332-7.148
							c-3.296-0.74-7.05,1.965-9.338,2.943c-2.213-1.967-4.331-3.963-4-6.731c3.64-0.307,2.686,0.835,5.333,0.841
							c2.563-0.539-3.145-0.868,0-2.103c-6.742-0.945-2.07-1.222-6.667-3.786c1.071,0.223,2.164,0.439,4.001,0.42
							c-2.602-1.422-3.02-3.533-9.335-3.784c1.684-1.802-0.1-2.081,0-4.206c2.55-0.197,5.737,1.295,5.334-0.422
							c-6.046,0.572,0.323-3.41,2.667-4.207C0.647,85.3,6.023,81.91,6.639,79.31c3.57,0.275,5.071,1.205,8.003,1.683
							c-0.149-1.495-4.934-1.53-4.002-3.364c2.42,1.313,4.641-1.379,2.666-1.264c2.106-1.913,4.773,0.627,8.005,0.841
							c-0.792-1.433-2.908-2.448-5.335-3.364c1.508-0.893,1.533-0.901,5.335-1.684c-2.192-1.365-0.52-2.604,1.332-3.786
							c-2.217-1.075-3.58,1.644-8.001,1.263c2.271,3.188-3.521,6.754-6.669,8.676c-6.608-1.01-0.596-3.439-5.337-5.202
							c1.782,0,3.558,0,5.337,0c-2.968-1.06-4.887-2.649-4.003-4.892c3.641-0.306,2.686,0.703,5.336,0.709
							c1.09-1.01-4.092-2.402,0-3.012c-0.582-0.624-1.708,0.133-4.001-0.033c1.199-1.23,1.199-1.308,0-2.539
							c6.776,1.271,0.643-1.822,5.335-2.954c3.08,0.993,5.561,2.169,5.336,4.202c1.193,1.158,5.413-0.982,4.001,1.261
							c4.758-0.251,0.941-2.43-2.669-2.523c0.569-0.804,3.813-0.764,2.669-2.104c-6.863,2.688-9.168-6.619-2.669-7.993
							c-4.356-0.8-1.977-2.612-1.332-3.365c4.255-0.361,4.125,0.661,6.667,0.84c0.723-1.489-4.723-1.034-4.001-2.524
							c3.063-0.576,4.289-1.73,6.67-2.523c-1.55,0.068-2.373-0.094-2.669-0.42c-15.46,3.744-7.03,11.396-16.004,16.405
							c-7.384-4.978-10.193-9.277-2.669-15.564c4.72,0.336,4.889,2.104,9.336,2.523c0.479-2.472-8.535-2.054-6.667-5.889
							c1.753,0.428,4.916,0.413,6.667,0.841c-1.99-0.494-1.568-1.748-5.333-1.682c3.681-0.102,1.416-2.077,4-2.523
							c-0.579-0.625-1.708,0.166-4,0c-0.301-1.758,2.17-1.988,0-3.367c1.75-0.504,2.098-0.162,4,0c-3.058-1.111-3.058-2.672,0-3.785
							c-2.977-1.049-3.25,2.314-8.003,2.104c-1.103-1.716-0.204-1.449,0-3.366c-2.384,2.039-2.077-0.123-6.667,0.84
							c20.404,4.797-1.35,15.65,0,21.875c0.987,1.141-2.806,0.771-3.786,1.289c-0.182,0.097-0.277,0.221-0.217,0.394
							c0.064,0.075,0.146,0.144,0.217,0.214c2.594,2.593,8.567,4.121,11.788,6.518C-0.562,66.4,1.966,72.858-0.03,76.365
							c1.655,0.88,3.879,1.581,6.669,2.104c-2.4,1.708-3.049,2.341-6.669,2.942c5.988,4.545-1.201,6.402-1.262,10.938
							c-3.725,0.035-6.684-0.69-7.713-1.38v1.223c3.085,1.066,9.391,1.646,11.716,3.102c6.033,3.781-1.503,9.119,5.964,13.883
							c-0.473,0.895-1.441,1.953-2.426,3.045c1.264,0.615,2.764,1.207,4.184,1.779c-0.443-2.013-0.3-1.946-1.206-3.984
							c6.313,0.533,8.278,2.451,12.044,3.787c-2.833,0.902-2.352,2.319-0.575,3.539c1.625,0.439,3.313,0.855,5.048,1.246
							c-0.833-0.623-3.501-1.447-4.438-1.84c3.304-1.742,2.882-3.543,6.672-5.89c4.722-0.229,3.282,1.489,8.004,1.262
							C34.139,110.16,25.742,108.08,29.313,104.549z"/>
						<path fill-rule="evenodd" clip-rule="evenodd" fill="#F77705" d="M345.909,4.317c-1.438-0.411-2.932-0.798-4.463-1.169
							c0.989,1.143,2.664,2.273,5.313,3.386C346.532,5.683,346.245,4.96,345.909,4.317z"/>
						<path fill-rule="evenodd" clip-rule="evenodd" fill="#F77705" d="M162.519-0.623h-1.148c0.509,0.353,0.957,0.731,1.323,1.133
							C162.427-0.017,162.39-0.623,162.519-0.623z"/>
						<path fill-rule="evenodd" clip-rule="evenodd" fill="#F77705" d="M244.056,2.326c2.515,2.732-8.617,4.109-12.001,6.311
							c2.081,0.767,4.458,3.615,8,2.523c-3.241-1.58-3.525-1.775-4.001-3.783c4.19,1.197,2.962-1.865,8.002-1.684
							c5.002,1.787,7.133,4.834,14.674,5.82c-1.569-4.764,3.797-8.254,10.605-12.136h-5.398c-3.917,2.823-4.721,6.312-9.21,9.192
							C243.85,8.16,250.413,3.41,244.056,2.326z"/>
						<path fill-rule="evenodd" clip-rule="evenodd" fill="#F77705" d="M223.944,6.046c-7.311,0.631-13.971,3.832-6.773,5.536
							c0-1.122,0-2.245,0-3.366c5.141,1.245,2.979-2.628,8.107-2.523c3.43,0.04,2.625,1.642,6.055,1.684
							c-2.627-1.563-0.919-2.465-2.307-3.787c3.11-0.628,5.925,0.142,6.85-0.421c-3.906-0.54,6.912-2.154,0.09-2.523
							c-2.554,1.157-5.621,2.14-9.294,2.944c-3.003-0.42,2.906-1.94-1.312-2.591c-2.214-0.222-3.227-0.915-3.549-1.621h-5.009
							C220.167,1.494,225.309,2.373,223.944,6.046z"/>
						<path fill-rule="evenodd" clip-rule="evenodd" fill="#F77705" d="M130.683,10.32c9.121,0.91,13.697,3.251,14.673,6.732
							c-4.567,0.662-6.986,2.002-9.338,3.363c3.641-0.307,2.686,0.836,5.335,0.842c-2.417-2.52,1.892-2.674,5.336-4.205
							c2.278,0.684,4.727,1.313,6.669,2.102c0.869-1.982-2.304-2.389-4.001-2.523c-0.278-0.838,5.653-1.798,2.667-2.104
							c-1.932,1.798-7.638-0.419-8.003-1.681c-0.677-0.837,7.357-0.965,2.668-1.686c-0.197,0.922-3.36,0.906-6.67,0.844
							c0.469-1.461-6.78-1.598-2.667-2.946c-3.339,0.054-4.175,0.804-5.335-0.421c2.894,0.071,0.604-1.49,1.335-2.103
							c1.994-0.07,4.92,0.503,5.332-0.068c-1.669-1.243,5.544-4.265,7.693-7.088h-3.086c-0.693,2.472-3.66,4.657-9.939,5.826
							c0.232-1.617-4.608-1.454-5.337-2.77c4.093-0.646,6.418-1.999,8.188-3.057h-3.353c0.259,0,0.454,0.142,0.502,0.358
							c-2.689,0.973-4.728,1.987-8.005,0.664C125.792,3.945,134.687,5.968,130.683,10.32z"/>
						<path fill-rule="evenodd" clip-rule="evenodd" fill="#F77705" d="M14.642,9.057c1.719,1.702,6.172,2.542,9.336,3.788
							c-0.451-3.084-11.526-2.816-8.002-7.152c5.061,0.273,4.989-0.421,3.824-1.525c-0.93,0.259-1.84,0.527-2.729,0.802
							c-7.185,3.503-10.398,10.29-1.095,13.343C13.015,14.639,12.262,12.318,14.642,9.057z"/>
						<path fill-rule="evenodd" clip-rule="evenodd" fill="#F77705" d="M71.995,6.534c-2.753-2.89-7.243-4.772-1.333-7.573
							c-4.742-0.652-0.807,1.431-4.004,1.264c-2.075-0.275-2.97-0.852-3.321-1.538c-0.769,0.005-1.54,0.005-2.301,0.02
							c1.065,0.853,2.345,1.688,2.957,2.36C66.062,3.336,65.671,5.605,71.995,6.534z"/>
						<path fill-rule="evenodd" clip-rule="evenodd" fill="#F77705" d="M49.319,5.693c4.983-0.45,3.802,1.045,8.005,0.841
							c-2.004-0.771-2.307-2.078-4.001-2.944c-0.298,0.328-1.119,0.488-2.671,0.42c-2.304-1.652-5.974-3.832-2.015-4.698
							c-1.492,0.118-2.971,0.25-4.424,0.399c-0.721,0.25-1.641,0.435-2.896,0.514C42.155,2.45,52.925,3.427,49.319,5.693z"/>
						<path fill-rule="evenodd" clip-rule="evenodd" fill="#F77705" d="M65.327,10.32c-2.143-1.842-6.198-3.156-1.334-5.048
							c-4.629,0.522-2.136,1.323-6.669,1.262C55.847,9.103,63.37,8.833,65.327,10.32z"/>
						<path fill-rule="evenodd" clip-rule="evenodd" fill="#F77705" d="M183.245,4.431c0-0.562,0-1.122,0-1.684
							c-2.057-0.018-1.867,0.551-2.939,0.773c-0.217-0.865-2.002-3.086-1.679-4.144h-3.341c-0.529,0.353-2.187,0.731-2.983,1.199
							C176.444,1.935,177.075,3.809,183.245,4.431z"/>
						<path fill-rule="evenodd" clip-rule="evenodd" fill="#F77705" d="M324.086,10.32c7.779,2.594,11.257,6.545,18.674,9.254
							c0.971-2.127-3.664-2.49-4.002-4.205c1.575-0.627,1.153-1.881,5.333-1.685c-3.772-1.905,3.99-2.663,0-4.206
							c-3.582,1.535-0.252,5.249-9.335,5.048c-0.25-1.927-3.081-3.276-5.337-3.374c3.438-0.459,1.169-2.248,4.003-2.953
							c0.89,0,1.777,0,2.667,0c0.489,1.057,2.313,1.662,5.336,2.112c-1.544-1.757-4.844-3.165-8.003-4.411
							c-0.524,0.11-0.952,0.15-1.331,0.308c0.854-2.558-0.655-3.019-1.337-4.67c-1.423,0.394-0.415,1.526-4,1.235
							c-3.296-0.854-3.817-1.83-3.317-2.771c-0.836-0.1-1.675-0.201-2.523-0.287c0.721,2.275,7.414,4.863,11.168,6.398
							C329.033,7.396,330.065,9.962,324.086,10.32z"/>
						<path fill-rule="evenodd" clip-rule="evenodd" fill="#F77705" d="M5.305,10.32c-0.495-0.024-0.896-0.018-1.232,0.008
							c-1.008,0.561-1.942,1.141-2.816,1.732c0.413,0.125,0.86,0.249,1.38,0.363C1.493,11.08,4.736,11.122,5.305,10.32z"/>
						<path fill-rule="evenodd" clip-rule="evenodd" fill="#F77705" d="M86.669,5.693c6.826,0.845-2.235,3.332-1.336,5.049
							c5.595,1.318,6.994,3.965,12.004,5.468c-0.882-1.123-0.56-2.628-2.668-3.364c-13.244-3.531,5.122-10.044,6.67-13.885
							C92.826,0.063,95.521,4.7,86.669,5.693z"/>
						<path fill-rule="evenodd" clip-rule="evenodd" fill="#F77705" d="M198.708,25.464c2.323-0.033,4.146,0.094,5.334,0.42
							c-0.361-3.008,1.154-3.021,1.333-5.469c1.975,0.219,3.362,0.623,5.336,0.842c-2.881-1.712-2.737-3.252,1.333-4.627
							c-8-1.112-1.714-4.884-5.335-6.73c-0.147,0.334-4.409,1.275-4,0.42c3.114-1.037,4.694-7.764,12.002-5.889
							c-0.351-1.626-0.961-3.433,2.669-2.947c0.058-0.576-0.627-0.921-1.333-1.26c-0.076-0.256-0.202-0.498-1.336-0.422
							c-5.634,4.91-15.029,6.195-13.336,12.201C213.028,15.493,200.995,21.378,198.708,25.464z"/>
						<path fill-rule="evenodd" clip-rule="evenodd" fill="#F77705" d="M33.313,8.636c-2.688,1.371,4.846,2.505,6.669,3.787
							c-2.093-1.864-4.265-3.703-5.333-5.89c-0.748,0.606-2.083,1.026-4.002,1.262c-4.791-1.949,0.087-3.634-1.334-5.47
							c-0.548,0.53-1.721,0.861-4.002,0.843c-0.137-0.129-0.104-0.264,0.011-0.401c-0.388,0.089-0.772,0.182-1.153,0.272
							c0.219,2.069,4.149,4.144,5.145,6.018C31.149,9.076,32.241,8.859,33.313,8.636z"/>
						<path fill-rule="evenodd" clip-rule="evenodd" fill="#F77705" d="M274.733,15.789c6.509,2.416-2.903,3.127-4.001,5.469
							c3.23,0.803,2.052,3,8.004,2.943c-3.23-1.613-6.789-5.402,2.667-5.889c0.014-1.118-0.505-2.4,1.333-2.943
							c-1.568-0.065-3.785,0.072-4-0.421c1.929-0.653,1.777-1.963,4-2.524c0.393,0.98,3.611,0.98,4.002,0
							c-2.275-0.172,0.281-0.543,0-1.264c-3.039-0.576-5.014,1.086-5.335,0c-0.099-2.793,0.488-2.831,2.666-4.626
							c-6.712-0.249,0.262-2.075,0-2.944c-5.471,0.191,0.545-0.899-1.333-2.105C272.06,4.916,285.704,11.16,274.733,15.789z"/>
						<path fill-rule="evenodd" clip-rule="evenodd" fill="#F77705" d="M266.731,2.748c0.823,1.717,5.135,4.534,9.336,3.786
							C271.687,5.671,270.823,3.701,266.731,2.748z"/>
						<path fill-rule="evenodd" clip-rule="evenodd" fill="#F77705" d="M155.057,5.119c0.597,0.104,1.342,0.163,2.302,0.153
							C156.634,5.194,155.854,5.141,155.057,5.119z"/>
						<path fill-rule="evenodd" clip-rule="evenodd" fill="#F77705" d="M141.353,8.216c2.65,0.005,1.697,1.148,5.336,0.841
							c-3.592-2.946,2.864-4.104,8.368-3.938c-0.828-0.146-1.36-0.387-1.699-0.688c0.074-0.539,1.71-0.584,1.334-1.263
							c-3.771-0.077-3.108,1.581-6.671,0.421C149.327,6.244,141.213,5.929,141.353,8.216z"/>
						<path fill-rule="evenodd" clip-rule="evenodd" fill="#F77705" d="M77.33,12.423c-3.605-1.032-1.001-3.34-6.668-1.682
							c-0.509-1.422,2.311-1.797,4.001-2.525c2.651,0.005,1.696,1.148,5.334,0.841c-3.302-1.434-3.302-3.613,0-5.048
							c-8.133,1.876-6.797,4.242-12.003,6.732C68.907,11.738,76.416,12.818,77.33,12.423z"/>
						<path fill-rule="evenodd" clip-rule="evenodd" fill="#F77705" d="M106.673,9.057c-3.213-1.278,0.584-4.377-1.332-5.048
							c-3.797,1.213-4.89,5.222-2.668,5.891C103.22,9.371,104.393,9.04,106.673,9.057z"/>
						<path fill-rule="evenodd" clip-rule="evenodd" fill="#F77705" d="M309.416,14.107c5.421-1.095,2.829-4.717,6.667-6.312
							c3.51,0.437,4.491,1.669,8.003,2.104c-1.692-1.838-7.293-2.279-4.001-4.628C311.188,6.823,308.181,11.703,309.416,14.107z"/>
						<path fill-rule="evenodd" clip-rule="evenodd" fill="#F77705" d="M47.987,7.795c-3.265,0.991,1.989,0.783,1.332,2.104
							c0.129,1.3,5.208-1.302,5.336,0c1.205,7.199,16.002,8.177,20.008,13.883c14.932,0.974,7.846,3.586,1.333,5.889
							c8.272,1.738,10.229,5.467,16.006,7.992c-9.166,3.858,0.962,7.307,6.668,10.516c19.678,2.648-14.036,10.056,1.336,13.883
							c-2.995-3.75,2.729-6.879,6.667-9.674c1.764,0.004,1.22,0.734,2.668,0.841c-2.861-2.344,3.82-2.77,0-4.629
							c-0.282,0.472-1.479,0.655-2.668,0.841c1.744-1.81-3.783-1.328-5.334-2.103c4.214,0.208,0.492-2.087,5.334-1.683
							c-0.384-1.281,0.213-2.871-4-2.944c2.183,1.964,0.409,3.304-4.003,4.206c-3.239-1.629-3.642-5.485-8.002-5.468
							c0.112-1.367,0.687-2.587,2.667-3.366c3.602,0.889,8.961,0.765,5.335-0.842c-1.169,2.385-2.317-3.126-5.335-0.418
							c-0.368-0.739,3.756-2.1,0-2.524c-0.647,0.497-1.42,0.952-2.667,1.261c-2.652-2.646-13.823-7.271-2.669-9.254
							c1.209,0.24,4.912,1.732,5.336,0.841c-7.397-2.331-21.681-4.611-20.007-8.413C59.14,17.064,60.673,11.08,53.323,8.216
							C52.94,10.273,48.438,8.302,47.987,7.795z"/>
						<path fill-rule="evenodd" clip-rule="evenodd" fill="#F77705" d="M369.326,24.694v-1.239c-1.029,0.889-2.456,1.618-5.061,2.01
							c-0.149-1.076-1.86-1.474-3.416-2.104c-3.501,1.313,4.368,1.829,4.292,3.366c-8.153,2.336-10.307,6.912-17.109,9.675
							c3.361,0.763,2.788,2.45,6.899,2.946c0-0.703,0-1.404,0-2.105c-4.111,0.367-2.92-0.646-4.087-1.262
							c6.663,1.439,3.723-6.304,12.631-2.944c-3.76-2.254-3.667-4.536,1.813-6.31c1.902,0.355,3.009,0.801,4.038,1.323v-0.728
							c-1.029-0.621-1.583-1.41-0.892-2.698C368.791,24.627,369.326,24.657,369.326,24.694z"/>
						<path fill-rule="evenodd" clip-rule="evenodd" fill="#F77705" d="M348.094,27.988c7.045,1.636-0.615,3.727,4.001,5.048
							c4.313-4.55,0.281-4.209,2.668-9.253c6.05,0.498,5.326-2.404,9.337-1.264c-1.964-2.021,3.326-1.757,2.668-3.365
							c-4.314-0.52-1.021,1.362-5.335,0.842c1.689-1.15,2.111-2.699,4.001-3.786c1.452,0.121,2.698,0.315,3.767,0.563
							c-0.249-0.317-0.505-0.633-0.788-0.946c-0.104-0.012-0.204-0.025-0.31-0.037c-0.319-0.252-0.428-0.475-0.394-0.674
							c-0.469-0.465-0.968-0.926-1.516-1.376c-0.236-0.013-0.488-0.029-0.76-0.055c-0.514-0.366-0.715-0.739-0.751-1.11
							c-0.401-0.286-0.829-0.566-1.261-0.847c-0.159,3.438-3.098,6.639-4.657,10.792C350.648,22.905,352.901,26.558,348.094,27.988z
							"/>
						<path fill-rule="evenodd" clip-rule="evenodd" fill="#F77705" d="M174.699,14.526c0.304-1.878,8.097-3.599,6.667-4.626
							C179.191,11.197,168.202,13.176,174.699,14.526z"/>
						<path fill-rule="evenodd" clip-rule="evenodd" fill="#F77705" d="M165.361,16.63c0.825,1.844,3.461,3.115,4.002,5.047
							c-6.782,0.405-6.873,4.637-1.335,5.47c-2.046-2.879-0.454-4.229,4.002-5.89c2.057,1.034,5.358,1.676,8.006,2.525
							c-2.533-1.727-4.582-3.604-10.673-4.209c1.154-2.674-0.387-3.638,2.667-5.467C168.373,14.496,166.455,15.431,165.361,16.63z"
							/>
						<path fill-rule="evenodd" clip-rule="evenodd" fill="#F77705" d="M240.055,14.948c-1.036-1.45,0.743-2.01,5.337-1.683
							c-0.135-1.305,0.604-2.335,2.666-2.945c-0.003,0.232,1.08,0.477,1.335,0C245.774,9.792,233.911,13.743,240.055,14.948z"/>
						<path fill-rule="evenodd" clip-rule="evenodd" fill="#F77705" d="M37.314,17.052c2.651,0.004,1.696,1.146,5.336,0.84
							c-0.374-2.586,5.199-4.48,10.266-4.225c-1.606-0.146-0.476-1.155-2.264-1.244c-0.245,0.623-3.222,0.387-5.333,0.422
							c0.568-0.805,3.811-0.763,2.668-2.104C38.684,12.322,48.57,14.832,37.314,17.052z"/>
						<path fill-rule="evenodd" clip-rule="evenodd" fill="#F77705" d="M109.341,14.948c-2.625-2.036-0.502-2.597-1.333-3.788
							c-1.899,2.4-5.157,0.314-8.002-0.418C100.095,11.589,102.977,14.724,109.341,14.948z"/>
						<path fill-rule="evenodd" clip-rule="evenodd" fill="#F77705" d="M128.015,11.16c-3.6,0.842-11.13,2.645-6.67,4.629
							c1.43-0.957,3.029,1.53,5.337,1.683c0.164-1.874-3.292-2.606-4.002-4.206C128.147,14.012,130.199,10.13,128.015,11.16z"/>
						<path fill-rule="evenodd" clip-rule="evenodd" fill="#F77705" d="M233.722,27.483c-0.07-0.03-0.139-0.062-0.208-0.091
							c-0.042,0.058-0.075,0.119-0.13,0.176C233.501,27.535,233.61,27.511,233.722,27.483z"/>
						<path fill-rule="evenodd" clip-rule="evenodd" fill="#F77705" d="M230.719,10.742c-5.601,0.616-11.147,1.25-13.339,2.942
							c3.542,0.427,7.588,0.692,8.003,2.104c-2.042,3.893,1.099,8.496,8.131,11.604c2.584-3.601-14.216-9.162-1.459-12.023
							c-4.553-0.249-7.722-0.932-9.337-2.104C224.951,12.285,228.608,11.757,230.719,10.742z"/>
						<path fill-rule="evenodd" clip-rule="evenodd" fill="#F77705" d="M242.722,30.091c-8.259-3.402,13.288-10.063,2.67-9.255
							c-1.446-1.077,4.051-2.006,0-2.524c-3.613,3.36-1.849,6.963-9.338,9.676c0.067-0.73-0.883-0.865-2.332-0.505
							C236.25,28.578,239.269,29.482,242.722,30.091z"/>
						<path fill-rule="evenodd" clip-rule="evenodd" fill="#F77705" d="M84,11.583c-2.13,0.312,0.304,2.059-4.003,1.683
							c-0.208-0.496,0.229-1.194-1.333-1.262c3.507,3.394,3.429,7.127,4,10.096c5.327-0.414,2.557,1.305,5.335,2.524
							c-0.652-1.329,2.405-1.487,1.336-2.946c-4.786-0.313-5.819-1.81-5.335-3.785c0.817,0.123,5.136,1.045,5.335,0
							C79.7,17.521,87.443,13.143,84,11.583z"/>
						<path fill-rule="evenodd" clip-rule="evenodd" fill="#F77705" d="M312.081,27.568c1.127-2.566-0.162-7.623,2.459-9.91
							c-0.594,0.4-2.053,0.744-2.459,0.234c0.974-3.059,9.022-3.887,12.005-6.31c-5.784-0.281-3.073,2.116-9.337,1.683
							c0.275,1.207-0.338,2.137-2.668,2.523c-2.202-0.007-0.744-1.166-2.665-1.263c-2.55,2.903,3.683,7.69-2.672,9.675
							C310.549,24.685,309.868,26.583,312.081,27.568z"/>
						<path fill-rule="evenodd" clip-rule="evenodd" fill="#F77705" d="M196.039,17.471c0.625-1.485-2.18-4.054,4.002-3.787
							c-0.101,0.591,0.298,1.61,1.334,0.842c-0.738-0.749-0.686-1.747-2.667-2.103c-1.973,1.061-5.16,1.738-9.338,2.103
							c-0.12,1.149,2.221,0.848,0,1.684C197.319,14.791,191.534,17.541,196.039,17.471z"/>
						<path fill-rule="evenodd" clip-rule="evenodd" fill="#F77705" d="M246.723,13.265c14.638,3.587,7.382,12.498,21.342,15.564
							c0.132-2.004-5.612-2.157-5.335-4.206c2.154-0.7,9.613-2.362,4.002-2.946c1.453,1.721-4.59,1.078-5.335,2.105
							c-0.642-2.615-3.948-4.573,1.333-6.312C254.908,16.854,254.988,13.743,246.723,13.265z"/>
						<path fill-rule="evenodd" clip-rule="evenodd" fill="#F77705" d="M3.97,26.726c0.738-0.75,0.686-1.747,2.669-2.103
							c3.242,0.938,0.817,3.667,5.334,4.206c0.162-2.627-2.711-3.078-4-5.889c3.04-0.578,5.014,1.084,5.333,0
							c-6.744-0.354,3.771-1.655-1.333-2.525c0.406,1.109-2.785,1.085-5.334,1.262c-0.546-1.369-2.784-2.207-5.334-2.943
							c2.182-1.276,1.041-3.598,5.334-4.208c-15.644,1.856-2.675,4.53-1.334,7.151C6.504,24.021,0.707,24.669,3.97,26.726z"/>
						<path fill-rule="evenodd" clip-rule="evenodd" fill="#F77705" d="M22.643,14.948c-4.406,2.646-5.674,6.435,2.669,7.993
							c0.676-0.698-2.211-3.404-4.001-2.525C20.03,18.56,26.535,15.828,22.643,14.948z"/>
						<path fill-rule="evenodd" clip-rule="evenodd" fill="#F77705" d="M318.751,31.773c1.463,2.279,2.627,4.781-4.002,5.469
							c4.2-0.202,0.998,1.93,4.002,2.105c0.422-1.395,0.932-4.4,4-2.523C322.968,34.789,326.666,32.414,318.751,31.773z"/>
						<path fill-rule="evenodd" clip-rule="evenodd" fill="#F77705" d="M321.418,26.726c6.813,0.818-2.269,4.059,2.668,5.469
							c0.646-0.75,1.422,0.184,2.668,0.42c-1.433-4.266,0.112-7.172,0-10.516c1.972,0.219,3.359,0.623,5.335,0.842
							c-4.057-2.68-4.598-4.148-2.67-7.993C321.642,17.505,326.36,24.434,321.418,26.726z"/>
						<path fill-rule="evenodd" clip-rule="evenodd" fill="#F77705" d="M47.54,19.154c0,0.561,0,1.121,0,1.683
							c5.14-0.366,5.636,1.027,8.893,1.263c0.372-1.228,0.126-1.446-2.223-0.842c-3.629-2.101,5.539-1.977,2.892-4.627
							c-1.544,0.827-3.702,2.815-7.45,1.682C49.818,19.476,51.652,19.757,47.54,19.154z"/>
						<path fill-rule="evenodd" clip-rule="evenodd" fill="#F77705" d="M128.015,18.734c1.699,0.084,6.533,1.223,6.669,0.42
							c-4.261-0.059-2.94-1.877-5.335-2.523C129.894,17.643,126.913,17.543,128.015,18.734z"/>
						<path fill-rule="evenodd" clip-rule="evenodd" fill="#F77705" d="M26.645,23.36c1.212,3.429,1.972,7.216,13.338,9.255
							c-0.996-1.994-6.267-3.7-9.335-3.785c-0.203-3.31-1.887-6.461,6.667-7.993c-1.513-1.845,0.01-1.382,1.334-2.944
							C32.015,18.884,33.962,22.583,26.645,23.36z"/>
						<path fill-rule="evenodd" clip-rule="evenodd" fill="#F77705" d="M145.355,40.188c-3.163-2.335-10.567-2.701-8.004-6.312
							c-1.32,1.267-4.719,1.877-4,3.787c5.062,0.927,10.156,1.844,13.337,3.365c-1.158,3.422-1.331,7.152-5.336,9.675
							c5.34,0.421,3.955,2.96,10.671,2.944c-0.39-2.394-6.817-2.01-6.668-4.627c0.047-0.838,4.954-2.297,5.334-3.365
							c-0.169,0.469-4.445-2.328-2.669-3.365c1.684-0.98,2.141-2.986,5.337-4.627c13.74,3.74,1.089,12.545,18.673,15.144
							c-4.889-3.858-7.842-6.194-9.337-10.096c3.819-0.591,7.28,1.306,6.67-0.421c-5.334-0.801,0.443-2.846-1.335-5.049
							c2.323-0.03,4.148,0.094,5.338,0.422c-0.834-0.999-1.795-1.958-5.338-2.104c-2.729,1.662,0.269,5.132-8.002,5.047
							c2.555-1.614-2.413-2.699-4.001-4.206c0.148-1.075,2.445-1.472,4.001-2.102c-5.396-4.718-2.802-8.077-1.336-12.2
							c-2.737-0.399-1.128-2.168-5.333-2.104c5.036,3.098-3.624,11.229,4.001,14.304C150.774,35.445,152.65,39.263,145.355,40.188z"
							/>
						<path fill-rule="evenodd" clip-rule="evenodd" fill="#F77705" d="M51.987,30.933c-1.73-1.043,2.977-2.043,0-2.104
							c-0.281,0.473-1.479,0.654-2.668,0.842c-2.608-3.234,0.152-5.846-4-8.835c-1.721,5.179,4.934,12.791-10.67,15.987
							c3.872,0.739,5.268,2.262,10.67,2.523c-4.905-3.473-3.649-2.297-2.669-5.471c2.445,0.164,4.518,0.668,6.669,0
							c-1.926-1.002-2.023-1.032-4-1.262C47.485,31.59,47.255,30.113,51.987,30.933z"/>
						<path fill-rule="evenodd" clip-rule="evenodd" fill="#F77705" d="M134.684,20.836c-2.021,1.171-6.218,5.718-5.335,5.048
							c0.322-0.74,2.294-0.959,5.335-0.842c-0.262,1.205-0.167,2.297,4,2.104C135.958,25.263,134.442,22.48,134.684,20.836z"/>
						<path fill-rule="evenodd" clip-rule="evenodd" fill="#F77705" d="M15.976,21.257c1.951,1.172-1.894,2.5,2.666,3.366
							C17.066,22.789,20.391,22.022,15.976,21.257z"/>
						<path fill-rule="evenodd" clip-rule="evenodd" fill="#F77705" d="M97.337,21.257c-2.652,4.014-1.595,7.863,2.669,10.516
							c-1.765,0.005-2.321,0.738-3.77,0.842c-0.298-0.326-1.406-0.83-2.435-0.842c0,0.702,0,1.402,0,2.104
							c5.142,0.457,3.998-3.169,9.104-1.682c-3.752-2.775-3.694-4.759-6.117-8.412c1.338,0,1.86-0.342,2.942-0.423
							c0.432,0.485,5.955,1.449,6.807,0.423c-8.321-0.123,1.978-2.228-3.933-2.105C102.224,23.735,97.791,21.763,97.337,21.257z"/>
						<path fill-rule="evenodd" clip-rule="evenodd" fill="#F77705" d="M212.044,21.677c4.131,1.816,1.884,3.591,5.336,5.049
							c-1.089-1.605,2.839-1.628,5.338-2.103c-0.633,0.819,3.587,2.149,3.998,1.261c-1.788-0.276-2.482-0.9-2.666-1.684
							c-6.907,0.216-6.752-1.795-9.339-2.943C214.785,22.044,213.687,22.146,212.044,21.677z"/>
						<path fill-rule="evenodd" clip-rule="evenodd" fill="#F77705" d="M74.663,36.824c-4.354-2.662,0.389-5.135,0-6.732
							c-2.422,0.92-2.186,2.676-8.005,2.523c-0.079-3.894-9.684-5.604-8.002-8.832C52.539,28.664,68.479,33.097,74.663,36.824z"/>
						<path fill-rule="evenodd" clip-rule="evenodd" fill="#F77705" d="M337.425,24.624c-4.876,7.232-4.551,12.348,6.666,18.509
							c-1.468-2.006,1.704-2.549,4.003-3.367c-6.255-0.409-8.042-2.23-10.669-3.785c1.972-1.059,6.34-1.364,5.335-3.365
							c1.867,0.032,5.1-0.092,2.667-0.42c-5.399,0.121-5.592,1.882-8.002,2.943c-0.321-0.601-2.198-0.709-2.669-1.262
							c2.756-1.736,1.786-4.128,6.669-3.364C336.344,28.452,344.895,25.562,337.425,24.624z"/>
						<path fill-rule="evenodd" clip-rule="evenodd" fill="#F77705" d="M138.684,32.195c-5.16-4.146-11.695-5.263-20.004-7.152
							c-0.965,1.285,1.362,1.534,1.333,2.525c-11.213,2.814-23.697,12.184-8.004,15.564c-2.727-1.548-8.778-3.994-2.668-5.891
							c1.904,0.102,2.249,0.693,4.003,0.842c-5.468-2.021-0.431-2.693-4.003-4.627c2.544-0.18,2.416-1.202,6.67-0.842
							c-0.005,0.233,1.08,0.477,1.334,0c-3.408-0.045-2.649-1.408-2.667-2.523c7.739,0.896,2.314-1.953,8.002-2.944
							c6.654,1.547,12.077,3.151,13.626,6.31c7.477-0.254,4.789,2.181,10.957,2.523c0-0.279,0-0.561,0-0.842
							c1.027-0.023,2.625-0.062,2.381-0.42C141.904,34.957,146.033,30.839,138.684,32.195z"/>
						<path fill-rule="evenodd" clip-rule="evenodd" fill="#F77705" d="M208.044,25.042c-5.398,1.217,4.771,4.203,8.003,3.787
							c-2.874-0.355-1.125-2.168-4.003-2.523C208.989,28.03,210.267,24.963,208.044,25.042z"/>
						<path fill-rule="evenodd" clip-rule="evenodd" fill="#F77705" d="M177.365,25.464c-9.401,1.241-9.477,5.424-14.672,7.992
							c8.559,0.125,2.668-3.092,9.337-4.207c1.312,0.568,3.559,0.841,5.335,1.263c0.181-1.818-4.227-0.905-5.335-2.944
							C176.224,27.628,176.614,26.49,177.365,25.464z"/>
						<path fill-rule="evenodd" clip-rule="evenodd" fill="#F77705" d="M196.039,34.299c-2.19-0.921-4.251-2.677,2.669-2.526
							c-4.603-1.797-0.133-3.728,1.333-5.889C191.233,27.104,190.31,33.451,196.039,34.299z"/>
						<path fill-rule="evenodd" clip-rule="evenodd" fill="#F77705" d="M277.402,37.664c15.382,2.716,6.431,10.554,24.008,12.619
							c-0.14-1.076-0.754-2.004-2.667-2.523c-0.225,0.49-2.109,0.458-4,0.42c-0.207-2.88-7.74-5.643-1.337-7.15
							c-0.089-1.966-3.048,0.492-5.335,0.421c-6.617-2.63,4.141-6.347,1.332-8.835c-3.461,1.57-2.265,4.613-9.334,5.049
							c0.411-2.232-4.481-2.793-5.336-4.628c3.195,0.167-0.739-1.915,4.003-1.263c-5.349-1.854-3.388-3.758,0-5.889
							c-11.488,1.614-3.535,5.15-8.004,7.992C275.193,34.433,277.476,35.676,277.402,37.664z"/>
						<path fill-rule="evenodd" clip-rule="evenodd" fill="#F77705" d="M318.751,27.568c-9.67,0.457-10.809,3.602-14.672,5.889
							c3.638,0.307,2.684-0.836,5.337-0.842c0.441,0.98,1.363,1.813,3.997,2.104c-1.828-1.332-5.316-4.376,0-5.469
							c2.503,0.475,2.836,1.629,5.338,2.104C318.738,29.512,313.831,28.757,318.751,27.568z"/>
						<path fill-rule="evenodd" clip-rule="evenodd" fill="#F77705" d="M289.403,27.988c-2.646,1.02-5.73,1.86,0,2.524
							c0.307-0.745-1.342-2.107,2.669-1.683c0.749,0.605,2.081,1.025,4.004,1.262C295.532,28.86,291.512,28.727,289.403,27.988z"/>
						<path fill-rule="evenodd" clip-rule="evenodd" fill="#F77705" d="M185.367,35.98c-1.168-1.553,0.822-6.629,0-7.15
							c-0.292,0.328-1.114,0.488-2.667,0.42c1.426,2.271-1.662,3.121-2.664,4.627C183.17,33.561,183.798,34.769,185.367,35.98z"/>
						<path fill-rule="evenodd" clip-rule="evenodd" fill="#F77705" d="M218.714,28.408c-0.49,1.935,4.803,5.427,6.669,7.993
							c-1.222,1.709-9.961,3.628-4.002,5.049c1.433-1.093,3.241-2.063,2.669-3.786c5.77,0.67,8.389-1.805,6.669-2.104
							c0.57,0.696-4.974-0.038-5.336-0.422C228.775,33.44,222.77,30.214,218.714,28.408z"/>
						<path fill-rule="evenodd" clip-rule="evenodd" fill="#F77705" d="M250.728,28.83c-0.804,0.117-1.526,0.25-2.218,0.391
							C249.503,29.168,250.693,29.182,250.728,28.83z"/>
						<path fill-rule="evenodd" clip-rule="evenodd" fill="#F77705" d="M236.054,43.552c1.093,1.197,3.011,2.136,6.668,2.524
							c1.488-1.871-3.528-1.69-4.001-2.944c4.593,0.171,4.407-1.787,8.002-2.944c-0.127-1.57-5.206-0.031-5.334-0.841
							c1.384-3.691-1.037-6.373,8.004-7.152c-0.418-0.971-2.035-1.561-1.361-2.877C234.19,32.322,243.082,39.744,236.054,43.552z"/>
						<path fill-rule="evenodd" clip-rule="evenodd" fill="#F77705" d="M248.031,29.318c0.155-0.033,0.32-0.066,0.479-0.098
							c-0.156,0.008-0.31,0.018-0.452,0.029C248.043,29.274,248.043,29.292,248.031,29.318z"/>
						<path fill-rule="evenodd" clip-rule="evenodd" fill="#F77705" d="M118.68,33.457c0.606,1.351,5.19,1.448,8.002,2.104
							c-1.147-1.313-3.905-1.811,0-2.945c-0.071,0.724,1.025,1.079,2.667,1.262c-1.201-1.33-4.021-1.846-1.334-3.364
							c-2.521-0.095-2.943,0.474-5.335,0.421c-0.15-0.514-0.397-0.996-2.667-0.842c-0.071,1.285,4.803,1.01,4.001,2.523
							C122.808,33.349,121.03,34.236,118.68,33.457z"/>
						<path fill-rule="evenodd" clip-rule="evenodd" fill="#F77705" d="M290.738,30.091c4.834,2.687,8.96,7.826,14.674,8.833
							c-5.263-1.97,2.503-3.501-2.668-5.048c-0.647,0.498-1.421,0.955-2.668,1.262C298.553,32.957,295.609,31.22,290.738,30.091z"/>
						<path fill-rule="evenodd" clip-rule="evenodd" fill="#F77705" d="M314.237,55.272c0.21-0.099,0.388-0.215,0.512-0.36
							C314.521,55.017,314.36,55.139,314.237,55.272z"/>
						<path fill-rule="evenodd" clip-rule="evenodd" fill="#F77705" d="M301.41,45.656c2.521,0.094,2.941-0.474,5.334-0.42
							c-1.932,2.995,3.081,10.118-1.332,12.619c3.64,0.038,2.685-0.701,5.335,0c0.302-0.744-1.345-2.105,2.666-1.684
							c-0.906,1.538-1.859,3.06-1.332,5.049c6.797-0.586-0.268-4.26,1.271-5.948c-1.316,0.61-4.686,0.339-5.712,0.059
							c0-1.122,0-2.243,0-3.364c3.085-0.088,6.584,1.785,7.555,0.841c-5.687-0.06,2.265-1.877-2.223-2.524
							c-3.237,0.569-0.61,0.842-2.446,1.264c-0.295-0.328-1.007-0.488-2.557-0.422c2.829-1.07-0.825-4.203,5.39-4.207
							c-7.966-1.273-6.15-5.623-11.977-7.57c1.496,1.771,0.714,4.264,4.015,5.468C303.103,44.792,301.993,45.138,301.41,45.656z"/>
						<path fill-rule="evenodd" clip-rule="evenodd" fill="#F77705" d="M69.325,44.394c-3.93,0.441-7.299,1.063-9.335,2.105
							c1.384,1.26,3.426,4.505,9.335,2.941c-5.004-0.207,0.832-2.162-5.332-2.523c0.928-1.25,4.377-1.704,6.669-2.523
							c3.096,0.285,3.568,1.397,6.668,1.683c-4.938-1.267-3.481-4.495-2.667-5.47c-2.816,0.375-2.317,1.794-6.669,1.684
							c-5.389-4.114-11.887-7.426-13.339-11.778c-3.422,2.074,1.655,4.216-2.668,5.889C63.756,37.178,62.421,42.083,69.325,44.394z"
							/>
						<path fill-rule="evenodd" clip-rule="evenodd" fill="#F77705" d="M369.326,31.938c0-0.192,0.661-0.388,0.275-0.585
							c-2.443,5.356-6.839,9.424-6.085,13.883c0.424-0.719,4.419,0.387,5.627-0.842c-2.347-0.102-4.062-0.725-3.688-1.683
							c2.56,0.116,1.813,1.024,3.87,1.229v-1.336c-1.029-0.915-3.107-0.829-4.892-1.576c3.638-0.76,0.779-2.576,4.892-2.276v-0.556
							c-2.057-1.436-1.029-2.741,0-4.051V31.938z"/>
						<path fill-rule="evenodd" clip-rule="evenodd" fill="#F77705" d="M201.375,32.615c0.004-0.232-1.079-0.477-1.334,0
							c8.369,1.018,1.405,4.172-1.333,4.209c0.342,0.871,5.858,0.113,6.667,0.84c1.833-0.959-3.438-1.582,0-1.684
							c9.181,2.168-3.466,4.115-5.334,6.311c-0.991,1.164,2.361,4.879-2.669,4.209c-0.225,1.051,2.051,1.314,4.003,1.68
							c1.294-2.139-1.878-4.205,5.334-5.047c0.906,1.538,4.161,2.334,8.002,2.944c-0.409-0.983-2.61-1.737,0-2.524
							c-2.521-0.094-2.942,0.475-5.333,0.42c-0.008-1.119-3.71-1.072-5.336-1.682c3.89-0.877,3.298-3.166,9.337-3.366
							c-3.896-2.472-7.369-4.126-6.67-7.151C202.396,31.253,205.69,33.136,201.375,32.615z"/>
						<path fill-rule="evenodd" clip-rule="evenodd" fill="#F77705" d="M189.37,33.036c-5.895,3.212,2.57,5.181,0,7.993
							c2.539,0.182,3.351,0.906,6.669,0.842c-6.62-1.494,1.911-3.315,0-4.207c-0.746,0.605-2.081,1.025-4,1.261
							C187.435,36.709,194.7,35.44,189.37,33.036z"/>
						<path fill-rule="evenodd" clip-rule="evenodd" fill="#F77705" d="M262.729,36.824c0.319-0.459,2.195-1.012,2.668-0.423
							c-2.701,0.999-3.563,2.832,0,3.787c3.641-1.969-1.906-4.785,4.002-5.47c-0.349-0.592-2.928-0.48-4.002-0.842
							C268.398,35.839,258.085,35.734,262.729,36.824z"/>
						<path fill-rule="evenodd" clip-rule="evenodd" fill="#F77705" d="M53.025,49.261c0.188-0.191,0.3-0.408,0.298-0.661
							C53.237,48.816,53.132,49.038,53.025,49.261z"/>
						<path fill-rule="evenodd" clip-rule="evenodd" fill="#F77705" d="M51.987,65.847c-1.103,1.191,1.88,1.09,1.336,2.105
							c3.075,2.731-0.555-3.748,0-5.471c1.06-0.047,4.041-1.391,1.332-1.262c-1.795,0.696-3.409,1.448-6.668,1.683
							c-1.735-4.282,3.104-9.555,5.038-13.642c-0.859,0.879-3.431,1.219-5.038,1.863c-2.192-2.796,2.555-6.902,8.002-7.152
							c-7.629-1.693,4.274-3.07,0-4.625c0.171,0.753-1.325,0.982-4.002,0.841c-1.025-1.585,1.628-2.011,1.336-3.364
							c-9.157,2.406,4.029,8.121-8.004,10.094c1.123-1.896-3.123-2.1-4.002-3.365c-0.383-0.742,6.282-1.303,2.668-1.682
							c-0.372,0.863-3.563,0.84-5.337,1.262c2.521-1.432-4.02-3.064-3.999-5.049c-5.653,2.754,5.201,4.379,3.999,6.731
							c15.724,2.45,1.124,14.366,9.339,19.351c-2.219,0.844-3.582,1.955-8.005,2.104c-7.706-3.168-4.657-4.233,2.668-7.152
							c-11.025,1.431-14.2,5.336-20.008,8.414c6.399,0.646,7.002,3.121,9.337,5.048c-4.819,1.581-12.082,6.349-6.668,8.414
							c-0.918-1.399,2.758-0.677,4.002-0.422c-2.408-1.399-2.456-1.985-2.669-4.626c5.79-0.633,4.395-3.564,10.67-2.945
							c-1.547-0.188-1.504-1.848-2.665-2.523c0.271,0.158-0.732,1.037-1.336,0.841c-4.768-1.552-6.318-4.746-1.334-7.993
							c5.978,2.129,11.467,4.062,6.669,7.574c8.569,0.216-2.556-3.515,8.004-2.945c-2.487-1.463,0.679-2.227,2.667-3.365
							C50.997,64.759,52.046,65.128,51.987,65.847z"/>
						<path fill-rule="evenodd" clip-rule="evenodd" fill="#F77705" d="M181.366,46.077c-4.313-1.802-0.284-7.133,1.034-7.905
							c-2.587,0.749-4.097-0.152-6.367-0.508C179.309,40.81,173.647,44.25,181.366,46.077z"/>
						<path fill-rule="evenodd" clip-rule="evenodd" fill="#F77705" d="M182.4,38.171c0.1-0.027,0.196-0.055,0.3-0.088
							C182.636,38.064,182.53,38.097,182.4,38.171z"/>
						<path fill-rule="evenodd" clip-rule="evenodd" fill="#F77705" d="M320.085,41.029c-5.884,0.6-4.488-1.412-6.672-2.945
							c-2.138,1.93-0.095,2.857,0,5.049c4.977-0.448,2.112,1.576,6.672,1.262C317.609,43.353,316.165,41.973,320.085,41.029z"/>
						<path fill-rule="evenodd" clip-rule="evenodd" fill="#F77705" d="M253.395,55.752c2.178,0.761,5.213,1.366,9.335,0.841
							c0.184,0.783,0.877,1.405,2.668,1.684c0.678-2.039-6.112-1.719-4.001-4.207c4.743-0.326,5.028-2.061,9.336-2.523
							c2.853,3.092,6.523,5.328,8.004,7.992c-0.072-0.725,1.025-1.079,2.667-1.262c-3.769-2.025-6.571-5.648,1.333-5.47
							c-2.759-1.692-4.2,0.142-8.003,0.422c-1.314-0.989-2.338-2.067-2.667-3.365c6.224,0.044,0.208-0.73,5.336-1.685
							c2.031,0.375,5.692,2.367,8.001,1.262c-3.627-0.254-5.228-1.154-5.334-2.523c1.154-0.921,7.122-2.49,4-3.365
							c-2.831,1.211-3.517,3.1-9.336,3.365c-4.629-3.49,3.225-6.133,2.669-7.993c-2.155,1.003-3.67,2.209-8.003,2.525
							c-0.129-0.662,0.176-1.458-2.668-1.262c3.687,2.202,4.316,5.369,8.002,7.571c-5.538,1.619-8.03,4.197-13.337,5.889
							c-5.77-2.391-3.04-6.836,2.667-7.571c-1.025-1.585,1.628-2.011,1.334-3.365C248.629,45.191,263.021,55.271,253.395,55.752z"/>
						<path fill-rule="evenodd" clip-rule="evenodd" fill="#F77705" d="M232.055,52.807c-0.654,1.477-3.402,2.293-5.339,3.364
							c4.939-0.294,2.301,1.801,5.339,2.105c1.913-1.123,4.105-4.818,0-2.105c-0.136-1.302,0.603-2.332,2.665-2.942
							c1.902,0.1,2.25,0.69,4.001,0.841c-1.184-1.463-1.72-3.381-6.666-2.523c-3.115-3.023-8.356-5.434-2.669-8.835
							c1.973,0.22,3.36,0.622,5.334,0.841c0.031-0.99-2.297-1.239-1.336-2.523c-7.226,0.245-6.091,3.127-10.666,4.207
							c-3.471-1.707-0.729-3.496-6.671-3.786C220.234,45.597,225.867,49.289,232.055,52.807z"/>
						<path fill-rule="evenodd" clip-rule="evenodd" fill="#F77705" d="M140.019,41.871c-1.214,0.738-4.673,0.769-6.667,1.262
							c-0.358,2.94-4.202,4.686-8.005,5.468c3.258,0.236,2.843,1.628,8.005,1.264c-0.989-2.545-1.235-4.476,4-5.892
							c0.348,0.594,2.925,0.482,4.001,0.843C138.994,43.897,141.514,42.092,140.019,41.871z"/>
						<path fill-rule="evenodd" clip-rule="evenodd" fill="#F77705" d="M193.371,45.236c-2.714-0.406-2.88-1.617-2.668-2.945
							c-3.319-0.064-4.128,0.66-6.67,0.842C183.843,44.616,191.332,45.851,193.371,45.236z"/>
						<path fill-rule="evenodd" clip-rule="evenodd" fill="#F77705" d="M254.727,42.711c-4.316-0.519-1.019,1.362-5.334,0.841
							c0.012,0.617-0.505,3.443,1.335,2.104C249.366,43.826,253.485,43.722,254.727,42.711z"/>
						<path fill-rule="evenodd" clip-rule="evenodd" fill="#F77705" d="M97.337,55.752c-0.336-4.309-16.405-5.192-12.004-9.676
							c-9.01,1.448,1.854-2.622-5.336-2.944c0.935,1.836-2.266,2.369-1.333,4.206C87.399,49.351,88.402,53.802,97.337,55.752z"/>
						<path fill-rule="evenodd" clip-rule="evenodd" fill="#F77705" d="M217.38,59.539c3.639-0.172,11.382,1.916,9.336,0.842
							c-2.323-0.381-5.137-0.941-2.666-1.683c-7.712,0.192-1.825-1.29-1.332-2.104C216.54,57.035,219.355,58.4,217.38,59.539z"/>
						<path fill-rule="evenodd" clip-rule="evenodd" fill="#F77705" d="M216.047,59.117c2.034-2.611,1.286-3.705,6.353-5.363
							c-2.761-1.893,0.385-4.586-3.686-6.415C218.197,52.474,212.696,56.121,216.047,59.117z"/>
						<path fill-rule="evenodd" clip-rule="evenodd" fill="#F77705" d="M225.383,54.912c-1.141-0.27-1.973-0.578-2.587-0.916
							C223.06,54.49,224.032,54.76,225.383,54.912z"/>
						<path fill-rule="evenodd" clip-rule="evenodd" fill="#F77705" d="M222.718,53.648c-0.115,0.036-0.209,0.07-0.318,0.105
							c0.12,0.084,0.255,0.162,0.396,0.242C222.739,53.89,222.705,53.777,222.718,53.648z"/>
						<path fill-rule="evenodd" clip-rule="evenodd" fill="#F77705" d="M245.392,52.807c-0.34-2.436-3.527-2.611-1.336-5.048
							c-1.834,0.02-2.93-0.197-4.001-0.421c1.198,1.921-2.221,2.384-2.667,3.786c2.522,0.094,2.941-0.473,5.334-0.421
							c2.151,1.564,1.334,4.069,5.336,5.049c-1.528-1.324,2.095-1.022,2.67-1.683c-5.861-1.191,0.845-1.535,1.332-2.945
							C247.495,50.947,248.052,52.384,245.392,52.807z"/>
						<path fill-rule="evenodd" clip-rule="evenodd" fill="#F77705" d="M184.033,62.903c1.545,1.026,6.284-0.468,2.669-0.841
							c-1.87,0.673-4.594,1.076-8.002,1.262c1.721-1.141,3.263-2.334,2.666-4.207c1.779-0.062,4.025,1.711,5.336,0.422
							c-9.927-2.281-3.691-7.07-8.002-10.938c-9.055,4.265,7.072,10.593-2.667,14.724c3.556,1.123,6.897,2.311,12.003,2.945
							C188.032,64.728,181.794,65.154,184.033,62.903z"/>
						<path fill-rule="evenodd" clip-rule="evenodd" fill="#F77705" d="M293.406,49.864c-3.257-1.067-2.841,0.886-8.003,0.419
							c3.271,2.754,9.154,4.686,17.341,5.889c0.333-1.227-2.512-1.449-4.001-2.102c-0.572-0.93,8.014-1.053,4.001-1.682
							c-2.417,0.357-3.678,1.082-6.668,1.26c-3.366-0.621-5.514-1.627-6.673-2.944C291.7,50.727,292.825,50.38,293.406,49.864z"/>
						<path fill-rule="evenodd" clip-rule="evenodd" fill="#F77705" d="M354.763,67.111c-1.885-2.385-8.55-1.832-8.003-4.208
							c-2.977,0.183-4.755,0.745-5.335,1.685c14.574,0.122,6.785,4.988,0,6.311c1.482,1.318,0.625,1.111-1.333,2.102
							c2.323-0.031,4.147,0.094,5.335,0.42c-1.543-3.571,6.088-4.249,8.002-6.73C353.505,66.946,353.629,67.188,354.763,67.111z"/>
						<path fill-rule="evenodd" clip-rule="evenodd" fill="#F77705" d="M350.761,63.746c-3.293-1.59,5.129-2.375,4.002-3.787
							c-0.25,0.622-3.225,0.387-5.335,0.422c-0.834-3.07,5.386-6.042,8.002-9.256c3.695,0.572,5.644,3.278,9.338,2.523
							c-2.81-0.603-5.742-2.695-9.338-4.207C349.593,53.017,342.844,61.15,350.761,63.746z"/>
						<path fill-rule="evenodd" clip-rule="evenodd" fill="#F77705" d="M126.682,54.07c-8.355-0.099,0.724-4.437-2.668-3.787
							c-1.206,0.733-2.983,1.622-5.334,0.842C116.289,53.44,124.092,54.722,126.682,54.07z"/>
						<path fill-rule="evenodd" clip-rule="evenodd" fill="#F77705" d="M66.658,73.419c0.037-1.973-6.621-1.838-6.668-3.785
							c1.276-1.98,4.198-3.444,6.668-5.047c4.809,0.043,4.64,3.839,9.338,2.523c-2.768-1.371-6.237-2.521-8.002-4.208
							c5.504-0.768,0.98-2.685,6.669-3.786c-6.422-1.389-4.652,2.866-9.336,3.365c-1.492-1.504-4.906-4.605-2.668-5.889
							c2.102,0.038,1.043,1.074,3.999,0.842c-1.632-1.78-4.243-4.712,2.667-2.944c0.974-1.148-2.647-0.849-2.667-1.684
							c1.45-0.101,3.203-0.692,1.336-0.841c-11.852,2.529-9.063,8.385-2.667,12.199c-2.973,2.287-9.146,3.566-9.338,6.732
							C60.222,71.524,63.253,72.53,66.658,73.419z"/>
						<path fill-rule="evenodd" clip-rule="evenodd" fill="#F77705" d="M204.042,59.117c-3.37-2.246-6.098-4.461,0-6.729
							c-0.712,0.873,5.197,0.891,1.333,0.419c-2.631-0.292,0.329-2.347-2.666-2.524c-4.104,1.952-2.744,3.834-8.003,5.889
							C196.946,57.429,200.059,58.411,204.042,59.117z"/>
						<path fill-rule="evenodd" clip-rule="evenodd" fill="#F77705" d="M193.371,55.331c-3.604-1.105-0.816-4.229-8.004-4.206
							C187.798,52.601,189.269,54.382,193.371,55.331z"/>
						<path fill-rule="evenodd" clip-rule="evenodd" fill="#F77705" d="M107.168,53.648c0,0.561,0,1.121,0,1.683
							c6.168,0.058,3.368,3.488,7.755,4.208c0.192-1.435-0.498-4.578,3.213-2.525c-0.982-1.895-3.318-1.378,0.271-2.943
							c-4.188-0.2-4.474,1.132-7.62,1.261C108.938,55.072,109.225,53.712,107.168,53.648z"/>
						<path fill-rule="evenodd" clip-rule="evenodd" fill="#F77705" d="M146.688,54.07c-0.32,0.738-2.295,0.958-5.336,0.842
							c0.936,1.293,0.936,0.808,0,2.102c14.06,2.48,0.165,11.544,2.668,14.304c0.185-0.782,0.879-1.405,2.668-1.683
							c5.831,1.05,4.523,5.041-1.333,5.889c4.34,2.501-0.681,8.565-8.004,6.732c-1.011,1.012-1.059,2.036,1.332,2.943
							c0.283-0.508,1.483-0.258,2.669,0c-3.898-1.885,8.436-2.201,5.336-5.469c3.917-0.867,5.734-2.398,9.337-3.365
							c-3.312-0.547-5.535,1.234-6.669,0c2.71-1.35,0.602-5.157,8.002-3.786c-4.518-1.634,5.149-2.601,1.332-3.785
							c-2.104,0.878-3.087,2.11-8.001,2.104c-4.127-2.199-2.896-6.474,0-8.836c5.972,3.713,19.405,8.172,14.672,12.62
							c5.046-0.878,1.982-1.386,6.669,0c-2.326-2.704-5.005-4.815-5.336-7.151c-0.207,0.496,0.229,1.193-1.333,1.263
							c-2.78-1.087,0.474-4.076-2.668-5.048c0.373,0.957-0.322,1.581-2.667,1.683c-3.901-2.409-9.543-4.084-9.337-6.73
							C145.16,58.66,147.376,55.591,146.688,54.07z"/>
						<path fill-rule="evenodd" clip-rule="evenodd" fill="#F77705" d="M282.736,59.539c-0.315,1.303-3.71,1.633-5.334,2.523
							c-3.338-0.631-3.055-2.402-6.67-2.945c2.535-1.052-1.107-1.651,1.334-2.945c-9.812,1.229-2.033,4.571,2.667,5.891
							c-2.33,1.617,2.193,3.097,6.67,3.785c0.334-1.227-2.512-1.451-4.001-2.102C278.028,62.244,286.854,61.138,282.736,59.539z"/>
						<path fill-rule="evenodd" clip-rule="evenodd" fill="#F77705" d="M258.729,66.689c5.073,0.619,0.262-1.881,5.334-1.261
							c1.417-1.569-5.002-0.667-4.001-2.104c-0.409-0.969,3.854-0.467,4.001-1.262c-4.265-0.318,1.396-3.111-1.334-2.945
							c-0.747,0.605-2.08,1.026-4,1.264c-2.578-0.871-3.25-2.34-5.335-3.367c-5.291-0.266-3.821,1.601-9.339,1.264
							c0.55,4.021-2.364,7.809,5.337,10.936c-12.269,3.283-13.379,10.084-28.012,12.621c2.552,1.48-1.264,2.041-2.667,3.365
							c3.406-0.047,4.669-0.771,6.669-1.262c-3.259-1.723,5.571-3.612,9.337-3.366c-2.346-0.101-3.039-0.726-2.665-1.681
							c9.452-2.09,10.804-6.088,16.003-7.992c4.558-0.316,1.696,1.707,6.669,1.26c-5.547-3.504-13.319-10.664-2.667-14.303
							C259.797,59.22,258.619,64.128,258.729,66.689z"/>
						<path fill-rule="evenodd" clip-rule="evenodd" fill="#F77705" d="M137.352,62.903c-0.294,0.329-1.117,0.489-2.668,0.421
							c-1.211-1.637-1.955-3.444,2.668-4.207c4.274-0.85,4.172,1.665,5.337,0.422c-0.571-0.801-3.814-0.762-2.67-2.104
							c-5.145,0.899-7.604,2.65-10.67,4.206C130.765,63.014,139.28,65.228,137.352,62.903z"/>
						<path fill-rule="evenodd" clip-rule="evenodd" fill="#F77705" d="M336.089,58.277c-2.599,0.721-4.04,1.809-8.003,2.104
							c1.757,2.803,0.596,6.853,1.333,8.832c5.094-2.74,3.197-5.062,1.335-8.412C333.854,62.01,336.977,58.243,336.089,58.277z"/>
						<path fill-rule="evenodd" clip-rule="evenodd" fill="#F77705" d="M304.079,58.698c-1.216,2.7-6.073,4.254-5.336,7.571
							c-1.576-0.061-3.023-0.75-4,0c1.895,1.311,4.117,0.264,6.667-0.422C298.66,64.261,309.428,61.104,304.079,58.698z"/>
						<path fill-rule="evenodd" clip-rule="evenodd" fill="#F77705" d="M100.006,63.324c4.427,2.163,13.525,4.732,6.667,7.993
							c0.863,0.743,6.06,2.252,8.005,1.262c-7.703-2.103-1.647-5.126,4.002-7.15c1.535,1.196,6.294,1.38,8.002,2.524
							c-3.365-2.629-13.833-4.449-6.669-7.994c-4.544-0.311-2.198,1.551-5.335,1.683c-0.3-0.327-0.036-0.83-1.334-0.841
							c1.131,2.471,5.823,5.799-4.003,6.311c-0.975-1.604-8.772-4.103-2.668-4.208c-3.437-0.101,1.832-0.724,0-1.683
							C103.585,61.648,100.466,62.066,100.006,63.324z"/>
						<path fill-rule="evenodd" clip-rule="evenodd" fill="#F77705" d="M317.416,60.8c-2.825,2.276,6.466,4.041,9.338,5.889
							C323.239,62.533,322.609,62.655,317.416,60.8z"/>
						<path fill-rule="evenodd" clip-rule="evenodd" fill="#F77705" d="M366.768,61.641c-6.652,3.066-14.898,4.515-6.669,6.73
							c-0.234-1.586,0.64-4.214,5.335-2.943C361.329,63.417,370.41,63.077,366.768,61.641z"/>
						<path fill-rule="evenodd" clip-rule="evenodd" fill="#F77705" d="M129.349,65.005c-2.203-0.936,0.284-2.28-1.334-2.523
							C125.686,63.033,123.141,65.154,129.349,65.005z"/>
						<path fill-rule="evenodd" clip-rule="evenodd" fill="#F77705" d="M286.738,70.898c-1.567-0.068-3.784,0.068-4.002-0.422
							c1.838-0.541,1.319-1.828,1.333-2.945c2.522-0.096,2.943,0.474,5.334,0.422c-3.732-1.359-2.532-4.332,4.003-3.365
							c1.745-1.301-3.782-2.389-5.335-1.264c-8.263,3.322-3.713,11.731-18.672,14.305c-0.061-2.558-4.405-2.547-8.003-4.629
							c-1.171,1.371,3.951,3.966,8.003,5.048c-6.486,2.307,3.868,4.509,0,7.571c2.695,0.975,4.434,2.249,9.337,2.526
							c-5.544-2.285-7.897-6.982-9.337-9.255C279.183,77.488,281.452,73.716,286.738,70.898z"/>
						<path fill-rule="evenodd" clip-rule="evenodd" fill="#F77705" d="M262.729,69.634c-0.235,3.29-16.903,5.414-8.003,8.835
							C253.396,75.075,266.959,72.125,262.729,69.634z"/>
						<path fill-rule="evenodd" clip-rule="evenodd" fill="#F77705" d="M274.733,73.841c2.116-1.189-4.33-2.668-5.334-4.207
							c3.309-0.547,6.473,0.938,6.668,0c-1.554-0.07-1.445-0.666-1.334-1.263c1.035-0.095,2.632-0.012,2.669-0.419
							c-3.213-0.172-2.9,0.767-6.67,0.419c-0.319-0.601-2.195-0.708-2.668-1.261c1.62-1.391,6.396-3.26,0-3.787
							c2.244,3.673-2.996,3.367-5.335,3.787C270.653,68.116,266.657,72.882,274.733,73.841z"/>
						<path fill-rule="evenodd" clip-rule="evenodd" fill="#F77705" d="M79.997,72.579c-1.309-1.647-3.985-3.374,1.334-4.626
							c0.146,0.333,4.41,1.273,4.002,0.419c-1.555-0.069-1.449-0.664-1.333-1.261c-2.483-0.402-4.458,1.259-5.336,0
							c1.318-1.209,4.435-1.836,1.333-3.365C79.225,66.225,68.211,71.347,79.997,72.579z"/>
						<path fill-rule="evenodd" clip-rule="evenodd" fill="#F77705" d="M198.708,89.828c-0.758-2.008-4.535-3.059-5.337-5.049
							c-3.353,1.301-8.132-2.727-4.001-3.786c5.021,0.519,5.592,2.443,8.002,3.786c4.195,0.06,4.582-1.079,5.337-2.104
							c-10.786,0.57-11.112-5.35-14.673-8.414c2.521-0.095,2.943,0.475,5.335,0.421c-0.364-0.837-5.728-3.038,0-2.104
							c-7.442-2.61,7.431-5.604,2.668-7.573c-15.375,5.273-3.907,12.256-12.006,19.353
							C192.979,84.902,191.787,88.644,198.708,89.828z"/>
						<path fill-rule="evenodd" clip-rule="evenodd" fill="#F77705" d="M100.006,86.46c-0.546,0.529-1.722,0.859-4.002,0.842
							c-5.761-5.756,0.11-8.67,6.669-12.62c-5.071-2.888-7.239-6.691-13.338-9.254c-1.027,1.179,3.655,4.101,2.667,5.47
							c3.701-0.729,4.303,3.115,8.004,3.784c-9.345,3.363-6.597,10.54-21.342,12.199c-0.606,2.015,1.446,3.19,5.336,3.787
							c-4.511-3.165,2.438-4.689,6.668-6.311c7.905,0.669-0.159,6.329,5.336,5.89c-0.421-0.568-1.897-0.803-1.335-1.684
							C98.515,89.611,103.082,87.337,100.006,86.46z"/>
						<path fill-rule="evenodd" clip-rule="evenodd" fill="#F77705" d="M101.339,67.111c-2.91-0.076-4.243,0.344-4.002,1.261
							c1.245,0.449,4.921,0.132,4.002,1.263C108.376,69.49,95.737,68.193,101.339,67.111z"/>
						<path fill-rule="evenodd" clip-rule="evenodd" fill="#F77705" d="M205.375,78.047c0.999-1.296-4.599-0.512-2.666-2.103
							c1.835,0.018,2.929-0.199,4-0.422c0.126,0.66-0.178,1.457,2.669,1.264c-0.918-1.547-3.413-3.904,2.666-4.208
							c-4.724-0.046,2.836-1.39-1.333-1.262c-3.741,1.062-7.368-2.859-1.333-2.104c0.372-0.958-0.322-1.581-2.669-1.682
							c-4.058,2.096-5.368,3.969,0,5.048c-1.215,1.87-9.792,3.629-6.668,5.469C200.62,75.945,202.4,78.375,205.375,78.047z"/>
						<path fill-rule="evenodd" clip-rule="evenodd" fill="#F77705" d="M369.326,72.263c0,0.137-0.198,0.249-1.06,0.315
							c1.416-1.957-5.997-2.342-2.083-3.785c-3.308-0.063-7.349-0.078-7.546,0.841c4.879,0.877,5.547,2.878,10.688,3.602V72.263z"/>
						<path fill-rule="evenodd" clip-rule="evenodd" fill="#F77705" d="M306.744,76.365c-1.014-3.184,3.615-0.25,4.003-0.842
							c-2.315-2.295-0.645-3.154,1.334-5.468C306.824,70.736,302.075,75.261,306.744,76.365z"/>
						<path fill-rule="evenodd" clip-rule="evenodd" fill="#F77705" d="M368.103,73.419c-7.731,0.368-5.901,3.748-13.34,4.209
							c-6.146-3.351,2.943-5.514,2.667-7.573c-10.9,2.892-7.315,7.601,2.669,10.095c-5.108,1.896-8.854,4.222-12.005,6.731
							c10.237-0.417,6.513-5.237,14.671-6.311c0.004-1.402-4.339-1.436-4-2.942C361.607,76.139,367.537,75.626,368.103,73.419z"/>
						<path fill-rule="evenodd" clip-rule="evenodd" fill="#F77705" d="M324.086,80.571c-5.264-1.776,2.583-3.192-2.668-4.206
							c-0.209,0.494,0.229,1.193-1.333,1.264c-2.738-1.386,2.512-3.24,2.666-5.05c-5.112,0.245,1.098-1.729-4-2.103
							c-1.932,2.334,1.244,4.855-2.668,7.152C320.444,77.812,321.938,81.083,324.086,80.571z"/>
						<path fill-rule="evenodd" clip-rule="evenodd" fill="#F77705" d="M336.089,76.787c-1.462-1.644-4.559-2.77-6.67-4.208
							c2.572-0.778,1.055-0.771,5.337-0.421c0.229-1.055-2.986-1.021-4.002-1.682c-2.751,1.6-4.046,2.025-2.668,4.206
							C332.523,74.826,332.815,76.275,336.089,76.787z"/>
						<path fill-rule="evenodd" clip-rule="evenodd" fill="#F77705" d="M63.993,79.73c-1.396,1.104-4.232,1.75-6.669,2.525
							c-0.415-2.707-3.001-4.881,2.666-6.311c-3.768-0.348-3.456,0.592-6.667,0.42c2.061-0.617-1.859-2.696,4.001-2.945
							c-0.738-0.748-0.686-1.746-2.669-2.103c-2.81,1.077-2.1,3.265-4.003,4.628c10.107,1.541-3.256,11.09,6.672,10.516
							c-2.948-0.053-0.568-1.783-1.335-2.523C62.284,83.947,64.66,80.518,63.993,79.73z"/>
						<path fill-rule="evenodd" clip-rule="evenodd" fill="#F77705" d="M42.65,107.916c-1.798-3.885-4.364-6.024,0-8.834
							c-0.918,1.131,2.758,0.813,4.002,1.264c-4.263-2.854-1.815-6.568,1.335-8.416c11.66,0.84,3.225,4.767,4,7.993
							c5.624,0.05,6.747,1.519,10.672,2.103c-2.991-1.439-5.11-3.154-8.004-4.627c0.329-1.719,2.578-2.834,5.335-3.785
							c-4.276-0.615-8.438-1.265-9.338-2.944c3.369-0.142,2.362-3.28,1.335-4.208c-2.188,1.133-0.669,3.435-5.335,3.787
							c-2.16-1.564-6.709-2.372-8.004-4.207c1.774-0.422,4.965-0.397,5.337-1.262c-4.534-1.871,2.914-3.555,1.334-5.889
							c-2.295-0.167-3.421,0.623-4.002,0c-3.361-3.506,1.663-1.851-8.004-3.367c12.506,3.674,4.202,9.807,2.667,13.883
							c0.648-0.498,1.425-0.953,2.668-1.261c4.303,0.604,5.919,2.059,8.004,3.364c-11.433,3.811-5.857,14.039-12.003,17.248
							C40.047,109.337,38.865,107.843,42.65,107.916z"/>
						<path fill-rule="evenodd" clip-rule="evenodd" fill="#F77705" d="M132.017,87.722c-3.447-2.893-2.115-7.112,5.335-8.832
							c-2.007-1.328,0.872-5.736,5.337-3.787c-2.988-1.447-0.774-2.623-2.67-3.786c-1.575,1.114-1.153,1.306-5.335,0.841
							c-0.994,1.295,3.662,0.809,2.668,2.104c-9.322,4.072-7.458,11.671-16.007,15.986c2.338,0.806,2.828,2.192,4.002,3.365
							c-1.836,0.017-2.93-0.199-4.002-0.42c4.776,2.588-0.168,5.008,0,8.412c9.999-2.939-0.789-11.092,8.004-14.724
							C129.632,87.353,130.829,87.537,132.017,87.722z"/>
						<path fill-rule="evenodd" clip-rule="evenodd" fill="#F77705" d="M178.7,72.158c-5.372,1.502-4.696,5.525,1.336,6.732
							c0.012-1.119-0.506-2.403,1.33-2.945C172.104,76.304,182.942,71.312,178.7,72.158z"/>
						<path fill-rule="evenodd" clip-rule="evenodd" fill="#F77705" d="M66.658,73.841c-0.546,1.014,2.437,0.912,1.336,2.104
							c3.04-0.578,5.014,1.083,5.334,0c-3.655-0.371,2.604-1.867-2.666-0.842c-0.062-1.281,2.813-1.637,4.001-2.524
							C70.683,72.585,70.126,73.673,66.658,73.841z"/>
						<path fill-rule="evenodd" clip-rule="evenodd" fill="#F77705" d="M177.365,80.15c-10.673,0.977-11.66-6.97-18.675-7.15
							c7.918,5.111-8.232,9.676-13.335,13.461c10.302-2.08,14.94-5.944,17.338-10.516c1.12,1.525,6.585,2.529,1.336,3.785
							c8.902-0.284,8.624,2.328,14.671,2.945C177.931,81.935,180.312,80.205,177.365,80.15z"/>
						<path fill-rule="evenodd" clip-rule="evenodd" fill="#F77705" d="M113.344,91.929c-2.937-2.582-3.522-6.311,5.336-7.15
							c0.659-1.496-7.336-2.422-2.669-3.786c3.507-0.126,1.051,1.632,5.334,1.263c-1.988-1.896-7.067-2.82-9.336-4.627
							c1.348-1.385,2.307-1.23,5.336-0.423c-1.096-1.284-3.75-1.007-1.334-2.523c-4.282,0.369-2.765-1.091-5.336-1.263
							c-2.995,3.449,6.55,9.088-1.334,13.041c0.145-2.467-10.604-2.655-8.002-4.627c-1.836-0.02-2.93,0.197-4.002,0.422
							c-0.813,0.023-1.579,0.062-1.333,0.42c6.99,1.602,16.681,3.834,10.669,7.152C109.686,90.28,110.56,91.404,113.344,91.929z"/>
						<path fill-rule="evenodd" clip-rule="evenodd" fill="#F77705" d="M128.015,73.841c-0.282,0.471-1.479,0.654-2.668,0.841
							c-0.294-0.328-1.114-0.488-2.667-0.421c-0.127,0.662,0.178,1.459-2.667,1.262c-0.236,1.088,4.609,2.709,5.334,2.105
							c-0.566-0.803-3.81-0.763-2.667-2.105c2.717-0.844,3.554-0.109,5.335,0.422C126.284,74.902,130.991,73.904,128.015,73.841z"/>
						<path fill-rule="evenodd" clip-rule="evenodd" fill="#F77705" d="M77.33,78.766c-0.834,0.999-1.794,1.81-5.335,1.954
							c-0.844-1.416-3.83-2.231-2.67-4.281c-4.846-0.127-1.78,2.205-3.998,2.907c4.056,0.404,5.568,1.591,8.001,2.507
							c-3.697,1.777-4.479,4.467-4.003,7.563c-1.833,0.018-2.927-0.205-3.998-0.427c2.346,1.622-0.433,3.651-1.334,5.467
							c5.944,0.474-0.813-2.764,6.669-1.808c-2.647-3.346,3.953-5.43,2.666-8.959c1.335,0,2.668,0,4.002,0
							C73.529,80.868,82.052,80.179,77.33,78.766z"/>
						<path fill-rule="evenodd" clip-rule="evenodd" fill="#F77705" d="M350.761,77.628c-4.284,3.416-8.934,6.715-18.672,8.412
							c-1.879-1.205,4.138-2.296-1.335-2.104c-1.024,1.585,1.628,2.012,1.335,3.365c7.319,0.193,3.454-2.786,10.671-1.684
							c-1.726-1.303-1.284-3.01,4-2.102C344.585,80.715,355.387,79.801,350.761,77.628z"/>
						<path fill-rule="evenodd" clip-rule="evenodd" fill="#F77705" d="M257.395,78.469c-3.226,1.458-3.08,3.603,1.335,4.626
							C257.935,81.273,258.319,77.992,257.395,78.469z"/>
						<path fill-rule="evenodd" clip-rule="evenodd" fill="#F77705" d="M293.406,86.46c-7.265-2.643-7.871-6.084-4.003-8.413
							c-5.01,1.009-0.776,2.989-8,2.103c5.488,3.142,3.926,6.041,8,7.995C289.967,87.339,289.89,86.333,293.406,86.46z"/>
						<path fill-rule="evenodd" clip-rule="evenodd" fill="#F77705" d="M250.728,78.469c-8.156,1.308-17.866,5.634-10.673,7.991
							c3.058,0.502-2.103-5.107,5.337-2.523c0.967-1.287-2.303-1.236-1.336-2.525c2.157-1.349,3.672-1.978,8.004-0.841
							C252.606,79.556,249.623,79.658,250.728,78.469z"/>
						<path fill-rule="evenodd" clip-rule="evenodd" fill="#F77705" d="M214.711,89.828c-12.162,0.348,2.378-5.562-4-8.416
							c1.837-0.016,2.929,0.2,4,0.422c-1.733-1.044,3.914-1.746,0-2.104c-2.399,1.636-2.485-0.725-5.333-0.84
							c-3.788,0.997,4.746,7.053-4.003,5.889c6.488,1.824-6.422,6.467,6.669,7.15C210.905,90.587,213.206,90.333,214.711,89.828z"/>
						<path fill-rule="evenodd" clip-rule="evenodd" fill="#F77705" d="M23.978,92.771c-4.451-0.342-7.563-0.196-9.336-2.103
							c3.65-0.393,2.113-2.099,4.32-2.946c4.443,0.281,3.904,1.896,6.987,2.525c0-0.701,0-1.403,0-2.103
							c-7.195,0.384-3.556-2.858-8.321-2.104c2.085-1.33-0.228-1.847-0.825-3.365c2.32-0.032,4.4,0.093,5.587,0.42
							c-1.217-0.736-0.332-2.1-2.54-2.524c-6.823,1.073-4.992,5.053-1.271,7.151c-3.864,0.744-2.564,3.107-9.306,2.946
							c-0.07,2.124,11.253,0.662,8.019,3.784C21.646,94.564,21.163,93.144,23.978,92.771z"/>
						<path fill-rule="evenodd" clip-rule="evenodd" fill="#F77705" d="M272.066,91.087c-6.228,0.396-5.531-3.432-5.335-4.627
							c-1.576,0.627-1.154,1.879-5.335,1.685c-3.343-2.368,1.352-4.966,0-6.312c-0.683,1.016-2.906,2.455-6.67,1.262
							c0.284,4.678,11.073,6.043,14.673,9.676C272.773,93.214,275.312,91.353,272.066,91.087z"/>
						<path fill-rule="evenodd" clip-rule="evenodd" fill="#F77705" d="M165.361,82.255c-0.317,0.6-2.197,0.709-2.668,1.262
							c6.571,0.029,6.718,2.087,9.337,3.364C177.729,84.541,168.819,83.816,165.361,82.255z"/>
						<path fill-rule="evenodd" clip-rule="evenodd" fill="#F77705" d="M234.72,91.087c-1.656,0.881-3.879,1.583-6.67,2.105
							c-2.702-1.27,2.083-5.662-5.332-5.048c4.164,3.584,0.75,10.55,9.337,10.515c-3.141-0.539-3.085-1.678,0-2.103
							c-1.559-0.633-3.855-1.028-4.005-2.104C231.718,95.443,235.291,92.143,234.72,91.087z"/>
						<path fill-rule="evenodd" clip-rule="evenodd" fill="#F77705" d="M158.69,84.358c-2.607,3.308-7.563,3.689-9.334,7.571
							c4.973-0.395,2.878-3.019,6.669-3.784c4.188-0.2,3.523,1.132,6.668,1.261c0.646-1.465-3.341-1.471-5.335-2.104
							C161.22,87.265,159.647,85.039,158.69,84.358z"/>
						<path fill-rule="evenodd" clip-rule="evenodd" fill="#F77705" d="M252.06,91.929c-2.938-0.336-5.325-0.844-5.337-2.102
							c1.88-0.832,6.893-2.85,4.005-3.787c-0.149,1.49-4.412-0.895-4.005,0.42c-4.158,5.49-9.418,11.82-14.668,18.51
							c-4.315,0.735-6.981,0.738-8.005,1.683c1.303,0.431,2.635,0.852,4,1.263c2.008-0.91,1.488-2.618,5.334-2.945
							c4.544-1.258,4.972,1.205,6.671,0.422c-1.682-0.756-6.693-2.624-2.667-3.787c3.392-0.32,2.239,2.875,5.334,1.264
							c-6.649-2.053-2.24-3.859,0-6.732c4.088,0.393,3.277,2.331,6.671,2.945c0.898-2.561-7.394-3.195-1.335-5.048
							c-3.77-0.349-3.454,0.591-6.669,0.419c2.289-0.68,3.313-1.758,2.667-3.365C247.073,91.019,249.922,93.111,252.06,91.929z"/>
						<path fill-rule="evenodd" clip-rule="evenodd" fill="#F77705" d="M188.036,86.881c-0.909,0.835-4.063,0.964-5.336,1.683
							c0.299-0.794-1.502-0.928-1.334-1.683c-3.038,0.577-5.012-1.084-5.333,0c3.641,0.534,5.316,1.688,8,2.524
							C183.121,88.103,192.197,87.817,188.036,86.881z"/>
						<path fill-rule="evenodd" clip-rule="evenodd" fill="#F77705" d="M63.993,88.984c0.268-1.344-2.236-1.819-5.337-2.103
							C60.142,87.675,60.531,88.816,63.993,88.984z"/>
						<path fill-rule="evenodd" clip-rule="evenodd" fill="#F77705" d="M357.43,97.818c-7.591-3.76,3.376-6.705,4.003-10.937
							C354.361,89.765,346.366,95.602,357.43,97.818z"/>
						<path fill-rule="evenodd" clip-rule="evenodd" fill="#F77705" d="M278.736,88.564c3.66,2.388-12.11,5.604-2.669,8.414
							c-1.093-1.123,7.902-0.332,4.002-1.684c-9.279-1.264,4.63-4.902,5.334-7.992C280.847,86.986,283.711,89.011,278.736,88.564z"
							/>
						<path fill-rule="evenodd" clip-rule="evenodd" fill="#F77705" d="M350.761,103.709c0.902-1.003,2.643-3.903,1.334-4.208
							c-0.281,0.473-1.481,0.654-2.667,0.844c-0.589-0.938,4.119-2.283,1.333-2.527c-5.464,2.485-1.969,7.793-12.003,8.835
							c1.33-2.103-4.144-2.058-4.002-3.784c4.648-1.069-1.581-5.193,8.004-4.209c-0.069-1.83,2.001-1.933-1.335-2.943
							c7.648,0.027,3.022-3.814,10.67-3.787c-2.357-1.64-3.268-3.737-8.004-4.627c-1.771,2.66,7.108,1.966,5.337,4.627
							c-4.779,0.02-12.528,4.156-10.67,6.311c-9.323,0.848-4.68,6.098-14.672,6.73c-0.121,1.859,1.933,3.037,5.333,3.787
							c-1.983-2.17,3.183-2.082,4.003-3.365c-3.701-0.42-3.774,2.39-6.668,0.842c1.919-1.104,4.324-1.752,4-2.524
							c11.798,0.964,7.769,8.379-2.668,7.571c-0.226,1.053,2.048,1.316,4.003,1.682c0.198-1.619,2.994-2.421,6.669-2.945
							c-2.139,3.584-1.184,6.382-0.732,8.881c1.093-0.234,2.164-0.479,3.217-0.732c0.593-3.232,0.114-5.842-1.15-9.829
							c7.389,0.554,1.391-3.972,9.336-4.208c5.891,2.332,7.189,4.803,6.67,7.572c-2.573,0.591-8.164,0.229-6.67,2.104
							c7.011,0.529,3.87-2.145,9.337-2.104c-0.51-1.906-1.664-3.106,2.668-4.207C354.433,107.318,356.001,104.439,350.761,103.709z"
							/>
						<path fill-rule="evenodd" clip-rule="evenodd" fill="#F77705" d="M190.703,88.145c3.335,5.845-0.093,6.62,8.005,10.515
							C197.775,95.632,194.34,90.693,190.703,88.145z"/>
						<path fill-rule="evenodd" clip-rule="evenodd" fill="#F77705" d="M181.366,104.128c-2.943-2.591-1.34-3.596-2.666-5.469
							c2.769-1.412,4.548,1.017,5.333,0c-7.471-2.158-6.435-5.758-3.997-9.676c-5.502,1.896-6.865,6.957-1.336,8.834
							C175.013,99.145,174.603,103.666,181.366,104.128z"/>
						<path fill-rule="evenodd" clip-rule="evenodd" fill="#F77705" d="M89.335,94.625c1.778,0,3.557,0,5.334,0
							c0.21,0.707-0.229,0.896,1.335,0.967c3.265-0.991-1.991-0.932-1.335-2.252c-1.938-0.23-6.894,0.418-6.67-0.494
							c-0.278-0.803,4.602-2.147,1.336-3.402c0.923,1.691-5.619,1.015-5.335,2.506c0.392,0.857,3.607,0.814,3.999,1.674
							c-8.512,1.326-7.64,6.311-2.666,8.829c-1.586,1.321-4.501,2.222-5.336,3.782c5.884-0.594,0.023,2.518,4.003,2.523
							c3.597-2.014-3.96-5.361,5.335-5.889c-4.496-2.038-3.514-3.27-6.671-6.016C88.17,97.798,84.416,95.684,89.335,94.625z"/>
						<path fill-rule="evenodd" clip-rule="evenodd" fill="#F77705" d="M252.06,104.549c1.339,0.56,1.261,1.565,4.001,1.685
							c-1.766-1.512-1.367-2.003,1.334-2.105c-8.501-3.757,0.854-7.227,5.335-10.936c-7.843-0.25,5.522-4.066-4-3.787
							c0.796,6.141-10.21,8.56-8.002,15.144c-3.518,0.122-2.822,2.483-6.672,1.263c0.498,1.805,3.585,2.795,4.002,4.627
							c-3.289,1.194-6.889,4.102-10.67,3.787c6.016,1.467,5.445,5.012,12.005,6.31c-1.691-2.411-4.578-4.446-8.004-6.31
							c8.73,0.27,1.021-2.145,6.669-2.525c1.341,0.56,1.26,1.565,4.002,1.682C253.209,110.75,244.747,107.587,252.06,104.549z"/>
						<path fill-rule="evenodd" clip-rule="evenodd" fill="#F77705" d="M288.071,93.613c0.521,1.098,0.687,2.307,2.667,2.944
							c1.015-2.065,4.335-3.401,5.338-5.47c-4.177-0.083-5.454-1.082-8.005-1.682C290.711,90.975,297.089,93.998,288.071,93.613z"/>
						<path fill-rule="evenodd" clip-rule="evenodd" fill="#F77705" d="M257.093-0.623h-2.869c0.798,0,2.036,0.499,3.171,0.711
							C257.382-0.175,257.268-0.623,257.093-0.623z"/>
						<path fill-rule="evenodd" clip-rule="evenodd" fill="#F77705" d="M245.392,2.259c1.02-1.105,1.521-2.176,3.309-2.882h-3.517
							c-2.311,0.353-4.716,0.73-5.129,1.796C244.341,0.804,241.882,2.384,245.392,2.259z"/>
					</g>
				</g>
				<linearGradient id="SVGID_5_" gradientUnits="userSpaceOnUse" x1="183.1895" y1="116.854" x2="183.1895" y2="10.3599">
					<stop  offset="0.0421" style="stop-color:#C72800;stop-opacity:0.3"/>
					<stop  offset="0.5158" style="stop-color:#C72800;stop-opacity:0"/>
					<stop  offset="0.8474" style="stop-color:#C72800;stop-opacity:0"/>
					<stop  offset="1" style="stop-color:#C72800;stop-opacity:0.2"/>
				</linearGradient>
				<path fill="url(#SVGID_5_)" d="M357.118,102.361c0,8.004-6.977,14.493-15.58,14.493H24.841c-8.605,0-15.581-6.489-15.581-14.493
					V24.853c0-8.004,6.976-14.493,15.581-14.493h316.697c8.604,0,15.58,6.489,15.58,14.493V102.361z"/>
				<g>
					
						<path fill="none" stroke="#EFC1AB" stroke-width="2.4585" stroke-linecap="round" stroke-miterlimit="10" stroke-dasharray="6.8837" d="
						M358.307,103.362c0,8.005-6.975,14.493-15.58,14.493H26.029c-8.604,0-15.58-6.488-15.58-14.493V25.855
						c0-8.004,6.977-14.494,15.58-14.494h316.697c8.605,0,15.58,6.49,15.58,14.494V103.362z"/>
					
						<path fill="none" stroke="#ED5F07" stroke-width="2.4585" stroke-linecap="round" stroke-miterlimit="10" stroke-dasharray="6.8837" d="
						M357.118,102.361c0,8.004-6.977,14.493-15.58,14.493H24.841c-8.605,0-15.581-6.489-15.581-14.493V24.853
						c0-8.004,6.976-14.493,15.581-14.493h316.697c8.604,0,15.58,6.489,15.58,14.493V102.361z"/>
				</g>
			</g>
		</g>
	</g>
</g>
<g id="日期">
</g>
<g id="表格">
</g>
<g id="UI">
</g>
</svg>
