<?xml version="1.0" encoding="utf-8"?>
<!-- Generator: Adobe Illustrator 16.0.3, SVG Export Plug-In . SVG Version: 6.00 Build 0)  -->
<!DOCTYPE svg PUBLIC "-//W3C//DTD SVG 1.1//EN" "http://www.w3.org/Graphics/SVG/1.1/DTD/svg11.dtd">
<svg version="1.1" xmlns="http://www.w3.org/2000/svg" xmlns:xlink="http://www.w3.org/1999/xlink" x="0px" y="0px"
	 width="26.498px" height="28.821px" viewBox="0 0 26.498 28.821" enable-background="new 0 0 26.498 28.821" xml:space="preserve">
<g id="圖層_1" display="none">
</g>
<g id="BG">
</g>
<g id="日期">
</g>
<g id="表格">
</g>
<g id="UI">
	<g>
		<path fill-rule="evenodd" clip-rule="evenodd" fill="#F8FFE5" d="M1.79,0C1.339,0,0.888,0.001,0.437,0.002
			C0.103,0.167-0.006,0.44,0,0.805c0.043,2.487,0.462,4.907,1.252,7.265c0.083,0.246,0.225,0.42,0.451,0.547
			C2.88,9.28,4.053,9.95,5.226,10.62c0.084,0.048,0.165,0.103,0.313,0.196c-0.736,0.001-1.391,0.001-2.045,0.003
			c-0.653,0.002-0.918,0.443-0.608,1.008c4,7.273,11.486,11.881,19.751,12.151c0.183,0.005,0.293,0.061,0.38,0.219
			c0.748,1.364,1.495,2.729,2.257,4.085c0.113,0.202,0.303,0.36,0.457,0.539c0.113,0,0.226,0,0.338-0.001
			c0.443-0.28,0.526-0.52,0.329-0.954c-0.756-1.66-1.641-3.247-2.649-4.767c-1.871-2.821-4.096-5.349-6.417-7.797
			c-0.602-0.633-1.215-1.255-1.816-1.888c-0.263-0.277-0.261-0.646-0.018-0.881c0.245-0.237,0.603-0.22,0.878,0.048
			c0.155,0.15,0.303,0.308,0.453,0.462c2.499,2.564,4.926,5.189,7.026,8.1c0.023,0.032,0.059,0.055,0.117,0.109
			c-0.124-1.296-0.33-2.535-0.665-3.749c-1.782-6.46-5.603-11.337-11.436-14.622c-2.662-1.5-5.534-2.391-8.576-2.725
			C2.794,0.103,2.292,0.052,1.79,0z"/>
	</g>
</g>
</svg>
