<?xml version="1.0" encoding="utf-8"?>
<!-- Generator: Adobe Illustrator 16.0.3, SVG Export Plug-In . SVG Version: 6.00 Build 0)  -->
<!DOCTYPE svg PUBLIC "-//W3C//DTD SVG 1.1//EN" "http://www.w3.org/Graphics/SVG/1.1/DTD/svg11.dtd">
<svg version="1.1" xmlns="http://www.w3.org/2000/svg" xmlns:xlink="http://www.w3.org/1999/xlink" x="0px" y="0px"
	 width="1112.37px" height="710.949px" viewBox="0 0 1112.37 710.949" enable-background="new 0 0 1112.37 710.949"
	 xml:space="preserve">
<g id="圖層_1" display="none">
</g>
<g id="BG">
	<g>
		<g>
			<path fill="#9FA0A0" d="M1112.37,679.403c0.025,16.539-13.241,29.963-29.627,29.987L39.166,710.949
				c-16.388,0.024-29.692-13.36-29.717-29.899L8.499,45.001C8.475,28.464,21.738,15.038,38.126,15.013l1043.577-1.558
				c16.386-0.024,29.692,13.363,29.716,29.9L1112.37,679.403z"/>
			<path fill="#AEAFAF" d="M1110.245,676.039c0.025,16.539-13.241,29.963-29.627,29.988L37.041,707.585
				c-16.388,0.024-29.691-13.36-29.716-29.899L6.375,41.638C6.35,25.101,19.614,11.674,36.002,11.65l1043.577-1.558
				c16.385-0.024,29.692,13.362,29.716,29.899L1110.245,676.039z"/>
			<path fill="#BEBFBF" d="M1108.121,672.675c0.025,16.54-13.242,29.963-29.627,29.988L34.916,704.221
				c-16.388,0.024-29.692-13.359-29.716-29.899L4.25,38.274C4.225,21.737,17.489,8.311,33.876,8.286l1043.578-1.558
				c16.385-0.024,29.692,13.363,29.717,29.899L1108.121,672.675z"/>
			<path fill="#CDCECE" d="M1105.996,669.311c0.025,16.541-13.242,29.964-29.626,29.989L32.791,700.858
				c-16.388,0.024-29.691-13.359-29.716-29.9L2.125,34.911C2.1,18.374,15.364,4.947,31.751,4.922l1043.579-1.558
				c16.384-0.024,29.691,13.363,29.715,29.9L1105.996,669.311z"/>
			<path fill="#DCDDDD" d="M1103.87,665.948c0.025,16.54-13.242,29.963-29.626,29.988L30.666,697.494
				c-16.388,0.024-29.691-13.359-29.716-29.899L0,31.547C-0.024,15.01,13.239,1.583,29.627,1.558L1073.205,0
				c16.384-0.024,29.691,13.364,29.716,29.901L1103.87,665.948z"/>
		</g>
		<path fill="#FFFFFF" d="M1095.738,658.553c0.024,16.287-13.108,29.506-29.333,29.53L33.161,689.625
			C16.936,689.65,3.764,676.47,3.739,660.183L2.805,33.862C2.78,17.577,15.913,4.356,32.137,4.332l1033.245-1.542
			c16.225-0.024,29.397,13.157,29.421,29.442L1095.738,658.553z"/>
	</g>
</g>
<g id="日期">
</g>
<g id="表格">
</g>
<g id="UI">
</g>
</svg>
