<?xml version="1.0" encoding="utf-8"?>
<!-- Generator: Adobe Illustrator 16.0.3, SVG Export Plug-In . SVG Version: 6.00 Build 0)  -->
<!DOCTYPE svg PUBLIC "-//W3C//DTD SVG 1.1//EN" "http://www.w3.org/Graphics/SVG/1.1/DTD/svg11.dtd">
<svg version="1.1" xmlns="http://www.w3.org/2000/svg" xmlns:xlink="http://www.w3.org/1999/xlink" x="0px" y="0px"
	 width="32.598px" height="17.793px" viewBox="0 0 32.598 17.793" enable-background="new 0 0 32.598 17.793" xml:space="preserve">
<g id="圖層_1" display="none">
</g>
<g id="BG">
</g>
<g id="日期">
</g>
<g id="表格">
</g>
<g id="UI">
	<path fill="#F8FFE5" d="M32.004,2.694L17.373,17.371c-0.562,0.563-1.558,0.564-2.121,0.003L0.44,2.606
		c-0.43-0.429-0.559-1.073-0.327-1.634c0.231-0.561,0.778-0.927,1.384-0.928L31.075,0c0.007,0,0.013,0,0.02,0
		c0.829-0.001,1.501,0.669,1.502,1.498C32.598,1.986,32.365,2.42,32.004,2.694z"/>
	<g>
		<g>
			<g>
				<defs>
					<path id="SVGID_31_" d="M-32.997,47.908c0.01,6.16-4.978,11.162-11.139,11.171l-72.079,0.108
						c-6.161,0.009-11.163-4.979-11.172-11.139l-0.107-72.08c-0.01-6.161,4.977-11.163,11.138-11.172l72.08-0.107
						c6.161-0.009,11.163,4.978,11.172,11.138L-32.997,47.908z"/>
				</defs>
				<clipPath id="SVGID_2_">
					<use xlink:href="#SVGID_31_"  overflow="visible"/>
				</clipPath>
				<g clip-path="url(#SVGID_2_)">
					<path fill-rule="evenodd" clip-rule="evenodd" fill="#06C493" d="M15.192,9.572c-1.108-1.278-2.304-2.208-4.3-2.285
						c3.153,0.045,0.201-0.928-0.002-1.309c3.021-0.807,1.895-1.847,2.143-3.609c0.846,0.046,1.624,0.582,2.148-0.003
						c-1.331-1.009-2.001-2.577,0.711-2.949c-1.552,0.06-0.327-1.16-0.717-1.636c-1.792-0.053-2.241,0.508-2.863,0.988
						C16.15,1.754,3.136,8.277,15.192,9.572z"/>
					<path fill-rule="evenodd" clip-rule="evenodd" fill="#06C493" d="M3.003-1.872c-0.15,0.367-0.794,0.511-1.429,0.658
						C2.917,0.9,7.007,1.751,9.455,3.357c2.389-1.192-2.106-1.211-2.151-2.288c1.074-0.494,2.14-0.99,2.861-1.644
						c-2.659-0.118-1.87,1.331-5.009,0.991C5.125-0.662,5.444-1.9,3.003-1.872z"/>
					<path fill-rule="evenodd" clip-rule="evenodd" fill="#06C493" d="M26.634,1.041c-3.729,0.183-0.905-2.645-4.3-2.613
						c0.945,0.984,0.076,2.805,1.438,3.598C24.254,1.664,26.15,2.089,26.634,1.041z"/>
					<path fill-rule="evenodd" clip-rule="evenodd" fill="#06C493" d="M15.893,0.072c-0.12,0.821,1.101,1.025,2.15,1.308
						c-0.786-1.245,1.891-2.047-0.72-2.289C17.257-0.397,17.42,0.225,15.893,0.072z"/>
					<path fill-rule="evenodd" clip-rule="evenodd" fill="#06C493" d="M6.597,7.293C2.976,5.498,4.277,4.402,4.44,1.728
						C3.525,1.712,3.449,1.311,2.292,1.403c-0.729,0.774,1.143,3.776-1.425,4.59c2.914-0.138,2.824,1.104,4.299,1.629
						c-2.513-0.249-1.665,2.703-0.712,2.95C5.805,9.77,4.475,7.746,6.597,7.293z"/>
					<path fill-rule="evenodd" clip-rule="evenodd" fill="#06C493" d="M24.703,6.284c0,0.327,0.001,0.653,0.001,0.982
						c-2.759-0.591-5.092,2.639-2.246,3.605c0.359-1.205,1.356-2.937,4.227-2.956c0.098,0.01,0.372,0.238,0.515,0.226
						c-0.119-0.004-0.067,0.221-0.178,0.221c0.004,0,0.007,0,0.007,0C25.779,8.09,26.36,6.146,24.703,6.284z"/>
					<path fill-rule="evenodd" clip-rule="evenodd" fill="#06C493" d="M-0.701,17.233c0.205,0.185,0.484,0.37,0.87,0.551
						C0.074,17.627-0.265,17.419-0.701,17.233z"/>
					<path fill-rule="evenodd" clip-rule="evenodd" fill="#06C493" d="M13.056,17.764c-4.184-1.089,0.438-2.571-0.721-3.6
						c-0.887,0.687-2.081,1.232-3.578,1.642C9.46,16.593,11.363,18.519,13.056,17.764z"/>
					<path fill-rule="evenodd" clip-rule="evenodd" fill="#06C493" d="M20.211,15.789c-1.014-1.854-4.591-1.42-4.299-3.269
						c-1.598,0.146-2.552,0.584-2.862,1.314c7.822,0.083,3.646,3.877,0.008,4.913c0.797,1.028,0.336,0.864-0.714,1.638
						c1.247-0.026,2.227,0.07,2.865,0.322c-0.832-2.778,3.263-3.311,4.288-5.247C19.538,15.663,19.604,15.849,20.211,15.789z"/>
					<path fill-rule="evenodd" clip-rule="evenodd" fill="#06C493" d="M18.062,13.171c-1.771-1.234,2.75-1.852,2.142-2.95
						c-0.133,0.483-1.73,0.303-2.862,0.332c-0.451-2.39,2.884-4.708,4.284-7.213c1.984,0.444,3.033,2.548,5.015,1.959
						c-1.507-0.469-3.085-2.096-5.017-3.27C17.42,4.82,13.807,11.156,18.062,13.171z"/>
					<path fill-rule="evenodd" clip-rule="evenodd" fill="#06C493" d="M10.179,8.924c-1.395,0.564-2.167,1.414-4.294,1.646
						c0.947,2.182,0.327,5.334,0.728,6.877c2.729-2.14,1.708-3.945,0.706-6.553C8.984,11.835,10.654,8.899,10.179,8.924z"/>
					<path fill-rule="evenodd" clip-rule="evenodd" fill="#06C493" d="M0.159,10.905c-1.514,1.774,3.475,3.143,5.019,4.577
						C3.286,12.249,2.949,12.345,0.159,10.905z"/>
					<path fill-rule="evenodd" clip-rule="evenodd" fill="#06C493" d="M26.649,11.52c-3.566,2.395-7.992,3.527-3.572,5.248
						c-0.127-1.235,0.338-3.282,2.86-2.296C23.731,12.908,28.607,12.635,26.649,11.52z"/>
					<path fill-rule="evenodd" clip-rule="evenodd" fill="#06C493" d="M28.034,19.789c0,0.108-0.105,0.195-0.567,0.247
						c0.758-1.524-3.222-1.818-1.122-2.947c-1.776-0.044-3.945-0.054-4.05,0.662c2.62,0.68,2.981,2.237,5.74,2.796L28.034,19.789z"
						/>
				</g>
			</g>
		</g>
	</g>
</g>
</svg>
