<?xml version="1.0" encoding="utf-8"?>
<!-- Generator: Adobe Illustrator 16.0.3, SVG Export Plug-In . SVG Version: 6.00 Build 0)  -->
<!DOCTYPE svg PUBLIC "-//W3C//DTD SVG 1.1//EN" "http://www.w3.org/Graphics/SVG/1.1/DTD/svg11.dtd">
<svg version="1.1" xmlns="http://www.w3.org/2000/svg" xmlns:xlink="http://www.w3.org/1999/xlink" x="0px" y="0px"
	 width="59.983px" height="59.046px" viewBox="0 0 59.983 59.046" enable-background="new 0 0 59.983 59.046" xml:space="preserve">
<g id="圖層_1" display="none">
</g>
<g id="BG">
</g>
<g id="日期">
</g>
<g id="表格">
</g>
<g id="UI">
	<g>
		<circle fill="#C4002F" cx="29.048" cy="29.996" r="29.048"/>
		<path fill="#EF476F" d="M1.887,29.095c0.024,16.04,13.049,29.029,29.092,29.005c16.042-0.024,29.027-13.052,29.004-29.092
			C59.959,12.962,46.934-0.024,30.892,0C14.85,0.024,1.863,13.049,1.887,29.095z"/>
		<g>
			<defs>
				<path id="SVGID_29_" d="M1.887,29.095c0.024,16.04,13.049,29.029,29.092,29.005c16.042-0.024,29.027-13.052,29.004-29.092
					C59.959,12.962,46.934-0.024,30.892,0C14.85,0.024,1.863,13.049,1.887,29.095z"/>
			</defs>
			<clipPath id="SVGID_2_">
				<use xlink:href="#SVGID_29_"  overflow="visible"/>
			</clipPath>
			<g opacity="0.9" clip-path="url(#SVGID_2_)">
				<g>
					<path fill-rule="evenodd" clip-rule="evenodd" fill="#EF3561" d="M-0.236-0.708c0.557,0.526,2.975,1.061-0.744,1.14
						C-0.572,0.102-1.855-0.744-0.236-0.708z"/>
					<path fill-rule="evenodd" clip-rule="evenodd" fill="#EF3561" d="M46.779-0.32c1.107,0.722,1.549,1.651,2.987,2.271
						c-1.114,0.42-3.114,0.572-3.729,1.143c0.322,2.08-0.846,1.366-1.494,0.002C47.892,2.104,45.448,0.914,46.779-0.32z"/>
					<path fill-rule="evenodd" clip-rule="evenodd" fill="#EF3561" d="M23.648,2.898c-0.332-0.115,0.785-1.725,1.491-2.276
						C26.397,1.168,26.359,2.844,23.648,2.898z"/>
					<path fill-rule="evenodd" clip-rule="evenodd" fill="#EF3561" d="M3.504,4.522c-0.891-0.981,2.443-1.278,0.743-1.82
						C8.811,2.812,4.4,4.046,3.504,4.522z"/>
					<path fill-rule="evenodd" clip-rule="evenodd" fill="#EF3561" d="M7.981,3.379c-0.002,0.607,2.358,0.49,2.241,1.133
						c-0.42,0.326-1.165,0.556-2.238,0.689C8.956,4.422,6.318,3.612,7.981,3.379z"/>
					<path fill-rule="evenodd" clip-rule="evenodd" fill="#EF3561" d="M3.506,5.659c-1.73-0.068-2.866,0.042-3.732,0.233
						c1.116-0.851-0.789-1.296,1.491-1.59C2.344,4.651,2.835,5.185,3.506,5.659z"/>
					<path fill-rule="evenodd" clip-rule="evenodd" fill="#EF3561" d="M27.385,5.172c0.086,0.808,2.763,0.819,2.243,1.815
						C27.407,6.972,25.976,5.543,27.385,5.172z"/>
					<path fill-rule="evenodd" clip-rule="evenodd" fill="#EF3561" d="M1.27,8.168c-1.116-0.04-2.754,0.087-2.986-0.224
						c1.856-0.037,0.219-0.769-0.001-0.91C0.632,7,0.846,7.615,1.27,8.168z"/>
					<path fill-rule="evenodd" clip-rule="evenodd" fill="#EF3561" d="M51.269,7.639c0.212,0.597-0.271,0.976-2.237,0.917
						C48.821,7.958,49.302,7.573,51.269,7.639z"/>
					<path fill-rule="evenodd" clip-rule="evenodd" fill="#EF3561" d="M23.655,7.68c0.665,0.406,2.087,0.575,1.496,1.365
						c-1.688-0.037-3.281,1.098-4.475,0.461C23.132,9.339,22.397,8.208,23.655,7.68z"/>
					<path fill-rule="evenodd" clip-rule="evenodd" fill="#EF3561" d="M52.762,8.55c-0.021,1.243,6.697,2.409,1.498,3.184
						C55.833,10.515,49.376,9.348,52.762,8.55z"/>
					<path fill-rule="evenodd" clip-rule="evenodd" fill="#EF3561" d="M50.531,12.419c-0.648,0.335-1.118,0.726-2.983,0.689
						c2.506-1.207-0.281-1.21-1.499-2.275C48.801,10.978,49.964,11.605,50.531,12.419z"/>
					<path fill-rule="evenodd" clip-rule="evenodd" fill="#EF3561" d="M45.317,19.708c0.188-1.327,3.989-1.786,0.742-2.958
						c4.051-0.589,3.864-2.468,5.219-3.874c0.843,0.725,1.521,1.502,1.495,2.497C45.768,15.874,51.381,18.859,45.317,19.708z"/>
					<path fill-rule="evenodd" clip-rule="evenodd" fill="#EF3561" d="M20.685,15.421c-3.2-0.231-2.431-1.619-2.244-2.268
						C19.269,13.983,22.095,14.551,20.685,15.421z"/>
					<path fill-rule="evenodd" clip-rule="evenodd" fill="#EF3561" d="M26.652,14.73c-1.965,0.073-2.448-0.311-2.24-0.905
						C26.379,13.754,26.862,14.136,26.652,14.73z"/>
					<path fill-rule="evenodd" clip-rule="evenodd" fill="#EF3561" d="M17.702,17.476c0.253-0.831,0.075-1.797,2.984-1.826
						C20.108,16.385,19.127,17,17.702,17.476z"/>
					<path fill-rule="evenodd" clip-rule="evenodd" fill="#EF3561" d="M0.539,18.414c-2.337,0.499-2.962,1.526-6.713,1.601
						c0.354-1.533,4.694-0.508,3.727-2.508c-0.08-0.356-4.451-1.039-0.75-1.138C-2.897,17.341,0.11,17.482,0.539,18.414z"/>
					<path fill-rule="evenodd" clip-rule="evenodd" fill="#EF3561" d="M54.267,16.738c-0.566,0.815,2.315,1.561-0.741,1.822
						C53.978,18.017,52.585,16.91,54.267,16.738z"/>
					<path fill-rule="evenodd" clip-rule="evenodd" fill="#EF3561" d="M44.573,22.674c-2.029-1.181-2.234-2.797-1.496-3.871
						C45.367,19.898,44.335,21.805,44.573,22.674z"/>
					<path fill-rule="evenodd" clip-rule="evenodd" fill="#EF3561" d="M49.8,23.938c0.781-1.306-2.599-1.321-2.988-2.273
						c0.749-0.001,1.495-0.002,2.241-0.003C49.27,22.802,52.692,22.928,49.8,23.938z"/>
					<path fill-rule="evenodd" clip-rule="evenodd" fill="#EF3561" d="M28.904,21.558c1.115,0.062-0.46,1.204-1.492,1.365
						C27.863,22.454,26.206,21.346,28.904,21.558z"/>
					<path fill-rule="evenodd" clip-rule="evenodd" fill="#EF3561" d="M20.695,21.797c2.803,0.463-1.244,1.784,0.005,3.187
						C18.245,24.475,18.977,22.149,20.695,21.797z"/>
					<path fill-rule="evenodd" clip-rule="evenodd" fill="#EF3561" d="M39.356,25.638c0.592-1.339,1.946-2.44,4.473-3.193
						C43.315,23.805,41.645,24.818,39.356,25.638z"/>
					<path fill-rule="evenodd" clip-rule="evenodd" fill="#EF3561" d="M52.041,24.48c-0.585-0.157-1.664-1.268-0.002-1.364
						C52.657,23.542,54.794,24.292,52.041,24.48z"/>
					<path fill-rule="evenodd" clip-rule="evenodd" fill="#EF3561" d="M46.074,27.448c2.588-1.758-4.079-2.693-1.5-3.865
						C45.916,24.796,52.094,26.604,46.074,27.448z"/>
					<path fill-rule="evenodd" clip-rule="evenodd" fill="#EF3561" d="M16.22,23.85c3.376,1.529,3.279,4.956-2.232,5.695
						c1.701-0.945-1.301-1.132-0.002-1.595c0.125,0.266,1.181,0.249,2.24,0.226C19.628,26.825,14.269,25.246,16.22,23.85z"/>
					<path fill-rule="evenodd" clip-rule="evenodd" fill="#EF3561" d="M3.538,27.282c-2.409,0.121-4.019-1.175-2.241-1.587
						C1.37,26.432,4.68,26.176,3.538,27.282z"/>
					<path fill-rule="evenodd" clip-rule="evenodd" fill="#EF3561" d="M14.739,33.187c0.322,0.433,1.61,0.57,1.497,1.134
						c-2.688-0.133-2.2,0.7-4.48,0.688C12.307,33.767,13.728,34.206,14.739,33.187z"/>
					<path fill-rule="evenodd" clip-rule="evenodd" fill="#EF3561" d="M42.885,34.962c-1.028-0.004-1.376,0.11-1.976,0.231
						c-0.876-0.594-0.825-0.79-1.974-0.226c0-0.301-0.001-0.606-0.001-0.909C41.237,34.096,42.855,34.212,42.885,34.962z"/>
					<path fill-rule="evenodd" clip-rule="evenodd" fill="#EF3561" d="M13.256,38.191c2.672-1.098,2.909-2.76,4.471-3.642
						c0.536,0.666,0.856,1.404,2.241,1.815C16.402,36.573,16.554,37.907,13.256,38.191z"/>
					<path fill-rule="evenodd" clip-rule="evenodd" fill="#EF3561" d="M45.344,37.92c0.198,0.926,1.408,1.543,2.245,2.271
						c-2.784-0.235-2.41,0.487-3.732,0.688C45.964,39.891,42.302,38.362,45.344,37.92z"/>
					<path fill-rule="evenodd" clip-rule="evenodd" fill="#EF3561" d="M41.625,45.661c1.163-1.244,3.727-1.926,3.727-2.962
						c2.979,1.669,4.296,3.843,6.725,5.683c-5.248-0.443-2.967-3.193-6.723-4.087C43.357,44.519,44.429,45.682,41.625,45.661z"/>
					<path fill-rule="evenodd" clip-rule="evenodd" fill="#EF3561" d="M-0.914,45.043c2.411-0.116,4.021,1.175,2.242,1.593
						C0.893,46.009-0.531,45.689-0.914,45.043z"/>
					<path fill-rule="evenodd" clip-rule="evenodd" fill="#EF3561" d="M44.613,49.525c1.349-0.649,2.109-1.479,5.223-1.597
						c0.62,0.644-1.05,0.591-0.743,1.138C46.07,48.759,46.732,49.563,44.613,49.525z"/>
					<path fill-rule="evenodd" clip-rule="evenodd" fill="#EF3561" d="M10.287,47.987c0.464,0.616,3.118,0.565,2.986,1.361
						C10.547,49.561,9.01,48.246,10.287,47.987z"/>
					<path fill-rule="evenodd" clip-rule="evenodd" fill="#EF3561" d="M46.865,57.491c0.375-0.567,1.412-0.934,2.238-1.368
						C48.885,56.74,50.155,57.807,46.865,57.491z"/>
					<path fill-rule="evenodd" clip-rule="evenodd" fill="#EF3561" d="M46.855,50.892c1.534,0.101,1.73-0.602,1.492-1.597
						c1.26,0.373,0.927,1.234,2.241,1.591c-3.032,1.289-4.178,3.65,0.007,4.779c3.359-0.86,5.307-2.952,0.74-3.871
						c1.842-0.402,3.946,1.059,5.226,1.586c1.237-1.065,2.42-2.15,2.234-3.644c-2.039-0.168-1.504,0.452-2.987,0.457
						c-1.431-0.289,1.761-0.472-0.001-1.138c3.772-0.515,1.158-0.662,3.729-2.052c-0.6,0.12-1.21,0.238-2.237,0.229
						c1.455-0.767,1.687-1.916,5.219-2.058c-0.943-0.973,0.054-1.125-0.003-2.274c-1.428-0.104-3.21,0.707-2.985-0.224
						c3.384,0.306-0.183-1.844-1.497-2.273c4.845,0.051,1.834-1.783,1.488-3.189c-1.997,0.154-2.836,0.655-4.475,0.915
						c0.083-0.806,2.759-0.829,2.235-1.821c-1.353,0.714-2.598-0.741-1.495-0.677c-1.179-1.035-2.668,0.342-4.476,0.458
						c0.443-0.774,1.624-1.328,2.982-1.825c-0.844-0.483-0.86-0.488-2.986-0.907c1.225-0.738,0.286-1.408-0.749-2.044
						c1.238-0.585,2.005,0.883,4.478,0.675c-1.268,1.726,1.974,3.651,3.739,4.69c3.696-0.553,0.327-1.864,2.98-2.826
						c-0.996,0.001-1.991,0.003-2.984,0.004c1.658-0.574,2.731-1.436,2.232-2.645c-2.033-0.165-1.499,0.38-2.983,0.383
						c-0.607-0.543,2.287-1.303-0.003-1.629c0.326-0.335,0.956,0.07,2.239-0.021c-0.67-0.663-0.67-0.705-0.002-1.373
						c-3.791,0.692-0.36-0.986-2.986-1.593c-1.724,0.541-3.11,1.178-2.982,2.281c-0.666,0.624-3.029-0.532-2.237,0.684
						c-2.661-0.134-0.529-1.314,1.492-1.37c-0.322-0.434-2.135-0.407-1.496-1.136c3.84,1.449,5.122-3.589,1.488-4.326
						c2.436-0.438,1.103-1.416,0.741-1.822c-2.38-0.194-2.308,0.361-3.729,0.462c-0.408-0.808,2.64-0.566,2.234-1.371
						c-1.712-0.31-2.4-0.933-3.731-1.359c0.866,0.034,1.328-0.051,1.493-0.231c8.651,2.015,3.944,6.161,8.967,8.862
						c4.125-2.695,5.696-5.025,1.479-8.421c-2.638,0.185-2.73,1.142-5.222,1.374c-0.271-1.336,4.775-1.119,3.728-3.193
						c-0.979,0.232-2.753,0.227-3.731,0.464c1.115-0.272,0.875-0.95,2.986-0.918c-2.059-0.054-0.797-1.124-2.242-1.363
						c0.325-0.336,0.955,0.089,2.239-0.003c0.167-0.948-1.215-1.07-0.002-1.819c-0.981-0.271-1.175-0.086-2.239,0.003
						c1.712-0.608,1.71-1.45-0.003-2.047c1.663-0.574,1.819,1.25,4.477,1.131c0.617-0.932,0.114-0.788-0.003-1.824
						c1.337,1.1,1.165-0.069,3.733,0.451c-11.413,2.612,0.768,8.464,0.018,11.833c-0.553,0.618,1.57,0.417,2.119,0.696
						c0.101,0.048,0.155,0.119,0.123,0.212c-0.038,0.039-0.083,0.077-0.122,0.117c-1.45,1.405-4.79,2.236-6.591,3.534
						c3.287,2.343,1.878,5.839,2.997,7.738c-0.925,0.477-2.169,0.854-3.73,1.14c1.346,0.926,1.708,1.267,3.734,1.588
						c-3.348,2.466,0.678,3.462,0.715,5.919c2.083,0.015,3.739-0.379,4.315-0.754l0.001,0.661c-1.726,0.582-5.253,0.9-6.553,1.688
						c-3.374,2.054,0.848,4.933-3.327,7.518c0.265,0.48,0.809,1.055,1.361,1.648c-0.709,0.331-1.546,0.65-2.339,0.963
						c0.244-1.088,0.166-1.056,0.67-2.159c-3.532,0.294-4.627,1.334-6.735,2.063c1.586,0.484,1.319,1.254,0.326,1.911
						c-0.908,0.241-1.854,0.468-2.823,0.68c0.464-0.338,1.957-0.786,2.48-1c-1.849-0.941-1.615-1.914-3.736-3.18
						c-2.643-0.12-1.836,0.81-4.479,0.69C44.159,53.93,48.857,52.797,46.855,50.892z"/>
					<path fill-rule="evenodd" clip-rule="evenodd" fill="#EF3561" d="M54.988-0.79c-0.96,0.924-3.452,1.383-5.223,2.056
						c0.253-1.665,6.447-1.531,4.473-3.876c-2.833,0.154-2.792-0.222-2.141-0.82c0.52,0.139,1.028,0.282,1.527,0.436
						c4.022,1.888,5.825,5.555,0.624,7.218C55.902,2.23,56.323,0.973,54.988-0.79z"/>
					<path fill-rule="evenodd" clip-rule="evenodd" fill="#EF3561" d="M14.686-2.551c-3.818,0.467,1.254,1.804,0.751,2.733
						c-3.129,0.718-3.909,2.147-6.711,2.967c0.493-0.607,0.311-1.421,1.491-1.824c7.405-1.92-2.875-5.428-3.745-7.503
						C11.235-5.584,9.732-3.077,14.686-2.551z"/>
					<path fill-rule="evenodd" clip-rule="evenodd" fill="#EF3561" d="M44.538-0.999c1.508,0.738-2.706,1.358-3.725,2.053
						c1.166-1.011,2.382-2.007,2.979-3.194c0.419,0.33,1.165,0.555,2.239,0.68c2.678-1.059-0.052-1.964,0.742-2.96
						c0.305,0.288,0.963,0.463,2.24,0.452c0.075-0.066,0.059-0.142-0.006-0.218c0.216,0.05,0.432,0.1,0.645,0.15
						c-0.12,1.118-2.318,2.243-2.874,3.257C45.753-0.765,45.141-0.88,44.538-0.999z"/>
					<path fill-rule="evenodd" clip-rule="evenodd" fill="#EF3561" d="M19.916,1.086c2.017-0.56,0.557-1.809,3.729-0.916
						c0.284-0.769-1.293-0.971-2.239-1.363c-1.483,0.005-0.949,0.624-2.985,0.458c1.846-0.778,1.845-1.957-0.004-2.729
						c4.553,1.006,3.807,2.288,6.722,3.632C24.627,0.708,20.427,1.299,19.916,1.086z"/>
					<path fill-rule="evenodd" clip-rule="evenodd" fill="#EF3561" d="M36.328-1.444c1.829,0.535-1.111,0.426-0.741,1.141
						c-0.071,0.704-2.915-0.7-2.987,0.004c-0.668,3.896-8.944,4.438-11.181,7.53c-8.355,0.537-4.388,1.944-0.741,3.184
						c-4.627,0.949-5.721,2.967-8.952,4.337c5.134,2.082-0.53,3.957-3.719,5.697c-11.009,1.448,7.861,5.428-0.737,7.511
						c1.672-2.032-1.532-3.717-3.738-5.225c-0.987,0.002-0.682,0.398-1.492,0.456c1.597-1.271-2.138-1.497-0.004-2.504
						c0.157,0.252,0.829,0.351,1.493,0.451c-0.976-0.977,2.115-0.721,2.983-1.142c-2.359,0.116-0.277-1.128-2.986-0.905
						c0.213-0.694-0.121-1.554,2.236-1.597c-1.218,1.065-0.227,1.789,2.244,2.271c1.812-0.883,2.031-2.968,4.471-2.964
						c-0.063-0.738-0.385-1.398-1.494-1.817c-2.013,0.481-5.015,0.419-2.985-0.451c0.653,1.289,1.293-1.695,2.984-0.234
						c0.207-0.396-2.104-1.128-0.002-1.361c0.362,0.266,0.795,0.512,1.492,0.681c1.483-1.434,7.73-3.95,1.486-5.009
						c-0.675,0.129-2.744,0.94-2.984,0.458c4.136-1.268,12.128-2.513,11.185-4.571c7.938-0.914,7.074-4.149,11.185-5.705
						C33.56-0.1,36.077-1.168,36.328-1.444z"/>
					<path fill-rule="evenodd" clip-rule="evenodd" fill="#EF3561" d="M42.308,3.554c-1.483,0.006-0.947,0.622-2.985,0.462
						c0.207-1.4-2.912-2.42-5.747-2.279c0.898-0.08,0.265-0.625,1.264-0.674c0.139,0.335,1.806,0.205,2.986,0.22
						c-0.319-0.432-2.131-0.409-1.496-1.132C41.539,0.999,36.009,2.365,42.308,3.554z"/>
					<path fill-rule="evenodd" clip-rule="evenodd" fill="#EF3561" d="M2.009,2.474c1.467-1.1,0.278-1.403,0.743-2.047
						c1.064,1.296,2.885,0.168,4.476-0.232C7.177,0.654,5.569,2.353,2.009,2.474z"/>
					<path fill-rule="evenodd" clip-rule="evenodd" fill="#EF3561" d="M16.186,0.635c1.19,0.168-0.169,1.112,2.239,0.907
						c0.117-0.267-0.129-0.646,0.745-0.682c-1.958,1.836-1.912,3.857-2.23,5.464c-2.981-0.22-1.429,0.708-2.983,1.37
						c0.364-0.717-1.346-0.803-0.748-1.592c2.677-0.172,3.252-0.985,2.982-2.052c-0.46,0.067-2.874,0.571-2.985,0.005
						C18.595,3.844,14.26,1.483,16.186,0.635z"/>
					<path fill-rule="evenodd" clip-rule="evenodd" fill="#EF3561" d="M60.97,8.762c-0.412-0.405-0.384-0.945-1.493-1.136
						c-1.813,0.516-0.454,1.982-2.981,2.28c-0.094-1.42,1.513-1.669,2.235-3.19c-1.704-0.309-2.806,0.594-2.987,0.004
						c3.774-0.195-2.109-0.892,0.746-1.365c-0.225,0.6,1.558,0.583,2.985,0.677c0.305-0.744,1.555-1.195,2.981-1.598
						c-1.223-0.687-0.587-1.944-2.987-2.27c8.755,0.993,1.5,2.449,0.752,3.867C59.554,7.303,62.797,7.645,60.97,8.762z"/>
					<path fill-rule="evenodd" clip-rule="evenodd" fill="#EF3561" d="M50.516,2.402c2.466,1.432,3.178,3.481-1.487,4.329
						c-0.381-0.375,1.231-1.844,2.237-1.368C51.98,4.358,48.339,2.885,50.516,2.402z"/>
					<path fill-rule="evenodd" clip-rule="evenodd" fill="#EF3561" d="M36.59,4.703c0,0.303,0,0.604,0.001,0.907
						c-2.877-0.191-3.152,0.564-4.976,0.693c-0.208-0.664-0.07-0.783,1.244-0.459c2.027-1.138-3.101-1.064-1.621-2.499
						c0.864,0.447,2.073,1.519,4.168,0.907C35.315,4.878,34.29,5.03,36.59,4.703z"/>
					<path fill-rule="evenodd" clip-rule="evenodd" fill="#EF3561" d="M48.284,6.959c-0.677,1.857-1.1,3.908-7.454,5.017
						c0.556-1.078,3.501-2.007,5.219-2.055c0.111-1.79,1.049-3.496-3.737-4.321c0.844-0.997-0.006-0.745-0.749-1.588
						C45.273,4.544,44.189,6.545,48.284,6.959z"/>
					<path fill-rule="evenodd" clip-rule="evenodd" fill="#EF3561" d="M34.11,11.079c0.968-0.568-1.667-1.101-0.001-1.139
						c0.157,0.255,0.825,0.353,1.494,0.453c1.455-1.752-0.088-3.162,2.23-4.785c0.968,2.804-2.748,6.924,5.983,8.641
						c-2.166,0.405-2.945,1.232-5.969,1.376c2.743-1.878,2.041-1.244,1.489-2.96c-1.368,0.089-2.527,0.364-3.73,0.005
						c1.073-0.543,1.131-0.56,2.236-0.689C36.629,11.428,36.757,10.632,34.11,11.079z"/>
					<path fill-rule="evenodd" clip-rule="evenodd" fill="#EF3561" d="M54.251,5.811c-1.091,0.637,1.061,1.355-1.49,1.826
						C53.64,6.643,51.783,6.231,54.251,5.811z"/>
					<path fill-rule="evenodd" clip-rule="evenodd" fill="#EF3561" d="M8.729,5.879c1.487,2.171,0.899,4.255-1.485,5.696
						c0.986,0,1.298,0.396,2.11,0.449c0.166-0.175,0.786-0.449,1.36-0.454c0.001,0.38,0.001,0.758,0.002,1.138
						c-2.876,0.249-2.239-1.711-5.092-0.9c2.094-1.509,2.061-2.582,3.414-4.557C8.29,7.25,7.997,7.063,7.392,7.021
						C7.152,7.284,4.062,7.811,3.583,7.258c4.657-0.075-1.106-1.208,2.2-1.145C5.998,7.227,8.475,6.156,8.729,5.879z"/>
					<path fill-rule="evenodd" clip-rule="evenodd" fill="#EF3561" d="M21.429,14.282c2.432-1.441-0.223-2.773-0.005-3.64
						c1.355,0.496,1.225,1.447,4.478,1.357c0.043-2.104,5.415-3.038,4.472-4.781C33.799,9.851,24.886,12.265,21.429,14.282z"/>
					<path fill-rule="evenodd" clip-rule="evenodd" fill="#EF3561" d="M24.419,18.378c2.203,0.232,4.086,0.568,5.227,1.129
						c-0.774,0.685-1.913,2.443-5.223,1.6c2.802-0.115-0.467-1.168,2.983-1.372c-0.521-0.67-2.45-0.918-3.735-1.355
						c-1.729,0.154-1.993,0.759-3.728,0.915c2.762-0.688,1.945-2.437,1.489-2.962c1.576,0.2,1.299,0.971,3.732,0.905
						c3.013-2.23,6.645-4.028,7.452-6.382c1.919,1.117-0.921,2.282,1.499,3.186C27.53,14.47,28.281,17.12,24.419,18.378z"/>
					<path fill-rule="evenodd" clip-rule="evenodd" fill="#EF3561" d="M33.544,20.996c-0.105-0.103-0.167-0.222-0.167-0.355
						C33.427,20.754,33.485,20.876,33.544,20.996z"/>
					<path fill-rule="evenodd" clip-rule="evenodd" fill="#EF3561" d="M34.138,29.971c0.617,0.644-1.05,0.591-0.746,1.138
						c-1.718,1.481,0.31-2.027-0.004-2.958c-0.594-0.023-2.261-0.75-0.748-0.683c1.007,0.375,1.909,0.781,3.732,0.903
						c0.969-2.314-1.744-5.164-2.829-7.375c0.481,0.475,1.921,0.657,2.819,1.005c1.227-1.517-1.435-3.734-4.481-3.863
						c4.267-0.924-2.393-1.659-0.003-2.505c-0.095,0.41,0.743,0.53,2.24,0.455c0.571-0.863-0.913-1.09-0.751-1.824
						c5.126,1.299-2.249,4.4,4.486,5.455c-0.63-1.025,1.745-1.138,2.238-1.819c0.212-0.404-3.518-0.705-1.495-0.911
						c0.208,0.466,1.993,0.451,2.987,0.678c-1.412-0.772,2.249-1.661,2.234-2.734c3.164,1.485-2.907,2.372-2.232,3.644
						c-8.797,1.339-0.618,7.775-5.211,10.477c1.245,0.456,2.004,1.057,4.483,1.135c4.307-1.722,2.602-2.296-1.5-3.869
						c6.169,0.762,7.95,2.875,11.202,4.537c-3.581,0.354-3.915,1.694-5.221,2.737c2.696,0.852,6.766,3.426,3.739,4.544
						c0.513-0.753-1.545-0.361-2.241-0.221c1.347-0.762,1.373-1.076,1.49-2.505c-3.24-0.337-2.463-1.928-5.973-1.585
						c0.867-0.105,0.84-1.001,1.49-1.367c-0.151,0.084,0.41,0.559,0.745,0.452c2.668-0.843,3.534-2.573,0.741-4.326
						c-3.342,1.158-6.411,2.21-3.724,4.102c-4.796,0.125,1.428-1.904-4.482-1.585c1.392-0.796-0.381-1.204-1.493-1.818
						C34.691,29.38,34.105,29.581,34.138,29.971z"/>
					<path fill-rule="evenodd" clip-rule="evenodd" fill="#EF3561" d="M8.758,24.545c0.184-2.331,9.175-2.822,6.708-5.245
						c5.043,0.775-1.039-1.418,2.983-1.598c-0.521,0.997,1.268,1.28,0.749,2.274C14.314,21.074,13.755,23.482,8.758,24.545z"/>
					<path fill-rule="evenodd" clip-rule="evenodd" fill="#EF3561" d="M25.935,34.078c-0.022-1.067,3.706-0.999,3.73-2.051
						c-0.717-1.071-2.351-1.862-3.737-2.727c-2.689,0.026-2.59,2.081-5.219,1.375c1.546-0.745,3.485-1.368,4.472-2.287
						c-3.081-0.41-0.55-1.449-3.734-2.041c3.592-0.755,2.604,1.546,5.226,1.813c0.833-0.816,2.743-2.496,1.489-3.188
						c-1.178,0.02-0.584,0.579-2.24,0.457c0.913-0.967,2.372-2.553-1.494-1.592c-0.545-0.616,1.481-0.459,1.491-0.913
						c-0.812-0.051-1.792-0.373-0.747-0.453c6.633,1.358,5.078,4.528,1.502,6.596c1.666,1.239,5.119,1.928,5.23,3.634
						C29.538,33.045,27.841,33.596,25.935,34.078z"/>
					<path fill-rule="evenodd" clip-rule="evenodd" fill="#EF3561" d="M3.256,23.414c0,0.306,0.001,0.607,0.001,0.912
						c-3.451,0.033-1.883,1.889-4.337,2.282c-0.106-0.773,0.277-2.474-1.798-1.362c0.55-1.026,1.855-0.747-0.154-1.591
						c2.343-0.114,2.504,0.606,4.265,0.674C2.268,24.188,2.104,23.453,3.256,23.414z"/>
					<path fill-rule="evenodd" clip-rule="evenodd" fill="#EF3561" d="M18.472,33.634c0.731-0.89,2.229-1.83-0.75-2.502
						c-0.081,0.183-2.466,0.695-2.239,0.233c0.869-0.042,0.812-0.362,0.747-0.685c1.388-0.22,2.494,0.677,2.983-0.004
						c-0.739-0.655-2.483-0.99-0.749-1.821C18.9,30.195,25.064,32.96,18.472,33.634z"/>
					<path fill-rule="evenodd" clip-rule="evenodd" fill="#EF3561" d="M7.289,41.163c0.308,0.284,0.964,0.462,2.241,0.452
						c3.216-3.118-0.07-4.692-3.743-6.822c2.836-1.564,4.046-3.629,7.457-5.02c0.574,0.637-2.044,2.222-1.492,2.96
						c-2.069-0.388-2.4,1.691-4.473,2.058c5.23,1.813,3.699,5.698,11.95,6.583c0.341,1.085-0.807,1.724-2.98,2.052
						c2.519-1.717-1.371-2.536-3.739-3.409c-4.422,0.369,0.095,3.421-2.979,3.191c0.234-0.309,1.06-0.434,0.746-0.913
						C8.125,42.865,5.568,41.639,7.289,41.163z"/>
					<path fill-rule="evenodd" clip-rule="evenodd" fill="#EF3561" d="M6.527,30.696c1.628-0.045,2.375,0.184,2.24,0.68
						c-0.695,0.242-2.755,0.071-2.238,0.685C2.593,31.988,9.662,31.277,6.527,30.696z"/>
					<path fill-rule="evenodd" clip-rule="evenodd" fill="#EF3561" d="M27.433,37.49c0.781,0.595,2.366,0.945,3.732,1.363
						c0.229-1.466,1.676-2.644-1.496-3.412c2.107-0.192,1.935,0.317,3.729,0.224c-1.155-0.335,1.038-1.465-2.241-1.595
						c0.415-0.404,0.382-0.942,1.491-1.14c1.573,0.582,1.18,1.767,2.243,2.502c-5.651,0.84,1.832,5.996-3.723,5.694
						c1.65-0.031,0.317-0.964,0.745-1.368C28.392,39.77,27.06,37.92,27.433,37.49z"/>
					<path fill-rule="evenodd" clip-rule="evenodd" fill="#EF3561" d="M39.396,52.725c1.004-2.104,2.437-3.266-0.007-4.781
						c0.515,0.61-1.542,0.441-2.239,0.687c2.384-1.547,1.012-3.554-0.754-4.552c-6.522,0.46-1.798,2.582-2.23,4.33
						c-3.147,0.032-3.773,0.827-5.968,1.142c1.672-0.779,2.855-1.708,4.472-2.506c-0.185-0.931-1.445-1.533-2.986-2.047
						c2.393-0.334,4.718-0.687,5.219-1.599c-1.883-0.076-1.323-1.773-0.749-2.276c1.225,0.61,0.377,1.858,2.986,2.044
						c1.208-0.846,3.754-1.286,4.477-2.284c-0.994-0.228-2.778-0.208-2.986-0.678c2.535-1.014-1.634-1.921-0.752-3.184
						c1.285-0.092,1.915,0.334,2.24-0.003c1.876-1.899-0.934-1,4.472-1.83c-6.99,1.999-2.34,5.31-1.479,7.514
						c-0.361-0.266-0.797-0.515-1.493-0.677c-2.407,0.328-3.311,1.115-4.478,1.827c6.4,2.048,3.289,7.589,6.732,9.321
						C40.855,53.487,41.514,52.684,39.396,52.725z"/>
					<path fill-rule="evenodd" clip-rule="evenodd" fill="#EF3561" d="M25.935,34.307c0.308,0.546-1.362,0.497-0.744,1.141
						c-1.702-0.311-2.804,0.591-2.985,0.004c2.046-0.205-1.457-1.012,1.49-0.461c0.035-0.693-1.574-0.882-2.239-1.361
						C23.683,33.632,23.997,34.216,25.935,34.307z"/>
					<path fill-rule="evenodd" clip-rule="evenodd" fill="#EF3561" d="M-0.169,44.133c1.642-1.401,1.966-3.421-2.992-3.866
						c-0.369-0.805,4.104-1.315,1.491-2.053c-1.963-0.063-0.586,0.888-2.984,0.692c1.112-1.029,3.953-1.533,5.221-2.513
						c-0.754-0.746-1.292-0.665-2.986-0.224c0.613-0.697,2.097-0.552,0.744-1.366C0.72,35-0.128,34.208,1.309,34.115
						c1.679,1.864-3.657,4.924,0.758,7.056c-0.083-1.332,5.931-1.447,4.473-2.51c1.028-0.01,1.64,0.103,2.24,0.225
						c0.454,0.011,0.883,0.03,0.747,0.228c-3.911,0.873-9.332,2.086-5.965,3.876C1.877,43.236,1.389,43.846-0.169,44.133z"/>
					<path fill-rule="evenodd" clip-rule="evenodd" fill="#EF3561" d="M19.969,36.979c0.467,0.542,1.006,0.978,2.989,1.056
						c0.469-0.769,2.139-1.21,1.487-2.324c2.713-0.066,0.999,1.198,2.24,1.576c-2.267,0.22-3.113,0.862-4.475,1.36
						c2.071,0.96,2.511,2.411,2.246,4.088c1.027,0.007,1.639-0.112,2.237-0.233c-1.31,0.876,0.245,1.975,0.752,2.956
						c-3.326,0.259,0.454-1.499-3.735-0.971c1.481-1.814-2.215-2.938-1.498-4.847c-0.745,0.001-1.49,0.002-2.238,0.003
						C22.097,38.116,17.328,37.75,19.969,36.979z"/>
					<path fill-rule="evenodd" clip-rule="evenodd" fill="#EF3561" d="M22.975,49.333c1.281-0.093,1.912,0.337,2.236-0.003
						c-1.609-0.188,0.279-1.452-1.497-1.589c-1.408,0.251-2.613,0.569-4.474,0.69c2.008-0.526,3.184-1.746,5.968-1.375
						c0.664-0.711,0.766-1.591,3.731-1.6c-6.639,1.903-1.276,5.357-2.229,7.742c1.941,0.087,2.255,0.676,4.479,0.673
						c3.396-1.968,2.141-2.6,2.23-5.234c3.98,0.422,0.208,2.693,2.247,4.094c-7.976,1.647-2.861,5.942-11.933,7.073
						c2.085-1.981,10.084-4.438,2.231-6.108c-0.816,0.663-0.671,1.785-1.489,2.55c-0.995,0.001-1.989,0.003-2.984,0.004
						c3.379-1.722,5.162-3.445,2.976-5.51c-1.734,0.155-1.998,0.622-3.728,0.779C21.328,50.361,26.194,50.525,22.975,49.333z"/>
					<path fill-rule="evenodd" clip-rule="evenodd" fill="#EF3561" d="M49.83,44.515c2.489-0.19,4.232-0.113,5.224-1.146
						c-2.044-0.211-1.185-1.135-2.422-1.591c-2.485,0.156-2.184,1.031-3.906,1.372c0-0.381-0.001-0.757-0.001-1.136
						c4.024,0.199,1.988-1.553,4.652-1.148c-1.167-0.716,0.127-1,0.46-1.818c-1.299-0.018-2.463,0.052-3.125,0.229
						c0.681-0.399,0.184-1.135,1.42-1.367c3.817,0.573,2.795,2.729,0.716,3.867c2.162,0.402,1.438,1.681,5.209,1.587
						c0.039,1.147-6.297,0.367-4.484,2.055C51.136,45.482,51.406,44.714,49.83,44.515z"/>
					<path fill-rule="evenodd" clip-rule="evenodd" fill="#EF3561" d="M27.441,42.498c-0.152-0.728,1.25-0.987,2.984-1.14
						C29.592,41.786,29.377,42.405,27.441,42.498z"/>
					<path fill-rule="evenodd" clip-rule="evenodd" fill="#EF3561" d="M13.267,45.572c-0.994,0.001-1.992,0.003-2.984,0.004
						c-0.118,0.382,0.129,0.483-0.746,0.526c-1.827-0.536,1.113-0.509,0.745-1.219c1.083-0.128,3.857,0.218,3.729-0.278
						c0.157-0.431-2.576-1.154-0.748-1.835c-0.516,0.914,3.143,0.543,2.987,1.35c-0.222,0.465-2.019,0.443-2.239,0.906
						c4.763,0.714,4.28,3.411,1.499,4.777c0.89,0.714,2.52,1.199,2.988,2.043c-3.293-0.317-0.008,1.361-2.235,1.369
						c-2.014-1.086,2.209-2.906-2.99-3.183c2.513-1.108,1.96-1.771,3.725-3.258C13.921,47.284,16.02,46.139,13.267,45.572z"/>
					<path fill-rule="evenodd" clip-rule="evenodd" fill="#EF3561" d="M1.336,52.097c1.974-1.279,2.575-1.929,2.235-2.963
						c0.649,0.332,1.118,0.72,2.985,0.681c-2.492-1.292,1.693-1.367-1.498-2.274c-1.063,0.055-1.255,0.374-2.236,0.458
						c0.724-0.683,0.192-1.387,0.744-1.593c1.171,0.171,1.115,0.719,2.985,0.678c1.302-1.772-2.857-3.068-2.244-3.868
						c5.521,1.469,2.393,4.199,2.995,7.051C3.845,50.432,4.491,51.839,1.336,52.097z"/>
					<path fill-rule="evenodd" clip-rule="evenodd" fill="#EF3561" d="M21.474,44.783c-1.734,0.157-1.996,0.76-3.73,0.914
						c0.511-0.714-0.088-0.928,0.744-1.135c0.125,0.264,1.179,0.245,2.241,0.222C20.668,44.433,22.897,44.623,21.474,44.783z"/>
					<path fill-rule="evenodd" clip-rule="evenodd" fill="#EF3561" d="M53.566,45.643c2.94-0.314,3.591,2.058,2.238,1.593
						C56.402,46.294,53.094,46.547,53.566,45.643z"/>
					<path fill-rule="evenodd" clip-rule="evenodd" fill="#EF3561" d="M-1.994,47.322c0.651,0.334,0.685,0.88,2.984,0.679
						c0,0.302,0.001,0.607,0.001,0.911C-1.308,48.919-3.043,47.586-1.994,47.322z"/>
					<path fill-rule="evenodd" clip-rule="evenodd" fill="#EF3561" d="M-0.15,57.335c-0.606-1.174,3.426-0.936,3.73-1.827
						c-2.059-0.583-1.913-1.845-3.737-2.499c-1.732,0.154-1.996,0.757-3.728,0.913c0.581-0.805,2.169-1.312,2.98-2.051
						c3.602,0.645,2.542,2.712,5.974,3.403c3.059-0.91,3.303-2.859,1.487-4.553c2.643,0.405,3.024,1.502,3.737,2.499
						c-1.659,0.788-3.068,1.647-4.476,2.511c2.368,0.413,3.352,1.25,4.483,2.041c-5.764,0.115-4.347,2.41-8.73,2.945
						c-0.076,0.008-0.147,0.02-0.223,0.028c0.021-0.008,0.036-0.02,0.057-0.027c2.584-1.152,1.142-2.416,1.431-3.388
						c0.083,0.581,1.37,0.792,2.238,1.136c2.166-0.704,2.527-1.909-0.004-2.733C2.336,55.967,3.047,57.242-0.15,57.335z"/>
					<path fill-rule="evenodd" clip-rule="evenodd" fill="#EF3561" d="M35.675,58.645c2.035-0.169,1.501,0.451,2.985,0.452
						c1.485-0.865,4.108-1.986,1.355-2.959c-1.065,0.087-0.473,0.272-1.625,0.002c0,0.152,0.001,0.302,0.001,0.453
						c-4.024-0.182,1.624-0.666,1.623-1.138c-0.877-0.038-2.426,0.042-2.545-0.227c2.854-0.197,0.599-1.187-0.158-1.592
						c2.349,0.259,1.737-0.361,2.91-0.458c-1.712,1.87,2.676,3.269,2.207,5.457c-2.491,0.013-3.188,0.573-3.055,1.381
						c-0.249,0.027-0.506,0.053-0.756,0.079c-0.706-0.24-0.413-0.662-2.938-0.765C36.952,59.232,35.518,59.037,35.675,58.645z"/>
					<path fill-rule="evenodd" clip-rule="evenodd" fill="#EF3561" d="M17.112,58.217c1.149-0.071,0.685,0.577,1.446,0.722
						c0.009-1.212-2.255-1.729-3.037-2.681c-0.496,0.001-0.993,0.002-1.492,0.002c0.565,0.763-1.952,0.501-2.983,0.87
						c2.238-1.284,5.203-1.488,4.471-3.328c1.968-0.069,1.925,0.407,2.241,0.841c-3.071,1.014,4.862,3.205,1.548,4.517
						c-0.733-0.697-1.617,0.068-2.191,0.197C17.114,58.979,17.113,58.596,17.112,58.217z"/>
					<path fill-rule="evenodd" clip-rule="evenodd" fill="#EF3561" d="M33.43,56.6c3.988-0.188,1.248,1.832,0.001,0.686
						c0.004,0.124-0.604,0.261-0.746,0.001C33.555,57.246,33.498,56.922,33.43,56.6z"/>
					<path fill-rule="evenodd" clip-rule="evenodd" fill="#EF3561" d="M16.058,61.219l-1.328,0.002
						c-1.793-0.951-4.049-1.808-3.683-2.701C13.515,59.174,14.307,60.268,16.058,61.219z"/>
					<path fill-rule="evenodd" clip-rule="evenodd" fill="#EF3561" d="M44.627,58.631c0.461,0.108,0.999,0.243,1.563,0.394
						c-0.304,0.053-0.612,0.106-0.923,0.161C44.43,58.942,43.551,58.729,44.627,58.631z"/>
				</g>
			</g>
		</g>
		<g>
			
				<path fill="none" stroke="#FF8C8C" stroke-width="1.6986" stroke-linecap="round" stroke-miterlimit="10" stroke-dasharray="4.6853,4.6853" d="
				M4.631,29.091c0.021,14.004,11.392,25.34,25.397,25.319C44.035,54.39,55.371,43.02,55.35,29.016
				C55.329,15.006,43.96,3.669,29.953,3.69C15.947,3.711,4.611,15.082,4.631,29.091z"/>
		</g>
		<g>
			
				<path fill="none" stroke="#A10404" stroke-width="1.6986" stroke-linecap="round" stroke-miterlimit="10" stroke-dasharray="4.6852,4.6852" d="
				M5.577,29.09c0.021,14.004,11.389,25.34,25.397,25.319c14.005-0.021,25.34-11.391,25.32-25.395
				c-0.021-14.01-11.39-25.347-25.396-25.326C16.89,3.709,5.556,15.08,5.577,29.09z"/>
		</g>
		<path fill="#F8FFE5" d="M33.734,43.459L16.455,30.038c-0.663-0.517-0.665-1.432-0.003-1.949L33.851,14.49
			c0.505-0.393,1.265-0.514,1.926-0.302c0.658,0.21,1.09,0.714,1.091,1.27l0.041,27.147c0,0.005,0,0.011,0,0.016
			c0.001,0.763-0.788,1.381-1.764,1.382C34.571,44.004,34.056,43.791,33.734,43.459z"/>
	</g>
</g>
</svg>
