<?xml version="1.0" encoding="utf-8"?>
<!-- Generator: Adobe Illustrator 16.0.3, SVG Export Plug-In . SVG Version: 6.00 Build 0)  -->
<!DOCTYPE svg PUBLIC "-//W3C//DTD SVG 1.1//EN" "http://www.w3.org/Graphics/SVG/1.1/DTD/svg11.dtd">
<svg version="1.1" xmlns="http://www.w3.org/2000/svg" xmlns:xlink="http://www.w3.org/1999/xlink" x="0px" y="0px"
	 width="59.984px" height="59.041px" viewBox="0 0 59.984 59.041" enable-background="new 0 0 59.984 59.041" xml:space="preserve">
<g id="圖層_1" display="none">
</g>
<g id="BG">
</g>
<g id="日期">
</g>
<g id="表格">
</g>
<g id="UI">
	<g>
		<circle fill="#C4002F" cx="30.937" cy="29.991" r="29.048"/>
		<path fill="#EF476F" d="M58.095,29.009c0.023,16.04-12.963,29.068-29.006,29.092C13.048,58.125,0.024,45.135,0,29.095
			C-0.024,13.05,12.961,0.024,29.002,0C45.045-0.023,58.07,12.963,58.095,29.009z"/>
		<g>
			<defs>
				<path id="SVGID_27_" d="M58.095,29.009c0.023,16.04-12.963,29.068-29.006,29.092C13.048,58.125,0.024,45.135,0,29.095
					C-0.024,13.05,12.961,0.024,29.002,0C45.045-0.023,58.07,12.963,58.095,29.009z"/>
			</defs>
			<clipPath id="SVGID_2_">
				<use xlink:href="#SVGID_27_"  overflow="visible"/>
			</clipPath>
			<g opacity="0.9" clip-path="url(#SVGID_2_)">
				<g>
					<path fill-rule="evenodd" clip-rule="evenodd" fill="#EF3561" d="M60.129-0.8c-0.555,0.527-2.971,1.069,0.748,1.138
						C60.468,0.008,61.748-0.842,60.129-0.8z"/>
					<path fill-rule="evenodd" clip-rule="evenodd" fill="#EF3561" d="M13.115-0.273c-1.105,0.726-1.543,1.656-2.98,2.28
						c1.116,0.417,3.115,0.563,3.732,1.132c-0.316,2.081,0.849,1.363,1.493-0.002C12.01,2.155,14.45,0.958,13.115-0.273z"/>
					<path fill-rule="evenodd" clip-rule="evenodd" fill="#EF3561" d="M36.256,2.877c0.333-0.115-0.79-1.722-1.497-2.272
						C33.501,1.155,33.546,2.83,36.256,2.877z"/>
					<path fill-rule="evenodd" clip-rule="evenodd" fill="#EF3561" d="M56.405,4.441c0.888-0.984-2.447-1.271-0.75-1.818
						C51.093,2.746,55.507,3.968,56.405,4.441z"/>
					<path fill-rule="evenodd" clip-rule="evenodd" fill="#EF3561" d="M51.925,3.311c0.004,0.607-2.357,0.498-2.238,1.14
						c0.421,0.325,1.167,0.553,2.24,0.682C50.952,4.357,53.589,3.539,51.925,3.311z"/>
					<path fill-rule="evenodd" clip-rule="evenodd" fill="#EF3561" d="M56.407,5.578c1.73-0.073,2.865,0.034,3.731,0.222
						c-1.117-0.848,0.786-1.299-1.494-1.585C57.564,4.566,57.076,5.101,56.407,5.578z"/>
					<path fill-rule="evenodd" clip-rule="evenodd" fill="#EF3561" d="M32.526,5.162c-0.084,0.808-2.76,0.827-2.238,1.822
						C32.51,6.962,33.937,5.529,32.526,5.162z"/>
					<path fill-rule="evenodd" clip-rule="evenodd" fill="#EF3561" d="M58.65,8.08c1.115-0.043,2.753,0.079,2.984-0.233
						c-1.857-0.031-0.22-0.768-0.001-0.91C59.285,6.909,59.072,7.525,58.65,8.08z"/>
					<path fill-rule="evenodd" clip-rule="evenodd" fill="#EF3561" d="M8.649,7.7c-0.21,0.598,0.273,0.975,2.24,0.91
						C11.099,8.011,10.615,7.628,8.649,7.7z"/>
					<path fill-rule="evenodd" clip-rule="evenodd" fill="#EF3561" d="M36.263,7.658c-0.662,0.408-2.084,0.582-1.491,1.37
						c1.687-0.042,3.284,1.088,4.476,0.447C36.793,9.316,37.523,8.183,36.263,7.658z"/>
					<path fill-rule="evenodd" clip-rule="evenodd" fill="#EF3561" d="M7.16,8.615c0.023,1.243-6.69,2.429-1.488,3.188
						C4.093,10.589,10.549,9.403,7.16,8.615z"/>
					<path fill-rule="evenodd" clip-rule="evenodd" fill="#EF3561" d="M9.402,12.478c0.649,0.333,1.12,0.723,2.985,0.681
						c-2.509-1.199,0.276-1.211,1.492-2.279C11.127,11.031,9.966,11.663,9.402,12.478z"/>
					<path fill-rule="evenodd" clip-rule="evenodd" fill="#EF3561" d="M14.638,19.751c-0.191-1.327-3.995-1.774-0.75-2.956
						c-4.054-0.577-3.873-2.456-5.23-3.858c-0.841,0.728-1.516,1.507-1.487,2.501C14.176,15.918,8.57,18.92,14.638,19.751z"/>
					<path fill-rule="evenodd" clip-rule="evenodd" fill="#EF3561" d="M39.256,15.39c3.201-0.24,2.427-1.625,2.237-2.275
						C40.668,13.949,37.845,14.525,39.256,15.39z"/>
					<path fill-rule="evenodd" clip-rule="evenodd" fill="#EF3561" d="M33.287,14.718c1.965,0.067,2.448-0.318,2.237-0.912
						C33.558,13.741,33.075,14.124,33.287,14.718z"/>
					<path fill-rule="evenodd" clip-rule="evenodd" fill="#EF3561" d="M42.246,17.437c-0.256-0.83-0.082-1.797-2.99-1.817
						C39.837,16.354,40.818,16.964,42.246,17.437z"/>
					<path fill-rule="evenodd" clip-rule="evenodd" fill="#EF3561" d="M59.41,18.323c2.339,0.491,2.968,1.517,6.72,1.581
						c-0.359-1.532-4.695-0.494-3.734-2.497c0.078-0.356,4.447-1.052,0.745-1.14C62.844,17.241,59.838,17.39,59.41,18.323z"/>
					<path fill-rule="evenodd" clip-rule="evenodd" fill="#EF3561" d="M5.679,16.808c0.567,0.813-2.311,1.568,0.747,1.82
						C5.971,18.085,7.362,16.975,5.679,16.808z"/>
					<path fill-rule="evenodd" clip-rule="evenodd" fill="#EF3561" d="M15.39,22.715c2.026-1.187,2.227-2.803,1.485-3.875
						C14.589,19.942,15.627,21.846,15.39,22.715z"/>
					<path fill-rule="evenodd" clip-rule="evenodd" fill="#EF3561" d="M10.168,23.994c-0.785-1.303,2.594-1.329,2.98-2.282
						c-0.749,0.001-1.495,0.002-2.239,0.003C10.692,22.857,7.273,22.993,10.168,23.994z"/>
					<path fill-rule="evenodd" clip-rule="evenodd" fill="#EF3561" d="M31.057,21.552c-1.115,0.065,0.464,1.203,1.497,1.361
						C32.1,22.445,33.753,21.332,31.057,21.552z"/>
					<path fill-rule="evenodd" clip-rule="evenodd" fill="#EF3561" d="M39.266,21.767c-2.802,0.471,1.25,1.781,0.004,3.187
						C41.725,24.438,40.984,22.113,39.266,21.767z"/>
					<path fill-rule="evenodd" clip-rule="evenodd" fill="#EF3561" d="M20.616,25.663c-0.596-1.337-1.952-2.435-4.482-3.18
						C16.651,23.842,18.326,24.85,20.616,25.663z"/>
					<path fill-rule="evenodd" clip-rule="evenodd" fill="#EF3561" d="M7.928,24.543c0.584-0.158,1.66-1.273-0.002-1.364
						C7.308,23.607,5.173,24.364,7.928,24.543z"/>
					<path fill-rule="evenodd" clip-rule="evenodd" fill="#EF3561" d="M13.903,27.494c-2.593-1.75,4.07-2.706,1.488-3.87
						C14.054,24.841,7.882,26.667,13.903,27.494z"/>
					<path fill-rule="evenodd" clip-rule="evenodd" fill="#EF3561" d="M43.747,23.807c-3.373,1.539-3.264,4.966,2.249,5.688
						c-1.704-0.94,1.297-1.136-0.002-1.595c-0.125,0.266-1.18,0.251-2.24,0.233C40.347,26.791,45.701,25.196,43.747,23.807z"/>
					<path fill-rule="evenodd" clip-rule="evenodd" fill="#EF3561" d="M56.439,27.201c2.409,0.114,4.016-1.187,2.237-1.594
						C58.605,26.344,55.293,26.098,56.439,27.201z"/>
					<path fill-rule="evenodd" clip-rule="evenodd" fill="#EF3561" d="M45.255,33.138c-0.32,0.434-1.608,0.575-1.492,1.139
						c2.687-0.141,2.201,0.693,4.481,0.674C47.688,33.712,46.271,34.154,45.255,33.138z"/>
					<path fill-rule="evenodd" clip-rule="evenodd" fill="#EF3561" d="M17.115,34.998c1.028-0.007,1.376,0.106,1.977,0.226
						c0.875-0.597,0.822-0.792,1.974-0.231c-0.001-0.302-0.001-0.606-0.001-0.909C18.761,34.127,17.143,34.248,17.115,34.998z"/>
					<path fill-rule="evenodd" clip-rule="evenodd" fill="#EF3561" d="M46.753,38.139c-2.676-1.09-2.917-2.751-4.481-3.629
						c-0.534,0.668-0.852,1.407-2.236,1.822C43.604,36.529,43.454,37.864,46.753,38.139z"/>
					<path fill-rule="evenodd" clip-rule="evenodd" fill="#EF3561" d="M14.666,37.963c-0.195,0.926-1.404,1.547-2.238,2.278
						c2.783-0.244,2.411,0.479,3.733,0.677C14.05,39.936,17.709,38.396,14.666,37.963z"/>
					<path fill-rule="evenodd" clip-rule="evenodd" fill="#EF3561" d="M18.407,45.693c-1.167-1.24-3.732-1.916-3.734-2.951
						c-2.975,1.678-4.287,3.856-6.709,5.703c5.248-0.459,2.957-3.203,6.711-4.108C16.672,44.556,15.603,45.723,18.407,45.693z"/>
					<path fill-rule="evenodd" clip-rule="evenodd" fill="#EF3561" d="M60.943,44.948c-2.41-0.109-4.018,1.188-2.236,1.6
						C59.14,45.919,60.563,45.595,60.943,44.948z"/>
					<path fill-rule="evenodd" clip-rule="evenodd" fill="#EF3561" d="M15.43,49.566c-1.351-0.646-2.112-1.472-5.226-1.582
						c-0.618,0.646,1.052,0.588,0.745,1.136C13.971,48.804,13.312,49.61,15.43,49.566z"/>
					<path fill-rule="evenodd" clip-rule="evenodd" fill="#EF3561" d="M49.753,47.925c-0.462,0.617-3.118,0.574-2.983,1.37
						C49.497,49.5,51.028,48.18,49.753,47.925z"/>
					<path fill-rule="evenodd" clip-rule="evenodd" fill="#EF3561" d="M13.201,57.539c-0.375-0.566-1.413-0.93-2.241-1.361
						C11.18,56.793,9.914,57.864,13.201,57.539z"/>
					<path fill-rule="evenodd" clip-rule="evenodd" fill="#EF3561" d="M13.192,50.94c-1.535,0.105-1.733-0.597-1.497-1.592
						c-1.258,0.377-0.922,1.236-2.236,1.598c3.035,1.28,4.189,3.638,0.007,4.779c-3.363-0.85-5.317-2.936-0.75-3.869
						c-1.844-0.397-3.944,1.07-5.222,1.602c-1.24-1.062-2.426-2.143-2.245-3.637c2.038-0.174,1.504,0.447,2.987,0.447
						c1.43-0.293-1.762-0.466-0.001-1.138c-3.774-0.503-1.159-0.658-3.735-2.04c0.6,0.118,1.212,0.234,2.24,0.222
						c-1.458-0.763-1.694-1.911-5.228-2.042c0.94-0.976-0.056-1.125-0.003-2.274c1.428-0.108,3.213,0.697,2.985-0.233
						c-3.384,0.316,0.178-1.844,1.488-2.277c-4.844,0.064-1.839-1.778-1.497-3.186c1.998,0.148,2.837,0.647,4.479,0.901
						c-0.085-0.806-2.762-0.82-2.24-1.814c1.353,0.71,2.594-0.748,1.491-0.682c1.175-1.038,2.669,0.334,4.478,0.445
						c-0.445-0.773-1.629-1.323-2.987-1.816c0.841-0.485,0.857-0.491,2.983-0.916c-1.229-0.735-0.292-1.407,0.742-2.046
						c-1.24-0.582-2.001,0.889-4.475,0.688c1.273,1.722-1.962,3.657-3.725,4.702c-3.697-0.542-0.333-1.863-2.989-2.817
						c0.995-0.001,1.991-0.003,2.984-0.004c-1.661-0.569-2.735-1.428-2.241-2.639c2.033-0.171,1.502,0.376,2.985,0.375
						c0.606-0.545-2.29-1.297-0.003-1.629c-0.326-0.334-0.955,0.073-2.238-0.014c0.668-0.665,0.668-0.707-0.002-1.373
						c3.792,0.681,0.357-0.987,2.983-1.602c1.724,0.536,3.112,1.169,2.988,2.272c0.668,0.622,3.027-0.541,2.238,0.677
						c2.662-0.142,0.525-1.315-1.495-1.365c0.32-0.436,2.134-0.414,1.492-1.141c-3.835,1.461-5.131-3.573-1.5-4.321
						c-2.438-0.43-1.106-1.413-0.747-1.82c2.38-0.201,2.309,0.354,3.73,0.451c0.405-0.81-2.641-0.558-2.238-1.364
						c1.711-0.315,2.396-0.94,3.727-1.371c-0.867,0.036-1.328-0.047-1.494-0.227c-8.646,2.041-3.926,6.173-8.939,8.889
						c-4.134-2.683-5.712-5.008-1.505-8.417c2.639,0.177,2.734,1.134,5.226,1.358c0.267-1.337-4.778-1.105-3.736-3.182
						c0.98,0.229,2.752,0.218,3.732,0.452c-1.116-0.269-0.879-0.947-2.988-0.908c2.057-0.06,0.793-1.126,2.237-1.37
						c-0.325-0.335-0.955,0.092-2.239,0.003c-0.169-0.948,1.213-1.074-0.002-1.819c0.979-0.274,1.175-0.09,2.239-0.003
						c-1.715-0.603-1.716-1.445-0.003-2.047c-1.666-0.569-1.817,1.254-4.475,1.144c-0.618-0.93-0.116-0.787-0.003-1.823
						c-1.333,1.104-1.165-0.065-3.73,0.462c11.42,2.578-0.742,8.466,0.018,11.833c0.554,0.616-1.569,0.422-2.117,0.702
						c-0.102,0.049-0.156,0.12-0.122,0.213c0.039,0.039,0.085,0.076,0.123,0.116c1.455,1.401,4.796,2.223,6.601,3.515
						c-3.279,2.353-1.86,5.845-2.974,7.748c0.926,0.474,2.17,0.848,3.733,1.128c-1.344,0.93-1.704,1.272-3.729,1.599
						c3.354,2.456-0.667,3.464-0.697,5.921c-2.083,0.021-3.739-0.369-4.317-0.742l0.001,0.661c1.728,0.577,5.256,0.885,6.559,1.668
						c3.379,2.043-0.834,4.936,3.349,7.507c-0.263,0.482-0.806,1.058-1.355,1.652c0.71,0.329,1.547,0.646,2.341,0.957
						c-0.248-1.087-0.167-1.055-0.676-2.157c3.533,0.284,4.632,1.32,6.741,2.043c-1.585,0.489-1.314,1.258-0.319,1.912
						c0.908,0.238,1.854,0.462,2.825,0.671c-0.467-0.337-1.959-0.78-2.485-0.992c1.848-0.946,1.611-1.918,3.727-3.191
						c2.643-0.128,1.84,0.804,4.482,0.677C15.898,53.969,11.196,52.851,13.192,50.94z"/>
					<path fill-rule="evenodd" clip-rule="evenodd" fill="#EF3561" d="M4.905-0.718c0.963,0.921,3.457,1.373,5.229,2.04
						C9.877-0.341,3.682-0.189,5.65-2.54c2.833,0.145,2.79-0.229,2.137-0.826c-0.519,0.14-1.026,0.284-1.525,0.439
						C2.246-1.027,0.453,2.646,5.66,4.293C4.001,2.305,3.576,1.049,4.905-0.718z"/>
					<path fill-rule="evenodd" clip-rule="evenodd" fill="#EF3561" d="M45.202-2.599c3.821,0.456-1.248,1.808-0.742,2.735
						c3.131,0.709,3.915,2.136,6.72,2.947c-0.496-0.606-0.315-1.42-1.497-1.82c-7.412-1.898,2.858-5.436,3.721-7.514
						C48.644-5.643,50.155-3.14,45.202-2.599z"/>
					<path fill-rule="evenodd" clip-rule="evenodd" fill="#EF3561" d="M15.354-0.958c-1.505,0.743,2.71,1.351,3.731,2.042
						c-1.169-1.008-2.389-2-2.989-3.185C15.68-1.77,14.935-1.542,13.86-1.414c-2.681-1.051,0.045-1.965-0.751-2.958
						c-0.305,0.289-0.962,0.466-2.239,0.458c-0.076-0.066-0.06-0.142,0.005-0.218c-0.217,0.051-0.432,0.101-0.645,0.152
						c0.124,1.118,2.326,2.236,2.883,3.249C14.141-0.721,14.752-0.838,15.354-0.958z"/>
					<path fill-rule="evenodd" clip-rule="evenodd" fill="#EF3561" d="M39.982,1.053c-2.019-0.554-0.562-1.808-3.73-0.905
						c-0.286-0.768,1.29-0.974,2.234-1.369c1.483,0,0.952,0.621,2.986,0.448c-1.849-0.772-1.851-1.951-0.004-2.729
						c-4.548,1.02-3.798,2.3-6.709,3.653C35.27,0.689,39.473,1.268,39.982,1.053z"/>
					<path fill-rule="evenodd" clip-rule="evenodd" fill="#EF3561" d="M23.563-1.428c-1.827,0.541,1.112,0.423,0.745,1.139
						c0.073,0.704,2.913-0.708,2.987-0.004c0.68,3.895,8.957,4.411,11.203,7.497c8.356,0.512,4.394,1.931,0.75,3.181
						c4.632,0.936,5.731,2.951,8.966,4.311c-5.127,2.098,0.542,3.955,3.737,5.686c11.012,1.416-7.845,5.451,0.759,7.509
						c-1.678-2.027,1.52-3.721,3.723-5.236c0.986,0,0.683,0.396,1.493,0.451c-1.602-1.266,2.133-1.503-0.004-2.504
						c-0.157,0.253-0.828,0.354-1.491,0.456c0.972-0.98-2.119-0.715-2.987-1.133c2.36,0.109,0.274-1.129,2.984-0.914
						c-0.215-0.693,0.116-1.555-2.241-1.59c1.222,1.062,0.232,1.788-2.237,2.276c-1.814-0.877-2.039-2.961-4.48-2.95
						c0.062-0.738,0.382-1.399,1.488-1.821c2.016,0.476,5.017,0.403,2.985-0.461c-0.65,1.291-1.298-1.691-2.986-0.225
						c-0.208-0.396,2.101-1.135-0.002-1.361c-0.361,0.267-0.793,0.514-1.49,0.685c-1.486-1.429-7.74-3.927-1.5-5.004
						c0.674,0.127,2.747,0.931,2.984,0.45c-4.14-1.256-12.135-2.478-11.199-4.538c-7.939-0.891-7.085-4.128-11.201-5.672
						C26.335-0.091,23.816-1.153,23.563-1.428z"/>
					<path fill-rule="evenodd" clip-rule="evenodd" fill="#EF3561" d="M17.598,3.588c1.484,0.002,0.95,0.619,2.986,0.453
						c-0.21-1.399,2.905-2.428,5.74-2.295c-0.898-0.077-0.268-0.625-1.267-0.67c-0.138,0.335-1.806,0.209-2.984,0.229
						c0.318-0.433,2.131-0.415,1.493-1.137C18.36,1.031,23.894,2.38,17.598,3.588z"/>
					<path fill-rule="evenodd" clip-rule="evenodd" fill="#EF3561" d="M57.895,2.388c-1.47-1.095-0.282-1.402-0.749-2.045
						c-1.062,1.3-2.885,0.178-4.477-0.219C52.72,0.583,54.334,2.277,57.895,2.388z"/>
					<path fill-rule="evenodd" clip-rule="evenodd" fill="#EF3561" d="M43.712,0.592c-1.19,0.171,0.172,1.111-2.237,0.913
						c-0.118-0.266,0.128-0.646-0.746-0.679c1.963,1.83,1.923,3.852,2.246,5.458c2.979-0.229,1.43,0.704,2.987,1.361
						c-0.367-0.716,1.344-0.807,0.742-1.595c-2.676-0.164-3.255-0.976-2.987-2.042c0.459,0.065,2.875,0.562,2.984-0.005
						C41.312,3.807,45.64,1.434,43.712,0.592z"/>
					<path fill-rule="evenodd" clip-rule="evenodd" fill="#EF3561" d="M-1.049,8.852c0.41-0.406,0.382-0.945,1.49-1.14
						C2.256,8.222,0.9,9.692,3.43,9.983C3.518,8.563,1.91,8.318,1.186,6.8c1.702-0.314,2.807,0.585,2.986-0.005
						C0.397,6.611,6.278,5.896,3.423,5.432c0.226,0.599-1.559,0.588-2.983,0.686c-0.308-0.743-1.56-1.19-2.988-1.589
						c1.222-0.69,0.582-1.946,2.982-2.279c-8.753,1.019-1.494,2.453-0.74,3.869C0.364,7.389-2.878,7.74-1.049,8.852z"/>
					<path fill-rule="evenodd" clip-rule="evenodd" fill="#EF3561" d="M9.387,2.46c-2.461,1.439-3.167,3.491,1.5,4.325
						c0.379-0.376-1.237-1.84-2.24-1.361C7.929,4.421,11.565,2.938,9.387,2.46z"/>
					<path fill-rule="evenodd" clip-rule="evenodd" fill="#EF3561" d="M23.321,4.72c0,0.303,0.001,0.604,0.001,0.907
						c2.877-0.2,3.154,0.555,4.978,0.678c0.206-0.665,0.067-0.784-1.246-0.457c-2.031-1.131,3.099-1.073,1.614-2.503
						C27.804,3.795,26.6,4.87,24.502,4.265C24.596,4.892,25.621,5.041,23.321,4.72z"/>
					<path fill-rule="evenodd" clip-rule="evenodd" fill="#EF3561" d="M11.632,7.012c0.683,1.855,1.111,3.904,7.471,4.995
						c-0.56-1.077-3.507-1.997-5.225-2.039c-0.117-1.789-1.061-3.493,3.723-4.332c-0.846-0.995,0.005-0.745,0.745-1.591
						C14.636,4.587,15.727,6.584,11.632,7.012z"/>
					<path fill-rule="evenodd" clip-rule="evenodd" fill="#EF3561" d="M25.818,11.088c-0.969-0.565,1.663-1.106-0.001-1.139
						c-0.157,0.256-0.825,0.356-1.493,0.458c-1.459-1.748,0.08-3.162-2.244-4.778c-0.961,2.807,2.769,6.916-5.959,8.658
						c2.169,0.398,2.95,1.223,5.974,1.358c-2.749-1.87-2.043-1.238-1.498-2.956c1.368,0.085,2.528,0.356,3.731-0.005
						c-1.076-0.541-1.133-0.557-2.238-0.682C23.301,11.445,23.171,10.649,25.818,11.088z"/>
					<path fill-rule="evenodd" clip-rule="evenodd" fill="#EF3561" d="M5.662,5.881c1.093,0.633-1.057,1.358,1.496,1.821
						C6.275,6.711,8.132,6.294,5.662,5.881z"/>
					<path fill-rule="evenodd" clip-rule="evenodd" fill="#EF3561" d="M51.184,5.813c-1.48,2.175-0.886,4.258,1.502,5.691
						c-0.986,0.002-1.297,0.4-2.108,0.455c-0.167-0.174-0.788-0.447-1.362-0.45c0,0.38,0.001,0.758,0.002,1.138
						c2.876,0.24,2.233-1.718,5.091-0.916c-2.1-1.502-2.07-2.575-3.429-4.546c0.747-0.001,1.041-0.19,1.644-0.234
						c0.242,0.262,3.333,0.78,3.811,0.226c-4.658-0.061,1.102-1.21-2.204-1.138C53.92,7.152,51.439,6.089,51.184,5.813z"/>
					<path fill-rule="evenodd" clip-rule="evenodd" fill="#EF3561" d="M38.509,14.253c-2.436-1.434,0.216-2.773-0.005-3.639
						c-1.354,0.5-1.22,1.451-4.474,1.37c-0.049-2.104-5.423-3.021-4.485-4.768C26.126,9.86,35.045,12.247,38.509,14.253z"/>
					<path fill-rule="evenodd" clip-rule="evenodd" fill="#EF3561" d="M35.53,18.359c-2.2,0.239-4.085,0.58-5.224,1.145
						c0.777,0.682,1.922,2.438,5.229,1.584c-2.802-0.107,0.463-1.17-2.987-1.363c0.518-0.672,2.447-0.926,3.73-1.367
						c1.731,0.149,1.996,0.753,3.731,0.904c-2.763-0.679-1.951-2.431-1.498-2.958c-1.575,0.204-1.294,0.975-3.728,0.916
						c-3.021-2.221-6.658-4.008-7.472-6.36c-1.915,1.123,0.927,2.279-1.489,3.189C32.409,14.46,31.665,17.111,35.53,18.359z"/>
					<path fill-rule="evenodd" clip-rule="evenodd" fill="#EF3561" d="M26.415,21.003c0.104-0.103,0.167-0.222,0.166-0.356
						C26.531,20.762,26.473,20.884,26.415,21.003z"/>
					<path fill-rule="evenodd" clip-rule="evenodd" fill="#EF3561" d="M25.847,29.98c-0.615,0.646,1.052,0.588,0.749,1.136
						c1.722,1.476-0.314-2.026-0.004-2.958c0.594-0.025,2.259-0.757,0.746-0.685c-1.005,0.378-1.907,0.787-3.729,0.914
						c-0.977-2.311,1.728-5.168,2.806-7.384c-0.481,0.476-1.919,0.663-2.816,1.014c-1.231-1.513,1.422-3.738,4.469-3.875
						c-4.268-0.912,2.389-1.667-0.004-2.505c0.098,0.409-0.74,0.532-2.237,0.461c-0.573-0.861,0.908-1.092,0.744-1.826
						c-5.122,1.314,2.263,4.393-4.469,5.469c0.627-1.027-1.749-1.133-2.243-1.812c-0.214-0.404,3.514-0.715,1.491-0.916
						c-0.207,0.467-1.992,0.457-2.984,0.687c1.409-0.776-2.253-1.654-2.243-2.727c-3.158,1.495,2.915,2.363,2.245,3.637
						c8.8,1.313,0.642,7.773,5.242,10.461c-1.245,0.46-2.002,1.063-4.479,1.148c-4.313-1.709-2.61-2.288,1.487-3.874
						c-6.166,0.781-7.941,2.899-11.188,4.571c3.582,0.343,3.919,1.682,5.23,2.721c-2.695,0.86-6.756,3.446-3.726,4.555
						c-0.515-0.751,1.542-0.366,2.239-0.227c-1.349-0.758-1.375-1.072-1.498-2.5c3.24-0.347,2.458-1.936,5.968-1.603
						c-0.867-0.104-0.842-0.999-1.494-1.363c0.152,0.084-0.407,0.56-0.743,0.454c-2.67-0.835-3.541-2.562-0.754-4.324
						c3.346,1.148,6.417,2.191,3.737,4.091c4.795,0.111-1.434-1.9,4.476-1.599c-1.394-0.792,0.378-1.206,1.488-1.822
						C25.292,29.392,25.88,29.59,25.847,29.98z"/>
					<path fill-rule="evenodd" clip-rule="evenodd" fill="#EF3561" d="M51.212,24.479c-0.191-2.33-9.184-2.795-6.724-5.225
						c-5.042,0.79,1.034-1.421-2.989-1.589c0.524,0.996-1.264,1.284-0.742,2.277C45.645,21.024,46.21,23.431,51.212,24.479z"/>
					<path fill-rule="evenodd" clip-rule="evenodd" fill="#EF3561" d="M34.062,34.063c0.019-1.067-3.708-0.988-3.736-2.041
						c0.714-1.073,2.347-1.868,3.729-2.738c2.69,0.018,2.597,2.073,5.224,1.359c-1.547-0.741-3.489-1.358-4.478-2.273
						c3.078-0.418,0.546-1.45,3.727-2.051c-3.593-0.745-2.6,1.554-5.22,1.829c-0.836-0.814-2.749-2.488-1.498-3.184
						c1.177,0.016,0.585,0.577,2.24,0.45c-0.914-0.964-2.379-2.546,1.49-1.596c0.544-0.618-1.483-0.455-1.494-0.908
						c0.813-0.054,1.792-0.378,0.747-0.455c-6.629,1.378-5.065,4.543-1.483,6.601C31.647,30.3,28.196,31,28.089,32.706
						C30.458,33.041,32.155,33.586,34.062,34.063z"/>
					<path fill-rule="evenodd" clip-rule="evenodd" fill="#EF3561" d="M56.71,23.331c0,0.306,0.001,0.607,0.001,0.912
						c3.451,0.023,1.889,1.883,4.343,2.269c0.104-0.774-0.283-2.473,1.794-1.368c-0.552-1.024-1.856-0.741,0.15-1.591
						c-2.344-0.107-2.503,0.613-4.264,0.687C57.7,24.103,57.861,23.366,56.71,23.331z"/>
					<path fill-rule="evenodd" clip-rule="evenodd" fill="#EF3561" d="M41.523,33.597c-0.734-0.888-2.233-1.823,0.743-2.504
						c0.081,0.183,2.468,0.688,2.239,0.227c-0.87-0.04-0.813-0.36-0.749-0.682c-1.389-0.216-2.492,0.684-2.983,0.004
						c0.736-0.658,2.479-0.998,0.743-1.824C41.085,30.159,34.931,32.942,41.523,33.597z"/>
					<path fill-rule="evenodd" clip-rule="evenodd" fill="#EF3561" d="M52.729,41.092c-0.307,0.285-0.963,0.465-2.239,0.458
						c-3.227-3.108,0.056-4.692,3.722-6.833c-2.84-1.557-4.057-3.617-7.472-4.998c-0.571,0.639,2.05,2.216,1.5,2.956
						c2.069-0.394,2.406,1.684,4.48,2.044c-5.225,1.828-3.683,5.709-11.931,6.62c-0.337,1.086,0.811,1.721,2.987,2.043
						c-2.525-1.709,1.362-2.541,3.727-3.421c4.424,0.355-0.084,3.422,2.989,3.182c-0.235-0.308-1.061-0.431-0.749-0.91
						C51.897,42.797,54.452,41.563,52.729,41.092z"/>
					<path fill-rule="evenodd" clip-rule="evenodd" fill="#EF3561" d="M53.459,30.623c-1.627-0.041-2.374,0.191-2.237,0.687
						c0.696,0.24,2.755,0.062,2.24,0.678C57.397,31.903,50.326,31.214,53.459,30.623z"/>
					<path fill-rule="evenodd" clip-rule="evenodd" fill="#EF3561" d="M32.575,37.479c-0.781,0.597-2.365,0.952-3.729,1.374
						c-0.235-1.465-1.685-2.638,1.484-3.416c-2.107-0.187-1.932,0.323-3.728,0.235c1.155-0.339-1.042-1.461,2.237-1.601
						c-0.416-0.403-0.385-0.942-1.494-1.135c-1.571,0.586-1.175,1.771-2.236,2.509c5.654,0.824-1.813,6.001,3.74,5.683
						c-1.651-0.027-0.319-0.963-0.75-1.366C31.621,39.762,32.947,37.909,32.575,37.479z"/>
					<path fill-rule="evenodd" clip-rule="evenodd" fill="#EF3561" d="M20.656,52.75c-1.01-2.101-2.445-3.258-0.007-4.781
						c-0.513,0.612,1.542,0.438,2.241,0.681c-2.388-1.541-1.022-3.552,0.741-4.554c6.522,0.44,1.805,2.576,2.243,4.323
						c3.146,0.023,3.775,0.816,5.971,1.124c-1.674-0.774-2.86-1.7-4.479-2.492c0.183-0.932,1.44-1.537,2.979-2.056
						c-2.393-0.327-4.72-0.673-5.224-1.583c1.884-0.082,1.318-1.777,0.742-2.278c-1.224,0.614-0.371,1.86-2.981,2.054
						c-1.21-0.843-3.757-1.275-4.482-2.271c0.992-0.231,2.777-0.217,2.984-0.687c-2.539-1.006,1.628-1.926,0.742-3.186
						c-1.286-0.088-1.915,0.34-2.24,0.003c-1.882-1.894,0.929-1.003-4.479-1.817c6.996,1.978,2.357,5.303,1.503,7.51
						c0.36-0.267,0.795-0.517,1.491-0.682c2.406,0.321,3.314,1.105,4.481,1.814c-6.394,2.067-3.266,7.599-6.704,9.341
						C19.199,53.517,18.539,52.715,20.656,52.75z"/>
					<path fill-rule="evenodd" clip-rule="evenodd" fill="#EF3561" d="M34.063,34.292c-0.305,0.547,1.363,0.493,0.749,1.139
						c1.7-0.316,2.805,0.583,2.984-0.004c-2.047-0.199,1.455-1.016-1.492-0.457c-0.036-0.693,1.571-0.886,2.234-1.367
						C36.313,33.61,36.002,34.196,34.063,34.292z"/>
					<path fill-rule="evenodd" clip-rule="evenodd" fill="#EF3561" d="M60.196,44.041c-1.646-1.396-1.976-3.415,2.98-3.875
						c0.367-0.806-4.107-1.302-1.497-2.048c1.963-0.069,0.589,0.886,2.986,0.683c-1.115-1.026-3.957-1.521-5.228-2.497
						c0.753-0.749,1.291-0.669,2.986-0.233c-0.615-0.695-2.098-0.545-0.749-1.363c-2.394,0.204-1.549-0.59-2.985-0.68
						c-1.674,1.869,3.67,4.914-0.737,7.058c0.078-1.332-5.936-1.43-4.481-2.496c-1.027-0.007-1.639,0.108-2.238,0.232
						c-0.455,0.012-0.884,0.033-0.747,0.229c3.914,0.861,9.338,2.058,5.977,3.858C58.147,43.149,58.637,43.758,60.196,44.041z"/>
					<path fill-rule="evenodd" clip-rule="evenodd" fill="#EF3561" d="M40.036,36.946c-0.465,0.542-1.004,0.981-2.985,1.065
						c-0.471-0.767-2.142-1.204-1.495-2.319c-2.712-0.059-0.994,1.201-2.236,1.583c2.27,0.213,3.116,0.853,4.48,1.347
						c-2.067,0.966-2.504,2.419-2.233,4.095c-1.026,0.01-1.639-0.107-2.239-0.226c1.314,0.872-0.24,1.975-0.742,2.958
						c3.326,0.249-0.459-1.498,3.731-0.982c-1.486-1.809,2.207-2.944,1.484-4.851c0.745-0.001,1.49-0.002,2.238-0.003
						C37.912,38.09,42.68,37.709,40.036,36.946z"/>
					<path fill-rule="evenodd" clip-rule="evenodd" fill="#EF3561" d="M37.068,49.31c-1.282-0.089-1.912,0.343-2.236,0.003
						c1.607-0.193-0.284-1.451,1.49-1.594c1.411,0.247,2.616,0.562,4.478,0.677c-2.011-0.521-3.19-1.737-5.972-1.357
						c-0.666-0.709-0.771-1.589-3.735-1.589c6.645,1.884,1.292,5.354,2.252,7.736c-1.941,0.093-2.252,0.682-4.476,0.686
						c-3.403-1.958-2.149-2.593-2.247-5.228c-3.979,0.434-0.2,2.693-2.234,4.101c7.981,1.624,2.879,5.933,11.953,7.037
						c-2.09-1.974-10.097-4.408-2.25-6.101c0.819,0.66,0.676,1.783,1.496,2.545c0.995-0.001,1.989-0.003,2.984-0.004
						c-3.384-1.712-5.172-3.43-2.992-5.502c1.735,0.15,2.002,0.617,3.73,0.768C38.717,50.333,33.854,50.511,37.068,49.31z"/>
					<path fill-rule="evenodd" clip-rule="evenodd" fill="#EF3561" d="M10.198,44.571c-2.489-0.183-4.232-0.1-5.227-1.131
						c2.042-0.217,1.18-1.139,2.416-1.598c2.485,0.148,2.187,1.024,3.911,1.36c0-0.381-0.001-0.757-0.001-1.136
						c-4.025,0.211-1.994-1.547-4.657-1.135c1.165-0.72-0.129-0.999-0.465-1.817c1.299-0.021,2.462,0.045,3.125,0.22
						c-0.682-0.397-0.187-1.135-1.423-1.362c-3.816,0.584-2.787,2.738-0.705,3.869c-2.16,0.409-1.433,1.685-5.204,1.603
						c-0.036,1.148,6.297,0.348,4.491,2.042C8.896,45.542,8.623,44.775,10.198,44.571z"/>
					<path fill-rule="evenodd" clip-rule="evenodd" fill="#EF3561" d="M32.583,42.487c0.148-0.728-1.252-0.983-2.987-1.131
						C30.428,41.781,30.646,42.4,32.583,42.487z"/>
					<path fill-rule="evenodd" clip-rule="evenodd" fill="#EF3561" d="M46.764,45.519c0.995-0.001,1.992-0.003,2.985-0.004
						c0.12,0.381-0.127,0.483,0.748,0.523c1.825-0.541-1.115-0.506-0.749-1.217c-1.083-0.125-3.856,0.229-3.73-0.267
						c-0.159-0.431,2.572-1.162,0.742-1.838c0.52,0.913-3.141,0.553-2.982,1.359c0.222,0.464,2.02,0.437,2.241,0.899
						c-4.762,0.729-4.269,3.423-1.485,4.782c-0.888,0.716-2.517,1.206-2.983,2.051c3.292-0.327,0.013,1.361,2.24,1.363
						c2.01-1.091-2.219-2.9,2.979-3.192c-2.516-1.101-1.966-1.765-3.734-3.246C46.115,47.233,44.013,46.094,46.764,45.519z"/>
					<path fill-rule="evenodd" clip-rule="evenodd" fill="#EF3561" d="M58.716,52.009c-1.978-1.273-2.582-1.921-2.244-2.957
						c-0.649,0.334-1.116,0.723-2.984,0.69c2.489-1.3-1.697-1.362,1.491-2.279c1.063,0.051,1.257,0.371,2.238,0.451
						c-0.727-0.681-0.197-1.386-0.749-1.59c-1.17,0.174-1.114,0.722-2.984,0.687c-1.305-1.769,2.848-3.077,2.233-3.875
						c-5.517,1.485-2.379,4.206-2.973,7.059C56.201,50.352,55.56,51.761,58.716,52.009z"/>
					<path fill-rule="evenodd" clip-rule="evenodd" fill="#EF3561" d="M38.555,44.754c1.734,0.152,1.999,0.754,3.733,0.903
						c-0.514-0.712,0.085-0.928-0.749-1.133c-0.124,0.265-1.178,0.249-2.24,0.229C39.359,44.402,37.132,44.599,38.555,44.754z"/>
					<path fill-rule="evenodd" clip-rule="evenodd" fill="#EF3561" d="M6.466,45.711c-2.94-0.306-3.584,2.068-2.233,1.599
						C3.632,46.37,6.94,46.613,6.466,45.711z"/>
					<path fill-rule="evenodd" clip-rule="evenodd" fill="#EF3561" d="M62.03,47.224c-0.649,0.336-0.682,0.882-2.981,0.688
						c0,0.302,0,0.607,0.001,0.911C61.35,48.823,63.08,47.484,62.03,47.224z"/>
					<path fill-rule="evenodd" clip-rule="evenodd" fill="#EF3561" d="M60.216,57.243c0.604-1.175-3.428-0.925-3.734-1.816
						c2.057-0.589,1.906-1.85,3.728-2.509c1.734,0.149,2,0.751,3.732,0.902c-0.584-0.803-2.173-1.306-2.988-2.042
						c-3.598,0.655-2.534,2.72-5.963,3.421c-3.062-0.901-3.311-2.85-1.501-4.548c-2.642,0.413-3.019,1.511-3.729,2.51
						c1.66,0.783,3.071,1.638,4.483,2.498c-2.367,0.419-3.349,1.26-4.476,2.054c5.764,0.098,4.354,2.397,8.737,2.918
						c0.077,0.008,0.147,0.02,0.224,0.027c-0.021-0.008-0.036-0.02-0.058-0.027c-2.587-1.145-1.149-2.412-1.44-3.384
						c-0.081,0.582-1.368,0.796-2.235,1.143c-2.167-0.698-2.532-1.901-0.005-2.733C57.727,55.881,57.02,57.159,60.216,57.243z"/>
					<path fill-rule="evenodd" clip-rule="evenodd" fill="#EF3561" d="M24.396,58.659c-2.036-0.163-1.5,0.456-2.983,0.46
						c-1.488-0.86-4.114-1.974-1.366-2.955c1.065,0.084,0.475,0.271,1.625-0.002c0,0.151,0.001,0.302,0.001,0.453
						c4.025-0.194-1.626-0.662-1.627-1.133c0.878-0.041,2.427,0.036,2.546-0.234c-2.855-0.189-0.603-1.186,0.152-1.593
						c-2.347,0.266-1.737-0.356-2.911-0.449c1.718,1.865-2.666,3.276-2.19,5.463c2.491,0.005,3.189,0.564,3.058,1.372
						c0.25,0.027,0.506,0.052,0.756,0.077c0.706-0.242,0.411-0.663,2.937-0.774C23.121,59.25,24.554,59.05,24.396,58.659z"/>
					<path fill-rule="evenodd" clip-rule="evenodd" fill="#EF3561" d="M42.957,58.176c-1.15-0.067-0.684,0.579-1.444,0.727
						c-0.011-1.212,2.25-1.735,3.03-2.69c0.496,0,0.994-0.001,1.492-0.002c-0.563,0.765,1.954,0.495,2.985,0.861
						c-2.242-1.277-5.207-1.473-4.481-3.315c-1.968-0.063-1.923,0.413-2.238,0.847c3.074,1.005-4.854,3.219-1.535,4.522
						c0.731-0.7,1.618,0.063,2.192,0.19C42.958,58.938,42.958,58.555,42.957,58.176z"/>
					<path fill-rule="evenodd" clip-rule="evenodd" fill="#EF3561" d="M26.634,56.607c-3.987-0.176-1.242,1.836,0.001,0.686
						c-0.003,0.124,0.604,0.259,0.747-0.001C26.512,57.253,26.567,56.93,26.634,56.607z"/>
					<path fill-rule="evenodd" clip-rule="evenodd" fill="#EF3561" d="M44.021,61.174l1.327-0.002
						c1.791-0.956,4.043-1.82,3.675-2.711C46.558,59.123,45.769,60.219,44.021,61.174z"/>
					<path fill-rule="evenodd" clip-rule="evenodd" fill="#EF3561" d="M15.443,58.672c-0.461,0.11-0.997,0.247-1.562,0.399
						c0.304,0.052,0.613,0.104,0.924,0.158C15.642,58.982,16.521,58.766,15.443,58.672z"/>
				</g>
			</g>
		</g>
		<g>
			
				<path fill="none" stroke="#FF8C8C" stroke-width="1.6986" stroke-linecap="round" stroke-miterlimit="10" stroke-dasharray="4.6853,4.6853" d="
				M55.351,29.013c0.021,14.004-11.315,25.375-25.32,25.396C16.023,54.429,4.653,43.092,4.633,29.088
				C4.611,15.079,15.947,3.708,29.954,3.688C43.96,3.667,55.33,15.003,55.351,29.013z"/>
		</g>
		<g>
			
				<path fill="none" stroke="#A10404" stroke-width="1.6986" stroke-linecap="round" stroke-miterlimit="10" stroke-dasharray="4.6852,4.6852" d="
				M54.405,29.014c0.021,14.004-11.314,25.375-25.322,25.395C15.078,54.43,3.71,43.094,3.689,29.09
				C3.668,15.08,15.002,3.709,29.008,3.688C43.016,3.668,54.384,15.004,54.405,29.014z"/>
		</g>
		<path fill="#F8FFE5" d="M26.291,43.467L43.53,29.994c0.661-0.519,0.659-1.434-0.003-1.949L26.088,14.499
			c-0.507-0.392-1.267-0.51-1.928-0.296c-0.658,0.212-1.088,0.717-1.087,1.273l0.041,27.147c0,0.005,0,0.01,0,0.015
			c0.001,0.763,0.792,1.379,1.769,1.377C25.456,44.016,25.97,43.8,26.291,43.467z"/>
	</g>
</g>
</svg>
