<?xml version="1.0" encoding="utf-8"?>
<!-- Generator: Adobe Illustrator 16.0.3, SVG Export Plug-In . SVG Version: 6.00 Build 0)  -->
<!DOCTYPE svg PUBLIC "-//W3C//DTD SVG 1.1//EN" "http://www.w3.org/Graphics/SVG/1.1/DTD/svg11.dtd">
<svg version="1.1" xmlns="http://www.w3.org/2000/svg" xmlns:xlink="http://www.w3.org/1999/xlink" x="0px" y="0px"
	 width="32.598px" height="17.793px" viewBox="0 0 32.598 17.793" enable-background="new 0 0 32.598 17.793" xml:space="preserve">
<g id="圖層_1" display="none">
</g>
<g id="BG">
</g>
<g id="日期">
</g>
<g id="表格">
</g>
<g id="UI">
	<path fill="#F8FFE5" d="M32,15.053L17.325,0.42c-0.563-0.562-1.56-0.56-2.121,0.003L0.438,15.234
		c-0.428,0.43-0.556,1.075-0.322,1.635c0.232,0.56,0.78,0.924,1.387,0.924l29.578-0.044c0.007,0,0.013,0,0.02,0
		c0.829-0.001,1.499-0.673,1.498-1.502C32.597,15.759,32.363,15.325,32,15.053z"/>
	<g>
		<g>
			<g>
				<defs>
					<path id="SVGID_31_" d="M-32.949,81.39c0.01,6.16-4.978,11.162-11.139,11.171l-72.079,0.108
						c-6.161,0.009-11.163-4.979-11.172-11.139l-0.107-72.08c-0.01-6.161,4.977-11.163,11.138-11.172l72.08-0.107
						c6.161-0.009,11.163,4.978,11.172,11.138L-32.949,81.39z"/>
				</defs>
				<clipPath id="SVGID_2_">
					<use xlink:href="#SVGID_31_"  overflow="visible"/>
				</clipPath>
				<g clip-path="url(#SVGID_2_)">
					<path fill-rule="evenodd" clip-rule="evenodd" fill="#06C493" d="M18.049,6.37c0.037-0.564-0.554-0.841-1.434-0.982
						c5.255,3.808-3.954,6.312-3.563,10.813c1.164,0.153,2.24,1.991,3.581,0.978c-3.2-2.102,0.286-7.339,3.569-6.228
						c-2.568-1.902,2.211-3.36-0.007-4.914C20.075,6.419,19.065,6.395,18.049,6.37z"/>
					<path fill-rule="evenodd" clip-rule="evenodd" fill="#06C493" d="M19.319,2.23c-0.392-0.214-0.795-0.423-1.205-0.629
						c-1.045,0.905-2.008,1.846-2.216,3.133C18.104,4.383,18.687,3.294,19.319,2.23z"/>
					<path fill-rule="evenodd" clip-rule="evenodd" fill="#06C493" d="M15.434,0.387C14.662,0.069,13.86-0.23,13.038-0.52
						c0.532,0.891,1.433,1.77,2.856,2.633C15.771,1.449,15.615,0.889,15.434,0.387z"/>
					<path fill-rule="evenodd" clip-rule="evenodd" fill="#06C493" d="M3.728,5.079c4.179,2.014,6.051,5.087,10.034,7.191
						c0.519-1.658-1.969-1.938-2.152-3.271c0.845-0.489,0.617-1.465,2.86-1.315c-2.027-1.481,2.139-2.077-0.005-3.274
						c-1.92,1.196-0.129,4.087-5.005,3.938c-0.136-1.501-1.658-2.55-2.868-2.624c1.844-0.359,0.624-1.751,2.144-2.304
						c0.478-0.001,0.955-0.001,1.432-0.002c0.263,0.824,1.242,1.293,2.867,1.642c-0.831-1.369-2.604-2.461-4.302-3.428
						c-0.28,0.085-0.51,0.118-0.714,0.241c0.456-1.992-0.354-2.35-0.723-3.636C6.534-1.456,7.076-0.576,5.151-0.8
						c-1.77-0.66-2.05-1.421-1.784-2.154C2.919-3.031,2.47-3.107,2.013-3.177c0.39,1.774,3.985,3.78,6.001,4.973
						C6.381,2.799,6.938,4.797,3.728,5.079z"/>
					<path fill-rule="evenodd" clip-rule="evenodd" fill="#06C493" d="M-4.143,8.04c2.909-0.857,1.514-3.674,3.572-4.92
						c1.884,0.338,2.414,1.295,4.298,1.633c-0.911-1.43-3.917-1.769-2.152-3.6C-3.199,2.367-4.809,6.168-4.143,8.04z"/>
					<path fill-rule="evenodd" clip-rule="evenodd" fill="#06C493" d="M28.027,16.235l-0.002-0.966
						c-0.551,0.692-1.315,1.262-2.712,1.568c-0.083-0.835-1.001-1.145-1.837-1.635c-1.876,1.026,2.347,1.422,2.309,2.617
						c-4.375,1.827-5.525,5.391-9.173,7.547c1.806,0.592,1.499,1.906,3.707,2.287c-0.001-0.547-0.001-1.093-0.002-1.639
						c-2.207,0.292-1.569-0.5-2.196-0.977c3.579,1.114,1.991-4.912,6.776-2.304c-2.021-1.754-1.973-3.528,0.967-4.915
						c1.021,0.278,1.615,0.624,2.168,1.028l-0.001-0.566c-0.553-0.484-0.851-1.099-0.481-2.102
						C27.74,16.184,28.027,16.207,28.027,16.235z"/>
					<path fill-rule="evenodd" clip-rule="evenodd" fill="#06C493" d="M16.636,18.815c3.783,1.269-0.326,2.901,2.152,3.927
						c2.309-3.547,0.146-3.277,1.421-7.207c3.248,0.383,2.857-1.876,5.011-0.99c-1.057-1.575,1.784-1.37,1.428-2.624
						c-2.316-0.401-0.546,1.062-2.862,0.66c0.906-0.897,1.13-2.104,2.143-2.95c0.781,0.092,1.449,0.243,2.023,0.434
						c-0.134-0.245-0.272-0.492-0.425-0.734c-0.056-0.012-0.109-0.021-0.167-0.03c-0.17-0.196-0.229-0.368-0.211-0.524
						c-0.252-0.361-0.521-0.719-0.814-1.07c-0.128-0.011-0.262-0.022-0.409-0.041c-0.275-0.287-0.384-0.576-0.405-0.864
						c-0.216-0.224-0.444-0.441-0.677-0.66c-0.081,2.68-1.654,5.172-2.487,8.408C18,14.856,19.213,17.7,16.636,18.815z"/>
					<path fill-rule="evenodd" clip-rule="evenodd" fill="#06C493" d="M-2.697,18.518c0.602-2-0.095-5.935,1.309-7.719
						c-0.318,0.313-1.102,0.581-1.32,0.186c0.521-2.382,4.84-3.032,6.437-4.923C0.624,5.849,2.082,7.712-1.28,7.381
						C-1.13,8.32-1.459,9.044-2.71,9.347c-1.182-0.003-0.4-0.906-1.432-0.98c-1.364,2.263,1.987,5.983-1.422,7.536
						C-3.521,16.275-3.885,17.753-2.697,18.518z"/>
					<path fill-rule="evenodd" clip-rule="evenodd" fill="#06C493" d="M2.315,17.854c3.657,0.631-1.212,3.162,1.438,4.256
						c0.346-0.583,0.764,0.141,1.433,0.326c-0.774-3.321,0.051-5.585-0.012-8.188c1.06,0.169,1.804,0.483,2.866,0.65
						c-2.183-2.083-2.473-3.226-1.442-6.222C2.424,10.675,4.966,16.067,2.315,17.854z"/>
					<path fill-rule="evenodd" clip-rule="evenodd" fill="#06C493" d="M10.904,16.204c-2.608,5.638-2.428,9.619,3.6,14.408
						c-0.79-1.563,0.912-1.987,2.146-2.626c-3.359-0.313-4.32-1.729-5.732-2.937c1.058-0.828,3.402-1.07,2.86-2.625
						c1.002,0.022,2.737-0.076,1.431-0.33c-2.898,0.099-2.999,1.471-4.292,2.301c-0.173-0.468-1.181-0.552-1.434-0.983
						c1.478-1.352,0.954-3.215,3.576-2.624C10.328,19.186,14.916,16.929,10.904,16.204z"/>
				</g>
			</g>
		</g>
	</g>
</g>
</svg>
