<?xml version="1.0" encoding="utf-8"?>
<!-- Generator: Adobe Illustrator 16.0.3, SVG Export Plug-In . SVG Version: 6.00 Build 0)  -->
<!DOCTYPE svg PUBLIC "-//W3C//DTD SVG 1.1//EN" "http://www.w3.org/Graphics/SVG/1.1/DTD/svg11.dtd">
<svg version="1.1" xmlns="http://www.w3.org/2000/svg" xmlns:xlink="http://www.w3.org/1999/xlink" x="0px" y="0px"
	 width="63.497px" height="62.493px" viewBox="0 0 63.497 62.493" enable-background="new 0 0 63.497 62.493" xml:space="preserve">
<g id="圖層_1" display="none">
</g>
<g id="BG">
</g>
<g id="日期">
</g>
<g id="表格">
</g>
<g id="UI">
	<g>
		<g>
			<circle fill="#C4002F" cx="32.75" cy="31.745" r="30.748"/>
			<circle fill="#EF476F" cx="30.748" cy="30.748" r="30.748"/>
			<g>
				<defs>
					<circle id="SVGID_22_" cx="30.748" cy="30.748" r="30.748"/>
				</defs>
				<clipPath id="SVGID_2_">
					<use xlink:href="#SVGID_22_"  overflow="visible"/>
				</clipPath>
				<g opacity="0.9" clip-path="url(#SVGID_2_)">
					<g>
						<path fill-rule="evenodd" clip-rule="evenodd" fill="#EF3561" d="M63.65-0.848c-0.59,0.56-3.146,1.128,0.791,1.205
							C64.008,0.008,65.362-0.89,63.65-0.848z"/>
						<path fill-rule="evenodd" clip-rule="evenodd" fill="#EF3561" d="M13.885-0.29c-1.171,0.768-1.635,1.751-3.156,2.414
							c1.181,0.44,3.297,0.595,3.95,1.198c-0.335,2.2,0.9,1.441,1.58-0.002C12.712,2.281,15.297,1.013,13.885-0.29z"/>
						<path fill-rule="evenodd" clip-rule="evenodd" fill="#EF3561" d="M38.377,3.045c0.354-0.125-0.833-1.822-1.583-2.406
							C35.465,1.222,35.51,2.995,38.377,3.045z"/>
						<path fill-rule="evenodd" clip-rule="evenodd" fill="#EF3561" d="M59.707,4.7c0.941-1.042-2.589-1.346-0.792-1.925
							C54.085,2.905,58.758,4.197,59.707,4.7z"/>
						<path fill-rule="evenodd" clip-rule="evenodd" fill="#EF3561" d="M54.965,3.503C54.97,4.146,52.47,4.03,52.598,4.71
							c0.444,0.347,1.233,0.586,2.37,0.72C53.935,4.612,56.726,3.745,54.965,3.503z"/>
						<path fill-rule="evenodd" clip-rule="evenodd" fill="#EF3561" d="M59.709,5.905c1.832-0.08,3.033,0.034,3.952,0.234
							c-1.183-0.898,0.831-1.38-1.583-1.683C60.935,4.832,60.417,5.397,59.709,5.905z"/>
						<path fill-rule="evenodd" clip-rule="evenodd" fill="#EF3561" d="M34.432,5.461c-0.089,0.856-2.922,0.88-2.368,1.931
							C34.414,7.367,35.923,5.852,34.432,5.461z"/>
						<path fill-rule="evenodd" clip-rule="evenodd" fill="#EF3561" d="M62.084,8.552c1.181-0.043,2.914,0.082,3.159-0.246
							c-1.965-0.033-0.233-0.815-0.001-0.964C62.756,7.311,62.528,7.963,62.084,8.552z"/>
						<path fill-rule="evenodd" clip-rule="evenodd" fill="#EF3561" d="M9.157,8.148c-0.221,0.631,0.29,1.036,2.371,0.961
							C11.751,8.479,11.239,8.073,9.157,8.148z"/>
						<path fill-rule="evenodd" clip-rule="evenodd" fill="#EF3561" d="M38.385,8.104c-0.7,0.43-2.205,0.616-1.578,1.448
							c1.787-0.042,3.476,1.154,4.74,0.476C38.948,9.861,39.722,8.659,38.385,8.104z"/>
						<path fill-rule="evenodd" clip-rule="evenodd" fill="#EF3561" d="M7.579,9.116c0.027,1.316-7.08,2.572-1.574,3.375
							C4.335,11.205,11.166,9.951,7.579,9.116z"/>
						<path fill-rule="evenodd" clip-rule="evenodd" fill="#EF3561" d="M9.954,13.207c0.687,0.351,1.185,0.762,3.161,0.719
							c-2.657-1.266,0.291-1.28,1.577-2.412C11.78,11.674,10.551,12.344,9.954,13.207z"/>
						<path fill-rule="evenodd" clip-rule="evenodd" fill="#EF3561" d="M15.496,20.908c-0.203-1.408-4.228-1.88-0.795-3.13
							c-4.291-0.613-4.1-2.599-5.535-4.087c-0.893,0.772-1.605,1.6-1.576,2.651C15.006,16.845,9.075,20.024,15.496,20.908z"/>
						<path fill-rule="evenodd" clip-rule="evenodd" fill="#EF3561" d="M41.557,16.291c3.386-0.257,2.568-1.723,2.366-2.412
							C43.05,14.763,40.06,15.375,41.557,16.291z"/>
						<path fill-rule="evenodd" clip-rule="evenodd" fill="#EF3561" d="M35.237,15.578c2.08,0.069,2.59-0.338,2.367-0.967
							C35.524,14.542,35.012,14.949,35.237,15.578z"/>
						<path fill-rule="evenodd" clip-rule="evenodd" fill="#EF3561" d="M44.719,18.456c-0.271-0.88-0.085-1.903-3.162-1.923
							C42.17,17.309,43.21,17.954,44.719,18.456z"/>
						<path fill-rule="evenodd" clip-rule="evenodd" fill="#EF3561" d="M62.888,19.392C65.366,19.918,66.029,21,70,21.067
							c-0.379-1.623-4.968-0.525-3.953-2.644c0.085-0.38,4.709-1.113,0.79-1.207C66.523,18.247,63.342,18.405,62.888,19.392z"/>
						<path fill-rule="evenodd" clip-rule="evenodd" fill="#EF3561" d="M6.013,17.791c0.602,0.86-2.447,1.659,0.791,1.926
							C6.323,19.142,7.793,17.968,6.013,17.791z"/>
						<path fill-rule="evenodd" clip-rule="evenodd" fill="#EF3561" d="M16.291,24.039c2.146-1.252,2.358-2.965,1.573-4.098
							C15.446,21.105,16.542,23.122,16.291,24.039z"/>
						<path fill-rule="evenodd" clip-rule="evenodd" fill="#EF3561" d="M10.764,25.394c-0.831-1.377,2.746-1.403,3.156-2.415
							c-0.791,0.001-1.581,0.002-2.371,0.003C11.319,24.195,7.7,24.337,10.764,25.394z"/>
						<path fill-rule="evenodd" clip-rule="evenodd" fill="#EF3561" d="M32.877,22.81c-1.182,0.071,0.49,1.273,1.583,1.443
							C33.98,23.758,35.731,22.576,32.877,22.81z"/>
						<path fill-rule="evenodd" clip-rule="evenodd" fill="#EF3561" d="M41.567,23.038c-2.967,0.5,1.32,1.887,0.005,3.374
							C44.168,25.866,43.384,23.405,41.567,23.038z"/>
						<path fill-rule="evenodd" clip-rule="evenodd" fill="#EF3561" d="M21.825,27.163c-0.629-1.414-2.068-2.579-4.744-3.366
							C17.626,25.237,19.397,26.301,21.825,27.163z"/>
						<path fill-rule="evenodd" clip-rule="evenodd" fill="#EF3561" d="M8.394,25.979c0.618-0.168,1.756-1.347-0.002-1.445
							C7.737,24.987,5.478,25.79,8.394,25.979z"/>
						<path fill-rule="evenodd" clip-rule="evenodd" fill="#EF3561" d="M14.718,29.101c-2.743-1.853,4.307-2.865,1.574-4.098
							C14.879,26.292,8.344,28.225,14.718,29.101z"/>
						<path fill-rule="evenodd" clip-rule="evenodd" fill="#EF3561" d="M46.309,25.199c-3.571,1.626-3.455,5.254,2.378,6.019
							c-1.803-0.993,1.374-1.199-0.002-1.687c-0.132,0.282-1.248,0.265-2.369,0.245C42.709,28.358,48.38,26.672,46.309,25.199z"/>
						<path fill-rule="evenodd" clip-rule="evenodd" fill="#EF3561" d="M59.743,28.793c2.551,0.115,4.251-1.258,2.369-1.691
							C62.035,27.883,58.531,27.623,59.743,28.793z"/>
						<path fill-rule="evenodd" clip-rule="evenodd" fill="#EF3561" d="M47.905,35.074c-0.339,0.459-1.701,0.609-1.579,1.208
							c2.844-0.149,2.329,0.732,4.741,0.715C50.481,35.685,48.98,36.15,47.905,35.074z"/>
						<path fill-rule="evenodd" clip-rule="evenodd" fill="#EF3561" d="M18.12,37.046c1.087-0.011,1.455,0.112,2.09,0.238
							c0.925-0.635,0.872-0.84,2.09-0.244c0-0.321-0.001-0.642-0.001-0.964C19.862,36.123,18.147,36.252,18.12,37.046z"/>
						<path fill-rule="evenodd" clip-rule="evenodd" fill="#EF3561" d="M49.492,40.372c-2.833-1.157-3.089-2.918-4.746-3.847
							c-0.564,0.712-0.899,1.493-2.366,1.932C46.155,38.664,45.999,40.078,49.492,40.372z"/>
						<path fill-rule="evenodd" clip-rule="evenodd" fill="#EF3561" d="M15.525,40.183c-0.208,0.981-1.485,1.636-2.367,2.413
							c2.944-0.259,2.551,0.503,3.951,0.717C14.875,42.271,18.748,40.64,15.525,40.183z"/>
						<path fill-rule="evenodd" clip-rule="evenodd" fill="#EF3561" d="M19.486,48.368c-1.234-1.317-3.95-2.029-3.954-3.126
							c-3.149,1.773-4.537,4.082-7.1,6.034c5.553-0.483,3.129-3.387,7.103-4.349C17.65,47.165,16.517,48.395,19.486,48.368z"/>
						<path fill-rule="evenodd" clip-rule="evenodd" fill="#EF3561" d="M64.511,47.578c-2.551-0.115-4.252,1.257-2.367,1.689
							C62.602,48.604,64.11,48.26,64.511,47.578z"/>
						<path fill-rule="evenodd" clip-rule="evenodd" fill="#EF3561" d="M16.333,52.468c-1.429-0.687-2.237-1.563-5.531-1.677
							c-0.653,0.682,1.112,0.623,0.79,1.203C14.79,51.657,14.093,52.513,16.333,52.468z"/>
						<path fill-rule="evenodd" clip-rule="evenodd" fill="#EF3561" d="M52.667,50.728c-0.49,0.654-3.299,0.604-3.157,1.45
							C52.394,52.395,54.017,50.998,52.667,50.728z"/>
						<path fill-rule="evenodd" clip-rule="evenodd" fill="#EF3561" d="M13.977,60.904c-0.4-0.6-1.497-0.987-2.373-1.441
							C11.835,60.115,10.496,61.25,13.977,60.904z"/>
						<path fill-rule="evenodd" clip-rule="evenodd" fill="#EF3561" d="M13.966,53.917c-1.624,0.114-1.834-0.628-1.584-1.683
							c-1.333,0.398-0.978,1.309-2.367,1.689c3.213,1.356,4.432,3.852,0.007,5.061c-3.56-0.9-5.627-3.107-0.795-4.094
							C7.275,54.47,5.053,56.021,3.7,56.583c-1.313-1.124-2.568-2.266-2.375-3.851c2.156-0.18,1.591,0.476,3.16,0.477
							c1.516-0.312-1.864-0.495-0.002-1.205c-3.994-0.535-1.227-0.697-3.953-2.161c0.635,0.126,1.283,0.249,2.371,0.237
							c-1.542-0.812-1.792-2.022-5.533-2.161c0.997-1.033-0.06-1.191-0.003-2.409c1.51-0.114,3.399,0.737,3.158-0.245
							c-3.58,0.333,0.19-1.953,1.577-2.411c-5.128,0.065-1.947-1.881-1.585-3.371c2.115,0.155,3.005,0.685,4.741,0.956
							c-0.09-0.856-2.922-0.871-2.372-1.922c1.434,0.75,2.747-0.793,1.578-0.726c1.245-1.098,2.828,0.354,4.741,0.475
							c-0.47-0.82-1.724-1.4-3.162-1.922c0.892-0.514,0.907-0.519,3.158-0.968c-1.3-0.78-0.309-1.491,0.786-2.17
							c-1.314-0.613-2.119,0.944-4.738,0.731c1.348,1.823-2.078,3.87-3.942,4.975c-3.914-0.572-0.354-1.969-3.165-2.976
							c1.055-0.001,2.108-0.003,3.16-0.004c-1.759-0.604-2.896-1.514-2.373-2.798c2.154-0.178,1.59,0.401,3.16,0.402
							c0.644-0.578-2.425-1.372-0.003-1.724c-0.345-0.357-1.011,0.077-2.369-0.016c0.708-0.707,0.708-0.75-0.002-1.454
							c4.015,0.721,0.378-1.044,3.157-1.697c1.825,0.566,3.295,1.237,3.164,2.403c0.707,0.662,3.204-0.567,2.37,0.719
							c2.817-0.149,0.555-1.393-1.583-1.444c0.337-0.461,2.258-0.441,1.579-1.208c-4.062,1.546-5.434-3.782-1.588-4.575
							C4.23,24.082,5.639,23.04,6.02,22.609c2.519-0.21,2.443,0.375,3.949,0.476c0.427-0.853-2.798-0.587-2.371-1.442
							c1.812-0.333,2.538-0.996,3.947-1.452c-0.917,0.041-1.406-0.049-1.581-0.237c-9.153,2.159-4.154,6.534-9.464,9.41
							c-4.376-2.844-6.045-5.305-1.593-8.912c2.793,0.187,2.896,1.201,5.531,1.437c0.282-1.416-5.056-1.169-3.954-3.367
							c1.039,0.244,2.913,0.231,3.95,0.477c-1.18-0.281-0.93-1-3.161-0.96c2.18-0.061,0.838-1.191,2.367-1.449
							c-0.344-0.355-1.011,0.098-2.369,0.004c-0.18-1.006,1.283-1.14-0.003-1.928c1.036-0.291,1.243-0.095,2.369-0.003
							c-1.813-0.634-1.814-1.528-0.003-2.167c-1.764-0.599-1.922,1.329-4.737,1.211c-0.656-0.981-0.123-0.83-0.003-1.928
							c-1.411,1.17-1.232-0.068-3.948,0.487c12.088,2.73-0.786,8.964,0.019,12.528c0.585,0.653-1.662,0.445-2.241,0.742
							c-0.107,0.056-0.165,0.127-0.129,0.226c0.039,0.042,0.087,0.081,0.129,0.122c1.539,1.483,5.077,2.353,6.987,3.722
							c-3.471,2.491-1.969,6.185-3.148,8.197c0.98,0.502,2.298,0.901,3.951,1.198c-1.42,0.98-1.804,1.344-3.947,1.692
							c3.551,2.599-0.706,3.667-0.738,6.265c-2.205,0.024-3.958-0.388-4.569-0.783l0.001,0.701c1.827,0.608,5.562,0.933,6.94,1.765
							c3.577,2.161-0.882,5.224,3.544,7.946c-0.278,0.512-0.852,1.12-1.435,1.746c0.75,0.351,1.64,0.689,2.48,1.015
							c-0.263-1.152-0.179-1.114-0.717-2.28c3.74,0.3,4.905,1.396,7.136,2.158c-1.677,0.519-1.39,1.33-0.338,2.027
							c0.962,0.25,1.963,0.487,2.99,0.709c-0.494-0.356-2.075-0.826-2.63-1.051c1.955-1,1.703-2.03,3.946-3.378
							c2.797-0.135,1.945,0.851,4.742,0.715C16.828,57.126,11.853,55.943,13.966,53.917z"/>
						<path fill-rule="evenodd" clip-rule="evenodd" fill="#EF3561" d="M5.194-0.761C6.213,0.213,8.853,0.69,10.729,1.4
							c-0.272-1.764-6.831-1.602-4.746-4.088c2.997,0.152,2.954-0.245,2.262-0.877C7.695-3.416,7.156-3.262,6.63-3.103
							C2.378-1.089,0.481,2.799,5.993,4.54C4.236,2.439,3.789,1.109,5.194-0.761z"/>
						<path fill-rule="evenodd" clip-rule="evenodd" fill="#EF3561" d="M47.848-2.751c4.044,0.479-1.321,1.911-0.787,2.893
							c3.315,0.751,4.146,2.264,7.114,3.121c-0.523-0.643-0.333-1.503-1.583-1.925c-7.847-2.009,3.025-5.755,3.938-7.956
							C51.491-5.979,53.092-3.327,47.848-2.751z"/>
						<path fill-rule="evenodd" clip-rule="evenodd" fill="#EF3561" d="M16.253-1.017c-1.591,0.786,2.87,1.429,3.952,2.162
							c-1.24-1.066-2.529-2.117-3.163-3.369c-0.442,0.348-1.232,0.59-2.369,0.727c-2.838-1.113,0.049-2.081-0.793-3.131
							c-0.324,0.305-1.019,0.494-2.371,0.485c-0.08-0.073-0.062-0.151,0.007-0.229c-0.23,0.052-0.457,0.104-0.683,0.158
							c0.132,1.184,2.461,2.368,3.053,3.441C14.97-0.764,15.618-0.889,16.253-1.017z"/>
						<path fill-rule="evenodd" clip-rule="evenodd" fill="#EF3561" d="M42.324,1.112c-2.137-0.587-0.596-1.911-3.951-0.958
							c-0.302-0.813,1.367-1.03,2.368-1.45c1.569,0,1.005,0.657,3.16,0.477c-1.957-0.818-1.959-2.065-0.004-2.891
							c-4.815,1.082-4.023,2.436-7.104,3.866C37.335,0.728,41.783,1.34,42.324,1.112z"/>
						<path fill-rule="evenodd" clip-rule="evenodd" fill="#EF3561" d="M24.943-1.512c-1.933,0.571,1.179,0.446,0.79,1.204
							c0.077,0.744,3.082-0.75,3.161-0.004c0.719,4.122,9.482,4.669,11.861,7.933c8.844,0.544,4.648,2.048,0.794,3.371
							c4.901,0.989,6.064,3.123,9.486,4.563c-5.426,2.218,0.576,4.184,3.957,6.018c11.656,1.498-8.303,5.77,0.804,7.949
							c-1.777-2.144,1.609-3.941,3.94-5.547c1.045,0.001,0.723,0.422,1.581,0.48c-1.696-1.34,2.259-1.59-0.004-2.65
							c-0.167,0.271-0.876,0.376-1.58,0.484c1.031-1.039-2.241-0.758-3.161-1.2c2.497,0.115,0.29-1.196,3.158-0.969
							c-0.229-0.732,0.124-1.644-2.372-1.682c1.295,1.123,0.244,1.893-2.368,2.413c-1.92-0.931-2.161-3.139-4.743-3.125
							c0.065-0.782,0.405-1.483,1.576-1.93c2.133,0.504,5.308,0.429,3.159-0.487c-0.69,1.367-1.375-1.789-3.16-0.236
							c-0.219-0.422,2.223-1.206-0.002-1.445c-0.382,0.284-0.841,0.547-1.578,0.725c-1.574-1.513-8.194-4.153-1.589-5.297
							c0.716,0.136,2.91,0.988,3.161,0.476c-4.383-1.327-12.845-2.621-11.856-4.8c-8.404-0.944-7.501-4.372-11.857-6.006
							C27.878-0.097,25.21-1.222,24.943-1.512z"/>
						<path fill-rule="evenodd" clip-rule="evenodd" fill="#EF3561" d="M18.63,3.798c1.57,0,1.006,0.656,3.161,0.477
							c-0.224-1.481,3.074-2.57,6.075-2.429c-0.951-0.081-0.282-0.66-1.341-0.709c-0.145,0.356-1.909,0.223-3.159,0.245
							c0.336-0.459,2.256-0.438,1.579-1.206C19.436,1.088,25.293,2.517,18.63,3.798z"/>
						<path fill-rule="evenodd" clip-rule="evenodd" fill="#EF3561" d="M61.284,2.529c-1.556-1.163-0.299-1.486-0.793-2.167
							c-1.123,1.375-3.053,0.184-4.739-0.234C55.805,0.614,57.514,2.407,61.284,2.529z"/>
						<path fill-rule="evenodd" clip-rule="evenodd" fill="#EF3561" d="M46.272,0.625c-1.259,0.18,0.183,1.179-2.367,0.967
							c-0.125-0.284,0.134-0.683-0.791-0.722c2.079,1.941,2.036,4.079,2.378,5.779c3.154-0.241,1.515,0.745,3.162,1.44
							c-0.387-0.76,1.423-0.854,0.788-1.687c-2.834-0.176-3.448-1.033-3.163-2.165c0.485,0.071,3.043,0.594,3.16-0.005
							C43.731,4.029,48.313,1.516,46.272,0.625z"/>
						<path fill-rule="evenodd" clip-rule="evenodd" fill="#EF3561" d="M-1.109,9.369c0.435-0.43,0.404-1,1.577-1.208
							c1.922,0.536,0.488,2.1,3.163,2.406c0.094-1.504-1.607-1.761-2.374-3.37c1.801-0.334,2.97,0.617,3.159-0.005
							c-3.994-0.196,2.231-0.95-0.792-1.445c0.241,0.636-1.648,0.624-3.158,0.729C0.141,5.69-1.185,5.214-2.696,4.793
							c1.291-0.731,0.614-2.061,3.155-2.414C-8.803,3.457-1.12,4.976-0.323,6.477C0.387,7.817-3.044,8.193-1.109,9.369z"/>
						<path fill-rule="evenodd" clip-rule="evenodd" fill="#EF3561" d="M9.938,2.606c-2.607,1.519-3.355,3.689,1.587,4.575
							c0.401-0.401-1.312-1.947-2.372-1.442C8.395,4.678,12.245,3.106,9.938,2.606z"/>
						<path fill-rule="evenodd" clip-rule="evenodd" fill="#EF3561" d="M24.687,4.994c0,0.32,0.001,0.641,0.001,0.963
							c3.044-0.214,3.339,0.584,5.268,0.715c0.22-0.703,0.073-0.828-1.318-0.48c-2.149-1.2,3.28-1.137,1.709-2.652
							c-0.913,0.476-2.19,1.616-4.41,0.97C26.036,5.176,27.122,5.335,24.687,4.994z"/>
						<path fill-rule="evenodd" clip-rule="evenodd" fill="#EF3561" d="M12.316,7.421c0.721,1.963,1.174,4.131,7.906,5.288
							c-0.592-1.141-3.714-2.114-5.532-2.159c-0.123-1.896-1.121-3.7,3.943-4.584c-0.898-1.056,0.003-0.792,0.787-1.688
							C15.492,4.854,16.649,6.969,12.316,7.421z"/>
						<path fill-rule="evenodd" clip-rule="evenodd" fill="#EF3561" d="M27.331,11.735c-1.026-0.596,1.761-1.171-0.002-1.204
							c-0.166,0.27-0.874,0.376-1.579,0.484c-1.548-1.85,0.085-3.349-2.377-5.056c-1.015,2.968,2.932,7.321-6.306,9.165
							c2.294,0.42,3.122,1.292,6.322,1.436c-2.908-1.984-2.163-1.311-1.585-3.129c1.448,0.092,2.676,0.378,3.949-0.006
							c-1.14-0.573-1.199-0.589-2.37-0.72C24.665,12.116,24.528,11.27,27.331,11.735z"/>
						<path fill-rule="evenodd" clip-rule="evenodd" fill="#EF3561" d="M5.996,6.225C7.153,6.895,4.877,7.66,7.578,8.15
							C6.643,7.102,8.61,6.66,5.996,6.225z"/>
						<path fill-rule="evenodd" clip-rule="evenodd" fill="#EF3561" d="M54.18,6.153c-1.567,2.302-0.938,4.506,1.59,6.021
							c-1.045,0.004-1.374,0.425-2.232,0.485c-0.177-0.186-0.833-0.473-1.442-0.479c0.001,0.401,0.001,0.803,0.002,1.205
							c3.044,0.255,2.365-1.819,5.389-0.971c-2.224-1.587-2.192-2.722-3.63-4.813c0.792-0.001,1.102-0.197,1.742-0.245
							c0.256,0.277,3.528,0.825,4.032,0.236C54.703,7.529,60.8,6.314,57.3,6.391C57.077,7.569,54.45,6.444,54.18,6.153z"/>
						<path fill-rule="evenodd" clip-rule="evenodd" fill="#EF3561" d="M40.766,15.088c-2.581-1.521,0.226-2.94-0.006-3.855
							c-1.434,0.53-1.293,1.535-4.738,1.453c-0.051-2.229-5.74-3.2-4.748-5.051C27.656,10.435,37.099,12.96,40.766,15.088z"/>
						<path fill-rule="evenodd" clip-rule="evenodd" fill="#EF3561" d="M37.611,19.43c-2.328,0.256-4.323,0.614-5.528,1.213
							c0.82,0.721,2.033,2.578,5.532,1.677c-2.965-0.116,0.49-1.24-3.16-1.441c0.548-0.715,2.59-0.98,3.947-1.451
							c1.834,0.16,2.115,0.797,3.95,0.958c-2.924-0.721-2.065-2.572-1.583-3.13c-1.669,0.217-1.372,1.029-3.949,0.97
							c-3.195-2.352-7.045-4.242-7.908-6.733c-2.027,1.19,0.983,2.411-1.576,3.374C34.306,15.302,33.519,18.113,37.611,19.43z"/>
						<path fill-rule="evenodd" clip-rule="evenodd" fill="#EF3561" d="M27.962,22.232c0.111-0.111,0.176-0.234,0.175-0.379
							C28.086,21.976,28.024,22.104,27.962,22.232z"/>
						<path fill-rule="evenodd" clip-rule="evenodd" fill="#EF3561" d="M27.361,31.732c-0.652,0.683,1.114,0.622,0.793,1.204
							c1.823,1.562-0.332-2.146-0.005-3.133c0.627-0.027,2.392-0.8,0.789-0.724c-1.063,0.4-2.019,0.833-3.948,0.969
							c-1.032-2.451,1.83-5.475,2.972-7.816c-0.509,0.503-2.032,0.7-2.982,1.071c-1.302-1.599,1.506-3.956,4.732-4.103
							c-4.519-0.964,2.528-1.764-0.004-2.65c0.102,0.432-0.784,0.564-2.369,0.486c-0.608-0.907,0.962-1.153,0.788-1.929
							c-5.421,1.388,2.394,4.649-4.732,5.789c0.664-1.088-1.85-1.2-2.373-1.923c-0.227-0.426,3.72-0.752,1.579-0.967
							c-0.219,0.496-2.11,0.484-3.159,0.727c1.491-0.82-2.384-1.75-2.373-2.887c-3.344,1.582,3.084,2.503,2.375,3.851
							c9.315,1.391,0.678,8.228,5.548,11.075c-1.314,0.485-2.119,1.122-4.74,1.212c-4.566-1.808-2.761-2.422,1.575-4.098
							c-6.528,0.829-8.406,3.068-11.843,4.836c3.791,0.365,4.148,1.781,5.535,2.882c-2.853,0.911-7.15,3.647-3.943,4.824
							c-0.545-0.8,1.633-0.39,2.371-0.244c-1.428-0.799-1.457-1.135-1.585-2.648c3.428-0.366,2.599-2.045,6.317-1.696
							c-0.917-0.106-0.892-1.057-1.581-1.443c0.161,0.089-0.433,0.594-0.789,0.483c-2.825-0.886-3.747-2.714-0.797-4.577
							c3.541,1.215,6.793,2.316,3.956,4.331c5.074,0.118-1.518-2.01,4.738-1.693c-1.475-0.836,0.399-1.276,1.576-1.93
							C26.774,31.109,27.394,31.32,27.361,31.732z"/>
						<path fill-rule="evenodd" clip-rule="evenodd" fill="#EF3561" d="M54.209,25.91c-0.203-2.467-9.72-2.958-7.117-5.53
							c-5.335,0.836,1.096-1.505-3.162-1.683c0.554,1.052-1.34,1.359-0.786,2.41C48.318,22.253,48.916,24.801,54.209,25.91z"/>
						<path fill-rule="evenodd" clip-rule="evenodd" fill="#EF3561" d="M36.057,36.056c0.02-1.131-3.924-1.047-3.953-2.161
							c0.754-1.137,2.483-1.978,3.946-2.897c2.846,0.02,2.75,2.196,5.531,1.437c-1.64-0.783-3.697-1.438-4.743-2.403
							c3.259-0.444,0.578-1.538,3.947-2.173c-3.805-0.791-2.752,1.644-5.526,1.935c-0.885-0.861-2.91-2.633-1.586-3.37
							c1.246,0.019,0.619,0.612,2.371,0.477c-0.968-1.017-2.519-2.693,1.577-1.688c0.575-0.658-1.569-0.483-1.581-0.961
							c0.858-0.059,1.896-0.399,0.789-0.484c-7.016,1.459-5.36,4.811-1.569,6.99c-1.759,1.313-5.413,2.052-5.525,3.864
							C32.242,34.975,34.038,35.55,36.057,36.056z"/>
						<path fill-rule="evenodd" clip-rule="evenodd" fill="#EF3561" d="M60.029,24.696c0,0.321,0.001,0.643,0.001,0.964
							c3.655,0.027,1.999,1.994,4.598,2.402c0.112-0.82-0.299-2.621,1.9-1.448c-0.584-1.085-1.966-0.786,0.157-1.687
							c-2.48-0.109-2.647,0.651-4.511,0.729C61.079,25.511,61.248,24.732,60.029,24.696z"/>
						<path fill-rule="evenodd" clip-rule="evenodd" fill="#EF3561" d="M43.955,35.562c-0.778-0.942-2.364-1.929,0.785-2.65
							c0.087,0.191,2.614,0.727,2.371,0.237c-0.92-0.039-0.858-0.379-0.791-0.722c-1.47-0.227-2.638,0.725-3.159,0.005
							c0.779-0.694,2.625-1.055,0.787-1.929C43.492,31.924,36.974,34.868,43.955,35.562z"/>
						<path fill-rule="evenodd" clip-rule="evenodd" fill="#EF3561" d="M55.817,43.495c-0.324,0.304-1.019,0.495-2.37,0.486
							c-3.416-3.292,0.058-4.966,3.939-7.233c-3.006-1.648-4.293-3.825-7.907-5.288c-0.606,0.675,2.168,2.345,1.585,3.13
							c2.191-0.42,2.55,1.78,4.744,2.161c-5.531,1.934-3.898,6.042-12.629,7.006c-0.357,1.153,0.859,1.825,3.162,2.163
							c-2.674-1.809,1.44-2.688,3.945-3.619c4.682,0.376-0.089,3.623,3.164,3.367c-0.249-0.326-1.125-0.457-0.792-0.962
							C54.937,45.301,57.638,43.994,55.817,43.495z"/>
						<path fill-rule="evenodd" clip-rule="evenodd" fill="#EF3561" d="M56.589,32.412c-1.724-0.042-2.512,0.202-2.369,0.726
							c0.738,0.257,2.914,0.07,2.371,0.72C60.758,33.769,53.273,33.038,56.589,32.412z"/>
						<path fill-rule="evenodd" clip-rule="evenodd" fill="#EF3561" d="M34.483,39.672c-0.826,0.633-2.504,1.006-3.948,1.451
							c-0.247-1.548-1.781-2.791,1.574-3.615c-2.231-0.196-2.046,0.343-3.948,0.247c1.221-0.355-1.104-1.543,2.367-1.691
							c-0.438-0.428-0.407-0.999-1.581-1.201c-1.663,0.619-1.242,1.87-2.367,2.653c5.987,0.874-1.919,6.354,3.959,6.016
							c-1.746-0.027-0.338-1.021-0.792-1.444C33.474,42.089,34.878,40.124,34.483,39.672z"/>
						<path fill-rule="evenodd" clip-rule="evenodd" fill="#EF3561" d="M21.867,55.833c-1.068-2.223-2.59-3.447-0.007-5.06
							c-0.543,0.648,1.633,0.463,2.371,0.719c-2.527-1.63-1.08-3.758,0.784-4.819c6.905,0.47,1.912,2.728,2.375,4.574
							c3.33,0.023,3.996,0.863,6.321,1.194c-1.772-0.821-3.028-1.802-4.742-2.642c0.193-0.985,1.524-1.626,3.155-2.173
							c-2.533-0.348-4.998-0.716-5.532-1.678c1.994-0.083,1.396-1.881,0.786-2.412c-1.295,0.651-0.393,1.967-3.156,2.174
							c-1.28-0.894-3.975-1.352-4.744-2.402c1.05-0.244,2.94-0.231,3.159-0.727c-2.688-1.068,1.724-2.039,0.785-3.375
							c-1.359-0.094-2.025,0.36-2.37,0.004c-1.993-2.004,0.984-1.061-4.742-1.921c7.409,2.092,2.496,5.613,1.591,7.949
							c0.382-0.286,0.842-0.548,1.579-0.725c2.549,0.343,3.507,1.174,4.743,1.92c-6.768,2.191-3.457,8.046-7.095,9.889
							C20.328,56.65,19.626,55.796,21.867,55.833z"/>
						<path fill-rule="evenodd" clip-rule="evenodd" fill="#EF3561" d="M36.057,36.298c-0.323,0.581,1.443,0.52,0.792,1.203
							c1.799-0.333,2.971,0.617,3.159-0.004c-2.165-0.21,1.541-1.072-1.58-0.48c-0.037-0.733,1.666-0.939,2.368-1.449
							C38.439,35.575,38.111,36.197,36.057,36.298z"/>
						<path fill-rule="evenodd" clip-rule="evenodd" fill="#EF3561" d="M63.721,46.616c-1.742-1.477-2.092-3.611,3.154-4.101
							c0.388-0.856-4.348-1.38-1.584-2.167c2.077-0.075,0.623,0.934,3.161,0.718c-1.18-1.084-4.19-1.607-5.535-2.64
							c0.798-0.795,1.366-0.708,3.159-0.247c-0.65-0.735-2.22-0.575-0.791-1.444c-2.536,0.216-1.638-0.624-3.16-0.719
							c-1.772,1.977,3.886,5.199-0.78,7.47c0.083-1.412-6.282-1.511-4.743-2.642c-1.088-0.009-1.735,0.116-2.37,0.244
							c-0.481,0.016-0.935,0.039-0.79,0.243c4.142,0.911,9.883,2.181,6.325,4.085C61.552,45.674,62.071,46.317,63.721,46.616z"/>
						<path fill-rule="evenodd" clip-rule="evenodd" fill="#EF3561" d="M42.381,39.107c-0.492,0.574-1.061,1.038-3.158,1.126
							c-0.5-0.812-2.27-1.276-1.584-2.451c-2.871-0.068-1.052,1.265-2.365,1.669c2.402,0.227,3.298,0.905,4.74,1.427
							c-2.188,1.022-2.649,2.563-2.364,4.335c-1.086,0.013-1.733-0.113-2.368-0.239c1.39,0.926-0.254,2.091-0.785,3.132
							c3.521,0.265-0.485-1.583,3.948-1.041c-1.57-1.915,2.336-3.114,1.571-5.134c0.791-0.001,1.58-0.002,2.37-0.003
							C40.132,40.316,45.179,39.913,42.381,39.107z"/>
						<path fill-rule="evenodd" clip-rule="evenodd" fill="#EF3561" d="M39.24,52.193c-1.358-0.093-2.024,0.361-2.369,0.003
							c1.702-0.206-0.298-1.535,1.577-1.689c1.494,0.265,2.77,0.597,4.74,0.717c-2.127-0.552-3.375-1.835-6.322-1.436
							c-0.705-0.748-0.816-1.678-3.953-1.682c7.032,1.997,1.367,5.667,2.383,8.188c-2.055,0.1-2.383,0.723-4.739,0.729
							c-3.603-2.074-2.273-2.745-2.378-5.537c-4.211,0.46-0.211,2.854-2.365,4.34c8.448,1.72,3.047,6.279,12.651,7.45
							c-2.211-2.091-10.686-4.665-2.38-6.456c0.867,0.698,0.717,1.885,1.583,2.692c1.054-0.001,2.106-0.003,3.161-0.005
							c-3.583-1.813-5.476-3.628-3.17-5.822c1.836,0.16,2.117,0.654,3.951,0.814C40.985,53.275,35.836,53.463,39.24,52.193z"/>
						<path fill-rule="evenodd" clip-rule="evenodd" fill="#EF3561" d="M10.797,47.176C8.16,46.985,6.316,47.07,5.264,45.98
							c2.163-0.228,1.25-1.203,2.558-1.69c2.63,0.157,2.313,1.083,4.14,1.439c0-0.401-0.001-0.804-0.002-1.204
							c-4.261,0.226-2.11-1.634-4.931-1.198c1.233-0.764-0.136-1.056-0.492-1.926c1.375-0.021,2.606,0.049,3.309,0.235
							c-0.721-0.422-0.198-1.202-1.506-1.443c-4.04,0.62-2.952,2.897-0.747,4.097c-2.286,0.43-1.517,1.782-5.507,1.695
							c-0.04,1.217,6.665,0.369,4.751,2.161C9.416,48.206,9.129,47.394,10.797,47.176z"/>
						<path fill-rule="evenodd" clip-rule="evenodd" fill="#EF3561" d="M34.491,44.972c0.157-0.771-1.326-1.039-3.163-1.198
							C32.209,44.227,32.44,44.878,34.491,44.972z"/>
						<path fill-rule="evenodd" clip-rule="evenodd" fill="#EF3561" d="M49.503,48.181c1.053-0.001,2.107-0.003,3.16-0.004
							c0.125,0.404-0.135,0.514,0.791,0.552c1.933-0.571-1.18-0.533-0.792-1.29c-1.148-0.129-4.083,0.246-3.951-0.276
							c-0.166-0.459,2.724-1.234,0.788-1.951c0.548,0.969-3.326,0.586-3.158,1.44c0.233,0.491,2.137,0.463,2.371,0.955
							c-5.039,0.768-4.518,3.622-1.572,5.059c-0.938,0.759-2.663,1.277-3.156,2.171c3.484-0.346,0.015,1.441,2.371,1.442
							c2.128-1.156-2.348-3.067,3.156-3.379c-2.665-1.163-2.083-1.869-3.956-3.438C48.816,49.998,46.591,48.791,49.503,48.181z"/>
						<path fill-rule="evenodd" clip-rule="evenodd" fill="#EF3561" d="M62.153,55.051c-2.095-1.347-2.733-2.033-2.376-3.129
							c-0.686,0.354-1.181,0.766-3.158,0.729c2.634-1.375-1.796-1.44,1.576-2.412c1.127,0.056,1.333,0.394,2.37,0.478
							c-0.768-0.718-0.207-1.466-0.793-1.686c-1.24,0.186-1.178,0.767-3.158,0.729c-1.383-1.87,3.015-3.254,2.364-4.1
							c-5.84,1.57-2.52,4.452-3.148,7.473C59.491,53.296,58.812,54.788,62.153,55.051z"/>
						<path fill-rule="evenodd" clip-rule="evenodd" fill="#EF3561" d="M40.814,47.373c1.835,0.161,2.115,0.798,3.949,0.958
							c-0.542-0.756,0.09-0.984-0.791-1.204c-0.132,0.282-1.248,0.263-2.37,0.244C41.665,46.996,39.306,47.208,40.814,47.373z"/>
						<path fill-rule="evenodd" clip-rule="evenodd" fill="#EF3561" d="M6.846,48.387c-3.113-0.326-3.796,2.188-2.366,1.69
							C3.846,49.082,7.348,49.341,6.846,48.387z"/>
						<path fill-rule="evenodd" clip-rule="evenodd" fill="#EF3561" d="M65.662,49.986c-0.688,0.354-0.723,0.934-3.158,0.728
							c0,0.321,0.001,0.642,0.001,0.964C64.94,51.677,66.773,50.262,65.662,49.986z"/>
						<path fill-rule="evenodd" clip-rule="evenodd" fill="#EF3561" d="M63.742,60.589c0.639-1.241-3.63-0.976-3.954-1.921
							c2.178-0.625,2.02-1.957,3.947-2.657c1.834,0.162,2.115,0.797,3.95,0.958c-0.618-0.854-2.3-1.383-3.162-2.164
							c-3.811,0.69-2.682,2.879-6.314,3.623c-3.241-0.954-3.505-3.016-1.587-4.815c-2.797,0.437-3.194,1.599-3.946,2.655
							c1.757,0.828,3.251,1.735,4.744,2.643c-2.504,0.445-3.544,1.333-4.737,2.176c6.101,0.104,4.609,2.537,9.25,3.089
							c0.079,0.01,0.155,0.02,0.236,0.028c-0.022-0.009-0.038-0.019-0.06-0.028c-2.739-1.211-1.216-2.552-1.526-3.583
							c-0.087,0.615-1.447,0.845-2.367,1.208c-2.294-0.736-2.679-2.012-0.004-2.892C61.105,59.148,60.358,60.502,63.742,60.589z"/>
						<path fill-rule="evenodd" clip-rule="evenodd" fill="#EF3561" d="M25.826,62.091c-2.157-0.172-1.589,0.481-3.158,0.487
							c-1.575-0.91-4.355-2.091-1.444-3.129c1.126,0.091,0.5,0.288,1.719-0.002c0,0.159,0,0.32,0.001,0.48
							c4.26-0.207-1.721-0.7-1.721-1.201c0.929-0.04,2.566,0.037,2.693-0.246c-3.023-0.202-0.637-1.253,0.161-1.686
							c-2.485,0.279-1.839-0.376-3.08-0.478c1.816,1.976-2.823,3.468-2.32,5.786c2.637,0.004,3.376,0.594,3.237,1.449
							c0.264,0.028,0.536,0.056,0.802,0.083c0.746-0.256,0.434-0.701,3.107-0.82C24.475,62.717,25.993,62.503,25.826,62.091z"/>
						<path fill-rule="evenodd" clip-rule="evenodd" fill="#EF3561" d="M45.473,61.581c-1.218-0.071-0.725,0.611-1.528,0.77
							c-0.014-1.289,2.381-1.839,3.206-2.851c0.526-0.001,1.053-0.002,1.579-0.002c-0.594,0.809,2.07,0.525,3.162,0.913
							c-2.374-1.354-5.511-1.561-4.745-3.508c-2.083-0.07-2.035,0.436-2.369,0.897c3.255,1.063-5.136,3.406-1.623,4.785
							c0.772-0.738,1.711,0.07,2.32,0.202C45.474,62.383,45.473,61.981,45.473,61.581z"/>
						<path fill-rule="evenodd" clip-rule="evenodd" fill="#EF3561" d="M28.194,59.919c-4.222-0.187-1.313,1.942,0.001,0.724
							c-0.003,0.134,0.64,0.272,0.79-0.001C28.064,60.603,28.124,60.262,28.194,59.919z"/>
						<path fill-rule="evenodd" clip-rule="evenodd" fill="#EF3561" d="M46.599,64.753l1.404-0.002
							c1.897-1.014,4.28-1.928,3.89-2.869C49.284,62.583,48.449,63.739,46.599,64.753z"/>
						<path fill-rule="evenodd" clip-rule="evenodd" fill="#EF3561" d="M16.347,62.105c-0.486,0.116-1.053,0.257-1.651,0.419
							c0.322,0.057,0.65,0.112,0.978,0.167C16.559,62.428,17.49,62.202,16.347,62.105z"/>
					</g>
				</g>
			</g>
			<g>
				
					<circle fill="none" stroke="#FF8C8C" stroke-width="1.798" stroke-linecap="round" stroke-miterlimit="10" stroke-dasharray="4.9593,4.9593" cx="31.748" cy="30.747" r="26.843"/>
			</g>
			<g>
				
					<circle fill="none" stroke="#A10404" stroke-width="1.798" stroke-linecap="round" stroke-miterlimit="10" stroke-dasharray="4.9593,4.9593" cx="30.748" cy="30.748" r="26.843"/>
			</g>
		</g>
		<g>
			<g>
				<path fill="#F8FFE5" d="M42.972,35.908c1.05,1.417,1.575,2.523,1.577,3.314c-0.022,1.21-0.637,2.457-1.844,3.737
					c-1.07,1.072-2.105,1.608-3.105,1.61c-1.187,0.001-2.516-1.508-3.987-4.532c-1.236-1.975-2.658-3.975-4.267-5.997
					c-1.929,2.306-3.601,4.543-5.016,6.708c-1.603,2.494-3.114,3.741-4.533,3.743c-1.024,0.001-1.828-0.348-2.411-1.044
					c-0.676-0.813-1.014-1.709-1.016-2.687c-0.001-0.999,0.497-2.2,1.496-3.598c1.672-2.258,4.076-4.973,7.214-8.143
					c-1.865-2.069-3.579-3.811-5.14-5.23c-1.189-1.092-2.132-1.752-2.83-1.986c-1.025-0.371-1.538-1.081-1.539-2.127
					c0.021-0.697,0.323-1.303,0.906-1.817c0.882-0.792,2.033-1.188,3.453-1.19c1.188-0.002,2.315,0.344,3.388,1.042
					c1.397,0.906,3.739,2.973,7.025,6.204c2.648-2.61,4.264-4.371,4.844-5.279c0.419-0.606,0.628-1.234,0.627-1.886
					c-0.001-0.605,0.115-1.023,0.347-1.257c0.256-0.28,0.535-0.419,0.837-0.42c0.814-0.001,1.547,0.427,2.201,1.288
					c0.747,0.906,1.12,2.058,1.122,3.455c0.001,0.651-0.185,1.256-0.555,1.816c-0.651,1.024-2.417,3.191-5.296,6.499
					C39.102,30.922,41.271,33.514,42.972,35.908z"/>
			</g>
		</g>
	</g>
</g>
</svg>
