<?xml version="1.0" encoding="utf-8"?>
<!-- Generator: Adobe Illustrator 16.0.3, SVG Export Plug-In . SVG Version: 6.00 Build 0)  -->
<!DOCTYPE svg PUBLIC "-//W3C//DTD SVG 1.1//EN" "http://www.w3.org/Graphics/SVG/1.1/DTD/svg11.dtd">
<svg version="1.1" xmlns="http://www.w3.org/2000/svg" xmlns:xlink="http://www.w3.org/1999/xlink" x="0px" y="0px"
	 width="186.071px" height="81.337px" viewBox="0 0 186.071 81.337" enable-background="new 0 0 186.071 81.337"
	 xml:space="preserve">
<g id="圖層_1" display="none">
</g>
<g id="BG">
</g>
<g id="日期">
</g>
<g id="表格">
</g>
<g id="UI">
	<g>
		<g>
			<g>
				<g>
					<g>
						<path fill="#F15A7E" d="M0.453,35.626c0.035-0.715-0.378-0.48-0.453-0.593C0.091,36.266,0.561,35.592,0.453,35.626z"/>
						<polygon fill="#F15A7E" points="4.373,46.19 4.126,46.111 5.314,47.26 						"/>
						<path fill="#F15A7E" d="M10.821,53.856c-0.114-0.574-0.799-1.14-1.549-1.813c-0.379-0.331-0.799-0.66-1.169-1.021
							c-0.359-0.373-0.69-0.753-0.931-1.133l-0.067-0.325c-0.317-0.085-0.65-0.162-0.955-0.272
							C7.599,50.969,9.799,52.744,10.821,53.856z"/>
						<path fill="#F15A7E" d="M14.007,58.419c-0.104-0.421,1.079,0.501-0.961-0.815c0.073,0.103,0.095,0.135,0.138,0.197
							C13.363,57.926,13.605,58.103,14.007,58.419z"/>
						<path fill="#F15A7E" d="M13.184,57.801C12.327,57.159,13.6,58.41,13.184,57.801L13.184,57.801z"/>
						<path fill="#F15A7E" d="M17.293,60.473l-1.3-0.561c0.152,0.295,1.174,1.01,0.722,0.854
							C17.992,61.444,17.826,61.142,17.293,60.473z"/>
						<path fill="#F15A7E" d="M18.674,60.749c-0.224-0.089-0.44-0.195-0.659-0.295C18.085,60.575,18.226,60.713,18.674,60.749z"/>
						<path fill="#F15A7E" d="M16.623,59.801l1.392,0.652c-0.106-0.207,0.001-0.41-0.626-0.316
							C17.606,60.029,17.246,60.034,16.623,59.801z"/>
						<path fill="#F15A7E" d="M15.962,59.238c-0.555-0.57-1.302-1.246-0.039-0.629C13.73,57.135,13.735,57.769,15.962,59.238z"/>
						<path fill="#F15A7E" d="M11.684,53.649l-0.615-0.833c-0.267-0.142-0.55-0.268-0.808-0.426
							C10.651,52.617,11.585,53.852,11.684,53.649z"/>
						<path fill="#F15A7E" d="M24.595,65.072c0.145-0.095-0.232-0.564-0.235-0.781c-0.33-0.097-0.656-0.202-0.979-0.317
							C23.786,64.329,24.636,64.837,24.595,65.072z"/>
						<path fill="#F15A7E" d="M24.36,64.292l1.47,0.446C24.637,64.107,24.36,64.105,24.36,64.292z"/>
						<path fill="#F15A7E" d="M19.296,60.207c-0.805-0.264-1.582-0.592-2.383-0.891c0.935,0.388,1.848,0.797,2.795,1.129
							L19.296,60.207z"/>
						<path fill="#F15A7E" d="M29.837,67.583l-0.926-0.042c0.537,0.057,1.074,0.107,1.615,0.139L29.837,67.583z"/>
						<path fill="#F15A7E" d="M33.401,69.01c-0.701,0.039,0.631,0.768-0.062,0.69c0.995,0.33,1.917,0.42,2.741,0.501
							C35.244,70.01,34.406,69.652,33.401,69.01z"/>
						<path fill="#F15A7E" d="M37.453,70.359c-0.422-0.076-0.88-0.104-1.372-0.158C36.525,70.306,36.977,70.363,37.453,70.359z"/>
						<path fill="#F15A7E" d="M28.117,65.918c0.068,0.131,0.172,0.441,0.902,0.887l-0.365-0.633
							C28.49,66.095,28.305,66.007,28.117,65.918z"/>
						<path fill="#F15A7E" d="M28.641,66.15l0.013,0.021c0.581,0.279,0.983,0.473,1.156,0.556
							C29.663,66.655,29.311,66.481,28.641,66.15z"/>
						<path fill="#F15A7E" d="M27.982,65.854c0.05,0.023,0.086,0.041,0.135,0.064C28.083,65.856,28.057,65.83,27.982,65.854z"/>
						<path fill="#F15A7E" d="M22.52,62.521c0.895,0.219,2.619,0.871,1.233-0.297C23.061,62.176,23.859,62.846,22.52,62.521z"/>
						<path fill="#F15A7E" d="M27.539,65.068c-0.471-0.246-0.927-0.528-1.391-0.791c-0.021,0.114,0.165,0.39-0.28,0.299
							C26.427,64.74,26.977,64.923,27.539,65.068z"/>
						<polygon fill="#F15A7E" points="28.305,65.272 27.539,65.068 28.061,65.348 						"/>
						<path fill="#F15A7E" d="M35.027,69.021c0.712,0.074,1.416,0.343,2.227,0.604c-0.829-0.388-1.688-0.783-2.525-1.101
							C34.563,68.602,34.107,68.681,35.027,69.021z"/>
						<path fill="#F15A7E" d="M31.919,67.64c0.047,0.012,0.106,0.026,0.151,0.038C31.997,67.607,31.931,67.568,31.919,67.64z"/>
						<path fill="#F15A7E" d="M45.189,72.272l-0.106-0.112c-0.018,0.021-0.031,0.042-0.052,0.062L45.189,72.272z"/>
						<path fill="#F15A7E" d="M34.615,68.395c-0.608-0.326-1.03-0.368-1.438-0.404c0.488,0.165,1.009,0.321,1.552,0.533
							C34.804,68.487,34.829,68.454,34.615,68.395z"/>
						<path fill="#F15A7E" d="M39.729,70.956c-0.309-0.204-0.666-0.41-1.044-0.617C38.969,70.582,39.573,71.018,39.729,70.956z"/>
						<path fill="#F15A7E" d="M32.238,67.875c-0.034-0.007-0.065-0.015-0.102-0.023C32.309,68.025,32.301,67.973,32.238,67.875z"/>
						<path fill="#F15A7E" d="M32.238,67.875c0.35,0.081,0.646,0.092,0.939,0.115c-0.398-0.131-0.773-0.239-1.107-0.313
							C32.136,67.738,32.198,67.813,32.238,67.875z"/>
						<path fill="#F15A7E" d="M48.363,70.378c-0.219,0.345-2.025,0.188-3.368-0.649c-1.516-0.188-0.985,1.372,0.089,2.432
							c0.094-0.15,0.143-0.301,1.709-0.079c-0.468-0.361-3.178-1.465-1.812-1.43c2.035,0.393,1.579,0.613,2.484,1.098
							c-0.341-0.356,0.338-0.339,1.071-0.34c0.737-0.015,1.526-0.046,1.405-0.451c-0.599-0.078-1.204-0.141-1.8-0.237
							C48.14,70.605,48.813,70.618,48.363,70.378z"/>
						<path fill="#F15A7E" d="M42.24,71.22l-0.63-0.153c0.68,0.293,1.133,0.604,1.969,1.198c1.085,0.148,1.345,0.055,1.453-0.043
							c-1.015-0.307-2.014-0.676-3.02-1.014L42.24,71.22z"/>
						<path fill="#F15A7E" d="M38.86,70.126c0.62-0.233,2.136,0.111,1.393-0.642c-1.787-0.603-1.364-0.106-2.493-0.31
							c2.917,0.922-0.91-0.07,1.094,0.897c-0.592-0.133-1.111-0.293-1.6-0.448c0.503,0.234,0.983,0.473,1.43,0.715
							c-0.022-0.02-0.038-0.033-0.057-0.049l-0.014-0.003l0.005-0.005c-0.107-0.095-0.137-0.14-0.007-0.06
							c0.012-0.002,0.047,0.008,0.063,0.013c0.04-0.049,0.11-0.079,0.184-0.106c0.808,0.38,0.095,0.151-0.184,0.106
							c-0.016,0.016-0.046,0.027-0.056,0.047l0.009,0.008c0.993,0.27,1.982,0.545,2.983,0.777
							C41.009,70.816,40.234,70.571,38.86,70.126z"/>
						<path fill="#F15A7E" d="M25.615,62.167c0.067,0.075,0.049,0.101,0.042,0.131C25.855,62.34,25.938,62.341,25.615,62.167z"/>
						<path fill="#F15A7E" d="M26.613,62.956c-0.224-0.045-0.465,0.025-1.088-0.335c-0.498-0.394,0.096-0.182,0.131-0.321
							c-0.437-0.091-1.496-0.406-0.376,0.387L25.5,62.73c1.027,0.676,2.21,1.868,1.996,1.82
							C27.337,64.048,27.174,63.656,26.613,62.956z"/>
						<path fill="#F15A7E" d="M32.731,66.651c0.805,0.272,1.616,0.524,2.433,0.756l-1.066-0.809l-0.022,0.23
							C32.779,66.191,32.962,66.563,32.731,66.651z"/>
						<polygon fill="#F15A7E" points="45.408,72.559 44.952,72.894 46.552,72.704 						"/>
						<polygon fill="#F15A7E" points="48.613,73.435 48.388,73.781 49.299,73.782 						"/>
						<path fill="#F15A7E" d="M161.955,21.023c-0.229-0.08-0.452-0.169-0.685-0.241C161.59,20.904,161.794,20.983,161.955,21.023z"
							/>
						<path fill="#F15A7E" d="M166.448,23.625l0.212-0.099C166.396,23.493,166.271,23.51,166.448,23.625z"/>
						<path fill="#F15A7E" d="M129.217,79.014c1.128,0.222,2.423,0.626,2.23,0.207l-0.392-0.382
							C130.309,79.013,129.721,79.041,129.217,79.014z"/>
						<path fill="#F15A7E" d="M179.221,56.975c-0.1,0.046-0.204,0.094-0.307,0.142c-0.07,0.295-0.135,0.572-0.195,0.821
							C178.871,57.647,179.042,57.319,179.221,56.975z"/>
						<path fill="#F15A7E" d="M178.39,55.25c0.385-0.254,0.697-0.561,1.048-0.85C179.167,54.568,178.877,54.874,178.39,55.25z"/>
						<path fill="#F15A7E" d="M135.04,11.415l-0.928,0.208C135.393,11.956,134.884,11.598,135.04,11.415z"/>
						<path fill="#F15A7E" d="M81.958,79.374c0.918,0.26,1.659,0.386,2.312,0.467C83.162,79.494,82.29,79.055,81.958,79.374z"/>
						<path fill="#F15A7E" d="M165.991,18.03c-0.446-0.155-0.662-0.172-0.696-0.083C165.749,18.111,166.026,18.17,165.991,18.03z"/>
						<path fill="#F15A7E" d="M86.975,80.071c-0.164-0.048-0.322-0.094-0.487-0.142c-0.69,0.013-1.384,0.01-2.219-0.089
							C85.086,80.095,86.034,80.293,86.975,80.071z"/>
						<path fill="#F15A7E" d="M31.871,12.389c-0.079,0.004-0.166,0.027-0.238,0.029C31.632,12.482,31.729,12.444,31.871,12.389z"/>
						<path fill="#F15A7E" d="M4.132,25.772c0.164-0.285,0.424-0.768,0.735-1.164C4.683,24.776,4.466,25.137,4.132,25.772z"/>
						<path fill="#F15A7E" d="M61.555,76.701C60.859,76.593,61.436,76.727,61.555,76.701L61.555,76.701z"/>
						<path fill="#F15A7E" d="M58.57,74.339c0.155-0.015,0.278-0.051,0.316-0.145C58.808,74.283,58.699,74.327,58.57,74.339z"/>
						<path fill="#F15A7E" d="M94.071,77.808c0.02,0.001,0.037,0.002,0.06,0.003C93.928,77.718,93.963,77.736,94.071,77.808z"/>
						<path fill="#F15A7E" d="M60.556,76.306c0.248,0.102,0.538,0.204,0.857,0.298C61.277,76.543,61.017,76.449,60.556,76.306z"/>
						<path fill="#F15A7E" d="M60.655,76.532c-0.235-0.063-0.419-0.112-0.594-0.159C59.958,76.424,60.026,76.486,60.655,76.532z"/>
						<path fill="#F15A7E" d="M62.521,76.868c-0.396-0.072-0.76-0.164-1.108-0.264c0.13,0.056,0.182,0.091,0.142,0.098
							C61.758,76.736,62.045,76.786,62.521,76.868z"/>
						<path fill="#F15A7E" d="M87.044,3.646c-0.046-0.015-0.098-0.024-0.147-0.043C86.199,3.766,86.505,3.743,87.044,3.646z"/>
						<path fill="#F15A7E" d="M146.161,71.36c-0.028,0.016-0.045,0.025-0.071,0.039c0.032-0.003,0.073-0.007,0.102-0.01
							L146.161,71.36z"/>
						<path fill="#F15A7E" d="M148.446,70.424c-0.868,0.783-1.464,0.873-2.255,0.965l1.093,0.993L148.446,70.424z"/>
						<path fill="#F15A7E" d="M150.492,15.994l1.456,0.977c-2.158-0.152-3.454-0.89-2.163,0.193c0.73-1.202,6.172,2.325,6.898,1.266
							l0.905,0.727c-0.287-0.146-0.367-0.096-0.651-0.24c1.711,1.487,1.89-0.201,4.346,1.236c0.834,0.536,1.328,1.056,0.671,0.871
							l2.078,0.756c0.546,0.329,0.292,0.457-0.25,0.131c0.99,0.504,1.942,1.065,2.918,1.596l-0.042,0.021
							c0.513,0.068,1.583,0.394,2.105,0.566c0.602,0.625-0.435-0.116-0.346,0.144c0.573,0.247,1.155,0.488,1.709,0.771
							c0.401,0.726-1.008,0.09-2.053-0.624c0.34,1.034,0.71,1.148,1.295,1.396c0.57,0.255,1.476,0.531,2.633,1.995
							c-0.478-0.309-0.943-0.629-1.447-0.907c0.227,0.618,0.605,1.098,1.096,1.601c0.494,0.498,1.084,1.04,1.599,1.85
							c-0.096-0.497-2.139-3.346-0.409-2.382c0.381,0.416,0.876,0.938,1.843,1.446c-0.309,0.354,0.531,0.949,1.421,1.853
							l-0.517,0.379c1.09,0.83,1.21,0.567,1.961,0.981c0.968,1.187,0.681,1.775,0.569,2.28c1.298,1.951-0.312-1.788,1.417,0.432
							c0.407,0.91,0.871,1.601,1.293,2.363c0.489,0.738,0.938,1.536,1.482,2.59c0.11,1.364-0.43-0.124-0.489,0.392l0.778,1.028
							c0.035,0.29-0.138,0.224-0.218,0.191c0.313,0.956,0.636-0.035,1.006,1.563c0.327,0.196,0.143,1.081-0.183,2.076
							c-0.198,0.497-0.331,1.034-0.492,1.56c-0.176,0.524-0.241,1.06-0.192,1.598c-0.344,0.404-0.287-0.338-0.575-0.268
							c-0.112,0.668-0.192,1.146-0.254,1.52c-0.062,0.383-0.172,0.643-0.228,0.908c-0.14,0.523-0.174,1.02-0.534,2.185
							c-0.241,0.243-0.464,0.493-0.714,0.723l-0.778,0.665c0.635-0.432,0.79-0.208,0.686,0.349
							c-0.051,0.277-0.167,0.638-0.315,1.035c-0.16,0.389-0.382,0.79-0.587,1.192c0.537-0.255,1.029-0.464,1.299-0.659
							c-0.537,0.777-1.082,1.57-1.681,2.317c-0.325,0.161-0.262-0.191-0.12-0.695c-0.098,0.171-0.192,0.333-0.266,0.462
							c-0.897,0.521-0.76-0.11-0.501-0.838c0.339-0.132,0.64-0.301,0.961-0.445c0.182-0.769,0.276-1.501-0.099-1.641
							c-0.061,0.174-0.239,0.461-0.461,0.755c0.039-0.198,0.044-0.34-0.057-0.325c-0.11,0.021-0.191,0.317-0.368,0.75
							c-0.306-0.015-0.603-0.029-0.919-0.064l0.092,0.298l-1.407,1.018c-0.48,0.324-0.985,0.62-1.471,0.929
							c-1.498,2.059-2.745,4.273-6.252,6.506c0.647-0.953-0.213-0.849-0.453-1.416c0.633,0.013,1.286-0.438,2.005-1
							c0.714-0.573,1.451-1.309,2.366-1.804c-0.951,0.525-0.908,0.151-0.735-0.081l-1.392,1.238
							c-0.474,0.406-0.971,0.785-1.46,1.181c-0.181-0.49-0.851,0.088-1.822,0.328c1.12,0.543-2.165,1.871-3.455,2.741
							c-0.221-0.265-0.029-0.727,1.691-1.424c-2.17,0.159-1.918,2.193-4.062,2.367c0.42-0.181,0.668-0.227,0.769-0.452
							c-0.435,0.339-1.282,0.703-1.959,0.919c-0.683,0.203-1.2,0.244-0.963,0.005l0.424-0.164c-0.721,0.234-1.621,0.551-2.568,0.908
							c-0.955,0.339-1.968,0.694-2.891,1.066c-1.86,0.707-3.402,1.39-3.506,1.867c-0.058-0.096,0.108-1.092,0.235-1.307
							c-1.474,1.393-2.995,2.794-4.571,4.127c0.295-0.813-1.891-2.071,0.465-3.043c-0.729,0.065-1.624,0.151-3.05,0.748
							c0.5-0.012,1.435,0.739,0.789,0.958c-1.987-0.357-1.36-0.142-3.736-0.341c0.757,0.003,0.178,1.28-0.987,1.484
							c0.147-0.204-0.308-1.08,0.088-1.283c-0.881,0.553-1.775,1.079-2.672,1.622c0.686-0.327-0.04-0.953-0.733-1.148
							c0.338,0.18-2.487,0.391-3.238,0.611l1.261,0.066c-3.275,0.347-3,2.03-6.283,2.404c0.37-0.285,0.802-1.522-0.866-1.468
							c-0.685,0.635-3.07,3.122-5.983,3.781l-0.588-0.278c-0.739,0.192-1.48,0.37-2.224,0.534c1.357-0.94,5.11-3.052,7.126-3.999
							c-1.252-0.127-0.38-0.342-2.211-0.125c-0.675-0.241,0.955-0.558,1.489-0.64c-1.424,0.1-2.854,0.134-4.279,0.192
							c0.247,0.667-3.22,0.91-3.024,1.441c1.543-0.312,3.076-0.679,4.603-1.04c0.253,0.638-2.536,2.141-5.617,2.187
							c-0.792-0.217,0.513-1.22,0.434-1.438c-0.379,0.261-2.866,0.61-3.155,0.444l1.275-0.409c-1.702-0.184-2.732,1.001-4.795,0.432
							c-0.708-0.029-2.119-0.818-2.233-0.422c1.157,0.739,1.446,3.085,0.679,3.67c-0.255-0.037-3.762-0.662-4.57-1.062
							c-1.166-0.599,1.752-1.416,0.758-1.93c-0.042,0.182-0.684,0.404-0.953,0.476c-0.741-0.158,0.308-0.563-1.302-0.485
							c-0.275,0.69-3.276-0.106-0.768,0.569c-1.582,0.166-1.675-0.176-3.528-0.188c0.581,0.451-1.711,1.455-3.314,1.559
							c0.101-0.167-0.247-0.407-0.414-0.516c-3.247-0.193-4.966-0.643-7.983-0.873c-0.265-0.187-1.701-0.51-1.057-0.746
							c-0.443,0.082-0.861,0.275-1.791,0.211c-1.741-0.737,2.076,0.089,0.772-0.728c-0.153,0.393-2.446,0.324-3.792,0.412
							c0.341,0.651,3.043,0.448,4.388,0.3c-0.064,0.835-2.459,1.52-5.674,1.542c-2.543-0.07-1.027-0.664-1.479-0.591
							c-4.687-0.747-4.219,0.93-8.05-0.261c-1.467-0.767,0.099-1.056-0.185-1.489c2.062,0.105,3.068,0.813,4.453,0.988l-1.662-0.5
							c0.671-0.07,2.045-0.009,2.767,0.231c-1.234-0.606-7.904-1.241-11.399-2.398c-0.669,0.051-1.804,0.016-1.326,0.328l1.149,0.15
							c0.964,0.627-2.253,0.163-0.853,0.643c-1.587,0.012-3.399,0.096-5.494-0.617l-0.267-0.68c0.005,0.183,1.32,0.661,1.963,0.612
							c-0.959,0.077-3.094-1.53-4.247-1.01l1.398,0.775c-1.589-0.082-3.647,0.112-5.487-0.604c0.708,0.812,0.451,0.051,1.622,1.093
							c-0.957-1.132,4.866,1.227,3.197-0.125c1.197,1.145,2.327,0.882,4.004,1.972c-0.015-0.209-0.567-0.517,1.021-0.067
							c0.085-0.043,0.272-0.082,0.39-0.103c0.048,0.016,0.065,0.022,0.106,0.036c-0.03-0.015-0.053-0.026-0.084-0.041
							c0.076-0.016,0.084-0.021-0.031-0.014c-0.367-0.158-0.654-0.335-0.757-0.471c0.89-0.271,3.444,0.229,4.351,0.168
							c0.935,0.281-0.441,0.148,0.04,0.46c0.452-0.027,0.907-0.077,1.359-0.117c0.047,0.46,2.42,1.17,0.112,1.034l2.035,0.373
							c1.156,0.47,2.805,0.795,3.853,0.771c0.952,0.247,2.506-0.128,1.617,0.099l3.249,0.144l0.016,0.114
							c3.172,0.46,6.602,0.004,10.172,1.103c1.082-0.025,2.199-0.101,3.985,0.146l0.327,0.407c1.384-0.039,4.131,0.581,4.741,0.213
							c1.456,1.11,6.714,0.406,9.144,0.567l0.09-0.502c1.674,0.035,3.279-0.164,5.348-0.396l-0.14-0.442
							c1.77-0.434,4.6,0.164,7.426-0.081c-0.181,0.182-0.901,0.182-1.414,0.11c3.453,0.813,7.057-1.229,10.167-0.847
							c0.742-0.246,1.299-0.237,1.844-0.201c-0.071,0.01-0.133,0.026-0.186,0.047c0.078-0.008,0.194-0.021,0.312-0.035
							c0.344,0.032,0.701,0.076,1.084,0.098c-0.332-0.066-0.647-0.114-0.917-0.121c0.584-0.085,1.465-0.255,2.319-0.479l0.436,0.425
							c0.07-0.014,0.126-0.025,0.2-0.04c0.88,0.062,0.655-0.315,0.15-0.609c0.427-0.133,0.812-0.297,1.105-0.456
							c0.806,0.654,2.228-0.605,3.302,0.057c0.515-0.508,4.297-1.061,4.581-2.013c0.051,0.102,0.313,0.101-0.147,0.203
							c0.972-0.103,1.948-0.207,2.753-0.615l0.535,0.503l1.892-1.282c1.342,0.065,1.923,0.149,0.778,0.898
							c2.846-1.451,2.391-0.88,4.747-2.264l-0.016,0.414c0.906-0.284,2.198-1.215,2.838-1.067c1.115,0.025,3.626-0.748,6.479-1.819
							c2.848-1.098,6.014-2.505,8.616-3.503c-1.487-0.491,2.5-0.801,2.244-1.699c0.421,0.085,1.158-0.209,0.512,0.474
							c2.271-1.721,3.874-1.992,4.988-3.818c0.428,0.005-0.233,0.708,0.095,0.648c0.147-0.195,0.569-0.77,0.907-0.835
							c0.334-0.063-0.185,0.447-0.472,0.834c1.155-0.96,1.642-1.662,1.766-2.235c0.135-0.558-0.054-0.94-0.25-1.298
							c0.332-0.183,0.614-0.356,0.855-0.529c0.228-0.188,0.417-0.376,0.576-0.573c0.319-0.394,0.52-0.826,0.679-1.384
							c0.503-0.24,1.293-0.732,0.175,0.73c0.19-0.175,0.548-0.559,0.958-1.062c0.413-0.499,0.928-1.071,1.311-1.717
							c0.855-1.224,1.355-2.539,1.1-2.712c0.139-0.115,0.333-0.429,0.449-0.772c0.111-0.346,0.19-0.696,0.204-0.838
							c0.459-1.086,0.586-1.724,0.754-2.341c0.191-0.613,0.252-1.25,0.353-2.413l-0.177,0.63c-0.342-0.499-0.277-0.955-0.265-1.544
							c0.026-0.294,0.055-0.619,0.087-0.983c0.014-0.183,0.025-0.377,0.029-0.583c-0.019-0.204-0.047-0.419-0.087-0.646l0.085,0.044
							c0.016-1.067-0.031-1.726-0.151-2.146c-0.094-0.428-0.18-0.643-0.261-0.854c-0.156-0.432-0.315-0.821-0.808-2.886
							l-0.337,0.393c-0.559,0.032-0.787-0.824-1.116-1.955c-0.197-0.544-0.414-1.16-0.683-1.757
							c-0.279-0.588-0.663-1.114-1.084-1.539l0.284,0.848c-0.525-0.409-0.741-1.358-1.042-2.293
							c-0.272-0.955-0.536-1.979-0.97-2.483c-0.139-0.269,0.423,0.229,0.756,0.475c-2.021-2.908-0.753,0.082-2.682-1.6
							c-0.123-0.563,1.041-0.21-0.21-1.424c-0.116-0.195-0.454-0.458-0.918-0.762c-0.48-0.272-1.075-0.61-1.708-0.969
							c-1.254-0.726-2.664-1.484-3.433-2.415c0.281,0.498,0.547,0.986-0.528,0.504c-1.505-0.915-3.554-3.429-5.374-3.485
							c-0.163-0.169-0.205-0.27-0.182-0.331c-1.279-0.5-4.063-1.732-4.98-1.689c-0.206-0.999-2.197-1.73-4.059-2.283
							c-0.933-0.276-1.827-0.531-2.451-0.805c-0.631-0.255-0.992-0.535-0.846-0.885c-1.298-0.474-2.592-0.955-3.906-1.375
							l0.154-0.109c-2.458-0.995-3.473-0.911-4.463-0.855c-0.548-0.286-0.082-0.284-0.009-0.344
							c-1.783-0.755-2.793-1.083-3.753-1.301c-0.959-0.216-1.886-0.271-3.541-0.318l-0.196-0.562
							c-0.904,0.033-5.207-2.159-9.037-2.373c0.048-0.046,0.144-0.123,0.452-0.126c-4.25-0.333-9.776-3.267-11.606-1.695
							l-2.828,0.021c3.55,0.672-0.64,0.687,0.784,1.201c-1.409-0.111-3.554-1.013-1.814-0.889l0.258,0.124
							c0.76-0.835-4.402-0.918-4.235-1.506c-7.073-0.762-13.973-1.727-20.661-1.916l0.751,0.743L86.987,0.91
							c-0.607-0.183-0.813-0.586,0.849-0.517c-0.868-0.445-2.792,0.31-2.838,0.468C81.747,0.559,86.272,0.02,85.277,0l-1.358,0.05
							l0.306,0.086c-1.1,0.302-1.196,0.586-3.191,0.586c-1.264-0.122-0.655-0.435-1.153-0.454c0.002-0.051-0.167-0.072-0.764-0.006
							c-0.98-0.006-1.96-0.006-2.94,0.02l1.192,0.525c-1.29,0.333-2.754,0.08-1.381,0.674c-1.007-0.469-3.746-0.445-6.379-0.265
							c-2.634,0.18-5.16,0.489-5.781,0.399c-1.77,0.614-3.554,0.77-5.766,1.026c0.564,0.047,0.971,0.643-0.934,0.811
							c0.511-1.431-3.551-0.071-5.243-0.761c1.474,0.378-5.367,1.125-3.053,1.622c-1.595,0.188-0.189-0.477-1.445-0.543
							C43.74,4.998,39.054,5.241,34.53,6.792c-0.019,0.188,0.818,0.217-0.08,0.754c-0.887-0.053-1.764-0.043-2.655-0.061
							c-0.867,0.392-0.504,1.193-2.316,1.223c0.278,0.054,0.69,0.137,0.12,0.407c-4.518,1.182-8.867,3.285-12.985,5.799
							c-2.043,1.292-4.067,2.629-5.998,4.14c-1.95,1.481-3.863,3.053-5.7,4.86c1.107-0.88,0.57-0.132-0.05,0.694
							c0.476-0.485,0.338,0.266,0.611,0.299c-0.97,0.984-1.903,2.053-2.704,3.26c0.087,0.472-0.292,1.539-0.658,2.574
							c-0.294,1.058-0.518,2.104-0.253,2.369c0.051-0.439,0.127-0.877,0.193-1.319c0.151,0.949,0.703,0.415,1.299-0.192
							c0.625-0.612,1.407-1.258,1.794-0.979c-0.022-0.237-0.005-0.482,0.068-0.721c0.089-0.233,0.215-0.467,0.365-0.702
							c0.298-0.472,0.682-0.949,1.159-1.403c0.453-0.467,0.889-0.964,1.342-1.484c0.426-0.536,0.768-1.152,1.051-1.869
							c0.57-0.335-0.136,0.601,0.257,0.498c0.09-0.398,0.27-0.777,0.58-1.19c0.316-0.408,0.814-0.807,1.464-1.303l-0.066,0.201
							c0.803-0.812,1.624-1.383,2.331-1.954c0.764-0.512,1.472-0.972,2.211-1.413c0.766-0.409,1.536-0.837,2.421-1.284
							c0.912-0.41,1.869-0.941,3.077-1.452l-0.564-0.24c1.036-0.457,1.314-0.433,1.834-0.566c0.841-1.226-2.84,1.401-2.151,0.17
							c0.895,0.077,2.658-0.834,4.445-1.593c1.782-0.762,3.545-1.432,4.216-1.095c1.636-0.598-0.674-0.331,0.968-0.93l0.535,0.116
							l0.286-0.509c1.099-0.34,1.777-0.147,1.893,0.067c-0.273,0.059-0.726,0.313-1,0.427c1.511-0.146,3.927-1.421,4.461-1.435
							l-1.66,0.311c4.469-1.727,10.252-2.7,14.697-4.138l-0.389-0.155c3.429-1.028,2.84-0.29,6.667-1.065l-0.133,0.074
							c0.738-0.347,1.761-0.588,2.826-0.701C57.398,5.663,60.246,5.539,59,5.99c3.767-0.918,1.846-0.565,4.296-1.671l0.623,0.303
							c0.833-0.427,0.89-0.598,2.836-0.858c-1.574,0.449,1.29,0.454-0.464,1.019c2.072,0.216,3.567-0.087,4.801-0.311
							c1.231-0.232,2.194-0.409,3.159,0.15c0.917-0.545,0.026-0.651-0.968-0.653c-0.992,0.015-2.082,0.145-1.561,0.002
							c-0.904-0.272,1.512-0.871,2.812-0.802c1.319-0.019,2.281,1.178,5.567,1.114c-0.327,0.001-0.348,0.078-0.675,0.08
							c1.233,0.243,2.408-0.413,3.922,0.025c0.847-0.612,1.96,0.041,2.21-0.743l-3.027,0.173c1.71-0.186,3.335-1.149,6.163-0.617
							c-0.224,0.153-1.071,0.341-1.65,0.443c0.822,0.251,1.595-0.115,2.447,0.143c-0.263,0.775-3.68,0.075-5.517,0.693
							c0.881,0.332,3.471-0.556,2.541,0.289c1.342-1.043,3.232,0.195,5.484-0.542L91.834,4.69c0.354-0.058,1.094-0.247,1.741-0.207
							l-1.198,0.557c1.823-0.437,3.444,0.595,5.178,0.441c-3.606-0.216-0.775-0.626-2.285-1.051
							c2.251-0.189,2.876,0.176,3.558,0.574c0.683,0.403,1.424,0.849,3.915,0.962c-0.677,0.008-2.502-0.5-1.432-0.626
							c0.94,0.179,2.175,0.467,2.731,0.763c3.298,0.214-0.459-0.534,0.97-0.69c1.064,0.691,1.639-0.058,3.108-0.084l-0.043,0.477
							c3.713,0.729,1.113-0.877,4.448-0.085l-1.511,0.473l1.779,0.058l-0.434,0.492c1.963-0.163,2.542,0.056,4.382,0.482
							c-0.383-0.394,0.377-0.83,2.035-0.575c1.079,0.476-0.704,0.34,1.644,0.677c-0.579,0.203-1.216,0.474-2.159-0.137
							c-0.129,0.137-0.569,0.217-0.7,0.353c1.158,0.506,3.018,0.592,3.863,0.729c-0.321-0.074-0.704-0.167-0.892-0.268
							c1.164-0.027,2.33-0.045,3.493-0.031c0.496,0.28,0.048,0.339-0.395,0.396c0.691,0.083,1.205-0.04,2.216,0.117
							c-0.336,0.33-0.355,0.734-1.803,0.636c1.09,0.076,2.19,0.119,3.278,0.224c0.178,0.212,1.533,0.812,1.09,0.861
							c1.707,0.592,4.481,0.256,6.727,1.146c0.139-0.04,0.398-0.045,0.903,0.034c2.157,0.658,3.921,1.675,6.617,1.952l1.218,1.128
							c2.027,0.492-1.672-1.465,1.714-0.642c2.394,0.604,0.671,0.866,1.418,1.334c1.265,0.055,3.512,0.143,5.402,1.493
							C151.667,16.503,151.161,16.197,150.492,15.994z M172.811,27.897c-0.444-0.228-1.382-0.586-1.485-1.031
							C172.089,26.778,172.268,27.259,172.811,27.897z M175.866,58.938c0.193-0.34,0.637-0.677,1.23-0.979
							C176.777,58.296,176.407,58.672,175.866,58.938z M69.199,77.685c0.022-0.004,0.039-0.007,0.058-0.015
							C70.357,78.025,69.968,77.892,69.199,77.685z M66.894,77.085c-0.246,0.025-0.241,0.093-0.154,0.176
							c0.184-0.091,0.71-0.008,1.302,0.129C67.897,77.238,67.61,77.101,66.894,77.085z M79.621,0.449l0.463,0.116
							C79.047,0.722,79.335,0.593,79.621,0.449z"/>
						<path fill="#F15A7E" d="M178.481,55.456c0.152-0.046,0.245-0.016,0.335,0.02C178.883,55.284,178.813,55.222,178.481,55.456z"
							/>
						<path fill="#F15A7E" d="M135.212,11.378l-0.074-0.026c-0.049,0.017-0.078,0.039-0.098,0.063L135.212,11.378z"/>
						<path fill="#F15A7E" d="M103.424,76.144c0.478,0.07,0.746,0.159,0.924,0.25C104.374,76.276,104.156,76.177,103.424,76.144z"/>
						<path fill="#F15A7E" d="M54.392,75.346l1.513,0.241c-0.723-0.151-0.955-0.316-1.299-0.478
							C54.612,75.226,54.857,75.452,54.392,75.346z"/>
						<path fill="#F15A7E" d="M42.54,68.921c-0.227-0.012-0.445-0.137-0.67-0.148l-0.013,0.229
							C42.753,69.278,43.431,69.31,42.54,68.921z"/>
						<path fill="#F15A7E" d="M53.402,73.469c-0.018-0.424-0.976-0.498-2.016-0.711c0.062,0.015,0.121,0.028,0.181,0.049
							C51.122,73.27,52.261,73.392,53.402,73.469z"/>
						<path fill="#F15A7E" d="M51.145,72.707c-0.32-0.067-0.645-0.143-0.948-0.245C50.017,72.647,50.568,72.611,51.145,72.707z"/>
						<path fill="#F15A7E" d="M63.884,76.822c-0.477-0.198-0.407,0.444-0.657,0.229C62.576,77.458,66.653,77.066,63.884,76.822z"/>
						<polygon fill="#F15A7E" points="52.894,71.981 53.14,72.552 53.811,72.305 						"/>
						<path fill="#F15A7E" d="M60.922,74.199c-0.543-0.148-1.08-0.327-1.619-0.488c0.008,0.087-0.212,0.089-0.477,0.069
							C59.836,74.022,60.929,74.358,60.922,74.199z"/>
						<path fill="#F15A7E" d="M58.825,73.78c-0.526-0.125-1.031-0.226-1.343-0.211C57.77,73.626,58.389,73.746,58.825,73.78z"/>
						<polygon fill="#F15A7E" points="55.163,72.382 55.622,72.601 56.769,72.913 						"/>
						<path fill="#F15A7E" d="M78.796,77.13l1.844,0.056c0.204-0.149-0.282-0.306-0.97-0.312
							C79.22,76.944,78.534,76.937,78.796,77.13z"/>
						<path fill="#F15A7E" d="M73.466,75.087c0.475,0.171,0.493,0.28,0.748,0.479l0.138-0.602L73.466,75.087z"/>
						<path fill="#F15A7E" d="M78.771,75.615c0.202-0.15,2.687-0.203,0.385-0.413C78.954,75.351,77.118,75.296,78.771,75.615z"/>
						<polygon fill="#F15A7E" points="106.255,77.826 105.789,77.843 105.865,78.851 						"/>
						<path fill="#F15A7E" d="M130.196,73.698c-2.155,0.037-0.423,0.683-2.385,0.634c-0.471,0.302,1.604,0.04,1.118,0.311
							C130.184,74.226,130.876,74.279,130.196,73.698z"/>
						<path fill="#F15A7E" d="M128.929,74.643c-0.201,0.066-0.414,0.143-0.638,0.238C128.656,74.77,128.825,74.699,128.929,74.643z"
							/>
						<polygon fill="#F15A7E" points="1.214,30.697 0.627,32.215 1.201,31.284 						"/>
						<path fill="#F15A7E" d="M1.333,33.813L0.65,34.106l0.474,0.989C1.134,34.746,1.157,34.059,1.333,33.813z"/>
						<path fill="#F15A7E" d="M174.655,31.286l0.177-0.041c-0.024-0.258-0.21-0.494-0.654-0.915
							C174.352,30.642,174.514,30.958,174.655,31.286z"/>
						<polygon fill="#F15A7E" points="160.144,20.799 160.421,20.952 160.154,20.168 						"/>
						<path fill="#F15A7E" d="M145.6,15.537c0.587,0.234,1.331,0.36,1.922,0.595C146.189,15.771,145.674,14.793,145.6,15.537z"/>
					</g>
				</g>
			</g>
		</g>
	</g>
</g>
</svg>
