<?xml version="1.0" encoding="utf-8"?>
<!-- Generator: Adobe Illustrator 16.0.0, SVG Export Plug-In . SVG Version: 6.00 Build 0)  -->
<!DOCTYPE svg PUBLIC "-//W3C//DTD SVG 1.1//EN" "http://www.w3.org/Graphics/SVG/1.1/DTD/svg11.dtd">
<svg version="1.1" id="圖層_1" xmlns="http://www.w3.org/2000/svg" xmlns:xlink="http://www.w3.org/1999/xlink" x="0px" y="0px"
	 width="34.25px" height="36.371px" viewBox="0 0 34.25 36.371" enable-background="new 0 0 34.25 36.371" xml:space="preserve">
<g id="圖層_1_1_" display="none">
</g>
<g id="BG">
</g>
<g id="日期">
</g>
<g id="表格">
</g>
<ellipse transform="matrix(0.0015 1 -1 0.0015 48.2507 13.9778)" opacity="0.15" fill="#231815" enable-background="new    " cx="17.126" cy="31.15" rx="5.221" ry="17.126"/>
<path fill="#9FA0A0" d="M25.333,10.711l8.918,20.555l-21.2-7.248C7.877,22.25,5.116,16.623,6.885,11.45
	c1.768-5.174,7.396-7.934,12.569-6.167C22.185,6.218,24.258,8.261,25.333,10.711z"/>
<circle fill="#1B9AAA" cx="16.966" cy="15.885" r="15.885"/>
<path fill="#157A87" d="M29.206,5.759c1.289,2.292,2.033,4.931,2.039,7.749c0.012,8.771-7.089,15.895-15.862,15.908
	c-4.934,0.007-9.345-2.234-12.264-5.76c2.727,4.848,7.914,8.121,13.87,8.113c8.773-0.014,15.875-7.136,15.861-15.908
	C32.845,12.021,31.478,8.502,29.206,5.759z"/>
<ellipse transform="matrix(0.8709 -0.4914 0.4914 0.8709 -0.4045 6.242)" fill="#FFFFFF" cx="11.679" cy="3.891" rx="2.712" ry="1.127"/>
</svg>
