<?xml version="1.0" encoding="utf-8"?>
<!-- Generator: Adobe Illustrator 16.0.3, SVG Export Plug-In . SVG Version: 6.00 Build 0)  -->
<!DOCTYPE svg PUBLIC "-//W3C//DTD SVG 1.1//EN" "http://www.w3.org/Graphics/SVG/1.1/DTD/svg11.dtd">
<svg version="1.1" xmlns="http://www.w3.org/2000/svg" xmlns:xlink="http://www.w3.org/1999/xlink" x="0px" y="0px"
	 width="34.251px" height="36.371px" viewBox="0 0 34.251 36.371" enable-background="new 0 0 34.251 36.371" xml:space="preserve">
<g id="圖層_1" display="none">
</g>
<g id="BG">
</g>
<g id="日期">
</g>
<g id="表格">
</g>
<g id="UI">
	<g>
		
			<ellipse transform="matrix(-1 0.0015 -0.0015 -1 34.2971 62.2746)" opacity="0.15" fill="#231815" cx="17.125" cy="31.15" rx="17.125" ry="5.22"/>
		<path fill="#9FA0A0" d="M25.333,10.711l8.918,20.554L13.05,24.019c-5.173-1.769-7.934-7.396-6.166-12.569
			c1.768-5.173,7.396-7.934,12.569-6.166C22.185,6.218,24.259,8.261,25.333,10.711z"/>
		<circle fill="#1B9AAA" cx="16.966" cy="15.885" r="15.885"/>
		<path fill="#157A87" d="M29.205,5.759c1.289,2.292,2.034,4.932,2.038,7.749c0.013,8.772-7.088,15.895-15.861,15.907
			c-4.934,0.008-9.345-2.235-12.264-5.759c2.727,4.847,7.915,8.121,13.871,8.112c8.773-0.013,15.874-7.135,15.861-15.908
			C32.845,12.021,31.477,8.501,29.205,5.759z"/>
		<g>
			<g>
				<path fill="#F8FFE5" d="M21.878,21.01l0.004,2.796l-10.551,0.016c0.113-1.057,0.454-2.059,1.024-3.006s1.696-2.204,3.379-3.771
					c1.355-1.266,2.186-2.124,2.492-2.574c0.413-0.622,0.62-1.236,0.619-1.844c-0.001-0.671-0.183-1.188-0.543-1.547
					c-0.361-0.36-0.859-0.54-1.495-0.539c-0.628,0.001-1.128,0.191-1.499,0.57c-0.371,0.379-0.584,1.008-0.64,1.886l-3-0.295
					c0.176-1.657,0.735-2.847,1.676-3.57c0.942-0.722,2.12-1.085,3.534-1.087c1.549-0.002,2.768,0.414,3.655,1.248
					c0.886,0.834,1.331,1.872,1.333,3.115c0.001,0.707-0.125,1.38-0.377,2.02c-0.252,0.64-0.653,1.311-1.202,2.01
					c-0.364,0.465-1.02,1.133-1.968,2.006c-0.949,0.873-1.55,1.452-1.803,1.737c-0.253,0.287-0.458,0.565-0.614,0.837L21.878,21.01z
					"/>
			</g>
		</g>
		
			<ellipse transform="matrix(0.4914 0.8709 -0.8709 0.4914 9.3294 -8.194)" fill="#FFFFFF" cx="11.68" cy="3.891" rx="1.127" ry="2.712"/>
	</g>
</g>
</svg>
