<?xml version="1.0" encoding="utf-8"?>
<!-- Generator: Adobe Illustrator 16.0.3, SVG Export Plug-In . SVG Version: 6.00 Build 0)  -->
<!DOCTYPE svg PUBLIC "-//W3C//DTD SVG 1.1//EN" "http://www.w3.org/Graphics/SVG/1.1/DTD/svg11.dtd">
<svg version="1.1" xmlns="http://www.w3.org/2000/svg" xmlns:xlink="http://www.w3.org/1999/xlink" x="0px" y="0px"
	 width="34.251px" height="36.371px" viewBox="0 0 34.251 36.371" enable-background="new 0 0 34.251 36.371" xml:space="preserve">
<g id="圖層_1" display="none">
</g>
<g id="BG">
</g>
<g id="日期">
</g>
<g id="表格">
</g>
<g id="UI">
	<g>
		
			<ellipse transform="matrix(-1 0.0015 -0.0015 -1 34.2971 62.2754)" opacity="0.15" fill="#231815" cx="17.125" cy="31.15" rx="17.126" ry="5.221"/>
		<path fill="#9FA0A0" d="M25.333,10.711l8.918,20.554l-21.2-7.247C7.877,22.25,5.116,16.623,6.885,11.45
			c1.768-5.173,7.396-7.934,12.569-6.166C22.185,6.218,24.259,8.261,25.333,10.711z"/>
		<circle fill="#1B9AAA" cx="16.966" cy="15.885" r="15.885"/>
		<path fill="#157A87" d="M29.205,5.759c1.29,2.292,2.034,4.932,2.039,7.749c0.013,8.772-7.088,15.894-15.861,15.907
			c-4.934,0.007-9.345-2.235-12.264-5.759c2.727,4.847,7.915,8.122,13.871,8.112c8.773-0.013,15.875-7.135,15.861-15.907
			C32.845,12.021,31.478,8.502,29.205,5.759z"/>
		<g>
			<g>
				<path fill="#F8FFE5" d="M11.605,19.653l2.913-0.358c0.094,0.743,0.345,1.311,0.753,1.702c0.408,0.393,0.9,0.588,1.479,0.587
					c0.621-0.001,1.144-0.237,1.568-0.709s0.636-1.107,0.634-1.907c-0.001-0.757-0.206-1.356-0.613-1.799
					c-0.407-0.442-0.904-0.663-1.49-0.662c-0.386,0-0.846,0.076-1.381,0.227l0.328-2.454c0.814,0.02,1.436-0.157,1.863-0.533
					c0.428-0.375,0.642-0.874,0.641-1.495c-0.001-0.528-0.159-0.949-0.474-1.263c-0.314-0.314-0.732-0.471-1.253-0.47
					c-0.514,0-0.954,0.18-1.317,0.538c-0.364,0.357-0.584,0.878-0.662,1.564l-2.775-0.467c0.191-0.951,0.481-1.709,0.87-2.278
					c0.388-0.569,0.931-1.016,1.626-1.342c0.696-0.325,1.475-0.489,2.339-0.491c1.479-0.002,2.665,0.468,3.559,1.409
					c0.737,0.771,1.105,1.641,1.107,2.613c0.002,1.378-0.75,2.479-2.255,3.302c0.9,0.192,1.62,0.623,2.161,1.293
					c0.54,0.67,0.811,1.48,0.813,2.431c0.002,1.378-0.5,2.554-1.505,3.525c-1.005,0.974-2.258,1.461-3.758,1.463
					c-1.421,0.002-2.6-0.404-3.537-1.222C12.302,22.043,11.757,20.975,11.605,19.653z"/>
			</g>
		</g>
		
			<ellipse transform="matrix(0.4913 0.871 -0.871 0.4913 9.3312 -8.1945)" fill="#FFFFFF" cx="11.681" cy="3.891" rx="1.127" ry="2.712"/>
	</g>
</g>
</svg>
