<?xml version="1.0" encoding="utf-8"?>
<!-- Generator: Adobe Illustrator 16.0.3, SVG Export Plug-In . SVG Version: 6.00 Build 0)  -->
<!DOCTYPE svg PUBLIC "-//W3C//DTD SVG 1.1//EN" "http://www.w3.org/Graphics/SVG/1.1/DTD/svg11.dtd">
<svg version="1.1" xmlns="http://www.w3.org/2000/svg" xmlns:xlink="http://www.w3.org/1999/xlink" x="0px" y="0px"
	 width="84.015px" height="84.015px" viewBox="0 0 84.015 84.015" enable-background="new 0 0 84.015 84.015" xml:space="preserve">
<g id="圖層_1" display="none">
</g>
<g id="BG">
</g>
<g id="日期">
</g>
<g id="表格">
</g>
<g id="UI">
	<g>
		<circle fill="#1B9AAA" cx="42.008" cy="42.008" r="42.008"/>
		<g>
			<path fill="#F8FFE5" d="M65.357,52.547l-30.131,0.045l0.011,7.473c2.673-0.473,5.354-1.118,8.044-1.938l0.293,3.957
				c-4.322,1.206-8.73,2.149-13.225,2.834l-1.282-3.516c1.128-0.382,1.691-1.043,1.69-1.981l-0.011-6.822l-4.427,0.006
				c-0.514,5.071-1.914,9.308-4.2,12.713L18.6,62.017c2.129-3.509,3.192-7.192,3.186-11.048l-0.019-12.811l42.891-0.063l0.005,3.513
				l-38.151,0.057l0.003,2.24l35.678-0.053l0.005,3.047l-35.679,0.053l0.004,2.293l38.829-0.058L65.357,52.547z M62.519,35.909
				l-39.949,0.06l-0.021-14.191l11.772-0.018l-0.005-3.178l4.479-0.007l0.005,3.178l7.266-0.011l-0.005-3.178l4.531-0.007
				l0.005,3.178l11.901-0.018L62.519,35.909z M34.329,27.435l-0.003-2.369l-7.24,0.011l0.004,2.369L34.329,27.435z M34.337,32.75
				l-0.003-2.346l-7.24,0.011l0.003,2.346L34.337,32.75z M46.075,27.417l-0.004-2.369l-7.266,0.011l0.003,2.369L46.075,27.417z
				 M46.083,32.732l-0.004-2.346l-7.266,0.011l0.003,2.346L46.083,32.732z M65.474,61.453l-1.739,3.959
				c-8.978-1.027-16.327-4.394-22.047-10.098l4.216-1.567c1.669,1.524,3.589,2.858,5.762,4.001c2.342-1.115,4.753-2.49,7.233-4.124
				l3.416,2.727c-1.388,0.924-3.287,2.064-5.698,3.421C59.258,60.671,62.21,61.231,65.474,61.453z M58.027,27.4l-0.003-2.369
				l-7.422,0.011l0.003,2.369L58.027,27.4z M58.035,32.714l-0.003-2.346l-7.422,0.011l0.003,2.346L58.035,32.714z"/>
		</g>
	</g>
</g>
</svg>
