<?xml version="1.0" encoding="utf-8"?>
<!-- Generator: Adobe Illustrator 16.0.3, SVG Export Plug-In . SVG Version: 6.00 Build 0)  -->
<!DOCTYPE svg PUBLIC "-//W3C//DTD SVG 1.1//EN" "http://www.w3.org/Graphics/SVG/1.1/DTD/svg11.dtd">
<svg version="1.1" xmlns="http://www.w3.org/2000/svg" xmlns:xlink="http://www.w3.org/1999/xlink" x="0px" y="0px"
	 width="260.274px" height="85.278px" viewBox="0 0 260.274 85.278" enable-background="new 0 0 260.274 85.278"
	 xml:space="preserve">
<g id="圖層_1" display="none">
</g>
<g id="BG">
</g>
<g id="日期">
</g>
<g id="表格">
</g>
<g id="UI">
	<g>
		<path opacity="0.2" fill="#231815" d="M41.902,85.278C19.657,85.278,1.56,67.18,1.56,44.935S19.657,4.592,41.902,4.592h178.029
			c22.245,0,40.343,18.098,40.343,40.343s-18.098,40.343-40.343,40.343H41.902z"/>
		<path fill="#FFFFFF" d="M40.343,80.686C18.098,80.686,0,62.588,0,40.343S18.098,0,40.343,0h178.029
			c22.245,0,40.343,18.098,40.343,40.343s-18.098,40.343-40.343,40.343H40.343z"/>
		<path fill-rule="evenodd" clip-rule="evenodd" fill="#CFD0D8" d="M218.373,77.686H40.343C19.719,77.686,3,60.966,3,40.343l0,0
			C3,19.719,19.719,3,40.343,3h178.029c20.624,0,37.343,16.719,37.343,37.343l0,0C255.715,60.966,238.997,77.686,218.373,77.686z"/>
		<linearGradient id="SVGID_2_" gradientUnits="userSpaceOnUse" x1="129.3579" y1="67.2207" x2="129.3579" y2="5.7187">
			<stop  offset="0" style="stop-color:#004735;stop-opacity:0"/>
			<stop  offset="0.3109" style="stop-color:#014433;stop-opacity:0.0884"/>
			<stop  offset="0.5264" style="stop-color:#043B2C;stop-opacity:0.1496"/>
			<stop  offset="0.7129" style="stop-color:#092C20;stop-opacity:0.2026"/>
			<stop  offset="0.882" style="stop-color:#10160F;stop-opacity:0.2506"/>
			<stop  offset="1" style="stop-color:#160200;stop-opacity:0.2842"/>
		</linearGradient>
		<path fill-rule="evenodd" clip-rule="evenodd" fill="url(#SVGID_2_)" d="M40.343,3h178.029c20.624,0,37.343,16.719,37.343,37.343
			l0,0c0,20.624-16.719,37.343-37.343,37.343H40.343C19.719,77.686,3,60.966,3,40.343l0,0C3,19.719,19.719,3,40.343,3z"/>
		
			<linearGradient id="SVGID_3_" gradientUnits="userSpaceOnUse" x1="11940.8574" y1="4210.9688" x2="12184.3877" y2="4210.9688" gradientTransform="matrix(-1 0 0 -1 12187.3887 4246.7188)">
			<stop  offset="0" style="stop-color:#004735;stop-opacity:0"/>
			<stop  offset="0.3109" style="stop-color:#014433;stop-opacity:0.0884"/>
			<stop  offset="0.5264" style="stop-color:#043B2C;stop-opacity:0.1496"/>
			<stop  offset="0.7129" style="stop-color:#092C20;stop-opacity:0.2026"/>
			<stop  offset="0.882" style="stop-color:#10160F;stop-opacity:0.2506"/>
			<stop  offset="1" style="stop-color:#160200;stop-opacity:0.2842"/>
		</linearGradient>
		<path fill="url(#SVGID_3_)" d="M15.831,68.501c-5.715-6.56-9.184-15.128-9.184-24.512l0,0c0-20.624,16.719-37.343,37.343-37.343
			h178.029c9.384,0,17.952,3.469,24.512,9.185C239.685,7.973,229.613,3,218.373,3H40.343C19.719,3,3,19.719,3,40.343l0,0
			C3,51.583,7.973,61.655,15.831,68.501z"/>
		<g>
			<g>
				<g>
					<path fill="#FFFFFF" d="M61.519,25.953H41.806v-3.748h7.82c-0.509-1.327-1.096-2.607-1.759-3.841l4.419-0.811
						c0.726,1.281,1.419,2.831,2.083,4.651h7.149V25.953z M59.297,33.01H43.518v-3.795h15.779V33.01z M59.297,39.835H43.518v-3.748
						h15.779V39.835z M59.39,58.646h-4.118v-2.384h-7.357v2.985H43.75V42.958H59.39V58.646z M55.272,52.49v-5.645h-7.357v5.645
						H55.272z M83.174,35.138h-8.63v24.109h-4.304V35.138h-8.444v-4.164h8.444V17.947h4.304v13.026h8.63V35.138z"/>
					<path fill="#FFFFFF" d="M112.75,49.021h-5.737c-1.127,1.681-2.121,2.977-2.985,3.887c2.53,1.018,4.712,1.982,6.548,2.892
						l-2.337,3.031c-3.162-1.466-5.606-2.521-7.334-3.17c-4.227,2.113-8.176,3.455-11.846,4.026l-1.666-3.563
						c3.315-0.416,6.208-1.142,8.676-2.175c-2.422-0.879-4.458-1.496-6.108-1.851c1.496-1.604,2.406-2.63,2.73-3.077h-4.928v-3.217
						h7.496l1.759-2.707h-7.196v-7.819h8.283v-2.222h-8.398v-5.159h-2.129v-3.031h2.129v-5.09h8.398v-1.828h3.934v1.828h8.283v5.09
						h2.336v3.031h-2.336v5.159h-8.283v2.222h8.375v7.819h-8.653l-1.712,2.707h4.304c0.231-0.385,0.486-0.925,0.764-1.619
						l3.655,0.856c0,0.231-0.085,0.485-0.254,0.763h4.233V49.021z M98.105,24.865V22.76H93.5v2.105H98.105z M98.105,30.164v-2.268
						H93.5v2.268H98.105z M98.105,40.066v-1.852H93.64v1.852H98.105z M102.409,49.021h-4.674c-0.062,0.107-0.432,0.578-1.11,1.411
						l3.655,1.11C101.159,50.663,101.869,49.822,102.409,49.021z M106.481,24.865V22.76h-4.442v2.105H106.481z M106.481,30.117
						v-2.221h-4.442v2.221H106.481z M106.643,40.066v-1.852h-4.604v1.852H106.643z M129.479,56.123l-2.083,3.517
						c-3.27-2.468-5.591-4.789-6.964-6.964c-1.913,2.653-4.08,4.943-6.501,6.872l-2.754-3.124c2.977-2.406,5.268-4.905,6.872-7.496
						c-1.559-2.761-2.738-5.923-3.54-9.486l3.633-1.989c0.662,2.899,1.326,5.098,1.989,6.594c1.172-3.856,1.851-9.023,2.036-15.502
						h-3.494c-1.48,4.381-2.953,7.728-4.419,10.042l-2.729-3.401c2.545-4.767,4.372-10.628,5.483-17.584l4.025,0.578
						c-0.2,1.357-0.625,3.502-1.272,6.432h9.047v3.934h-2.615c-0.339,8.653-1.534,15.433-3.586,20.338
						C124.473,51.75,126.764,54.164,129.479,56.123z"/>
					<path fill="#FFFFFF" d="M169.698,59.154h-4.396v-3.17h-22.419v3.17h-4.512V19.081h31.327V59.154z M165.301,34.86V23.153
						h-22.419V34.86H165.301z M165.301,51.866V38.933h-22.419v12.934H165.301z"/>
					<path fill="#FFFFFF" d="M189.604,50.64c-2.36,3.595-4.921,6.578-7.682,8.954l-3.216-2.8c2.698-2.175,5.159-4.89,7.38-8.144
						L189.604,50.64z M201.774,47.563h-22.883v-3.748h3.934V26.462h-3.17v-3.748h3.17v-4.882h4.072v4.882h7.148v-4.882h4.142v4.882
						h3.309v3.748h-3.309v17.353h3.587V47.563z M194.045,29.794v-3.332h-7.148v3.332H194.045z M194.045,36.711v-3.285h-7.148v3.285
						H194.045z M194.045,43.814v-3.471h-7.148v3.471H194.045z M199.368,54.526l-3.17,2.406c-1.42-2.298-2.954-4.318-4.604-6.062
						l3.123-2.313C196.259,50.054,197.809,52.044,199.368,54.526z M218.895,53.764c0,3.655-1.712,5.483-5.137,5.483
						c-0.864,0-1.982-0.031-3.354-0.093l-1.411-4.072c1.125,0.046,2.013,0.069,2.66,0.069c1.435,0,2.321-0.135,2.661-0.405
						c0.339-0.27,0.509-0.689,0.509-1.261v-8.398h-7.496c-0.386,5.677-2.028,10.573-4.929,14.692l-3.655-2.314
						c3.224-4.133,4.836-10.357,4.836-18.671V18.688h15.316V53.764z M214.823,29.446v-6.732h-7.126v6.732H214.823z M214.823,41.015
						v-7.403h-7.126v7.403H214.823z"/>
				</g>
			</g>
		</g>
	</g>
</g>
</svg>
