<?xml version="1.0" encoding="utf-8"?>
<!-- Generator: Adobe Illustrator 16.0.3, SVG Export Plug-In . SVG Version: 6.00 Build 0)  -->
<!DOCTYPE svg PUBLIC "-//W3C//DTD SVG 1.1//EN" "http://www.w3.org/Graphics/SVG/1.1/DTD/svg11.dtd">
<svg version="1.1" xmlns="http://www.w3.org/2000/svg" xmlns:xlink="http://www.w3.org/1999/xlink" x="0px" y="0px"
	 width="52.403px" height="52.403px" viewBox="0 0 52.403 52.403" enable-background="new 0 0 52.403 52.403" xml:space="preserve">
<g id="圖層_1" display="none">
</g>
<g id="BG">
</g>
<g id="日期">
</g>
<g id="表格">
</g>
<g id="UI">
	<g>
		<circle fill-rule="evenodd" clip-rule="evenodd" fill="#CFD0D8" cx="26.201" cy="26.201" r="26.201"/>
		<g>
			<path fill-rule="evenodd" clip-rule="evenodd" fill="#FFFFFF" d="M35.143,42.875c-5.956,0-11.912,0-17.869,0
				c-0.019-0.013-0.035-0.035-0.056-0.039c-1.683-0.433-2.496-1.404-2.64-3.105c-0.229-2.688-0.474-5.374-0.716-8.062
				c-0.294-3.282-0.593-6.568-0.89-9.852c-0.059-0.64-0.122-1.279-0.186-1.936c-0.369,0-0.702,0.002-1.036-0.001
				c-0.694-0.007-1.12-0.43-1.125-1.122c-0.004-0.681-0.022-1.363,0.003-2.042c0.082-2.155,1.102-3.713,3.03-4.669
				c0.681-0.337,1.415-0.479,2.176-0.478c1.023,0,2.047,0,3.103,0c0-0.388-0.013-0.745,0.003-1.098
				C19,9.241,19.568,8.319,20.667,7.755c0.301-0.156,0.645-0.229,0.971-0.34c3.047,0,6.095,0,9.142,0
				c0.022,0.011,0.038,0.029,0.06,0.034c1.806,0.459,2.642,1.534,2.642,3.404c0,0.236,0,0.472,0,0.718
				c1.105,0,2.154-0.009,3.203,0.002c2.38,0.025,4.51,1.71,4.949,4.051c0.192,1.018,0.127,2.087,0.153,3.135
				c0.016,0.692-0.428,1.115-1.121,1.122c-0.34,0.003-0.681,0.001-1.03,0.001c-0.021,0.158-0.039,0.271-0.051,0.386
				c-0.216,2.421-0.429,4.845-0.647,7.269c-0.366,4.075-0.74,8.152-1.101,12.229c-0.118,1.343-0.709,2.342-1.975,2.881
				C35.632,42.749,35.383,42.801,35.143,42.875z M14.892,19.9c0.015,0.234,0.024,0.452,0.044,0.668
				c0.291,3.195,0.585,6.387,0.875,9.582c0.287,3.183,0.567,6.364,0.855,9.548c0.067,0.744,0.455,1.097,1.197,1.097
				c5.562,0.002,11.125,0.002,16.691,0c0.728,0,1.117-0.342,1.195-1.062c0.06-0.56,0.102-1.124,0.152-1.688
				c0.239-2.677,0.476-5.354,0.719-8.032c0.265-2.942,0.538-5.882,0.803-8.823c0.04-0.43,0.069-0.86,0.103-1.292
				C29.955,19.9,22.434,19.9,14.892,19.9z M12.661,17.781c9.068,0,18.048,0,27.053,0c0-0.284,0-0.55,0-0.812
				c-0.001-2.002-1.314-3.32-3.31-3.321c-3.624-0.002-7.246,0-10.868,0c-3.219,0-6.437-0.003-9.656,0.001
				c-1.494,0.002-2.753,0.946-3.069,2.357C12.684,16.571,12.707,17.17,12.661,17.781z M31.404,11.556c0-0.151,0-0.275,0-0.399
				c-0.002-0.243,0.013-0.485-0.01-0.726c-0.05-0.53-0.479-0.933-1.025-0.935c-2.779-0.006-5.558-0.006-8.337,0.001
				c-0.512,0.002-0.948,0.383-1,0.882c-0.038,0.384-0.008,0.774-0.008,1.177C24.485,11.556,27.919,11.556,31.404,11.556z"/>
			<path fill-rule="evenodd" clip-rule="evenodd" fill="#FFFFFF" d="M21.541,30.389c0.103,2.386,0.211,4.773,0.311,7.159
				c0.027,0.665-0.375,1.137-0.966,1.169c-0.599,0.033-1.074-0.415-1.106-1.08c-0.123-2.651-0.24-5.304-0.357-7.956
				c-0.098-2.191-0.2-4.381-0.285-6.572c-0.034-0.867,0.746-1.405,1.48-1.038c0.404,0.2,0.574,0.549,0.594,0.983
				c0.073,1.672,0.146,3.345,0.219,5.018c0.034,0.771,0.069,1.543,0.105,2.316C21.538,30.389,21.539,30.389,21.541,30.389z"/>
			<path fill-rule="evenodd" clip-rule="evenodd" fill="#FFFFFF" d="M32.964,30.275c-0.105,2.353-0.21,4.706-0.316,7.058
				c-0.009,0.182-0.013,0.369-0.05,0.549c-0.108,0.533-0.586,0.884-1.108,0.832c-0.525-0.05-0.935-0.485-0.925-1.031
				c0.014-0.784,0.052-1.567,0.088-2.353c0.181-4.081,0.366-8.162,0.552-12.243c0.027-0.623,0.381-1.049,0.923-1.122
				c0.474-0.063,0.955,0.237,1.102,0.708c0.043,0.141,0.056,0.296,0.05,0.443c-0.102,2.386-0.207,4.774-0.312,7.159
				C32.967,30.275,32.965,30.275,32.964,30.275z"/>
			<path fill-rule="evenodd" clip-rule="evenodd" fill="#FFFFFF" d="M27.248,30.358c0,2.41,0.002,4.819-0.002,7.231
				c-0.001,0.819-0.708,1.341-1.417,1.051c-0.398-0.163-0.614-0.472-0.656-0.9c-0.01-0.101-0.002-0.206-0.002-0.31
				c0-4.729,0-9.458,0-14.186c0-0.15-0.008-0.303,0.021-0.449c0.104-0.51,0.572-0.867,1.078-0.836
				c0.523,0.034,0.94,0.454,0.974,0.993c0.007,0.103,0.004,0.207,0.004,0.312C27.248,25.628,27.248,27.993,27.248,30.358z"/>
		</g>
	</g>
</g>
</svg>
