<?xml version="1.0" encoding="utf-8"?>
<!-- Generator: Adobe Illustrator 16.0.0, SVG Export Plug-In . SVG Version: 6.00 Build 0)  -->
<!DOCTYPE svg PUBLIC "-//W3C//DTD SVG 1.1//EN" "http://www.w3.org/Graphics/SVG/1.1/DTD/svg11.dtd">
<svg version="1.1" id="圖層_1" xmlns="http://www.w3.org/2000/svg" xmlns:xlink="http://www.w3.org/1999/xlink" x="0px" y="0px"
	 width="105px" height="104.997px" viewBox="-7 -7 105 104.997" enable-background="new -7 -7 105 104.997" xml:space="preserve">
<g id="BG">
</g>
<g id="UI">
</g>
<g id="選單">
</g>
<g id="_x24_">
	<g>
		<g>
			<g>
				<circle fill="#FF9933" cx="45.5" cy="45.499" r="34.635"/>
				<circle fill="#E07117" cx="45.5" cy="45.498" r="27.079"/>
				<path fill="#CC6633" d="M19.836,46.363c0-14.477,11.735-26.215,26.214-26.215c14.478,0,26.215,11.738,26.215,26.215
					c0,3.938-0.875,7.67-2.43,11.019c1.756-3.586,2.743-7.619,2.743-11.884c0-14.953-12.125-27.076-27.079-27.076
					c-14.956,0-27.079,12.123-27.079,27.076c0,14.956,12.123,27.079,27.079,27.079c0.091,0,0.183-0.005,0.274-0.007
					C31.423,72.425,19.836,60.748,19.836,46.363z"/>
			</g>
		</g>
		<g>
			<g>
				<g>
					<path fill="#CC6633" d="M51.809,27.677v35.488h-9.806V39.91c-1.587,1.206-3.122,2.184-4.604,2.93
						c-1.484,0.745-3.347,1.46-5.582,2.142v-7.95c3.301-1.063,5.862-2.34,7.688-3.832c1.824-1.49,3.252-3.332,4.283-5.521
						L51.809,27.677L51.809,27.677z"/>
				</g>
			</g>
			<g>
				<g>
					<path fill="#FFA142" d="M50.74,27.677v33.591h-9.282V39.257c-1.502,1.142-2.955,2.064-4.359,2.771
						c-1.403,0.707-3.166,1.382-5.282,2.028v-7.525c3.124-1.006,5.55-2.215,7.276-3.627c1.728-1.412,3.078-3.153,4.056-5.226
						L50.74,27.677L50.74,27.677z"/>
				</g>
			</g>
		</g>
	</g>
</g>
<rect x="-7" y="-7.001" fill="none" width="105" height="105"/>
</svg>
