<?xml version="1.0" encoding="utf-8"?>
<!-- Generator: Adobe Illustrator 16.0.3, SVG Export Plug-In . SVG Version: 6.00 Build 0)  -->
<!DOCTYPE svg PUBLIC "-//W3C//DTD SVG 1.1//EN" "http://www.w3.org/Graphics/SVG/1.1/DTD/svg11.dtd">
<svg version="1.1" xmlns="http://www.w3.org/2000/svg" xmlns:xlink="http://www.w3.org/1999/xlink" x="0px" y="0px"
	 width="163.665px" height="73.543px" viewBox="0 0 163.665 73.543" enable-background="new 0 0 163.665 73.543"
	 xml:space="preserve">
<g id="BG">
</g>
<g id="UI">
</g>
<g id="_x24_">
	<g>
		<g>
			<g>
				<rect fill="#2C8EC7" width="163.665" height="73.543"/>
			</g>
			<g>
				<path fill="#89ECF5" d="M143.587,68.844H18.577c0.051-0.38,0.08-0.77,0.08-1.158c0-5.921-5.899-10.717-13.168-10.717V15.354
					c0.466,0.04,0.943,0.063,1.421,0.063c7.273,0,13.167-4.802,13.167-10.718h125.01c-0.051,0.381-0.08,0.77-0.08,1.157
					c0,5.921,5.899,10.717,13.169,10.717v41.617c-0.466-0.04-0.944-0.063-1.422-0.063C149.48,58.126,143.587,62.928,143.587,68.844z
					"/>
			</g>
		</g>
		<g>
			<path fill="#2C8EC7" d="M45.785,19.693v33.592h-9.282V31.273c-1.502,1.143-2.955,2.066-4.359,2.771
				c-1.404,0.707-3.166,1.383-5.283,2.027v-7.525c3.124-1.006,5.55-2.215,7.277-3.627c1.727-1.412,3.078-3.154,4.055-5.227H45.785z"
				/>
			<path fill="#2C8EC7" d="M50.875,36.637c0-6.279,1.13-10.672,3.391-13.182c2.261-2.508,5.704-3.762,10.33-3.762
				c2.223,0,4.048,0.273,5.475,0.822s2.591,1.262,3.492,2.141s1.611,1.803,2.129,2.771c0.519,0.969,0.936,2.1,1.251,3.391
				c0.615,2.463,0.924,5.031,0.924,7.705c0,5.992-1.015,10.379-3.042,13.158c-2.027,2.777-5.52,4.168-10.477,4.168
				c-2.778,0-5.024-0.443-6.736-1.33s-3.117-2.186-4.213-3.898c-0.797-1.215-1.416-2.879-1.858-4.99
				C51.097,41.521,50.875,39.189,50.875,36.637z M59.977,36.658c0,4.205,0.372,7.078,1.115,8.617
				c0.744,1.541,1.821,2.311,3.233,2.311c0.932,0,1.738-0.326,2.422-0.98s1.187-1.686,1.51-3.098s0.484-3.613,0.484-6.602
				c0-4.385-0.372-7.334-1.115-8.844c-0.743-1.508-1.858-2.264-3.346-2.264c-1.518,0-2.613,0.77-3.289,2.311
				C60.315,29.648,59.977,32.498,59.977,36.658z"/>
			<path fill="#2C8EC7" d="M79.344,36.637c0-6.279,1.13-10.672,3.391-13.182c2.261-2.508,5.704-3.762,10.33-3.762
				c2.223,0,4.048,0.273,5.475,0.822s2.591,1.262,3.492,2.141s1.611,1.803,2.129,2.771c0.519,0.969,0.936,2.1,1.251,3.391
				c0.615,2.463,0.924,5.031,0.924,7.705c0,5.992-1.015,10.379-3.042,13.158c-2.027,2.777-5.52,4.168-10.477,4.168
				c-2.778,0-5.024-0.443-6.736-1.33s-3.117-2.186-4.213-3.898c-0.797-1.215-1.416-2.879-1.858-4.99
				C79.565,41.521,79.344,39.189,79.344,36.637z M88.445,36.658c0,4.205,0.372,7.078,1.115,8.617
				c0.744,1.541,1.821,2.311,3.233,2.311c0.932,0,1.738-0.326,2.422-0.98s1.187-1.686,1.51-3.098s0.484-3.613,0.484-6.602
				c0-4.385-0.372-7.334-1.115-8.844c-0.743-1.508-1.858-2.264-3.346-2.264c-1.518,0-2.613,0.77-3.289,2.311
				C88.784,29.648,88.445,32.498,88.445,36.658z"/>
			<path fill="#2C8EC7" d="M107.813,36.637c0-6.279,1.13-10.672,3.391-13.182c2.261-2.508,5.704-3.762,10.33-3.762
				c2.223,0,4.048,0.273,5.475,0.822s2.591,1.262,3.492,2.141s1.611,1.803,2.129,2.771c0.519,0.969,0.936,2.1,1.251,3.391
				c0.615,2.463,0.924,5.031,0.924,7.705c0,5.992-1.015,10.379-3.042,13.158c-2.027,2.777-5.52,4.168-10.477,4.168
				c-2.778,0-5.024-0.443-6.736-1.33s-3.117-2.186-4.213-3.898c-0.797-1.215-1.416-2.879-1.858-4.99
				C108.034,41.521,107.813,39.189,107.813,36.637z M116.914,36.658c0,4.205,0.372,7.078,1.115,8.617
				c0.744,1.541,1.821,2.311,3.233,2.311c0.932,0,1.738-0.326,2.422-0.98s1.187-1.686,1.51-3.098s0.484-3.613,0.484-6.602
				c0-4.385-0.372-7.334-1.115-8.844c-0.743-1.508-1.858-2.264-3.346-2.264c-1.518,0-2.613,0.77-3.289,2.311
				C117.253,29.648,116.914,32.498,116.914,36.658z"/>
		</g>
	</g>
</g>
<g id="選單">
</g>
</svg>
