<?xml version="1.0" encoding="utf-8"?>
<!-- Generator: Adobe Illustrator 16.0.3, SVG Export Plug-In . SVG Version: 6.00 Build 0)  -->
<!DOCTYPE svg PUBLIC "-//W3C//DTD SVG 1.1//EN" "http://www.w3.org/Graphics/SVG/1.1/DTD/svg11.dtd">
<svg version="1.1" xmlns="http://www.w3.org/2000/svg" xmlns:xlink="http://www.w3.org/1999/xlink" x="0px" y="0px"
	 width="93.437px" height="93.438px" viewBox="0 0 93.437 93.438" enable-background="new 0 0 93.437 93.438" xml:space="preserve">
<g id="BG">
</g>
<g id="UI">
</g>
<g id="_x24_">
	<g>
		<g>
			<g>
				<circle fill="#FFDB03" cx="46.718" cy="46.72" r="46.718"/>
				<circle fill="#F5B400" cx="46.719" cy="46.72" r="36.527"/>
				<path fill="#EA9C00" d="M12.1,47.885c0-19.53,15.831-35.359,35.36-35.359c19.529,0,35.36,15.829,35.36,35.359
					c0,5.312-1.178,10.346-3.276,14.864c2.369-4.842,3.702-10.277,3.702-16.031c0-20.172-16.354-36.526-36.528-36.526
					c-20.172,0-36.526,16.354-36.526,36.526c0,20.174,16.354,36.528,36.526,36.528c0.125,0,0.247-0.008,0.371-0.01
					C27.731,83.037,12.1,67.29,12.1,47.885z"/>
			</g>
		</g>
		<g>
			<path fill="#EA9C00" d="M24.172,31.722h20.433v6.885h-13.84l-0.74,4.66c0.958-0.452,1.905-0.791,2.842-1.018
				c0.937-0.226,1.863-0.339,2.779-0.339c3.099,0,5.614,0.94,7.543,2.819c1.93,1.878,2.896,4.243,2.896,7.096
				c0,2.005-0.497,3.933-1.49,5.782c-0.993,1.852-2.401,3.263-4.226,4.237s-4.159,1.461-7.005,1.461
				c-2.042,0-3.793-0.194-5.25-0.582c-1.458-0.389-2.698-0.968-3.719-1.736c-1.021-0.771-1.849-1.643-2.483-2.618
				c-0.633-0.973-1.162-2.188-1.584-3.643l8.705-0.954c0.212,1.399,0.705,2.462,1.479,3.188c0.774,0.728,1.697,1.092,2.768,1.092
				c1.197,0,2.187-0.456,2.968-1.367c0.782-0.91,1.173-2.27,1.173-4.077c0-1.851-0.395-3.206-1.183-4.066
				c-0.79-0.861-1.838-1.294-3.149-1.294c-0.831,0-1.634,0.206-2.409,0.615c-0.577,0.296-1.212,0.834-1.901,1.61l-7.333-1.059
				L24.172,31.722z"/>
			<path fill="#EA9C00" d="M49.463,47.122c0-5.902,1.06-10.035,3.18-12.393s5.35-3.537,9.688-3.537c2.084,0,3.796,0.258,5.134,0.773
				c1.338,0.514,2.43,1.187,3.275,2.011c0.845,0.826,1.511,1.695,1.997,2.606c0.486,0.91,0.877,1.974,1.173,3.188
				c0.577,2.317,0.867,4.732,0.867,7.245c0,5.635-0.952,9.758-2.854,12.371s-5.177,3.919-9.825,3.919
				c-2.606,0-4.713-0.416-6.318-1.249s-2.923-2.055-3.951-3.665c-0.748-1.144-1.328-2.709-1.743-4.691
				C49.67,51.717,49.463,49.523,49.463,47.122z M57.999,47.144c0,3.954,0.349,6.655,1.046,8.103
				c0.698,1.447,1.708,2.171,3.033,2.171c0.874,0,1.63-0.308,2.271-0.92c0.641-0.615,1.113-1.587,1.416-2.915
				c0.303-1.325,0.454-3.396,0.454-6.205c0-4.124-0.349-6.896-1.046-8.315c-0.697-1.42-1.743-2.128-3.138-2.128
				c-1.423,0-2.451,0.724-3.085,2.17C58.316,40.551,57.999,43.232,57.999,47.144z"/>
		</g>
		<g>
			<g>
				<path fill="#FFDB03" d="M24.054,31.704h19.807v6.657H30.445l-0.717,4.507c0.929-0.437,1.847-0.766,2.755-0.983
					c0.909-0.219,1.806-0.329,2.694-0.329c3.004,0,5.442,0.909,7.313,2.726c1.871,1.817,2.807,4.104,2.807,6.861
					c0,1.939-0.481,3.804-1.444,5.592c-0.962,1.79-2.328,3.156-4.097,4.097c-1.769,0.943-4.032,1.414-6.791,1.414
					c-1.98,0-3.677-0.188-5.09-0.563c-1.414-0.376-2.615-0.936-3.604-1.68c-0.99-0.744-1.792-1.587-2.407-2.53
					c-0.614-0.941-1.126-2.116-1.536-3.523l8.439-0.921c0.205,1.353,0.683,2.379,1.434,3.082c0.75,0.703,1.645,1.056,2.683,1.056
					c1.16,0,2.12-0.441,2.877-1.321c0.758-0.881,1.137-2.195,1.137-3.942c0-1.79-0.382-3.101-1.147-3.934
					c-0.766-0.833-1.782-1.25-3.053-1.25c-0.805,0-1.584,0.199-2.335,0.595c-0.559,0.286-1.175,0.807-1.843,1.558l-7.108-1.024
					L24.054,31.704z"/>
				<path fill="#FFDB03" d="M48.571,46.596c0-5.708,1.027-9.703,3.083-11.983c2.056-2.279,5.186-3.42,9.392-3.42
					c2.021,0,3.68,0.249,4.978,0.748c1.297,0.497,2.355,1.146,3.175,1.944c0.819,0.799,1.465,1.639,1.936,2.52
					c0.472,0.881,0.851,1.909,1.137,3.083c0.56,2.24,0.84,4.576,0.84,7.005c0,5.45-0.922,9.437-2.766,11.963
					c-1.843,2.527-5.018,3.79-9.525,3.79c-2.526,0-4.568-0.403-6.125-1.208c-1.557-0.806-2.834-1.986-3.83-3.544
					c-0.725-1.106-1.288-2.619-1.69-4.537C48.772,51.038,48.571,48.918,48.571,46.596z M56.846,46.616
					c0,3.823,0.338,6.436,1.014,7.835c0.676,1.399,1.656,2.099,2.939,2.099c0.847,0,1.581-0.296,2.202-0.89
					c0.622-0.595,1.079-1.534,1.373-2.817c0.294-1.282,0.44-3.284,0.44-6.001c0-3.988-0.338-6.668-1.014-8.04
					c-0.675-1.373-1.689-2.059-3.042-2.059c-1.38,0-2.376,0.7-2.991,2.1C57.154,40.242,56.846,42.834,56.846,46.616z"/>
			</g>
		</g>
	</g>
</g>
<g id="選單">
</g>
</svg>
