<?xml version="1.0" encoding="utf-8"?>
<!-- Generator: Adobe Illustrator 16.0.3, SVG Export Plug-In . SVG Version: 6.00 Build 0)  -->
<!DOCTYPE svg PUBLIC "-//W3C//DTD SVG 1.1//EN" "http://www.w3.org/Graphics/SVG/1.1/DTD/svg11.dtd">
<svg version="1.1" xmlns="http://www.w3.org/2000/svg" xmlns:xlink="http://www.w3.org/1999/xlink" x="0px" y="0px"
	 width="163.665px" height="73.543px" viewBox="0 0 163.665 73.543" enable-background="new 0 0 163.665 73.543"
	 xml:space="preserve">
<g id="BG">
</g>
<g id="UI">
</g>
<g id="_x24_">
	<g>
		<g>
			<g>
				<rect fill="#FF8521" width="163.665" height="73.543"/>
			</g>
			<g>
				<path fill="#FFE570" d="M143.587,68.844H18.577c0.051-0.38,0.08-0.77,0.08-1.158c0-5.921-5.899-10.717-13.168-10.717V15.354
					c0.466,0.04,0.943,0.063,1.421,0.063c7.273,0,13.167-4.802,13.167-10.718h125.01c-0.051,0.381-0.08,0.77-0.08,1.157
					c0,5.921,5.899,10.717,13.169,10.717v41.617c-0.466-0.04-0.944-0.063-1.422-0.063C149.48,58.126,143.587,62.928,143.587,68.844z
					"/>
			</g>
		</g>
		<g>
			<path fill="#FF8521" d="M42.777,20.257h21.786v7.322H49.807l-0.789,4.957c1.021-0.48,2.031-0.842,3.03-1.082
				s1.986-0.361,2.963-0.361c3.304,0,5.985,1,8.043,2.998s3.087,4.514,3.087,7.547c0,2.133-0.529,4.184-1.589,6.15
				c-1.059,1.969-2.561,3.471-4.506,4.506c-1.945,1.037-4.435,1.555-7.469,1.555c-2.178,0-4.044-0.207-5.599-0.619
				c-1.555-0.414-2.876-1.029-3.965-1.848s-1.972-1.746-2.647-2.783c-0.676-1.035-1.239-2.328-1.689-3.875l9.282-1.014
				c0.226,1.488,0.751,2.617,1.577,3.391c0.825,0.773,1.81,1.16,2.951,1.16c1.276,0,2.332-0.484,3.165-1.453
				c0.834-0.969,1.251-2.414,1.251-4.336c0-1.969-0.421-3.41-1.262-4.326c-0.842-0.916-1.96-1.375-3.357-1.375
				c-0.886,0-1.742,0.219-2.568,0.654c-0.615,0.314-1.292,0.887-2.027,1.713l-7.819-1.127L42.777,20.257z"/>
			<path fill="#FF8521" d="M68.455,36.636c0-6.277,1.13-10.672,3.391-13.18s5.704-3.762,10.33-3.762
				c2.223,0,4.048,0.273,5.475,0.822c1.427,0.547,2.591,1.262,3.492,2.139c0.901,0.879,1.611,1.803,2.129,2.771
				c0.519,0.969,0.936,2.1,1.251,3.391c0.615,2.465,0.924,5.033,0.924,7.705c0,5.994-1.015,10.379-3.042,13.158
				s-5.52,4.168-10.477,4.168c-2.778,0-5.024-0.443-6.736-1.328c-1.712-0.887-3.117-2.186-4.213-3.898
				c-0.797-1.217-1.416-2.881-1.859-4.99S68.455,39.19,68.455,36.636z M77.557,36.659c0,4.205,0.372,7.078,1.115,8.617
				c0.744,1.539,1.821,2.309,3.233,2.309c0.932,0,1.738-0.326,2.422-0.979c0.684-0.654,1.187-1.688,1.51-3.1
				c0.323-1.41,0.484-3.611,0.484-6.6c0-4.387-0.372-7.334-1.115-8.844S83.348,25.8,81.86,25.8c-1.518,0-2.613,0.77-3.289,2.309
				S77.557,32.499,77.557,36.659z"/>
			<path fill="#FF8521" d="M97.997,36.636c0-6.277,1.13-10.672,3.391-13.18s5.704-3.762,10.33-3.762
				c2.223,0,4.048,0.273,5.475,0.822c1.427,0.547,2.591,1.262,3.492,2.139c0.901,0.879,1.611,1.803,2.129,2.771
				c0.519,0.969,0.936,2.1,1.251,3.391c0.615,2.465,0.924,5.033,0.924,7.705c0,5.994-1.015,10.379-3.042,13.158
				s-5.52,4.168-10.477,4.168c-2.778,0-5.024-0.443-6.736-1.328c-1.712-0.887-3.117-2.186-4.213-3.898
				c-0.797-1.217-1.416-2.881-1.859-4.99S97.997,39.19,97.997,36.636z M107.099,36.659c0,4.205,0.372,7.078,1.115,8.617
				c0.744,1.539,1.821,2.309,3.233,2.309c0.932,0,1.738-0.326,2.422-0.979c0.684-0.654,1.187-1.688,1.51-3.1
				c0.323-1.41,0.484-3.611,0.484-6.6c0-4.387-0.372-7.334-1.115-8.844s-1.858-2.264-3.346-2.264c-1.518,0-2.613,0.77-3.289,2.309
				S107.099,32.499,107.099,36.659z"/>
		</g>
	</g>
</g>
<g id="選單">
</g>
</svg>
