<?xml version="1.0" encoding="utf-8"?>
<!-- Generator: Adobe Illustrator 16.0.0, SVG Export Plug-In . SVG Version: 6.00 Build 0)  -->
<!DOCTYPE svg PUBLIC "-//W3C//DTD SVG 1.1//EN" "http://www.w3.org/Graphics/SVG/1.1/DTD/svg11.dtd">
<svg version="1.1" id="圖層_1" xmlns="http://www.w3.org/2000/svg" xmlns:xlink="http://www.w3.org/1999/xlink" x="0px" y="0px"
	 width="323.667px" height="900px" viewBox="0 68.968 323.667 900" enable-background="new 0 68.968 323.667 900"
	 xml:space="preserve">
<g id="BG">
</g>
<g id="_x24_">
	<rect x="-1.959" y="197.343" fill="#FFFFFF" width="326.615" height="132.063"/>
	<rect x="-1.959" y="68.968" fill="#FFFFFF" width="326.615" height="132.062"/>
	<g>
		<g>
			
				<line fill="none" stroke="#9FA0A0" stroke-width="4" stroke-miterlimit="10" x1="-1.959" y1="199.285" x2="324.656" y2="199.285"/>
			
				<line fill="none" stroke="#F7F8F8" stroke-width="2" stroke-miterlimit="10" x1="-1.959" y1="199.647" x2="324.656" y2="199.647"/>
		</g>
	</g>
	<g>
		<line fill="none" stroke="#9FA0A0" stroke-width="4" stroke-miterlimit="10" x1="-1.959" y1="70.489" x2="324.657" y2="70.489"/>
		<line fill="none" stroke="#F7F8F8" stroke-width="2" stroke-miterlimit="10" x1="-1.959" y1="70.103" x2="324.008" y2="70.103"/>
	</g>
	<g>
		<g>
			
				<line fill="none" stroke="#9FA0A0" stroke-width="4" stroke-miterlimit="10" x1="-1.959" y1="327.661" x2="324.656" y2="327.661"/>
			
				<line fill="none" stroke="#F7F8F8" stroke-width="2" stroke-miterlimit="10" x1="-1.959" y1="328.023" x2="324.656" y2="328.023"/>
		</g>
	</g>
	<rect x="-1.959" y="326.008" fill="#FFFFFF" width="326.615" height="132.062"/>
	<g>
		
			<line fill="none" stroke="#9FA0A0" stroke-width="4" stroke-miterlimit="10" x1="-1.959" y1="327.528" x2="324.657" y2="327.528"/>
		
			<line fill="none" stroke="#F7F8F8" stroke-width="2" stroke-miterlimit="10" x1="-1.959" y1="327.143" x2="324.008" y2="327.143"/>
	</g>
	<rect x="-1.626" y="840.376" fill="#FFFFFF" width="326.615" height="128.592"/>
	<rect x="-1.626" y="583.048" fill="#FFFFFF" width="326.615" height="132.061"/>
	<rect x="-1.626" y="454.672" fill="#FFFFFF" width="326.615" height="132.062"/>
	<g>
		<g>
			
				<line fill="none" stroke="#9FA0A0" stroke-width="4" stroke-miterlimit="10" x1="-1.626" y1="713.365" x2="324.989" y2="713.365"/>
			
				<line fill="none" stroke="#F7F8F8" stroke-width="2" stroke-miterlimit="10" x1="-1.626" y1="713.726" x2="324.989" y2="713.726"/>
		</g>
	</g>
	<rect x="-1.626" y="711.712" fill="#FFFFFF" width="326.615" height="132.062"/>
	<g>
		<g>
			<line fill="none" stroke="#9FA0A0" stroke-width="4" stroke-miterlimit="10" x1="-1.626" y1="455.82" x2="324.99" y2="455.82"/>
			<line fill="none" stroke="#F7F8F8" stroke-width="2" stroke-miterlimit="10" x1="-1.626" y1="456.18" x2="324.99" y2="456.18"/>
		</g>
	</g>
	<g>
		<g>
			<line fill="none" stroke="#9FA0A0" stroke-width="4" stroke-miterlimit="10" x1="-1.626" y1="712.86" x2="324.99" y2="712.86"/>
			<line fill="none" stroke="#F7F8F8" stroke-width="2" stroke-miterlimit="10" x1="-1.626" y1="713.22" x2="324.99" y2="713.22"/>
		</g>
	</g>
	<g>
		<line fill="none" stroke="#9FA0A0" stroke-width="4" stroke-miterlimit="10" x1="-1.626" y1="842.402" x2="324.99" y2="842.402"/>
		
			<line fill="none" stroke="#F7F8F8" stroke-width="2" stroke-miterlimit="10" x1="-1.626" y1="842.017" x2="324.342" y2="842.017"/>
	</g>
	<g>
		<line fill="none" stroke="#9FA0A0" stroke-width="4" stroke-miterlimit="10" x1="-1.626" y1="585.363" x2="324.99" y2="585.363"/>
		
			<line fill="none" stroke="#F7F8F8" stroke-width="2" stroke-miterlimit="10" x1="-1.626" y1="584.978" x2="324.342" y2="584.978"/>
	</g>
</g>
<image overflow="visible" enable-background="new    " width="301" height="132" xlink:href="F32DF0AF.jpg"  transform="matrix(0.5814 0 0 0.5828 73.7339 866.1384)">
</image>
<image overflow="visible" enable-background="new    " width="302" height="136" xlink:href="F32DF0AD.jpg"  transform="matrix(0.5332 0 0 0.5365 80.7085 741.3279)">
</image>
<image overflow="visible" enable-background="new    " width="300" height="146" xlink:href="F32DF0B3.jpg"  transform="matrix(0.4925 0 0 0.4962 87.354 611.7595)">
</image>
<image overflow="visible" enable-background="new    " width="721" height="714" xlink:href="F32DF0B5.png"  transform="matrix(0.1308 0 0 0.134 114.0806 473.3635)">
</image>
<image overflow="visible" enable-background="new    " width="710" height="718" xlink:href="F32DF0B7.png"  transform="matrix(0.1265 0 0 0.1269 116.3135 345.7976)">
</image>
<image overflow="visible" enable-background="new    " width="719" height="711" xlink:href="F32DF0B4.png"  transform="matrix(0.1344 0 0 0.1379 112.9106 213.5281)">
</image>
<image overflow="visible" enable-background="new    " width="712" height="719" xlink:href="F32DF0B3.png"  transform="matrix(0.1287 0 0 0.1292 115.4277 86.2502)">
</image>
<g id="選單">
</g>
</svg>
