<?xml version="1.0" encoding="utf-8"?>
<!-- Generator: Adobe Illustrator 16.0.3, SVG Export Plug-In . SVG Version: 6.00 Build 0)  -->
<!DOCTYPE svg PUBLIC "-//W3C//DTD SVG 1.1//EN" "http://www.w3.org/Graphics/SVG/1.1/DTD/svg11.dtd">
<svg version="1.1" xmlns="http://www.w3.org/2000/svg" xmlns:xlink="http://www.w3.org/1999/xlink" x="0px" y="0px"
	 width="63.392px" height="63.392px" viewBox="0 0 63.392 63.392" enable-background="new 0 0 63.392 63.392" xml:space="preserve">
<g id="BG">
</g>
<g id="UI">
	<g>
		<g>
			<linearGradient id="SVGID_1_" gradientUnits="userSpaceOnUse" x1="31.6958" y1="63.3916" x2="31.6958" y2="0">
				<stop  offset="0" style="stop-color:#86C166"/>
				<stop  offset="0.0068" style="stop-color:#80BF62"/>
				<stop  offset="0.0493" style="stop-color:#5FB24E"/>
				<stop  offset="0.0931" style="stop-color:#45A83F"/>
				<stop  offset="0.138" style="stop-color:#33A234"/>
				<stop  offset="0.1848" style="stop-color:#289D2D"/>
				<stop  offset="0.2366" style="stop-color:#249C2B"/>
				<stop  offset="0.2909" style="stop-color:#38A437"/>
				<stop  offset="0.3829" style="stop-color:#55AE48"/>
				<stop  offset="0.482" style="stop-color:#6AB755"/>
				<stop  offset="0.5904" style="stop-color:#7ABC5F"/>
				<stop  offset="0.715" style="stop-color:#83C064"/>
				<stop  offset="0.8925" style="stop-color:#86C166"/>
				<stop  offset="1" style="stop-color:#BEE0A2"/>
			</linearGradient>
			<circle fill="url(#SVGID_1_)" cx="31.696" cy="31.696" r="31.696"/>
			<linearGradient id="SVGID_2_" gradientUnits="userSpaceOnUse" x1="31.6953" y1="58.8965" x2="31.6953" y2="4.0205">
				<stop  offset="0.2151" style="stop-color:#FFFFFF;stop-opacity:0.03"/>
				<stop  offset="0.8482" style="stop-color:#FFFFFF;stop-opacity:0.5164"/>
				<stop  offset="0.957" style="stop-color:#FFFFFF;stop-opacity:0.6"/>
			</linearGradient>
			<circle opacity="0.6" fill="url(#SVGID_2_)" cx="31.695" cy="31.459" r="27.438"/>
		</g>
		<g>
			<path fill-rule="evenodd" clip-rule="evenodd" fill="#FFFFFF" d="M41.102,49.746c-6.149,0-12.302,0-18.452,0
				c-0.021-0.014-0.037-0.036-0.059-0.041c-1.738-0.446-2.577-1.45-2.726-3.207c-0.237-2.775-0.489-5.55-0.74-8.326
				c-0.304-3.389-0.612-6.782-0.918-10.174c-0.063-0.66-0.127-1.321-0.192-1.998c-0.381,0-0.726,0.002-1.069-0.001
				c-0.717-0.008-1.157-0.444-1.161-1.159c-0.006-0.703-0.023-1.407,0.003-2.108c0.083-2.226,1.138-3.835,3.128-4.822
				c0.704-0.347,1.462-0.493,2.248-0.492c1.057,0,2.112,0,3.204,0c0-0.401-0.014-0.77,0.003-1.135
				c0.062-1.271,0.648-2.223,1.782-2.806c0.31-0.161,0.667-0.236,1.003-0.352c3.146,0,6.294,0,9.439,0
				c0.023,0.012,0.04,0.029,0.063,0.036c1.865,0.473,2.729,1.584,2.729,3.515c0,0.243,0,0.487,0,0.742
				c1.14,0,2.223-0.01,3.307,0.002c2.458,0.026,4.658,1.767,5.111,4.183c0.198,1.052,0.132,2.155,0.158,3.237
				c0.017,0.716-0.442,1.151-1.158,1.159C46.454,26.002,46.102,26,45.741,26c-0.021,0.163-0.041,0.28-0.053,0.399
				c-0.223,2.499-0.442,5.002-0.668,7.505c-0.378,4.21-0.764,8.419-1.137,12.631c-0.121,1.386-0.732,2.419-2.039,2.976
				C41.607,49.614,41.351,49.668,41.102,49.746z M20.188,26.019c0.017,0.242,0.025,0.467,0.046,0.69
				c0.301,3.3,0.604,6.596,0.903,9.895c0.297,3.286,0.586,6.573,0.883,9.86c0.069,0.77,0.471,1.134,1.236,1.134
				c5.743,0.002,11.488,0.002,17.236,0c0.752,0,1.153-0.353,1.233-1.097c0.063-0.579,0.106-1.16,0.157-1.743
				c0.247-2.765,0.491-5.529,0.742-8.294c0.275-3.038,0.555-6.074,0.83-9.111c0.041-0.443,0.07-0.889,0.106-1.334
				C35.745,26.019,27.979,26.019,20.188,26.019z M17.886,23.831c9.363,0,18.638,0,27.937,0c0-0.294,0-0.568,0-0.839
				c-0.001-2.068-1.357-3.429-3.419-3.43c-3.742-0.002-7.482,0-11.222,0c-3.324,0-6.649-0.003-9.974,0.001
				c-1.543,0.002-2.842,0.977-3.169,2.434C17.909,22.581,17.933,23.2,17.886,23.831z M37.241,17.402c0-0.157,0-0.285,0-0.413
				c-0.003-0.251,0.014-0.501-0.01-0.75c-0.052-0.548-0.496-0.963-1.059-0.965c-2.87-0.007-5.74-0.007-8.61,0
				c-0.53,0.002-0.979,0.396-1.033,0.911c-0.039,0.396-0.008,0.8-0.008,1.217C30.096,17.402,33.642,17.402,37.241,17.402z"/>
			<path fill-rule="evenodd" clip-rule="evenodd" fill="#FFFFFF" d="M27.056,36.851c0.106,2.463,0.217,4.93,0.32,7.394
				c0.028,0.686-0.388,1.172-0.997,1.207c-0.618,0.036-1.109-0.429-1.142-1.114c-0.127-2.737-0.249-5.477-0.369-8.216
				c-0.1-2.263-0.205-4.524-0.295-6.787c-0.033-0.895,0.771-1.45,1.529-1.071c0.417,0.206,0.593,0.566,0.613,1.015
				c0.076,1.728,0.15,3.454,0.227,5.182c0.035,0.797,0.071,1.593,0.109,2.392C27.052,36.851,27.054,36.851,27.056,36.851z"/>
			<path fill-rule="evenodd" clip-rule="evenodd" fill="#FFFFFF" d="M38.853,36.733c-0.108,2.429-0.217,4.858-0.327,7.287
				c-0.009,0.188-0.013,0.382-0.051,0.566c-0.111,0.553-0.604,0.915-1.145,0.861c-0.542-0.053-0.966-0.503-0.955-1.066
				c0.015-0.809,0.055-1.618,0.091-2.429c0.188-4.215,0.379-8.429,0.569-12.644c0.028-0.643,0.395-1.084,0.954-1.158
				c0.489-0.064,0.985,0.244,1.137,0.73c0.045,0.145,0.058,0.306,0.052,0.458c-0.104,2.466-0.214,4.93-0.321,7.394H38.853z"/>
			<path fill-rule="evenodd" clip-rule="evenodd" fill="#FFFFFF" d="M32.948,36.818c0,2.489,0.003,4.978-0.002,7.468
				c-0.001,0.846-0.73,1.385-1.463,1.087c-0.41-0.17-0.634-0.488-0.677-0.929c-0.011-0.105-0.002-0.214-0.002-0.321
				c0-4.884,0-9.767,0-14.649c0-0.155-0.009-0.313,0.02-0.464c0.109-0.527,0.592-0.895,1.115-0.863
				c0.54,0.035,0.971,0.469,1.006,1.025c0.007,0.106,0.003,0.214,0.003,0.322C32.948,31.935,32.948,34.376,32.948,36.818z"/>
		</g>
	</g>
</g>
<g id="_x24_">
</g>
<g id="選單">
</g>
</svg>
