<?xml version="1.0" encoding="utf-8"?>
<!-- Generator: Adobe Illustrator 16.0.3, SVG Export Plug-In . SVG Version: 6.00 Build 0)  -->
<!DOCTYPE svg PUBLIC "-//W3C//DTD SVG 1.1//EN" "http://www.w3.org/Graphics/SVG/1.1/DTD/svg11.dtd">
<svg version="1.1" xmlns="http://www.w3.org/2000/svg" xmlns:xlink="http://www.w3.org/1999/xlink" x="0px" y="0px"
	 width="261.077px" height="57.809px" viewBox="0 0 261.077 57.809" enable-background="new 0 0 261.077 57.809"
	 xml:space="preserve">
<g id="BG">
</g>
<g id="UI">
	<g>
		<g>
			<g>
				<path fill="#FFFFFF" d="M257.827,32.242c0,13.723-11.815,24.846-26.393,24.846H28.144c-14.576,0-26.394-11.123-26.394-24.846
					v-7.008c0-13.723,11.817-24.848,26.394-24.848h203.291c14.577,0,26.393,11.125,26.393,24.848V32.242z"/>
			</g>
			<g>
				<linearGradient id="SVGID_1_" gradientUnits="userSpaceOnUse" x1="129.7886" y1="55.0527" x2="129.7886" y2="2.4238">
					<stop  offset="0.1828" style="stop-color:#EFEFEF"/>
					<stop  offset="0.2993" style="stop-color:#E9E9E9"/>
					<stop  offset="0.4584" style="stop-color:#D7D7D7"/>
					<stop  offset="0.6423" style="stop-color:#BBBABA"/>
					<stop  offset="0.843" style="stop-color:#939393"/>
					<stop  offset="0.9892" style="stop-color:#727171"/>
				</linearGradient>
				<path fill="url(#SVGID_1_)" d="M254.494,31.99c0,12.736-11.508,23.063-25.706,23.063H30.789
					c-14.196,0-25.706-10.326-25.706-23.063v-6.504c0-12.738,11.51-23.063,25.706-23.063h197.999
					c14.198,0,25.706,10.324,25.706,23.063V31.99z"/>
			</g>
			<g opacity="0.6">
				<linearGradient id="SVGID_2_" gradientUnits="userSpaceOnUse" x1="130.7876" y1="51.3633" x2="130.7876" y2="17.7793">
					<stop  offset="0.2151" style="stop-color:#FFFFFF;stop-opacity:0.03"/>
					<stop  offset="0.8482" style="stop-color:#FFFFFF;stop-opacity:0.3458"/>
					<stop  offset="0.957" style="stop-color:#FFFFFF;stop-opacity:0.4"/>
				</linearGradient>
				<path fill="url(#SVGID_2_)" d="M248.631,36.646c0,8.129-9.914,14.717-22.147,14.717H35.093
					c-12.231,0-22.148-6.588-22.148-14.717v-4.15c0-8.127,9.917-14.717,22.148-14.717h191.391c12.233,0,22.147,6.59,22.147,14.717
					V36.646z"/>
			</g>
		</g>
		<g>
			<g opacity="0.2">
				<path fill="#231815" d="M261.077,32.477c0,13.99-12.047,25.332-26.908,25.332H26.909C12.048,57.809,0,46.466,0,32.477v-7.145
					C0,11.341,12.048,0,26.909,0h207.26c14.861,0,26.908,11.341,26.908,25.332V32.477z"/>
			</g>
			<g>
				<path fill="#FFFFFF" d="M257.827,32.242c0,13.723-11.815,24.846-26.393,24.846H28.144c-14.576,0-26.394-11.123-26.394-24.846
					v-7.008c0-13.723,11.817-24.848,26.394-24.848h203.291c14.577,0,26.393,11.125,26.393,24.848V32.242z"/>
			</g>
			<g>
				<linearGradient id="SVGID_3_" gradientUnits="userSpaceOnUse" x1="129.7886" y1="55.0527" x2="129.7886" y2="2.4238">
					<stop  offset="0.4086" style="stop-color:#EFEFEF"/>
					<stop  offset="0.4622" style="stop-color:#E4E4E4"/>
					<stop  offset="0.6125" style="stop-color:#CACACB"/>
					<stop  offset="0.7479" style="stop-color:#BABABB"/>
					<stop  offset="0.8548" style="stop-color:#B5B5B6"/>
				</linearGradient>
				<path fill="url(#SVGID_3_)" d="M254.494,31.99c0,12.736-11.508,23.063-25.706,23.063H30.789
					c-14.196,0-25.706-10.326-25.706-23.063v-6.504c0-12.738,11.51-23.063,25.706-23.063h197.999
					c14.198,0,25.706,10.324,25.706,23.063V31.99z"/>
			</g>
			<g opacity="0.6">
				<linearGradient id="SVGID_4_" gradientUnits="userSpaceOnUse" x1="130.7876" y1="51.3633" x2="130.7876" y2="17.7793">
					<stop  offset="0.2151" style="stop-color:#FFFFFF;stop-opacity:0.03"/>
					<stop  offset="0.8482" style="stop-color:#FFFFFF;stop-opacity:0.3458"/>
					<stop  offset="0.957" style="stop-color:#FFFFFF;stop-opacity:0.4"/>
				</linearGradient>
				<path fill="url(#SVGID_4_)" d="M248.631,36.646c0,8.129-9.914,14.717-22.147,14.717H35.093
					c-12.231,0-22.148-6.588-22.148-14.717v-4.15c0-8.127,9.917-14.717,22.148-14.717h191.391c12.233,0,22.147,6.59,22.147,14.717
					V36.646z"/>
			</g>
		</g>
		<g>
			<g>
				<path fill="#727171" d="M165.72,16.33c-0.405,1.225-0.749,2.227-1.032,3.006l-0.987,2.535v21.132h-2.763V27.124
					c-0.405,0.678-1.124,1.67-2.156,2.976l-1.427-2.976c2.449-3.147,4.317-6.983,5.602-11.508L165.72,16.33z M184.469,25.59
					l-10.566,1.063c0.354,4.423,1.252,7.811,2.695,10.164c1.442,2.353,2.548,3.529,3.317,3.529c0.901,0,1.478-1.776,1.73-5.329
					l2.703,1.336c-0.476,4.717-1.893,7.075-4.251,7.075c-1.741,0-3.545-1.364-5.412-4.092s-3.095-6.874-3.682-12.44l-6.027,0.592
					l-0.121-2.672l5.936-0.562c-0.162-2.317-0.223-5.106-0.182-8.365h2.763c0,3.461,0.081,6.158,0.243,8.092l10.764-1.032
					L184.469,25.59z M182.48,20.869l-2.277,1.807c-1.093-1.64-2.51-3.152-4.251-4.539l2.141-1.776
					C179.864,17.767,181.326,19.27,182.48,20.869z"/>
				<path fill="#727171" d="M196.535,19.153l-2.247,1.094c-0.931-1.316-1.685-2.287-2.262-2.915l2.141-1.093
					C194.854,16.998,195.644,17.969,196.535,19.153z M205.264,28.93c0,0.566-0.21,1.091-0.63,1.571
					c-0.42,0.48-1.536,0.681-3.348,0.6l-0.713-2.368c0.496,0.061,1.037,0.091,1.624,0.091c0.365,0,0.547-0.218,0.547-0.653v-5.085
					h-2.763v7.863h-2.55v-7.863h-2.824v8.38h-2.52v-10.81h5.344v-4.69h2.55v4.69h5.283V28.93z M216.407,39.238
					c0,1.022-0.286,1.716-0.858,2.08s-1.582,0.547-3.029,0.547c-0.729,0-1.427-0.025-2.095-0.076l-0.774-2.642
					c0.546,0.021,1.71,0.03,3.492,0.03c0.344,0,0.516-0.197,0.516-0.592v-2.854h-7.241v7.333h-2.702v-7.333h-7.302v6.027h-2.703
					v-8.486h10.005v-1.67h2.702v1.67h9.989V39.238z M196.975,24.285c-0.182,1.882-0.425,3.491-0.729,4.827l-1.427-0.379
					c0.324-1.509,0.562-3.072,0.713-4.691L196.975,24.285z M202.44,27.458l-1.427,0.501c-0.121-1.113-0.37-2.358-0.744-3.734
					l1.427-0.365C202.071,25.013,202.319,26.212,202.44,27.458z M205.735,17.575c-0.871,0.94-1.782,1.821-2.733,2.642l-2.368-1.154
					c1.032-0.749,1.989-1.64,2.869-2.672L205.735,17.575z M218.76,29.735l-1.184,2.292c-1.782-0.638-3.436-1.478-4.964-2.521
					c-1.589,1.124-3.446,1.913-5.571,2.369l-1.215-2.369c1.619-0.172,3.198-0.708,4.737-1.608c-0.952-1.073-1.66-2.07-2.125-2.991
					l1.989-1.366c0.617,1.073,1.28,1.943,1.989,2.611c0.84-1.356,1.371-2.879,1.594-4.569h-4.099
					c-0.81,1.306-1.695,2.469-2.657,3.491l-1.579-2.034c1.801-2.034,3.188-4.479,4.16-7.333l2.459,0.563
					c-0.263,0.87-0.612,1.771-1.047,2.702h7.333v2.611h-2.049c-0.344,2.52-1.083,4.554-2.217,6.103
					C215.415,28.504,216.898,29.188,218.76,29.735z"/>
			</g>
		</g>
	</g>
</g>
<g id="_x24_">
</g>
<g id="選單">
</g>
</svg>
