<?xml version="1.0" encoding="utf-8"?>
<!-- Generator: Adobe Illustrator 16.0.3, SVG Export Plug-In . SVG Version: 6.00 Build 0)  -->
<!DOCTYPE svg PUBLIC "-//W3C//DTD SVG 1.1//EN" "http://www.w3.org/Graphics/SVG/1.1/DTD/svg11.dtd">
<svg version="1.1" xmlns="http://www.w3.org/2000/svg" xmlns:xlink="http://www.w3.org/1999/xlink" x="0px" y="0px"
	 width="261.076px" height="57.807px" viewBox="0 0 261.076 57.807" enable-background="new 0 0 261.076 57.807"
	 xml:space="preserve">
<g id="BG">
</g>
<g id="UI">
	<g>
		<g>
			<g>
				<path fill="#FFFFFF" d="M257.826,32.24c0,13.723-11.814,24.848-26.393,24.848H28.143C13.566,57.088,1.75,45.963,1.75,32.24
					v-7.008c0-13.721,11.816-24.846,26.393-24.846h203.291c14.578,0,26.393,11.125,26.393,24.846V32.24z"/>
			</g>
			<g>
				<linearGradient id="SVGID_1_" gradientUnits="userSpaceOnUse" x1="129.7881" y1="55.0508" x2="129.7881" y2="2.4219">
					<stop  offset="0.1828" style="stop-color:#EFEFEF"/>
					<stop  offset="0.2993" style="stop-color:#E9E9E9"/>
					<stop  offset="0.4584" style="stop-color:#D7D7D7"/>
					<stop  offset="0.6423" style="stop-color:#BBBABA"/>
					<stop  offset="0.843" style="stop-color:#939393"/>
					<stop  offset="0.9892" style="stop-color:#727171"/>
				</linearGradient>
				<path fill="url(#SVGID_1_)" d="M254.494,31.988c0,12.738-11.508,23.063-25.707,23.063H30.789
					c-14.197,0-25.707-10.324-25.707-23.063v-6.504c0-12.736,11.51-23.063,25.707-23.063h197.998
					c14.199,0,25.707,10.326,25.707,23.063V31.988z"/>
			</g>
			<g opacity="0.6">
				<linearGradient id="SVGID_2_" gradientUnits="userSpaceOnUse" x1="130.7871" y1="51.3633" x2="130.7871" y2="17.7773">
					<stop  offset="0.2151" style="stop-color:#FFFFFF;stop-opacity:0.03"/>
					<stop  offset="0.8482" style="stop-color:#FFFFFF;stop-opacity:0.3458"/>
					<stop  offset="0.957" style="stop-color:#FFFFFF;stop-opacity:0.4"/>
				</linearGradient>
				<path fill="url(#SVGID_2_)" d="M248.631,36.646c0,8.129-9.914,14.717-22.148,14.717H35.092c-12.23,0-22.148-6.588-22.148-14.717
					v-4.152c0-8.127,9.918-14.717,22.148-14.717h191.391c12.234,0,22.148,6.59,22.148,14.717V36.646z"/>
			</g>
		</g>
		<g>
			<g opacity="0.2">
				<path fill="#231815" d="M261.076,32.475c0,13.99-12.047,25.332-26.908,25.332H26.908C12.047,57.807,0,46.465,0,32.475V25.33
					C0,11.342,12.047,0,26.908,0h207.26c14.861,0,26.908,11.342,26.908,25.33V32.475z"/>
			</g>
			<g>
				<path fill="#FFFFFF" d="M257.826,32.24c0,13.723-11.814,24.848-26.393,24.848H28.143C13.566,57.088,1.75,45.963,1.75,32.24
					v-7.008c0-13.721,11.816-24.846,26.393-24.846h203.291c14.578,0,26.393,11.125,26.393,24.846V32.24z"/>
			</g>
			<g>
				<linearGradient id="SVGID_3_" gradientUnits="userSpaceOnUse" x1="129.7881" y1="55.0508" x2="129.7881" y2="2.4219">
					<stop  offset="0.4086" style="stop-color:#EFEFEF"/>
					<stop  offset="0.4622" style="stop-color:#E4E4E4"/>
					<stop  offset="0.6125" style="stop-color:#CACACB"/>
					<stop  offset="0.7479" style="stop-color:#BABABB"/>
					<stop  offset="0.8548" style="stop-color:#B5B5B6"/>
				</linearGradient>
				<path fill="url(#SVGID_3_)" d="M254.494,31.988c0,12.738-11.508,23.063-25.707,23.063H30.789
					c-14.197,0-25.707-10.324-25.707-23.063v-6.504c0-12.736,11.51-23.063,25.707-23.063h197.998
					c14.199,0,25.707,10.326,25.707,23.063V31.988z"/>
			</g>
			<g opacity="0.6">
				<linearGradient id="SVGID_4_" gradientUnits="userSpaceOnUse" x1="130.7871" y1="51.3633" x2="130.7871" y2="17.7773">
					<stop  offset="0.2151" style="stop-color:#FFFFFF;stop-opacity:0.03"/>
					<stop  offset="0.8482" style="stop-color:#FFFFFF;stop-opacity:0.3458"/>
					<stop  offset="0.957" style="stop-color:#FFFFFF;stop-opacity:0.4"/>
				</linearGradient>
				<path fill="url(#SVGID_4_)" d="M248.631,36.646c0,8.129-9.914,14.717-22.148,14.717H35.092c-12.23,0-22.148-6.588-22.148-14.717
					v-4.152c0-8.127,9.918-14.717,22.148-14.717h191.391c12.234,0,22.148,6.59,22.148,14.717V36.646z"/>
			</g>
		</g>
		<g>
			<path fill="#727171" d="M49.877,20.717l-1.807,1.897c-1.073-1.022-2.338-2.101-3.795-3.233c-0.708,1.032-1.655,2.276-2.839,3.734
				h6.695v2.55h-2.899v2.384h3.644V30.6h-3.644v8.152c0.992-0.162,2.216-0.445,3.674-0.851v2.611
				c-3.846,0.992-7.287,1.71-10.323,2.155l-0.592-2.55c1.417-0.152,2.94-0.399,4.57-0.744V30.6H38.46v-2.551h4.099v-2.384h-2.384
				v-1.274c-0.283,0.334-0.617,0.622-1.002,0.865l-1.427-2.368c2.044-1.741,3.932-4.125,5.663-7.15l2.475,0.773
				c-0.061,0.192-0.172,0.41-0.334,0.653C47.321,18.419,48.763,19.604,49.877,20.717z M41.876,38.251l-2.262,0.622
				c-0.203-2.459-0.577-4.666-1.124-6.619l2.202-0.652C41.279,33.403,41.674,35.619,41.876,38.251z M49.027,32.087
				c-0.091,1.741-0.39,3.588-0.896,5.541l-2.216-0.743c0.566-1.923,0.891-3.705,0.972-5.344L49.027,32.087z M65.104,25.56
				c-0.385,1.093-0.825,2.036-1.321,2.831s-1.229,1.191-2.201,1.191c-1.458,0-3.011-0.886-4.661-2.656
				c-2.368,0.961-4.524,1.619-6.467,1.974L49.346,26.5c2.489-0.445,4.519-0.986,6.087-1.624c-0.445-0.83-0.86-1.73-1.245-2.702
				l-3.795,0.38l-0.243-2.399l3.294-0.349c-0.354-1.478-0.602-2.783-0.744-3.917h2.642c0.263,1.67,0.531,2.895,0.804,3.674
				l8.304-0.835l0.152,2.398l-7.682,0.744c0.182,0.638,0.476,1.29,0.88,1.958c0.951-0.536,1.963-1.255,3.037-2.155l1.958,1.412
				c-1.093,0.991-2.242,1.862-3.446,2.61c0.9,0.739,1.528,1.108,1.882,1.108c0.526,0,1.037-0.814,1.533-2.444L65.104,25.56z
				 M65.514,38.463c-0.78,3.117-2.11,4.676-3.993,4.676c-1.367,0-3.011-0.997-4.934-2.99c-1.468,0.729-3.457,1.452-5.966,2.171
				l-1.184-2.354c2.267-0.546,4.154-1.158,5.663-1.837c-0.708-1.315-1.25-2.55-1.625-3.704l-3.446,0.38l-0.258-2.398l2.96-0.35
				c-0.314-1.315-0.521-2.267-0.623-2.854l2.642-0.304c0.243,1.244,0.471,2.206,0.683,2.884l9.428-0.972l0.243,2.43l-8.835,0.91
				c0.162,0.698,0.567,1.609,1.214,2.733c1.295-0.779,2.541-1.711,3.735-2.794l2.019,1.549c-1.447,1.285-2.844,2.343-4.19,3.173
				c1.022,1.022,1.781,1.533,2.277,1.533c0.638,0,1.245-1.063,1.822-3.188L65.514,38.463z M59.471,30.235l-1.867,1.199
				c-0.405-0.598-1.002-1.164-1.792-1.7l1.579-1.458C58.221,28.833,58.915,29.486,59.471,30.235z M61.399,17.695l-1.928,1.306
				c-1.083-0.82-2.014-1.407-2.793-1.761l1.897-1.352C59.537,16.273,60.479,16.875,61.399,17.695z"/>
			<path fill="#727171" d="M77.2,19.152l-2.247,1.094c-0.931-1.316-1.685-2.287-2.262-2.915l2.141-1.093
				C75.52,16.997,76.309,17.969,77.2,19.152z M85.929,28.93c0,0.566-0.21,1.091-0.63,1.571c-0.42,0.48-1.536,0.681-3.348,0.6
				l-0.713-2.368c0.496,0.061,1.037,0.091,1.624,0.091c0.365,0,0.547-0.218,0.547-0.653v-5.085h-2.763v7.863h-2.55v-7.863h-2.824
				v8.38h-2.52v-10.81h5.344v-4.69h2.55v4.69h5.283V28.93z M97.072,39.237c0,1.022-0.286,1.716-0.858,2.08s-1.582,0.547-3.029,0.547
				c-0.729,0-1.427-0.025-2.095-0.076l-0.774-2.642c0.546,0.021,1.71,0.03,3.492,0.03c0.344,0,0.516-0.197,0.516-0.592V35.73h-7.241
				v7.333h-2.702V35.73h-7.302v6.027h-2.703v-8.486h10.005v-1.67h2.702v1.67h9.989V39.237z M77.64,24.284
				c-0.182,1.882-0.425,3.491-0.729,4.827l-1.427-0.379c0.324-1.509,0.562-3.072,0.713-4.691L77.64,24.284z M83.105,27.457
				l-1.427,0.501c-0.121-1.113-0.37-2.358-0.744-3.734l1.427-0.365C82.736,25.013,82.984,26.212,83.105,27.457z M86.4,17.574
				c-0.871,0.94-1.782,1.821-2.733,2.642l-2.368-1.154c1.032-0.749,1.989-1.64,2.869-2.672L86.4,17.574z M99.425,29.734
				l-1.184,2.292c-1.782-0.638-3.436-1.478-4.964-2.521c-1.589,1.124-3.446,1.913-5.571,2.369l-1.215-2.369
				c1.619-0.172,3.198-0.708,4.737-1.608c-0.952-1.073-1.66-2.07-2.125-2.991l1.989-1.366c0.617,1.073,1.28,1.943,1.989,2.611
				c0.84-1.356,1.371-2.879,1.594-4.569h-4.099c-0.81,1.306-1.695,2.469-2.657,3.491l-1.579-2.034
				c1.801-2.034,3.188-4.479,4.16-7.333l2.459,0.563c-0.263,0.87-0.612,1.771-1.047,2.702h7.333v2.611h-2.049
				c-0.344,2.52-1.083,4.554-2.217,6.103C96.08,28.504,97.563,29.188,99.425,29.734z"/>
		</g>
	</g>
</g>
<g id="_x24_">
</g>
<g id="選單">
</g>
</svg>
