<?xml version="1.0" encoding="utf-8"?>
<!-- Generator: Adobe Illustrator 16.0.3, SVG Export Plug-In . SVG Version: 6.00 Build 0)  -->
<!DOCTYPE svg PUBLIC "-//W3C//DTD SVG 1.1//EN" "http://www.w3.org/Graphics/SVG/1.1/DTD/svg11.dtd">
<svg version="1.1" xmlns="http://www.w3.org/2000/svg" xmlns:xlink="http://www.w3.org/1999/xlink" x="0px" y="0px"
	 width="27.822px" height="26.338px" viewBox="0 0 27.822 26.338" enable-background="new 0 0 27.822 26.338" xml:space="preserve">
<g id="BG">
</g>
<g id="UI">
</g>
<g id="_x24_">
	<g>
		<polygon opacity="0.2" fill="#231815" points="5.154,0 5.154,23.249 22.789,23.249 21.447,26.291 23.779,26.291 27.822,23.249 
			27.822,0 		"/>
		<g>
			<g>
				<rect x="20.961" y="3.624" fill="#EA4E4E" width="2.223" height="1.845"/>
				<g>
					<path fill="#727171" d="M22.06,4.279l2.833-2.837c0.065-0.064,0.116-0.043,0.116,0.047l0.059,21.619
						c0,0.09-0.049,0.215-0.114,0.277l-2.833,2.838c-0.065,0.063-0.116,0.042-0.116-0.049l-0.06-21.617
						C21.945,4.467,21.995,4.341,22.06,4.279z"/>
				</g>
				<g>
					<path fill="#B5B5B6" d="M0.114,4.279l2.832-2.837c0.065-0.064,0.19-0.116,0.281-0.116h21.621c0.089,0,0.11,0.052,0.045,0.116
						L22.06,4.279c-0.065,0.062-0.188,0.115-0.277,0.115H0.164C0.073,4.394,0.052,4.341,0.114,4.279z"/>
				</g>
				<g>
					<path fill="#898989" d="M21.945,4.557l0.06,21.617c0,0.09-0.073,0.164-0.163,0.164H0.224c-0.091,0-0.164-0.073-0.164-0.164
						L0,4.557c0-0.09,0.073-0.163,0.164-0.163h21.619C21.872,4.394,21.945,4.467,21.945,4.557z"/>
				</g>
				<g>
					<path fill="#FFFFFF" d="M20.029,7.947l0.041,14.839c0.003,0.899-0.724,1.629-1.622,1.629H3.607
						c-0.898,0-1.629-0.73-1.633-1.629L1.935,7.947C1.932,7.047,2.658,6.318,3.558,6.318h14.84
						C19.296,6.318,20.028,7.047,20.029,7.947z"/>
				</g>
			</g>
		</g>
	</g>
</g>
<g id="選單">
</g>
</svg>
