<?xml version="1.0" encoding="utf-8"?>
<!-- Generator: Adobe Illustrator 16.0.0, SVG Export Plug-In . SVG Version: 6.00 Build 0)  -->
<!DOCTYPE svg PUBLIC "-//W3C//DTD SVG 1.1//EN" "http://www.w3.org/Graphics/SVG/1.1/DTD/svg11.dtd">
<svg version="1.1" id="圖層_1" xmlns="http://www.w3.org/2000/svg" xmlns:xlink="http://www.w3.org/1999/xlink" x="0px" y="0px"
	 width="323.667px" height="932px" viewBox="0 52.968 323.667 932" enable-background="new 0 52.968 323.667 932"
	 xml:space="preserve">
<g id="BG">
</g>
<g id="_x24_">
	<rect x="-1.46" y="185.167" fill="#FFFFFF" width="326.615" height="136.784"/>
	<rect x="-1.46" y="52.201" fill="#FFFFFF" width="326.615" height="136.784"/>
	<g>
		<g>
			
				<line fill="none" stroke="#9FA0A0" stroke-width="4" stroke-miterlimit="10" x1="-1.46" y1="187.177" x2="325.155" y2="187.177"/>
			
				<line fill="none" stroke="#F7F8F8" stroke-width="2" stroke-miterlimit="10" x1="-1.46" y1="187.552" x2="325.155" y2="187.552"/>
		</g>
	</g>
	<g>
		<line fill="none" stroke="#9FA0A0" stroke-width="4" stroke-miterlimit="10" x1="-1.46" y1="53.776" x2="325.156" y2="53.776"/>
		<line fill="none" stroke="#F7F8F8" stroke-width="2" stroke-miterlimit="10" x1="-1.46" y1="53.377" x2="324.507" y2="53.377"/>
	</g>
	<g>
		<g>
			
				<line fill="none" stroke="#9FA0A0" stroke-width="4" stroke-miterlimit="10" x1="-1.46" y1="320.144" x2="325.155" y2="320.144"/>
			
				<line fill="none" stroke="#F7F8F8" stroke-width="2" stroke-miterlimit="10" x1="-1.46" y1="320.519" x2="325.155" y2="320.519"/>
		</g>
	</g>
	<rect x="-1.46" y="318.432" fill="#FFFFFF" width="326.615" height="136.784"/>
	<g>
		<line fill="none" stroke="#9FA0A0" stroke-width="4" stroke-miterlimit="10" x1="-1.46" y1="320.007" x2="325.156" y2="320.007"/>
		<line fill="none" stroke="#F7F8F8" stroke-width="2" stroke-miterlimit="10" x1="-1.46" y1="319.608" x2="324.507" y2="319.608"/>
	</g>
	<rect x="-1.127" y="851.193" fill="#FFFFFF" width="326.615" height="133.19"/>
	<rect x="-1.127" y="584.663" fill="#FFFFFF" width="326.615" height="136.785"/>
	<rect x="-1.127" y="451.697" fill="#FFFFFF" width="326.615" height="136.784"/>
	<g>
		<g>
			<line fill="none" stroke="#9FA0A0" stroke-width="4" stroke-miterlimit="10" x1="-1.127" y1="719.64" x2="325.488" y2="719.64"/>
			
				<line fill="none" stroke="#F7F8F8" stroke-width="2" stroke-miterlimit="10" x1="-1.127" y1="720.015" x2="325.488" y2="720.015"/>
		</g>
	</g>
	<rect x="-1.127" y="717.927" fill="#FFFFFF" width="326.615" height="136.785"/>
	<g>
		<g>
			
				<line fill="none" stroke="#9FA0A0" stroke-width="4" stroke-miterlimit="10" x1="-1.127" y1="452.886" x2="325.489" y2="452.886"/>
			<line fill="none" stroke="#F7F8F8" stroke-width="2" stroke-miterlimit="10" x1="-1.127" y1="453.26" x2="325.489" y2="453.26"/>
		</g>
	</g>
	<g>
		<g>
			
				<line fill="none" stroke="#9FA0A0" stroke-width="4" stroke-miterlimit="10" x1="-1.127" y1="719.117" x2="325.489" y2="719.117"/>
			
				<line fill="none" stroke="#F7F8F8" stroke-width="2" stroke-miterlimit="10" x1="-1.127" y1="719.491" x2="325.489" y2="719.491"/>
		</g>
	</g>
	<g>
		
			<line fill="none" stroke="#9FA0A0" stroke-width="4" stroke-miterlimit="10" x1="-1.127" y1="853.293" x2="325.489" y2="853.293"/>
		
			<line fill="none" stroke="#F7F8F8" stroke-width="2" stroke-miterlimit="10" x1="-1.127" y1="852.893" x2="324.841" y2="852.893"/>
	</g>
	<g>
		
			<line fill="none" stroke="#9FA0A0" stroke-width="4" stroke-miterlimit="10" x1="-1.127" y1="587.061" x2="325.489" y2="587.061"/>
		
			<line fill="none" stroke="#F7F8F8" stroke-width="2" stroke-miterlimit="10" x1="-1.127" y1="586.663" x2="324.841" y2="586.663"/>
	</g>
</g>
<g id="選單">
</g>
<g id="選單_1_">
</g>
<g id="UI">
	
		<image overflow="visible" enable-background="new    " width="301" height="132" xlink:href="165FC629.jpg"  transform="matrix(0.5814 0 0 0.5745 74.686 881.9753)">
	</image>
	
		<image overflow="visible" enable-background="new    " width="302" height="136" xlink:href="165FC62B.jpg"  transform="matrix(0.5332 0 0 0.5289 81.6685 750.5867)">
	</image>
	
		<image overflow="visible" enable-background="new    " width="300" height="146" xlink:href="165FC62E.jpg"  transform="matrix(0.4925 0 0 0.4891 88.3179 617.5085)">
	</image>
	
		<image overflow="visible" enable-background="new    " width="721" height="714" xlink:href="165FC62F.png"  transform="matrix(0.1308 0 0 0.1321 115.0483 472.7292)">
	</image>
	
		<image overflow="visible" enable-background="new    " width="710" height="718" xlink:href="165FC629.png"  transform="matrix(0.1265 0 0 0.1251 117.2729 341.6252)">
	</image>
	
		<image overflow="visible" enable-background="new    " width="719" height="711" xlink:href="165FC62B.png"  transform="matrix(0.1344 0 0 0.1359 113.8726 204.885)">
	</image>
	
		<image overflow="visible" enable-background="new    " width="712" height="719" xlink:href="165FC626.png"  transform="matrix(0.1287 0 0 0.1274 116.3774 74.0647)">
	</image>
</g>
</svg>
