<?xml version="1.0" encoding="utf-8"?>
<!-- Generator: Adobe Illustrator 16.0.3, SVG Export Plug-In . SVG Version: 6.00 Build 0)  -->
<!DOCTYPE svg PUBLIC "-//W3C//DTD SVG 1.1//EN" "http://www.w3.org/Graphics/SVG/1.1/DTD/svg11.dtd">
<svg version="1.1" xmlns="http://www.w3.org/2000/svg" xmlns:xlink="http://www.w3.org/1999/xlink" x="0px" y="0px"
	 width="261.443px" height="161.886px" viewBox="0 0 261.443 161.886" enable-background="new 0 0 261.443 161.886"
	 xml:space="preserve">
<g id="BG">
</g>
<g id="_x24_">
</g>
<g id="UI">
	<g>
		<path opacity="0.2" fill="#231815" d="M261.443,146.395c0,8.556-6.263,15.491-13.991,15.491H13.991
			C6.264,161.886,0,154.95,0,146.395V15.491C0,6.936,6.264,0,13.991,0h233.461c7.729,0,13.991,6.936,13.991,15.491V146.395z"/>
		<linearGradient id="SVGID_1_" gradientUnits="userSpaceOnUse" x1="130.7217" y1="2.1436" x2="130.7217" y2="160.3096">
			<stop  offset="0.2849" style="stop-color:#EFEFEF"/>
			<stop  offset="0.6452" style="stop-color:#B5B5B6"/>
			<stop  offset="0.6882" style="stop-color:#C0C0C1"/>
			<stop  offset="0.8074" style="stop-color:#DADADA"/>
			<stop  offset="0.9149" style="stop-color:#EAEAEA"/>
			<stop  offset="1" style="stop-color:#EFEFEF"/>
		</linearGradient>
		<path fill="url(#SVGID_1_)" d="M259.224,145.176c0,8.357-6.158,15.134-13.755,15.134H15.974c-7.597,0-13.754-6.776-13.754-15.134
			V17.277c0-8.358,6.157-15.134,13.754-15.134h229.495c7.597,0,13.755,6.775,13.755,15.134V145.176z"/>
		<linearGradient id="SVGID_2_" gradientUnits="userSpaceOnUse" x1="130.7217" y1="156.6074" x2="130.7217" y2="7.0186">
			<stop  offset="0" style="stop-color:#DCDDDD"/>
			<stop  offset="0.4462" style="stop-color:#EFEFEF"/>
			<stop  offset="0.8065" style="stop-color:#B5B5B6"/>
		</linearGradient>
		<path fill="url(#SVGID_2_)" d="M253.57,142.295c0,7.904-5.888,14.313-13.149,14.313H21.021c-7.261,0-13.148-6.408-13.148-14.313
			V21.334c0-7.771,5.689-14.096,12.778-14.31c0.123-0.004,0.246-0.006,0.37-0.006h219.399c7.262,0,13.149,6.41,13.149,14.315
			V142.295z"/>
		<path fill="#FFFFFF" d="M185.901,63.095H10.72v78.702c0,7.62,5.755,13.8,12.854,13.8h214.466c7.097,0,12.851-6.18,12.851-13.8
			V63.095H185.901z"/>
	</g>
</g>
<g id="選單">
</g>
</svg>
