<?xml version="1.0" encoding="utf-8"?>
<!-- Generator: Adobe Illustrator 16.0.3, SVG Export Plug-In . SVG Version: 6.00 Build 0)  -->
<!DOCTYPE svg PUBLIC "-//W3C//DTD SVG 1.1//EN" "http://www.w3.org/Graphics/SVG/1.1/DTD/svg11.dtd">
<svg version="1.1" xmlns="http://www.w3.org/2000/svg" xmlns:xlink="http://www.w3.org/1999/xlink" x="0px" y="0px"
	 width="63.988px" height="50.649px" viewBox="0 0 63.988 50.649" enable-background="new 0 0 63.988 50.649" xml:space="preserve">
<g id="BG">
</g>
<g id="_x24_">
</g>
<g id="UI">
	<g>
		<linearGradient id="SVGID_1_" gradientUnits="userSpaceOnUse" x1="31.9941" y1="50.6494" x2="31.9941" y2="0">
			<stop  offset="0" style="stop-color:#86C166"/>
			<stop  offset="0.0068" style="stop-color:#80BF62"/>
			<stop  offset="0.0493" style="stop-color:#5FB24E"/>
			<stop  offset="0.0931" style="stop-color:#45A83F"/>
			<stop  offset="0.138" style="stop-color:#33A234"/>
			<stop  offset="0.1848" style="stop-color:#289D2D"/>
			<stop  offset="0.2366" style="stop-color:#249C2B"/>
			<stop  offset="0.2909" style="stop-color:#38A437"/>
			<stop  offset="0.3829" style="stop-color:#55AE48"/>
			<stop  offset="0.482" style="stop-color:#6AB755"/>
			<stop  offset="0.5904" style="stop-color:#7ABC5F"/>
			<stop  offset="0.715" style="stop-color:#83C064"/>
			<stop  offset="0.8925" style="stop-color:#86C166"/>
			<stop  offset="1" style="stop-color:#BEE0A2"/>
		</linearGradient>
		<path fill="url(#SVGID_1_)" d="M63.988,50.649V13.511C63.988,6.048,58.323,0,51.336,0H0v50.649H63.988z"/>
		<linearGradient id="SVGID_2_" gradientUnits="userSpaceOnUse" x1="30.0054" y1="48.4014" x2="30.0054" y2="3.001">
			<stop  offset="0.2151" style="stop-color:#FFFFFF;stop-opacity:0.03"/>
			<stop  offset="0.8482" style="stop-color:#FFFFFF;stop-opacity:0.5164"/>
			<stop  offset="0.957" style="stop-color:#FFFFFF;stop-opacity:0.6"/>
		</linearGradient>
		<path opacity="0.6" fill="url(#SVGID_2_)" d="M60.011,48.401V15.112c0-6.69-5.313-12.111-11.866-12.111H0v45.4H60.011z"/>
		<g>
			<g>
				<g>
					<path fill-rule="evenodd" clip-rule="evenodd" fill="#FFFFFF" d="M38.84,40.552c-4.925,0-9.85,0-14.775,0
						c-0.016-0.011-0.029-0.028-0.045-0.032c-1.394-0.357-2.064-1.16-2.182-2.567c-0.191-2.223-0.394-4.443-0.593-6.667
						C21,28.571,20.754,25.856,20.51,23.14c-0.051-0.527-0.103-1.057-0.155-1.601c-0.306,0-0.58,0.003-0.855,0
						c-0.573-0.006-0.927-0.355-0.93-0.929c-0.006-0.563-0.02-1.125,0.003-1.688c0.065-1.782,0.909-3.07,2.503-3.86
						c0.563-0.278,1.171-0.396,1.8-0.393c0.846,0,1.692,0,2.567,0c0-0.323-0.012-0.618,0.001-0.91
						c0.05-1.017,0.52-1.779,1.427-2.247c0.247-0.128,0.534-0.188,0.804-0.28c2.519,0,5.039,0,7.557,0
						c0.02,0.01,0.032,0.022,0.052,0.03c1.494,0.378,2.184,1.267,2.184,2.812c0,0.196,0,0.392,0,0.596c0.914,0,1.779-0.01,2.648,0
						c1.968,0.022,3.729,1.416,4.092,3.351c0.159,0.84,0.106,1.725,0.127,2.59c0.014,0.573-0.354,0.923-0.928,0.929
						c-0.28,0.003-0.562,0-0.853,0c-0.017,0.133-0.032,0.225-0.042,0.32c-0.178,2.001-0.353,4.006-0.534,6.009
						c-0.301,3.372-0.611,6.742-0.911,10.112c-0.096,1.11-0.586,1.938-1.632,2.383C39.244,40.447,39.038,40.489,38.84,40.552z
						 M22.095,21.556c0.014,0.194,0.021,0.374,0.038,0.552c0.239,2.643,0.483,5.281,0.723,7.921
						c0.236,2.633,0.469,5.264,0.706,7.896c0.057,0.616,0.378,0.906,0.99,0.906c4.599,0.002,9.198,0.002,13.801,0
						c0.601,0,0.923-0.28,0.987-0.876c0.051-0.465,0.085-0.93,0.125-1.398c0.198-2.211,0.395-4.426,0.596-6.638
						c0.219-2.434,0.443-4.864,0.663-7.296c0.032-0.355,0.056-0.71,0.085-1.067C34.551,21.556,28.333,21.556,22.095,21.556z
						 M20.251,19.806c7.497,0,14.924,0,22.368,0c0-0.236,0-0.457,0-0.674c-0.002-1.655-1.087-2.744-2.738-2.745
						c-2.996-0.003-5.99,0-8.982,0c-2.662,0-5.325-0.003-7.987,0.001c-1.234,0.001-2.275,0.781-2.537,1.948
						C20.27,18.804,20.289,19.299,20.251,19.806z M35.747,14.655c0-0.124,0-0.227,0-0.329c-0.001-0.202,0.012-0.401-0.006-0.6
						c-0.042-0.441-0.397-0.771-0.849-0.772c-2.297-0.007-4.597-0.007-6.894,0c-0.425,0.001-0.785,0.315-0.827,0.729
						c-0.031,0.317-0.006,0.642-0.006,0.973C30.027,14.655,32.866,14.655,35.747,14.655z"/>
					<path fill-rule="evenodd" clip-rule="evenodd" fill="#FFFFFF" d="M27.593,30.229c0.086,1.972,0.173,3.947,0.257,5.918
						c0.023,0.549-0.311,0.938-0.798,0.967c-0.495,0.03-0.888-0.343-0.915-0.892c-0.101-2.192-0.199-4.385-0.295-6.577
						c-0.08-1.812-0.164-3.623-0.236-5.435c-0.025-0.716,0.618-1.16,1.225-0.858c0.334,0.165,0.476,0.455,0.491,0.813
						c0.061,1.383,0.12,2.766,0.181,4.148c0.027,0.637,0.058,1.275,0.088,1.916H27.593z"/>
					<path fill-rule="evenodd" clip-rule="evenodd" fill="#FFFFFF" d="M37.038,30.134c-0.085,1.943-0.173,3.89-0.262,5.835
						c-0.007,0.15-0.009,0.305-0.039,0.454c-0.09,0.441-0.485,0.73-0.917,0.689c-0.435-0.043-0.775-0.404-0.766-0.854
						c0.012-0.646,0.044-1.296,0.073-1.946c0.148-3.372,0.303-6.746,0.456-10.121c0.021-0.515,0.315-0.867,0.764-0.928
						c0.392-0.051,0.788,0.196,0.909,0.585c0.035,0.116,0.047,0.244,0.042,0.366c-0.085,1.975-0.172,3.947-0.258,5.92H37.038z"/>
					<path fill-rule="evenodd" clip-rule="evenodd" fill="#FFFFFF" d="M32.31,30.2c0,1.995,0.005,3.988-0.001,5.981
						c0,0.677-0.585,1.108-1.171,0.869c-0.329-0.136-0.507-0.391-0.541-0.743c-0.01-0.085,0-0.173,0-0.258c0-3.91,0-7.818,0-11.729
						c0-0.124-0.01-0.251,0.016-0.371c0.086-0.422,0.473-0.718,0.892-0.691c0.432,0.027,0.777,0.376,0.805,0.82
						c0.006,0.087,0.001,0.172,0.001,0.259C32.31,26.292,32.31,28.246,32.31,30.2z"/>
				</g>
			</g>
		</g>
	</g>
</g>
<g id="選單">
</g>
</svg>
