<?xml version="1.0" encoding="utf-8"?>
<!-- Generator: Adobe Illustrator 16.0.3, SVG Export Plug-In . SVG Version: 6.00 Build 0)  -->
<!DOCTYPE svg PUBLIC "-//W3C//DTD SVG 1.1//EN" "http://www.w3.org/Graphics/SVG/1.1/DTD/svg11.dtd">
<svg version="1.1" xmlns="http://www.w3.org/2000/svg" xmlns:xlink="http://www.w3.org/1999/xlink" x="0px" y="0px"
	 width="351.508px" height="64.591px" viewBox="0 0 351.508 64.591" enable-background="new 0 0 351.508 64.591"
	 xml:space="preserve">
<g id="BG">
</g>
<g id="UI">
	<g>
		<g>
			<g opacity="0.2">
				<path fill="#231815" d="M351.508,36.286c0,15.632-9.87,28.305-22.048,28.305H22.048C9.873,64.591,0,51.918,0,36.286v-7.981
					C0,12.673,9.873,0,22.048,0H329.46c12.178,0,22.048,12.673,22.048,28.305V36.286z"/>
			</g>
			<g>
				<path fill="#FFFFFF" d="M348.842,35.179c0,14.56-9.758,26.363-21.796,26.363H22.796C10.76,61.542,1,49.739,1,35.179v-7.434
					C1,13.186,10.76,1.383,22.796,1.383h304.25c12.038,0,21.796,11.803,21.796,26.362V35.179z"/>
			</g>
			<g>
				<path fill="#9FA0A0" d="M342.844,34.823c0,13.258-8.96,23.052-20.013,23.052H27.011c-11.051,0-20.013-9.794-20.013-23.052
					v-6.769c0-13.257,8.962-24.005,20.013-24.005h295.82c11.053,0,20.013,10.748,20.013,24.005V34.823z"/>
			</g>
			<g>
				<linearGradient id="SVGID_1_" gradientUnits="userSpaceOnUse" x1="174.9209" y1="55.542" x2="174.9209" y2="6.3828">
					<stop  offset="0" style="stop-color:#86C166"/>
					<stop  offset="0.0068" style="stop-color:#80BF62"/>
					<stop  offset="0.0493" style="stop-color:#5FB24E"/>
					<stop  offset="0.0931" style="stop-color:#45A83F"/>
					<stop  offset="0.138" style="stop-color:#33A234"/>
					<stop  offset="0.1848" style="stop-color:#289D2D"/>
					<stop  offset="0.2366" style="stop-color:#249C2B"/>
					<stop  offset="0.2909" style="stop-color:#38A437"/>
					<stop  offset="0.3829" style="stop-color:#55AE48"/>
					<stop  offset="0.482" style="stop-color:#6AB755"/>
					<stop  offset="0.5904" style="stop-color:#7ABC5F"/>
					<stop  offset="0.715" style="stop-color:#83C064"/>
					<stop  offset="0.8925" style="stop-color:#86C166"/>
					<stop  offset="1" style="stop-color:#BEE0A2"/>
				</linearGradient>
				<path fill="url(#SVGID_1_)" d="M338.585,34.488c0,12.108-8.184,21.054-18.277,21.054H29.534
					c-10.092,0-18.277-8.945-18.277-21.054v-6.182c0-12.107,8.186-21.923,18.277-21.923h290.773
					c10.094,0,18.277,9.816,18.277,21.923V34.488z"/>
			</g>
			<g opacity="0.45">
				<linearGradient id="SVGID_2_" gradientUnits="userSpaceOnUse" x1="174.9209" y1="50.542" x2="174.9209" y2="9.3828">
					<stop  offset="0" style="stop-color:#FFFFFF;stop-opacity:0.03"/>
					<stop  offset="0.957" style="stop-color:#FFFFFF;stop-opacity:0.6"/>
				</linearGradient>
				<path fill="url(#SVGID_2_)" d="M326.392,32.915c0,10.138-7.512,17.627-16.778,17.627H40.229c-9.264,0-16.778-7.49-16.778-17.627
					v-5.176c0-10.137,7.515-18.355,16.778-18.355h269.385c9.267,0,16.778,8.219,16.778,18.355V32.915z"/>
			</g>
		</g>
		<g>
			<path fill="#F7F8F8" d="M170.365,37.624c-0.229,2.484-0.558,4.232-0.987,5.245c-0.429,1.013-0.979,1.657-1.647,1.932
				c-0.67,0.274-1.823,0.412-3.46,0.412c-3.445,0-5.448-0.086-6.009-0.258c-0.561-0.171-0.984-0.48-1.271-0.927
				c-0.286-0.447-0.429-1.093-0.429-1.94v-8.292h-4.43c-0.436,3.102-1.416,5.522-2.944,7.262s-4.289,3.268-8.284,4.584l-1.717-2.713
				c3.411-0.927,5.832-2.114,7.263-3.562s2.243-3.305,2.438-5.571h-5.597V22.722h23.143v11.074h-6.713v7.485
				c0,0.298,0.206,0.521,0.618,0.669c0.412,0.149,1.391,0.223,2.936,0.223c1.512,0,2.436-0.08,2.773-0.24
				c0.337-0.16,0.592-0.532,0.764-1.116c0.172-0.584,0.338-2.061,0.498-4.43L170.365,37.624z M152.579,16.215
				c-2.701,2.358-6.547,4.687-11.537,6.987l-1.819-2.627c4.04-1.682,7.576-3.736,10.609-6.163L152.579,16.215z M163.206,30.688
				v-4.91h-16.704v4.91H163.206z M170.485,20.919l-2.043,2.386c-3.536-2.518-7.303-4.646-11.297-6.387l2.043-2.506
				C162.691,15.958,166.457,18.127,170.485,20.919z"/>
			<path fill="#F7F8F8" d="M188.13,30.276c-1.064,0.641-2.105,1.167-3.124,1.58v10.662c0,0.561-0.166,1.073-0.498,1.536
				c-0.332,0.464-0.724,0.775-1.176,0.936c-0.452,0.16-1.285,0.24-2.498,0.24c-0.504,0-0.968-0.017-1.391-0.052l-1.013-3.021
				c0.469,0.023,1.441,0.034,2.918,0.034c0.16,0,0.312-0.074,0.455-0.223c0.143-0.148,0.215-0.309,0.215-0.48v-8.189
				c-1.408,0.549-2.489,0.961-3.245,1.236l-1.013-2.918c1.259-0.469,2.678-1.024,4.258-1.666v-6.713h-3.915v-3.056h3.915V14.55
				h2.987v5.631h2.627v3.056h-2.627v5.288c1.053-0.481,1.939-0.927,2.661-1.339L188.13,30.276z M208.87,36.783h-9.202
				c-0.526,1.969-1.677,3.731-3.45,5.288c-1.774,1.557-3.841,2.678-6.198,3.365l-1.819-2.61c4.349-1.133,7.113-3.147,8.292-6.043
				h-8.018v-2.815h1.769v-8.996c-0.218,0.24-0.521,0.486-0.91,0.738l-1.408-2.747c3.399-2.941,5.752-5.814,7.057-8.619l3.09,0.772
				c-0.298,0.664-0.555,1.156-0.772,1.477h7.777v2.747c-0.515,0.778-1.253,1.694-2.215,2.747h4.292v11.88h1.717V36.783z
				 M201.248,19.34h-5.734c-0.813,1.007-1.586,1.923-2.317,2.747h5.768C199.902,21.137,200.664,20.221,201.248,19.34z M204.2,33.967
				v-9.031h-3.948c-0.194,0.904-0.344,1.534-0.446,1.889c1.522,1.408,2.787,2.815,3.794,4.223l-2.181,1.906
				c-0.973-1.477-1.877-2.626-2.712-3.451c-0.79,1.454-1.854,2.626-3.193,3.52l-1.871-2.215c1.968-1.19,3.238-3.147,3.811-5.872
				h-4.223v9.031h3.896c0.058-0.561,0.104-1.087,0.138-1.58l3.107,0.068l-0.12,1.511H204.2z M209.042,43.496l-2.061,2.146
				c-1.625-1.66-4.114-3.525-7.468-5.597l1.975-2.18C204.452,39.604,206.97,41.481,209.042,43.496z"/>
		</g>
	</g>
</g>
<g id="_x24_">
</g>
<g id="選單">
</g>
</svg>
