<?xml version="1.0" encoding="utf-8"?>
<!-- Generator: Adobe Illustrator 16.0.3, SVG Export Plug-In . SVG Version: 6.00 Build 0)  -->
<!DOCTYPE svg PUBLIC "-//W3C//DTD SVG 1.1//EN" "http://www.w3.org/Graphics/SVG/1.1/DTD/svg11.dtd">
<svg version="1.1" xmlns="http://www.w3.org/2000/svg" xmlns:xlink="http://www.w3.org/1999/xlink" x="0px" y="0px"
	 width="38.138px" height="55.09px" viewBox="0 0 38.138 55.09" enable-background="new 0 0 38.138 55.09" xml:space="preserve">
<g id="BG">
</g>
<g id="UI">
	<g>
		<path opacity="0.2" fill="#231815" d="M32.353,54.082L0.909,29.324c-1.212-0.952-1.212-2.645,0-3.59l31.74-24.996
			c0.917-0.72,2.31-0.934,3.516-0.551c1.191,0.394,1.972,1.328,1.972,2.346v49.993c0,0.005,0,0.012,0,0.022
			c0,1.407-1.44,2.542-3.214,2.542C33.885,55.09,32.941,54.689,32.353,54.082z"/>
		<path fill="#FFFFFF" d="M31.399,51.299L2.509,28.788c-1.114-0.866-1.114-2.405,0-3.265L31.671,2.796
			c0.842-0.655,2.123-0.849,3.231-0.501c1.095,0.358,1.813,1.208,1.813,2.134v45.455c0,0.004,0,0.011,0,0.021
			c0,1.279-1.323,2.311-2.954,2.311C32.806,52.215,31.939,51.85,31.399,51.299z"/>
		<path fill="#9FA0A0" d="M30.937,48.408L5.507,28.594c-0.98-0.762-0.98-2.117,0-2.874L31.176,5.716
			c0.741-0.577,1.868-0.747,2.844-0.441c0.963,0.316,1.596,1.063,1.596,1.878v40.01c0,0.004,0,0.009,0,0.019
			c0,1.126-1.166,2.034-2.601,2.034C32.175,49.215,31.412,48.894,30.937,48.408z"/>
		<linearGradient id="SVGID_1_" gradientUnits="userSpaceOnUse" x1="14.4707" y1="8.8613" x2="32.4707" y2="38.8613">
			<stop  offset="0" style="stop-color:#BEE0A2"/>
			<stop  offset="0.2043" style="stop-color:#86C166"/>
			<stop  offset="0.3067" style="stop-color:#7FBF62"/>
			<stop  offset="0.4513" style="stop-color:#6DB857"/>
			<stop  offset="0.6212" style="stop-color:#4FAC45"/>
			<stop  offset="0.8089" style="stop-color:#259C2B"/>
			<stop  offset="0.8118" style="stop-color:#249C2B"/>
		</linearGradient>
		<path fill="url(#SVGID_1_)" d="M29.614,45.793L7.315,28.418c-0.859-0.668-0.859-1.856,0-2.52L29.823,8.357
			c0.65-0.505,1.639-0.655,2.494-0.387c0.846,0.277,1.4,0.932,1.4,1.646V44.7c0,0.004,0,0.009,0,0.017
			c0,0.987-1.021,1.783-2.28,1.783C30.7,46.5,30.031,46.219,29.614,45.793z"/>
		<path opacity="0.2" fill="#BEE0A2" d="M14.281,33.846l15.333,11.948c0.417,0.426,1.086,0.707,1.822,0.707
			c1.259,0,2.28-0.796,2.28-1.783c0-0.008,0-0.013,0-0.017v-5.351C30.316,40.758,24.349,39.682,14.281,33.846z"/>
		<linearGradient id="SVGID_2_" gradientUnits="userSpaceOnUse" x1="18.8774" y1="17.1343" x2="31.6411" y2="31.278">
			<stop  offset="0.043" style="stop-color:#FFFFFF;stop-opacity:0.6"/>
			<stop  offset="1" style="stop-color:#FFFFFF;stop-opacity:0.03"/>
		</linearGradient>
		<path fill="url(#SVGID_2_)" d="M28.751,41.992L10.45,27.731c-0.707-0.549-0.707-1.523,0-2.068l18.474-14.398
			c0.534-0.415,1.343-0.538,2.047-0.317c0.694,0.227,1.148,0.764,1.148,1.352v28.795c0,0.004,0,0.008,0,0.014
			c0,0.811-0.839,1.464-1.871,1.464C29.644,42.573,29.094,42.342,28.751,41.992z"/>
	</g>
</g>
<g id="_x24_">
</g>
<g id="選單">
</g>
</svg>
