<?xml version="1.0" encoding="utf-8"?>
<!-- Generator: Adobe Illustrator 16.0.0, SVG Export Plug-In . SVG Version: 6.00 Build 0)  -->
<!DOCTYPE svg PUBLIC "-//W3C//DTD SVG 1.1//EN" "http://www.w3.org/Graphics/SVG/1.1/DTD/svg11.dtd">
<svg version="1.1" id="圖層_1" xmlns="http://www.w3.org/2000/svg" xmlns:xlink="http://www.w3.org/1999/xlink" x="0px" y="0px"
	 width="716px" height="711px" viewBox="0 0 716 711" enable-background="new 0 0 716 711" xml:space="preserve">
<g id="圖層_1_1_">
	<g>
		<line fill="none" stroke="#FCFCFC" stroke-width="3" stroke-miterlimit="10" x1="358" y1="2.202" x2="358" y2="708.798"/>
		<line fill="none" stroke="#FCFCFC" stroke-width="3" stroke-miterlimit="10" x1="321.07" y1="4.137" x2="394.93" y2="706.863"/>
		<line fill="none" stroke="#FCFCFC" stroke-width="3" stroke-miterlimit="10" x1="284.545" y1="9.922" x2="431.455" y2="701.075"/>
		
			<line fill="none" stroke="#FCFCFC" stroke-width="3" stroke-miterlimit="10" x1="248.824" y1="19.493" x2="467.177" y2="691.507"/>
		
			<line fill="none" stroke="#FCFCFC" stroke-width="3" stroke-miterlimit="10" x1="214.301" y1="32.746" x2="501.699" y2="678.254"/>
		<line fill="none" stroke="#FCFCFC" stroke-width="3" stroke-miterlimit="10" x1="181.35" y1="49.535" x2="534.648" y2="661.465"/>
		
			<line fill="none" stroke="#FCFCFC" stroke-width="3" stroke-miterlimit="10" x1="150.336" y1="69.676" x2="565.664" y2="641.323"/>
		
			<line fill="none" stroke="#FCFCFC" stroke-width="3" stroke-miterlimit="10" x1="121.598" y1="92.948" x2="594.402" y2="618.052"/>
		
			<line fill="none" stroke="#FCFCFC" stroke-width="3" stroke-miterlimit="10" x1="95.447" y1="119.097" x2="620.552" y2="591.903"/>
		
			<line fill="none" stroke="#FCFCFC" stroke-width="3" stroke-miterlimit="10" x1="72.176" y1="147.836" x2="643.824" y2="563.161"/>
		
			<line fill="none" stroke="#FCFCFC" stroke-width="3" stroke-miterlimit="10" x1="52.034" y1="178.851" x2="663.968" y2="532.149"/>
		<line fill="none" stroke="#FCFCFC" stroke-width="3" stroke-miterlimit="10" x1="35.246" y1="211.8" x2="680.757" y2="499.198"/>
		<line fill="none" stroke="#FCFCFC" stroke-width="3" stroke-miterlimit="10" x1="21.993" y1="246.325" x2="694.01" y2="464.675"/>
		
			<line fill="none" stroke="#FCFCFC" stroke-width="3" stroke-miterlimit="10" x1="12.422" y1="282.045" x2="703.578" y2="428.952"/>
		<line fill="none" stroke="#FCFCFC" stroke-width="3" stroke-miterlimit="10" x1="6.637" y1="318.57" x2="709.363" y2="392.43"/>
		<line fill="none" stroke="#FCFCFC" stroke-width="3" stroke-miterlimit="10" x1="4.701" y1="355.5" x2="711.302" y2="355.5"/>
		<line fill="none" stroke="#FCFCFC" stroke-width="3" stroke-miterlimit="10" x1="6.637" y1="392.43" x2="709.363" y2="318.57"/>
		
			<line fill="none" stroke="#FCFCFC" stroke-width="3" stroke-miterlimit="10" x1="12.422" y1="428.952" x2="703.578" y2="282.045"/>
		<line fill="none" stroke="#FCFCFC" stroke-width="3" stroke-miterlimit="10" x1="21.993" y1="464.675" x2="694.01" y2="246.325"/>
		<line fill="none" stroke="#FCFCFC" stroke-width="3" stroke-miterlimit="10" x1="35.246" y1="499.198" x2="680.757" y2="211.8"/>
		
			<line fill="none" stroke="#FCFCFC" stroke-width="3" stroke-miterlimit="10" x1="52.034" y1="532.149" x2="663.968" y2="178.851"/>
		
			<line fill="none" stroke="#FCFCFC" stroke-width="3" stroke-miterlimit="10" x1="72.176" y1="563.161" x2="643.824" y2="147.836"/>
		
			<line fill="none" stroke="#FCFCFC" stroke-width="3" stroke-miterlimit="10" x1="95.447" y1="591.903" x2="620.552" y2="119.097"/>
		
			<line fill="none" stroke="#FCFCFC" stroke-width="3" stroke-miterlimit="10" x1="121.598" y1="618.052" x2="594.402" y2="92.948"/>
		
			<line fill="none" stroke="#FCFCFC" stroke-width="3" stroke-miterlimit="10" x1="150.336" y1="641.323" x2="565.664" y2="69.676"/>
		<line fill="none" stroke="#FCFCFC" stroke-width="3" stroke-miterlimit="10" x1="181.35" y1="661.465" x2="534.648" y2="49.535"/>
		
			<line fill="none" stroke="#FCFCFC" stroke-width="3" stroke-miterlimit="10" x1="214.301" y1="678.254" x2="501.699" y2="32.746"/>
		
			<line fill="none" stroke="#FCFCFC" stroke-width="3" stroke-miterlimit="10" x1="248.824" y1="691.507" x2="467.177" y2="19.493"/>
		<line fill="none" stroke="#FCFCFC" stroke-width="3" stroke-miterlimit="10" x1="284.545" y1="701.075" x2="431.455" y2="9.922"/>
		<line fill="none" stroke="#FCFCFC" stroke-width="3" stroke-miterlimit="10" x1="321.07" y1="706.863" x2="394.93" y2="4.137"/>
	</g>
</g>
<g id="按鍵">
</g>
<g id="電子鐘">
</g>
<g id="軌跡">
</g>
<g id="軌跡_時" display="none">
</g>
<g id="軌跡_分" display="none">
</g>
<g id="軌跡_秒" display="none">
</g>
<g id="秒針">
</g>
<g id="秒針_變">
</g>
<g id="分針">
</g>
<g id="分針_變">
</g>
<g id="時針">
</g>
<g id="時針_變">
</g>
<g id="按鈕_邊">
</g>
<g id="中心">
</g>
</svg>
