<?xml version="1.0" encoding="utf-8"?>
<!-- Generator: Adobe Illustrator 16.0.3, SVG Export Plug-In . SVG Version: 6.00 Build 0)  -->
<!DOCTYPE svg PUBLIC "-//W3C//DTD SVG 1.1//EN" "http://www.w3.org/Graphics/SVG/1.1/DTD/svg11.dtd">
<svg version="1.1" xmlns="http://www.w3.org/2000/svg" xmlns:xlink="http://www.w3.org/1999/xlink" x="0px" y="0px"
	 width="818.999px" height="819.001px" viewBox="0 0 818.999 819.001" enable-background="new 0 0 818.999 819.001"
	 xml:space="preserve">
<g id="BG">
</g>
<g id="物件">
</g>
<g id="word">
	<g>
		<g>
			<line fill="none" stroke="#000000" stroke-width="2" stroke-miterlimit="10" x1="409.5" y1="1.183" x2="409.5" y2="54.548"/>
			
				<line fill="none" stroke="#000000" stroke-width="2" stroke-miterlimit="10" x1="285.908" y1="29.123" x2="295.178" y2="57.655"/>
			
				<line fill="none" stroke="#000000" stroke-width="2" stroke-miterlimit="10" x1="168.733" y1="78.456" x2="200.863" y2="122.338"/>
			
				<line fill="none" stroke="#000000" stroke-width="2" stroke-miterlimit="10" x1="85.932" y1="174.414" x2="110.202" y2="192.048"/>
			<line fill="none" stroke="#000000" stroke-width="2" stroke-miterlimit="10" x1="20.585" y1="283.136" x2="71.92" y2="299.814"/>
			<line fill="none" stroke="#000000" stroke-width="2" stroke-miterlimit="10" x1="9.547" y1="409.5" x2="39.547" y2="409.5"/>
			<line fill="none" stroke="#000000" stroke-width="2" stroke-miterlimit="10" x1="20.022" y1="535.979" x2="71.92" y2="519.187"/>
			
				<line fill="none" stroke="#000000" stroke-width="2" stroke-miterlimit="10" x1="85.932" y1="644.587" x2="110.202" y2="626.952"/>
			
				<line fill="none" stroke="#000000" stroke-width="2" stroke-miterlimit="10" x1="169.226" y1="740.448" x2="200.863" y2="696.663"/>
			
				<line fill="none" stroke="#000000" stroke-width="2" stroke-miterlimit="10" x1="285.908" y1="789.878" x2="295.178" y2="761.346"/>
			<line fill="none" stroke="#000000" stroke-width="2" stroke-miterlimit="10" x1="409.5" y1="817.229" x2="409.5" y2="764.452"/>
			
				<line fill="none" stroke="#000000" stroke-width="2" stroke-miterlimit="10" x1="533.092" y1="789.878" x2="523.821" y2="761.346"/>
			
				<line fill="none" stroke="#000000" stroke-width="2" stroke-miterlimit="10" x1="649.627" y1="740.007" x2="618.136" y2="696.663"/>
			
				<line fill="none" stroke="#000000" stroke-width="2" stroke-miterlimit="10" x1="733.067" y1="644.587" x2="708.797" y2="626.952"/>
			
				<line fill="none" stroke="#000000" stroke-width="2" stroke-miterlimit="10" x1="798.066" y1="535.753" x2="747.079" y2="519.187"/>
			<line fill="none" stroke="#000000" stroke-width="2" stroke-miterlimit="10" x1="809.452" y1="409.5" x2="779.452" y2="409.5"/>
			
				<line fill="none" stroke="#000000" stroke-width="2" stroke-miterlimit="10" x1="798.426" y1="283.13" x2="747.079" y2="299.814"/>
			
				<line fill="none" stroke="#000000" stroke-width="2" stroke-miterlimit="10" x1="733.067" y1="174.414" x2="708.797" y2="192.048"/>
			
				<line fill="none" stroke="#000000" stroke-width="2" stroke-miterlimit="10" x1="649.785" y1="78.775" x2="618.136" y2="122.338"/>
			
				<line fill="none" stroke="#000000" stroke-width="2" stroke-miterlimit="10" x1="533.092" y1="29.123" x2="523.821" y2="57.655"/>
		</g>
		<g>
			<line fill="none" stroke="#000000" stroke-width="2" stroke-miterlimit="10" x1="409.5" y1="1.283" x2="409.5" y2="24.548"/>
			<line fill="none" stroke="#000000" stroke-width="2" stroke-miterlimit="10" x1="383.867" y1="2.089" x2="385.328" y2="25.308"/>
			<line fill="none" stroke="#000000" stroke-width="2" stroke-miterlimit="10" x1="358.336" y1="4.503" x2="361.252" y2="27.583"/>
			<line fill="none" stroke="#000000" stroke-width="2" stroke-miterlimit="10" x1="333.008" y1="8.515" x2="337.367" y2="31.366"/>
			<line fill="none" stroke="#000000" stroke-width="2" stroke-miterlimit="10" x1="307.98" y1="14.108" x2="313.766" y2="36.642"/>
			<line fill="none" stroke="#000000" stroke-width="2" stroke-miterlimit="10" x1="283.354" y1="21.263" x2="290.543" y2="43.39"/>
			<line fill="none" stroke="#000000" stroke-width="2" stroke-miterlimit="10" x1="259.225" y1="29.95" x2="267.789" y2="51.581"/>
			
				<line fill="none" stroke="#000000" stroke-width="2" stroke-miterlimit="10" x1="235.689" y1="40.135" x2="245.595" y2="61.186"/>
			<line fill="none" stroke="#000000" stroke-width="2" stroke-miterlimit="10" x1="212.84" y1="51.777" x2="224.047" y2="72.164"/>
			
				<line fill="none" stroke="#000000" stroke-width="2" stroke-miterlimit="10" x1="190.766" y1="64.831" x2="203.232" y2="84.475"/>
			<line fill="none" stroke="#000000" stroke-width="2" stroke-miterlimit="10" x1="169.556" y1="79.246" x2="183.23" y2="98.067"/>
			
				<line fill="none" stroke="#000000" stroke-width="2" stroke-miterlimit="10" x1="149.293" y1="94.964" x2="164.122" y2="112.89"/>
			
				<line fill="none" stroke="#000000" stroke-width="2" stroke-miterlimit="10" x1="130.057" y1="111.923" x2="145.981" y2="128.882"/>
			
				<line fill="none" stroke="#000000" stroke-width="2" stroke-miterlimit="10" x1="111.922" y1="130.057" x2="128.881" y2="145.982"/>
			
				<line fill="none" stroke="#000000" stroke-width="2" stroke-miterlimit="10" x1="94.963" y1="149.293" x2="112.889" y2="164.122"/>
			
				<line fill="none" stroke="#000000" stroke-width="2" stroke-miterlimit="10" x1="79.245" y1="169.557" x2="98.066" y2="183.231"/>
			<line fill="none" stroke="#000000" stroke-width="2" stroke-miterlimit="10" x1="64.83" y1="190.767" x2="84.474" y2="203.232"/>
			
				<line fill="none" stroke="#000000" stroke-width="2" stroke-miterlimit="10" x1="51.776" y1="212.841" x2="72.164" y2="224.048"/>
			<line fill="none" stroke="#000000" stroke-width="2" stroke-miterlimit="10" x1="40.134" y1="235.69" x2="61.185" y2="245.596"/>
			<line fill="none" stroke="#000000" stroke-width="2" stroke-miterlimit="10" x1="29.949" y1="259.226" x2="51.58" y2="267.79"/>
			
				<line fill="none" stroke="#000000" stroke-width="2" stroke-miterlimit="10" x1="21.262" y1="283.354" x2="43.389" y2="290.544"/>
			
				<line fill="none" stroke="#000000" stroke-width="2" stroke-miterlimit="10" x1="14.107" y1="307.981" x2="36.642" y2="313.767"/>
			<line fill="none" stroke="#000000" stroke-width="2" stroke-miterlimit="10" x1="8.514" y1="333.008" x2="31.365" y2="337.367"/>
			<line fill="none" stroke="#000000" stroke-width="2" stroke-miterlimit="10" x1="4.502" y1="358.337" x2="27.583" y2="361.253"/>
			<line fill="none" stroke="#000000" stroke-width="2" stroke-miterlimit="10" x1="2.088" y1="383.868" x2="25.307" y2="385.329"/>
			<line fill="none" stroke="#000000" stroke-width="2" stroke-miterlimit="10" x1="1.283" y1="409.5" x2="24.547" y2="409.5"/>
			<line fill="none" stroke="#000000" stroke-width="2" stroke-miterlimit="10" x1="2.088" y1="435.132" x2="25.307" y2="433.671"/>
			<line fill="none" stroke="#000000" stroke-width="2" stroke-miterlimit="10" x1="4.502" y1="460.663" x2="27.583" y2="457.747"/>
			<line fill="none" stroke="#000000" stroke-width="2" stroke-miterlimit="10" x1="8.514" y1="485.993" x2="31.365" y2="481.634"/>
			<line fill="none" stroke="#000000" stroke-width="2" stroke-miterlimit="10" x1="14.107" y1="511.02" x2="36.642" y2="505.234"/>
			
				<line fill="none" stroke="#000000" stroke-width="2" stroke-miterlimit="10" x1="21.262" y1="535.646" x2="43.389" y2="528.457"/>
			<line fill="none" stroke="#000000" stroke-width="2" stroke-miterlimit="10" x1="29.949" y1="559.774" x2="51.58" y2="551.21"/>
			
				<line fill="none" stroke="#000000" stroke-width="2" stroke-miterlimit="10" x1="40.134" y1="583.311" x2="61.185" y2="573.405"/>
			<line fill="none" stroke="#000000" stroke-width="2" stroke-miterlimit="10" x1="51.776" y1="606.16" x2="72.164" y2="594.952"/>
			<line fill="none" stroke="#000000" stroke-width="2" stroke-miterlimit="10" x1="64.83" y1="628.233" x2="84.474" y2="615.769"/>
			<line fill="none" stroke="#000000" stroke-width="2" stroke-miterlimit="10" x1="79.245" y1="649.444" x2="98.066" y2="635.77"/>
			
				<line fill="none" stroke="#000000" stroke-width="2" stroke-miterlimit="10" x1="94.963" y1="669.708" x2="112.889" y2="654.878"/>
			
				<line fill="none" stroke="#000000" stroke-width="2" stroke-miterlimit="10" x1="111.922" y1="688.944" x2="128.881" y2="673.019"/>
			
				<line fill="none" stroke="#000000" stroke-width="2" stroke-miterlimit="10" x1="130.057" y1="707.077" x2="145.981" y2="690.118"/>
			
				<line fill="none" stroke="#000000" stroke-width="2" stroke-miterlimit="10" x1="149.293" y1="724.036" x2="164.122" y2="706.111"/>
			
				<line fill="none" stroke="#000000" stroke-width="2" stroke-miterlimit="10" x1="169.556" y1="739.755" x2="183.23" y2="720.933"/>
			
				<line fill="none" stroke="#000000" stroke-width="2" stroke-miterlimit="10" x1="190.766" y1="754.169" x2="203.232" y2="734.526"/>
			
				<line fill="none" stroke="#000000" stroke-width="2" stroke-miterlimit="10" x1="212.84" y1="767.224" x2="224.047" y2="746.837"/>
			
				<line fill="none" stroke="#000000" stroke-width="2" stroke-miterlimit="10" x1="235.689" y1="778.866" x2="245.595" y2="757.815"/>
			
				<line fill="none" stroke="#000000" stroke-width="2" stroke-miterlimit="10" x1="259.225" y1="789.051" x2="267.789" y2="767.42"/>
			
				<line fill="none" stroke="#000000" stroke-width="2" stroke-miterlimit="10" x1="283.354" y1="797.737" x2="290.543" y2="775.612"/>
			
				<line fill="none" stroke="#000000" stroke-width="2" stroke-miterlimit="10" x1="307.98" y1="804.892" x2="313.766" y2="782.358"/>
			
				<line fill="none" stroke="#000000" stroke-width="2" stroke-miterlimit="10" x1="333.008" y1="810.486" x2="337.367" y2="787.634"/>
			
				<line fill="none" stroke="#000000" stroke-width="2" stroke-miterlimit="10" x1="358.336" y1="814.498" x2="361.252" y2="791.417"/>
			
				<line fill="none" stroke="#000000" stroke-width="2" stroke-miterlimit="10" x1="383.867" y1="816.911" x2="385.328" y2="793.692"/>
			<line fill="none" stroke="#000000" stroke-width="2" stroke-miterlimit="10" x1="409.5" y1="817.718" x2="409.5" y2="794.452"/>
			
				<line fill="none" stroke="#000000" stroke-width="2" stroke-miterlimit="10" x1="435.132" y1="816.911" x2="433.671" y2="793.692"/>
			
				<line fill="none" stroke="#000000" stroke-width="2" stroke-miterlimit="10" x1="460.662" y1="814.498" x2="457.747" y2="791.417"/>
			
				<line fill="none" stroke="#000000" stroke-width="2" stroke-miterlimit="10" x1="485.992" y1="810.486" x2="481.633" y2="787.634"/>
			
				<line fill="none" stroke="#000000" stroke-width="2" stroke-miterlimit="10" x1="511.02" y1="804.892" x2="505.233" y2="782.358"/>
			
				<line fill="none" stroke="#000000" stroke-width="2" stroke-miterlimit="10" x1="535.646" y1="797.737" x2="528.456" y2="775.612"/>
			
				<line fill="none" stroke="#000000" stroke-width="2" stroke-miterlimit="10" x1="559.773" y1="789.051" x2="551.21" y2="767.42"/>
			
				<line fill="none" stroke="#000000" stroke-width="2" stroke-miterlimit="10" x1="583.31" y1="778.866" x2="573.404" y2="757.815"/>
			
				<line fill="none" stroke="#000000" stroke-width="2" stroke-miterlimit="10" x1="606.159" y1="767.224" x2="594.952" y2="746.837"/>
			
				<line fill="none" stroke="#000000" stroke-width="2" stroke-miterlimit="10" x1="628.233" y1="754.169" x2="615.768" y2="734.526"/>
			
				<line fill="none" stroke="#000000" stroke-width="2" stroke-miterlimit="10" x1="649.443" y1="739.755" x2="635.769" y2="720.933"/>
			
				<line fill="none" stroke="#000000" stroke-width="2" stroke-miterlimit="10" x1="669.707" y1="724.036" x2="654.877" y2="706.111"/>
			
				<line fill="none" stroke="#000000" stroke-width="2" stroke-miterlimit="10" x1="688.943" y1="707.077" x2="673.018" y2="690.118"/>
			
				<line fill="none" stroke="#000000" stroke-width="2" stroke-miterlimit="10" x1="707.077" y1="688.944" x2="690.117" y2="673.019"/>
			
				<line fill="none" stroke="#000000" stroke-width="2" stroke-miterlimit="10" x1="724.036" y1="669.708" x2="706.11" y2="654.878"/>
			
				<line fill="none" stroke="#000000" stroke-width="2" stroke-miterlimit="10" x1="739.754" y1="649.444" x2="720.933" y2="635.77"/>
			
				<line fill="none" stroke="#000000" stroke-width="2" stroke-miterlimit="10" x1="754.168" y1="628.233" x2="734.525" y2="615.769"/>
			
				<line fill="none" stroke="#000000" stroke-width="2" stroke-miterlimit="10" x1="767.223" y1="606.16" x2="746.836" y2="594.952"/>
			
				<line fill="none" stroke="#000000" stroke-width="2" stroke-miterlimit="10" x1="778.865" y1="583.311" x2="757.814" y2="573.405"/>
			
				<line fill="none" stroke="#000000" stroke-width="2" stroke-miterlimit="10" x1="789.05" y1="559.774" x2="767.419" y2="551.21"/>
			
				<line fill="none" stroke="#000000" stroke-width="2" stroke-miterlimit="10" x1="797.736" y1="535.646" x2="775.61" y2="528.457"/>
			
				<line fill="none" stroke="#000000" stroke-width="2" stroke-miterlimit="10" x1="804.892" y1="511.02" x2="782.357" y2="505.234"/>
			
				<line fill="none" stroke="#000000" stroke-width="2" stroke-miterlimit="10" x1="810.485" y1="485.993" x2="787.633" y2="481.634"/>
			
				<line fill="none" stroke="#000000" stroke-width="2" stroke-miterlimit="10" x1="814.497" y1="460.663" x2="791.416" y2="457.747"/>
			
				<line fill="none" stroke="#000000" stroke-width="2" stroke-miterlimit="10" x1="816.911" y1="435.132" x2="793.692" y2="433.672"/>
			<line fill="none" stroke="#000000" stroke-width="2" stroke-miterlimit="10" x1="817.716" y1="409.5" x2="794.452" y2="409.5"/>
			
				<line fill="none" stroke="#000000" stroke-width="2" stroke-miterlimit="10" x1="816.911" y1="383.868" x2="793.692" y2="385.329"/>
			
				<line fill="none" stroke="#000000" stroke-width="2" stroke-miterlimit="10" x1="814.497" y1="358.337" x2="791.416" y2="361.253"/>
			
				<line fill="none" stroke="#000000" stroke-width="2" stroke-miterlimit="10" x1="810.485" y1="333.008" x2="787.633" y2="337.367"/>
			
				<line fill="none" stroke="#000000" stroke-width="2" stroke-miterlimit="10" x1="804.892" y1="307.981" x2="782.357" y2="313.767"/>
			
				<line fill="none" stroke="#000000" stroke-width="2" stroke-miterlimit="10" x1="797.736" y1="283.354" x2="775.61" y2="290.544"/>
			
				<line fill="none" stroke="#000000" stroke-width="2" stroke-miterlimit="10" x1="789.05" y1="259.226" x2="767.419" y2="267.79"/>
			
				<line fill="none" stroke="#000000" stroke-width="2" stroke-miterlimit="10" x1="778.865" y1="235.69" x2="757.814" y2="245.596"/>
			
				<line fill="none" stroke="#000000" stroke-width="2" stroke-miterlimit="10" x1="767.223" y1="212.841" x2="746.836" y2="224.048"/>
			
				<line fill="none" stroke="#000000" stroke-width="2" stroke-miterlimit="10" x1="754.168" y1="190.767" x2="734.525" y2="203.232"/>
			
				<line fill="none" stroke="#000000" stroke-width="2" stroke-miterlimit="10" x1="739.754" y1="169.557" x2="720.933" y2="183.231"/>
			
				<line fill="none" stroke="#000000" stroke-width="2" stroke-miterlimit="10" x1="724.036" y1="149.293" x2="706.11" y2="164.122"/>
			
				<line fill="none" stroke="#000000" stroke-width="2" stroke-miterlimit="10" x1="707.077" y1="130.057" x2="690.117" y2="145.982"/>
			
				<line fill="none" stroke="#000000" stroke-width="2" stroke-miterlimit="10" x1="688.943" y1="111.923" x2="673.018" y2="128.882"/>
			
				<line fill="none" stroke="#000000" stroke-width="2" stroke-miterlimit="10" x1="669.707" y1="94.964" x2="654.877" y2="112.89"/>
			
				<line fill="none" stroke="#000000" stroke-width="2" stroke-miterlimit="10" x1="649.443" y1="79.246" x2="635.769" y2="98.067"/>
			
				<line fill="none" stroke="#000000" stroke-width="2" stroke-miterlimit="10" x1="628.233" y1="64.831" x2="615.768" y2="84.475"/>
			
				<line fill="none" stroke="#000000" stroke-width="2" stroke-miterlimit="10" x1="606.159" y1="51.777" x2="594.952" y2="72.164"/>
			<line fill="none" stroke="#000000" stroke-width="2" stroke-miterlimit="10" x1="583.31" y1="40.135" x2="573.404" y2="61.186"/>
			<line fill="none" stroke="#000000" stroke-width="2" stroke-miterlimit="10" x1="559.773" y1="29.95" x2="551.21" y2="51.581"/>
			<line fill="none" stroke="#000000" stroke-width="2" stroke-miterlimit="10" x1="535.646" y1="21.263" x2="528.457" y2="43.39"/>
			<line fill="none" stroke="#000000" stroke-width="2" stroke-miterlimit="10" x1="511.02" y1="14.108" x2="505.233" y2="36.642"/>
			<line fill="none" stroke="#000000" stroke-width="2" stroke-miterlimit="10" x1="485.992" y1="8.515" x2="481.633" y2="31.366"/>
			<line fill="none" stroke="#000000" stroke-width="2" stroke-miterlimit="10" x1="460.662" y1="4.503" x2="457.747" y2="27.583"/>
			<line fill="none" stroke="#000000" stroke-width="2" stroke-miterlimit="10" x1="435.132" y1="2.089" x2="433.671" y2="25.308"/>
		</g>
		<circle fill="none" stroke="#000000" stroke-width="3" stroke-miterlimit="10" cx="409.5" cy="409.5" r="408"/>
		<g>
			<g>
				<g>
					<path d="M395.885,81.352c0-4.886,0.503-8.817,1.508-11.796c1.005-2.978,2.499-5.274,4.481-6.892
						c1.982-1.615,4.477-2.424,7.483-2.424c2.217,0,4.162,0.447,5.834,1.339c1.673,0.894,3.054,2.181,4.144,3.862
						s1.944,3.729,2.564,6.144c0.62,2.415,0.931,5.67,0.931,9.767c0,4.848-0.498,8.761-1.494,11.738
						c-0.996,2.979-2.485,5.281-4.467,6.906c-1.983,1.625-4.486,2.438-7.512,2.438c-3.983,0-7.112-1.428-9.386-4.284
						C397.247,94.711,395.885,89.111,395.885,81.352z M401.1,81.352c0,6.783,0.793,11.297,2.381,13.543
						c1.588,2.245,3.547,3.367,5.877,3.367s4.289-1.127,5.877-3.382c1.587-2.255,2.381-6.765,2.381-13.528
						c0-6.803-0.794-11.321-2.381-13.558c-1.588-2.235-3.565-3.354-5.934-3.354c-2.33,0-4.19,0.987-5.58,2.96
						C401.973,69.918,401.1,74.568,401.1,81.352z"/>
				</g>
			</g>
			<g>
				<g>
					<path d="M356.624,154.672h-5.01v-31.924c-1.207,1.151-2.788,2.301-4.746,3.451c-1.958,1.151-3.715,2.014-5.273,2.589v-4.843
						c2.801-1.317,5.25-2.912,7.348-4.787c2.096-1.874,3.58-3.691,4.453-5.455h3.229V154.672z"/>
					<path d="M368.313,134.549c0-4.824,0.497-8.706,1.489-11.647c0.992-2.94,2.468-5.208,4.426-6.805
						c1.957-1.596,4.42-2.394,7.39-2.394c2.188,0,4.109,0.441,5.761,1.322s3.015,2.152,4.091,3.813
						c1.076,1.661,1.921,3.684,2.533,6.067c0.612,2.385,0.918,5.599,0.918,9.644c0,4.787-0.491,8.652-1.475,11.593
						s-2.454,5.214-4.411,6.818c-1.958,1.605-4.431,2.407-7.417,2.407c-3.935,0-7.023-1.409-9.269-4.23
						C369.659,147.742,368.313,142.213,368.313,134.549z M373.463,134.549c0,6.699,0.783,11.156,2.352,13.374
						s3.502,3.325,5.804,3.325c2.3,0,4.234-1.113,5.803-3.34c1.567-2.227,2.352-6.68,2.352-13.359
						c0-6.717-0.784-11.178-2.352-13.387c-1.568-2.208-3.521-3.313-5.859-3.313c-2.301,0-4.138,0.975-5.51,2.923
						C374.325,123.26,373.463,127.852,373.463,134.549z"/>
					<path d="M398.874,134.549c0-4.824,0.497-8.706,1.489-11.647c0.992-2.94,2.468-5.208,4.426-6.805
						c1.957-1.596,4.42-2.394,7.39-2.394c2.188,0,4.109,0.441,5.761,1.322s3.015,2.152,4.091,3.813
						c1.076,1.661,1.921,3.684,2.533,6.067c0.612,2.385,0.918,5.599,0.918,9.644c0,4.787-0.491,8.652-1.475,11.593
						s-2.454,5.214-4.411,6.818c-1.958,1.605-4.431,2.407-7.417,2.407c-3.935,0-7.023-1.409-9.269-4.23
						C400.22,147.742,398.874,142.213,398.874,134.549z M404.023,134.549c0,6.699,0.783,11.156,2.352,13.374
						s3.502,3.325,5.804,3.325c2.3,0,4.234-1.113,5.803-3.34c1.567-2.227,2.352-6.68,2.352-13.359
						c0-6.717-0.784-11.178-2.352-13.387c-1.568-2.208-3.521-3.313-5.859-3.313c-2.301,0-4.138,0.975-5.51,2.923
						C404.886,123.26,404.023,127.852,404.023,134.549z"/>
					<path d="M430.854,154.672V113.87h5.01v23.268l11.856-12.023h6.485l-11.301,10.966l12.441,18.592h-6.179l-9.769-15.113
						l-3.535,3.396v11.717H430.854z"/>
					<path d="M457.269,157.121l4.87,0.724c0.204,1.503,0.771,2.598,1.698,3.284c1.243,0.928,2.94,1.392,5.093,1.392
						c2.319,0,4.11-0.464,5.372-1.392s2.115-2.227,2.561-3.896c0.26-1.021,0.38-3.163,0.362-6.43
						c-2.19,2.58-4.918,3.869-8.184,3.869c-4.063,0-7.208-1.465-9.435-4.397c-2.227-2.932-3.34-6.447-3.34-10.548
						c0-2.82,0.51-5.423,1.53-7.808c1.021-2.384,2.501-4.226,4.439-5.524s4.217-1.948,6.833-1.948c3.488,0,6.364,1.41,8.628,4.23
						v-3.563h4.62v25.55c0,4.602-0.469,7.862-1.405,9.783c-0.938,1.92-2.422,3.438-4.453,4.551c-2.032,1.113-4.532,1.67-7.501,1.67
						c-3.525,0-6.374-0.794-8.544-2.38C458.242,162.701,457.194,160.313,457.269,157.121z M461.416,139.364
						c0,3.878,0.77,6.708,2.31,8.489s3.47,2.672,5.789,2.672c2.301,0,4.23-0.887,5.789-2.658s2.338-4.551,2.338-8.336
						c0-3.618-0.803-6.346-2.407-8.183c-1.605-1.837-3.54-2.755-5.803-2.755c-2.227,0-4.119,0.904-5.678,2.713
						C462.195,133.116,461.416,135.802,461.416,139.364z"/>
				</g>
			</g>
			<g>
				<g>
					<path d="M196.721,160.264l4.814-0.445c0.408,2.264,1.188,3.906,2.338,4.926c1.15,1.021,2.626,1.531,4.426,1.531
						c1.54,0,2.89-0.352,4.05-1.058c1.159-0.705,2.11-1.646,2.853-2.825c0.742-1.178,1.363-2.77,1.865-4.773
						c0.5-2.004,0.751-4.045,0.751-6.123c0-0.223-0.01-0.557-0.028-1.002c-1.002,1.597-2.37,2.891-4.104,3.883
						c-1.735,0.993-3.614,1.489-5.636,1.489c-3.378,0-6.234-1.225-8.572-3.674s-3.508-5.678-3.508-9.686
						c0-4.138,1.221-7.468,3.66-9.991s5.497-3.785,9.171-3.785c2.653,0,5.079,0.714,7.278,2.143c2.198,1.43,3.868,3.465,5.01,6.109
						c1.141,2.645,1.711,6.471,1.711,11.48c0,5.215-0.565,9.365-1.697,12.455s-2.815,5.441-5.052,7.055
						c-2.236,1.615-4.856,2.422-7.862,2.422c-3.191,0-5.799-0.886-7.82-2.658C198.344,165.965,197.129,163.475,196.721,160.264z
						 M217.232,142.256c0-2.875-0.765-5.158-2.296-6.846c-1.53-1.688-3.372-2.533-5.524-2.533c-2.227,0-4.166,0.909-5.816,2.728
						c-1.652,1.819-2.478,4.175-2.478,7.069c0,2.598,0.783,4.709,2.352,6.332s3.502,2.436,5.804,2.436
						c2.318,0,4.226-0.813,5.719-2.436S217.232,145.133,217.232,142.256z"/>
					<path d="M226.529,149.576c0-4.824,0.497-8.707,1.489-11.648c0.992-2.939,2.468-5.208,4.426-6.805
						c1.957-1.596,4.42-2.393,7.39-2.393c2.188,0,4.109,0.44,5.761,1.322c1.651,0.881,3.015,2.152,4.091,3.813
						s1.921,3.684,2.533,6.066c0.612,2.385,0.918,5.6,0.918,9.645c0,4.787-0.491,8.651-1.475,11.592
						c-0.983,2.941-2.454,5.215-4.411,6.818c-1.958,1.605-4.431,2.408-7.417,2.408c-3.935,0-7.023-1.41-9.269-4.23
						C227.875,162.769,226.529,157.24,226.529,149.576z M231.679,149.576c0,6.698,0.783,11.156,2.352,13.373
						c1.568,2.218,3.502,3.326,5.804,3.326c2.3,0,4.234-1.113,5.803-3.34c1.567-2.227,2.352-6.68,2.352-13.359
						c0-6.717-0.784-11.179-2.352-13.387c-1.568-2.209-3.521-3.313-5.859-3.313c-2.301,0-4.138,0.975-5.51,2.922
						C232.541,138.286,231.679,142.879,231.679,149.576z"/>
				</g>
			</g>
			<g>
				<g>
					<path d="M90.169,305.346c-1.933-0.707-3.364-1.716-4.296-3.027c-0.932-1.311-1.397-2.881-1.397-4.71
						c0-2.761,0.992-5.081,2.976-6.962c1.984-1.88,4.624-2.82,7.92-2.82c3.313,0,5.978,0.962,7.996,2.886s3.027,4.266,3.027,7.026
						c0,1.76-0.461,3.291-1.384,4.593c-0.924,1.304-2.325,2.308-4.206,3.015c2.33,0.76,4.103,1.984,5.318,3.676
						c1.217,1.69,1.824,3.709,1.824,6.055c0,3.244-1.147,5.971-3.441,8.178c-2.295,2.209-5.314,3.313-9.058,3.313
						c-3.744,0-6.764-1.107-9.058-3.325c-2.295-2.216-3.441-4.981-3.441-8.294c0-2.467,0.625-4.533,1.876-6.198
						C86.075,307.084,87.856,305.95,90.169,305.346z M87.736,314.973c0,1.329,0.314,2.614,0.944,3.856s1.565,2.204,2.808,2.886
						s2.579,1.021,4.012,1.021c2.226,0,4.063-0.715,5.512-2.147c1.449-1.432,2.174-3.252,2.174-5.46
						c0-2.243-0.746-4.098-2.238-5.564s-3.36-2.199-5.603-2.199c-2.191,0-4.007,0.725-5.447,2.174
						C88.456,310.988,87.736,312.799,87.736,314.973z M89.237,297.453c0,1.795,0.578,3.261,1.733,4.399
						c1.156,1.139,2.657,1.708,4.504,1.708c1.794,0,3.265-0.564,4.412-1.695c1.146-1.129,1.721-2.514,1.721-4.153
						c0-1.708-0.591-3.145-1.772-4.309c-1.183-1.165-2.653-1.747-4.413-1.747c-1.776,0-3.252,0.569-4.425,1.708
						C89.823,294.503,89.237,295.866,89.237,297.453z"/>
					<path d="M111.416,307.209c0-4.484,0.462-8.096,1.385-10.83s2.295-4.844,4.115-6.327c1.819-1.483,4.11-2.226,6.871-2.226
						c2.035,0,3.82,0.41,5.356,1.229c1.535,0.819,2.804,2.001,3.804,3.545c1.001,1.544,1.786,3.425,2.355,5.642
						s0.854,5.207,0.854,8.967c0,4.451-0.457,8.045-1.371,10.779c-0.915,2.734-2.282,4.848-4.102,6.34
						c-1.82,1.492-4.119,2.238-6.896,2.238c-3.658,0-6.531-1.311-8.618-3.934C112.667,319.477,111.416,314.335,111.416,307.209z
						 M116.204,307.209c0,6.229,0.729,10.374,2.187,12.436s3.257,3.092,5.396,3.092c2.139,0,3.938-1.035,5.396-3.105
						c1.457-2.07,2.187-6.211,2.187-12.422c0-6.244-0.729-10.395-2.187-12.447c-1.458-2.053-3.274-3.08-5.448-3.08
						c-2.139,0-3.847,0.906-5.123,2.718C117.006,296.711,116.204,300.981,116.204,307.209z"/>
				</g>
			</g>
			<g>
				<g>
					<path d="M82.582,496.387v-4.814h26.413v3.896c-2.598,2.766-5.173,6.439-7.724,11.021c-2.551,4.583-4.522,9.296-5.914,14.139
						c-1.002,3.414-1.643,7.152-1.92,11.217h-5.149c0.056-3.211,0.687-7.088,1.893-11.635c1.206-4.545,2.937-8.929,5.19-13.15
						c2.255-4.221,4.652-7.779,7.195-10.674H82.582z"/>
					<path d="M112.809,511.723c0-4.824,0.497-8.707,1.489-11.648c0.992-2.939,2.468-5.208,4.426-6.805
						c1.957-1.596,4.42-2.393,7.39-2.393c2.188,0,4.109,0.44,5.761,1.322c1.651,0.881,3.015,2.152,4.091,3.813
						s1.921,3.684,2.533,6.066c0.612,2.385,0.918,5.6,0.918,9.645c0,4.787-0.491,8.651-1.475,11.592
						c-0.983,2.941-2.454,5.215-4.411,6.818c-1.958,1.605-4.431,2.408-7.417,2.408c-3.935,0-7.023-1.41-9.269-4.23
						C114.154,524.915,112.809,519.387,112.809,511.723z M117.958,511.723c0,6.698,0.783,11.156,2.352,13.373
						c1.568,2.218,3.502,3.326,5.804,3.326c2.3,0,4.234-1.113,5.803-3.34c1.567-2.227,2.352-6.68,2.352-13.359
						c0-6.717-0.784-11.179-2.352-13.387c-1.568-2.209-3.521-3.313-5.859-3.313c-2.301,0-4.138,0.975-5.51,2.922
						C118.82,500.433,117.958,505.025,117.958,511.723z"/>
				</g>
			</g>
			<g>
				<g>
					<path d="M224.358,655.789l-4.982,0.389c-0.445-1.966-1.076-3.395-1.893-4.285c-1.354-1.43-3.024-2.144-5.01-2.144
						c-1.596,0-2.997,0.445-4.203,1.336c-1.577,1.151-2.82,2.829-3.729,5.038c-0.91,2.208-1.383,5.354-1.42,9.435
						c1.206-1.837,2.681-3.2,4.426-4.091c1.743-0.891,3.571-1.336,5.482-1.336c3.34,0,6.183,1.229,8.53,3.688
						s3.521,5.636,3.521,9.532c0,2.561-0.552,4.94-1.655,7.139c-1.104,2.199-2.621,3.883-4.551,5.052s-4.119,1.754-6.568,1.754
						c-4.175,0-7.58-1.535-10.214-4.606c-2.636-3.071-3.953-8.132-3.953-15.183c0-7.886,1.457-13.619,4.37-17.2
						c2.542-3.117,5.965-4.676,10.271-4.676c3.209,0,5.84,0.9,7.89,2.7C222.72,650.129,223.949,652.615,224.358,655.789z
						 M203.901,673.379c0,1.725,0.366,3.377,1.1,4.953c0.732,1.578,1.758,2.779,3.075,3.604c1.317,0.826,2.7,1.239,4.147,1.239
						c2.115,0,3.933-0.854,5.455-2.561c1.521-1.707,2.281-4.026,2.281-6.959c0-2.82-0.751-5.041-2.254-6.665
						s-3.396-2.436-5.678-2.436c-2.264,0-4.185,0.812-5.762,2.436S203.901,670.744,203.901,673.379z"/>
					<path d="M228.923,666.477c0-4.824,0.497-8.707,1.489-11.648c0.992-2.94,2.468-5.209,4.426-6.805
						c1.957-1.596,4.42-2.394,7.39-2.394c2.188,0,4.109,0.44,5.761,1.322s3.015,2.152,4.091,3.813
						c1.076,1.661,1.921,3.684,2.533,6.067c0.612,2.385,0.918,5.6,0.918,9.645c0,4.787-0.491,8.65-1.475,11.592
						s-2.454,5.214-4.411,6.818c-1.958,1.605-4.431,2.408-7.417,2.408c-3.935,0-7.023-1.41-9.269-4.23
						C230.269,679.668,228.923,674.14,228.923,666.477z M234.072,666.477c0,6.697,0.783,11.156,2.352,13.373
						s3.502,3.326,5.804,3.326c2.3,0,4.234-1.113,5.803-3.34c1.567-2.227,2.352-6.68,2.352-13.359c0-6.717-0.784-11.18-2.352-13.388
						c-1.568-2.208-3.521-3.312-5.859-3.312c-2.301,0-4.138,0.974-5.51,2.922C234.935,655.186,234.072,659.778,234.072,666.477z"/>
				</g>
			</g>
			<g>
				<g>
					<path d="M678.527,521.074l5.01-0.668c0.575,2.839,1.554,4.885,2.937,6.137c1.382,1.252,3.065,1.879,5.051,1.879
						c2.356,0,4.347-0.816,5.971-2.449c1.623-1.633,2.436-3.655,2.436-6.067c0-2.3-0.752-4.198-2.255-5.692
						c-1.503-1.492-3.414-2.24-5.733-2.24c-0.946,0-2.125,0.186-3.535,0.557l0.557-4.396c0.334,0.037,0.604,0.055,0.808,0.055
						c2.134,0,4.054-0.557,5.761-1.67s2.561-2.828,2.561-5.148c0-1.837-0.621-3.357-1.864-4.564
						c-1.243-1.206-2.849-1.809-4.815-1.809c-1.947,0-3.571,0.611-4.87,1.836s-2.134,3.063-2.505,5.512l-5.01-0.891
						c0.612-3.358,2.004-5.961,4.175-7.807c2.171-1.847,4.87-2.77,8.099-2.77c2.227,0,4.277,0.478,6.151,1.434
						c1.874,0.955,3.308,2.258,4.3,3.91c0.992,1.651,1.489,3.404,1.489,5.26c0,1.764-0.474,3.367-1.419,4.814
						c-0.947,1.447-2.348,2.599-4.203,3.451c2.412,0.557,4.286,1.713,5.622,3.465c1.336,1.754,2.004,3.949,2.004,6.583
						c0,3.563-1.299,6.583-3.896,9.06s-5.882,3.715-9.853,3.715c-3.581,0-6.555-1.066-8.92-3.2
						C680.211,527.234,678.861,524.47,678.527,521.074z"/>
					<path d="M709.06,511.723c0-4.824,0.497-8.707,1.489-11.648c0.992-2.939,2.468-5.208,4.426-6.805
						c1.957-1.596,4.42-2.393,7.39-2.393c2.188,0,4.109,0.44,5.761,1.322c1.651,0.881,3.015,2.152,4.091,3.813
						s1.921,3.684,2.533,6.066c0.612,2.385,0.918,5.6,0.918,9.645c0,4.787-0.491,8.651-1.475,11.592
						c-0.983,2.941-2.454,5.215-4.411,6.818c-1.958,1.605-4.431,2.408-7.417,2.408c-3.935,0-7.023-1.41-9.269-4.23
						C710.405,524.915,709.06,519.387,709.06,511.723z M714.209,511.723c0,6.698,0.783,11.156,2.352,13.373
						c1.568,2.218,3.502,3.326,5.804,3.326c2.3,0,4.234-1.113,5.803-3.34c1.567-2.227,2.352-6.68,2.352-13.359
						c0-6.717-0.784-11.179-2.352-13.387c-1.568-2.209-3.521-3.313-5.859-3.313c-2.301,0-4.138,0.975-5.51,2.922
						C715.071,500.433,714.209,505.025,714.209,511.723z"/>
				</g>
			</g>
			<g>
				<g>
					<path d="M595.927,686.598v-9.769h-17.701v-4.593l18.62-26.439h4.091v26.439h5.511v4.593h-5.511v9.769H595.927z
						 M595.927,672.236V653.84l-12.774,18.396H595.927z"/>
					<path d="M610.428,666.476c0-4.824,0.497-8.706,1.489-11.647s2.468-5.209,4.426-6.805c1.957-1.596,4.42-2.395,7.39-2.395
						c2.188,0,4.109,0.441,5.761,1.322c1.651,0.882,3.015,2.152,4.091,3.813c1.076,1.662,1.921,3.684,2.533,6.068
						s0.918,5.599,0.918,9.644c0,4.787-0.491,8.651-1.475,11.593c-0.983,2.94-2.454,5.213-4.411,6.818
						c-1.958,1.605-4.431,2.407-7.417,2.407c-3.935,0-7.023-1.409-9.269-4.23C611.773,679.668,610.428,674.139,610.428,666.476z
						 M615.577,666.476c0,6.698,0.783,11.156,2.352,13.374c1.568,2.217,3.502,3.325,5.804,3.325c2.3,0,4.234-1.113,5.803-3.34
						c1.567-2.227,2.352-6.68,2.352-13.359c0-6.717-0.784-11.179-2.352-13.388c-1.568-2.207-3.521-3.312-5.859-3.312
						c-2.301,0-4.138,0.974-5.51,2.923C616.439,655.186,615.577,659.777,615.577,666.476z"/>
				</g>
			</g>
			<g>
				<g>
					<path d="M710.399,319.806v4.815H682.75c-0.039-1.207,0.161-2.366,0.599-3.479c0.704-1.837,1.831-3.646,3.382-5.427
						c1.55-1.781,3.79-3.842,6.72-6.18c4.546-3.636,7.618-6.517,9.216-8.641c1.599-2.125,2.397-4.134,2.397-6.026
						c0-1.985-0.728-3.659-2.183-5.024c-1.456-1.363-3.354-2.045-5.693-2.045c-2.473,0-4.451,0.724-5.935,2.171
						c-1.484,1.447-2.235,3.451-2.254,6.012l-5.279-0.528c0.361-3.842,1.722-6.768,4.08-8.781s5.526-3.02,9.502-3.02
						c4.014,0,7.191,1.085,9.53,3.256c2.34,2.171,3.51,4.861,3.51,8.071c0,1.633-0.342,3.238-1.026,4.815
						c-0.686,1.576-1.822,3.238-3.41,4.981c-1.589,1.744-4.229,4.138-7.918,7.181c-3.082,2.523-5.061,4.235-5.936,5.135
						c-0.875,0.9-1.598,1.805-2.169,2.714H710.399z"/>
					<path d="M714.738,304.498c0-4.824,0.509-8.707,1.526-11.648c1.018-2.939,2.529-5.208,4.537-6.805
						c2.007-1.596,4.531-2.393,7.575-2.393c2.245,0,4.214,0.44,5.907,1.322c1.692,0.881,3.091,2.152,4.194,3.813
						c1.103,1.66,1.969,3.684,2.597,6.066c0.628,2.385,0.941,5.6,0.941,9.645c0,4.787-0.504,8.651-1.513,11.592
						c-1.008,2.941-2.516,5.215-4.522,6.818c-2.007,1.605-4.542,2.408-7.604,2.408c-4.033,0-7.2-1.41-9.502-4.23
						C716.117,317.69,714.738,312.162,714.738,304.498z M720.017,304.498c0,6.698,0.804,11.156,2.411,13.373
						c1.607,2.218,3.591,3.326,5.949,3.326s4.342-1.113,5.95-3.34c1.606-2.227,2.411-6.68,2.411-13.359
						c0-6.717-0.805-11.179-2.411-13.387c-1.608-2.209-3.61-3.313-6.007-3.313c-2.359,0-4.242,0.975-5.649,2.922
						C720.901,293.208,720.017,297.801,720.017,304.498z"/>
				</g>
			</g>
			<g>
				<g>
					<path d="M598.738,169.699h-5.01v-31.924c-1.207,1.15-2.788,2.301-4.746,3.451s-3.715,2.014-5.273,2.588v-4.842
						c2.801-1.318,5.25-2.913,7.348-4.787c2.096-1.875,3.58-3.692,4.453-5.455h3.229V169.699z"/>
					<path d="M610.428,149.576c0-4.824,0.497-8.707,1.489-11.648c0.992-2.939,2.468-5.208,4.426-6.805
						c1.957-1.596,4.42-2.393,7.39-2.393c2.188,0,4.109,0.44,5.761,1.322c1.651,0.881,3.015,2.152,4.091,3.813
						s1.921,3.684,2.533,6.066c0.612,2.385,0.918,5.6,0.918,9.645c0,4.787-0.491,8.651-1.475,11.592
						c-0.983,2.941-2.454,5.215-4.411,6.818c-1.958,1.605-4.431,2.408-7.417,2.408c-3.935,0-7.023-1.41-9.269-4.23
						C611.773,162.769,610.428,157.24,610.428,149.576z M615.577,149.576c0,6.698,0.783,11.156,2.352,13.373
						c1.568,2.218,3.502,3.326,5.804,3.326c2.3,0,4.234-1.113,5.803-3.34c1.567-2.227,2.352-6.68,2.352-13.359
						c0-6.717-0.784-11.179-2.352-13.387c-1.568-2.209-3.521-3.313-5.859-3.313c-2.301,0-4.138,0.975-5.51,2.922
						C616.439,138.286,615.577,142.879,615.577,149.576z"/>
				</g>
			</g>
			<g>
				<g>
					<path d="M507.718,103.809l5.261-0.445c0.39,2.561,1.294,4.485,2.714,5.775c1.419,1.289,3.131,1.934,5.135,1.934
						c2.412,0,4.453-0.908,6.123-2.728c1.67-1.818,2.505-4.23,2.505-7.236c0-2.856-0.803-5.111-2.407-6.763
						c-1.605-1.652-3.707-2.478-6.305-2.478c-1.613,0-3.07,0.366-4.369,1.099c-1.299,0.734-2.319,1.685-3.062,2.854l-4.704-0.612
						l3.953-20.958h20.289v4.787h-16.281l-2.199,10.967c2.449-1.707,5.019-2.561,7.709-2.561c3.563,0,6.568,1.234,9.018,3.701
						c2.449,2.468,3.674,5.641,3.674,9.519c0,3.692-1.076,6.884-3.229,9.574c-2.615,3.303-6.188,4.954-10.715,4.954
						c-3.711,0-6.74-1.039-9.087-3.117C509.393,109.996,508.052,107.241,507.718,103.809z"/>
				</g>
			</g>
			<g>
				<g>
					<path d="M380.296,733.66l5.261-0.445c0.39,2.561,1.294,4.486,2.714,5.775c1.419,1.289,3.131,1.934,5.135,1.934
						c2.412,0,4.453-0.908,6.123-2.727s2.505-4.23,2.505-7.236c0-2.857-0.803-5.111-2.407-6.764
						c-1.605-1.651-3.707-2.477-6.305-2.477c-1.613,0-3.07,0.366-4.369,1.099c-1.299,0.733-2.319,1.685-3.062,2.853l-4.704-0.611
						l3.953-20.958h20.289v4.787h-16.281l-2.199,10.966c2.449-1.707,5.019-2.561,7.709-2.561c3.563,0,6.568,1.234,9.018,3.701
						c2.449,2.469,3.674,5.641,3.674,9.52c0,3.691-1.076,6.884-3.229,9.574c-2.615,3.303-6.188,4.953-10.715,4.953
						c-3.711,0-6.74-1.039-9.087-3.117C381.971,739.849,380.63,737.094,380.296,733.66z"/>
					<path d="M410.856,724.225c0-4.824,0.497-8.706,1.489-11.647c0.992-2.94,2.468-5.208,4.426-6.805
						c1.957-1.596,4.42-2.394,7.39-2.394c2.188,0,4.109,0.441,5.761,1.322s3.015,2.152,4.091,3.813
						c1.076,1.661,1.921,3.684,2.533,6.067c0.612,2.385,0.918,5.599,0.918,9.644c0,4.787-0.491,8.652-1.475,11.593
						s-2.454,5.214-4.411,6.818c-1.958,1.605-4.431,2.407-7.417,2.407c-3.935,0-7.023-1.409-9.269-4.23
						C412.202,737.418,410.856,731.889,410.856,724.225z M416.006,724.225c0,6.699,0.783,11.156,2.352,13.374
						s3.502,3.325,5.804,3.325c2.3,0,4.234-1.113,5.803-3.34c1.567-2.227,2.352-6.68,2.352-13.359
						c0-6.717-0.784-11.178-2.352-13.387c-1.568-2.208-3.521-3.313-5.859-3.313c-2.301,0-4.138,0.975-5.51,2.923
						C416.868,712.936,416.006,717.527,416.006,724.225z"/>
				</g>
			</g>
		</g>
	</g>
</g>
</svg>
