<?xml version="1.0" encoding="utf-8"?>
<!-- Generator: Adobe Illustrator 16.0.3, SVG Export Plug-In . SVG Version: 6.00 Build 0)  -->
<!DOCTYPE svg PUBLIC "-//W3C//DTD SVG 1.1//EN" "http://www.w3.org/Graphics/SVG/1.1/DTD/svg11.dtd">
<svg version="1.1" xmlns="http://www.w3.org/2000/svg" xmlns:xlink="http://www.w3.org/1999/xlink" x="0px" y="0px" width="819px"
	 height="819px" viewBox="0 0 819 819" enable-background="new 0 0 819 819" xml:space="preserve">
<g id="BG">
</g>
<g id="物件">
</g>
<g id="word">
	<g>
		<g>
			<line fill="none" stroke="#000000" stroke-width="2" stroke-miterlimit="10" x1="409.5" y1="1.502" x2="409.5" y2="64.548"/>
			
				<line fill="none" stroke="#000000" stroke-width="2" stroke-miterlimit="10" x1="283.355" y1="21.263" x2="297.732" y2="65.515"/>
			
				<line fill="none" stroke="#000000" stroke-width="2" stroke-miterlimit="10" x1="169.557" y1="79.246" x2="206.742" y2="130.428"/>
			
				<line fill="none" stroke="#000000" stroke-width="2" stroke-miterlimit="10" x1="79.246" y1="169.557" x2="116.889" y2="196.905"/>
			
				<line fill="none" stroke="#000000" stroke-width="2" stroke-miterlimit="10" x1="21.264" y1="283.354" x2="81.432" y2="302.904"/>
			<line fill="none" stroke="#000000" stroke-width="2" stroke-miterlimit="10" x1="1.283" y1="409.5" x2="47.813" y2="409.5"/>
			
				<line fill="none" stroke="#000000" stroke-width="2" stroke-miterlimit="10" x1="21.264" y1="535.646" x2="81.432" y2="516.096"/>
			
				<line fill="none" stroke="#000000" stroke-width="2" stroke-miterlimit="10" x1="79.246" y1="649.443" x2="116.889" y2="622.095"/>
			
				<line fill="none" stroke="#000000" stroke-width="2" stroke-miterlimit="10" x1="169.557" y1="739.754" x2="206.742" y2="688.572"/>
			
				<line fill="none" stroke="#000000" stroke-width="2" stroke-miterlimit="10" x1="283.355" y1="797.737" x2="297.732" y2="753.485"/>
			<line fill="none" stroke="#000000" stroke-width="2" stroke-miterlimit="10" x1="409.5" y1="818" x2="409.5" y2="754.452"/>
			
				<line fill="none" stroke="#000000" stroke-width="2" stroke-miterlimit="10" x1="535.646" y1="797.737" x2="521.268" y2="753.485"/>
			
				<line fill="none" stroke="#000000" stroke-width="2" stroke-miterlimit="10" x1="649.445" y1="739.754" x2="612.258" y2="688.572"/>
			
				<line fill="none" stroke="#000000" stroke-width="2" stroke-miterlimit="10" x1="739.756" y1="649.443" x2="702.111" y2="622.095"/>
			
				<line fill="none" stroke="#000000" stroke-width="2" stroke-miterlimit="10" x1="797.738" y1="535.646" x2="737.57" y2="516.096"/>
			<line fill="none" stroke="#000000" stroke-width="2" stroke-miterlimit="10" x1="817.717" y1="409.5" x2="771.188" y2="409.5"/>
			
				<line fill="none" stroke="#000000" stroke-width="2" stroke-miterlimit="10" x1="797.738" y1="283.354" x2="737.57" y2="302.904"/>
			
				<line fill="none" stroke="#000000" stroke-width="2" stroke-miterlimit="10" x1="739.756" y1="169.557" x2="702.111" y2="196.905"/>
			
				<line fill="none" stroke="#000000" stroke-width="2" stroke-miterlimit="10" x1="649.445" y1="79.246" x2="612.258" y2="130.428"/>
			
				<line fill="none" stroke="#000000" stroke-width="2" stroke-miterlimit="10" x1="535.646" y1="21.263" x2="521.268" y2="65.515"/>
		</g>
		<g>
			<line fill="none" stroke="#000000" stroke-width="2" stroke-miterlimit="10" x1="409.5" y1="1.283" x2="409.5" y2="24.548"/>
			<line fill="none" stroke="#000000" stroke-width="2" stroke-miterlimit="10" x1="383.869" y1="2.089" x2="385.33" y2="25.308"/>
			<line fill="none" stroke="#000000" stroke-width="2" stroke-miterlimit="10" x1="358.338" y1="4.502" x2="361.254" y2="27.584"/>
			<line fill="none" stroke="#000000" stroke-width="2" stroke-miterlimit="10" x1="333.008" y1="8.514" x2="337.367" y2="31.366"/>
			<line fill="none" stroke="#000000" stroke-width="2" stroke-miterlimit="10" x1="307.98" y1="14.108" x2="313.768" y2="36.642"/>
			
				<line fill="none" stroke="#000000" stroke-width="2" stroke-miterlimit="10" x1="283.355" y1="21.263" x2="290.545" y2="43.389"/>
			<line fill="none" stroke="#000000" stroke-width="2" stroke-miterlimit="10" x1="259.227" y1="29.95" x2="267.791" y2="51.58"/>
			
				<line fill="none" stroke="#000000" stroke-width="2" stroke-miterlimit="10" x1="235.691" y1="40.135" x2="245.596" y2="61.185"/>
			
				<line fill="none" stroke="#000000" stroke-width="2" stroke-miterlimit="10" x1="212.842" y1="51.777" x2="224.049" y2="72.164"/>
			
				<line fill="none" stroke="#000000" stroke-width="2" stroke-miterlimit="10" x1="190.768" y1="64.831" x2="203.232" y2="84.474"/>
			
				<line fill="none" stroke="#000000" stroke-width="2" stroke-miterlimit="10" x1="169.557" y1="79.246" x2="183.232" y2="98.067"/>
			
				<line fill="none" stroke="#000000" stroke-width="2" stroke-miterlimit="10" x1="149.293" y1="94.964" x2="164.123" y2="112.89"/>
			
				<line fill="none" stroke="#000000" stroke-width="2" stroke-miterlimit="10" x1="130.057" y1="111.923" x2="145.982" y2="128.882"/>
			
				<line fill="none" stroke="#000000" stroke-width="2" stroke-miterlimit="10" x1="111.924" y1="130.057" x2="128.883" y2="145.982"/>
			
				<line fill="none" stroke="#000000" stroke-width="2" stroke-miterlimit="10" x1="94.965" y1="149.293" x2="112.891" y2="164.122"/>
			<line fill="none" stroke="#000000" stroke-width="2" stroke-miterlimit="10" x1="79.246" y1="169.557" x2="98.068" y2="183.23"/>
			
				<line fill="none" stroke="#000000" stroke-width="2" stroke-miterlimit="10" x1="64.832" y1="190.767" x2="84.475" y2="203.232"/>
			<line fill="none" stroke="#000000" stroke-width="2" stroke-miterlimit="10" x1="51.777" y1="212.84" x2="72.164" y2="224.048"/>
			
				<line fill="none" stroke="#000000" stroke-width="2" stroke-miterlimit="10" x1="40.135" y1="235.689" x2="61.186" y2="245.596"/>
			<line fill="none" stroke="#000000" stroke-width="2" stroke-miterlimit="10" x1="29.951" y1="259.226" x2="51.582" y2="267.79"/>
			
				<line fill="none" stroke="#000000" stroke-width="2" stroke-miterlimit="10" x1="21.264" y1="283.354" x2="43.389" y2="290.543"/>
			<line fill="none" stroke="#000000" stroke-width="2" stroke-miterlimit="10" x1="14.109" y1="307.98" x2="36.643" y2="313.767"/>
			<line fill="none" stroke="#000000" stroke-width="2" stroke-miterlimit="10" x1="8.514" y1="333.008" x2="31.367" y2="337.367"/>
			<line fill="none" stroke="#000000" stroke-width="2" stroke-miterlimit="10" x1="4.502" y1="358.337" x2="27.584" y2="361.253"/>
			<line fill="none" stroke="#000000" stroke-width="2" stroke-miterlimit="10" x1="2.09" y1="383.868" x2="25.309" y2="385.328"/>
			<line fill="none" stroke="#000000" stroke-width="2" stroke-miterlimit="10" x1="1.283" y1="409.5" x2="24.549" y2="409.5"/>
			<line fill="none" stroke="#000000" stroke-width="2" stroke-miterlimit="10" x1="2.09" y1="435.132" x2="25.309" y2="433.671"/>
			<line fill="none" stroke="#000000" stroke-width="2" stroke-miterlimit="10" x1="4.502" y1="460.663" x2="27.584" y2="457.747"/>
			<line fill="none" stroke="#000000" stroke-width="2" stroke-miterlimit="10" x1="8.514" y1="485.992" x2="31.367" y2="481.633"/>
			<line fill="none" stroke="#000000" stroke-width="2" stroke-miterlimit="10" x1="14.109" y1="511.02" x2="36.643" y2="505.233"/>
			
				<line fill="none" stroke="#000000" stroke-width="2" stroke-miterlimit="10" x1="21.264" y1="535.646" x2="43.389" y2="528.457"/>
			<line fill="none" stroke="#000000" stroke-width="2" stroke-miterlimit="10" x1="29.951" y1="559.774" x2="51.582" y2="551.21"/>
			
				<line fill="none" stroke="#000000" stroke-width="2" stroke-miterlimit="10" x1="40.135" y1="583.311" x2="61.186" y2="573.404"/>
			<line fill="none" stroke="#000000" stroke-width="2" stroke-miterlimit="10" x1="51.777" y1="606.16" x2="72.164" y2="594.952"/>
			
				<line fill="none" stroke="#000000" stroke-width="2" stroke-miterlimit="10" x1="64.832" y1="628.233" x2="84.475" y2="615.768"/>
			<line fill="none" stroke="#000000" stroke-width="2" stroke-miterlimit="10" x1="79.246" y1="649.443" x2="98.068" y2="635.77"/>
			
				<line fill="none" stroke="#000000" stroke-width="2" stroke-miterlimit="10" x1="94.965" y1="669.707" x2="112.891" y2="654.878"/>
			
				<line fill="none" stroke="#000000" stroke-width="2" stroke-miterlimit="10" x1="111.924" y1="688.943" x2="128.883" y2="673.018"/>
			
				<line fill="none" stroke="#000000" stroke-width="2" stroke-miterlimit="10" x1="130.057" y1="707.077" x2="145.982" y2="690.118"/>
			
				<line fill="none" stroke="#000000" stroke-width="2" stroke-miterlimit="10" x1="149.293" y1="724.036" x2="164.123" y2="706.11"/>
			
				<line fill="none" stroke="#000000" stroke-width="2" stroke-miterlimit="10" x1="169.557" y1="739.754" x2="183.232" y2="720.933"/>
			
				<line fill="none" stroke="#000000" stroke-width="2" stroke-miterlimit="10" x1="190.768" y1="754.169" x2="203.232" y2="734.525"/>
			
				<line fill="none" stroke="#000000" stroke-width="2" stroke-miterlimit="10" x1="212.84" y1="767.223" x2="224.049" y2="746.836"/>
			
				<line fill="none" stroke="#000000" stroke-width="2" stroke-miterlimit="10" x1="235.691" y1="778.865" x2="245.596" y2="757.815"/>
			
				<line fill="none" stroke="#000000" stroke-width="2" stroke-miterlimit="10" x1="259.227" y1="789.051" x2="267.791" y2="767.42"/>
			
				<line fill="none" stroke="#000000" stroke-width="2" stroke-miterlimit="10" x1="283.355" y1="797.737" x2="290.545" y2="775.611"/>
			
				<line fill="none" stroke="#000000" stroke-width="2" stroke-miterlimit="10" x1="307.98" y1="804.892" x2="313.768" y2="782.358"/>
			
				<line fill="none" stroke="#000000" stroke-width="2" stroke-miterlimit="10" x1="333.008" y1="810.486" x2="337.367" y2="787.634"/>
			
				<line fill="none" stroke="#000000" stroke-width="2" stroke-miterlimit="10" x1="358.338" y1="814.498" x2="361.254" y2="791.417"/>
			
				<line fill="none" stroke="#000000" stroke-width="2" stroke-miterlimit="10" x1="383.869" y1="816.911" x2="385.33" y2="793.692"/>
			<line fill="none" stroke="#000000" stroke-width="2" stroke-miterlimit="10" x1="409.5" y1="817.717" x2="409.5" y2="794.452"/>
			
				<line fill="none" stroke="#000000" stroke-width="2" stroke-miterlimit="10" x1="435.133" y1="816.911" x2="433.672" y2="793.692"/>
			
				<line fill="none" stroke="#000000" stroke-width="2" stroke-miterlimit="10" x1="460.664" y1="814.498" x2="457.748" y2="791.417"/>
			
				<line fill="none" stroke="#000000" stroke-width="2" stroke-miterlimit="10" x1="485.992" y1="810.486" x2="481.633" y2="787.634"/>
			
				<line fill="none" stroke="#000000" stroke-width="2" stroke-miterlimit="10" x1="511.02" y1="804.892" x2="505.234" y2="782.358"/>
			
				<line fill="none" stroke="#000000" stroke-width="2" stroke-miterlimit="10" x1="535.646" y1="797.737" x2="528.457" y2="775.611"/>
			
				<line fill="none" stroke="#000000" stroke-width="2" stroke-miterlimit="10" x1="559.775" y1="789.051" x2="551.211" y2="767.42"/>
			
				<line fill="none" stroke="#000000" stroke-width="2" stroke-miterlimit="10" x1="583.311" y1="778.865" x2="573.406" y2="757.815"/>
			
				<line fill="none" stroke="#000000" stroke-width="2" stroke-miterlimit="10" x1="606.16" y1="767.223" x2="594.953" y2="746.836"/>
			
				<line fill="none" stroke="#000000" stroke-width="2" stroke-miterlimit="10" x1="628.234" y1="754.169" x2="615.77" y2="734.526"/>
			
				<line fill="none" stroke="#000000" stroke-width="2" stroke-miterlimit="10" x1="649.445" y1="739.754" x2="635.77" y2="720.933"/>
			
				<line fill="none" stroke="#000000" stroke-width="2" stroke-miterlimit="10" x1="669.709" y1="724.036" x2="654.879" y2="706.11"/>
			
				<line fill="none" stroke="#000000" stroke-width="2" stroke-miterlimit="10" x1="688.945" y1="707.077" x2="673.02" y2="690.118"/>
			
				<line fill="none" stroke="#000000" stroke-width="2" stroke-miterlimit="10" x1="707.078" y1="688.943" x2="690.119" y2="673.018"/>
			
				<line fill="none" stroke="#000000" stroke-width="2" stroke-miterlimit="10" x1="724.037" y1="669.707" x2="706.111" y2="654.878"/>
			
				<line fill="none" stroke="#000000" stroke-width="2" stroke-miterlimit="10" x1="739.756" y1="649.443" x2="720.934" y2="635.77"/>
			
				<line fill="none" stroke="#000000" stroke-width="2" stroke-miterlimit="10" x1="754.17" y1="628.233" x2="734.527" y2="615.768"/>
			
				<line fill="none" stroke="#000000" stroke-width="2" stroke-miterlimit="10" x1="767.225" y1="606.16" x2="746.838" y2="594.952"/>
			
				<line fill="none" stroke="#000000" stroke-width="2" stroke-miterlimit="10" x1="778.867" y1="583.311" x2="757.816" y2="573.404"/>
			
				<line fill="none" stroke="#000000" stroke-width="2" stroke-miterlimit="10" x1="789.051" y1="559.774" x2="767.42" y2="551.21"/>
			
				<line fill="none" stroke="#000000" stroke-width="2" stroke-miterlimit="10" x1="797.738" y1="535.646" x2="775.611" y2="528.457"/>
			
				<line fill="none" stroke="#000000" stroke-width="2" stroke-miterlimit="10" x1="804.893" y1="511.02" x2="782.359" y2="505.233"/>
			
				<line fill="none" stroke="#000000" stroke-width="2" stroke-miterlimit="10" x1="810.486" y1="485.992" x2="787.635" y2="481.633"/>
			
				<line fill="none" stroke="#000000" stroke-width="2" stroke-miterlimit="10" x1="814.498" y1="460.663" x2="791.418" y2="457.747"/>
			
				<line fill="none" stroke="#000000" stroke-width="2" stroke-miterlimit="10" x1="816.912" y1="435.132" x2="793.693" y2="433.672"/>
			<line fill="none" stroke="#000000" stroke-width="2" stroke-miterlimit="10" x1="817.717" y1="409.5" x2="794.453" y2="409.5"/>
			
				<line fill="none" stroke="#000000" stroke-width="2" stroke-miterlimit="10" x1="816.912" y1="383.868" x2="793.693" y2="385.329"/>
			
				<line fill="none" stroke="#000000" stroke-width="2" stroke-miterlimit="10" x1="814.498" y1="358.337" x2="791.418" y2="361.253"/>
			
				<line fill="none" stroke="#000000" stroke-width="2" stroke-miterlimit="10" x1="810.486" y1="333.008" x2="787.635" y2="337.367"/>
			
				<line fill="none" stroke="#000000" stroke-width="2" stroke-miterlimit="10" x1="804.893" y1="307.98" x2="782.359" y2="313.767"/>
			
				<line fill="none" stroke="#000000" stroke-width="2" stroke-miterlimit="10" x1="797.738" y1="283.354" x2="775.611" y2="290.543"/>
			
				<line fill="none" stroke="#000000" stroke-width="2" stroke-miterlimit="10" x1="789.051" y1="259.226" x2="767.42" y2="267.79"/>
			
				<line fill="none" stroke="#000000" stroke-width="2" stroke-miterlimit="10" x1="778.867" y1="235.689" x2="757.816" y2="245.596"/>
			
				<line fill="none" stroke="#000000" stroke-width="2" stroke-miterlimit="10" x1="767.225" y1="212.84" x2="746.838" y2="224.048"/>
			
				<line fill="none" stroke="#000000" stroke-width="2" stroke-miterlimit="10" x1="754.17" y1="190.767" x2="734.527" y2="203.232"/>
			
				<line fill="none" stroke="#000000" stroke-width="2" stroke-miterlimit="10" x1="739.756" y1="169.557" x2="720.934" y2="183.23"/>
			
				<line fill="none" stroke="#000000" stroke-width="2" stroke-miterlimit="10" x1="724.037" y1="149.293" x2="706.111" y2="164.122"/>
			
				<line fill="none" stroke="#000000" stroke-width="2" stroke-miterlimit="10" x1="707.078" y1="130.057" x2="690.119" y2="145.982"/>
			
				<line fill="none" stroke="#000000" stroke-width="2" stroke-miterlimit="10" x1="688.945" y1="111.923" x2="673.02" y2="128.882"/>
			
				<line fill="none" stroke="#000000" stroke-width="2" stroke-miterlimit="10" x1="669.709" y1="94.964" x2="654.879" y2="112.89"/>
			<line fill="none" stroke="#000000" stroke-width="2" stroke-miterlimit="10" x1="649.445" y1="79.246" x2="635.77" y2="98.067"/>
			<line fill="none" stroke="#000000" stroke-width="2" stroke-miterlimit="10" x1="628.234" y1="64.831" x2="615.77" y2="84.475"/>
			<line fill="none" stroke="#000000" stroke-width="2" stroke-miterlimit="10" x1="606.16" y1="51.777" x2="594.953" y2="72.164"/>
			
				<line fill="none" stroke="#000000" stroke-width="2" stroke-miterlimit="10" x1="583.311" y1="40.135" x2="573.406" y2="61.185"/>
			<line fill="none" stroke="#000000" stroke-width="2" stroke-miterlimit="10" x1="559.775" y1="29.95" x2="551.211" y2="51.58"/>
			
				<line fill="none" stroke="#000000" stroke-width="2" stroke-miterlimit="10" x1="535.646" y1="21.263" x2="528.457" y2="43.389"/>
			<line fill="none" stroke="#000000" stroke-width="2" stroke-miterlimit="10" x1="511.02" y1="14.108" x2="505.234" y2="36.642"/>
			<line fill="none" stroke="#000000" stroke-width="2" stroke-miterlimit="10" x1="485.992" y1="8.514" x2="481.633" y2="31.366"/>
			<line fill="none" stroke="#000000" stroke-width="2" stroke-miterlimit="10" x1="460.664" y1="4.502" x2="457.748" y2="27.584"/>
			<line fill="none" stroke="#000000" stroke-width="2" stroke-miterlimit="10" x1="435.133" y1="2.089" x2="433.672" y2="25.308"/>
		</g>
		<g>
			<line fill="none" stroke="#000000" stroke-width="2" stroke-miterlimit="10" x1="409.5" y1="1.283" x2="409.5" y2="18.844"/>
			<line fill="none" stroke="#000000" stroke-width="2" stroke-miterlimit="10" x1="396.678" y1="1.484" x2="397.23" y2="19.037"/>
			<line fill="none" stroke="#000000" stroke-width="2" stroke-miterlimit="10" x1="383.869" y1="2.089" x2="384.971" y2="19.615"/>
			<line fill="none" stroke="#000000" stroke-width="2" stroke-miterlimit="10" x1="371.084" y1="3.095" x2="372.736" y2="20.578"/>
			<line fill="none" stroke="#000000" stroke-width="2" stroke-miterlimit="10" x1="358.338" y1="4.502" x2="360.539" y2="21.925"/>
			<line fill="none" stroke="#000000" stroke-width="2" stroke-miterlimit="10" x1="345.641" y1="6.31" x2="348.389" y2="23.653"/>
			<line fill="none" stroke="#000000" stroke-width="2" stroke-miterlimit="10" x1="333.008" y1="8.514" x2="336.299" y2="25.764"/>
			
				<line fill="none" stroke="#000000" stroke-width="2" stroke-miterlimit="10" x1="320.451" y1="11.114" x2="324.281" y2="28.252"/>
			<line fill="none" stroke="#000000" stroke-width="2" stroke-miterlimit="10" x1="307.98" y1="14.108" x2="312.348" y2="31.117"/>
			
				<line fill="none" stroke="#000000" stroke-width="2" stroke-miterlimit="10" x1="295.611" y1="17.492" x2="300.512" y2="34.355"/>
			
				<line fill="none" stroke="#000000" stroke-width="2" stroke-miterlimit="10" x1="283.355" y1="21.263" x2="288.781" y2="37.964"/>
			<line fill="none" stroke="#000000" stroke-width="2" stroke-miterlimit="10" x1="271.223" y1="25.417" x2="277.17" y2="41.939"/>
			<line fill="none" stroke="#000000" stroke-width="2" stroke-miterlimit="10" x1="259.227" y1="29.95" x2="265.691" y2="46.277"/>
			
				<line fill="none" stroke="#000000" stroke-width="2" stroke-miterlimit="10" x1="247.379" y1="34.857" x2="254.352" y2="50.974"/>
			
				<line fill="none" stroke="#000000" stroke-width="2" stroke-miterlimit="10" x1="235.691" y1="40.135" x2="243.168" y2="56.023"/>
			
				<line fill="none" stroke="#000000" stroke-width="2" stroke-miterlimit="10" x1="224.174" y1="45.776" x2="232.146" y2="61.423"/>
			
				<line fill="none" stroke="#000000" stroke-width="2" stroke-miterlimit="10" x1="212.842" y1="51.777" x2="221.301" y2="67.165"/>
			
				<line fill="none" stroke="#000000" stroke-width="2" stroke-miterlimit="10" x1="201.701" y1="58.131" x2="210.641" y2="73.246"/>
			
				<line fill="none" stroke="#000000" stroke-width="2" stroke-miterlimit="10" x1="190.768" y1="64.831" x2="200.176" y2="79.658"/>
			<line fill="none" stroke="#000000" stroke-width="2" stroke-miterlimit="10" x1="180.049" y1="71.872" x2="189.92" y2="86.396"/>
			
				<line fill="none" stroke="#000000" stroke-width="2" stroke-miterlimit="10" x1="169.557" y1="79.246" x2="179.879" y2="93.452"/>
			
				<line fill="none" stroke="#000000" stroke-width="2" stroke-miterlimit="10" x1="159.303" y1="86.945" x2="170.064" y2="100.821"/>
			
				<line fill="none" stroke="#000000" stroke-width="2" stroke-miterlimit="10" x1="149.293" y1="94.964" x2="160.486" y2="108.494"/>
			
				<line fill="none" stroke="#000000" stroke-width="2" stroke-miterlimit="10" x1="139.543" y1="103.292" x2="151.154" y2="116.465"/>
			
				<line fill="none" stroke="#000000" stroke-width="2" stroke-miterlimit="10" x1="130.057" y1="111.923" x2="142.078" y2="124.724"/>
			
				<line fill="none" stroke="#000000" stroke-width="2" stroke-miterlimit="10" x1="120.848" y1="120.847" x2="133.266" y2="133.265"/>
			
				<line fill="none" stroke="#000000" stroke-width="2" stroke-miterlimit="10" x1="111.924" y1="130.057" x2="124.725" y2="142.077"/>
			
				<line fill="none" stroke="#000000" stroke-width="2" stroke-miterlimit="10" x1="103.293" y1="139.541" x2="116.465" y2="151.154"/>
			
				<line fill="none" stroke="#000000" stroke-width="2" stroke-miterlimit="10" x1="94.965" y1="149.293" x2="108.494" y2="160.486"/>
			
				<line fill="none" stroke="#000000" stroke-width="2" stroke-miterlimit="10" x1="86.945" y1="159.301" x2="100.822" y2="170.064"/>
			
				<line fill="none" stroke="#000000" stroke-width="2" stroke-miterlimit="10" x1="79.246" y1="169.557" x2="93.453" y2="179.878"/>
			
				<line fill="none" stroke="#000000" stroke-width="2" stroke-miterlimit="10" x1="71.873" y1="180.048" x2="86.396" y2="189.919"/>
			
				<line fill="none" stroke="#000000" stroke-width="2" stroke-miterlimit="10" x1="64.832" y1="190.767" x2="79.658" y2="200.176"/>
			<line fill="none" stroke="#000000" stroke-width="2" stroke-miterlimit="10" x1="58.131" y1="201.701" x2="73.246" y2="210.64"/>
			<line fill="none" stroke="#000000" stroke-width="2" stroke-miterlimit="10" x1="51.777" y1="212.84" x2="67.166" y2="221.3"/>
			
				<line fill="none" stroke="#000000" stroke-width="2" stroke-miterlimit="10" x1="45.777" y1="224.174" x2="61.424" y2="232.146"/>
			
				<line fill="none" stroke="#000000" stroke-width="2" stroke-miterlimit="10" x1="40.135" y1="235.689" x2="56.025" y2="243.167"/>
			
				<line fill="none" stroke="#000000" stroke-width="2" stroke-miterlimit="10" x1="34.857" y1="247.378" x2="50.975" y2="254.352"/>
			
				<line fill="none" stroke="#000000" stroke-width="2" stroke-miterlimit="10" x1="29.951" y1="259.226" x2="46.277" y2="265.689"/>
			<line fill="none" stroke="#000000" stroke-width="2" stroke-miterlimit="10" x1="25.418" y1="271.222" x2="41.939" y2="277.17"/>
			<line fill="none" stroke="#000000" stroke-width="2" stroke-miterlimit="10" x1="21.264" y1="283.354" x2="37.965" y2="288.78"/>
			
				<line fill="none" stroke="#000000" stroke-width="2" stroke-miterlimit="10" x1="17.492" y1="295.611" x2="34.355" y2="300.511"/>
			<line fill="none" stroke="#000000" stroke-width="2" stroke-miterlimit="10" x1="14.109" y1="307.98" x2="31.117" y2="312.348"/>
			<line fill="none" stroke="#000000" stroke-width="2" stroke-miterlimit="10" x1="11.115" y1="320.45" x2="28.252" y2="324.281"/>
			<line fill="none" stroke="#000000" stroke-width="2" stroke-miterlimit="10" x1="8.514" y1="333.008" x2="25.764" y2="336.298"/>
			<line fill="none" stroke="#000000" stroke-width="2" stroke-miterlimit="10" x1="6.311" y1="345.641" x2="23.654" y2="348.388"/>
			<line fill="none" stroke="#000000" stroke-width="2" stroke-miterlimit="10" x1="4.502" y1="358.337" x2="21.926" y2="360.538"/>
			<line fill="none" stroke="#000000" stroke-width="2" stroke-miterlimit="10" x1="3.096" y1="371.083" x2="20.578" y2="372.736"/>
			<line fill="none" stroke="#000000" stroke-width="2" stroke-miterlimit="10" x1="2.09" y1="383.868" x2="19.615" y2="384.971"/>
			<line fill="none" stroke="#000000" stroke-width="2" stroke-miterlimit="10" x1="1.486" y1="396.678" x2="19.037" y2="397.229"/>
			<line fill="none" stroke="#000000" stroke-width="2" stroke-miterlimit="10" x1="1.283" y1="409.5" x2="18.844" y2="409.5"/>
			<line fill="none" stroke="#000000" stroke-width="2" stroke-miterlimit="10" x1="1.486" y1="422.322" x2="19.037" y2="421.771"/>
			<line fill="none" stroke="#000000" stroke-width="2" stroke-miterlimit="10" x1="2.09" y1="435.132" x2="19.615" y2="434.029"/>
			<line fill="none" stroke="#000000" stroke-width="2" stroke-miterlimit="10" x1="3.096" y1="447.917" x2="20.578" y2="446.264"/>
			<line fill="none" stroke="#000000" stroke-width="2" stroke-miterlimit="10" x1="4.502" y1="460.663" x2="21.926" y2="458.462"/>
			<line fill="none" stroke="#000000" stroke-width="2" stroke-miterlimit="10" x1="6.311" y1="473.359" x2="23.654" y2="470.612"/>
			<line fill="none" stroke="#000000" stroke-width="2" stroke-miterlimit="10" x1="8.514" y1="485.992" x2="25.764" y2="482.701"/>
			<line fill="none" stroke="#000000" stroke-width="2" stroke-miterlimit="10" x1="11.115" y1="498.55" x2="28.252" y2="494.719"/>
			<line fill="none" stroke="#000000" stroke-width="2" stroke-miterlimit="10" x1="14.109" y1="511.02" x2="31.117" y2="506.652"/>
			
				<line fill="none" stroke="#000000" stroke-width="2" stroke-miterlimit="10" x1="17.492" y1="523.389" x2="34.355" y2="518.489"/>
			<line fill="none" stroke="#000000" stroke-width="2" stroke-miterlimit="10" x1="21.264" y1="535.646" x2="37.965" y2="530.22"/>
			<line fill="none" stroke="#000000" stroke-width="2" stroke-miterlimit="10" x1="25.418" y1="547.778" x2="41.939" y2="541.83"/>
			
				<line fill="none" stroke="#000000" stroke-width="2" stroke-miterlimit="10" x1="29.951" y1="559.774" x2="46.277" y2="553.311"/>
			
				<line fill="none" stroke="#000000" stroke-width="2" stroke-miterlimit="10" x1="34.857" y1="571.622" x2="50.975" y2="564.648"/>
			
				<line fill="none" stroke="#000000" stroke-width="2" stroke-miterlimit="10" x1="40.135" y1="583.311" x2="56.025" y2="575.833"/>
			
				<line fill="none" stroke="#000000" stroke-width="2" stroke-miterlimit="10" x1="45.777" y1="594.826" x2="61.424" y2="586.854"/>
			<line fill="none" stroke="#000000" stroke-width="2" stroke-miterlimit="10" x1="51.777" y1="606.16" x2="67.166" y2="597.7"/>
			<line fill="none" stroke="#000000" stroke-width="2" stroke-miterlimit="10" x1="58.131" y1="617.299" x2="73.246" y2="608.36"/>
			
				<line fill="none" stroke="#000000" stroke-width="2" stroke-miterlimit="10" x1="64.832" y1="628.233" x2="79.658" y2="618.824"/>
			
				<line fill="none" stroke="#000000" stroke-width="2" stroke-miterlimit="10" x1="71.873" y1="638.952" x2="86.396" y2="629.081"/>
			
				<line fill="none" stroke="#000000" stroke-width="2" stroke-miterlimit="10" x1="79.246" y1="649.443" x2="93.453" y2="639.122"/>
			
				<line fill="none" stroke="#000000" stroke-width="2" stroke-miterlimit="10" x1="86.945" y1="659.699" x2="100.822" y2="648.936"/>
			
				<line fill="none" stroke="#000000" stroke-width="2" stroke-miterlimit="10" x1="94.965" y1="669.707" x2="108.494" y2="658.514"/>
			
				<line fill="none" stroke="#000000" stroke-width="2" stroke-miterlimit="10" x1="103.293" y1="679.459" x2="116.465" y2="667.846"/>
			
				<line fill="none" stroke="#000000" stroke-width="2" stroke-miterlimit="10" x1="111.924" y1="688.943" x2="124.725" y2="676.923"/>
			
				<line fill="none" stroke="#000000" stroke-width="2" stroke-miterlimit="10" x1="120.848" y1="698.153" x2="133.266" y2="685.735"/>
			
				<line fill="none" stroke="#000000" stroke-width="2" stroke-miterlimit="10" x1="130.057" y1="707.077" x2="142.078" y2="694.276"/>
			
				<line fill="none" stroke="#000000" stroke-width="2" stroke-miterlimit="10" x1="139.543" y1="715.708" x2="151.154" y2="702.535"/>
			
				<line fill="none" stroke="#000000" stroke-width="2" stroke-miterlimit="10" x1="149.293" y1="724.036" x2="160.486" y2="710.506"/>
			
				<line fill="none" stroke="#000000" stroke-width="2" stroke-miterlimit="10" x1="159.303" y1="732.055" x2="170.064" y2="718.179"/>
			
				<line fill="none" stroke="#000000" stroke-width="2" stroke-miterlimit="10" x1="169.557" y1="739.754" x2="179.879" y2="725.548"/>
			
				<line fill="none" stroke="#000000" stroke-width="2" stroke-miterlimit="10" x1="180.049" y1="747.128" x2="189.92" y2="732.604"/>
			
				<line fill="none" stroke="#000000" stroke-width="2" stroke-miterlimit="10" x1="190.768" y1="754.169" x2="200.176" y2="739.342"/>
			
				<line fill="none" stroke="#000000" stroke-width="2" stroke-miterlimit="10" x1="201.701" y1="760.869" x2="210.641" y2="745.754"/>
			
				<line fill="none" stroke="#000000" stroke-width="2" stroke-miterlimit="10" x1="212.84" y1="767.223" x2="221.301" y2="751.835"/>
			
				<line fill="none" stroke="#000000" stroke-width="2" stroke-miterlimit="10" x1="224.174" y1="773.224" x2="232.146" y2="757.577"/>
			
				<line fill="none" stroke="#000000" stroke-width="2" stroke-miterlimit="10" x1="235.691" y1="778.865" x2="243.168" y2="762.977"/>
			
				<line fill="none" stroke="#000000" stroke-width="2" stroke-miterlimit="10" x1="247.379" y1="784.143" x2="254.352" y2="768.026"/>
			
				<line fill="none" stroke="#000000" stroke-width="2" stroke-miterlimit="10" x1="259.227" y1="789.051" x2="265.691" y2="772.723"/>
			
				<line fill="none" stroke="#000000" stroke-width="2" stroke-miterlimit="10" x1="271.223" y1="793.583" x2="277.17" y2="777.061"/>
			
				<line fill="none" stroke="#000000" stroke-width="2" stroke-miterlimit="10" x1="283.355" y1="797.737" x2="288.781" y2="781.036"/>
			
				<line fill="none" stroke="#000000" stroke-width="2" stroke-miterlimit="10" x1="295.611" y1="801.508" x2="300.512" y2="784.645"/>
			
				<line fill="none" stroke="#000000" stroke-width="2" stroke-miterlimit="10" x1="307.98" y1="804.892" x2="312.348" y2="787.883"/>
			
				<line fill="none" stroke="#000000" stroke-width="2" stroke-miterlimit="10" x1="320.451" y1="807.886" x2="324.281" y2="790.748"/>
			
				<line fill="none" stroke="#000000" stroke-width="2" stroke-miterlimit="10" x1="333.008" y1="810.486" x2="336.299" y2="793.236"/>
			
				<line fill="none" stroke="#000000" stroke-width="2" stroke-miterlimit="10" x1="345.641" y1="812.691" x2="348.389" y2="795.347"/>
			
				<line fill="none" stroke="#000000" stroke-width="2" stroke-miterlimit="10" x1="358.338" y1="814.498" x2="360.539" y2="797.076"/>
			
				<line fill="none" stroke="#000000" stroke-width="2" stroke-miterlimit="10" x1="371.084" y1="815.905" x2="372.736" y2="798.423"/>
			
				<line fill="none" stroke="#000000" stroke-width="2" stroke-miterlimit="10" x1="383.869" y1="816.911" x2="384.971" y2="799.386"/>
			
				<line fill="none" stroke="#000000" stroke-width="2" stroke-miterlimit="10" x1="396.678" y1="817.516" x2="397.23" y2="799.964"/>
			<line fill="none" stroke="#000000" stroke-width="2" stroke-miterlimit="10" x1="409.5" y1="817.717" x2="409.5" y2="800.156"/>
			
				<line fill="none" stroke="#000000" stroke-width="2" stroke-miterlimit="10" x1="422.322" y1="817.516" x2="421.771" y2="799.964"/>
			
				<line fill="none" stroke="#000000" stroke-width="2" stroke-miterlimit="10" x1="435.133" y1="816.911" x2="434.031" y2="799.386"/>
			
				<line fill="none" stroke="#000000" stroke-width="2" stroke-miterlimit="10" x1="447.918" y1="815.905" x2="446.266" y2="798.423"/>
			
				<line fill="none" stroke="#000000" stroke-width="2" stroke-miterlimit="10" x1="460.664" y1="814.498" x2="458.463" y2="797.076"/>
			
				<line fill="none" stroke="#000000" stroke-width="2" stroke-miterlimit="10" x1="473.359" y1="812.691" x2="470.613" y2="795.347"/>
			
				<line fill="none" stroke="#000000" stroke-width="2" stroke-miterlimit="10" x1="485.992" y1="810.486" x2="482.703" y2="793.236"/>
			
				<line fill="none" stroke="#000000" stroke-width="2" stroke-miterlimit="10" x1="498.551" y1="807.886" x2="494.721" y2="790.748"/>
			
				<line fill="none" stroke="#000000" stroke-width="2" stroke-miterlimit="10" x1="511.02" y1="804.892" x2="506.652" y2="787.883"/>
			
				<line fill="none" stroke="#000000" stroke-width="2" stroke-miterlimit="10" x1="523.389" y1="801.508" x2="518.49" y2="784.645"/>
			
				<line fill="none" stroke="#000000" stroke-width="2" stroke-miterlimit="10" x1="535.646" y1="797.737" x2="530.221" y2="781.036"/>
			
				<line fill="none" stroke="#000000" stroke-width="2" stroke-miterlimit="10" x1="547.779" y1="793.583" x2="541.83" y2="777.061"/>
			
				<line fill="none" stroke="#000000" stroke-width="2" stroke-miterlimit="10" x1="559.775" y1="789.051" x2="553.311" y2="772.723"/>
			
				<line fill="none" stroke="#000000" stroke-width="2" stroke-miterlimit="10" x1="571.623" y1="784.143" x2="564.648" y2="768.026"/>
			
				<line fill="none" stroke="#000000" stroke-width="2" stroke-miterlimit="10" x1="583.311" y1="778.865" x2="575.834" y2="762.977"/>
			
				<line fill="none" stroke="#000000" stroke-width="2" stroke-miterlimit="10" x1="594.828" y1="773.224" x2="586.855" y2="757.577"/>
			
				<line fill="none" stroke="#000000" stroke-width="2" stroke-miterlimit="10" x1="606.16" y1="767.223" x2="597.701" y2="751.835"/>
			
				<line fill="none" stroke="#000000" stroke-width="2" stroke-miterlimit="10" x1="617.301" y1="760.869" x2="608.361" y2="745.754"/>
			
				<line fill="none" stroke="#000000" stroke-width="2" stroke-miterlimit="10" x1="628.234" y1="754.169" x2="618.824" y2="739.342"/>
			
				<line fill="none" stroke="#000000" stroke-width="2" stroke-miterlimit="10" x1="638.953" y1="747.128" x2="629.082" y2="732.604"/>
			
				<line fill="none" stroke="#000000" stroke-width="2" stroke-miterlimit="10" x1="649.445" y1="739.754" x2="639.123" y2="725.548"/>
			
				<line fill="none" stroke="#000000" stroke-width="2" stroke-miterlimit="10" x1="659.699" y1="732.055" x2="648.938" y2="718.179"/>
			
				<line fill="none" stroke="#000000" stroke-width="2" stroke-miterlimit="10" x1="669.709" y1="724.036" x2="658.514" y2="710.506"/>
			
				<line fill="none" stroke="#000000" stroke-width="2" stroke-miterlimit="10" x1="679.459" y1="715.708" x2="667.846" y2="702.535"/>
			
				<line fill="none" stroke="#000000" stroke-width="2" stroke-miterlimit="10" x1="688.945" y1="707.077" x2="676.924" y2="694.276"/>
			
				<line fill="none" stroke="#000000" stroke-width="2" stroke-miterlimit="10" x1="698.154" y1="698.153" x2="685.736" y2="685.735"/>
			
				<line fill="none" stroke="#000000" stroke-width="2" stroke-miterlimit="10" x1="707.078" y1="688.943" x2="694.277" y2="676.923"/>
			
				<line fill="none" stroke="#000000" stroke-width="2" stroke-miterlimit="10" x1="715.709" y1="679.459" x2="702.537" y2="667.846"/>
			
				<line fill="none" stroke="#000000" stroke-width="2" stroke-miterlimit="10" x1="724.037" y1="669.707" x2="710.506" y2="658.514"/>
			
				<line fill="none" stroke="#000000" stroke-width="2" stroke-miterlimit="10" x1="732.055" y1="659.699" x2="718.18" y2="648.936"/>
			
				<line fill="none" stroke="#000000" stroke-width="2" stroke-miterlimit="10" x1="739.756" y1="649.443" x2="725.549" y2="639.122"/>
			
				<line fill="none" stroke="#000000" stroke-width="2" stroke-miterlimit="10" x1="747.129" y1="638.952" x2="732.605" y2="629.081"/>
			
				<line fill="none" stroke="#000000" stroke-width="2" stroke-miterlimit="10" x1="754.17" y1="628.233" x2="739.344" y2="618.824"/>
			
				<line fill="none" stroke="#000000" stroke-width="2" stroke-miterlimit="10" x1="760.871" y1="617.299" x2="745.756" y2="608.36"/>
			<line fill="none" stroke="#000000" stroke-width="2" stroke-miterlimit="10" x1="767.225" y1="606.16" x2="751.836" y2="597.7"/>
			
				<line fill="none" stroke="#000000" stroke-width="2" stroke-miterlimit="10" x1="773.225" y1="594.826" x2="757.578" y2="586.854"/>
			
				<line fill="none" stroke="#000000" stroke-width="2" stroke-miterlimit="10" x1="778.867" y1="583.311" x2="762.977" y2="575.833"/>
			
				<line fill="none" stroke="#000000" stroke-width="2" stroke-miterlimit="10" x1="784.145" y1="571.622" x2="768.027" y2="564.648"/>
			
				<line fill="none" stroke="#000000" stroke-width="2" stroke-miterlimit="10" x1="789.051" y1="559.774" x2="772.725" y2="553.311"/>
			
				<line fill="none" stroke="#000000" stroke-width="2" stroke-miterlimit="10" x1="793.584" y1="547.778" x2="777.063" y2="541.83"/>
			
				<line fill="none" stroke="#000000" stroke-width="2" stroke-miterlimit="10" x1="797.738" y1="535.646" x2="781.037" y2="530.22"/>
			
				<line fill="none" stroke="#000000" stroke-width="2" stroke-miterlimit="10" x1="801.51" y1="523.389" x2="784.646" y2="518.489"/>
			
				<line fill="none" stroke="#000000" stroke-width="2" stroke-miterlimit="10" x1="804.893" y1="511.02" x2="787.885" y2="506.652"/>
			
				<line fill="none" stroke="#000000" stroke-width="2" stroke-miterlimit="10" x1="807.887" y1="498.55" x2="790.748" y2="494.719"/>
			
				<line fill="none" stroke="#000000" stroke-width="2" stroke-miterlimit="10" x1="810.486" y1="485.992" x2="793.238" y2="482.701"/>
			
				<line fill="none" stroke="#000000" stroke-width="2" stroke-miterlimit="10" x1="812.691" y1="473.359" x2="795.348" y2="470.612"/>
			
				<line fill="none" stroke="#000000" stroke-width="2" stroke-miterlimit="10" x1="814.498" y1="460.663" x2="797.076" y2="458.462"/>
			
				<line fill="none" stroke="#000000" stroke-width="2" stroke-miterlimit="10" x1="815.906" y1="447.917" x2="798.424" y2="446.264"/>
			
				<line fill="none" stroke="#000000" stroke-width="2" stroke-miterlimit="10" x1="816.912" y1="435.132" x2="799.387" y2="434.029"/>
			
				<line fill="none" stroke="#000000" stroke-width="2" stroke-miterlimit="10" x1="817.516" y1="422.322" x2="799.965" y2="421.771"/>
			<line fill="none" stroke="#000000" stroke-width="2" stroke-miterlimit="10" x1="817.717" y1="409.5" x2="800.156" y2="409.5"/>
			
				<line fill="none" stroke="#000000" stroke-width="2" stroke-miterlimit="10" x1="817.516" y1="396.678" x2="799.965" y2="397.229"/>
			
				<line fill="none" stroke="#000000" stroke-width="2" stroke-miterlimit="10" x1="816.912" y1="383.868" x2="799.387" y2="384.971"/>
			
				<line fill="none" stroke="#000000" stroke-width="2" stroke-miterlimit="10" x1="815.906" y1="371.083" x2="798.424" y2="372.736"/>
			
				<line fill="none" stroke="#000000" stroke-width="2" stroke-miterlimit="10" x1="814.498" y1="358.337" x2="797.076" y2="360.538"/>
			
				<line fill="none" stroke="#000000" stroke-width="2" stroke-miterlimit="10" x1="812.691" y1="345.641" x2="795.348" y2="348.388"/>
			
				<line fill="none" stroke="#000000" stroke-width="2" stroke-miterlimit="10" x1="810.486" y1="333.008" x2="793.238" y2="336.298"/>
			
				<line fill="none" stroke="#000000" stroke-width="2" stroke-miterlimit="10" x1="807.887" y1="320.45" x2="790.748" y2="324.281"/>
			
				<line fill="none" stroke="#000000" stroke-width="2" stroke-miterlimit="10" x1="804.893" y1="307.98" x2="787.885" y2="312.348"/>
			
				<line fill="none" stroke="#000000" stroke-width="2" stroke-miterlimit="10" x1="801.51" y1="295.611" x2="784.646" y2="300.511"/>
			
				<line fill="none" stroke="#000000" stroke-width="2" stroke-miterlimit="10" x1="797.738" y1="283.354" x2="781.037" y2="288.78"/>
			
				<line fill="none" stroke="#000000" stroke-width="2" stroke-miterlimit="10" x1="793.584" y1="271.222" x2="777.063" y2="277.17"/>
			
				<line fill="none" stroke="#000000" stroke-width="2" stroke-miterlimit="10" x1="789.051" y1="259.226" x2="772.725" y2="265.689"/>
			
				<line fill="none" stroke="#000000" stroke-width="2" stroke-miterlimit="10" x1="784.145" y1="247.378" x2="768.027" y2="254.352"/>
			
				<line fill="none" stroke="#000000" stroke-width="2" stroke-miterlimit="10" x1="778.867" y1="235.689" x2="762.977" y2="243.167"/>
			
				<line fill="none" stroke="#000000" stroke-width="2" stroke-miterlimit="10" x1="773.225" y1="224.174" x2="757.578" y2="232.146"/>
			<line fill="none" stroke="#000000" stroke-width="2" stroke-miterlimit="10" x1="767.225" y1="212.84" x2="751.836" y2="221.3"/>
			
				<line fill="none" stroke="#000000" stroke-width="2" stroke-miterlimit="10" x1="760.871" y1="201.701" x2="745.756" y2="210.64"/>
			
				<line fill="none" stroke="#000000" stroke-width="2" stroke-miterlimit="10" x1="754.17" y1="190.767" x2="739.344" y2="200.176"/>
			
				<line fill="none" stroke="#000000" stroke-width="2" stroke-miterlimit="10" x1="747.129" y1="180.048" x2="732.605" y2="189.919"/>
			
				<line fill="none" stroke="#000000" stroke-width="2" stroke-miterlimit="10" x1="739.756" y1="169.557" x2="725.549" y2="179.878"/>
			
				<line fill="none" stroke="#000000" stroke-width="2" stroke-miterlimit="10" x1="732.055" y1="159.301" x2="718.18" y2="170.064"/>
			
				<line fill="none" stroke="#000000" stroke-width="2" stroke-miterlimit="10" x1="724.037" y1="149.293" x2="710.506" y2="160.486"/>
			
				<line fill="none" stroke="#000000" stroke-width="2" stroke-miterlimit="10" x1="715.709" y1="139.541" x2="702.537" y2="151.154"/>
			
				<line fill="none" stroke="#000000" stroke-width="2" stroke-miterlimit="10" x1="707.078" y1="130.057" x2="694.277" y2="142.077"/>
			
				<line fill="none" stroke="#000000" stroke-width="2" stroke-miterlimit="10" x1="698.154" y1="120.847" x2="685.736" y2="133.265"/>
			
				<line fill="none" stroke="#000000" stroke-width="2" stroke-miterlimit="10" x1="688.945" y1="111.923" x2="676.924" y2="124.724"/>
			
				<line fill="none" stroke="#000000" stroke-width="2" stroke-miterlimit="10" x1="679.459" y1="103.292" x2="667.846" y2="116.465"/>
			
				<line fill="none" stroke="#000000" stroke-width="2" stroke-miterlimit="10" x1="669.709" y1="94.964" x2="658.514" y2="108.494"/>
			
				<line fill="none" stroke="#000000" stroke-width="2" stroke-miterlimit="10" x1="659.699" y1="86.945" x2="648.938" y2="100.821"/>
			
				<line fill="none" stroke="#000000" stroke-width="2" stroke-miterlimit="10" x1="649.445" y1="79.246" x2="639.123" y2="93.452"/>
			
				<line fill="none" stroke="#000000" stroke-width="2" stroke-miterlimit="10" x1="638.953" y1="71.872" x2="629.082" y2="86.396"/>
			
				<line fill="none" stroke="#000000" stroke-width="2" stroke-miterlimit="10" x1="628.234" y1="64.831" x2="618.824" y2="79.658"/>
			
				<line fill="none" stroke="#000000" stroke-width="2" stroke-miterlimit="10" x1="617.301" y1="58.131" x2="608.361" y2="73.246"/>
			<line fill="none" stroke="#000000" stroke-width="2" stroke-miterlimit="10" x1="606.16" y1="51.777" x2="597.701" y2="67.165"/>
			
				<line fill="none" stroke="#000000" stroke-width="2" stroke-miterlimit="10" x1="594.828" y1="45.776" x2="586.855" y2="61.423"/>
			
				<line fill="none" stroke="#000000" stroke-width="2" stroke-miterlimit="10" x1="583.311" y1="40.135" x2="575.834" y2="56.023"/>
			
				<line fill="none" stroke="#000000" stroke-width="2" stroke-miterlimit="10" x1="571.623" y1="34.857" x2="564.648" y2="50.974"/>
			<line fill="none" stroke="#000000" stroke-width="2" stroke-miterlimit="10" x1="559.775" y1="29.95" x2="553.311" y2="46.277"/>
			<line fill="none" stroke="#000000" stroke-width="2" stroke-miterlimit="10" x1="547.779" y1="25.417" x2="541.83" y2="41.939"/>
			
				<line fill="none" stroke="#000000" stroke-width="2" stroke-miterlimit="10" x1="535.646" y1="21.263" x2="530.221" y2="37.964"/>
			<line fill="none" stroke="#000000" stroke-width="2" stroke-miterlimit="10" x1="523.391" y1="17.492" x2="518.49" y2="34.355"/>
			<line fill="none" stroke="#000000" stroke-width="2" stroke-miterlimit="10" x1="511.02" y1="14.108" x2="506.652" y2="31.117"/>
			
				<line fill="none" stroke="#000000" stroke-width="2" stroke-miterlimit="10" x1="498.551" y1="11.114" x2="494.721" y2="28.252"/>
			<line fill="none" stroke="#000000" stroke-width="2" stroke-miterlimit="10" x1="485.992" y1="8.514" x2="482.703" y2="25.764"/>
			<line fill="none" stroke="#000000" stroke-width="2" stroke-miterlimit="10" x1="473.359" y1="6.31" x2="470.613" y2="23.653"/>
			<line fill="none" stroke="#000000" stroke-width="2" stroke-miterlimit="10" x1="460.664" y1="4.502" x2="458.463" y2="21.925"/>
			<line fill="none" stroke="#000000" stroke-width="2" stroke-miterlimit="10" x1="447.918" y1="3.095" x2="446.266" y2="20.578"/>
			<line fill="none" stroke="#000000" stroke-width="2" stroke-miterlimit="10" x1="435.133" y1="2.089" x2="434.031" y2="19.615"/>
			<line fill="none" stroke="#000000" stroke-width="2" stroke-miterlimit="10" x1="422.322" y1="1.484" x2="421.771" y2="19.037"/>
		</g>
		<circle fill="none" stroke="#000000" stroke-width="3" stroke-miterlimit="10" cx="409.5" cy="409.5" r="408"/>
		<g>
			<g>
				<g>
					<path d="M395.941,91.533c0-4.875,0.514-8.799,1.543-11.771c1.029-2.972,2.557-5.264,4.586-6.877
						c2.027-1.612,4.58-2.419,7.654-2.419c2.27,0,4.258,0.446,5.971,1.336c1.711,0.891,3.123,2.176,4.238,3.854
						c1.115,1.678,1.99,3.723,2.623,6.132c0.635,2.41,0.953,5.658,0.953,9.746c0,4.838-0.51,8.743-1.529,11.715
						c-1.02,2.972-2.543,5.269-4.57,6.891c-2.027,1.622-4.59,2.433-7.686,2.433c-4.074,0-7.275-1.425-9.602-4.275
						C397.336,104.865,395.941,99.277,395.941,91.533z M401.277,91.533c0,6.769,0.811,11.274,2.436,13.515
						c1.625,2.241,3.629,3.361,6.012,3.361c2.385,0,4.389-1.125,6.014-3.375c1.623-2.25,2.436-6.75,2.436-13.5
						c0-6.788-0.813-11.297-2.436-13.529c-1.625-2.231-3.648-3.347-6.07-3.347c-2.385,0-4.287,0.984-5.709,2.954
						C402.17,80.123,401.277,84.764,401.277,91.533z"/>
				</g>
			</g>
			<g>
				<g>
					<path d="M351.721,159.801h-5.186v-33.043c-1.248,1.191-2.887,2.382-4.912,3.572c-2.025,1.191-3.846,2.084-5.459,2.679v-5.013
						c2.9-1.363,5.436-3.015,7.605-4.955c2.17-1.939,3.707-3.822,4.609-5.646h3.342V159.801z"/>
					<path d="M363.822,138.973c0-4.993,0.512-9.012,1.541-12.056c1.027-3.044,2.553-5.392,4.58-7.044
						c2.025-1.651,4.576-2.478,7.648-2.478c2.266,0,4.254,0.457,5.963,1.368c1.709,0.913,3.121,2.229,4.236,3.947
						c1.113,1.719,1.986,3.813,2.621,6.28c0.633,2.468,0.951,5.795,0.951,9.982c0,4.955-0.51,8.955-1.527,11.999
						c-1.02,3.044-2.541,5.397-4.566,7.059c-2.027,1.661-4.586,2.492-7.678,2.492c-4.072,0-7.27-1.459-9.594-4.379
						C365.213,152.628,363.822,146.905,363.822,138.973z M369.15,138.973c0,6.934,0.813,11.548,2.436,13.842
						c1.621,2.295,3.625,3.443,6.006,3.443s4.383-1.152,6.006-3.457s2.436-6.914,2.436-13.828c0-6.952-0.813-11.571-2.436-13.857
						c-1.623-2.285-3.643-3.428-6.063-3.428c-2.383,0-4.283,1.008-5.705,3.025C370.045,127.286,369.15,132.04,369.15,138.973z"/>
					<path d="M395.455,138.973c0-4.993,0.512-9.012,1.541-12.056c1.027-3.044,2.553-5.392,4.58-7.044
						c2.025-1.651,4.576-2.478,7.648-2.478c2.266,0,4.254,0.457,5.963,1.368c1.709,0.913,3.121,2.229,4.236,3.947
						c1.113,1.719,1.986,3.813,2.621,6.28c0.633,2.468,0.951,5.795,0.951,9.982c0,4.955-0.51,8.955-1.527,11.999
						c-1.02,3.044-2.541,5.397-4.566,7.059c-2.027,1.661-4.586,2.492-7.678,2.492c-4.072,0-7.27-1.459-9.594-4.379
						C396.846,152.628,395.455,146.905,395.455,138.973z M400.783,138.973c0,6.934,0.813,11.548,2.436,13.842
						c1.621,2.295,3.625,3.443,6.006,3.443s4.383-1.152,6.006-3.457s2.436-6.914,2.436-13.828c0-6.952-0.813-11.571-2.436-13.857
						c-1.623-2.285-3.643-3.428-6.063-3.428c-2.383,0-4.283,1.008-5.705,3.025C401.678,127.286,400.783,132.04,400.783,138.973z"/>
					<path d="M427.088,138.973c0-4.993,0.514-9.012,1.541-12.056s2.555-5.392,4.58-7.044c2.027-1.651,4.576-2.478,7.648-2.478
						c2.268,0,4.254,0.457,5.965,1.368c1.709,0.913,3.121,2.229,4.234,3.947s1.988,3.813,2.621,6.28
						c0.635,2.468,0.951,5.795,0.951,9.982c0,4.955-0.51,8.955-1.527,11.999c-1.018,3.044-2.539,5.397-4.566,7.059
						c-2.025,1.661-4.584,2.492-7.678,2.492c-4.07,0-7.27-1.459-9.592-4.379C428.48,152.628,427.088,146.905,427.088,138.973z
						 M432.418,138.973c0,6.934,0.811,11.548,2.434,13.842c1.623,2.295,3.625,3.443,6.006,3.443c2.383,0,4.385-1.152,6.008-3.457
						s2.434-6.914,2.434-13.828c0-6.952-0.811-11.571-2.434-13.857c-1.623-2.285-3.645-3.428-6.064-3.428
						c-2.381,0-4.283,1.008-5.705,3.025C433.311,127.286,432.418,132.04,432.418,138.973z"/>
					<path d="M459.211,162.336l5.041,0.749c0.211,1.556,0.797,2.688,1.758,3.399c1.285,0.96,3.043,1.44,5.271,1.44
						c2.4,0,4.254-0.48,5.561-1.44c1.305-0.96,2.189-2.305,2.65-4.033c0.268-1.057,0.393-3.274,0.373-6.655
						c-2.266,2.67-5.088,4.004-8.469,4.004c-4.207,0-7.461-1.517-9.766-4.552c-2.305-3.034-3.457-6.674-3.457-10.918
						c0-2.919,0.527-5.613,1.584-8.081s2.588-4.374,4.596-5.719c2.006-1.344,4.363-2.017,7.072-2.017c3.609,0,6.586,1.46,8.93,4.379
						v-3.688h4.783v26.446c0,4.763-0.486,8.139-1.455,10.126c-0.971,1.988-2.506,3.558-4.609,4.71s-4.691,1.729-7.764,1.729
						c-3.65,0-6.598-0.821-8.846-2.463C460.219,168.113,459.133,165.64,459.211,162.336z M463.502,143.957
						c0,4.014,0.797,6.943,2.393,8.787c1.594,1.844,3.59,2.766,5.992,2.766c2.381,0,4.379-0.917,5.992-2.751
						c1.613-1.833,2.42-4.71,2.42-8.628c0-3.745-0.832-6.568-2.492-8.47c-1.662-1.901-3.664-2.852-6.008-2.852
						c-2.305,0-4.264,0.936-5.877,2.809C464.309,137.489,463.502,140.269,463.502,143.957z"/>
				</g>
			</g>
			<g>
				<g>
					<path d="M193.938,187.233l5.109-0.461c0.434,2.343,1.26,4.043,2.48,5.099c1.221,1.057,2.787,1.584,4.697,1.584
						c1.633,0,3.066-0.365,4.297-1.095c1.23-0.729,2.24-1.704,3.027-2.924c0.787-1.219,1.447-2.866,1.979-4.94
						s0.799-4.187,0.799-6.338c0-0.23-0.012-0.576-0.031-1.037c-1.063,1.652-2.516,2.992-4.355,4.019
						c-1.842,1.028-3.836,1.542-5.98,1.542c-3.584,0-6.617-1.268-9.098-3.803s-3.721-5.877-3.721-10.025
						c0-4.283,1.293-7.73,3.883-10.342c2.59-2.612,5.834-3.918,9.732-3.918c2.816,0,5.391,0.74,7.723,2.218
						c2.334,1.479,4.105,3.586,5.316,6.324c1.211,2.736,1.816,6.698,1.816,11.883c0,5.397-0.6,9.694-1.801,12.892
						c-1.201,3.197-2.988,5.632-5.361,7.303s-5.154,2.506-8.344,2.506c-3.387,0-6.152-0.917-8.299-2.751
						C195.66,193.135,194.371,190.556,193.938,187.233z M215.705,168.594c0-2.977-0.813-5.339-2.438-7.087
						c-1.623-1.748-3.578-2.622-5.861-2.622c-2.363,0-4.422,0.941-6.174,2.823c-1.752,1.882-2.629,4.321-2.629,7.317
						c0,2.689,0.832,4.874,2.496,6.554s3.717,2.521,6.158,2.521c2.461,0,4.484-0.84,6.07-2.521
						C214.912,173.9,215.705,171.571,215.705,168.594z"/>
					<path d="M225.57,176.171c0-4.993,0.527-9.012,1.58-12.056s2.619-5.392,4.697-7.044c2.076-1.651,4.689-2.478,7.842-2.478
						c2.322,0,4.359,0.457,6.113,1.368c1.752,0.913,3.199,2.229,4.342,3.947c1.141,1.719,2.037,3.813,2.688,6.28
						s0.975,5.795,0.975,9.982c0,4.955-0.521,8.955-1.566,11.999c-1.043,3.044-2.604,5.397-4.68,7.059
						c-2.078,1.661-4.701,2.492-7.871,2.492c-4.176,0-7.453-1.459-9.836-4.379C226.998,189.826,225.57,184.103,225.57,176.171z
						 M231.035,176.171c0,6.934,0.832,11.548,2.496,13.842c1.662,2.295,3.715,3.443,6.158,3.443c2.439,0,4.492-1.152,6.156-3.457
						s2.496-6.914,2.496-13.828c0-6.952-0.832-11.571-2.496-13.857c-1.664-2.285-3.734-3.428-6.217-3.428
						c-2.441,0-4.391,1.008-5.848,3.025C231.951,164.484,231.035,169.238,231.035,176.171z"/>
					<path d="M258.002,176.171c0-4.993,0.527-9.012,1.58-12.056s2.619-5.392,4.697-7.044c2.076-1.651,4.689-2.478,7.842-2.478
						c2.322,0,4.359,0.457,6.113,1.368c1.752,0.913,3.199,2.229,4.342,3.947c1.141,1.719,2.037,3.813,2.688,6.28
						s0.975,5.795,0.975,9.982c0,4.955-0.521,8.955-1.566,11.999c-1.043,3.044-2.604,5.397-4.68,7.059
						c-2.078,1.661-4.701,2.492-7.871,2.492c-4.176,0-7.453-1.459-9.836-4.379C259.43,189.826,258.002,184.103,258.002,176.171z
						 M263.467,176.171c0,6.934,0.832,11.548,2.496,13.842c1.662,2.295,3.715,3.443,6.158,3.443c2.439,0,4.492-1.152,6.156-3.457
						s2.496-6.914,2.496-13.828c0-6.952-0.832-11.571-2.496-13.857c-1.664-2.285-3.734-3.428-6.217-3.428
						c-2.441,0-4.391,1.008-5.848,3.025C264.383,164.484,263.467,169.238,263.467,176.171z"/>
				</g>
			</g>
			<g>
				<g>
					<path d="M114.619,317.495c-2.205-0.787-3.84-1.911-4.902-3.371c-1.064-1.459-1.596-3.207-1.596-5.243
						c0-3.073,1.133-5.656,3.396-7.75c2.264-2.093,5.277-3.14,9.039-3.14c3.779,0,6.822,1.071,9.125,3.212
						c2.305,2.142,3.457,4.749,3.457,7.822c0,1.959-0.527,3.664-1.58,5.114c-1.055,1.45-2.654,2.569-4.801,3.356
						c2.658,0.845,4.682,2.209,6.07,4.091c1.389,1.882,2.082,4.129,2.082,6.741c0,3.611-1.311,6.646-3.928,9.104
						c-2.619,2.458-6.066,3.688-10.338,3.688c-4.273,0-7.719-1.234-10.338-3.702s-3.928-5.546-3.928-9.233
						c0-2.746,0.713-5.046,2.141-6.899S111.98,318.167,114.619,317.495z M111.842,328.211c0,1.479,0.359,2.91,1.078,4.292
						s1.787,2.454,3.205,3.212c1.418,0.759,2.943,1.138,4.578,1.138c2.541,0,4.637-0.797,6.291-2.391
						c1.654-1.594,2.48-3.62,2.48-6.079c0-2.497-0.852-4.561-2.555-6.194c-1.703-1.632-3.834-2.449-6.395-2.449
						c-2.5,0-4.572,0.807-6.217,2.42S111.842,325.792,111.842,328.211z M113.557,308.708c0,1.998,0.658,3.63,1.979,4.897
						c1.318,1.268,3.031,1.901,5.139,1.901c2.047,0,3.727-0.629,5.035-1.887c1.311-1.258,1.965-2.799,1.965-4.624
						c0-1.901-0.674-3.5-2.023-4.797c-1.35-1.296-3.027-1.944-5.035-1.944c-2.029,0-3.713,0.634-5.051,1.901
						C114.225,305.424,113.557,306.941,113.557,308.708z"/>
					<path d="M138.869,319.569c0-4.993,0.525-9.012,1.58-12.056c1.053-3.044,2.617-5.392,4.695-7.044
						c2.078-1.651,4.691-2.478,7.842-2.478c2.322,0,4.361,0.457,6.113,1.368c1.752,0.913,3.199,2.229,4.342,3.947
						s2.039,3.813,2.688,6.28c0.65,2.468,0.975,5.795,0.975,9.982c0,4.955-0.521,8.955-1.564,11.999
						c-1.045,3.044-2.604,5.397-4.682,7.059s-4.701,2.492-7.871,2.492c-4.174,0-7.453-1.459-9.836-4.379
						C140.295,333.224,138.869,327.501,138.869,319.569z M144.332,319.569c0,6.934,0.832,11.548,2.496,13.842
						c1.664,2.295,3.717,3.443,6.158,3.443s4.494-1.152,6.158-3.457s2.496-6.914,2.496-13.828c0-6.952-0.832-11.571-2.496-13.857
						c-1.664-2.285-3.736-3.428-6.217-3.428c-2.441,0-4.391,1.008-5.848,3.025C145.248,307.882,144.332,312.636,144.332,319.569z"/>
					<path d="M171.301,319.569c0-4.993,0.525-9.012,1.58-12.056c1.053-3.044,2.617-5.392,4.695-7.044
						c2.078-1.651,4.691-2.478,7.842-2.478c2.322,0,4.361,0.457,6.113,1.368c1.752,0.913,3.199,2.229,4.342,3.947
						s2.039,3.813,2.688,6.28c0.65,2.468,0.975,5.795,0.975,9.982c0,4.955-0.521,8.955-1.564,11.999
						c-1.045,3.044-2.604,5.397-4.682,7.059s-4.701,2.492-7.871,2.492c-4.174,0-7.453-1.459-9.836-4.379
						C172.727,333.224,171.301,327.501,171.301,319.569z M176.764,319.569c0,6.934,0.832,11.548,2.496,13.842
						c1.664,2.295,3.717,3.443,6.158,3.443s4.494-1.152,6.158-3.457s2.496-6.914,2.496-13.828c0-6.952-0.832-11.571-2.496-13.857
						c-1.664-2.285-3.736-3.428-6.217-3.428c-2.441,0-4.391,1.008-5.848,3.025C177.68,307.882,176.764,312.636,176.764,319.569z"/>
				</g>
			</g>
			<g>
				<g>
					<path d="M109.215,481.629v-4.984h28.029v4.033c-2.758,2.862-5.49,6.665-8.197,11.408c-2.707,4.744-4.799,9.622-6.275,14.635
						c-1.064,3.534-1.744,7.404-2.039,11.61h-5.463c0.059-3.322,0.727-7.336,2.008-12.042c1.279-4.705,3.115-9.243,5.508-13.612
						c2.393-4.369,4.938-8.052,7.635-11.048H109.215z"/>
					<path d="M141.291,497.503c0-4.993,0.525-9.012,1.58-12.056c1.053-3.044,2.617-5.392,4.695-7.044
						c2.078-1.651,4.691-2.478,7.842-2.478c2.322,0,4.361,0.457,6.113,1.368c1.752,0.913,3.199,2.229,4.342,3.947
						s2.039,3.813,2.688,6.28c0.65,2.468,0.975,5.795,0.975,9.982c0,4.955-0.521,8.955-1.564,11.999
						c-1.045,3.044-2.604,5.397-4.682,7.059s-4.701,2.492-7.871,2.492c-4.174,0-7.453-1.459-9.836-4.379
						C142.717,511.158,141.291,505.435,141.291,497.503z M146.754,497.503c0,6.934,0.832,11.548,2.496,13.842
						c1.664,2.295,3.717,3.443,6.158,3.443s4.494-1.152,6.158-3.457s2.496-6.914,2.496-13.828c0-6.952-0.832-11.571-2.496-13.857
						c-1.664-2.285-3.736-3.428-6.217-3.428c-2.441,0-4.391,1.008-5.848,3.025C147.67,485.816,146.754,490.57,146.754,497.503z"/>
					<path d="M173.723,497.503c0-4.993,0.525-9.012,1.58-12.056c1.053-3.044,2.617-5.392,4.695-7.044
						c2.078-1.651,4.691-2.478,7.842-2.478c2.322,0,4.361,0.457,6.113,1.368c1.752,0.913,3.199,2.229,4.342,3.947
						s2.039,3.813,2.688,6.28c0.65,2.468,0.975,5.795,0.975,9.982c0,4.955-0.521,8.955-1.564,11.999
						c-1.045,3.044-2.604,5.397-4.682,7.059s-4.701,2.492-7.871,2.492c-4.174,0-7.453-1.459-9.836-4.379
						C175.148,511.158,173.723,505.435,173.723,497.503z M179.186,497.503c0,6.934,0.832,11.548,2.496,13.842
						c1.664,2.295,3.717,3.443,6.158,3.443s4.494-1.152,6.158-3.457s2.496-6.914,2.496-13.828c0-6.952-0.832-11.571-2.496-13.857
						c-1.664-2.285-3.736-3.428-6.217-3.428c-2.441,0-4.391,1.008-5.848,3.025C180.102,485.816,179.186,490.57,179.186,497.503z"/>
				</g>
			</g>
			<g>
				<g>
					<path d="M208.736,640.404l-5.287,0.403c-0.473-2.036-1.143-3.515-2.008-4.437c-1.438-1.479-3.211-2.218-5.316-2.218
						c-1.695,0-3.182,0.461-4.461,1.383c-1.674,1.191-2.992,2.929-3.957,5.214c-0.965,2.286-1.467,5.541-1.506,9.766
						c1.279-1.901,2.844-3.313,4.695-4.235c1.85-0.922,3.791-1.383,5.818-1.383c3.545,0,6.561,1.272,9.053,3.817
						c2.49,2.545,3.736,5.834,3.736,9.867c0,2.65-0.586,5.113-1.758,7.39c-1.172,2.275-2.781,4.019-4.828,5.229
						c-2.049,1.21-4.371,1.815-6.971,1.815c-4.43,0-8.045-1.589-10.84-4.768c-2.797-3.178-4.193-8.417-4.193-15.715
						c0-8.162,1.545-14.097,4.637-17.804c2.697-3.227,6.33-4.84,10.898-4.84c3.406,0,6.197,0.932,8.373,2.794
						C206.998,634.547,208.303,637.12,208.736,640.404z M187.027,658.611c0,1.786,0.389,3.496,1.166,5.128
						c0.777,1.633,1.865,2.876,3.264,3.731s2.865,1.282,4.4,1.282c2.246,0,4.176-0.883,5.789-2.65
						c1.615-1.767,2.422-4.167,2.422-7.202c0-2.919-0.797-5.219-2.391-6.9c-1.596-1.68-3.604-2.521-6.025-2.521
						c-2.402,0-4.441,0.84-6.115,2.521C187.863,653.681,187.027,655.884,187.027,658.611z"/>
					<path d="M213.58,651.467c0-4.993,0.527-9.012,1.58-12.056s2.619-5.392,4.697-7.044c2.076-1.651,4.689-2.478,7.842-2.478
						c2.322,0,4.359,0.457,6.113,1.368c1.752,0.913,3.199,2.229,4.342,3.947c1.141,1.719,2.037,3.813,2.688,6.28
						s0.975,5.795,0.975,9.982c0,4.955-0.521,8.955-1.566,11.999c-1.043,3.044-2.604,5.397-4.68,7.059
						c-2.078,1.661-4.701,2.492-7.871,2.492c-4.176,0-7.453-1.459-9.836-4.379C215.008,665.122,213.58,659.399,213.58,651.467z
						 M219.045,651.467c0,6.934,0.832,11.548,2.496,13.842c1.662,2.295,3.715,3.443,6.158,3.443c2.439,0,4.492-1.152,6.156-3.457
						s2.496-6.914,2.496-13.828c0-6.952-0.832-11.571-2.496-13.857c-1.664-2.285-3.734-3.428-6.217-3.428
						c-2.441,0-4.391,1.008-5.848,3.025C219.961,639.78,219.045,644.534,219.045,651.467z"/>
					<path d="M246.012,651.467c0-4.993,0.527-9.012,1.58-12.056s2.619-5.392,4.697-7.044c2.076-1.651,4.689-2.478,7.842-2.478
						c2.322,0,4.359,0.457,6.113,1.368c1.752,0.913,3.199,2.229,4.342,3.947c1.141,1.719,2.037,3.813,2.688,6.28
						s0.975,5.795,0.975,9.982c0,4.955-0.521,8.955-1.566,11.999c-1.043,3.044-2.604,5.397-4.68,7.059
						c-2.078,1.661-4.701,2.492-7.871,2.492c-4.176,0-7.453-1.459-9.836-4.379C247.439,665.122,246.012,659.399,246.012,651.467z
						 M251.477,651.467c0,6.934,0.832,11.548,2.496,13.842c1.662,2.295,3.715,3.443,6.158,3.443c2.439,0,4.492-1.152,6.156-3.457
						s2.496-6.914,2.496-13.828c0-6.952-0.832-11.571-2.496-13.857c-1.664-2.285-3.734-3.428-6.217-3.428
						c-2.441,0-4.391,1.008-5.848,3.025C252.393,639.78,251.477,644.534,251.477,651.467z"/>
				</g>
			</g>
			<g>
				<g>
					<path d="M624.541,507.183l5.316-0.691c0.611,2.938,1.648,5.056,3.117,6.352c1.467,1.297,3.252,1.945,5.359,1.945
						c2.5,0,4.613-0.845,6.336-2.535c1.723-1.69,2.584-3.783,2.584-6.28c0-2.381-0.797-4.345-2.393-5.891
						c-1.594-1.546-3.623-2.319-6.084-2.319c-1.004,0-2.254,0.192-3.75,0.576l0.59-4.552c0.355,0.039,0.641,0.058,0.857,0.058
						c2.264,0,4.301-0.576,6.113-1.729c1.811-1.152,2.717-2.929,2.717-5.33c0-1.901-0.66-3.476-1.979-4.725
						c-1.32-1.248-3.023-1.873-5.109-1.873c-2.068,0-3.791,0.634-5.17,1.901c-1.377,1.268-2.264,3.169-2.658,5.704l-5.316-0.922
						c0.65-3.476,2.127-6.169,4.432-8.081c2.303-1.911,5.168-2.866,8.594-2.866c2.363,0,4.539,0.495,6.527,1.483
						c1.988,0.99,3.51,2.339,4.564,4.048c1.053,1.709,1.58,3.524,1.58,5.445c0,1.825-0.502,3.486-1.508,4.984
						c-1.004,1.498-2.49,2.689-4.459,3.572c2.559,0.576,4.549,1.771,5.967,3.587c1.418,1.814,2.127,4.086,2.127,6.813
						c0,3.688-1.379,6.813-4.137,9.377c-2.756,2.563-6.242,3.846-10.455,3.846c-3.801,0-6.955-1.104-9.465-3.313
						C626.328,513.559,624.896,510.697,624.541,507.183z"/>
					<path d="M656.943,497.503c0-4.993,0.525-9.012,1.58-12.056c1.053-3.044,2.617-5.392,4.695-7.044
						c2.078-1.651,4.691-2.478,7.842-2.478c2.322,0,4.361,0.457,6.113,1.368c1.752,0.913,3.199,2.229,4.342,3.947
						s2.039,3.813,2.688,6.28c0.65,2.468,0.975,5.795,0.975,9.982c0,4.955-0.521,8.955-1.564,11.999
						c-1.045,3.044-2.604,5.397-4.682,7.059s-4.701,2.492-7.871,2.492c-4.174,0-7.453-1.459-9.836-4.379
						C658.369,511.158,656.943,505.435,656.943,497.503z M662.406,497.503c0,6.934,0.832,11.548,2.496,13.842
						c1.664,2.295,3.717,3.443,6.158,3.443s4.494-1.152,6.158-3.457s2.496-6.914,2.496-13.828c0-6.952-0.832-11.571-2.496-13.857
						c-1.664-2.285-3.736-3.428-6.217-3.428c-2.441,0-4.391,1.008-5.848,3.025C663.322,485.816,662.406,490.57,662.406,497.503z"/>
					<path d="M689.375,497.503c0-4.993,0.525-9.012,1.58-12.056c1.053-3.044,2.617-5.392,4.695-7.044
						c2.078-1.651,4.691-2.478,7.842-2.478c2.322,0,4.361,0.457,6.113,1.368c1.752,0.913,3.199,2.229,4.342,3.947
						s2.039,3.813,2.688,6.28c0.65,2.468,0.975,5.795,0.975,9.982c0,4.955-0.521,8.955-1.564,11.999
						c-1.045,3.044-2.604,5.397-4.682,7.059s-4.701,2.492-7.871,2.492c-4.174,0-7.453-1.459-9.836-4.379
						C690.801,511.158,689.375,505.435,689.375,497.503z M694.838,497.503c0,6.934,0.832,11.548,2.496,13.842
						c1.664,2.295,3.717,3.443,6.158,3.443s4.494-1.152,6.158-3.457s2.496-6.914,2.496-13.828c0-6.952-0.832-11.571-2.496-13.857
						c-1.664-2.285-3.736-3.428-6.217-3.428c-2.441,0-4.391,1.008-5.848,3.025C695.754,485.816,694.838,490.57,694.838,497.503z"/>
				</g>
			</g>
			<g>
				<g>
					<path d="M564.785,672.295v-10.112H546v-4.753l19.76-27.368h4.342v27.368h5.848v4.753h-5.848v10.112H564.785z M564.785,657.43
						v-19.042l-13.557,19.042H564.785z"/>
					<path d="M580.174,651.466c0-4.993,0.525-9.012,1.58-12.056c1.053-3.044,2.617-5.392,4.695-7.044
						c2.078-1.651,4.691-2.478,7.842-2.478c2.322,0,4.361,0.457,6.113,1.368c1.752,0.913,3.199,2.229,4.342,3.947
						s2.039,3.813,2.688,6.28c0.65,2.468,0.975,5.795,0.975,9.982c0,4.955-0.521,8.955-1.564,11.999
						c-1.045,3.044-2.604,5.397-4.682,7.059s-4.701,2.492-7.871,2.492c-4.174,0-7.453-1.459-9.836-4.379
						C581.6,665.122,580.174,659.398,580.174,651.466z M585.637,651.466c0,6.934,0.832,11.548,2.496,13.842
						c1.664,2.295,3.717,3.443,6.158,3.443s4.494-1.152,6.158-3.457s2.496-6.914,2.496-13.828c0-6.952-0.832-11.571-2.496-13.857
						c-1.664-2.285-3.736-3.428-6.217-3.428c-2.441,0-4.391,1.008-5.848,3.025C586.553,639.78,585.637,644.533,585.637,651.466z"/>
					<path d="M612.605,651.466c0-4.993,0.525-9.012,1.58-12.056c1.053-3.044,2.617-5.392,4.695-7.044
						c2.078-1.651,4.691-2.478,7.842-2.478c2.322,0,4.361,0.457,6.113,1.368c1.752,0.913,3.199,2.229,4.342,3.947
						s2.039,3.813,2.688,6.28c0.65,2.468,0.975,5.795,0.975,9.982c0,4.955-0.521,8.955-1.564,11.999
						c-1.045,3.044-2.604,5.397-4.682,7.059s-4.701,2.492-7.871,2.492c-4.174,0-7.453-1.459-9.836-4.379
						C614.031,665.122,612.605,659.398,612.605,651.466z M618.068,651.466c0,6.934,0.832,11.548,2.496,13.842
						c1.664,2.295,3.717,3.443,6.158,3.443s4.494-1.152,6.158-3.457s2.496-6.914,2.496-13.828c0-6.952-0.832-11.571-2.496-13.857
						c-1.664-2.285-3.736-3.428-6.217-3.428c-2.441,0-4.391,1.008-5.848,3.025C618.984,639.78,618.068,644.533,618.068,651.466z"/>
				</g>
			</g>
			<g>
				<g>
					<path d="M652.453,335.414v4.984h-28.619c-0.039-1.248,0.166-2.449,0.619-3.601c0.729-1.901,1.896-3.774,3.5-5.618
						c1.605-1.844,3.924-3.976,6.957-6.396c4.705-3.764,7.885-6.746,9.539-8.945c1.654-2.199,2.48-4.278,2.48-6.237
						c0-2.055-0.752-3.789-2.26-5.2c-1.506-1.412-3.469-2.118-5.891-2.118c-2.561,0-4.607,0.749-6.145,2.247
						c-1.535,1.498-2.314,3.572-2.332,6.223l-5.465-0.547c0.373-3.976,1.781-7.005,4.223-9.089s5.721-3.126,9.836-3.126
						c4.154,0,7.443,1.124,9.865,3.371s3.633,5.032,3.633,8.354c0,1.69-0.355,3.352-1.063,4.984
						c-0.709,1.633-1.887,3.352-3.531,5.157c-1.643,1.806-4.375,4.283-8.195,7.433c-3.189,2.612-5.238,4.384-6.143,5.315
						c-0.906,0.932-1.654,1.868-2.246,2.809H652.453z"/>
					<path d="M656.943,319.569c0-4.993,0.527-9.012,1.58-12.056s2.619-5.392,4.697-7.044c2.076-1.651,4.689-2.478,7.842-2.478
						c2.322,0,4.359,0.457,6.113,1.368c1.752,0.913,3.199,2.229,4.342,3.947c1.141,1.719,2.037,3.813,2.688,6.28
						s0.975,5.795,0.975,9.982c0,4.955-0.521,8.955-1.566,11.999c-1.043,3.044-2.604,5.397-4.68,7.059
						c-2.078,1.661-4.701,2.492-7.871,2.492c-4.176,0-7.453-1.459-9.836-4.379C658.371,333.224,656.943,327.501,656.943,319.569z
						 M662.408,319.569c0,6.934,0.832,11.548,2.496,13.842c1.662,2.295,3.715,3.443,6.158,3.443c2.439,0,4.492-1.152,6.156-3.457
						s2.496-6.914,2.496-13.828c0-6.952-0.832-11.571-2.496-13.857c-1.664-2.285-3.734-3.428-6.217-3.428
						c-2.441,0-4.391,1.008-5.848,3.025C663.324,307.882,662.408,312.636,662.408,319.569z"/>
					<path d="M689.375,319.569c0-4.993,0.527-9.012,1.58-12.056s2.619-5.392,4.697-7.044c2.076-1.651,4.689-2.478,7.842-2.478
						c2.322,0,4.359,0.457,6.113,1.368c1.752,0.913,3.199,2.229,4.342,3.947c1.141,1.719,2.037,3.813,2.688,6.28
						s0.975,5.795,0.975,9.982c0,4.955-0.521,8.955-1.566,11.999c-1.043,3.044-2.604,5.397-4.68,7.059
						c-2.078,1.661-4.701,2.492-7.871,2.492c-4.176,0-7.453-1.459-9.836-4.379C690.803,333.224,689.375,327.501,689.375,319.569z
						 M694.84,319.569c0,6.934,0.832,11.548,2.496,13.842c1.662,2.295,3.715,3.443,6.158,3.443c2.439,0,4.492-1.152,6.156-3.457
						s2.496-6.914,2.496-13.828c0-6.952-0.832-11.571-2.496-13.857c-1.664-2.285-3.734-3.428-6.217-3.428
						c-2.441,0-4.391,1.008-5.848,3.025C695.756,307.882,694.84,312.636,694.84,319.569z"/>
				</g>
			</g>
			<g>
				<g>
					<path d="M560.965,197h-5.316v-33.043c-1.279,1.191-2.957,2.382-5.035,3.572c-2.078,1.191-3.943,2.084-5.598,2.679v-5.013
						c2.975-1.363,5.572-3.015,7.799-4.955c2.225-1.939,3.799-3.822,4.725-5.646h3.426V197z"/>
					<path d="M573.371,176.171c0-4.993,0.527-9.012,1.58-12.056s2.619-5.392,4.697-7.044c2.076-1.651,4.689-2.478,7.842-2.478
						c2.322,0,4.359,0.457,6.113,1.368c1.752,0.913,3.199,2.229,4.342,3.947c1.141,1.719,2.037,3.813,2.688,6.28
						s0.975,5.795,0.975,9.982c0,4.955-0.521,8.955-1.566,11.999c-1.043,3.044-2.604,5.397-4.68,7.059
						c-2.078,1.661-4.701,2.492-7.871,2.492c-4.176,0-7.453-1.459-9.836-4.379C574.799,189.826,573.371,184.103,573.371,176.171z
						 M578.836,176.171c0,6.934,0.832,11.548,2.496,13.842c1.662,2.295,3.715,3.443,6.158,3.443c2.439,0,4.492-1.152,6.156-3.457
						s2.496-6.914,2.496-13.828c0-6.952-0.832-11.571-2.496-13.857c-1.664-2.285-3.734-3.428-6.217-3.428
						c-2.441,0-4.391,1.008-5.848,3.025C579.752,164.484,578.836,169.238,578.836,176.171z"/>
					<path d="M605.803,176.171c0-4.993,0.527-9.012,1.58-12.056s2.619-5.392,4.697-7.044c2.076-1.651,4.689-2.478,7.842-2.478
						c2.322,0,4.359,0.457,6.113,1.368c1.752,0.913,3.199,2.229,4.342,3.947c1.141,1.719,2.037,3.813,2.688,6.28
						s0.975,5.795,0.975,9.982c0,4.955-0.521,8.955-1.566,11.999c-1.043,3.044-2.604,5.397-4.68,7.059
						c-2.078,1.661-4.701,2.492-7.871,2.492c-4.176,0-7.453-1.459-9.836-4.379C607.23,189.826,605.803,184.103,605.803,176.171z
						 M611.268,176.171c0,6.934,0.832,11.548,2.496,13.842c1.662,2.295,3.715,3.443,6.158,3.443c2.439,0,4.492-1.152,6.156-3.457
						s2.496-6.914,2.496-13.828c0-6.952-0.832-11.571-2.496-13.857c-1.664-2.285-3.734-3.428-6.217-3.428
						c-2.441,0-4.391,1.008-5.848,3.025C612.184,164.484,611.268,169.238,611.268,176.171z"/>
				</g>
			</g>
			<g>
				<g>
					<path d="M492.102,101.074l4.73-0.391c0.352,2.246,1.164,3.935,2.441,5.066c1.275,1.131,2.814,1.697,4.617,1.697
						c2.17,0,4.006-0.797,5.506-2.393c1.502-1.595,2.254-3.711,2.254-6.348c0-2.506-0.723-4.484-2.166-5.933
						c-1.443-1.448-3.332-2.173-5.668-2.173c-1.453,0-2.762,0.322-3.93,0.964c-1.168,0.643-2.086,1.477-2.754,2.502l-4.23-0.537
						l3.555-18.384h18.246v4.199h-14.643l-1.977,9.619c2.203-1.497,4.514-2.246,6.934-2.246c3.203,0,5.906,1.083,8.109,3.247
						c2.203,2.165,3.305,4.948,3.305,8.35c0,3.239-0.969,6.039-2.904,8.398c-2.354,2.897-5.564,4.346-9.637,4.346
						c-3.338,0-6.061-0.911-8.172-2.734C493.607,106.502,492.402,104.085,492.102,101.074z"/>
					<path d="M519.586,92.798c0-4.231,0.447-7.637,1.34-10.217c0.893-2.58,2.219-4.569,3.979-5.969c1.762-1.399,3.977-2.1,6.646-2.1
						c1.969,0,3.695,0.387,5.182,1.16c1.484,0.773,2.711,1.888,3.678,3.345c0.969,1.457,1.729,3.231,2.279,5.322
						c0.551,2.092,0.826,4.912,0.826,8.459c0,4.199-0.443,7.589-1.328,10.168c-0.885,2.58-2.207,4.574-3.967,5.981
						c-1.76,1.408-3.984,2.112-6.67,2.112c-3.539,0-6.316-1.237-8.336-3.711C520.795,104.37,519.586,99.52,519.586,92.798z
						 M524.217,92.798c0,5.876,0.705,9.786,2.115,11.731c1.41,1.945,3.148,2.917,5.219,2.917c2.068,0,3.809-0.977,5.219-2.93
						s2.115-5.859,2.115-11.719c0-5.892-0.705-9.806-2.115-11.743c-1.41-1.937-3.166-2.905-5.27-2.905
						c-2.068,0-3.721,0.854-4.955,2.563C524.992,82.894,524.217,86.922,524.217,92.798z"/>
				</g>
			</g>
			<g>
				<g>
					<path d="M364.744,719.281l5.443-0.461c0.404,2.65,1.34,4.643,2.809,5.978c1.471,1.335,3.242,2.002,5.316,2.002
						c2.496,0,4.609-0.941,6.338-2.823c1.729-1.882,2.592-4.379,2.592-7.49c0-2.958-0.83-5.291-2.492-7
						c-1.66-1.709-3.836-2.564-6.523-2.564c-1.672,0-3.18,0.379-4.523,1.138c-1.346,0.759-2.402,1.743-3.17,2.953l-4.867-0.634
						l4.09-21.693h21.002v4.955h-16.854l-2.275,11.351c2.535-1.767,5.195-2.65,7.98-2.65c3.688,0,6.799,1.277,9.334,3.832
						c2.535,2.555,3.803,5.839,3.803,9.853c0,3.822-1.115,7.125-3.342,9.91c-2.709,3.419-6.406,5.128-11.092,5.128
						c-3.842,0-6.977-1.075-9.406-3.227C366.477,725.687,365.09,722.834,364.744,719.281z"/>
					<path d="M396.377,709.515c0-4.993,0.512-9.012,1.541-12.056c1.027-3.044,2.553-5.392,4.58-7.044
						c2.025-1.651,4.576-2.478,7.648-2.478c2.266,0,4.254,0.457,5.963,1.368c1.709,0.913,3.121,2.229,4.236,3.947
						c1.113,1.719,1.986,3.813,2.621,6.28c0.633,2.468,0.951,5.795,0.951,9.982c0,4.955-0.51,8.955-1.527,11.999
						c-1.02,3.044-2.541,5.397-4.566,7.059c-2.027,1.661-4.586,2.492-7.678,2.492c-4.072,0-7.27-1.459-9.594-4.379
						C397.768,723.17,396.377,717.447,396.377,709.515z M401.705,709.515c0,6.934,0.813,11.548,2.436,13.842
						c1.621,2.295,3.625,3.443,6.006,3.443s4.383-1.152,6.006-3.457s2.436-6.914,2.436-13.828c0-6.952-0.813-11.571-2.436-13.857
						c-1.623-2.285-3.643-3.428-6.063-3.428c-2.383,0-4.283,1.008-5.705,3.025C402.6,697.829,401.705,702.582,401.705,709.515z"/>
					<path d="M428.01,709.515c0-4.993,0.512-9.012,1.541-12.056c1.027-3.044,2.553-5.392,4.58-7.044
						c2.025-1.651,4.576-2.478,7.648-2.478c2.266,0,4.254,0.457,5.963,1.368c1.709,0.913,3.121,2.229,4.236,3.947
						c1.113,1.719,1.986,3.813,2.621,6.28c0.633,2.468,0.951,5.795,0.951,9.982c0,4.955-0.51,8.955-1.527,11.999
						c-1.02,3.044-2.541,5.397-4.566,7.059c-2.027,1.661-4.586,2.492-7.678,2.492c-4.072,0-7.27-1.459-9.594-4.379
						C429.4,723.17,428.01,717.447,428.01,709.515z M433.338,709.515c0,6.934,0.813,11.548,2.436,13.842
						c1.621,2.295,3.625,3.443,6.006,3.443s4.383-1.152,6.006-3.457s2.436-6.914,2.436-13.828c0-6.952-0.813-11.571-2.436-13.857
						c-1.623-2.285-3.643-3.428-6.063-3.428c-2.383,0-4.283,1.008-5.705,3.025C434.232,697.829,433.338,702.582,433.338,709.515z"/>
				</g>
			</g>
		</g>
	</g>
</g>
</svg>
