<?xml version="1.0" encoding="utf-8"?>
<!-- Generator: Adobe Illustrator 16.0.3, SVG Export Plug-In . SVG Version: 6.00 Build 0)  -->
<!DOCTYPE svg PUBLIC "-//W3C//DTD SVG 1.1//EN" "http://www.w3.org/Graphics/SVG/1.1/DTD/svg11.dtd">
<svg version="1.1" xmlns="http://www.w3.org/2000/svg" xmlns:xlink="http://www.w3.org/1999/xlink" x="0px" y="0px" width="819px"
	 height="819px" viewBox="0 0 819 819" enable-background="new 0 0 819 819" xml:space="preserve">
<g id="BG">
</g>
<g id="物件">
</g>
<g id="word">
	<g>
		<g>
			<line fill="none" stroke="#000000" stroke-width="2" stroke-miterlimit="10" x1="409.5" y1="1.502" x2="409.5" y2="64.547"/>
			
				<line fill="none" stroke="#000000" stroke-width="2" stroke-miterlimit="10" x1="283.354" y1="21.263" x2="297.732" y2="65.514"/>
			
				<line fill="none" stroke="#000000" stroke-width="2" stroke-miterlimit="10" x1="169.557" y1="79.246" x2="206.742" y2="130.428"/>
			
				<line fill="none" stroke="#000000" stroke-width="2" stroke-miterlimit="10" x1="79.246" y1="169.556" x2="116.889" y2="196.905"/>
			
				<line fill="none" stroke="#000000" stroke-width="2" stroke-miterlimit="10" x1="21.263" y1="283.354" x2="81.432" y2="302.904"/>
			<line fill="none" stroke="#000000" stroke-width="2" stroke-miterlimit="10" x1="1.283" y1="409.5" x2="47.813" y2="409.5"/>
			
				<line fill="none" stroke="#000000" stroke-width="2" stroke-miterlimit="10" x1="21.263" y1="535.646" x2="81.432" y2="516.096"/>
			
				<line fill="none" stroke="#000000" stroke-width="2" stroke-miterlimit="10" x1="79.246" y1="649.444" x2="116.889" y2="622.094"/>
			
				<line fill="none" stroke="#000000" stroke-width="2" stroke-miterlimit="10" x1="169.557" y1="739.754" x2="206.742" y2="688.572"/>
			
				<line fill="none" stroke="#000000" stroke-width="2" stroke-miterlimit="10" x1="283.354" y1="797.737" x2="297.732" y2="753.485"/>
			<line fill="none" stroke="#000000" stroke-width="2" stroke-miterlimit="10" x1="409.5" y1="818" x2="409.5" y2="754.452"/>
			
				<line fill="none" stroke="#000000" stroke-width="2" stroke-miterlimit="10" x1="535.646" y1="797.737" x2="521.268" y2="753.485"/>
			
				<line fill="none" stroke="#000000" stroke-width="2" stroke-miterlimit="10" x1="649.443" y1="739.754" x2="612.258" y2="688.572"/>
			
				<line fill="none" stroke="#000000" stroke-width="2" stroke-miterlimit="10" x1="739.754" y1="649.444" x2="702.111" y2="622.094"/>
			
				<line fill="none" stroke="#000000" stroke-width="2" stroke-miterlimit="10" x1="797.737" y1="535.646" x2="737.568" y2="516.096"/>
			<line fill="none" stroke="#000000" stroke-width="2" stroke-miterlimit="10" x1="817.717" y1="409.5" x2="771.188" y2="409.5"/>
			
				<line fill="none" stroke="#000000" stroke-width="2" stroke-miterlimit="10" x1="797.737" y1="283.354" x2="737.568" y2="302.904"/>
			
				<line fill="none" stroke="#000000" stroke-width="2" stroke-miterlimit="10" x1="739.754" y1="169.556" x2="702.111" y2="196.905"/>
			
				<line fill="none" stroke="#000000" stroke-width="2" stroke-miterlimit="10" x1="649.443" y1="79.246" x2="612.258" y2="130.428"/>
			
				<line fill="none" stroke="#000000" stroke-width="2" stroke-miterlimit="10" x1="535.646" y1="21.263" x2="521.268" y2="65.515"/>
		</g>
		<g>
			<line fill="none" stroke="#000000" stroke-width="2" stroke-miterlimit="10" x1="409.5" y1="1.283" x2="409.5" y2="24.547"/>
			<line fill="none" stroke="#000000" stroke-width="2" stroke-miterlimit="10" x1="383.868" y1="2.088" x2="385.329" y2="25.307"/>
			<line fill="none" stroke="#000000" stroke-width="2" stroke-miterlimit="10" x1="358.337" y1="4.502" x2="361.253" y2="27.583"/>
			<line fill="none" stroke="#000000" stroke-width="2" stroke-miterlimit="10" x1="333.008" y1="8.514" x2="337.367" y2="31.367"/>
			<line fill="none" stroke="#000000" stroke-width="2" stroke-miterlimit="10" x1="307.98" y1="14.108" x2="313.767" y2="36.642"/>
			
				<line fill="none" stroke="#000000" stroke-width="2" stroke-miterlimit="10" x1="283.354" y1="21.263" x2="290.543" y2="43.388"/>
			<line fill="none" stroke="#000000" stroke-width="2" stroke-miterlimit="10" x1="259.226" y1="29.95" x2="267.79" y2="51.581"/>
			
				<line fill="none" stroke="#000000" stroke-width="2" stroke-miterlimit="10" x1="235.689" y1="40.134" x2="245.596" y2="61.185"/>
			<line fill="none" stroke="#000000" stroke-width="2" stroke-miterlimit="10" x1="212.84" y1="51.777" x2="224.049" y2="72.164"/>
			
				<line fill="none" stroke="#000000" stroke-width="2" stroke-miterlimit="10" x1="190.767" y1="64.832" x2="203.232" y2="84.474"/>
			<line fill="none" stroke="#000000" stroke-width="2" stroke-miterlimit="10" x1="169.557" y1="79.246" x2="183.23" y2="98.067"/>
			
				<line fill="none" stroke="#000000" stroke-width="2" stroke-miterlimit="10" x1="149.293" y1="94.963" x2="164.123" y2="112.889"/>
			
				<line fill="none" stroke="#000000" stroke-width="2" stroke-miterlimit="10" x1="130.057" y1="111.922" x2="145.982" y2="128.882"/>
			
				<line fill="none" stroke="#000000" stroke-width="2" stroke-miterlimit="10" x1="111.923" y1="130.056" x2="128.883" y2="145.982"/>
			
				<line fill="none" stroke="#000000" stroke-width="2" stroke-miterlimit="10" x1="94.964" y1="149.292" x2="112.89" y2="164.123"/>
			
				<line fill="none" stroke="#000000" stroke-width="2" stroke-miterlimit="10" x1="79.246" y1="169.556" x2="98.067" y2="183.231"/>
			
				<line fill="none" stroke="#000000" stroke-width="2" stroke-miterlimit="10" x1="64.832" y1="190.766" x2="84.475" y2="203.232"/>
			<line fill="none" stroke="#000000" stroke-width="2" stroke-miterlimit="10" x1="51.777" y1="212.84" x2="72.164" y2="224.047"/>
			<line fill="none" stroke="#000000" stroke-width="2" stroke-miterlimit="10" x1="40.135" y1="235.69" x2="61.186" y2="245.595"/>
			<line fill="none" stroke="#000000" stroke-width="2" stroke-miterlimit="10" x1="29.949" y1="259.225" x2="51.58" y2="267.79"/>
			
				<line fill="none" stroke="#000000" stroke-width="2" stroke-miterlimit="10" x1="21.263" y1="283.354" x2="43.389" y2="290.543"/>
			
				<line fill="none" stroke="#000000" stroke-width="2" stroke-miterlimit="10" x1="14.108" y1="307.981" x2="36.643" y2="313.766"/>
			<line fill="none" stroke="#000000" stroke-width="2" stroke-miterlimit="10" x1="8.514" y1="333.007" x2="31.367" y2="337.367"/>
			<line fill="none" stroke="#000000" stroke-width="2" stroke-miterlimit="10" x1="4.502" y1="358.336" x2="27.584" y2="361.252"/>
			<line fill="none" stroke="#000000" stroke-width="2" stroke-miterlimit="10" x1="2.089" y1="383.868" x2="25.308" y2="385.329"/>
			<line fill="none" stroke="#000000" stroke-width="2" stroke-miterlimit="10" x1="1.283" y1="409.5" x2="24.548" y2="409.5"/>
			<line fill="none" stroke="#000000" stroke-width="2" stroke-miterlimit="10" x1="2.089" y1="435.132" x2="25.308" y2="433.671"/>
			<line fill="none" stroke="#000000" stroke-width="2" stroke-miterlimit="10" x1="4.502" y1="460.663" x2="27.584" y2="457.748"/>
			<line fill="none" stroke="#000000" stroke-width="2" stroke-miterlimit="10" x1="8.514" y1="485.992" x2="31.367" y2="481.632"/>
			
				<line fill="none" stroke="#000000" stroke-width="2" stroke-miterlimit="10" x1="14.108" y1="511.019" x2="36.643" y2="505.234"/>
			
				<line fill="none" stroke="#000000" stroke-width="2" stroke-miterlimit="10" x1="21.263" y1="535.646" x2="43.389" y2="528.457"/>
			<line fill="none" stroke="#000000" stroke-width="2" stroke-miterlimit="10" x1="29.949" y1="559.775" x2="51.58" y2="551.21"/>
			<line fill="none" stroke="#000000" stroke-width="2" stroke-miterlimit="10" x1="40.135" y1="583.31" x2="61.186" y2="573.405"/>
			<line fill="none" stroke="#000000" stroke-width="2" stroke-miterlimit="10" x1="51.777" y1="606.16" x2="72.164" y2="594.952"/>
			
				<line fill="none" stroke="#000000" stroke-width="2" stroke-miterlimit="10" x1="64.832" y1="628.233" x2="84.475" y2="615.768"/>
			
				<line fill="none" stroke="#000000" stroke-width="2" stroke-miterlimit="10" x1="79.246" y1="649.444" x2="98.067" y2="635.769"/>
			
				<line fill="none" stroke="#000000" stroke-width="2" stroke-miterlimit="10" x1="94.964" y1="669.708" x2="112.89" y2="654.877"/>
			
				<line fill="none" stroke="#000000" stroke-width="2" stroke-miterlimit="10" x1="111.923" y1="688.944" x2="128.883" y2="673.018"/>
			
				<line fill="none" stroke="#000000" stroke-width="2" stroke-miterlimit="10" x1="130.057" y1="707.077" x2="145.982" y2="690.118"/>
			
				<line fill="none" stroke="#000000" stroke-width="2" stroke-miterlimit="10" x1="149.293" y1="724.037" x2="164.123" y2="706.111"/>
			
				<line fill="none" stroke="#000000" stroke-width="2" stroke-miterlimit="10" x1="169.557" y1="739.754" x2="183.23" y2="720.933"/>
			
				<line fill="none" stroke="#000000" stroke-width="2" stroke-miterlimit="10" x1="190.767" y1="754.168" x2="203.232" y2="734.526"/>
			
				<line fill="none" stroke="#000000" stroke-width="2" stroke-miterlimit="10" x1="212.84" y1="767.223" x2="224.049" y2="746.836"/>
			
				<line fill="none" stroke="#000000" stroke-width="2" stroke-miterlimit="10" x1="235.689" y1="778.866" x2="245.596" y2="757.815"/>
			
				<line fill="none" stroke="#000000" stroke-width="2" stroke-miterlimit="10" x1="259.226" y1="789.05" x2="267.789" y2="767.419"/>
			
				<line fill="none" stroke="#000000" stroke-width="2" stroke-miterlimit="10" x1="283.354" y1="797.737" x2="290.543" y2="775.611"/>
			
				<line fill="none" stroke="#000000" stroke-width="2" stroke-miterlimit="10" x1="307.98" y1="804.892" x2="313.767" y2="782.358"/>
			
				<line fill="none" stroke="#000000" stroke-width="2" stroke-miterlimit="10" x1="333.008" y1="810.486" x2="337.367" y2="787.633"/>
			
				<line fill="none" stroke="#000000" stroke-width="2" stroke-miterlimit="10" x1="358.337" y1="814.498" x2="361.253" y2="791.417"/>
			
				<line fill="none" stroke="#000000" stroke-width="2" stroke-miterlimit="10" x1="383.868" y1="816.912" x2="385.328" y2="793.692"/>
			<line fill="none" stroke="#000000" stroke-width="2" stroke-miterlimit="10" x1="409.5" y1="817.716" x2="409.5" y2="794.452"/>
			
				<line fill="none" stroke="#000000" stroke-width="2" stroke-miterlimit="10" x1="435.133" y1="816.912" x2="433.672" y2="793.692"/>
			
				<line fill="none" stroke="#000000" stroke-width="2" stroke-miterlimit="10" x1="460.663" y1="814.498" x2="457.748" y2="791.417"/>
			
				<line fill="none" stroke="#000000" stroke-width="2" stroke-miterlimit="10" x1="485.992" y1="810.486" x2="481.633" y2="787.633"/>
			
				<line fill="none" stroke="#000000" stroke-width="2" stroke-miterlimit="10" x1="511.02" y1="804.892" x2="505.234" y2="782.358"/>
			
				<line fill="none" stroke="#000000" stroke-width="2" stroke-miterlimit="10" x1="535.646" y1="797.737" x2="528.457" y2="775.611"/>
			
				<line fill="none" stroke="#000000" stroke-width="2" stroke-miterlimit="10" x1="559.775" y1="789.05" x2="551.211" y2="767.419"/>
			
				<line fill="none" stroke="#000000" stroke-width="2" stroke-miterlimit="10" x1="583.311" y1="778.866" x2="573.404" y2="757.815"/>
			
				<line fill="none" stroke="#000000" stroke-width="2" stroke-miterlimit="10" x1="606.16" y1="767.223" x2="594.952" y2="746.836"/>
			
				<line fill="none" stroke="#000000" stroke-width="2" stroke-miterlimit="10" x1="628.234" y1="754.168" x2="615.768" y2="734.526"/>
			
				<line fill="none" stroke="#000000" stroke-width="2" stroke-miterlimit="10" x1="649.443" y1="739.754" x2="635.77" y2="720.933"/>
			
				<line fill="none" stroke="#000000" stroke-width="2" stroke-miterlimit="10" x1="669.707" y1="724.037" x2="654.878" y2="706.111"/>
			
				<line fill="none" stroke="#000000" stroke-width="2" stroke-miterlimit="10" x1="688.943" y1="707.077" x2="673.018" y2="690.118"/>
			
				<line fill="none" stroke="#000000" stroke-width="2" stroke-miterlimit="10" x1="707.077" y1="688.944" x2="690.118" y2="673.018"/>
			
				<line fill="none" stroke="#000000" stroke-width="2" stroke-miterlimit="10" x1="724.037" y1="669.708" x2="706.111" y2="654.877"/>
			
				<line fill="none" stroke="#000000" stroke-width="2" stroke-miterlimit="10" x1="739.754" y1="649.444" x2="720.934" y2="635.769"/>
			
				<line fill="none" stroke="#000000" stroke-width="2" stroke-miterlimit="10" x1="754.169" y1="628.233" x2="734.525" y2="615.768"/>
			
				<line fill="none" stroke="#000000" stroke-width="2" stroke-miterlimit="10" x1="767.223" y1="606.16" x2="746.836" y2="594.952"/>
			
				<line fill="none" stroke="#000000" stroke-width="2" stroke-miterlimit="10" x1="778.865" y1="583.31" x2="757.815" y2="573.405"/>
			
				<line fill="none" stroke="#000000" stroke-width="2" stroke-miterlimit="10" x1="789.051" y1="559.775" x2="767.42" y2="551.21"/>
			
				<line fill="none" stroke="#000000" stroke-width="2" stroke-miterlimit="10" x1="797.737" y1="535.646" x2="775.611" y2="528.457"/>
			
				<line fill="none" stroke="#000000" stroke-width="2" stroke-miterlimit="10" x1="804.893" y1="511.019" x2="782.358" y2="505.234"/>
			
				<line fill="none" stroke="#000000" stroke-width="2" stroke-miterlimit="10" x1="810.486" y1="485.992" x2="787.634" y2="481.632"/>
			
				<line fill="none" stroke="#000000" stroke-width="2" stroke-miterlimit="10" x1="814.498" y1="460.663" x2="791.417" y2="457.748"/>
			
				<line fill="none" stroke="#000000" stroke-width="2" stroke-miterlimit="10" x1="816.912" y1="435.132" x2="793.693" y2="433.671"/>
			<line fill="none" stroke="#000000" stroke-width="2" stroke-miterlimit="10" x1="817.717" y1="409.5" x2="794.452" y2="409.5"/>
			
				<line fill="none" stroke="#000000" stroke-width="2" stroke-miterlimit="10" x1="816.912" y1="383.868" x2="793.693" y2="385.329"/>
			
				<line fill="none" stroke="#000000" stroke-width="2" stroke-miterlimit="10" x1="814.498" y1="358.336" x2="791.417" y2="361.252"/>
			
				<line fill="none" stroke="#000000" stroke-width="2" stroke-miterlimit="10" x1="810.486" y1="333.007" x2="787.634" y2="337.367"/>
			
				<line fill="none" stroke="#000000" stroke-width="2" stroke-miterlimit="10" x1="804.893" y1="307.981" x2="782.358" y2="313.766"/>
			
				<line fill="none" stroke="#000000" stroke-width="2" stroke-miterlimit="10" x1="797.737" y1="283.354" x2="775.611" y2="290.543"/>
			
				<line fill="none" stroke="#000000" stroke-width="2" stroke-miterlimit="10" x1="789.051" y1="259.225" x2="767.42" y2="267.79"/>
			
				<line fill="none" stroke="#000000" stroke-width="2" stroke-miterlimit="10" x1="778.865" y1="235.69" x2="757.815" y2="245.595"/>
			
				<line fill="none" stroke="#000000" stroke-width="2" stroke-miterlimit="10" x1="767.223" y1="212.84" x2="746.836" y2="224.047"/>
			
				<line fill="none" stroke="#000000" stroke-width="2" stroke-miterlimit="10" x1="754.169" y1="190.766" x2="734.525" y2="203.232"/>
			
				<line fill="none" stroke="#000000" stroke-width="2" stroke-miterlimit="10" x1="739.754" y1="169.556" x2="720.934" y2="183.231"/>
			
				<line fill="none" stroke="#000000" stroke-width="2" stroke-miterlimit="10" x1="724.037" y1="149.292" x2="706.111" y2="164.123"/>
			
				<line fill="none" stroke="#000000" stroke-width="2" stroke-miterlimit="10" x1="707.077" y1="130.056" x2="690.118" y2="145.982"/>
			
				<line fill="none" stroke="#000000" stroke-width="2" stroke-miterlimit="10" x1="688.943" y1="111.922" x2="673.018" y2="128.882"/>
			
				<line fill="none" stroke="#000000" stroke-width="2" stroke-miterlimit="10" x1="669.707" y1="94.963" x2="654.878" y2="112.889"/>
			<line fill="none" stroke="#000000" stroke-width="2" stroke-miterlimit="10" x1="649.443" y1="79.246" x2="635.77" y2="98.067"/>
			
				<line fill="none" stroke="#000000" stroke-width="2" stroke-miterlimit="10" x1="628.234" y1="64.832" x2="615.768" y2="84.474"/>
			<line fill="none" stroke="#000000" stroke-width="2" stroke-miterlimit="10" x1="606.16" y1="51.777" x2="594.952" y2="72.164"/>
			
				<line fill="none" stroke="#000000" stroke-width="2" stroke-miterlimit="10" x1="583.311" y1="40.134" x2="573.404" y2="61.185"/>
			<line fill="none" stroke="#000000" stroke-width="2" stroke-miterlimit="10" x1="559.775" y1="29.95" x2="551.211" y2="51.581"/>
			
				<line fill="none" stroke="#000000" stroke-width="2" stroke-miterlimit="10" x1="535.646" y1="21.263" x2="528.457" y2="43.388"/>
			<line fill="none" stroke="#000000" stroke-width="2" stroke-miterlimit="10" x1="511.02" y1="14.108" x2="505.234" y2="36.642"/>
			<line fill="none" stroke="#000000" stroke-width="2" stroke-miterlimit="10" x1="485.992" y1="8.514" x2="481.633" y2="31.367"/>
			<line fill="none" stroke="#000000" stroke-width="2" stroke-miterlimit="10" x1="460.663" y1="4.502" x2="457.748" y2="27.583"/>
			<line fill="none" stroke="#000000" stroke-width="2" stroke-miterlimit="10" x1="435.133" y1="2.088" x2="433.672" y2="25.307"/>
		</g>
		<circle fill="none" stroke="#000000" stroke-width="3" stroke-miterlimit="10" cx="409.5" cy="409.5" r="408"/>
		<g>
			<g>
				<g>
					<path d="M395.942,91.532c0-4.875,0.514-8.799,1.543-11.771c1.027-2.972,2.557-5.264,4.584-6.877
						c2.027-1.612,4.58-2.419,7.656-2.419c2.268,0,4.258,0.446,5.969,1.336c1.711,0.891,3.123,2.176,4.238,3.854
						c1.115,1.678,1.99,3.723,2.625,6.132c0.635,2.41,0.951,5.658,0.951,9.746c0,4.838-0.51,8.743-1.527,11.715
						c-1.02,2.972-2.543,5.269-4.57,6.891c-2.029,1.622-4.59,2.433-7.686,2.433c-4.076,0-7.277-1.425-9.604-4.275
						C397.335,104.864,395.942,99.277,395.942,91.532z M401.276,91.532c0,6.769,0.813,11.274,2.438,13.515
						c1.623,2.241,3.627,3.361,6.012,3.361c2.383,0,4.387-1.125,6.012-3.375c1.625-2.25,2.438-6.75,2.438-13.5
						c0-6.788-0.813-11.297-2.438-13.529s-3.646-3.347-6.07-3.347c-2.383,0-4.287,0.984-5.709,2.954
						C402.171,80.123,401.276,84.763,401.276,91.532z"/>
				</g>
			</g>
			<g>
				<g>
					<path d="M351.718,159.801h-5.186v-33.043c-1.248,1.191-2.885,2.382-4.91,3.572c-2.027,1.191-3.848,2.084-5.461,2.679v-5.013
						c2.9-1.363,5.436-3.015,7.605-4.955c2.172-1.939,3.707-3.822,4.609-5.646h3.342V159.801z"/>
					<path d="M363.819,138.973c0-4.993,0.514-9.012,1.541-12.056s2.555-5.392,4.58-7.044c2.027-1.651,4.576-2.478,7.648-2.478
						c2.268,0,4.254,0.457,5.965,1.368c1.709,0.913,3.121,2.229,4.234,3.947s1.988,3.813,2.621,6.28
						c0.635,2.468,0.951,5.795,0.951,9.982c0,4.955-0.51,8.955-1.527,11.999c-1.018,3.044-2.539,5.397-4.566,7.059
						c-2.025,1.661-4.584,2.492-7.678,2.492c-4.07,0-7.27-1.459-9.592-4.379C365.212,152.628,363.819,146.905,363.819,138.973z
						 M369.149,138.973c0,6.934,0.811,11.548,2.434,13.842c1.623,2.295,3.625,3.443,6.006,3.443c2.383,0,4.385-1.152,6.008-3.457
						s2.434-6.914,2.434-13.828c0-6.952-0.811-11.571-2.434-13.857c-1.623-2.285-3.645-3.428-6.064-3.428
						c-2.381,0-4.283,1.008-5.705,3.025C370.042,127.286,369.149,132.04,369.149,138.973z"/>
					<path d="M395.452,138.973c0-4.993,0.514-9.012,1.541-12.056s2.555-5.392,4.58-7.044c2.027-1.651,4.576-2.478,7.648-2.478
						c2.268,0,4.254,0.457,5.965,1.368c1.709,0.913,3.121,2.229,4.234,3.947s1.988,3.813,2.621,6.28
						c0.635,2.468,0.951,5.795,0.951,9.982c0,4.955-0.51,8.955-1.527,11.999c-1.018,3.044-2.539,5.397-4.566,7.059
						c-2.025,1.661-4.584,2.492-7.678,2.492c-4.07,0-7.27-1.459-9.592-4.379C396.845,152.628,395.452,146.905,395.452,138.973z
						 M400.782,138.973c0,6.934,0.811,11.548,2.434,13.842c1.623,2.295,3.625,3.443,6.006,3.443c2.383,0,4.385-1.152,6.008-3.457
						s2.434-6.914,2.434-13.828c0-6.952-0.811-11.571-2.434-13.857c-1.623-2.285-3.645-3.428-6.064-3.428
						c-2.381,0-4.283,1.008-5.705,3.025C401.675,127.286,400.782,132.04,400.782,138.973z"/>
					<path d="M427.087,138.973c0-4.993,0.512-9.012,1.541-12.056c1.027-3.044,2.553-5.392,4.58-7.044
						c2.025-1.651,4.576-2.478,7.648-2.478c2.266,0,4.254,0.457,5.963,1.368c1.709,0.913,3.121,2.229,4.236,3.947
						c1.113,1.719,1.986,3.813,2.621,6.28c0.633,2.468,0.951,5.795,0.951,9.982c0,4.955-0.51,8.955-1.527,11.999
						c-1.02,3.044-2.541,5.397-4.566,7.059c-2.027,1.661-4.586,2.492-7.678,2.492c-4.072,0-7.27-1.459-9.594-4.379
						C428.478,152.628,427.087,146.905,427.087,138.973z M432.415,138.973c0,6.934,0.813,11.548,2.436,13.842
						c1.621,2.295,3.625,3.443,6.006,3.443s4.383-1.152,6.006-3.457s2.436-6.914,2.436-13.828c0-6.952-0.813-11.571-2.436-13.857
						c-1.623-2.285-3.643-3.428-6.063-3.428c-2.383,0-4.283,1.008-5.705,3.025C433.31,127.286,432.415,132.04,432.415,138.973z"/>
					<path d="M459.208,162.336l5.043,0.749c0.211,1.556,0.795,2.688,1.756,3.399c1.287,0.96,3.045,1.44,5.273,1.44
						c2.4,0,4.252-0.48,5.559-1.44c1.307-0.96,2.189-2.305,2.65-4.033c0.27-1.057,0.395-3.274,0.375-6.655
						c-2.266,2.67-5.09,4.004-8.469,4.004c-4.207,0-7.463-1.517-9.768-4.552c-2.305-3.034-3.457-6.674-3.457-10.918
						c0-2.919,0.529-5.613,1.586-8.081c1.055-2.468,2.586-4.374,4.594-5.719c2.008-1.344,4.365-2.017,7.072-2.017
						c3.611,0,6.588,1.46,8.932,4.379v-3.688h4.781v26.446c0,4.763-0.484,8.139-1.455,10.126c-0.969,1.988-2.506,3.558-4.609,4.71
						c-2.102,1.152-4.691,1.729-7.764,1.729c-3.648,0-6.596-0.821-8.844-2.463C460.218,168.113,459.132,165.64,459.208,162.336z
						 M463.501,143.957c0,4.014,0.797,6.943,2.391,8.787s3.592,2.766,5.992,2.766c2.381,0,4.379-0.917,5.992-2.751
						c1.613-1.833,2.42-4.71,2.42-8.628c0-3.745-0.83-6.568-2.492-8.47c-1.66-1.901-3.662-2.852-6.006-2.852
						c-2.305,0-4.264,0.936-5.877,2.809C464.308,137.489,463.501,140.269,463.501,143.957z"/>
				</g>
			</g>
			<g>
				<g>
					<path d="M193.935,187.233l5.111-0.461c0.432,2.343,1.26,4.043,2.48,5.099c1.221,1.057,2.785,1.584,4.695,1.584
						c1.635,0,3.066-0.365,4.299-1.095c1.229-0.729,2.238-1.704,3.027-2.924c0.787-1.219,1.447-2.866,1.979-4.94
						s0.797-4.187,0.797-6.338c0-0.23-0.01-0.576-0.029-1.037c-1.064,1.652-2.516,2.992-4.357,4.019
						c-1.84,1.028-3.834,1.542-5.98,1.542c-3.584,0-6.615-1.268-9.096-3.803c-2.482-2.535-3.723-5.877-3.723-10.025
						c0-4.283,1.295-7.73,3.885-10.342c2.588-2.612,5.832-3.918,9.73-3.918c2.816,0,5.391,0.74,7.725,2.218
						c2.334,1.479,4.105,3.586,5.316,6.324c1.211,2.736,1.816,6.698,1.816,11.883c0,5.397-0.602,9.694-1.803,12.892
						c-1.201,3.197-2.988,5.632-5.359,7.303c-2.373,1.671-5.154,2.506-8.344,2.506c-3.387,0-6.154-0.917-8.301-2.751
						C195.657,193.135,194.368,190.556,193.935,187.233z M215.702,168.594c0-2.977-0.811-5.339-2.436-7.087
						c-1.625-1.748-3.58-2.622-5.863-2.622c-2.363,0-4.42,0.941-6.172,2.823c-1.754,1.882-2.629,4.321-2.629,7.317
						c0,2.689,0.832,4.874,2.496,6.554c1.662,1.681,3.715,2.521,6.158,2.521c2.461,0,4.482-0.84,6.068-2.521
						S215.702,171.571,215.702,168.594z"/>
					<path d="M225.569,176.171c0-4.993,0.525-9.012,1.58-12.056c1.053-3.044,2.617-5.392,4.695-7.044
						c2.078-1.651,4.691-2.478,7.842-2.478c2.322,0,4.361,0.457,6.113,1.368c1.752,0.913,3.199,2.229,4.342,3.947
						s2.039,3.813,2.688,6.28c0.65,2.468,0.975,5.795,0.975,9.982c0,4.955-0.521,8.955-1.564,11.999
						c-1.045,3.044-2.604,5.397-4.682,7.059s-4.701,2.492-7.871,2.492c-4.174,0-7.453-1.459-9.836-4.379
						C226.995,189.826,225.569,184.103,225.569,176.171z M231.032,176.171c0,6.934,0.832,11.548,2.496,13.842
						c1.664,2.295,3.717,3.443,6.158,3.443s4.494-1.152,6.158-3.457s2.496-6.914,2.496-13.828c0-6.952-0.832-11.571-2.496-13.857
						c-1.664-2.285-3.736-3.428-6.217-3.428c-2.441,0-4.391,1.008-5.848,3.025C231.948,164.484,231.032,169.238,231.032,176.171z"/>
					<path d="M258.001,176.171c0-4.993,0.525-9.012,1.58-12.056c1.053-3.044,2.617-5.392,4.695-7.044
						c2.078-1.651,4.691-2.478,7.842-2.478c2.322,0,4.361,0.457,6.113,1.368c1.752,0.913,3.199,2.229,4.342,3.947
						s2.039,3.813,2.688,6.28c0.65,2.468,0.975,5.795,0.975,9.982c0,4.955-0.521,8.955-1.564,11.999
						c-1.045,3.044-2.604,5.397-4.682,7.059s-4.701,2.492-7.871,2.492c-4.174,0-7.453-1.459-9.836-4.379
						C259.427,189.826,258.001,184.103,258.001,176.171z M263.464,176.171c0,6.934,0.832,11.548,2.496,13.842
						c1.664,2.295,3.717,3.443,6.158,3.443s4.494-1.152,6.158-3.457s2.496-6.914,2.496-13.828c0-6.952-0.832-11.571-2.496-13.857
						c-1.664-2.285-3.736-3.428-6.217-3.428c-2.441,0-4.391,1.008-5.848,3.025C264.38,164.484,263.464,169.238,263.464,176.171z"/>
				</g>
			</g>
			<g>
				<g>
					<path d="M114.618,317.495c-2.205-0.787-3.84-1.911-4.902-3.371c-1.064-1.459-1.596-3.207-1.596-5.243
						c0-3.073,1.133-5.656,3.396-7.75c2.264-2.093,5.277-3.14,9.039-3.14c3.779,0,6.822,1.071,9.125,3.212
						c2.305,2.142,3.457,4.749,3.457,7.822c0,1.959-0.527,3.664-1.58,5.114c-1.055,1.45-2.654,2.569-4.801,3.356
						c2.658,0.845,4.682,2.209,6.07,4.091c1.389,1.882,2.082,4.129,2.082,6.741c0,3.611-1.311,6.646-3.928,9.104
						c-2.619,2.458-6.066,3.688-10.338,3.688c-4.273,0-7.719-1.234-10.338-3.702s-3.928-5.546-3.928-9.233
						c0-2.746,0.713-5.046,2.141-6.899S111.979,318.167,114.618,317.495z M111.841,328.211c0,1.479,0.359,2.91,1.078,4.292
						s1.787,2.454,3.205,3.212c1.418,0.759,2.943,1.138,4.578,1.138c2.541,0,4.637-0.797,6.291-2.391
						c1.654-1.594,2.48-3.62,2.48-6.079c0-2.497-0.852-4.561-2.555-6.194c-1.703-1.632-3.834-2.449-6.395-2.449
						c-2.5,0-4.572,0.807-6.217,2.42S111.841,325.792,111.841,328.211z M113.556,308.708c0,1.998,0.658,3.63,1.979,4.897
						c1.318,1.268,3.031,1.901,5.139,1.901c2.047,0,3.727-0.629,5.035-1.887c1.311-1.258,1.965-2.799,1.965-4.624
						c0-1.901-0.674-3.5-2.023-4.797c-1.35-1.296-3.027-1.944-5.035-1.944c-2.029,0-3.713,0.634-5.051,1.901
						C114.224,305.424,113.556,306.941,113.556,308.708z"/>
					<path d="M138.868,319.569c0-4.993,0.525-9.012,1.58-12.056c1.053-3.044,2.617-5.392,4.695-7.044
						c2.078-1.651,4.691-2.478,7.842-2.478c2.322,0,4.361,0.457,6.113,1.368c1.752,0.913,3.199,2.229,4.342,3.947
						s2.039,3.813,2.688,6.28c0.65,2.468,0.975,5.795,0.975,9.982c0,4.955-0.521,8.955-1.564,11.999
						c-1.045,3.044-2.604,5.397-4.682,7.059s-4.701,2.492-7.871,2.492c-4.174,0-7.453-1.459-9.836-4.379
						C140.294,333.224,138.868,327.501,138.868,319.569z M144.331,319.569c0,6.934,0.832,11.548,2.496,13.842
						c1.664,2.295,3.717,3.443,6.158,3.443s4.494-1.152,6.158-3.457s2.496-6.914,2.496-13.828c0-6.952-0.832-11.571-2.496-13.857
						c-1.664-2.285-3.736-3.428-6.217-3.428c-2.441,0-4.391,1.008-5.848,3.025C145.247,307.882,144.331,312.636,144.331,319.569z"/>
					<path d="M171.3,319.569c0-4.993,0.525-9.012,1.58-12.056c1.053-3.044,2.617-5.392,4.695-7.044
						c2.078-1.651,4.691-2.478,7.842-2.478c2.322,0,4.361,0.457,6.113,1.368c1.752,0.913,3.199,2.229,4.342,3.947
						s2.039,3.813,2.688,6.28c0.65,2.468,0.975,5.795,0.975,9.982c0,4.955-0.521,8.955-1.564,11.999
						c-1.045,3.044-2.604,5.397-4.682,7.059s-4.701,2.492-7.871,2.492c-4.174,0-7.453-1.459-9.836-4.379
						C172.726,333.224,171.3,327.501,171.3,319.569z M176.763,319.569c0,6.934,0.832,11.548,2.496,13.842
						c1.664,2.295,3.717,3.443,6.158,3.443s4.494-1.152,6.158-3.457s2.496-6.914,2.496-13.828c0-6.952-0.832-11.571-2.496-13.857
						c-1.664-2.285-3.736-3.428-6.217-3.428c-2.441,0-4.391,1.008-5.848,3.025C177.679,307.882,176.763,312.636,176.763,319.569z"/>
				</g>
			</g>
			<g>
				<g>
					<path d="M109.214,481.629v-4.984h28.029v4.033c-2.758,2.862-5.49,6.665-8.197,11.408c-2.707,4.744-4.799,9.622-6.275,14.635
						c-1.064,3.534-1.744,7.404-2.039,11.61h-5.463c0.059-3.322,0.727-7.336,2.008-12.042c1.279-4.705,3.115-9.243,5.508-13.612
						c2.393-4.369,4.938-8.052,7.635-11.048H109.214z"/>
					<path d="M141.29,497.503c0-4.993,0.525-9.012,1.58-12.056c1.053-3.044,2.617-5.392,4.695-7.044
						c2.078-1.651,4.691-2.478,7.842-2.478c2.322,0,4.361,0.457,6.113,1.368c1.752,0.913,3.199,2.229,4.342,3.947
						s2.039,3.813,2.688,6.28c0.65,2.468,0.975,5.795,0.975,9.982c0,4.955-0.521,8.955-1.564,11.999
						c-1.045,3.044-2.604,5.397-4.682,7.059s-4.701,2.492-7.871,2.492c-4.174,0-7.453-1.459-9.836-4.379
						C142.716,511.158,141.29,505.435,141.29,497.503z M146.753,497.503c0,6.934,0.832,11.548,2.496,13.842
						c1.664,2.295,3.717,3.443,6.158,3.443s4.494-1.152,6.158-3.457s2.496-6.914,2.496-13.828c0-6.952-0.832-11.571-2.496-13.857
						c-1.664-2.285-3.736-3.428-6.217-3.428c-2.441,0-4.391,1.008-5.848,3.025C147.669,485.816,146.753,490.57,146.753,497.503z"/>
					<path d="M173.722,497.503c0-4.993,0.525-9.012,1.58-12.056c1.053-3.044,2.617-5.392,4.695-7.044
						c2.078-1.651,4.691-2.478,7.842-2.478c2.322,0,4.361,0.457,6.113,1.368c1.752,0.913,3.199,2.229,4.342,3.947
						s2.039,3.813,2.688,6.28c0.65,2.468,0.975,5.795,0.975,9.982c0,4.955-0.521,8.955-1.564,11.999
						c-1.045,3.044-2.604,5.397-4.682,7.059s-4.701,2.492-7.871,2.492c-4.174,0-7.453-1.459-9.836-4.379
						C175.147,511.158,173.722,505.435,173.722,497.503z M179.185,497.503c0,6.934,0.832,11.548,2.496,13.842
						c1.664,2.295,3.717,3.443,6.158,3.443s4.494-1.152,6.158-3.457s2.496-6.914,2.496-13.828c0-6.952-0.832-11.571-2.496-13.857
						c-1.664-2.285-3.736-3.428-6.217-3.428c-2.441,0-4.391,1.008-5.848,3.025C180.101,485.816,179.185,490.57,179.185,497.503z"/>
				</g>
			</g>
			<g>
				<g>
					<path d="M208.733,640.404l-5.287,0.403c-0.473-2.036-1.141-3.515-2.008-4.437c-1.438-1.479-3.209-2.218-5.316-2.218
						c-1.693,0-3.18,0.461-4.459,1.383c-1.674,1.191-2.994,2.929-3.959,5.214c-0.965,2.286-1.467,5.541-1.506,9.766
						c1.279-1.901,2.846-3.313,4.695-4.235c1.852-0.922,3.791-1.383,5.82-1.383c3.543,0,6.561,1.272,9.051,3.817
						c2.492,2.545,3.736,5.834,3.736,9.867c0,2.65-0.586,5.113-1.756,7.39c-1.172,2.275-2.781,4.019-4.83,5.229
						c-2.047,1.21-4.371,1.815-6.971,1.815c-4.43,0-8.043-1.589-10.84-4.768c-2.795-3.178-4.193-8.417-4.193-15.715
						c0-8.162,1.545-14.097,4.637-17.804c2.697-3.227,6.33-4.84,10.898-4.84c3.406,0,6.197,0.932,8.375,2.794
						C206.995,634.546,208.3,637.12,208.733,640.404z M187.024,658.611c0,1.786,0.389,3.496,1.168,5.128
						c0.777,1.633,1.865,2.876,3.264,3.731c1.396,0.854,2.865,1.282,4.4,1.282c2.244,0,4.174-0.883,5.789-2.65
						c1.613-1.767,2.422-4.167,2.422-7.202c0-2.919-0.797-5.219-2.393-6.9c-1.596-1.68-3.604-2.521-6.025-2.521
						c-2.402,0-4.439,0.84-6.113,2.521C187.862,653.68,187.024,655.884,187.024,658.611z"/>
					<path d="M213.579,651.466c0-4.993,0.525-9.012,1.58-12.056c1.053-3.044,2.617-5.392,4.695-7.044
						c2.078-1.651,4.691-2.478,7.842-2.478c2.322,0,4.361,0.457,6.113,1.368c1.752,0.913,3.199,2.229,4.342,3.947
						s2.039,3.813,2.688,6.28c0.65,2.468,0.975,5.795,0.975,9.982c0,4.955-0.521,8.955-1.564,11.999
						c-1.045,3.044-2.604,5.397-4.682,7.059s-4.701,2.492-7.871,2.492c-4.174,0-7.453-1.459-9.836-4.379
						C215.005,665.122,213.579,659.398,213.579,651.466z M219.042,651.466c0,6.934,0.832,11.548,2.496,13.842
						c1.664,2.295,3.717,3.443,6.158,3.443s4.494-1.152,6.158-3.457s2.496-6.914,2.496-13.828c0-6.952-0.832-11.571-2.496-13.857
						c-1.664-2.285-3.736-3.428-6.217-3.428c-2.441,0-4.391,1.008-5.848,3.025C219.958,639.78,219.042,644.533,219.042,651.466z"/>
					<path d="M246.011,651.466c0-4.993,0.525-9.012,1.58-12.056c1.053-3.044,2.617-5.392,4.695-7.044
						c2.078-1.651,4.691-2.478,7.842-2.478c2.322,0,4.361,0.457,6.113,1.368c1.752,0.913,3.199,2.229,4.342,3.947
						s2.039,3.813,2.688,6.28c0.65,2.468,0.975,5.795,0.975,9.982c0,4.955-0.521,8.955-1.564,11.999
						c-1.045,3.044-2.604,5.397-4.682,7.059s-4.701,2.492-7.871,2.492c-4.174,0-7.453-1.459-9.836-4.379
						C247.437,665.122,246.011,659.398,246.011,651.466z M251.474,651.466c0,6.934,0.832,11.548,2.496,13.842
						c1.664,2.295,3.717,3.443,6.158,3.443s4.494-1.152,6.158-3.457s2.496-6.914,2.496-13.828c0-6.952-0.832-11.571-2.496-13.857
						c-1.664-2.285-3.736-3.428-6.217-3.428c-2.441,0-4.391,1.008-5.848,3.025C252.39,639.78,251.474,644.533,251.474,651.466z"/>
				</g>
			</g>
			<g>
				<g>
					<path d="M624.54,507.183l5.316-0.691c0.611,2.938,1.648,5.056,3.117,6.352c1.467,1.297,3.252,1.945,5.359,1.945
						c2.5,0,4.613-0.845,6.336-2.535c1.723-1.69,2.584-3.783,2.584-6.28c0-2.381-0.797-4.345-2.393-5.891
						c-1.594-1.546-3.623-2.319-6.084-2.319c-1.004,0-2.254,0.192-3.75,0.576l0.59-4.552c0.355,0.039,0.641,0.058,0.857,0.058
						c2.264,0,4.301-0.576,6.113-1.729c1.811-1.152,2.717-2.929,2.717-5.33c0-1.901-0.66-3.476-1.979-4.725
						c-1.32-1.248-3.023-1.873-5.109-1.873c-2.068,0-3.791,0.634-5.17,1.901c-1.377,1.268-2.264,3.169-2.658,5.704l-5.316-0.922
						c0.65-3.476,2.127-6.169,4.432-8.081c2.303-1.911,5.168-2.866,8.594-2.866c2.363,0,4.539,0.495,6.527,1.483
						c1.988,0.99,3.51,2.339,4.564,4.048c1.053,1.709,1.58,3.524,1.58,5.445c0,1.825-0.502,3.486-1.508,4.984
						c-1.004,1.498-2.49,2.689-4.459,3.572c2.559,0.576,4.549,1.771,5.967,3.587c1.418,1.814,2.127,4.086,2.127,6.813
						c0,3.688-1.379,6.813-4.137,9.377c-2.756,2.563-6.242,3.846-10.455,3.846c-3.801,0-6.955-1.104-9.465-3.313
						C626.327,513.559,624.896,510.697,624.54,507.183z"/>
					<path d="M656.942,497.503c0-4.993,0.525-9.012,1.58-12.056c1.053-3.044,2.617-5.392,4.695-7.044
						c2.078-1.651,4.691-2.478,7.842-2.478c2.322,0,4.361,0.457,6.113,1.368c1.752,0.913,3.199,2.229,4.342,3.947
						s2.039,3.813,2.688,6.28c0.65,2.468,0.975,5.795,0.975,9.982c0,4.955-0.521,8.955-1.564,11.999
						c-1.045,3.044-2.604,5.397-4.682,7.059s-4.701,2.492-7.871,2.492c-4.174,0-7.453-1.459-9.836-4.379
						C658.368,511.158,656.942,505.435,656.942,497.503z M662.405,497.503c0,6.934,0.832,11.548,2.496,13.842
						c1.664,2.295,3.717,3.443,6.158,3.443s4.494-1.152,6.158-3.457s2.496-6.914,2.496-13.828c0-6.952-0.832-11.571-2.496-13.857
						c-1.664-2.285-3.736-3.428-6.217-3.428c-2.441,0-4.391,1.008-5.848,3.025C663.321,485.816,662.405,490.57,662.405,497.503z"/>
					<path d="M689.374,497.503c0-4.993,0.525-9.012,1.58-12.056c1.053-3.044,2.617-5.392,4.695-7.044
						c2.078-1.651,4.691-2.478,7.842-2.478c2.322,0,4.361,0.457,6.113,1.368c1.752,0.913,3.199,2.229,4.342,3.947
						s2.039,3.813,2.688,6.28c0.65,2.468,0.975,5.795,0.975,9.982c0,4.955-0.521,8.955-1.564,11.999
						c-1.045,3.044-2.604,5.397-4.682,7.059s-4.701,2.492-7.871,2.492c-4.174,0-7.453-1.459-9.836-4.379
						C690.8,511.158,689.374,505.435,689.374,497.503z M694.837,497.503c0,6.934,0.832,11.548,2.496,13.842
						c1.664,2.295,3.717,3.443,6.158,3.443s4.494-1.152,6.158-3.457s2.496-6.914,2.496-13.828c0-6.952-0.832-11.571-2.496-13.857
						c-1.664-2.285-3.736-3.428-6.217-3.428c-2.441,0-4.391,1.008-5.848,3.025C695.753,485.816,694.837,490.57,694.837,497.503z"/>
				</g>
			</g>
			<g>
				<g>
					<path d="M564.784,672.295v-10.112h-18.785v-4.753l19.76-27.368h4.342v27.368h5.848v4.753h-5.848v10.112H564.784z
						 M564.784,657.43v-19.042l-13.557,19.042H564.784z"/>
					<path d="M580.173,651.466c0-4.993,0.525-9.012,1.58-12.056c1.053-3.044,2.617-5.392,4.695-7.044
						c2.078-1.651,4.691-2.478,7.842-2.478c2.322,0,4.361,0.457,6.113,1.368c1.752,0.913,3.199,2.229,4.342,3.947
						s2.039,3.813,2.688,6.28c0.65,2.468,0.975,5.795,0.975,9.982c0,4.955-0.521,8.955-1.564,11.999
						c-1.045,3.044-2.604,5.397-4.682,7.059s-4.701,2.492-7.871,2.492c-4.174,0-7.453-1.459-9.836-4.379
						C581.599,665.122,580.173,659.398,580.173,651.466z M585.636,651.466c0,6.934,0.832,11.548,2.496,13.842
						c1.664,2.295,3.717,3.443,6.158,3.443s4.494-1.152,6.158-3.457s2.496-6.914,2.496-13.828c0-6.952-0.832-11.571-2.496-13.857
						c-1.664-2.285-3.736-3.428-6.217-3.428c-2.441,0-4.391,1.008-5.848,3.025C586.552,639.78,585.636,644.533,585.636,651.466z"/>
					<path d="M612.604,651.466c0-4.993,0.525-9.012,1.58-12.056c1.053-3.044,2.617-5.392,4.695-7.044
						c2.078-1.651,4.691-2.478,7.842-2.478c2.322,0,4.361,0.457,6.113,1.368c1.752,0.913,3.199,2.229,4.342,3.947
						s2.039,3.813,2.688,6.28c0.65,2.468,0.975,5.795,0.975,9.982c0,4.955-0.521,8.955-1.564,11.999
						c-1.045,3.044-2.604,5.397-4.682,7.059s-4.701,2.492-7.871,2.492c-4.174,0-7.453-1.459-9.836-4.379
						C614.03,665.122,612.604,659.398,612.604,651.466z M618.067,651.466c0,6.934,0.832,11.548,2.496,13.842
						c1.664,2.295,3.717,3.443,6.158,3.443s4.494-1.152,6.158-3.457s2.496-6.914,2.496-13.828c0-6.952-0.832-11.571-2.496-13.857
						c-1.664-2.285-3.736-3.428-6.217-3.428c-2.441,0-4.391,1.008-5.848,3.025C618.983,639.78,618.067,644.533,618.067,651.466z"/>
				</g>
			</g>
			<g>
				<g>
					<path d="M652.452,335.414v4.984h-28.621c-0.039-1.248,0.168-2.449,0.621-3.601c0.729-1.901,1.895-3.774,3.5-5.618
						c1.604-1.844,3.924-3.976,6.955-6.396c4.707-3.764,7.887-6.746,9.541-8.945c1.652-2.199,2.48-4.278,2.48-6.237
						c0-2.055-0.754-3.789-2.26-5.2c-1.506-1.412-3.471-2.118-5.893-2.118c-2.561,0-4.607,0.749-6.143,2.247
						c-1.537,1.498-2.314,3.572-2.334,6.223l-5.465-0.547c0.375-3.976,1.783-7.005,4.225-9.089s5.719-3.126,9.836-3.126
						c4.154,0,7.441,1.124,9.863,3.371s3.633,5.032,3.633,8.354c0,1.69-0.354,3.352-1.063,4.984
						c-0.709,1.633-1.885,3.352-3.529,5.157c-1.645,1.806-4.377,4.283-8.195,7.433c-3.191,2.612-5.238,4.384-6.145,5.315
						c-0.906,0.932-1.654,1.868-2.244,2.809H652.452z"/>
					<path d="M656.942,319.569c0-4.993,0.525-9.012,1.58-12.056c1.053-3.044,2.617-5.392,4.695-7.044
						c2.078-1.651,4.691-2.478,7.842-2.478c2.322,0,4.361,0.457,6.113,1.368c1.752,0.913,3.199,2.229,4.342,3.947
						s2.039,3.813,2.688,6.28c0.65,2.468,0.975,5.795,0.975,9.982c0,4.955-0.521,8.955-1.564,11.999
						c-1.045,3.044-2.604,5.397-4.682,7.059s-4.701,2.492-7.871,2.492c-4.174,0-7.453-1.459-9.836-4.379
						C658.368,333.224,656.942,327.501,656.942,319.569z M662.405,319.569c0,6.934,0.832,11.548,2.496,13.842
						c1.664,2.295,3.717,3.443,6.158,3.443s4.494-1.152,6.158-3.457s2.496-6.914,2.496-13.828c0-6.952-0.832-11.571-2.496-13.857
						c-1.664-2.285-3.736-3.428-6.217-3.428c-2.441,0-4.391,1.008-5.848,3.025C663.321,307.882,662.405,312.636,662.405,319.569z"/>
					<path d="M689.374,319.569c0-4.993,0.525-9.012,1.58-12.056c1.053-3.044,2.617-5.392,4.695-7.044
						c2.078-1.651,4.691-2.478,7.842-2.478c2.322,0,4.361,0.457,6.113,1.368c1.752,0.913,3.199,2.229,4.342,3.947
						s2.039,3.813,2.688,6.28c0.65,2.468,0.975,5.795,0.975,9.982c0,4.955-0.521,8.955-1.564,11.999
						c-1.045,3.044-2.604,5.397-4.682,7.059s-4.701,2.492-7.871,2.492c-4.174,0-7.453-1.459-9.836-4.379
						C690.8,333.224,689.374,327.501,689.374,319.569z M694.837,319.569c0,6.934,0.832,11.548,2.496,13.842
						c1.664,2.295,3.717,3.443,6.158,3.443s4.494-1.152,6.158-3.457s2.496-6.914,2.496-13.828c0-6.952-0.832-11.571-2.496-13.857
						c-1.664-2.285-3.736-3.428-6.217-3.428c-2.441,0-4.391,1.008-5.848,3.025C695.753,307.882,694.837,312.636,694.837,319.569z"/>
				</g>
			</g>
			<g>
				<g>
					<path d="M560.964,197h-5.316v-33.043c-1.279,1.191-2.957,2.382-5.035,3.572c-2.078,1.191-3.943,2.084-5.598,2.679v-5.013
						c2.975-1.363,5.572-3.015,7.799-4.955c2.225-1.939,3.799-3.822,4.725-5.646h3.426V197z"/>
					<path d="M573.37,176.171c0-4.993,0.527-9.012,1.58-12.056s2.619-5.392,4.697-7.044c2.076-1.651,4.689-2.478,7.842-2.478
						c2.322,0,4.359,0.457,6.113,1.368c1.752,0.913,3.199,2.229,4.342,3.947c1.141,1.719,2.037,3.813,2.688,6.28
						s0.975,5.795,0.975,9.982c0,4.955-0.521,8.955-1.566,11.999c-1.043,3.044-2.604,5.397-4.68,7.059
						c-2.078,1.661-4.701,2.492-7.871,2.492c-4.176,0-7.453-1.459-9.836-4.379C574.798,189.826,573.37,184.103,573.37,176.171z
						 M578.835,176.171c0,6.934,0.832,11.548,2.496,13.842c1.662,2.295,3.715,3.443,6.158,3.443c2.439,0,4.492-1.152,6.156-3.457
						s2.496-6.914,2.496-13.828c0-6.952-0.832-11.571-2.496-13.857c-1.664-2.285-3.734-3.428-6.217-3.428
						c-2.441,0-4.391,1.008-5.848,3.025C579.751,164.484,578.835,169.238,578.835,176.171z"/>
					<path d="M605.802,176.171c0-4.993,0.527-9.012,1.58-12.056s2.619-5.392,4.697-7.044c2.076-1.651,4.689-2.478,7.842-2.478
						c2.322,0,4.359,0.457,6.113,1.368c1.752,0.913,3.199,2.229,4.342,3.947c1.141,1.719,2.037,3.813,2.688,6.28
						s0.975,5.795,0.975,9.982c0,4.955-0.521,8.955-1.566,11.999c-1.043,3.044-2.604,5.397-4.68,7.059
						c-2.078,1.661-4.701,2.492-7.871,2.492c-4.176,0-7.453-1.459-9.836-4.379C607.229,189.826,605.802,184.103,605.802,176.171z
						 M611.267,176.171c0,6.934,0.832,11.548,2.496,13.842c1.662,2.295,3.715,3.443,6.158,3.443c2.439,0,4.492-1.152,6.156-3.457
						s2.496-6.914,2.496-13.828c0-6.952-0.832-11.571-2.496-13.857c-1.664-2.285-3.734-3.428-6.217-3.428
						c-2.441,0-4.391,1.008-5.848,3.025C612.183,164.484,611.267,169.238,611.267,176.171z"/>
				</g>
			</g>
			<g>
				<g>
					<path d="M492.103,101.074l4.73-0.391c0.35,2.246,1.164,3.935,2.439,5.066c1.277,1.131,2.816,1.697,4.619,1.697
						c2.168,0,4.004-0.797,5.506-2.393c1.502-1.595,2.252-3.711,2.252-6.348c0-2.506-0.721-4.484-2.164-5.933
						c-1.443-1.448-3.334-2.173-5.67-2.173c-1.451,0-2.762,0.322-3.93,0.964c-1.168,0.643-2.086,1.477-2.754,2.502l-4.229-0.537
						l3.553-18.384h18.248v4.199h-14.643l-1.979,9.619c2.203-1.497,4.514-2.246,6.934-2.246c3.205,0,5.908,1.083,8.109,3.247
						c2.203,2.165,3.305,4.948,3.305,8.35c0,3.239-0.967,6.039-2.902,8.398c-2.354,2.897-5.566,4.346-9.637,4.346
						c-3.338,0-6.063-0.911-8.174-2.734C493.606,106.502,492.401,104.085,492.103,101.074z"/>
					<path d="M519.587,92.798c0-4.231,0.445-7.637,1.338-10.217c0.893-2.58,2.219-4.569,3.98-5.969c1.76-1.399,3.975-2.1,6.645-2.1
						c1.969,0,3.697,0.387,5.182,1.16c1.484,0.773,2.711,1.888,3.68,3.345c0.967,1.457,1.727,3.231,2.277,5.322
						c0.551,2.092,0.826,4.912,0.826,8.459c0,4.199-0.441,7.589-1.326,10.168c-0.885,2.58-2.207,4.574-3.967,5.981
						c-1.762,1.408-3.984,2.112-6.672,2.112c-3.537,0-6.316-1.237-8.334-3.711C520.796,104.37,519.587,99.52,519.587,92.798z
						 M524.216,92.798c0,5.876,0.705,9.786,2.115,11.731c1.41,1.945,3.15,2.917,5.219,2.917c2.07,0,3.809-0.977,5.219-2.93
						s2.115-5.859,2.115-11.719c0-5.892-0.705-9.806-2.115-11.743c-1.41-1.937-3.166-2.905-5.268-2.905
						c-2.07,0-3.723,0.854-4.957,2.563C524.993,82.894,524.216,86.922,524.216,92.798z"/>
				</g>
			</g>
			<g>
				<g>
					<path d="M364.743,719.281l5.443-0.461c0.404,2.65,1.34,4.643,2.809,5.978c1.471,1.335,3.242,2.002,5.316,2.002
						c2.496,0,4.609-0.941,6.338-2.823c1.729-1.882,2.592-4.379,2.592-7.49c0-2.958-0.83-5.291-2.492-7
						c-1.66-1.709-3.836-2.564-6.523-2.564c-1.672,0-3.18,0.379-4.523,1.138c-1.346,0.759-2.402,1.743-3.17,2.953l-4.867-0.634
						l4.09-21.693h21.002v4.955h-16.854l-2.275,11.351c2.535-1.767,5.195-2.65,7.98-2.65c3.688,0,6.799,1.277,9.334,3.832
						c2.535,2.555,3.803,5.839,3.803,9.853c0,3.822-1.115,7.125-3.342,9.91c-2.709,3.419-6.406,5.128-11.092,5.128
						c-3.842,0-6.977-1.075-9.406-3.227C366.476,725.686,365.089,722.834,364.743,719.281z"/>
					<path d="M396.376,709.515c0-4.993,0.512-9.012,1.541-12.056c1.027-3.044,2.553-5.392,4.58-7.044
						c2.025-1.651,4.576-2.478,7.648-2.478c2.266,0,4.254,0.457,5.963,1.368c1.709,0.913,3.121,2.229,4.236,3.947
						c1.113,1.719,1.986,3.813,2.621,6.28c0.633,2.468,0.951,5.795,0.951,9.982c0,4.955-0.51,8.955-1.527,11.999
						c-1.02,3.044-2.541,5.397-4.566,7.059c-2.027,1.661-4.586,2.492-7.678,2.492c-4.072,0-7.27-1.459-9.594-4.379
						C397.767,723.17,396.376,717.447,396.376,709.515z M401.704,709.515c0,6.934,0.813,11.548,2.436,13.842
						c1.621,2.295,3.625,3.443,6.006,3.443s4.383-1.152,6.006-3.457s2.436-6.914,2.436-13.828c0-6.952-0.813-11.571-2.436-13.857
						c-1.623-2.285-3.643-3.428-6.063-3.428c-2.383,0-4.283,1.008-5.705,3.025C402.599,697.828,401.704,702.582,401.704,709.515z"/>
					<path d="M428.009,709.515c0-4.993,0.512-9.012,1.541-12.056c1.027-3.044,2.553-5.392,4.58-7.044
						c2.025-1.651,4.576-2.478,7.648-2.478c2.266,0,4.254,0.457,5.963,1.368c1.709,0.913,3.121,2.229,4.236,3.947
						c1.113,1.719,1.986,3.813,2.621,6.28c0.633,2.468,0.951,5.795,0.951,9.982c0,4.955-0.51,8.955-1.527,11.999
						c-1.02,3.044-2.541,5.397-4.566,7.059c-2.027,1.661-4.586,2.492-7.678,2.492c-4.072,0-7.27-1.459-9.594-4.379
						C429.399,723.17,428.009,717.447,428.009,709.515z M433.337,709.515c0,6.934,0.813,11.548,2.436,13.842
						c1.621,2.295,3.625,3.443,6.006,3.443s4.383-1.152,6.006-3.457s2.436-6.914,2.436-13.828c0-6.952-0.813-11.571-2.436-13.857
						c-1.623-2.285-3.643-3.428-6.063-3.428c-2.383,0-4.283,1.008-5.705,3.025C434.231,697.828,433.337,702.582,433.337,709.515z"/>
				</g>
			</g>
		</g>
	</g>
</g>
</svg>
