<?xml version="1.0" encoding="utf-8"?>
<!-- Generator: Adobe Illustrator 16.0.3, SVG Export Plug-In . SVG Version: 6.00 Build 0)  -->
<!DOCTYPE svg PUBLIC "-//W3C//DTD SVG 1.1//EN" "http://www.w3.org/Graphics/SVG/1.1/DTD/svg11.dtd">
<svg version="1.1" xmlns="http://www.w3.org/2000/svg" xmlns:xlink="http://www.w3.org/1999/xlink" x="0px" y="0px" width="819px"
	 height="819px" viewBox="0 0 819 819" enable-background="new 0 0 819 819" xml:space="preserve">
<g id="BG">
</g>
<g id="物件">
</g>
<g id="word">
	<g>
		<circle fill="none" stroke="#000000" stroke-width="3" stroke-miterlimit="10" cx="409.5" cy="409.5" r="408"/>
		<g>
			<line fill="none" stroke="#000000" stroke-width="2" stroke-miterlimit="10" x1="409.5" y1="2.625" x2="409.5" y2="71.351"/>
			
				<line fill="none" stroke="#000000" stroke-width="2" stroke-miterlimit="10" x1="324.627" y1="10.204" x2="332.972" y2="49.461"/>
			
				<line fill="none" stroke="#000000" stroke-width="2" stroke-miterlimit="10" x1="243.463" y1="36.575" x2="259.787" y2="73.239"/>
			
				<line fill="none" stroke="#000000" stroke-width="2" stroke-miterlimit="10" x1="169.556" y1="79.246" x2="193.146" y2="111.715"/>
			
				<line fill="none" stroke="#000000" stroke-width="2" stroke-miterlimit="10" x1="106.136" y1="136.351" x2="135.961" y2="163.204"/>
			
				<line fill="none" stroke="#000000" stroke-width="2" stroke-miterlimit="10" x1="55.974" y1="205.392" x2="116.653" y2="240.425"/>
			
				<line fill="none" stroke="#000000" stroke-width="2" stroke-miterlimit="10" x1="21.263" y1="283.354" x2="59.433" y2="295.757"/>
			<line fill="none" stroke="#000000" stroke-width="2" stroke-miterlimit="10" x1="3.52" y1="366.83" x2="43.433" y2="371.025"/>
			<line fill="none" stroke="#000000" stroke-width="2" stroke-miterlimit="10" x1="3.52" y1="452.171" x2="43.433" y2="447.976"/>
			
				<line fill="none" stroke="#000000" stroke-width="2" stroke-miterlimit="10" x1="21.263" y1="535.646" x2="59.433" y2="523.244"/>
			
				<line fill="none" stroke="#000000" stroke-width="2" stroke-miterlimit="10" x1="55.974" y1="613.608" x2="116.653" y2="578.575"/>
			
				<line fill="none" stroke="#000000" stroke-width="2" stroke-miterlimit="10" x1="106.136" y1="682.65" x2="135.961" y2="655.796"/>
			
				<line fill="none" stroke="#000000" stroke-width="2" stroke-miterlimit="10" x1="169.556" y1="739.755" x2="193.146" y2="707.286"/>
			
				<line fill="none" stroke="#000000" stroke-width="2" stroke-miterlimit="10" x1="243.463" y1="782.425" x2="259.787" y2="745.761"/>
			
				<line fill="none" stroke="#000000" stroke-width="2" stroke-miterlimit="10" x1="324.627" y1="808.797" x2="332.972" y2="769.54"/>
			<line fill="none" stroke="#000000" stroke-width="2" stroke-miterlimit="10" x1="409.5" y1="817.5" x2="409.5" y2="747.65"/>
			
				<line fill="none" stroke="#000000" stroke-width="2" stroke-miterlimit="10" x1="494.373" y1="808.797" x2="486.028" y2="769.54"/>
			
				<line fill="none" stroke="#000000" stroke-width="2" stroke-miterlimit="10" x1="575.536" y1="782.425" x2="559.213" y2="745.761"/>
			
				<line fill="none" stroke="#000000" stroke-width="2" stroke-miterlimit="10" x1="649.443" y1="739.755" x2="625.854" y2="707.286"/>
			
				<line fill="none" stroke="#000000" stroke-width="2" stroke-miterlimit="10" x1="712.864" y1="682.65" x2="683.039" y2="655.796"/>
			
				<line fill="none" stroke="#000000" stroke-width="2" stroke-miterlimit="10" x1="764.103" y1="614.23" x2="702.347" y2="578.575"/>
			
				<line fill="none" stroke="#000000" stroke-width="2" stroke-miterlimit="10" x1="797.737" y1="535.646" x2="759.567" y2="523.244"/>
			
				<line fill="none" stroke="#000000" stroke-width="2" stroke-miterlimit="10" x1="815.48" y1="452.171" x2="775.566" y2="447.976"/>
			
				<line fill="none" stroke="#000000" stroke-width="2" stroke-miterlimit="10" x1="815.48" y1="366.83" x2="775.566" y2="371.025"/>
			
				<line fill="none" stroke="#000000" stroke-width="2" stroke-miterlimit="10" x1="797.737" y1="283.354" x2="759.567" y2="295.757"/>
			
				<line fill="none" stroke="#000000" stroke-width="2" stroke-miterlimit="10" x1="763.026" y1="205.392" x2="702.347" y2="240.425"/>
			
				<line fill="none" stroke="#000000" stroke-width="2" stroke-miterlimit="10" x1="712.864" y1="136.351" x2="683.039" y2="163.204"/>
			
				<line fill="none" stroke="#000000" stroke-width="2" stroke-miterlimit="10" x1="649.443" y1="79.246" x2="625.854" y2="111.715"/>
			
				<line fill="none" stroke="#000000" stroke-width="2" stroke-miterlimit="10" x1="575.536" y1="36.575" x2="559.213" y2="73.239"/>
			
				<line fill="none" stroke="#000000" stroke-width="2" stroke-miterlimit="10" x1="494.373" y1="10.204" x2="486.028" y2="49.461"/>
		</g>
		<g>
			<g>
				<g>
					<path d="M398.003,97.87c0-4.654,0.479-8.401,1.437-11.238c0.957-2.838,2.381-5.027,4.27-6.566
						c1.889-1.54,4.266-2.311,7.13-2.311c2.113,0,3.966,0.426,5.56,1.275c1.594,0.852,2.909,2.078,3.948,3.68
						c1.038,1.603,1.853,3.555,2.443,5.855c0.591,2.3,0.887,5.402,0.887,9.305c0,4.619-0.475,8.348-1.424,11.186
						s-2.368,5.031-4.257,6.58c-1.889,1.548-4.274,2.322-7.157,2.322c-3.795,0-6.776-1.36-8.942-4.082
						C399.301,110.6,398.003,105.265,398.003,97.87z M402.971,97.87c0,6.463,0.756,10.765,2.27,12.904
						c1.513,2.139,3.379,3.209,5.599,3.209c2.221,0,4.087-1.074,5.6-3.223s2.27-6.445,2.27-12.891c0-6.48-0.757-10.787-2.27-12.918
						c-1.513-2.13-3.396-3.195-5.652-3.195c-2.221,0-3.993,0.939-5.318,2.82C403.804,86.976,402.971,91.407,402.971,97.87z"/>
				</g>
			</g>
			<g>
				<g>
					<path d="M364.614,161.682l5.273-0.703c0.605,2.988,1.636,5.142,3.091,6.46s3.228,1.978,5.317,1.978
						c2.48,0,4.575-0.859,6.284-2.578c1.709-1.718,2.563-3.848,2.563-6.387c0-2.421-0.791-4.419-2.373-5.991
						s-3.594-2.358-6.035-2.358c-0.996,0-2.236,0.195-3.721,0.586l0.586-4.629c0.352,0.04,0.635,0.059,0.85,0.059
						c2.246,0,4.268-0.586,6.064-1.758s2.695-2.978,2.695-5.42c0-1.934-0.654-3.534-1.963-4.805
						c-1.309-1.27-2.998-1.904-5.068-1.904c-2.051,0-3.76,0.645-5.127,1.934s-2.246,3.223-2.637,5.801l-5.273-0.938
						c0.645-3.534,2.109-6.274,4.395-8.218s5.127-2.915,8.525-2.915c2.344,0,4.502,0.503,6.475,1.509s3.481,2.378,4.526,4.116
						c1.045,1.739,1.567,3.585,1.567,5.537c0,1.856-0.498,3.545-1.494,5.068s-2.471,2.735-4.424,3.633
						c2.539,0.586,4.512,1.802,5.918,3.647s2.109,4.156,2.109,6.929c0,3.75-1.367,6.929-4.102,9.536s-6.191,3.911-10.371,3.911
						c-3.77,0-6.899-1.123-9.39-3.369C366.387,168.167,364.966,165.256,364.614,161.682z"/>
					<path d="M399.448,173.02V130.07h5.273v24.492l12.48-12.656h6.826l-11.895,11.543l13.096,19.57h-6.504l-10.283-15.908
						l-3.721,3.574v12.334H399.448z"/>
					<path d="M428.452,175.598l5.127,0.762c0.215,1.582,0.811,2.734,1.787,3.457c1.309,0.977,3.096,1.465,5.361,1.465
						c2.441,0,4.326-0.488,5.654-1.465c1.328-0.978,2.227-2.344,2.695-4.102c0.273-1.074,0.4-3.329,0.381-6.768
						c-2.305,2.715-5.176,4.072-8.613,4.072c-4.277,0-7.588-1.542-9.932-4.629c-2.344-3.086-3.516-6.786-3.516-11.104
						c0-2.969,0.537-5.708,1.611-8.218s2.632-4.448,4.673-5.815c2.041-1.366,4.438-2.051,7.192-2.051
						c3.672,0,6.699,1.484,9.082,4.453v-3.75h4.863v26.895c0,4.844-0.493,8.276-1.479,10.298s-2.549,3.618-4.688,4.79
						s-4.771,1.758-7.896,1.758c-3.711,0-6.709-0.835-8.994-2.505S428.374,178.956,428.452,175.598z M432.817,156.906
						c0,4.083,0.811,7.061,2.432,8.936s3.652,2.813,6.094,2.813c2.422,0,4.453-0.933,6.094-2.798s2.461-4.79,2.461-8.774
						c0-3.809-0.845-6.68-2.534-8.613s-3.726-2.9-6.108-2.9c-2.344,0-4.336,0.952-5.977,2.856S432.817,153.156,432.817,156.906z"/>
				</g>
			</g>
			<g>
				<g>
					<path d="M170.101,563.794v5.068h-28.389c-0.039-1.27,0.166-2.49,0.615-3.662c0.723-1.934,1.88-3.838,3.472-5.713
						s3.892-4.043,6.899-6.504c4.668-3.828,7.822-6.86,9.463-9.098c1.641-2.236,2.461-4.35,2.461-6.342
						c0-2.09-0.747-3.854-2.241-5.289s-3.442-2.152-5.845-2.152c-2.539,0-4.57,0.762-6.094,2.285s-2.295,3.633-2.314,6.328
						l-5.42-0.557c0.371-4.043,1.768-7.124,4.189-9.244c2.422-2.119,5.674-3.178,9.756-3.178c4.121,0,7.383,1.143,9.785,3.428
						s3.604,5.117,3.604,8.496c0,1.719-0.352,3.408-1.055,5.068s-1.87,3.408-3.501,5.244s-4.341,4.355-8.13,7.559
						c-3.164,2.656-5.195,4.457-6.094,5.404c-0.898,0.948-1.641,1.9-2.227,2.857H170.101z"/>
					<path d="M176.049,568.862v-42.949h5.273v24.492l12.48-12.656h6.826l-11.895,11.543l13.096,19.57h-6.504l-10.283-15.908
						l-3.721,3.574v12.334H176.049z"/>
					<path d="M203.853,571.44l5.127,0.762c0.215,1.582,0.811,2.734,1.787,3.457c1.309,0.977,3.096,1.465,5.361,1.465
						c2.441,0,4.326-0.488,5.654-1.465c1.328-0.978,2.227-2.344,2.695-4.102c0.273-1.074,0.4-3.33,0.381-6.768
						c-2.305,2.715-5.176,4.072-8.613,4.072c-4.277,0-7.588-1.543-9.932-4.629s-3.516-6.787-3.516-11.104
						c0-2.969,0.537-5.709,1.611-8.219c1.074-2.509,2.632-4.447,4.673-5.814s4.438-2.051,7.192-2.051
						c3.672,0,6.699,1.484,9.082,4.453v-3.75h4.863v26.895c0,4.844-0.493,8.275-1.479,10.297s-2.549,3.619-4.688,4.791
						s-4.771,1.758-7.896,1.758c-3.711,0-6.709-0.836-8.994-2.506S203.774,574.799,203.853,571.44z M208.218,552.749
						c0,4.082,0.811,7.061,2.432,8.936s3.652,2.813,6.094,2.813c2.422,0,4.453-0.934,6.094-2.799
						c1.641-1.864,2.461-4.789,2.461-8.773c0-3.809-0.845-6.68-2.534-8.613s-3.726-2.9-6.108-2.9c-2.344,0-4.336,0.951-5.977,2.855
						S208.218,548.999,208.218,552.749z"/>
				</g>
			</g>
			<g>
				<g>
					<path d="M621.115,568.862h-5.273v-33.604c-1.27,1.211-2.935,2.422-4.995,3.633s-3.911,2.119-5.552,2.725v-5.098
						c2.949-1.387,5.527-3.066,7.734-5.039s3.77-3.887,4.688-5.742h3.398V568.862z"/>
					<path d="M634.915,568.862v-42.949h5.273v24.492l12.48-12.656h6.826l-11.895,11.543l13.096,19.57h-6.504l-10.283-15.908
						l-3.721,3.574v12.334H634.915z"/>
					<path d="M662.719,571.44l5.127,0.762c0.215,1.582,0.811,2.734,1.787,3.457c1.309,0.977,3.096,1.465,5.361,1.465
						c2.441,0,4.326-0.488,5.654-1.465c1.328-0.978,2.227-2.344,2.695-4.102c0.273-1.074,0.4-3.33,0.381-6.768
						c-2.305,2.715-5.176,4.072-8.613,4.072c-4.277,0-7.588-1.543-9.932-4.629s-3.516-6.787-3.516-11.104
						c0-2.969,0.537-5.709,1.611-8.219c1.074-2.509,2.632-4.447,4.673-5.814s4.438-2.051,7.192-2.051
						c3.672,0,6.699,1.484,9.082,4.453v-3.75h4.863v26.895c0,4.844-0.493,8.275-1.479,10.297s-2.549,3.619-4.688,4.791
						s-4.771,1.758-7.896,1.758c-3.711,0-6.709-0.836-8.994-2.506S662.641,574.799,662.719,571.44z M667.084,552.749
						c0,4.082,0.811,7.061,2.432,8.936s3.652,2.813,6.094,2.813c2.422,0,4.453-0.934,6.094-2.799
						c1.641-1.864,2.461-4.789,2.461-8.773c0-3.809-0.845-6.68-2.534-8.613s-3.726-2.9-6.108-2.9c-2.344,0-4.336,0.951-5.977,2.855
						S667.084,548.999,667.084,552.749z"/>
				</g>
			</g>
			<g>
				<g>
					<path d="M575.807,272.468l5.537-0.469c0.41,2.695,1.362,4.721,2.856,6.078c1.494,1.358,3.296,2.037,5.405,2.037
						c2.539,0,4.688-0.957,6.445-2.871s2.637-4.453,2.637-7.617c0-3.008-0.845-5.381-2.534-7.119s-3.901-2.607-6.636-2.607
						c-1.699,0-3.232,0.385-4.6,1.156c-1.367,0.772-2.441,1.773-3.223,3.004l-4.951-0.645l4.16-22.061h21.357v5.039h-17.139
						l-2.314,11.543c2.578-1.797,5.283-2.695,8.115-2.695c3.75,0,6.914,1.299,9.492,3.896s3.867,5.938,3.867,10.02
						c0,3.887-1.133,7.246-3.398,10.078c-2.754,3.477-6.514,5.215-11.279,5.215c-3.906,0-7.095-1.094-9.565-3.281
						S576.158,276.081,575.807,272.468z"/>
					<path d="M607.976,262.536c0-5.078,0.522-9.166,1.567-12.262c1.045-3.095,2.598-5.482,4.658-7.162s4.653-2.52,7.778-2.52
						c2.305,0,4.326,0.464,6.064,1.391c1.738,0.928,3.174,2.267,4.307,4.014c1.133,1.748,2.021,3.878,2.666,6.387
						c0.645,2.51,0.967,5.895,0.967,10.152c0,5.039-0.518,9.106-1.553,12.201c-1.035,3.096-2.583,5.489-4.644,7.178
						c-2.061,1.689-4.663,2.535-7.808,2.535c-4.141,0-7.393-1.484-9.756-4.453C609.392,276.423,607.976,270.603,607.976,262.536z
						 M613.396,262.536c0,7.051,0.825,11.743,2.476,14.076c1.65,2.334,3.687,3.502,6.108,3.502s4.458-1.172,6.108-3.516
						s2.476-7.031,2.476-14.063c0-7.07-0.825-11.768-2.476-14.092s-3.706-3.486-6.167-3.486c-2.422,0-4.355,1.025-5.801,3.076
						C614.304,250.651,613.396,255.485,613.396,262.536z"/>
					<path d="M640.145,262.536c0-5.078,0.522-9.166,1.567-12.262c1.045-3.095,2.598-5.482,4.658-7.162s4.653-2.52,7.778-2.52
						c2.305,0,4.326,0.464,6.064,1.391c1.738,0.928,3.174,2.267,4.307,4.014c1.133,1.748,2.021,3.878,2.666,6.387
						c0.645,2.51,0.967,5.895,0.967,10.152c0,5.039-0.518,9.106-1.553,12.201c-1.035,3.096-2.583,5.489-4.644,7.178
						c-2.061,1.689-4.663,2.535-7.808,2.535c-4.141,0-7.393-1.484-9.756-4.453C641.561,276.423,640.145,270.603,640.145,262.536z
						 M645.564,262.536c0,7.051,0.825,11.743,2.476,14.076c1.65,2.334,3.687,3.502,6.108,3.502s4.458-1.172,6.108-3.516
						s2.476-7.031,2.476-14.063c0-7.07-0.825-11.768-2.476-14.092s-3.706-3.486-6.167-3.486c-2.422,0-4.355,1.025-5.801,3.076
						C646.473,250.651,645.564,255.485,645.564,262.536z"/>
					<path d="M672.813,286.296l5.127,0.762c0.215,1.582,0.811,2.734,1.787,3.457c1.309,0.977,3.096,1.465,5.361,1.465
						c2.441,0,4.326-0.488,5.654-1.465c1.328-0.978,2.227-2.344,2.695-4.102c0.273-1.074,0.4-3.33,0.381-6.768
						c-2.305,2.715-5.176,4.072-8.613,4.072c-4.277,0-7.588-1.543-9.932-4.629s-3.516-6.787-3.516-11.104
						c0-2.969,0.537-5.709,1.611-8.219c1.074-2.509,2.632-4.447,4.673-5.814s4.438-2.051,7.192-2.051
						c3.672,0,6.699,1.484,9.082,4.453v-3.75h4.863v26.895c0,4.844-0.493,8.275-1.479,10.297s-2.549,3.619-4.688,4.791
						s-4.771,1.758-7.896,1.758c-3.711,0-6.709-0.836-8.994-2.506S672.734,289.654,672.813,286.296z M677.178,267.604
						c0,4.082,0.811,7.061,2.432,8.936s3.652,2.813,6.094,2.813c2.422,0,4.453-0.934,6.094-2.799
						c1.641-1.864,2.461-4.789,2.461-8.773c0-3.809-0.845-6.68-2.534-8.613s-3.726-2.9-6.108-2.9c-2.344,0-4.336,0.951-5.977,2.855
						S677.178,263.854,677.178,267.604z"/>
				</g>
			</g>
		</g>
	</g>
</g>
</svg>
