<?xml version="1.0" encoding="utf-8"?>
<!-- Generator: Adobe Illustrator 16.0.3, SVG Export Plug-In . SVG Version: 6.00 Build 0)  -->
<!DOCTYPE svg PUBLIC "-//W3C//DTD SVG 1.1//EN" "http://www.w3.org/Graphics/SVG/1.1/DTD/svg11.dtd">
<svg version="1.1" xmlns="http://www.w3.org/2000/svg" xmlns:xlink="http://www.w3.org/1999/xlink" x="0px" y="0px"
	 width="553.256px" height="212.622px" viewBox="0 0 553.256 212.622" enable-background="new 0 0 553.256 212.622"
	 xml:space="preserve">
<g id="圖層_1">
</g>
<g id="按鍵">
</g>
<g id="電子鐘">
	<g>
		<path fill="#F6F7FA" d="M538.256,212.622H15c-8.284,0-15-6.715-15-15V15C0,6.716,6.716,0,15,0h523.256c8.284,0,15,6.716,15,15
			v182.622C553.256,205.907,546.54,212.622,538.256,212.622z"/>
		<path fill="#434A54" d="M167.256,190.012H36.415c-8.284,0-15-6.715-15-15V37.61c0-8.284,6.716-15,15-15h130.841
			c8.284,0,15,6.716,15,15v137.402C182.256,183.297,175.54,190.012,167.256,190.012z"/>
		<path fill="#434A54" d="M342.756,190.012H211.915c-8.284,0-15-6.715-15-15V37.61c0-8.284,6.716-15,15-15h130.841
			c8.284,0,15,6.716,15,15v137.402C357.756,183.297,351.04,190.012,342.756,190.012z"/>
		<path fill="#434A54" d="M518.256,190.012H387.415c-8.284,0-15-6.715-15-15V37.61c0-8.284,6.716-15,15-15h130.841
			c8.284,0,15,6.716,15,15v137.402C533.256,183.297,526.54,190.012,518.256,190.012z"/>
	</g>
</g>
<g id="軌跡">
</g>
<g id="軌跡_時" display="none">
</g>
<g id="軌跡_分" display="none">
</g>
<g id="軌跡_秒" display="none">
</g>
<g id="秒針">
</g>
<g id="秒針_變">
</g>
<g id="分針">
</g>
<g id="分針_變">
</g>
<g id="時針">
</g>
<g id="時針_變">
</g>
<g id="按鈕_邊">
</g>
<g id="中心">
</g>
</svg>
