<?xml version="1.0" encoding="utf-8"?>
<!-- Generator: Adobe Illustrator 16.0.0, SVG Export Plug-In . SVG Version: 6.00 Build 0)  -->
<!DOCTYPE svg PUBLIC "-//W3C//DTD SVG 1.1//EN" "http://www.w3.org/Graphics/SVG/1.1/DTD/svg11.dtd">
<svg version="1.1" id="圖層_1" xmlns="http://www.w3.org/2000/svg" xmlns:xlink="http://www.w3.org/1999/xlink" x="0px" y="0px"
	 width="326.615px" height="185px" viewBox="277.026 10.438 326.615 185" enable-background="new 277.026 10.438 326.615 185"
	 xml:space="preserve">
<g id="BG">
</g>
<rect x="277.025" y="40.941" fill="#FFFFFF" width="326.615" height="128.145"/>
<g>
	<g>
		<line fill="none" stroke="#9FA0A0" stroke-width="4" stroke-miterlimit="10" x1="277.025" y1="42.825" x2="603.64" y2="42.825"/>
		<line fill="none" stroke="#F7F8F8" stroke-width="2" stroke-miterlimit="10" x1="277.025" y1="43.176" x2="603.64" y2="43.176"/>
	</g>
</g>
<g>
	<g>
		
			<line fill="none" stroke="#9FA0A0" stroke-width="4" stroke-miterlimit="10" x1="277.025" y1="167.393" x2="603.64" y2="167.393"/>
		
			<line fill="none" stroke="#F7F8F8" stroke-width="2" stroke-miterlimit="10" x1="277.025" y1="167.743" x2="603.64" y2="167.743"/>
	</g>
</g>
<g>
	
		<line fill="none" stroke="#9FA0A0" stroke-width="4" stroke-miterlimit="10" x1="277.025" y1="167.263" x2="603.641" y2="167.263"/>
	
		<line fill="none" stroke="#F7F8F8" stroke-width="2" stroke-miterlimit="10" x1="277.025" y1="166.889" x2="602.995" y2="166.889"/>
</g>
<g>
	<polygon opacity="0.2" fill="#231815" enable-background="new    " points="431.937,91.663 431.937,111.679 447.018,111.679 
		445.872,114.3 447.868,114.3 451.325,111.679 451.325,91.663 	"/>
	<g>
		<g>
			<rect x="445.456" y="94.783" fill="#EA4E4E" width="1.899" height="1.589"/>
			<g>
				<path fill="#727171" d="M446.396,95.346l2.424-2.442c0.056-0.055,0.099-0.036,0.099,0.041l0.052,18.616
					c0,0.078-0.043,0.185-0.099,0.239l-2.422,2.443c-0.057,0.053-0.1,0.035-0.1-0.043l-0.053-18.613
					C446.297,95.508,446.34,95.4,446.396,95.346z"/>
			</g>
			<g>
				<path fill="#B5B5B6" d="M427.625,95.346l2.422-2.442c0.057-0.055,0.162-0.099,0.24-0.099h18.488
					c0.076,0,0.096,0.044,0.041,0.099l-2.423,2.442c-0.056,0.054-0.162,0.1-0.237,0.1h-18.488
					C427.59,95.447,427.575,95.4,427.625,95.346z"/>
			</g>
			<g>
				<path fill="#898989" d="M446.297,95.587l0.053,18.613c0,0.078-0.063,0.142-0.141,0.142H427.72c-0.077,0-0.142-0.063-0.142-0.142
					l-0.051-18.613c0-0.079,0.063-0.142,0.143-0.142h18.488C446.234,95.447,446.297,95.508,446.297,95.587z"/>
			</g>
			<g>
				<path fill="#FFFFFF" d="M444.661,98.507l0.032,12.776c0.004,0.775-0.618,1.403-1.388,1.403h-12.692
					c-0.769,0-1.395-0.628-1.396-1.403l-0.034-12.776c-0.003-0.775,0.619-1.403,1.39-1.403h12.69
					C444.031,97.102,444.659,97.729,444.661,98.507z"/>
			</g>
		</g>
	</g>
</g>
<g id="UI">
</g>
<g id="選單">
</g>
</svg>
