<?xml version="1.0" encoding="utf-8"?>
<!-- Generator: Adobe Illustrator 16.0.0, SVG Export Plug-In . SVG Version: 6.00 Build 0)  -->
<!DOCTYPE svg PUBLIC "-//W3C//DTD SVG 1.1//EN" "http://www.w3.org/Graphics/SVG/1.1/DTD/svg11.dtd">
<svg version="1.1" id="圖層_1" xmlns="http://www.w3.org/2000/svg" xmlns:xlink="http://www.w3.org/1999/xlink" x="0px" y="0px"
	 width="326.615px" height="185px" viewBox="277.026 10.438 326.615 185" enable-background="new 277.026 10.438 326.615 185"
	 xml:space="preserve">
<g id="BG">
</g>
<rect x="277.025" y="40.941" fill="#FFFFFF" width="326.615" height="128.145"/>
<g>
	<g>
		<line fill="none" stroke="#9FA0A0" stroke-width="4" stroke-miterlimit="10" x1="277.025" y1="42.825" x2="603.64" y2="42.825"/>
		<line fill="none" stroke="#F7F8F8" stroke-width="2" stroke-miterlimit="10" x1="277.025" y1="43.176" x2="603.64" y2="43.176"/>
	</g>
</g>
<g>
	<g>
		
			<line fill="none" stroke="#9FA0A0" stroke-width="4" stroke-miterlimit="10" x1="277.025" y1="167.393" x2="603.64" y2="167.393"/>
		
			<line fill="none" stroke="#F7F8F8" stroke-width="2" stroke-miterlimit="10" x1="277.025" y1="167.743" x2="603.64" y2="167.743"/>
	</g>
</g>
<g>
	
		<line fill="none" stroke="#9FA0A0" stroke-width="4" stroke-miterlimit="10" x1="277.025" y1="167.263" x2="603.641" y2="167.263"/>
	
		<line fill="none" stroke="#F7F8F8" stroke-width="2" stroke-miterlimit="10" x1="277.025" y1="166.889" x2="602.995" y2="166.889"/>
</g>
<g id="UI">
</g>
<g id="選單">
</g>
<g>
	<polygon opacity="0.2" fill="#231815" enable-background="new    " points="430.108,53.603 430.108,151.387 435.23,151.387 
		433.544,153.902 435.88,153.91 439.319,151.387 439.319,53.603 	"/>
	<g>
		<g>
			<rect x="433.873" y="144.707" fill="#184EEA" width="0.899" height="0.75"/>
			<g>
				<path fill="#DD4918" d="M434.319,144.973l2.354-2.375c0.025-0.026,0.048-0.02,0.048,0.019l0.022,8.788
					c0,0.037-0.02,0.087-0.045,0.114l-2.355,2.373c-0.024,0.024-0.047,0.018-0.047-0.02l-0.024-8.788
					C434.272,145.049,434.294,144.999,434.319,144.973z"/>
			</g>
			<g>
				<path fill="#EB7829" d="M425.458,144.973l2.354-2.375c0.026-0.026,0.077-0.045,0.114-0.045h8.729
					c0.035,0,0.043,0.02,0.018,0.045l-2.354,2.375c-0.022,0.024-0.073,0.045-0.112,0.045h-8.729
					C425.442,145.018,425.434,144.999,425.458,144.973z"/>
			</g>
			<g>
				<path fill="#EB5718" d="M434.272,145.085l0.024,8.787c0,0.036-0.029,0.066-0.065,0.066h-8.729c-0.037,0-0.064-0.031-0.064-0.066
					l-0.021-8.787c0-0.037,0.026-0.066,0.063-0.066h8.729C434.244,145.018,434.272,145.049,434.272,145.085z"/>
			</g>
			<g>
				<path fill="#F7A70E" d="M433.498,146.463l0.018,6.032c0,0.363-0.293,0.662-0.655,0.662h-5.987c-0.365,0-0.66-0.297-0.66-0.662
					l-0.019-6.032c-0.002-0.365,0.293-0.661,0.657-0.661h5.988C433.205,145.802,433.498,146.098,433.498,146.463z"/>
			</g>
		</g>
		<g>
			<rect x="433.873" y="134.941" fill="#184EEA" width="0.899" height="0.75"/>
			<g>
				<path fill="#DD4918" d="M434.319,135.209l2.354-2.374c0.025-0.025,0.048-0.017,0.048,0.021l0.022,8.787
					c0,0.037-0.02,0.088-0.045,0.112l-2.355,2.374c-0.024,0.025-0.047,0.019-0.047-0.019l-0.024-8.788
					C434.272,135.285,434.294,135.233,434.319,135.209z"/>
			</g>
			<g>
				<path fill="#EB7829" d="M425.458,135.209l2.354-2.374c0.026-0.025,0.077-0.047,0.114-0.047h8.729
					c0.035,0,0.043,0.021,0.018,0.047l-2.354,2.374c-0.022,0.024-0.073,0.046-0.112,0.046h-8.729
					C425.442,135.254,425.434,135.233,425.458,135.209z"/>
			</g>
			<g>
				<path fill="#EB5718" d="M434.272,135.32l0.024,8.788c0,0.037-0.029,0.065-0.065,0.065h-8.729c-0.037,0-0.064-0.028-0.064-0.065
					l-0.021-8.788c0-0.035,0.026-0.065,0.063-0.065h8.729C434.244,135.254,434.272,135.285,434.272,135.32z"/>
			</g>
			<g>
				<path fill="#F7A70E" d="M433.498,136.696l0.018,6.034c0,0.365-0.293,0.66-0.655,0.66h-5.987c-0.365,0-0.66-0.295-0.66-0.66
					l-0.019-6.034c-0.002-0.365,0.293-0.661,0.657-0.661h5.988C433.205,136.036,433.498,136.332,433.498,136.696z"/>
			</g>
		</g>
		<g>
			<rect x="433.873" y="125.176" fill="#184EEA" width="0.899" height="0.746"/>
			<g>
				<path fill="#DD4918" d="M434.319,125.441l2.354-2.374c0.025-0.026,0.048-0.017,0.048,0.021l0.022,8.787
					c0,0.037-0.02,0.087-0.045,0.112l-2.355,2.375c-0.024,0.025-0.047,0.017-0.047-0.02l-0.024-8.787
					C434.272,125.519,434.294,125.466,434.319,125.441z"/>
			</g>
			<g>
				<path fill="#EB7829" d="M425.458,125.441l2.354-2.374c0.026-0.026,0.077-0.046,0.114-0.046h8.729
					c0.035,0,0.043,0.021,0.018,0.046l-2.354,2.374c-0.022,0.024-0.073,0.047-0.112,0.047h-8.729
					C425.442,125.488,425.434,125.466,425.458,125.441z"/>
			</g>
			<g>
				<path fill="#EB5718" d="M434.272,125.554l0.024,8.786c0,0.036-0.029,0.067-0.065,0.067h-8.729c-0.037,0-0.064-0.031-0.064-0.067
					l-0.021-8.786c0-0.035,0.026-0.065,0.063-0.065h8.729C434.244,125.488,434.272,125.519,434.272,125.554z"/>
			</g>
			<g>
				<path fill="#F7A70E" d="M433.498,126.932l0.018,6.03c0,0.366-0.293,0.662-0.655,0.662h-5.987c-0.365,0-0.66-0.296-0.66-0.662
					l-0.019-6.03c-0.002-0.366,0.293-0.661,0.657-0.661h5.988C433.205,126.272,433.498,126.567,433.498,126.932z"/>
			</g>
		</g>
		<g>
			<rect x="433.873" y="115.409" fill="#184EEA" width="0.899" height="0.749"/>
			<g>
				<path fill="#DD4918" d="M434.319,115.677l2.354-2.375c0.025-0.023,0.048-0.018,0.048,0.02l0.022,8.789
					c0,0.034-0.02,0.087-0.045,0.111l-2.355,2.375c-0.024,0.024-0.047,0.017-0.047-0.021l-0.024-8.788
					C434.272,115.753,434.294,115.701,434.319,115.677z"/>
			</g>
			<g>
				<path fill="#EB7829" d="M425.458,115.677l2.354-2.375c0.026-0.023,0.077-0.047,0.114-0.047h8.729
					c0.035,0,0.043,0.022,0.018,0.047l-2.354,2.375c-0.022,0.024-0.073,0.047-0.112,0.047h-8.729
					C425.442,115.723,425.434,115.701,425.458,115.677z"/>
			</g>
			<g>
				<path fill="#EB5718" d="M434.272,115.788l0.024,8.788c0,0.035-0.029,0.063-0.065,0.063h-8.729c-0.037,0-0.064-0.028-0.064-0.063
					l-0.021-8.788c0-0.035,0.026-0.064,0.063-0.064h8.729C434.244,115.723,434.272,115.753,434.272,115.788z"/>
			</g>
			<g>
				<path fill="#F7A70E" d="M433.498,117.166l0.018,6.031c0,0.365-0.293,0.663-0.655,0.663h-5.987c-0.365,0-0.66-0.296-0.66-0.663
					l-0.019-6.031c-0.002-0.367,0.293-0.661,0.657-0.661h5.988C433.205,116.506,433.498,116.799,433.498,117.166z"/>
			</g>
		</g>
		<g>
			<rect x="433.873" y="105.643" fill="#184EEA" width="0.899" height="0.75"/>
			<g>
				<path fill="#DD4918" d="M434.319,105.909l2.354-2.374c0.025-0.025,0.048-0.018,0.048,0.02l0.022,8.788
					c0,0.033-0.02,0.086-0.045,0.111l-2.355,2.374c-0.024,0.026-0.047,0.018-0.047-0.021l-0.024-8.787
					C434.272,105.986,434.294,105.935,434.319,105.909z"/>
			</g>
			<g>
				<path fill="#EB7829" d="M425.458,105.909l2.354-2.374c0.026-0.025,0.077-0.047,0.114-0.047h8.729
					c0.035,0,0.043,0.021,0.018,0.047l-2.354,2.374c-0.022,0.025-0.073,0.047-0.112,0.047h-8.729
					C425.442,105.956,425.434,105.935,425.458,105.909z"/>
			</g>
			<g>
				<path fill="#EB5718" d="M434.272,106.022l0.024,8.787c0,0.037-0.029,0.066-0.065,0.066h-8.729c-0.037,0-0.064-0.029-0.064-0.066
					l-0.021-8.787c0-0.036,0.026-0.066,0.063-0.066h8.729C434.244,105.956,434.272,105.986,434.272,106.022z"/>
			</g>
			<g>
				<path fill="#F7A70E" d="M433.498,107.401l0.018,6.03c0,0.364-0.293,0.662-0.655,0.662h-5.987c-0.365,0-0.66-0.298-0.66-0.662
					l-0.019-6.03c-0.002-0.366,0.293-0.663,0.657-0.663h5.988C433.205,106.738,433.498,107.035,433.498,107.401z"/>
			</g>
		</g>
		<g>
			<rect x="433.873" y="95.878" fill="#184EEA" width="0.899" height="0.75"/>
			<g>
				<path fill="#DD4918" d="M434.319,96.145l2.354-2.375c0.025-0.025,0.048-0.018,0.048,0.019l0.022,8.788
					c0,0.036-0.02,0.087-0.045,0.114l-2.355,2.374c-0.024,0.024-0.047,0.018-0.047-0.021l-0.024-8.787
					C434.272,96.219,434.294,96.168,434.319,96.145z"/>
			</g>
			<g>
				<path fill="#EB7829" d="M425.458,96.145l2.354-2.375c0.026-0.025,0.077-0.045,0.114-0.045h8.729
					c0.035,0,0.043,0.021,0.018,0.045l-2.354,2.375c-0.022,0.023-0.073,0.045-0.112,0.045h-8.729
					C425.442,96.19,425.434,96.168,425.458,96.145z"/>
			</g>
			<g>
				<path fill="#EB5718" d="M434.272,96.257l0.024,8.787c0,0.035-0.029,0.066-0.065,0.066h-8.729c-0.037,0-0.064-0.029-0.064-0.066
					l-0.021-8.787c0-0.036,0.026-0.065,0.063-0.065h8.729C434.244,96.19,434.272,96.219,434.272,96.257z"/>
			</g>
			<g>
				<path fill="#F7A70E" d="M433.498,97.635l0.018,6.03c0,0.366-0.293,0.661-0.655,0.661h-5.987c-0.365,0-0.66-0.295-0.66-0.661
					l-0.019-6.03c-0.002-0.368,0.293-0.663,0.657-0.663h5.988C433.205,96.972,433.498,97.267,433.498,97.635z"/>
			</g>
		</g>
		<g>
			<rect x="433.873" y="86.11" fill="#184EEA" width="0.899" height="0.75"/>
			<g>
				<path fill="#DD4918" d="M434.319,86.38l2.354-2.375c0.025-0.024,0.048-0.017,0.048,0.021l0.022,8.786
					c0,0.037-0.02,0.087-0.045,0.11l-2.355,2.375c-0.024,0.027-0.047,0.02-0.047-0.019l-0.024-8.788
					C434.272,86.454,434.294,86.403,434.319,86.38z"/>
			</g>
			<g>
				<path fill="#EB7829" d="M425.458,86.38l2.354-2.375c0.026-0.024,0.077-0.046,0.114-0.046h8.729c0.035,0,0.043,0.021,0.018,0.046
					l-2.354,2.375c-0.022,0.023-0.073,0.046-0.112,0.046h-8.729C425.442,86.426,425.434,86.403,425.458,86.38z"/>
			</g>
			<g>
				<path fill="#EB5718" d="M434.272,86.491l0.024,8.788c0,0.036-0.029,0.068-0.065,0.068h-8.729c-0.037,0-0.064-0.031-0.064-0.068
					l-0.021-8.788c0-0.036,0.026-0.064,0.063-0.064h8.729C434.244,86.426,434.272,86.454,434.272,86.491z"/>
			</g>
			<g>
				<path fill="#F7A70E" d="M433.498,87.868l0.018,6.032c0,0.367-0.293,0.662-0.655,0.662h-5.987c-0.365,0-0.66-0.295-0.66-0.662
					l-0.019-6.032c-0.002-0.365,0.293-0.662,0.657-0.662h5.988C433.205,87.205,433.498,87.503,433.498,87.868z"/>
			</g>
		</g>
		<g>
			<rect x="433.873" y="76.346" fill="#184EEA" width="0.899" height="0.75"/>
			<g>
				<path fill="#DD4918" d="M434.319,76.613l2.354-2.375c0.025-0.025,0.048-0.017,0.048,0.019l0.022,8.787
					c0,0.036-0.02,0.086-0.045,0.112l-2.355,2.373c-0.024,0.028-0.047,0.02-0.047-0.017l-0.024-8.788
					C434.272,76.689,434.294,76.637,434.319,76.613z"/>
			</g>
			<g>
				<path fill="#EB7829" d="M425.458,76.613l2.354-2.375c0.026-0.025,0.077-0.047,0.114-0.047h8.729
					c0.035,0,0.043,0.021,0.018,0.047l-2.354,2.375c-0.022,0.025-0.073,0.046-0.112,0.046h-8.729
					C425.442,76.66,425.434,76.637,425.458,76.613z"/>
			</g>
			<g>
				<path fill="#EB5718" d="M434.272,76.725l0.024,8.788c0,0.035-0.029,0.066-0.065,0.066h-8.729c-0.037,0-0.064-0.031-0.064-0.066
					l-0.021-8.788c0-0.036,0.026-0.065,0.063-0.065h8.729C434.244,76.66,434.272,76.689,434.272,76.725z"/>
			</g>
			<g>
				<path fill="#F7A70E" d="M433.498,78.102l0.018,6.031c0,0.367-0.293,0.662-0.655,0.662h-5.987c-0.365,0-0.66-0.295-0.66-0.662
					l-0.019-6.031c-0.002-0.365,0.293-0.662,0.657-0.662h5.988C433.205,77.442,433.498,77.737,433.498,78.102z"/>
			</g>
		</g>
		<g>
			<rect x="433.873" y="66.58" fill="#184EEA" width="0.899" height="0.75"/>
			<g>
				<path fill="#DD4918" d="M434.319,66.846l2.354-2.374c0.025-0.025,0.048-0.018,0.048,0.019l0.022,8.789
					c0,0.036-0.02,0.085-0.045,0.111l-2.355,2.373c-0.024,0.026-0.047,0.017-0.047-0.02l-0.024-8.788
					C434.272,66.924,434.294,66.872,434.319,66.846z"/>
			</g>
			<g>
				<path fill="#EB7829" d="M425.458,66.846l2.354-2.374c0.026-0.025,0.077-0.047,0.114-0.047h8.729
					c0.035,0,0.043,0.021,0.018,0.047l-2.354,2.374c-0.022,0.023-0.073,0.047-0.112,0.047h-8.729
					C425.442,66.894,425.434,66.872,425.458,66.846z"/>
			</g>
			<g>
				<path fill="#EB5718" d="M434.272,66.96l0.024,8.788c0,0.036-0.029,0.064-0.065,0.064h-8.729c-0.037,0-0.064-0.028-0.064-0.064
					l-0.021-8.788c0-0.036,0.026-0.065,0.063-0.065h8.729C434.244,66.894,434.272,66.924,434.272,66.96z"/>
			</g>
			<g>
				<path fill="#F7A70E" d="M433.498,68.338l0.018,6.03c0,0.367-0.293,0.662-0.655,0.662h-5.987c-0.365,0-0.66-0.295-0.66-0.662
					l-0.019-6.03c-0.002-0.365,0.293-0.661,0.657-0.661h5.988C433.205,67.677,433.498,67.971,433.498,68.338z"/>
			</g>
		</g>
		<g>
			<rect x="433.873" y="56.814" fill="#184EEA" width="0.899" height="0.751"/>
			<g>
				<path fill="#DD4918" d="M434.319,57.08l2.354-2.375c0.025-0.023,0.048-0.017,0.048,0.02l0.022,8.788
					c0,0.036-0.02,0.087-0.045,0.111l-2.355,2.373c-0.024,0.027-0.047,0.017-0.047-0.021l-0.024-8.787
					C434.272,57.156,434.294,57.107,434.319,57.08z"/>
			</g>
			<g>
				<path fill="#EB7829" d="M425.458,57.08l2.354-2.375c0.026-0.023,0.077-0.045,0.114-0.045h8.729c0.035,0,0.043,0.021,0.018,0.045
					l-2.354,2.375c-0.022,0.027-0.073,0.047-0.112,0.047h-8.729C425.442,57.128,425.434,57.107,425.458,57.08z"/>
			</g>
			<g>
				<path fill="#EB5718" d="M434.272,57.193l0.024,8.786c0,0.037-0.029,0.066-0.065,0.066h-8.729c-0.037,0-0.064-0.029-0.064-0.066
					l-0.021-8.786c0-0.037,0.026-0.065,0.063-0.065h8.729C434.244,57.128,434.272,57.156,434.272,57.193z"/>
			</g>
			<g>
				<path fill="#F7A70E" d="M433.498,58.571l0.018,6.032c0,0.365-0.293,0.662-0.655,0.662h-5.987c-0.365,0-0.66-0.297-0.66-0.662
					l-0.019-6.032c-0.002-0.367,0.293-0.661,0.657-0.661h5.988C433.205,57.91,433.498,58.204,433.498,58.571z"/>
			</g>
		</g>
	</g>
</g>
</svg>
