<?xml version="1.0" encoding="utf-8"?>
<!-- Generator: Adobe Illustrator 16.0.3, SVG Export Plug-In . SVG Version: 6.00 Build 0)  -->
<!DOCTYPE svg PUBLIC "-//W3C//DTD SVG 1.1//EN" "http://www.w3.org/Graphics/SVG/1.1/DTD/svg11.dtd">
<svg version="1.1" xmlns="http://www.w3.org/2000/svg" xmlns:xlink="http://www.w3.org/1999/xlink" x="0px" y="0px"
	 width="92.291px" height="92.292px" viewBox="0 0 92.291 92.292" enable-background="new 0 0 92.291 92.292" xml:space="preserve">
<g id="BG">
</g>
<g id="UI">
</g>
<g id="_x24_">
	<g>
		<g>
			<g>
				<circle fill="#BFBFBF" cx="46.146" cy="46.145" r="46.146"/>
				<circle fill="#8C8C8C" cx="46.145" cy="46.145" r="36.078"/>
				<path fill="#767B81" d="M11.951,47.298c0-19.29,15.637-34.927,34.925-34.927c19.29,0,34.927,15.637,34.927,34.927
					c0,5.246-1.164,10.217-3.236,14.684c2.338-4.782,3.656-10.154,3.656-15.837c0-19.924-16.152-36.078-36.078-36.078
					c-19.925,0-36.078,16.153-36.078,36.078c0,19.926,16.153,36.079,36.078,36.079c0.123,0,0.243-0.007,0.366-0.008
					C27.393,82.019,11.951,66.464,11.951,47.298z"/>
			</g>
		</g>
		<g>
			<g>
				<path fill="#767B81" d="M40.166,29.069v35.226h-9.645V41.212c-1.561,1.197-3.07,2.165-4.528,2.907
					c-1.46,0.738-3.29,1.446-5.489,2.125v-7.892c3.246-1.055,5.766-2.324,7.561-3.804c1.794-1.479,3.198-3.307,4.213-5.48H40.166z"
					/>
				<path fill="#767B81" d="M45.744,46.836c0-6.584,1.174-11.191,3.523-13.821c2.348-2.632,5.926-3.946,10.732-3.946
					c2.31,0,4.206,0.287,5.688,0.862c1.482,0.574,2.692,1.323,3.628,2.244c0.938,0.92,1.675,1.891,2.213,2.906
					c0.539,1.016,0.972,2.202,1.299,3.557c0.64,2.584,0.961,5.278,0.961,8.08c0,6.287-1.055,10.886-3.161,13.8
					c-2.106,2.917-5.735,4.373-10.886,4.373c-2.887,0-5.221-0.465-6.999-1.393c-1.778-0.93-3.239-2.292-4.377-4.088
					c-0.829-1.275-1.472-3.021-1.931-5.234C45.975,51.961,45.744,49.516,45.744,46.836z M55.201,46.861
					c0,4.41,0.386,7.423,1.158,9.037c0.773,1.615,1.893,2.421,3.359,2.421c0.969,0,1.807-0.341,2.518-1.024
					c0.709-0.688,1.232-1.771,1.568-3.251c0.335-1.479,0.503-3.788,0.503-6.922c0-4.601-0.387-7.692-1.16-9.274
					c-0.771-1.584-1.931-2.375-3.477-2.375c-1.576,0-2.715,0.808-3.417,2.421C55.553,39.507,55.201,42.499,55.201,46.861z"/>
			</g>
		</g>
		<g>
			<g>
				<path fill="#BFBFBF" d="M39.429,29.069v33.592h-9.282V40.649c-1.502,1.141-2.955,2.064-4.359,2.771
					c-1.404,0.705-3.166,1.38-5.283,2.027v-7.525c3.124-1.006,5.55-2.215,7.277-3.627c1.727-1.412,3.078-3.154,4.055-5.227H39.429z"
					/>
				<path fill="#BFBFBF" d="M44.796,46.01c0-6.277,1.13-10.672,3.391-13.18c2.261-2.508,5.705-3.762,10.331-3.762
					c2.222,0,4.047,0.273,5.474,0.822c1.427,0.546,2.591,1.262,3.492,2.138c0.901,0.879,1.611,1.803,2.129,2.771
					c0.519,0.969,0.936,2.1,1.251,3.391c0.615,2.465,0.924,5.034,0.924,7.705c0,5.995-1.015,10.379-3.042,13.158
					s-5.519,4.168-10.477,4.168c-2.778,0-5.024-0.444-6.736-1.328c-1.712-0.887-3.117-2.186-4.213-3.899
					c-0.797-1.217-1.416-2.88-1.858-4.99C45.018,50.896,44.796,48.565,44.796,46.01z M53.897,46.033
					c0,4.205,0.372,7.079,1.115,8.617c0.744,1.54,1.821,2.309,3.233,2.309c0.932,0,1.738-0.326,2.422-0.978
					c0.684-0.654,1.187-1.688,1.51-3.1c0.323-1.411,0.484-3.611,0.484-6.6c0-4.387-0.372-7.334-1.115-8.844
					c-0.743-1.509-1.858-2.263-3.346-2.263c-1.517,0-2.613,0.77-3.289,2.309C54.236,39.021,53.897,41.874,53.897,46.033z"/>
			</g>
		</g>
	</g>
</g>
<g id="選單">
</g>
</svg>
