<?xml version="1.0" encoding="utf-8"?>
<!-- Generator: Adobe Illustrator 16.0.0, SVG Export Plug-In . SVG Version: 6.00 Build 0)  -->
<!DOCTYPE svg PUBLIC "-//W3C//DTD SVG 1.1//EN" "http://www.w3.org/Graphics/SVG/1.1/DTD/svg11.dtd">
<svg version="1.1" id="圖層_1" xmlns="http://www.w3.org/2000/svg" xmlns:xlink="http://www.w3.org/1999/xlink" x="0px" y="0px"
	 width="105px" height="104.997px" viewBox="-13.729 -13.728 105 104.997" enable-background="new -13.729 -13.728 105 104.997"
	 xml:space="preserve">
<g id="BG">
</g>
<g id="UI">
</g>
<g id="_x24_">
	<g>
		<g>
			<g>
				<circle fill="#BFBFBF" cx="38.771" cy="38.77" r="38.771"/>
				<circle fill="#8C8C8C" cx="38.771" cy="38.77" r="30.313"/>
				<path fill="#767B81" d="M10.041,39.739c0-16.208,13.139-29.345,29.345-29.345c16.206,0,29.346,13.137,29.346,29.345
					c0,4.406-0.979,8.582-2.719,12.335c1.965-4.019,3.071-8.531,3.071-13.305c0-16.74-13.571-30.313-30.314-30.313
					c-16.74,0-30.313,13.572-30.313,30.313c0,16.742,13.572,30.314,30.313,30.314c0.104,0,0.205-0.008,0.309-0.008
					C23.014,68.91,10.041,55.842,10.041,39.739z"/>
			</g>
		</g>
		<g>
			<g>
				<g>
					<path fill="#767B81" d="M27.885,21.1h22.921v7.703H35.28l-0.83,5.215c1.074-0.506,2.137-0.885,3.188-1.137
						c1.052-0.252,2.089-0.381,3.117-0.381c3.477,0,6.299,1.051,8.462,3.154c2.165,2.102,3.248,4.748,3.248,7.939
						c0,2.244-0.557,4.402-1.672,6.473c-1.112,2.07-2.692,3.65-4.739,4.74c-2.048,1.09-4.666,1.635-7.859,1.635
						c-2.291,0-4.254-0.217-5.89-0.651c-1.636-0.435-3.026-1.082-4.172-1.942c-1.146-0.861-2.074-1.836-2.785-2.929
						c-0.711-1.09-1.304-2.448-1.777-4.076l9.766-1.065c0.237,1.563,0.79,2.754,1.659,3.565c0.868,0.813,1.904,1.222,3.105,1.222
						c1.343,0,2.453-0.51,3.33-1.529c0.877-1.018,1.315-2.539,1.315-4.563c0-2.07-0.442-3.586-1.327-4.552
						c-0.886-0.963-2.063-1.445-3.532-1.445c-0.932,0-1.833,0.229-2.702,0.688c-0.647,0.332-1.359,0.932-2.133,1.801l-8.227-1.186
						L27.885,21.1z"/>
				</g>
			</g>
			<g>
				<g>
					<path fill="#BFBFBF" d="M27.671,21.1h21.786v7.322H34.7l-0.789,4.957c1.021-0.48,2.031-0.842,3.03-1.082
						c0.999-0.24,1.986-0.361,2.962-0.361c3.305,0,5.986,1,8.043,2.998c2.059,1.998,3.088,4.514,3.088,7.547
						c0,2.133-0.529,4.184-1.59,6.149c-1.059,1.97-2.561,3.472-4.506,4.507c-1.944,1.036-4.435,1.555-7.468,1.555
						c-2.178,0-4.044-0.207-5.599-0.619c-1.555-0.414-2.876-1.029-3.965-1.848c-1.089-0.82-1.972-1.746-2.647-2.783
						c-0.676-1.035-1.239-2.328-1.689-3.875l9.282-1.014c0.226,1.487,0.751,2.616,1.577,3.391c0.825,0.772,1.81,1.16,2.951,1.16
						c1.276,0,2.332-0.484,3.165-1.453c0.834-0.969,1.251-2.414,1.251-4.336c0-1.969-0.421-3.41-1.262-4.327
						c-0.842-0.916-1.96-1.375-3.357-1.375c-0.886,0-1.742,0.219-2.568,0.654c-0.615,0.314-1.292,0.887-2.027,1.713l-7.818-1.127
						L27.671,21.1z"/>
				</g>
			</g>
		</g>
	</g>
</g>
<g id="選單">
</g>
<rect x="-13.729" y="-13.728" fill="none" width="105" height="104.997"/>
</svg>
