<?xml version="1.0" encoding="utf-8"?>
<!-- Generator: Adobe Illustrator 16.0.0, SVG Export Plug-In . SVG Version: 6.00 Build 0)  -->
<!DOCTYPE svg PUBLIC "-//W3C//DTD SVG 1.1//EN" "http://www.w3.org/Graphics/SVG/1.1/DTD/svg11.dtd">
<svg version="1.1" id="圖層_1" xmlns="http://www.w3.org/2000/svg" xmlns:xlink="http://www.w3.org/1999/xlink" x="0px" y="0px"
	 width="323.667px" height="900px" viewBox="0 0 323.667 900" enable-background="new 0 0 323.667 900" xml:space="preserve">
<g id="BG">
</g>
<g id="_x24_">
	<rect x="-1.641" y="128.375" fill="#FFFFFF" width="326.615" height="132.063"/>
	<rect x="-1.641" y="0" fill="#FFFFFF" width="326.615" height="132.062"/>
	<g>
		<g>
			
				<line fill="none" stroke="#9FA0A0" stroke-width="4" stroke-miterlimit="10" x1="-1.641" y1="130.318" x2="324.974" y2="130.318"/>
			
				<line fill="none" stroke="#F7F8F8" stroke-width="2" stroke-miterlimit="10" x1="-1.641" y1="130.679" x2="324.974" y2="130.679"/>
		</g>
	</g>
	<g>
		<line fill="none" stroke="#9FA0A0" stroke-width="4" stroke-miterlimit="10" x1="-1.641" y1="1.521" x2="324.976" y2="1.521"/>
		<line fill="none" stroke="#F7F8F8" stroke-width="2" stroke-miterlimit="10" x1="-1.641" y1="1.135" x2="324.326" y2="1.135"/>
	</g>
	<g>
		<g>
			
				<line fill="none" stroke="#9FA0A0" stroke-width="4" stroke-miterlimit="10" x1="-1.641" y1="258.693" x2="324.974" y2="258.693"/>
			
				<line fill="none" stroke="#F7F8F8" stroke-width="2" stroke-miterlimit="10" x1="-1.641" y1="259.055" x2="324.974" y2="259.055"/>
		</g>
	</g>
	<rect x="-1.641" y="257.04" fill="#FFFFFF" width="326.615" height="132.062"/>
	<g>
		<line fill="none" stroke="#9FA0A0" stroke-width="4" stroke-miterlimit="10" x1="-1.641" y1="258.56" x2="324.976" y2="258.56"/>
		
			<line fill="none" stroke="#F7F8F8" stroke-width="2" stroke-miterlimit="10" x1="-1.641" y1="258.175" x2="324.326" y2="258.175"/>
	</g>
	<rect x="-1.307" y="771.407" fill="#FFFFFF" width="326.614" height="128.593"/>
	<rect x="-1.307" y="514.08" fill="#FFFFFF" width="326.614" height="132.061"/>
	<rect x="-1.307" y="385.704" fill="#FFFFFF" width="326.614" height="132.062"/>
	<g>
		<g>
			
				<line fill="none" stroke="#9FA0A0" stroke-width="4" stroke-miterlimit="10" x1="-1.307" y1="644.397" x2="325.307" y2="644.397"/>
			
				<line fill="none" stroke="#F7F8F8" stroke-width="2" stroke-miterlimit="10" x1="-1.307" y1="644.758" x2="325.307" y2="644.758"/>
		</g>
	</g>
	<rect x="-1.307" y="642.744" fill="#FFFFFF" width="326.614" height="132.062"/>
	<g>
		<g>
			
				<line fill="none" stroke="#9FA0A0" stroke-width="4" stroke-miterlimit="10" x1="-1.307" y1="386.852" x2="325.308" y2="386.852"/>
			
				<line fill="none" stroke="#F7F8F8" stroke-width="2" stroke-miterlimit="10" x1="-1.307" y1="387.212" x2="325.308" y2="387.212"/>
		</g>
	</g>
	<g>
		<g>
			
				<line fill="none" stroke="#9FA0A0" stroke-width="4" stroke-miterlimit="10" x1="-1.307" y1="643.892" x2="325.308" y2="643.892"/>
			
				<line fill="none" stroke="#F7F8F8" stroke-width="2" stroke-miterlimit="10" x1="-1.307" y1="644.252" x2="325.308" y2="644.252"/>
		</g>
	</g>
	<g>
		
			<line fill="none" stroke="#9FA0A0" stroke-width="4" stroke-miterlimit="10" x1="-1.307" y1="773.434" x2="325.308" y2="773.434"/>
		<line fill="none" stroke="#F7F8F8" stroke-width="2" stroke-miterlimit="10" x1="-1.307" y1="773.049" x2="324.66" y2="773.049"/>
	</g>
	<g>
		
			<line fill="none" stroke="#9FA0A0" stroke-width="4" stroke-miterlimit="10" x1="-1.307" y1="516.395" x2="325.308" y2="516.395"/>
		<line fill="none" stroke="#F7F8F8" stroke-width="2" stroke-miterlimit="10" x1="-1.307" y1="516.01" x2="324.66" y2="516.01"/>
	</g>
</g>
<g id="選單">
</g>
<g>
	<g>
		<g>
			<rect x="87.665" y="806.224" fill="#2C8EC7" width="144.157" height="64.776"/>
		</g>
		<g>
			<path fill="#89ECF5" d="M214.136,866.862H104.027c0.045-0.334,0.071-0.678,0.071-1.02c0-5.215-5.196-9.439-11.599-9.439v-36.655
				c0.409,0.036,0.83,0.057,1.25,0.057c6.407,0,11.598-4.23,11.598-9.441h110.11c-0.045,0.336-0.071,0.679-0.071,1.02
				c0,5.215,5.195,9.438,11.599,9.438v36.657c-0.41-0.035-0.831-0.056-1.253-0.056C219.327,857.422,214.136,861.652,214.136,866.862
				z"/>
		</g>
	</g>
	<g>
		<path fill="#2C8EC7" d="M127.991,823.571v29.588h-8.175v-19.388c-1.323,1.006-2.603,1.819-3.839,2.439
			c-1.237,0.622-2.789,1.219-4.653,1.786v-6.629c2.752-0.886,4.889-1.95,6.41-3.194c1.52-1.243,2.711-2.778,3.572-4.604
			L127.991,823.571L127.991,823.571z"/>
		<path fill="#2C8EC7" d="M132.476,838.493c0-5.531,0.995-9.399,2.986-11.61c1.992-2.209,5.024-3.313,9.099-3.313
			c1.958,0,3.565,0.241,4.823,0.724c1.257,0.483,2.281,1.111,3.076,1.886c0.792,0.773,1.418,1.588,1.875,2.441
			c0.457,0.854,0.824,1.85,1.101,2.985c0.542,2.17,0.814,4.432,0.814,6.787c0,5.278-0.893,9.142-2.678,11.59
			c-1.786,2.446-4.863,3.672-9.229,3.672c-2.447,0-4.426-0.392-5.934-1.172c-1.508-0.78-2.745-1.925-3.71-3.434
			c-0.702-1.07-1.247-2.536-1.637-4.395C132.669,842.797,132.476,840.742,132.476,838.493z M140.492,838.513
			c0,3.703,0.328,6.234,0.981,7.59c0.656,1.357,1.604,2.036,2.847,2.036c0.822,0,1.532-0.287,2.133-0.864
			c0.603-0.575,1.046-1.483,1.332-2.728c0.284-1.244,0.426-3.184,0.426-5.816c0-3.861-0.327-6.459-0.982-7.789
			c-0.655-1.328-1.637-1.993-2.948-1.993c-1.337,0-2.301,0.677-2.897,2.034C140.791,832.338,140.492,834.848,140.492,838.513z"/>
		<path fill="#2C8EC7" d="M157.55,838.493c0-5.531,0.995-9.399,2.987-11.61c1.992-2.209,5.024-3.313,9.098-3.313
			c1.958,0,3.565,0.241,4.821,0.724c1.258,0.483,2.284,1.111,3.076,1.886c0.793,0.773,1.42,1.588,1.876,2.441
			c0.457,0.854,0.823,1.85,1.103,2.985c0.542,2.17,0.813,4.432,0.813,6.787c0,5.278-0.895,9.142-2.68,11.59
			c-1.784,2.446-4.862,3.672-9.228,3.672c-2.447,0-4.426-0.392-5.934-1.172s-2.746-1.925-3.711-3.434
			c-0.702-1.07-1.248-2.536-1.636-4.395C157.746,842.797,157.55,840.742,157.55,838.493z M165.567,838.513
			c0,3.703,0.329,6.234,0.981,7.59c0.656,1.357,1.604,2.036,2.848,2.036c0.822,0,1.531-0.287,2.133-0.864
			c0.604-0.575,1.047-1.483,1.33-2.728c0.285-1.244,0.427-3.184,0.427-5.816c0-3.861-0.327-6.459-0.982-7.789
			c-0.653-1.328-1.636-1.993-2.946-1.993c-1.338,0-2.303,0.677-2.898,2.034C165.866,832.338,165.567,834.848,165.567,838.513z"/>
		<path fill="#2C8EC7" d="M182.625,838.493c0-5.531,0.996-9.399,2.986-11.61c1.992-2.209,5.025-3.313,9.1-3.313
			c1.957,0,3.565,0.241,4.821,0.724c1.257,0.483,2.283,1.111,3.076,1.886c0.794,0.773,1.419,1.588,1.875,2.441
			c0.457,0.854,0.825,1.85,1.103,2.985c0.542,2.17,0.813,4.432,0.813,6.787c0,5.278-0.895,9.142-2.68,11.59
			c-1.784,2.446-4.861,3.672-9.229,3.672c-2.446,0-4.424-0.392-5.933-1.172c-1.508-0.78-2.746-1.925-3.711-3.434
			c-0.702-1.07-1.247-2.536-1.636-4.395C182.822,842.797,182.625,840.742,182.625,838.493z M190.642,838.513
			c0,3.703,0.328,6.234,0.982,7.59c0.655,1.357,1.605,2.036,2.848,2.036c0.822,0,1.53-0.287,2.134-0.864
			c0.603-0.575,1.044-1.483,1.33-2.728c0.284-1.244,0.425-3.184,0.425-5.816c0-3.861-0.326-6.459-0.98-7.789
			c-0.655-1.328-1.638-1.993-2.949-1.993c-1.336,0-2.3,0.677-2.896,2.034C190.942,832.338,190.642,834.848,190.642,838.513z"/>
	</g>
</g>
<g>
	<g>
		<g>
			<rect x="87.665" y="676.788" fill="#FF8521" width="144.157" height="64.777"/>
		</g>
		<g>
			<path fill="#FFE570" d="M214.136,737.427H104.027c0.045-0.335,0.071-0.679,0.071-1.021c0-5.215-5.196-9.439-11.599-9.439v-36.655
				c0.409,0.035,0.83,0.056,1.25,0.056c6.407,0,11.598-4.23,11.598-9.44h110.11c-0.045,0.336-0.071,0.678-0.071,1.019
				c0,5.216,5.195,9.439,11.599,9.439v36.657c-0.41-0.036-0.831-0.056-1.253-0.056C219.327,727.987,214.136,732.215,214.136,737.427
				z"/>
		</g>
	</g>
	<g>
		<path fill="#FF8521" d="M125.343,694.632h19.19v6.448h-12.999l-0.696,4.366c0.9-0.423,1.79-0.742,2.67-0.953
			c0.879-0.211,1.749-0.317,2.609-0.317c2.909,0,5.272,0.88,7.084,2.641c1.813,1.76,2.719,3.976,2.719,6.646
			c0,1.879-0.467,3.686-1.399,5.417c-0.933,1.735-2.256,3.058-3.969,3.97c-1.713,0.913-3.906,1.369-6.579,1.369
			c-1.918,0-3.561-0.182-4.93-0.545c-1.371-0.364-2.534-0.907-3.494-1.628c-0.958-0.722-1.736-1.538-2.332-2.451
			c-0.596-0.912-1.091-2.051-1.487-3.413l8.176-0.893c0.198,1.31,0.661,2.304,1.388,2.985c0.728,0.683,1.595,1.022,2.6,1.022
			c1.124,0,2.054-0.427,2.788-1.28c0.735-0.854,1.101-2.126,1.101-3.818c0-1.734-0.37-3.004-1.111-3.811s-1.726-1.211-2.957-1.211
			c-0.779,0-1.533,0.191-2.261,0.575c-0.542,0.277-1.139,0.782-1.785,1.51l-6.888-0.993L125.343,694.632z"/>
		<path fill="#FF8521" d="M147.959,709.058c0-5.529,0.996-9.4,2.987-11.609c1.991-2.209,5.024-3.313,9.097-3.313
			c1.96,0,3.567,0.24,4.825,0.724c1.255,0.482,2.281,1.111,3.076,1.884c0.792,0.775,1.417,1.59,1.875,2.442
			c0.455,0.853,0.823,1.849,1.101,2.985c0.542,2.172,0.813,4.434,0.813,6.787c0,5.279-0.895,9.142-2.679,11.59
			c-1.786,2.448-4.862,3.671-9.229,3.671c-2.446,0-4.425-0.391-5.932-1.17c-1.509-0.781-2.746-1.925-3.71-3.433
			c-0.704-1.072-1.248-2.538-1.638-4.396C148.155,713.362,147.959,711.308,147.959,709.058z M155.976,709.078
			c0,3.703,0.328,6.234,0.983,7.59c0.655,1.355,1.604,2.033,2.847,2.033c0.821,0,1.531-0.287,2.133-0.862
			c0.602-0.575,1.045-1.486,1.33-2.729s0.426-3.182,0.426-5.814c0-3.863-0.326-6.46-0.982-7.789
			c-0.653-1.33-1.636-1.995-2.947-1.995c-1.337,0-2.302,0.679-2.896,2.034C156.274,702.901,155.976,705.414,155.976,709.078z"/>
		<path fill="#FF8521" d="M173.981,709.058c0-5.529,0.994-9.4,2.986-11.609s5.023-3.313,9.099-3.313c1.958,0,3.564,0.24,4.822,0.724
			c1.258,0.482,2.283,1.111,3.076,1.884c0.793,0.775,1.42,1.59,1.875,2.442c0.457,0.853,0.823,1.849,1.104,2.985
			c0.539,2.172,0.813,4.434,0.813,6.787c0,5.279-0.895,9.142-2.68,11.59c-1.786,2.448-4.862,3.671-9.228,3.671
			c-2.446,0-4.426-0.391-5.934-1.17c-1.508-0.781-2.745-1.925-3.711-3.433c-0.702-1.072-1.247-2.538-1.638-4.396
			C174.174,713.362,173.981,711.308,173.981,709.058z M181.996,709.078c0,3.703,0.329,6.234,0.982,7.59
			c0.655,1.355,1.604,2.033,2.85,2.033c0.819,0,1.53-0.287,2.132-0.862c0.603-0.575,1.045-1.486,1.331-2.729
			c0.283-1.243,0.426-3.182,0.426-5.814c0-3.863-0.328-6.46-0.982-7.789c-0.655-1.33-1.638-1.995-2.946-1.995
			c-1.339,0-2.303,0.679-2.897,2.034C182.294,702.901,181.996,705.414,181.996,709.078z"/>
	</g>
</g>
<g>
	<g>
		<g>
			<rect x="87.665" y="547.353" fill="#FF7074" width="144.157" height="64.777"/>
		</g>
		<g>
			<path fill="#FFB0B0" d="M214.136,607.991H104.027c0.045-0.336,0.071-0.679,0.071-1.021c0-5.215-5.196-9.44-11.599-9.44v-36.653
				c0.411,0.034,0.833,0.056,1.252,0.056c6.407,0,11.597-4.229,11.597-9.441h110.11c-0.044,0.336-0.071,0.679-0.071,1.019
				c0,5.215,5.197,9.44,11.601,9.44v36.655c-0.412-0.034-0.831-0.055-1.253-0.055C219.327,598.55,214.136,602.78,214.136,607.991z"
				/>
		</g>
	</g>
	<g>
		<path fill="#FF7074" d="M141.412,564.699v29.588h-8.177v-19.389c-1.323,1.007-2.603,1.82-3.839,2.441
			c-1.237,0.622-2.788,1.218-4.653,1.785v-6.629c2.752-0.886,4.888-1.95,6.41-3.194c1.521-1.243,2.71-2.778,3.571-4.604
			L141.412,564.699L141.412,564.699z"/>
		<path fill="#FF7074" d="M145.198,579.622c0-5.53,0.996-9.399,2.988-11.61c1.99-2.209,5.024-3.313,9.099-3.313
			c1.958,0,3.565,0.24,4.821,0.724c1.257,0.483,2.282,1.112,3.075,1.887c0.795,0.773,1.42,1.587,1.875,2.439
			c0.457,0.854,0.824,1.851,1.102,2.987c0.544,2.17,0.814,4.432,0.814,6.786c0,5.277-0.895,9.143-2.68,11.591
			c-1.785,2.446-4.861,3.67-9.228,3.67c-2.447,0-4.424-0.39-5.934-1.171c-1.507-0.781-2.746-1.926-3.71-3.433
			c-0.702-1.07-1.248-2.536-1.638-4.396C145.395,583.925,145.198,581.871,145.198,579.622z M153.215,579.641
			c0,3.704,0.329,6.234,0.982,7.59c0.655,1.357,1.605,2.036,2.849,2.036c0.82,0,1.53-0.287,2.133-0.864
			c0.602-0.575,1.043-1.483,1.329-2.729c0.284-1.243,0.427-3.182,0.427-5.813c0-3.864-0.329-6.46-0.982-7.791
			c-0.656-1.328-1.637-1.994-2.948-1.994c-1.336,0-2.3,0.679-2.896,2.035S153.215,575.977,153.215,579.641z"/>
		<path fill="#FF7074" d="M170.97,579.622c0-5.53,0.995-9.399,2.986-11.61c1.992-2.209,5.023-3.313,9.1-3.313
			c1.957,0,3.564,0.24,4.821,0.724c1.258,0.483,2.283,1.112,3.075,1.887c0.796,0.773,1.42,1.587,1.876,2.439
			c0.457,0.854,0.824,1.851,1.103,2.987c0.541,2.17,0.813,4.432,0.813,6.786c0,5.277-0.895,9.143-2.681,11.591
			c-1.784,2.446-4.86,3.67-9.228,3.67c-2.446,0-4.424-0.39-5.933-1.171c-1.507-0.781-2.746-1.926-3.711-3.433
			c-0.701-1.07-1.247-2.536-1.636-4.396C171.165,583.925,170.97,581.871,170.97,579.622z M178.986,579.641
			c0,3.704,0.328,6.234,0.981,7.59c0.656,1.357,1.605,2.036,2.849,2.036c0.821,0,1.53-0.287,2.134-0.864
			c0.602-0.575,1.044-1.483,1.329-2.729c0.284-1.243,0.427-3.182,0.427-5.813c0-3.864-0.329-6.46-0.981-7.791
			c-0.656-1.328-1.638-1.994-2.947-1.994c-1.338,0-2.302,0.679-2.896,2.035C179.285,573.467,178.986,575.977,178.986,579.641z"/>
	</g>
</g>
<g>
	<g>
		<g>
			<circle fill="#FFDB03" cx="159.741" cy="450.159" r="41.15"/>
			<circle fill="#F5B400" cx="159.743" cy="450.159" r="32.173"/>
			<path fill="#EA9C00" d="M129.25,451.187c0-17.203,13.944-31.145,31.145-31.145s31.146,13.941,31.146,31.145
				c0,4.679-1.038,9.112-2.887,13.091c2.087-4.264,3.263-9.051,3.263-14.12c0-17.767-14.406-32.171-32.176-32.171
				c-17.767,0-32.171,14.404-32.171,32.171c0,17.771,14.405,32.175,32.171,32.175c0.111,0,0.219-0.007,0.327-0.009
				C143.018,482.148,129.25,468.279,129.25,451.187z"/>
		</g>
	</g>
	<g>
		<path fill="#EA9C00" d="M139.884,436.949h17.997v6.063h-12.19l-0.652,4.104c0.844-0.397,1.679-0.695,2.504-0.896
			c0.825-0.199,1.641-0.299,2.447-0.299c2.729,0,4.945,0.828,6.644,2.484c1.7,1.653,2.55,3.736,2.55,6.249
			c0,1.767-0.437,3.465-1.312,5.093c-0.875,1.632-2.115,2.874-3.722,3.732c-1.609,0.857-3.664,1.286-6.171,1.286
			c-1.798,0-3.341-0.17-4.625-0.512c-1.283-0.344-2.375-0.853-3.275-1.529c-0.899-0.68-1.628-1.447-2.187-2.307
			c-0.557-0.856-1.023-1.927-1.395-3.207l7.667-0.842c0.187,1.232,0.622,2.169,1.303,2.808c0.681,0.643,1.495,0.962,2.438,0.962
			c1.055,0,1.926-0.401,2.615-1.203c0.688-0.802,1.032-2,1.032-3.591c0-1.632-0.347-2.824-1.042-3.582
			c-0.697-0.758-1.619-1.14-2.774-1.14c-0.731,0-1.438,0.182-2.121,0.542c-0.509,0.26-1.067,0.734-1.674,1.417l-6.459-0.933
			L139.884,436.949z"/>
		<path fill="#EA9C00" d="M162.161,450.514c0-5.198,0.933-8.839,2.8-10.915c1.867-2.078,4.713-3.115,8.533-3.115
			c1.836,0,3.345,0.227,4.523,0.68c1.178,0.454,2.14,1.046,2.885,1.772c0.742,0.727,1.329,1.492,1.758,2.294
			c0.429,0.803,0.772,1.739,1.034,2.809c0.508,2.041,0.762,4.168,0.762,6.382c0,4.963-0.837,8.595-2.513,10.896
			c-1.677,2.301-4.56,3.452-8.653,3.452c-2.295,0-4.151-0.367-5.565-1.101s-2.576-1.811-3.48-3.228
			c-0.658-1.009-1.17-2.387-1.534-4.133C162.343,454.561,162.161,452.629,162.161,450.514z M169.678,450.533
			c0,3.481,0.306,5.86,0.92,7.137c0.616,1.274,1.506,1.911,2.672,1.911c0.771,0,1.437-0.271,2.001-0.811
			c0.563-0.541,0.98-1.396,1.248-2.567c0.266-1.167,0.398-2.99,0.398-5.465c0-3.632-0.307-6.074-0.921-7.323
			c-0.613-1.251-1.536-1.874-2.764-1.874c-1.255,0-2.159,0.637-2.717,1.91C169.958,444.726,169.678,447.088,169.678,450.533z"/>
	</g>
	<g>
		<g>
			<path fill="#FFDB03" d="M139.78,436.934h17.446v5.864h-11.817l-0.631,3.97c0.818-0.385,1.626-0.675,2.426-0.866
				c0.801-0.193,1.591-0.289,2.374-0.289c2.646,0,4.793,0.799,6.441,2.4c1.648,1.601,2.473,3.614,2.473,6.043
				c0,1.708-0.424,3.351-1.273,4.926c-0.847,1.576-2.05,2.78-3.608,3.608c-1.559,0.831-3.551,1.245-5.982,1.245
				c-1.744,0-3.239-0.165-4.483-0.495c-1.246-0.331-2.303-0.825-3.175-1.48c-0.871-0.655-1.578-1.397-2.121-2.228
				c-0.54-0.829-0.99-1.864-1.352-3.104l7.433-0.811c0.181,1.191,0.602,2.096,1.263,2.715c0.661,0.619,1.449,0.93,2.363,0.93
				c1.021,0,1.867-0.389,2.534-1.163c0.667-0.776,1.001-1.934,1.001-3.473c0-1.576-0.336-2.73-1.011-3.465
				c-0.675-0.733-1.569-1.102-2.689-1.102c-0.708,0-1.395,0.176-2.055,0.524c-0.493,0.253-1.036,0.711-1.624,1.372l-6.26-0.9
				L139.78,436.934z"/>
			<path fill="#FFDB03" d="M161.375,450.049c0-5.026,0.904-8.545,2.717-10.554c1.809-2.008,4.566-3.012,8.271-3.012
				c1.78,0,3.241,0.219,4.385,0.658c1.143,0.438,2.075,1.009,2.798,1.712c0.721,0.704,1.29,1.444,1.705,2.22
				c0.414,0.776,0.748,1.682,1,2.716c0.494,1.973,0.741,4.031,0.741,6.17c0,4.801-0.813,8.312-2.437,10.537
				c-1.625,2.226-4.419,3.338-8.39,3.338c-2.225,0-4.024-0.354-5.396-1.063c-1.371-0.71-2.496-1.75-3.373-3.122
				c-0.639-0.975-1.134-2.307-1.489-3.996C161.551,453.963,161.375,452.096,161.375,450.049z M168.664,450.069
				c0,3.367,0.297,5.668,0.893,6.9c0.595,1.233,1.459,1.849,2.59,1.849c0.744,0,1.391-0.261,1.938-0.783
				c0.549-0.523,0.951-1.351,1.209-2.481c0.26-1.129,0.387-2.893,0.387-5.285c0-3.513-0.297-5.874-0.893-7.082
				c-0.593-1.209-1.487-1.813-2.679-1.813c-1.216,0-2.094,0.617-2.635,1.85C168.935,444.454,168.664,446.737,168.664,450.069z"/>
		</g>
	</g>
</g>
<g>
	<g>
		<g>
			<circle fill="#BFBFBF" cx="159.741" cy="320.722" r="40.646"/>
			<circle fill="#8C8C8C" cx="159.741" cy="320.723" r="31.778"/>
			<path fill="#767B81" d="M129.624,321.739c0-16.991,13.773-30.765,30.763-30.765c16.99,0,30.764,13.774,30.764,30.765
				c0,4.621-1.027,9-2.852,12.935c2.061-4.212,3.221-8.944,3.221-13.95c0-17.55-14.227-31.778-31.778-31.778
				c-17.549,0-31.776,14.228-31.776,31.778c0,17.551,14.228,31.779,31.776,31.779c0.109,0,0.215-0.008,0.324-0.008
				C143.224,352.321,129.624,338.62,129.624,321.739z"/>
		</g>
	</g>
	<g>
		<g>
			<path fill="#767B81" d="M154.476,305.682v31.026h-8.496v-20.331c-1.374,1.053-2.704,1.907-3.988,2.561
				c-1.286,0.65-2.898,1.274-4.835,1.872v-6.952c2.859-0.93,5.079-2.047,6.66-3.351c1.58-1.303,2.817-2.914,3.71-4.826H154.476z"/>
			<path fill="#767B81" d="M159.389,321.332c0-5.799,1.034-9.856,3.103-12.173c2.068-2.319,5.221-3.476,9.453-3.476
				c2.033,0,3.705,0.253,5.01,0.759c1.307,0.504,2.371,1.164,3.195,1.975c0.826,0.811,1.475,1.667,1.949,2.56
				c0.475,0.895,0.857,1.94,1.143,3.133c0.566,2.276,0.848,4.649,0.848,7.116c0,5.538-0.93,9.59-2.783,12.156
				c-1.855,2.569-5.051,3.851-9.59,3.851c-2.543,0-4.598-0.41-6.164-1.228c-1.564-0.819-2.852-2.019-3.855-3.601
				c-0.731-1.123-1.297-2.661-1.701-4.611C159.592,325.846,159.389,323.692,159.389,321.332z M167.718,321.353
				c0,3.883,0.342,6.538,1.02,7.959c0.682,1.421,1.668,2.133,2.959,2.133c0.854,0,1.592-0.3,2.219-0.902
				c0.623-0.605,1.086-1.56,1.381-2.864c0.295-1.303,0.441-3.337,0.441-6.097c0-4.052-0.34-6.774-1.021-8.168
				c-0.678-1.396-1.699-2.092-3.063-2.092c-1.387,0-2.391,0.712-3.008,2.134C168.027,314.876,167.718,317.511,167.718,321.353z"/>
		</g>
	</g>
	<g>
		<g>
			<path fill="#BFBFBF" d="M153.825,305.682v29.587h-8.175v-19.388c-1.323,1.004-2.603,1.816-3.84,2.439
				c-1.237,0.621-2.788,1.216-4.653,1.786v-6.628c2.753-0.886,4.889-1.951,6.411-3.194c1.52-1.244,2.711-2.778,3.571-4.604
				L153.825,305.682L153.825,305.682z"/>
			<path fill="#BFBFBF" d="M158.554,320.604c0-5.529,0.995-9.401,2.987-11.609c1.991-2.209,5.025-3.313,9.1-3.313
				c1.957,0,3.564,0.239,4.822,0.724c1.258,0.481,2.281,1.111,3.076,1.883c0.793,0.774,1.418,1.588,1.873,2.44
				c0.459,0.855,0.826,1.851,1.102,2.988c0.543,2.171,0.816,4.434,0.816,6.787c0,5.28-0.895,9.141-2.682,11.589
				c-1.785,2.448-4.861,3.672-9.227,3.672c-2.449,0-4.427-0.391-5.934-1.169c-1.509-0.782-2.746-1.927-3.711-3.435
				c-0.702-1.072-1.248-2.537-1.636-4.395C158.749,324.907,158.554,322.854,158.554,320.604z M166.57,320.624
				c0,3.704,0.328,6.235,0.982,7.59c0.654,1.357,1.604,2.034,2.846,2.034c0.822,0,1.531-0.287,2.137-0.861
				c0.602-0.577,1.043-1.487,1.328-2.731c0.285-1.244,0.426-3.18,0.426-5.813c0-3.864-0.326-6.459-0.98-7.791
				c-0.656-1.33-1.639-1.994-2.949-1.994c-1.334,0-2.299,0.679-2.896,2.034C166.869,314.448,166.57,316.96,166.57,320.624z"/>
		</g>
	</g>
</g>
<g>
	<g>
		<g>
			<circle fill="#BFBFBF" cx="159.741" cy="191.286" r="34.15"/>
			<circle fill="#8C8C8C" cx="159.741" cy="191.286" r="26.7"/>
			<path fill="#767B81" d="M134.438,192.142c0-14.277,11.572-25.848,25.846-25.848c14.275,0,25.847,11.571,25.847,25.848
				c0,3.881-0.861,7.559-2.395,10.863c1.73-3.539,2.707-7.514,2.707-11.719c0-14.744-11.955-26.7-26.702-26.7
				c-14.744,0-26.699,11.955-26.699,26.7c0,14.746,11.954,26.701,26.699,26.701c0.093,0,0.181-0.007,0.272-0.007
				C145.864,217.835,134.438,206.323,134.438,192.142z"/>
		</g>
	</g>
	<g>
		<g>
			<g>
				<path fill="#767B81" d="M150.154,175.722h20.188v6.785h-13.674l-0.73,4.594c0.946-0.447,1.883-0.78,2.808-1.002
					c0.926-0.222,1.841-0.335,2.745-0.335c3.062,0,5.546,0.926,7.453,2.779c1.908,1.851,2.861,4.182,2.861,6.992
					c0,1.976-0.49,3.877-1.473,5.702c-0.98,1.823-2.371,3.214-4.176,4.175c-1.803,0.96-4.109,1.44-6.921,1.44
					c-2.018,0-3.746-0.192-5.188-0.575c-1.439-0.382-2.665-0.953-3.674-1.712c-1.009-0.758-1.827-1.617-2.453-2.579
					c-0.627-0.96-1.147-2.157-1.565-3.59l8.603-0.938c0.208,1.376,0.695,2.425,1.461,3.14c0.765,0.717,1.677,1.076,2.735,1.076
					c1.182,0,2.161-0.45,2.933-1.347c0.773-0.897,1.158-2.236,1.158-4.02c0-1.823-0.389-3.159-1.168-4.008
					c-0.78-0.848-1.818-1.273-3.111-1.273c-0.821,0-1.614,0.202-2.379,0.606c-0.569,0.292-1.197,0.821-1.879,1.586l-7.246-1.044
					L150.154,175.722z"/>
			</g>
		</g>
		<g>
			<g>
				<path fill="#BFBFBF" d="M149.966,175.722h19.188v6.45h-12.997l-0.695,4.366c0.899-0.423,1.789-0.742,2.669-0.953
					s1.75-0.317,2.609-0.317c2.912,0,5.271,0.88,7.085,2.641c1.813,1.759,2.717,3.976,2.717,6.647c0,1.879-0.463,3.685-1.398,5.417
					c-0.932,1.734-2.254,3.058-3.969,3.969c-1.713,0.914-3.907,1.37-6.579,1.37c-1.918,0-3.563-0.183-4.932-0.545
					c-1.37-0.365-2.533-0.907-3.492-1.628c-0.959-0.721-1.738-1.537-2.332-2.45c-0.594-0.912-1.091-2.051-1.488-3.413l8.176-0.894
					c0.199,1.311,0.662,2.305,1.389,2.987c0.727,0.681,1.594,1.022,2.599,1.022c1.124,0,2.054-0.427,2.788-1.28
					c0.734-0.854,1.103-2.126,1.103-3.819c0-1.735-0.372-3.003-1.113-3.811c-0.742-0.807-1.726-1.211-2.956-1.211
					c-0.781,0-1.535,0.192-2.262,0.575c-0.542,0.277-1.137,0.782-1.786,1.51l-6.887-0.993L149.966,175.722z"/>
			</g>
		</g>
	</g>
</g>
<g>
	<g>
		<g>
			<circle fill="#FF9933" cx="164.442" cy="62.608" r="33.041"/>
			<circle fill="#E07117" cx="164.442" cy="62.608" r="25.833"/>
			<path fill="#CC6633" d="M139.96,63.432c0-13.81,11.195-25.008,25.007-25.008c13.81,0,25.009,11.198,25.009,25.008
				c0,3.757-0.836,7.318-2.318,10.511c1.676-3.421,2.617-7.269,2.617-11.335c0-14.266-11.566-25.831-25.833-25.831
				c-14.267,0-25.832,11.565-25.832,25.831c0,14.268,11.565,25.833,25.832,25.833c0.087,0,0.175-0.005,0.263-0.007
				C151.014,88.293,139.96,77.156,139.96,63.432z"/>
		</g>
	</g>
	<g>
		<g>
			<g>
				<path fill="#CC6633" d="M170.46,45.606v33.854h-9.354V57.278c-1.514,1.15-2.978,2.082-4.394,2.793
					c-1.416,0.711-3.191,1.393-5.325,2.043v-7.583c3.149-1.015,5.593-2.233,7.334-3.656c1.739-1.422,3.102-3.179,4.085-5.267h7.652
					V45.606z"/>
			</g>
		</g>
		<g>
			<g>
				<path fill="#FFA142" d="M169.441,45.606v32.045h-8.854V56.653c-1.433,1.089-2.819,1.97-4.159,2.643
					c-1.34,0.674-3.021,1.319-5.04,1.935v-7.179c2.981-0.959,5.295-2.113,6.942-3.46c1.647-1.346,2.936-3.008,3.868-4.985
					L169.441,45.606L169.441,45.606z"/>
			</g>
		</g>
	</g>
</g>
<g id="選單_1_">
</g>
</svg>
