<?xml version="1.0" encoding="utf-8"?>
<!-- Generator: Adobe Illustrator 16.0.3, SVG Export Plug-In . SVG Version: 6.00 Build 0)  -->
<!DOCTYPE svg PUBLIC "-//W3C//DTD SVG 1.1//EN" "http://www.w3.org/Graphics/SVG/1.1/DTD/svg11.dtd">
<svg version="1.1" xmlns="http://www.w3.org/2000/svg" xmlns:xlink="http://www.w3.org/1999/xlink" x="0px" y="0px"
	 width="323.667px" height="1037.935px" viewBox="0 0 323.667 1037.935" enable-background="new 0 0 323.667 1037.935"
	 xml:space="preserve">
<g id="BG">
</g>
<g id="_x24_">
	<rect x="-1.301" y="593.019" fill="#FFFFFF" width="326.615" height="152.25"/>
	<rect x="-1.301" y="741.352" fill="#FFFFFF" width="326.615" height="152.25"/>
	<rect x="-1.634" y="148.353" fill="#FFFFFF" width="326.615" height="152.25"/>
	<rect x="-1.634" y="0.353" fill="#FFFFFF" width="326.615" height="152.25"/>
	<g>
		<g>
			
				<line fill="none" stroke="#9FA0A0" stroke-width="4" stroke-miterlimit="10" x1="-1.634" y1="150.592" x2="324.981" y2="150.592"/>
			
				<line fill="none" stroke="#F7F8F8" stroke-width="2" stroke-miterlimit="10" x1="-1.634" y1="151.009" x2="324.981" y2="151.009"/>
		</g>
	</g>
	<g>
		<line fill="none" stroke="#9FA0A0" stroke-width="4" stroke-miterlimit="10" x1="-1.634" y1="2.106" x2="324.982" y2="2.106"/>
		<line fill="none" stroke="#F7F8F8" stroke-width="2" stroke-miterlimit="10" x1="-1.634" y1="1.662" x2="324.334" y2="1.662"/>
	</g>
	<g>
		<g>
			
				<line fill="none" stroke="#9FA0A0" stroke-width="4" stroke-miterlimit="10" x1="-1.634" y1="298.592" x2="324.981" y2="298.592"/>
			
				<line fill="none" stroke="#F7F8F8" stroke-width="2" stroke-miterlimit="10" x1="-1.634" y1="299.009" x2="324.981" y2="299.009"/>
		</g>
	</g>
	<rect x="-1.634" y="296.686" fill="#FFFFFF" width="326.615" height="152.25"/>
	<g>
		
			<line fill="none" stroke="#9FA0A0" stroke-width="4" stroke-miterlimit="10" x1="-1.634" y1="298.439" x2="324.982" y2="298.439"/>
		
			<line fill="none" stroke="#F7F8F8" stroke-width="2" stroke-miterlimit="10" x1="-1.634" y1="297.995" x2="324.334" y2="297.995"/>
	</g>
	<rect x="-1.301" y="889.685" fill="#FFFFFF" width="326.615" height="148.25"/>
	<rect x="-1.301" y="445.019" fill="#FFFFFF" width="326.615" height="152.25"/>
	<g>
		<g>
			<g>
				<rect x="79.701" y="926.208" fill="#2C8EC7" width="163.665" height="73.543"/>
			</g>
			<g>
				<path fill="#89ECF5" d="M223.288,995.052H98.278c0.051-0.38,0.08-0.77,0.08-1.158c0-5.921-5.899-10.717-13.168-10.717v-41.615
					c0.466,0.04,0.943,0.063,1.421,0.063c7.273,0,13.167-4.802,13.167-10.718h125.01c-0.051,0.381-0.08,0.77-0.08,1.157
					c0,5.921,5.899,10.717,13.169,10.717v41.617c-0.466-0.04-0.944-0.063-1.422-0.063
					C229.181,984.334,223.288,989.136,223.288,995.052z"/>
			</g>
		</g>
		<g>
			<path fill="#2C8EC7" d="M125.486,945.902v33.592h-9.282v-22.012c-1.502,1.143-2.955,2.066-4.359,2.771
				c-1.404,0.707-3.166,1.383-5.283,2.027v-7.525c3.124-1.006,5.55-2.215,7.277-3.627c1.727-1.412,3.078-3.154,4.055-5.227H125.486z
				"/>
			<path fill="#2C8EC7" d="M130.576,962.845c0-6.279,1.13-10.672,3.391-13.182c2.261-2.508,5.704-3.762,10.33-3.762
				c2.223,0,4.048,0.273,5.475,0.822s2.591,1.262,3.492,2.141s1.611,1.803,2.129,2.771c0.519,0.969,0.936,2.1,1.251,3.391
				c0.615,2.463,0.924,5.031,0.924,7.705c0,5.992-1.015,10.379-3.042,13.158c-2.027,2.777-5.52,4.168-10.477,4.168
				c-2.778,0-5.024-0.443-6.736-1.33s-3.117-2.186-4.213-3.898c-0.797-1.215-1.416-2.879-1.858-4.99
				C130.797,967.73,130.576,965.398,130.576,962.845z M139.677,962.867c0,4.205,0.372,7.078,1.115,8.617
				c0.744,1.541,1.821,2.311,3.233,2.311c0.932,0,1.738-0.326,2.422-0.98s1.187-1.686,1.51-3.098s0.484-3.613,0.484-6.602
				c0-4.385-0.372-7.334-1.115-8.844c-0.743-1.508-1.858-2.264-3.346-2.264c-1.518,0-2.613,0.77-3.289,2.311
				C140.016,955.857,139.677,958.707,139.677,962.867z"/>
			<path fill="#2C8EC7" d="M159.044,962.845c0-6.279,1.13-10.672,3.391-13.182c2.261-2.508,5.704-3.762,10.33-3.762
				c2.223,0,4.048,0.273,5.475,0.822s2.591,1.262,3.492,2.141s1.611,1.803,2.129,2.771c0.519,0.969,0.936,2.1,1.251,3.391
				c0.615,2.463,0.924,5.031,0.924,7.705c0,5.992-1.015,10.379-3.042,13.158c-2.027,2.777-5.52,4.168-10.477,4.168
				c-2.778,0-5.024-0.443-6.736-1.33s-3.117-2.186-4.213-3.898c-0.797-1.215-1.416-2.879-1.858-4.99
				C159.266,967.73,159.044,965.398,159.044,962.845z M168.146,962.867c0,4.205,0.372,7.078,1.115,8.617
				c0.744,1.541,1.821,2.311,3.233,2.311c0.932,0,1.738-0.326,2.422-0.98s1.187-1.686,1.51-3.098s0.484-3.613,0.484-6.602
				c0-4.385-0.372-7.334-1.115-8.844c-0.743-1.508-1.858-2.264-3.346-2.264c-1.518,0-2.613,0.77-3.289,2.311
				C168.485,955.857,168.146,958.707,168.146,962.867z"/>
			<path fill="#2C8EC7" d="M187.513,962.845c0-6.279,1.13-10.672,3.391-13.182c2.261-2.508,5.704-3.762,10.33-3.762
				c2.223,0,4.048,0.273,5.475,0.822s2.591,1.262,3.492,2.141s1.611,1.803,2.129,2.771c0.519,0.969,0.936,2.1,1.251,3.391
				c0.615,2.463,0.924,5.031,0.924,7.705c0,5.992-1.015,10.379-3.042,13.158c-2.027,2.777-5.52,4.168-10.477,4.168
				c-2.778,0-5.024-0.443-6.736-1.33s-3.117-2.186-4.213-3.898c-0.797-1.215-1.416-2.879-1.858-4.99
				C187.735,967.73,187.513,965.398,187.513,962.845z M196.615,962.867c0,4.205,0.372,7.078,1.115,8.617
				c0.744,1.541,1.821,2.311,3.233,2.311c0.932,0,1.738-0.326,2.422-0.98s1.187-1.686,1.51-3.098s0.484-3.613,0.484-6.602
				c0-4.385-0.372-7.334-1.115-8.844c-0.743-1.508-1.858-2.264-3.346-2.264c-1.518,0-2.613,0.77-3.289,2.311
				C196.954,955.857,196.615,958.707,196.615,962.867z"/>
		</g>
	</g>
	<g>
		<g>
			<g>
				<rect x="79.701" y="779.257" fill="#FF8521" width="163.665" height="73.543"/>
			</g>
			<g>
				<path fill="#FFE570" d="M223.288,848.101H98.278c0.051-0.38,0.08-0.77,0.08-1.158c0-5.921-5.899-10.717-13.168-10.717V794.61
					c0.466,0.04,0.943,0.063,1.421,0.063c7.273,0,13.167-4.802,13.167-10.718h125.01c-0.051,0.381-0.08,0.77-0.08,1.157
					c0,5.921,5.899,10.717,13.169,10.717v41.617c-0.466-0.04-0.944-0.063-1.422-0.063
					C229.181,837.383,223.288,842.185,223.288,848.101z"/>
			</g>
		</g>
		<g>
			<path fill="#FF8521" d="M122.478,799.514h21.786v7.322h-14.757l-0.789,4.957c1.021-0.48,2.031-0.842,3.03-1.082
				s1.986-0.361,2.963-0.361c3.304,0,5.985,1,8.043,2.998s3.087,4.514,3.087,7.547c0,2.133-0.529,4.184-1.589,6.15
				c-1.059,1.969-2.561,3.471-4.506,4.506c-1.945,1.037-4.435,1.555-7.469,1.555c-2.178,0-4.044-0.207-5.599-0.619
				c-1.555-0.414-2.876-1.029-3.965-1.848s-1.972-1.746-2.647-2.783c-0.676-1.035-1.239-2.328-1.689-3.875l9.282-1.014
				c0.226,1.488,0.751,2.617,1.577,3.391c0.825,0.773,1.81,1.16,2.951,1.16c1.276,0,2.332-0.484,3.165-1.453
				c0.834-0.969,1.251-2.414,1.251-4.336c0-1.969-0.421-3.41-1.262-4.326c-0.842-0.916-1.96-1.375-3.357-1.375
				c-0.886,0-1.742,0.219-2.568,0.654c-0.615,0.314-1.292,0.887-2.027,1.713l-7.819-1.127L122.478,799.514z"/>
			<path fill="#FF8521" d="M148.156,815.893c0-6.277,1.13-10.672,3.391-13.18s5.704-3.762,10.33-3.762
				c2.223,0,4.048,0.273,5.475,0.822c1.427,0.547,2.591,1.262,3.492,2.139c0.901,0.879,1.611,1.803,2.129,2.771
				c0.519,0.969,0.936,2.1,1.251,3.391c0.615,2.465,0.924,5.033,0.924,7.705c0,5.994-1.015,10.379-3.042,13.158
				s-5.52,4.168-10.477,4.168c-2.778,0-5.024-0.443-6.736-1.328c-1.712-0.887-3.117-2.186-4.213-3.898
				c-0.797-1.217-1.416-2.881-1.859-4.99S148.156,818.447,148.156,815.893z M157.257,815.916c0,4.205,0.372,7.078,1.115,8.617
				c0.744,1.539,1.821,2.309,3.233,2.309c0.932,0,1.738-0.326,2.422-0.979c0.684-0.654,1.187-1.688,1.51-3.1
				c0.323-1.41,0.484-3.611,0.484-6.6c0-4.387-0.372-7.334-1.115-8.844s-1.858-2.264-3.346-2.264c-1.518,0-2.613,0.77-3.289,2.309
				S157.257,811.756,157.257,815.916z"/>
			<path fill="#FF8521" d="M177.698,815.893c0-6.277,1.13-10.672,3.391-13.18s5.704-3.762,10.33-3.762
				c2.223,0,4.048,0.273,5.475,0.822c1.427,0.547,2.591,1.262,3.492,2.139c0.901,0.879,1.611,1.803,2.129,2.771
				c0.519,0.969,0.936,2.1,1.251,3.391c0.615,2.465,0.924,5.033,0.924,7.705c0,5.994-1.015,10.379-3.042,13.158
				s-5.52,4.168-10.477,4.168c-2.778,0-5.024-0.443-6.736-1.328c-1.712-0.887-3.117-2.186-4.213-3.898
				c-0.797-1.217-1.416-2.881-1.859-4.99S177.698,818.447,177.698,815.893z M186.799,815.916c0,4.205,0.372,7.078,1.115,8.617
				c0.744,1.539,1.821,2.309,3.233,2.309c0.932,0,1.738-0.326,2.422-0.979c0.684-0.654,1.187-1.688,1.51-3.1
				c0.323-1.41,0.484-3.611,0.484-6.6c0-4.387-0.372-7.334-1.115-8.844s-1.858-2.264-3.346-2.264c-1.518,0-2.613,0.77-3.289,2.309
				S186.799,811.756,186.799,815.916z"/>
		</g>
	</g>
	<g>
		<g>
			<g>
				<rect x="79.701" y="632.305" fill="#FF7074" width="163.665" height="73.543"/>
			</g>
			<g>
				<path fill="#FFB0B0" d="M223.288,701.149H98.278c0.051-0.38,0.081-0.77,0.081-1.158c0-5.921-5.899-10.717-13.168-10.717v-41.615
					c0.466,0.04,0.944,0.063,1.421,0.063c7.273,0,13.167-4.802,13.167-10.718h125.01c-0.05,0.381-0.08,0.77-0.08,1.157
					c0,5.921,5.899,10.717,13.169,10.717v41.617c-0.466-0.04-0.944-0.063-1.422-0.063
					C229.181,690.431,223.288,695.233,223.288,701.149z"/>
			</g>
		</g>
		<g>
			<path fill="#FF7074" d="M140.721,651.999v33.592h-9.282v-22.012c-1.502,1.143-2.955,2.066-4.359,2.771
				c-1.404,0.707-3.166,1.383-5.283,2.027v-7.525c3.124-1.006,5.55-2.215,7.277-3.627c1.727-1.412,3.078-3.154,4.055-5.227H140.721z
				"/>
			<path fill="#FF7074" d="M145.021,668.942c0-6.279,1.13-10.672,3.391-13.182c2.26-2.508,5.704-3.762,10.33-3.762
				c2.223,0,4.048,0.273,5.475,0.822c1.426,0.549,2.591,1.262,3.492,2.141c0.901,0.879,1.611,1.803,2.129,2.771
				c0.518,0.969,0.935,2.1,1.25,3.391c0.616,2.463,0.924,5.031,0.924,7.705c0,5.992-1.015,10.379-3.042,13.158
				c-2.028,2.777-5.52,4.168-10.477,4.168c-2.778,0-5.024-0.443-6.736-1.33c-1.712-0.887-3.118-2.186-4.213-3.898
				c-0.797-1.215-1.416-2.879-1.859-4.99C145.243,673.827,145.021,671.495,145.021,668.942z M154.123,668.963
				c0,4.205,0.373,7.078,1.115,8.617c0.744,1.541,1.821,2.311,3.233,2.311c0.932,0,1.739-0.326,2.422-0.98
				c0.684-0.654,1.187-1.686,1.51-3.098s0.485-3.613,0.485-6.602c0-4.385-0.373-7.334-1.116-8.844
				c-0.743-1.508-1.858-2.264-3.346-2.264c-1.518,0-2.613,0.77-3.289,2.311C154.462,661.954,154.123,664.803,154.123,668.963z"/>
			<path fill="#FF7074" d="M174.28,668.942c0-6.279,1.13-10.672,3.391-13.182c2.261-2.508,5.704-3.762,10.33-3.762
				c2.223,0,4.048,0.273,5.475,0.822s2.591,1.262,3.492,2.141c0.902,0.879,1.612,1.803,2.129,2.771
				c0.519,0.969,0.936,2.1,1.251,3.391c0.615,2.463,0.924,5.031,0.924,7.705c0,5.992-1.015,10.379-3.042,13.158
				c-2.027,2.777-5.52,4.168-10.477,4.168c-2.778,0-5.024-0.443-6.736-1.33s-3.117-2.186-4.213-3.898
				c-0.797-1.215-1.416-2.879-1.858-4.99C174.501,673.827,174.28,671.495,174.28,668.942z M183.381,668.963
				c0,4.205,0.372,7.078,1.115,8.617c0.744,1.541,1.821,2.311,3.233,2.311c0.932,0,1.738-0.326,2.422-0.98
				c0.684-0.654,1.187-1.686,1.51-3.098s0.484-3.613,0.484-6.602c0-4.385-0.372-7.334-1.115-8.844
				c-0.743-1.508-1.858-2.264-3.346-2.264c-1.518,0-2.613,0.77-3.289,2.311C183.72,661.954,183.381,664.803,183.381,668.963z"/>
		</g>
	</g>
	<g>
		<g>
			<g>
				<circle fill="#FFDB03" cx="161.533" cy="522.125" r="46.718"/>
				<circle fill="#F5B400" cx="161.534" cy="522.125" r="36.527"/>
				<path fill="#EA9C00" d="M126.915,523.291c0-19.53,15.831-35.359,35.36-35.359c19.529,0,35.36,15.829,35.36,35.359
					c0,5.312-1.178,10.346-3.276,14.864c2.369-4.842,3.702-10.277,3.702-16.031c0-20.172-16.354-36.526-36.528-36.526
					c-20.172,0-36.526,16.354-36.526,36.526c0,20.174,16.354,36.528,36.526,36.528c0.125,0,0.247-0.008,0.371-0.01
					C142.546,558.443,126.915,542.696,126.915,523.291z"/>
			</g>
		</g>
		<g>
			<path fill="#EA9C00" d="M138.987,507.127h20.433v6.885h-13.84l-0.74,4.66c0.958-0.452,1.905-0.791,2.842-1.018
				c0.937-0.226,1.863-0.339,2.779-0.339c3.099,0,5.614,0.94,7.543,2.819c1.93,1.878,2.896,4.243,2.896,7.096
				c0,2.005-0.497,3.933-1.49,5.782c-0.993,1.852-2.401,3.263-4.226,4.237s-4.159,1.461-7.005,1.461
				c-2.042,0-3.793-0.194-5.25-0.582c-1.458-0.389-2.698-0.968-3.719-1.736c-1.021-0.771-1.849-1.643-2.483-2.618
				c-0.633-0.973-1.162-2.188-1.584-3.643l8.705-0.954c0.212,1.399,0.705,2.462,1.479,3.188c0.774,0.728,1.697,1.092,2.768,1.092
				c1.197,0,2.187-0.456,2.968-1.367c0.782-0.91,1.173-2.27,1.173-4.077c0-1.851-0.395-3.206-1.183-4.066
				c-0.79-0.861-1.838-1.294-3.149-1.294c-0.831,0-1.634,0.206-2.409,0.615c-0.577,0.296-1.212,0.834-1.901,1.61l-7.333-1.059
				L138.987,507.127z"/>
			<path fill="#EA9C00" d="M164.278,522.528c0-5.902,1.06-10.035,3.18-12.393s5.35-3.537,9.688-3.537
				c2.084,0,3.796,0.258,5.134,0.773c1.338,0.514,2.43,1.187,3.275,2.011c0.845,0.826,1.511,1.695,1.997,2.606
				c0.486,0.91,0.877,1.974,1.173,3.188c0.577,2.317,0.867,4.732,0.867,7.245c0,5.635-0.952,9.758-2.854,12.371
				s-5.177,3.919-9.825,3.919c-2.606,0-4.713-0.416-6.318-1.249s-2.923-2.055-3.951-3.665c-0.748-1.144-1.328-2.709-1.743-4.691
				C164.485,527.123,164.278,524.929,164.278,522.528z M172.813,522.549c0,3.954,0.349,6.655,1.046,8.103
				c0.698,1.447,1.708,2.171,3.033,2.171c0.874,0,1.63-0.308,2.271-0.92c0.641-0.615,1.113-1.587,1.416-2.915
				c0.303-1.325,0.454-3.396,0.454-6.205c0-4.124-0.349-6.896-1.046-8.315c-0.697-1.42-1.743-2.128-3.138-2.128
				c-1.423,0-2.451,0.724-3.085,2.17C173.131,515.957,172.813,518.638,172.813,522.549z"/>
		</g>
		<g>
			<g>
				<path fill="#FFDB03" d="M138.869,507.11h19.807v6.657H145.26l-0.717,4.507c0.929-0.437,1.847-0.766,2.755-0.983
					c0.909-0.219,1.806-0.329,2.694-0.329c3.004,0,5.442,0.909,7.313,2.726c1.871,1.817,2.807,4.104,2.807,6.861
					c0,1.939-0.481,3.804-1.444,5.592c-0.962,1.79-2.328,3.156-4.097,4.097c-1.769,0.943-4.032,1.414-6.791,1.414
					c-1.98,0-3.677-0.188-5.09-0.563c-1.414-0.376-2.615-0.936-3.604-1.68c-0.99-0.744-1.792-1.587-2.407-2.53
					c-0.614-0.941-1.126-2.116-1.536-3.523l8.439-0.921c0.205,1.353,0.683,2.379,1.434,3.082c0.75,0.703,1.645,1.056,2.683,1.056
					c1.16,0,2.12-0.441,2.877-1.321c0.758-0.881,1.137-2.195,1.137-3.942c0-1.79-0.382-3.101-1.147-3.934
					c-0.766-0.833-1.782-1.25-3.053-1.25c-0.805,0-1.584,0.199-2.335,0.595c-0.559,0.286-1.175,0.807-1.843,1.558l-7.108-1.024
					L138.869,507.11z"/>
				<path fill="#FFDB03" d="M163.386,522.001c0-5.708,1.027-9.703,3.083-11.983c2.056-2.279,5.186-3.42,9.392-3.42
					c2.021,0,3.68,0.249,4.978,0.748c1.297,0.497,2.355,1.146,3.175,1.944c0.819,0.799,1.465,1.639,1.936,2.52
					c0.472,0.881,0.851,1.909,1.137,3.083c0.56,2.24,0.84,4.576,0.84,7.005c0,5.45-0.922,9.437-2.766,11.963
					c-1.843,2.527-5.018,3.79-9.525,3.79c-2.526,0-4.568-0.403-6.125-1.208c-1.557-0.806-2.834-1.986-3.83-3.544
					c-0.725-1.106-1.288-2.619-1.69-4.537C163.587,526.444,163.386,524.324,163.386,522.001z M171.661,522.022
					c0,3.823,0.338,6.436,1.014,7.835c0.676,1.399,1.656,2.099,2.939,2.099c0.847,0,1.581-0.296,2.202-0.89
					c0.622-0.595,1.079-1.534,1.373-2.817c0.294-1.282,0.44-3.284,0.44-6.001c0-3.988-0.338-6.668-1.014-8.04
					c-0.675-1.373-1.689-2.059-3.042-2.059c-1.38,0-2.376,0.7-2.991,2.1C171.969,515.648,171.661,518.24,171.661,522.022z"/>
			</g>
		</g>
	</g>
	<g>
		<g>
			<g>
				<circle fill="#BFBFBF" cx="161.533" cy="375.172" r="46.146"/>
				<circle fill="#8C8C8C" cx="161.532" cy="375.172" r="36.078"/>
				<path fill="#767B81" d="M127.339,376.326c0-19.29,15.637-34.928,34.925-34.928c19.29,0,34.927,15.638,34.927,34.928
					c0,5.246-1.164,10.217-3.236,14.684c2.338-4.782,3.656-10.154,3.656-15.837c0-19.925-16.152-36.078-36.078-36.078
					c-19.925,0-36.078,16.153-36.078,36.078c0,19.926,16.153,36.079,36.078,36.079c0.123,0,0.243-0.008,0.366-0.008
					C142.78,411.046,127.339,395.492,127.339,376.326z"/>
			</g>
		</g>
		<g>
			<g>
				<path fill="#767B81" d="M155.554,358.096v35.226h-9.645V370.24c-1.561,1.196-3.07,2.165-4.528,2.907
					c-1.46,0.738-3.29,1.446-5.489,2.125v-7.892c3.246-1.055,5.766-2.324,7.561-3.804c1.794-1.479,3.198-3.308,4.213-5.48H155.554z"
					/>
				<path fill="#767B81" d="M161.132,375.864c0-6.584,1.174-11.191,3.523-13.821c2.348-2.632,5.926-3.946,10.732-3.946
					c2.31,0,4.206,0.287,5.688,0.862c1.482,0.573,2.692,1.322,3.628,2.243c0.938,0.921,1.675,1.892,2.213,2.906
					c0.539,1.016,0.972,2.202,1.299,3.557c0.64,2.584,0.961,5.278,0.961,8.079c0,6.287-1.055,10.887-3.161,13.8
					c-2.106,2.917-5.735,4.373-10.886,4.373c-2.887,0-5.221-0.465-6.999-1.394c-1.778-0.93-3.239-2.292-4.377-4.088
					c-0.829-1.275-1.472-3.021-1.931-5.234C161.363,380.989,161.132,378.543,161.132,375.864z M170.589,375.888
					c0,4.409,0.386,7.423,1.158,9.037c0.773,1.614,1.893,2.421,3.359,2.421c0.969,0,1.807-0.341,2.518-1.024
					c0.709-0.688,1.232-1.771,1.568-3.252c0.335-1.479,0.503-3.788,0.503-6.922c0-4.601-0.387-7.691-1.16-9.274
					c-0.771-1.584-1.931-2.375-3.477-2.375c-1.576,0-2.715,0.808-3.417,2.422S170.589,371.526,170.589,375.888z"/>
			</g>
		</g>
		<g>
			<g>
				<path fill="#BFBFBF" d="M154.816,358.096v33.592h-9.282v-22.012c-1.502,1.141-2.955,2.063-4.359,2.771
					c-1.404,0.704-3.166,1.38-5.283,2.027v-7.525c3.124-1.006,5.55-2.215,7.277-3.627c1.727-1.412,3.078-3.154,4.055-5.227H154.816z
					"/>
				<path fill="#BFBFBF" d="M160.184,375.038c0-6.277,1.13-10.673,3.391-13.18c2.261-2.508,5.705-3.762,10.331-3.762
					c2.222,0,4.047,0.272,5.474,0.822c1.427,0.546,2.591,1.262,3.492,2.138c0.901,0.879,1.611,1.804,2.129,2.771
					c0.519,0.97,0.936,2.1,1.251,3.391c0.615,2.466,0.924,5.034,0.924,7.705c0,5.995-1.015,10.379-3.042,13.158
					s-5.519,4.169-10.477,4.169c-2.778,0-5.024-0.444-6.736-1.328c-1.712-0.887-3.117-2.187-4.213-3.899
					c-0.797-1.217-1.416-2.88-1.858-4.989C160.405,379.923,160.184,377.592,160.184,375.038z M169.285,375.06
					c0,4.205,0.372,7.079,1.115,8.617c0.744,1.54,1.821,2.309,3.233,2.309c0.932,0,1.738-0.325,2.422-0.978
					c0.684-0.654,1.187-1.688,1.51-3.1s0.484-3.611,0.484-6.6c0-4.387-0.372-7.334-1.115-8.845
					c-0.743-1.509-1.858-2.263-3.346-2.263c-1.517,0-2.613,0.77-3.289,2.309C169.624,368.048,169.285,370.901,169.285,375.06z"/>
			</g>
		</g>
	</g>
	<g>
		<g>
			<g>
				<circle fill="#BFBFBF" cx="161.533" cy="228.22" r="38.771"/>
				<circle fill="#8C8C8C" cx="161.533" cy="228.22" r="30.313"/>
				<path fill="#767B81" d="M132.804,229.191c0-16.209,13.139-29.346,29.344-29.346c16.207,0,29.346,13.137,29.346,29.346
					c0,4.406-0.979,8.582-2.719,12.334c1.965-4.018,3.072-8.531,3.072-13.305c0-16.74-13.572-30.313-30.314-30.313
					c-16.74,0-30.313,13.572-30.313,30.313c0,16.742,13.572,30.314,30.313,30.314c0.104,0,0.205-0.008,0.309-0.008
					C145.776,258.361,132.804,245.292,132.804,229.191z"/>
			</g>
		</g>
		<g>
			<g>
				<g>
					<path fill="#767B81" d="M150.647,210.55h22.921v7.703h-15.525l-0.83,5.215c1.074-0.506,2.137-0.885,3.188-1.137
						c1.052-0.252,2.09-0.381,3.117-0.381c3.477,0,6.298,1.051,8.462,3.154c2.165,2.102,3.248,4.748,3.248,7.939
						c0,2.244-0.557,4.402-1.672,6.473c-1.113,2.07-2.693,3.65-4.74,4.74s-4.666,1.635-7.858,1.635c-2.291,0-4.254-0.217-5.89-0.652
						c-1.636-0.434-3.026-1.082-4.172-1.943s-2.074-1.836-2.785-2.928c-0.711-1.09-1.304-2.449-1.777-4.076l9.766-1.066
						c0.237,1.564,0.79,2.754,1.659,3.566c0.868,0.814,1.904,1.221,3.105,1.221c1.343,0,2.453-0.51,3.33-1.529
						c0.877-1.018,1.315-2.539,1.315-4.563c0-2.07-0.442-3.586-1.327-4.551c-0.886-0.963-2.063-1.445-3.532-1.445
						c-0.932,0-1.833,0.229-2.702,0.688c-0.647,0.332-1.359,0.932-2.133,1.801l-8.227-1.186L150.647,210.55z"/>
				</g>
			</g>
			<g>
				<g>
					<path fill="#BFBFBF" d="M150.434,210.55h21.786v7.322h-14.757l-0.789,4.957c1.021-0.48,2.031-0.842,3.03-1.082
						s1.986-0.361,2.963-0.361c3.304,0,5.985,1,8.043,2.998s3.087,4.514,3.087,7.547c0,2.133-0.529,4.184-1.589,6.15
						c-1.059,1.969-2.561,3.471-4.506,4.506c-1.945,1.037-4.435,1.555-7.469,1.555c-2.178,0-4.044-0.207-5.599-0.619
						c-1.555-0.414-2.876-1.029-3.965-1.848s-1.972-1.746-2.647-2.783c-0.676-1.035-1.239-2.328-1.689-3.875l9.282-1.014
						c0.226,1.488,0.751,2.617,1.577,3.391c0.825,0.773,1.81,1.16,2.951,1.16c1.276,0,2.332-0.484,3.165-1.453
						c0.834-0.969,1.251-2.414,1.251-4.336c0-1.969-0.421-3.41-1.262-4.326c-0.842-0.916-1.96-1.375-3.357-1.375
						c-0.886,0-1.742,0.219-2.568,0.654c-0.615,0.314-1.292,0.887-2.027,1.713l-7.818-1.127L150.434,210.55z"/>
				</g>
			</g>
		</g>
	</g>
	<g>
		<g>
			<g>
				<circle fill="#FF9933" cx="161.533" cy="81.269" r="34.635"/>
				<circle fill="#E07117" cx="161.533" cy="81.269" r="27.079"/>
				<path fill="#CC6633" d="M135.869,82.134c0-14.477,11.735-26.215,26.214-26.215c14.477,0,26.215,11.738,26.215,26.215
					c0,3.938-0.875,7.67-2.43,11.018c1.756-3.586,2.744-7.62,2.744-11.883c0-14.954-12.125-27.077-27.079-27.077
					c-14.956,0-27.079,12.123-27.079,27.077c0,14.956,12.123,27.079,27.079,27.079c0.091,0,0.183-0.005,0.274-0.007
					C147.456,108.194,135.869,96.519,135.869,82.134z"/>
			</g>
		</g>
		<g>
			<g>
				<g>
					<path fill="#CC6633" d="M167.842,63.447v35.488h-9.806V75.681c-1.587,1.206-3.122,2.183-4.605,2.929
						c-1.484,0.745-3.346,1.46-5.582,2.142v-7.95c3.301-1.063,5.863-2.34,7.688-3.832c1.824-1.491,3.252-3.332,4.283-5.521H167.842z
						"/>
				</g>
			</g>
			<g>
				<g>
					<path fill="#FFA142" d="M166.773,63.447v33.592h-9.282V75.027c-1.502,1.142-2.955,2.065-4.359,2.771
						c-1.404,0.707-3.166,1.382-5.283,2.028v-7.525c3.124-1.006,5.55-2.215,7.277-3.627c1.727-1.412,3.078-3.154,4.055-5.226
						H166.773z"/>
				</g>
			</g>
		</g>
	</g>
	<g>
		<g>
			
				<line fill="none" stroke="#9FA0A0" stroke-width="4" stroke-miterlimit="10" x1="-1.28" y1="446.342" x2="325.335" y2="446.342"/>
			
				<line fill="none" stroke="#F7F8F8" stroke-width="2" stroke-miterlimit="10" x1="-1.28" y1="446.758" x2="325.335" y2="446.758"/>
		</g>
	</g>
	<g>
		<g>
			
				<line fill="none" stroke="#9FA0A0" stroke-width="4" stroke-miterlimit="10" x1="-1.28" y1="742.675" x2="325.335" y2="742.675"/>
			
				<line fill="none" stroke="#F7F8F8" stroke-width="2" stroke-miterlimit="10" x1="-1.28" y1="743.091" x2="325.335" y2="743.091"/>
		</g>
	</g>
	<g>
		<line fill="none" stroke="#9FA0A0" stroke-width="4" stroke-miterlimit="10" x1="-1.28" y1="892.022" x2="325.336" y2="892.022"/>
		<line fill="none" stroke="#F7F8F8" stroke-width="2" stroke-miterlimit="10" x1="-1.28" y1="891.578" x2="324.688" y2="891.578"/>
	</g>
	<g>
		<line fill="none" stroke="#9FA0A0" stroke-width="4" stroke-miterlimit="10" x1="-1.28" y1="595.689" x2="325.336" y2="595.689"/>
		<line fill="none" stroke="#F7F8F8" stroke-width="2" stroke-miterlimit="10" x1="-1.28" y1="595.245" x2="324.688" y2="595.245"/>
	</g>
</g>
<g id="UI">
</g>
<g id="選單">
</g>
</svg>
