<?xml version="1.0" encoding="utf-8"?>
<!-- Generator: Adobe Illustrator 16.0.0, SVG Export Plug-In . SVG Version: 6.00 Build 0)  -->
<!DOCTYPE svg PUBLIC "-//W3C//DTD SVG 1.1//EN" "http://www.w3.org/Graphics/SVG/1.1/DTD/svg11.dtd">
<svg version="1.1" id="圖層_1" xmlns="http://www.w3.org/2000/svg" xmlns:xlink="http://www.w3.org/1999/xlink" x="0px" y="0px"
	 width="650.634px" height="900px" viewBox="0 0 650.634 900" enable-background="new 0 0 650.634 900" xml:space="preserve">
<g id="BG">
</g>
<g id="_x24_">
	<rect x="-2.45" y="128.375" fill="#FFFFFF" width="326.616" height="132.063"/>
	<rect x="-2.45" y="0" fill="#FFFFFF" width="326.616" height="132.062"/>
	<g>
		<g>
			
				<line fill="none" stroke="#9FA0A0" stroke-width="4" stroke-miterlimit="10" x1="-2.45" y1="130.318" x2="324.166" y2="130.318"/>
			
				<line fill="none" stroke="#F7F8F8" stroke-width="2" stroke-miterlimit="10" x1="-2.45" y1="130.679" x2="324.166" y2="130.679"/>
		</g>
	</g>
	<g>
		<line fill="none" stroke="#9FA0A0" stroke-width="4" stroke-miterlimit="10" x1="-2.45" y1="1.521" x2="324.167" y2="1.521"/>
		<line fill="none" stroke="#F7F8F8" stroke-width="2" stroke-miterlimit="10" x1="-2.45" y1="1.135" x2="323.516" y2="1.135"/>
	</g>
	<g>
		<g>
			
				<line fill="none" stroke="#9FA0A0" stroke-width="4" stroke-miterlimit="10" x1="-2.45" y1="258.693" x2="324.166" y2="258.693"/>
			
				<line fill="none" stroke="#F7F8F8" stroke-width="2" stroke-miterlimit="10" x1="-2.45" y1="259.055" x2="324.166" y2="259.055"/>
		</g>
	</g>
	<rect x="-2.45" y="257.04" fill="#FFFFFF" width="326.616" height="132.062"/>
	<g>
		<line fill="none" stroke="#9FA0A0" stroke-width="4" stroke-miterlimit="10" x1="-2.45" y1="258.56" x2="324.167" y2="258.56"/>
		<line fill="none" stroke="#F7F8F8" stroke-width="2" stroke-miterlimit="10" x1="-2.45" y1="258.175" x2="323.516" y2="258.175"/>
	</g>
	<rect x="-2.117" y="771.406" fill="#FFFFFF" width="326.615" height="128.594"/>
	<rect x="-2.117" y="514.079" fill="#FFFFFF" width="326.615" height="132.062"/>
	<rect x="-2.117" y="385.703" fill="#FFFFFF" width="326.615" height="132.063"/>
	<g>
		<g>
			
				<line fill="none" stroke="#9FA0A0" stroke-width="4" stroke-miterlimit="10" x1="-2.117" y1="644.397" x2="324.498" y2="644.397"/>
			
				<line fill="none" stroke="#F7F8F8" stroke-width="2" stroke-miterlimit="10" x1="-2.117" y1="644.758" x2="324.498" y2="644.758"/>
		</g>
	</g>
	<rect x="-2.117" y="642.743" fill="#FFFFFF" width="326.615" height="132.063"/>
	<g>
		<g>
			<line fill="none" stroke="#9FA0A0" stroke-width="4" stroke-miterlimit="10" x1="-2.117" y1="386.852" x2="324.5" y2="386.852"/>
			<line fill="none" stroke="#F7F8F8" stroke-width="2" stroke-miterlimit="10" x1="-2.117" y1="387.212" x2="324.5" y2="387.212"/>
		</g>
	</g>
	<g>
		<g>
			<line fill="none" stroke="#9FA0A0" stroke-width="4" stroke-miterlimit="10" x1="-2.117" y1="643.892" x2="324.5" y2="643.892"/>
			<line fill="none" stroke="#F7F8F8" stroke-width="2" stroke-miterlimit="10" x1="-2.117" y1="644.252" x2="324.5" y2="644.252"/>
		</g>
	</g>
	<g>
		<line fill="none" stroke="#9FA0A0" stroke-width="4" stroke-miterlimit="10" x1="-2.117" y1="773.434" x2="324.5" y2="773.434"/>
		<line fill="none" stroke="#F7F8F8" stroke-width="2" stroke-miterlimit="10" x1="-2.117" y1="773.049" x2="323.85" y2="773.049"/>
	</g>
	<g>
		<line fill="none" stroke="#9FA0A0" stroke-width="4" stroke-miterlimit="10" x1="-2.117" y1="516.395" x2="324.5" y2="516.395"/>
		<line fill="none" stroke="#F7F8F8" stroke-width="2" stroke-miterlimit="10" x1="-2.117" y1="516.01" x2="323.85" y2="516.01"/>
	</g>
</g>
<image overflow="visible" enable-background="new    " width="303" height="134" xlink:href="EBE08E0A.jpeg"  transform="matrix(0.5768 0 0 0.5782 73.3633 796.8977)">
</image>
<image overflow="visible" enable-background="new    " width="304" height="139" xlink:href="EBE08E0E.jpeg"  transform="matrix(0.5283 0 0 0.5316 80.4268 671.8958)">
</image>
<image overflow="visible" enable-background="new    " width="300" height="148" xlink:href="EBE08E0E.jpeg"  transform="matrix(0.4912 0 0 0.4949 87.0581 542.3918)">
</image>
<image overflow="visible" enable-background="new    " width="735" height="742" xlink:href="EBE08E0A.png"  transform="matrix(0.1271 0 0 0.1302 114.0405 403.9338)">
</image>
<image overflow="visible" enable-background="new    " width="719" height="727" xlink:href="EBE08E09.png"  transform="matrix(0.1249 0 0 0.1253 115.8193 276.8323)">
</image>
<image overflow="visible" enable-background="new    " width="730" height="737" xlink:href="EBE08E16.png"  transform="matrix(0.131 0 0 0.1344 112.9175 144.0491)">
</image>
<image overflow="visible" enable-background="new    " width="716" height="731" xlink:href="EBE08E19.png"  transform="matrix(0.1273 0 0 0.1278 115.1899 17.0315)">
</image>
<g id="選單">
</g>
<g id="_x24__1_">
	<rect x="324.667" y="128.375" fill="#FFFFFF" width="326.614" height="132.063"/>
	<rect x="324.667" y="0" fill="#FFFFFF" width="326.614" height="132.062"/>
	<g>
		<g>
			
				<line fill="none" stroke="#9FA0A0" stroke-width="4" stroke-miterlimit="10" x1="324.667" y1="130.318" x2="651.283" y2="130.318"/>
			
				<line fill="none" stroke="#F7F8F8" stroke-width="2" stroke-miterlimit="10" x1="324.667" y1="130.679" x2="651.283" y2="130.679"/>
		</g>
	</g>
	<g>
		<line fill="none" stroke="#9FA0A0" stroke-width="4" stroke-miterlimit="10" x1="324.667" y1="1.521" x2="651.285" y2="1.521"/>
		<line fill="none" stroke="#F7F8F8" stroke-width="2" stroke-miterlimit="10" x1="324.667" y1="1.135" x2="650.634" y2="1.135"/>
	</g>
	<g>
		<g>
			
				<line fill="none" stroke="#9FA0A0" stroke-width="4" stroke-miterlimit="10" x1="324.667" y1="258.693" x2="651.283" y2="258.693"/>
			
				<line fill="none" stroke="#F7F8F8" stroke-width="2" stroke-miterlimit="10" x1="324.667" y1="259.055" x2="651.283" y2="259.055"/>
		</g>
	</g>
	<rect x="324.667" y="257.04" fill="#FFFFFF" width="326.614" height="132.062"/>
	<g>
		<line fill="none" stroke="#9FA0A0" stroke-width="4" stroke-miterlimit="10" x1="324.667" y1="258.56" x2="651.285" y2="258.56"/>
		
			<line fill="none" stroke="#F7F8F8" stroke-width="2" stroke-miterlimit="10" x1="324.667" y1="258.175" x2="650.634" y2="258.175"/>
	</g>
	<rect x="325.001" y="771.406" fill="#FFFFFF" width="326.613" height="128.595"/>
	<rect x="325.001" y="514.078" fill="#FFFFFF" width="326.613" height="132.063"/>
	<rect x="325.001" y="385.702" fill="#FFFFFF" width="326.613" height="132.063"/>
	<g>
		<g>
			
				<line fill="none" stroke="#9FA0A0" stroke-width="4" stroke-miterlimit="10" x1="325.001" y1="644.397" x2="651.616" y2="644.397"/>
			
				<line fill="none" stroke="#F7F8F8" stroke-width="2" stroke-miterlimit="10" x1="325.001" y1="644.758" x2="651.616" y2="644.758"/>
		</g>
	</g>
	<rect x="325.001" y="642.742" fill="#FFFFFF" width="326.613" height="132.063"/>
	<g>
		<g>
			
				<line fill="none" stroke="#9FA0A0" stroke-width="4" stroke-miterlimit="10" x1="325.001" y1="386.852" x2="651.617" y2="386.852"/>
			
				<line fill="none" stroke="#F7F8F8" stroke-width="2" stroke-miterlimit="10" x1="325.001" y1="387.212" x2="651.617" y2="387.212"/>
		</g>
	</g>
	<g>
		<g>
			
				<line fill="none" stroke="#9FA0A0" stroke-width="4" stroke-miterlimit="10" x1="325.001" y1="643.892" x2="651.617" y2="643.892"/>
			
				<line fill="none" stroke="#F7F8F8" stroke-width="2" stroke-miterlimit="10" x1="325.001" y1="644.252" x2="651.617" y2="644.252"/>
		</g>
	</g>
	<g>
		
			<line fill="none" stroke="#9FA0A0" stroke-width="4" stroke-miterlimit="10" x1="325.001" y1="773.434" x2="651.617" y2="773.434"/>
		
			<line fill="none" stroke="#F7F8F8" stroke-width="2" stroke-miterlimit="10" x1="325.001" y1="773.049" x2="650.968" y2="773.049"/>
	</g>
	<g>
		
			<line fill="none" stroke="#9FA0A0" stroke-width="4" stroke-miterlimit="10" x1="325.001" y1="516.395" x2="651.617" y2="516.395"/>
		<line fill="none" stroke="#F7F8F8" stroke-width="2" stroke-miterlimit="10" x1="325.001" y1="516.01" x2="650.968" y2="516.01"/>
	</g>
</g>
<g>
	<g>
		<g>
			<rect x="413.974" y="806.224" fill="#2C8EC7" width="144.156" height="64.776"/>
		</g>
		<g>
			<path fill="#89ECF5" d="M540.445,866.862H430.335c0.045-0.334,0.07-0.678,0.07-1.02c0-5.215-5.195-9.439-11.599-9.439v-36.655
				c0.407,0.036,0.83,0.059,1.25,0.059c6.406,0,11.598-4.23,11.598-9.441h110.109c-0.045,0.336-0.07,0.681-0.07,1.021
				c0,5.215,5.195,9.438,11.599,9.438v36.657c-0.408-0.035-0.83-0.056-1.253-0.056C545.636,857.422,540.445,861.652,540.445,866.862
				z"/>
		</g>
	</g>
	<g>
		<path fill="#2C8EC7" d="M454.3,823.571v29.588h-8.176v-19.388c-1.322,1.006-2.604,1.819-3.84,2.439
			c-1.236,0.622-2.789,1.219-4.652,1.784v-6.629c2.752-0.886,4.889-1.95,6.41-3.192c1.52-1.243,2.711-2.778,3.571-4.604
			L454.3,823.571L454.3,823.571z"/>
		<path fill="#2C8EC7" d="M458.785,838.491c0-5.529,0.995-9.397,2.986-11.608c1.992-2.209,5.023-3.313,9.099-3.313
			c1.958,0,3.565,0.241,4.823,0.726c1.257,0.481,2.281,1.109,3.076,1.886c0.791,0.771,1.418,1.588,1.875,2.439
			c0.457,0.854,0.824,1.852,1.101,2.985c0.542,2.17,0.813,4.432,0.813,6.787c0,5.278-0.894,9.142-2.678,11.59
			c-1.785,2.446-4.863,3.672-9.229,3.672c-2.447,0-4.426-0.392-5.934-1.172c-1.509-0.78-2.746-1.925-3.711-3.434
			c-0.701-1.07-1.246-2.536-1.638-4.396C458.978,842.797,458.785,840.74,458.785,838.491z M466.8,838.513
			c0,3.703,0.328,6.232,0.98,7.59c0.655,1.357,1.604,2.036,2.848,2.036c0.821,0,1.531-0.287,2.133-0.864
			c0.604-0.575,1.047-1.481,1.332-2.728c0.283-1.244,0.426-3.186,0.426-5.816c0-3.861-0.326-6.459-0.981-7.789
			c-0.654-1.328-1.638-1.993-2.947-1.993c-1.337,0-2.302,0.679-2.896,2.034S466.8,834.848,466.8,838.513z"/>
		<path fill="#2C8EC7" d="M483.859,838.491c0-5.529,0.994-9.397,2.986-11.608c1.992-2.209,5.023-3.313,9.099-3.313
			c1.958,0,3.565,0.241,4.821,0.726c1.258,0.481,2.283,1.109,3.076,1.886c0.793,0.771,1.42,1.588,1.875,2.439
			c0.457,0.854,0.822,1.852,1.104,2.985c0.542,2.17,0.813,4.432,0.813,6.787c0,5.278-0.896,9.142-2.681,11.59
			c-1.783,2.446-4.86,3.672-9.229,3.672c-2.446,0-4.426-0.392-5.934-1.172c-1.509-0.78-2.746-1.925-3.712-3.434
			c-0.701-1.07-1.247-2.536-1.636-4.396C484.054,842.797,483.859,840.74,483.859,838.491z M491.875,838.513
			c0,3.703,0.329,6.232,0.981,7.59c0.656,1.357,1.604,2.036,2.848,2.036c0.822,0,1.531-0.287,2.134-0.864
			c0.604-0.575,1.047-1.481,1.33-2.728c0.284-1.244,0.428-3.186,0.428-5.816c0-3.861-0.328-6.459-0.982-7.789
			c-0.652-1.328-1.637-1.993-2.945-1.993c-1.339,0-2.304,0.679-2.897,2.034C492.175,832.338,491.875,834.848,491.875,838.513z"/>
		<path fill="#2C8EC7" d="M508.933,838.491c0-5.529,0.996-9.397,2.986-11.608c1.991-2.209,5.024-3.313,9.1-3.313
			c1.957,0,3.564,0.241,4.821,0.726c1.257,0.481,2.282,1.109,3.075,1.886c0.795,0.771,1.42,1.588,1.875,2.439
			c0.457,0.854,0.825,1.852,1.104,2.985c0.543,2.17,0.813,4.432,0.813,6.787c0,5.278-0.896,9.142-2.68,11.59
			c-1.784,2.446-4.861,3.672-9.229,3.672c-2.445,0-4.425-0.392-5.934-1.172s-2.746-1.925-3.711-3.434
			c-0.702-1.07-1.247-2.536-1.636-4.396C509.13,842.797,508.933,840.74,508.933,838.491z M516.951,838.513
			c0,3.703,0.328,6.232,0.982,7.59s1.604,2.036,2.848,2.036c0.822,0,1.529-0.287,2.134-0.864c0.604-0.575,1.044-1.481,1.33-2.728
			c0.284-1.244,0.426-3.186,0.426-5.816c0-3.861-0.326-6.459-0.98-7.789c-0.654-1.328-1.637-1.993-2.948-1.993
			c-1.336,0-2.3,0.679-2.896,2.034C517.25,832.338,516.951,834.848,516.951,838.513z"/>
	</g>
</g>
<g>
	<g>
		<g>
			<rect x="413.974" y="676.786" fill="#FF8521" width="144.156" height="64.777"/>
		</g>
		<g>
			<path fill="#FFE570" d="M540.445,737.427H430.335c0.045-0.335,0.07-0.681,0.07-1.021c0-5.215-5.195-9.438-11.599-9.438v-36.655
				c0.407,0.035,0.83,0.056,1.25,0.056c6.406,0,11.598-4.229,11.598-9.438h110.109c-0.045,0.336-0.07,0.678-0.07,1.019
				c0,5.216,5.195,9.439,11.599,9.439v36.657c-0.408-0.036-0.83-0.058-1.253-0.058C545.636,727.987,540.445,732.215,540.445,737.427
				z"/>
		</g>
	</g>
	<g>
		<path fill="#FF8521" d="M451.652,694.632h19.189v6.446h-12.998l-0.697,4.366c0.9-0.423,1.791-0.742,2.67-0.953
			c0.88-0.211,1.75-0.315,2.609-0.315c2.909,0,5.271,0.88,7.084,2.641c1.813,1.76,2.719,3.978,2.719,6.646
			c0,1.879-0.467,3.686-1.398,5.417c-0.934,1.733-2.256,3.058-3.969,3.97c-1.713,0.913-3.906,1.369-6.579,1.369
			c-1.918,0-3.562-0.184-4.931-0.545c-1.371-0.364-2.533-0.907-3.494-1.628c-0.957-0.724-1.734-1.538-2.332-2.451
			c-0.596-0.912-1.09-2.051-1.486-3.413l8.177-0.895c0.198,1.312,0.661,2.306,1.389,2.985c0.728,0.683,1.595,1.022,2.601,1.022
			c1.123,0,2.055-0.429,2.787-1.28c0.735-0.854,1.102-2.126,1.102-3.818c0-1.732-0.369-3.004-1.111-3.811
			c-0.74-0.809-1.726-1.211-2.957-1.211c-0.777,0-1.532,0.189-2.26,0.573c-0.543,0.277-1.14,0.782-1.785,1.512l-6.889-0.993
			L451.652,694.632z"/>
		<path fill="#FF8521" d="M474.267,709.058c0-5.529,0.996-9.4,2.987-11.609c1.99-2.209,5.023-3.313,9.097-3.313
			c1.961,0,3.566,0.239,4.826,0.724c1.254,0.482,2.279,1.111,3.075,1.884c0.792,0.775,1.417,1.591,1.875,2.442
			c0.454,0.853,0.822,1.849,1.101,2.985c0.543,2.172,0.813,4.434,0.813,6.785c0,5.279-0.896,9.144-2.679,11.592
			c-1.786,2.446-4.862,3.671-9.229,3.671c-2.447,0-4.427-0.393-5.934-1.17c-1.509-0.781-2.746-1.927-3.71-3.435
			c-0.704-1.07-1.248-2.538-1.639-4.396C474.463,713.362,474.267,711.308,474.267,709.058z M482.285,709.076
			c0,3.703,0.328,6.234,0.982,7.592c0.655,1.354,1.604,2.031,2.848,2.031c0.82,0,1.531-0.286,2.133-0.86
			c0.603-0.575,1.045-1.486,1.33-2.729s0.427-3.182,0.427-5.813c0-3.863-0.326-6.46-0.982-7.789
			c-0.652-1.33-1.635-1.995-2.946-1.995c-1.337,0-2.302,0.679-2.896,2.034C482.583,702.901,482.285,705.412,482.285,709.076z"/>
		<path fill="#FF8521" d="M500.291,709.058c0-5.529,0.993-9.4,2.984-11.609c1.992-2.209,5.023-3.313,9.1-3.313
			c1.959,0,3.564,0.239,4.822,0.724c1.258,0.482,2.283,1.111,3.076,1.884c0.793,0.775,1.42,1.591,1.875,2.442
			c0.457,0.853,0.822,1.849,1.104,2.985c0.538,2.172,0.813,4.434,0.813,6.785c0,5.279-0.895,9.144-2.68,11.592
			c-1.785,2.446-4.861,3.671-9.229,3.671c-2.446,0-4.427-0.393-5.935-1.17c-1.508-0.781-2.744-1.927-3.711-3.435
			c-0.701-1.07-1.246-2.538-1.639-4.396C500.482,713.362,500.291,711.308,500.291,709.058z M508.304,709.076
			c0,3.703,0.33,6.234,0.981,7.592c0.654,1.354,1.604,2.031,2.851,2.031c0.818,0,1.529-0.286,2.133-0.86
			c0.603-0.575,1.045-1.486,1.33-2.729c0.283-1.243,0.426-3.182,0.426-5.813c0-3.863-0.327-6.46-0.98-7.789
			c-0.655-1.33-1.639-1.995-2.946-1.995c-1.338,0-2.303,0.679-2.896,2.034C508.603,702.901,508.304,705.412,508.304,709.076z"/>
	</g>
</g>
<g>
	<g>
		<g>
			<rect x="413.974" y="547.353" fill="#FF7074" width="144.156" height="64.777"/>
		</g>
		<g>
			<path fill="#FFB0B0" d="M540.445,607.99H430.335c0.045-0.336,0.07-0.679,0.07-1.021c0-5.215-5.195-9.44-11.599-9.44v-36.651
				c0.409,0.032,0.832,0.056,1.252,0.056c6.406,0,11.597-4.229,11.597-9.441h110.11c-0.045,0.336-0.071,0.681-0.071,1.021
				c0,5.215,5.196,9.438,11.602,9.438v36.655c-0.412-0.034-0.83-0.055-1.253-0.055C545.636,598.55,540.445,602.78,540.445,607.99z"
				/>
		</g>
	</g>
	<g>
		<path fill="#FF7074" d="M467.72,564.698v29.588h-8.178v-19.389c-1.322,1.007-2.603,1.82-3.839,2.441
			c-1.235,0.622-2.788,1.218-4.651,1.783v-6.629c2.752-0.886,4.887-1.948,6.409-3.192c1.521-1.243,2.71-2.778,3.57-4.604
			L467.72,564.698L467.72,564.698z"/>
		<path fill="#FF7074" d="M471.506,579.62c0-5.528,0.996-9.397,2.987-11.608c1.989-2.209,5.024-3.313,9.1-3.313
			c1.959,0,3.564,0.24,4.82,0.726c1.258,0.481,2.282,1.11,3.075,1.887c0.795,0.773,1.42,1.587,1.875,2.439
			c0.457,0.854,0.824,1.851,1.103,2.985c0.545,2.17,0.813,4.434,0.813,6.786c0,5.277-0.895,9.145-2.68,11.591
			s-4.861,3.67-9.229,3.67c-2.446,0-4.424-0.39-5.934-1.171c-1.508-0.781-2.746-1.926-3.711-3.433
			c-0.701-1.07-1.248-2.536-1.637-4.396C471.704,583.925,471.506,581.869,471.506,579.62z M479.523,579.641
			c0,3.704,0.33,6.234,0.982,7.59c0.654,1.357,1.604,2.036,2.85,2.036c0.82,0,1.529-0.287,2.133-0.864
			c0.603-0.575,1.043-1.481,1.328-2.729c0.285-1.243,0.428-3.184,0.428-5.813c0-3.864-0.328-6.46-0.981-7.791
			c-0.656-1.328-1.638-1.994-2.947-1.994c-1.336,0-2.301,0.681-2.896,2.035C479.822,573.467,479.523,575.977,479.523,579.641z"/>
		<path fill="#FF7074" d="M497.279,579.62c0-5.528,0.994-9.397,2.986-11.608c1.991-2.209,5.021-3.313,9.1-3.313
			c1.957,0,3.564,0.24,4.82,0.726c1.259,0.481,2.283,1.11,3.076,1.887c0.795,0.773,1.42,1.587,1.875,2.439
			c0.457,0.854,0.824,1.851,1.104,2.985c0.541,2.17,0.813,4.434,0.813,6.786c0,5.277-0.896,9.145-2.682,11.591
			c-1.783,2.446-4.859,3.67-9.228,3.67c-2.446,0-4.424-0.39-5.934-1.171c-1.508-0.781-2.746-1.926-3.712-3.433
			c-0.7-1.07-1.247-2.536-1.636-4.396C497.474,583.925,497.279,581.869,497.279,579.62z M505.294,579.641
			c0,3.704,0.327,6.234,0.979,7.59c0.656,1.357,1.605,2.036,2.851,2.036c0.82,0,1.529-0.287,2.135-0.864
			c0.602-0.575,1.043-1.481,1.328-2.729c0.283-1.243,0.428-3.184,0.428-5.813c0-3.864-0.33-6.46-0.981-7.791
			c-0.655-1.328-1.638-1.994-2.946-1.994c-1.338,0-2.303,0.681-2.896,2.035C505.593,573.467,505.294,575.977,505.294,579.641z"/>
	</g>
</g>
<g>
	<g>
		<g>
			<circle fill="#FFDB03" cx="486.05" cy="450.159" r="41.15"/>
			<circle fill="#F5B400" cx="486.052" cy="450.157" r="32.173"/>
			<path fill="#EA9C00" d="M455.558,451.187c0-17.203,13.944-31.145,31.146-31.145c17.202,0,31.146,13.939,31.146,31.145
				c0,4.679-1.037,9.112-2.887,13.091c2.088-4.264,3.264-9.051,3.264-14.12c0-17.767-14.406-32.171-32.176-32.171
				c-17.769,0-32.172,14.404-32.172,32.171c0,17.771,14.404,32.175,32.172,32.175c0.109,0,0.219-0.007,0.325-0.009
				C469.327,482.148,455.558,468.279,455.558,451.187z"/>
		</g>
	</g>
	<g>
		<path fill="#EA9C00" d="M466.193,436.948h17.996v6.063H472l-0.651,4.104c0.844-0.396,1.68-0.693,2.504-0.896
			c0.826-0.199,1.642-0.299,2.447-0.299c2.729,0,4.944,0.826,6.645,2.482c1.699,1.653,2.55,3.736,2.55,6.249
			c0,1.769-0.437,3.465-1.312,5.093c-0.875,1.634-2.115,2.874-3.724,3.732c-1.608,0.856-3.664,1.286-6.171,1.286
			c-1.798,0-3.341-0.17-4.625-0.513c-1.282-0.345-2.375-0.854-3.273-1.528c-0.899-0.681-1.629-1.447-2.188-2.309
			c-0.557-0.854-1.022-1.927-1.395-3.206l7.666-0.843c0.188,1.232,0.623,2.169,1.303,2.81c0.682,0.643,1.496,0.962,2.438,0.962
			c1.056,0,1.927-0.401,2.614-1.203c0.688-0.802,1.032-2,1.032-3.591c0-1.632-0.348-2.824-1.043-3.582
			c-0.696-0.758-1.618-1.142-2.772-1.142c-0.73,0-1.438,0.184-2.121,0.542c-0.51,0.262-1.066,0.734-1.675,1.417l-6.459-0.933
			L466.193,436.948z"/>
		<path fill="#EA9C00" d="M488.47,450.514c0-5.198,0.933-8.839,2.799-10.915c1.867-2.078,4.713-3.115,8.533-3.115
			c1.836,0,3.346,0.229,4.522,0.68c1.179,0.454,2.141,1.048,2.886,1.772c0.741,0.727,1.328,1.492,1.758,2.294
			c0.43,0.803,0.771,1.739,1.034,2.809c0.509,2.041,0.763,4.168,0.763,6.384c0,4.963-0.838,8.595-2.514,10.896
			c-1.678,2.301-4.562,3.452-8.652,3.452c-2.295,0-4.151-0.367-5.565-1.101c-1.414-0.734-2.575-1.813-3.479-3.229
			c-0.658-1.009-1.17-2.387-1.535-4.133C488.652,454.561,488.47,452.629,488.47,450.514z M495.987,450.531
			c0,3.481,0.306,5.86,0.92,7.139c0.616,1.272,1.506,1.909,2.672,1.909c0.771,0,1.438-0.271,2.001-0.811
			c0.563-0.541,0.98-1.396,1.248-2.567c0.267-1.167,0.398-2.988,0.398-5.465c0-3.632-0.309-6.074-0.922-7.323
			c-0.613-1.251-1.535-1.872-2.764-1.872c-1.256,0-2.159,0.637-2.718,1.908C496.267,444.726,495.987,447.088,495.987,450.531z"/>
	</g>
	<g>
		<g>
			<path fill="#FFDB03" d="M466.088,436.934h17.445v5.864h-11.815l-0.632,3.97c0.817-0.385,1.626-0.675,2.427-0.866
				s1.59-0.289,2.373-0.289c2.646,0,4.793,0.799,6.44,2.4c1.648,1.601,2.474,3.614,2.474,6.043c0,1.708-0.424,3.351-1.272,4.926
				c-0.847,1.576-2.05,2.78-3.607,3.608c-1.56,0.831-3.552,1.245-5.982,1.245c-1.744,0-3.238-0.165-4.482-0.495
				c-1.245-0.331-2.303-0.825-3.175-1.48c-0.871-0.655-1.578-1.396-2.121-2.228c-0.54-0.829-0.989-1.864-1.353-3.104l7.434-0.811
				c0.182,1.189,0.603,2.096,1.264,2.715s1.448,0.93,2.362,0.93c1.021,0,1.866-0.389,2.534-1.163c0.666-0.774,1-1.934,1-3.473
				c0-1.576-0.336-2.73-1.01-3.465c-0.676-0.733-1.569-1.104-2.689-1.104c-0.708,0-1.395,0.178-2.055,0.524
				c-0.493,0.253-1.037,0.711-1.625,1.372l-6.26-0.9L466.088,436.934z"/>
			<path fill="#FFDB03" d="M487.683,450.049c0-5.026,0.904-8.545,2.717-10.556c1.811-2.008,4.566-3.012,8.271-3.012
				c1.779,0,3.24,0.219,4.385,0.658c1.144,0.438,2.075,1.009,2.799,1.712c0.721,0.704,1.289,1.444,1.705,2.22
				c0.414,0.776,0.748,1.684,1,2.716c0.494,1.975,0.74,4.031,0.74,6.172c0,4.801-0.813,8.312-2.438,10.535
				c-1.625,2.228-4.419,3.34-8.39,3.34c-2.227,0-4.024-0.354-5.396-1.063c-1.371-0.71-2.496-1.75-3.373-3.122
				c-0.639-0.975-1.134-2.307-1.487-3.996C487.859,453.963,487.683,452.096,487.683,450.049z M494.972,450.069
				c0,3.367,0.297,5.668,0.894,6.9c0.596,1.231,1.459,1.849,2.59,1.849c0.744,0,1.393-0.261,1.938-0.783
				c0.549-0.521,0.951-1.351,1.209-2.479c0.26-1.129,0.387-2.895,0.387-5.285c0-3.513-0.297-5.874-0.893-7.082
				c-0.594-1.209-1.488-1.813-2.68-1.813c-1.217,0-2.095,0.616-2.636,1.851C495.244,444.452,494.972,446.737,494.972,450.069z"/>
		</g>
	</g>
</g>
<g>
	<g>
		<g>
			<circle fill="#BFBFBF" cx="486.05" cy="320.722" r="40.646"/>
			<circle fill="#8C8C8C" cx="486.05" cy="320.722" r="31.778"/>
			<path fill="#767B81" d="M455.933,321.739c0-16.991,13.771-30.765,30.763-30.765c16.989,0,30.765,13.772,30.765,30.765
				c0,4.621-1.026,9-2.854,12.937c2.063-4.212,3.222-8.944,3.222-13.95c0-17.55-14.228-31.778-31.777-31.778
				s-31.775,14.229-31.775,31.778c0,17.551,14.229,31.779,31.775,31.779c0.108,0,0.215-0.01,0.323-0.01
				C469.533,352.321,455.933,338.618,455.933,321.739z"/>
		</g>
	</g>
	<g>
		<g>
			<path fill="#767B81" d="M480.785,305.682v31.024h-8.496v-20.329c-1.373,1.053-2.703,1.905-3.987,2.561
				c-1.285,0.65-2.897,1.274-4.835,1.872v-6.952c2.858-0.93,5.079-2.047,6.66-3.351c1.579-1.305,2.816-2.914,3.71-4.826
				L480.785,305.682L480.785,305.682z"/>
			<path fill="#767B81" d="M485.698,321.33c0-5.799,1.034-9.854,3.104-12.173c2.067-2.317,5.221-3.476,9.453-3.476
				c2.032,0,3.704,0.253,5.01,0.759c1.308,0.504,2.371,1.164,3.194,1.975c0.826,0.813,1.476,1.669,1.949,2.562
				c0.476,0.895,0.857,1.938,1.144,3.133c0.565,2.276,0.848,4.649,0.848,7.116c0,5.538-0.93,9.59-2.782,12.156
				c-1.854,2.567-5.052,3.851-9.59,3.851c-2.544,0-4.599-0.41-6.164-1.228c-1.563-0.819-2.853-2.021-3.854-3.603
				c-0.732-1.123-1.298-2.661-1.701-4.609C485.9,325.846,485.698,323.692,485.698,321.33z M494.027,321.353
				c0,3.883,0.342,6.538,1.021,7.959c0.682,1.421,1.668,2.133,2.959,2.133c0.854,0,1.592-0.3,2.219-0.9
				c0.623-0.605,1.086-1.562,1.381-2.864s0.441-3.337,0.441-6.099c0-4.052-0.341-6.772-1.021-8.168
				c-0.678-1.396-1.698-2.092-3.063-2.092c-1.388,0-2.392,0.712-3.009,2.134C494.335,314.876,494.027,317.511,494.027,321.353z"/>
		</g>
	</g>
	<g>
		<g>
			<path fill="#BFBFBF" d="M480.134,305.682v29.587h-8.176v-19.388c-1.322,1.004-2.604,1.814-3.841,2.438
				c-1.236,0.621-2.788,1.216-4.651,1.786v-6.628c2.752-0.886,4.889-1.951,6.41-3.194c1.52-1.244,2.711-2.776,3.57-4.604
				L480.134,305.682L480.134,305.682z"/>
			<path fill="#BFBFBF" d="M484.863,320.604c0-5.529,0.994-9.401,2.986-11.609c1.992-2.209,5.025-3.313,9.101-3.313
				c1.957,0,3.563,0.239,4.821,0.724c1.259,0.481,2.281,1.111,3.076,1.883c0.793,0.774,1.418,1.59,1.873,2.44
				c0.459,0.855,0.826,1.851,1.103,2.988c0.543,2.171,0.815,4.434,0.815,6.787c0,5.278-0.896,9.141-2.683,11.589
				c-1.784,2.446-4.86,3.672-9.227,3.672c-2.449,0-4.428-0.393-5.935-1.169c-1.51-0.782-2.745-1.927-3.711-3.437
				c-0.702-1.07-1.248-2.537-1.637-4.395C485.058,324.906,484.863,322.854,484.863,320.604z M492.878,320.622
				c0,3.704,0.327,6.235,0.981,7.592c0.654,1.355,1.604,2.032,2.846,2.032c0.822,0,1.531-0.285,2.138-0.859
				c0.603-0.577,1.043-1.487,1.328-2.731c0.284-1.244,0.426-3.18,0.426-5.813c0-3.864-0.326-6.459-0.979-7.791
				c-0.655-1.33-1.64-1.994-2.948-1.994c-1.334,0-2.3,0.679-2.896,2.034C493.177,314.448,492.878,316.96,492.878,320.622z"/>
		</g>
	</g>
</g>
<g>
	<g>
		<g>
			<circle fill="#BFBFBF" cx="486.05" cy="191.286" r="34.15"/>
			<circle fill="#8C8C8C" cx="486.05" cy="191.286" r="26.7"/>
			<path fill="#767B81" d="M460.747,192.142c0-14.277,11.572-25.848,25.848-25.848c14.274,0,25.846,11.569,25.846,25.848
				c0,3.881-0.86,7.561-2.395,10.863c1.729-3.539,2.707-7.514,2.707-11.719c0-14.744-11.955-26.7-26.701-26.7
				c-14.744,0-26.699,11.955-26.699,26.7c0,14.746,11.953,26.699,26.699,26.699c0.092,0,0.18-0.007,0.271-0.007
				C472.172,217.835,460.747,206.323,460.747,192.142z"/>
		</g>
	</g>
	<g>
		<g>
			<g>
				<path fill="#767B81" d="M476.462,175.722h20.188v6.785h-13.674l-0.729,4.594c0.946-0.447,1.884-0.78,2.809-1.002
					c0.926-0.222,1.842-0.335,2.746-0.335c3.062,0,5.545,0.926,7.452,2.779c1.907,1.851,2.86,4.182,2.86,6.992
					c0,1.976-0.489,3.877-1.474,5.7c-0.979,1.823-2.371,3.216-4.176,4.177c-1.804,0.96-4.109,1.438-6.922,1.438
					c-2.019,0-3.745-0.19-5.188-0.575c-1.438-0.382-2.664-0.951-3.674-1.712c-1.009-0.758-1.826-1.617-2.453-2.579
					c-0.627-0.96-1.146-2.155-1.564-3.59l8.604-0.938c0.207,1.376,0.694,2.425,1.461,3.14c0.765,0.717,1.677,1.076,2.734,1.076
					c1.182,0,2.161-0.45,2.934-1.347c0.772-0.897,1.158-2.236,1.158-4.021c0-1.823-0.391-3.159-1.168-4.008
					c-0.781-0.848-1.818-1.273-3.111-1.273c-0.821,0-1.614,0.202-2.379,0.606c-0.569,0.292-1.197,0.821-1.879,1.586l-7.246-1.044
					L476.462,175.722z"/>
			</g>
		</g>
		<g>
			<g>
				<path fill="#BFBFBF" d="M476.275,175.722h19.188v6.45h-12.996l-0.695,4.366c0.898-0.425,1.789-0.742,2.668-0.953
					c0.881-0.211,1.75-0.317,2.609-0.317c2.911,0,5.271,0.88,7.086,2.643c1.813,1.759,2.717,3.976,2.717,6.646
					c0,1.879-0.463,3.687-1.398,5.417c-0.932,1.734-2.254,3.058-3.969,3.969c-1.713,0.914-3.907,1.37-6.579,1.37
					c-1.918,0-3.563-0.183-4.933-0.545c-1.369-0.365-2.533-0.907-3.492-1.628s-1.737-1.537-2.332-2.45
					c-0.594-0.912-1.09-2.051-1.487-3.413l8.177-0.894c0.198,1.311,0.661,2.305,1.39,2.987c0.727,0.681,1.594,1.021,2.599,1.021
					c1.124,0,2.055-0.427,2.788-1.28c0.734-0.853,1.104-2.126,1.104-3.817c0-1.735-0.373-3.003-1.113-3.813
					c-0.742-0.807-1.727-1.211-2.957-1.211c-0.78,0-1.534,0.192-2.262,0.575c-0.541,0.277-1.138,0.782-1.785,1.51l-6.888-0.993
					L476.275,175.722z"/>
			</g>
		</g>
	</g>
</g>
<g>
	<g>
		<g>
			<circle fill="#FF9933" cx="490.75" cy="61.608" r="33.041"/>
			<circle fill="#E07117" cx="490.75" cy="61.608" r="25.833"/>
			<path fill="#CC6633" d="M466.269,62.432c0-13.81,11.194-25.008,25.006-25.008s25.01,11.198,25.01,25.008
				c0,3.757-0.836,7.318-2.317,10.511c1.676-3.421,2.617-7.269,2.617-11.335c0-14.266-11.566-25.831-25.833-25.831
				c-14.268,0-25.832,11.565-25.832,25.831c0,14.27,11.564,25.833,25.832,25.833c0.087,0,0.175-0.005,0.263-0.007
				C477.323,87.293,466.269,76.156,466.269,62.432z"/>
		</g>
	</g>
	<g>
		<g>
			<g>
				<path fill="#CC6633" d="M496.769,44.606V78.46h-9.354V56.278c-1.516,1.15-2.979,2.082-4.395,2.793s-3.191,1.395-5.325,2.043
					v-7.583c3.149-1.015,5.593-2.231,7.334-3.654c1.739-1.422,3.104-3.181,4.085-5.269h7.652v-0.002H496.769z"/>
			</g>
		</g>
		<g>
			<g>
				<path fill="#FFA142" d="M495.75,44.606v32.045h-8.854V55.653c-1.434,1.091-2.819,1.972-4.159,2.645
					c-1.341,0.674-3.021,1.317-5.04,1.935v-7.179c2.98-0.959,5.295-2.113,6.941-3.46c1.646-1.346,2.937-3.008,3.868-4.985
					L495.75,44.606L495.75,44.606z"/>
			</g>
		</g>
	</g>
</g>
<g id="選單_1_">
</g>
</svg>
