<?xml version="1.0" encoding="utf-8"?>
<!-- Generator: Adobe Illustrator 16.0.3, SVG Export Plug-In . SVG Version: 6.00 Build 0)  -->
<!DOCTYPE svg PUBLIC "-//W3C//DTD SVG 1.1//EN" "http://www.w3.org/Graphics/SVG/1.1/DTD/svg11.dtd">
<svg version="1.1" xmlns="http://www.w3.org/2000/svg" xmlns:xlink="http://www.w3.org/1999/xlink" x="0px" y="0px"
	 width="673.118px" height="455.725px" viewBox="0 0 673.118 455.725" enable-background="new 0 0 673.118 455.725"
	 xml:space="preserve">
<g id="BG">
	<g>
		<path opacity="0.8" fill="#3E3A39" d="M673.118,444.782c0,6.045-3.383,10.941-7.557,10.941H7.557
			c-4.173,0-7.557-4.896-7.557-10.939V10.94C0,4.899,3.384,0.001,7.557,0.001h658.004c4.174,0,7.557,4.896,7.557,10.939V444.782z"/>
		<path fill="#595757" d="M671.305,441.614c0,5.975-3.368,10.82-7.523,10.82H8.723c-4.155,0-7.522-4.846-7.522-10.82V12.565
			c0-5.975,3.367-10.82,7.522-10.82h655.059c4.155,0,7.523,4.846,7.523,10.82V441.614z"/>
		<path fill="#B5B5B6" d="M665.748,435.937c0,5.854-3.3,10.6-7.37,10.6H14.127c-4.071,0-7.371-4.744-7.371-10.6v-419
			c0-5.855,3.299-10.602,7.371-10.602h644.251c4.07,0,7.37,4.746,7.37,10.602V435.937z"/>
		<path fill="#FFFFFF" d="M660.667,430.946c0,5.787-3.262,10.479-7.286,10.479H19.124c-4.024,0-7.287-4.691-7.287-10.479V23.233
			c0-5.787,3.262-10.477,7.287-10.477l634.257-0.002c4.024,0,7.286,4.691,7.286,10.479V430.946z"/>
	</g>
</g>
<g id="_x24_">
</g>
<g id="UI">
</g>
<g id="選單">
</g>
<g id="圖層_5">
</g>
<g id="圖層_6">
</g>
</svg>
