<?xml version="1.0" encoding="utf-8"?>
<!-- Generator: Adobe Illustrator 16.0.3, SVG Export Plug-In . SVG Version: 6.00 Build 0)  -->
<!DOCTYPE svg PUBLIC "-//W3C//DTD SVG 1.1//EN" "http://www.w3.org/Graphics/SVG/1.1/DTD/svg11.dtd">
<svg version="1.1" xmlns="http://www.w3.org/2000/svg" xmlns:xlink="http://www.w3.org/1999/xlink" x="0px" y="0px"
	 width="351.508px" height="64.591px" viewBox="0 0 351.508 64.591" enable-background="new 0 0 351.508 64.591"
	 xml:space="preserve">
<g id="BG">
</g>
<g id="UI">
	<g>
		<g>
			<g opacity="0.2">
				<path fill="#231815" d="M351.504,36.286c0,15.632-9.87,28.305-22.048,28.305H22.044c-12.175,0-22.048-12.673-22.048-28.305
					v-7.981C-0.003,12.673,9.87,0,22.044,0h307.412c12.178,0,22.048,12.673,22.048,28.305V36.286z"/>
			</g>
			<g>
				<path fill="#FFFFFF" d="M348.838,35.179c0,14.56-9.758,26.363-21.796,26.363H22.792c-12.036,0-21.796-11.803-21.796-26.363
					v-7.434c0-14.559,9.76-26.362,21.796-26.362h304.25c12.038,0,21.796,11.803,21.796,26.362V35.179z"/>
			</g>
			<g>
				<path fill="#9FA0A0" d="M342.84,34.823c0,13.258-8.96,23.052-20.013,23.052H27.007c-11.051,0-20.013-9.794-20.013-23.052v-6.769
					c0-13.257,8.962-24.005,20.013-24.005h295.82c11.053,0,20.013,10.748,20.013,24.005V34.823z"/>
			</g>
			<g>
				<linearGradient id="SVGID_1_" gradientUnits="userSpaceOnUse" x1="174.9175" y1="55.542" x2="174.9175" y2="6.3828">
					<stop  offset="0" style="stop-color:#86C166"/>
					<stop  offset="0.0068" style="stop-color:#80BF62"/>
					<stop  offset="0.0493" style="stop-color:#5FB24E"/>
					<stop  offset="0.0931" style="stop-color:#45A83F"/>
					<stop  offset="0.138" style="stop-color:#33A234"/>
					<stop  offset="0.1848" style="stop-color:#289D2D"/>
					<stop  offset="0.2366" style="stop-color:#249C2B"/>
					<stop  offset="0.2909" style="stop-color:#38A437"/>
					<stop  offset="0.3829" style="stop-color:#55AE48"/>
					<stop  offset="0.482" style="stop-color:#6AB755"/>
					<stop  offset="0.5904" style="stop-color:#7ABC5F"/>
					<stop  offset="0.715" style="stop-color:#83C064"/>
					<stop  offset="0.8925" style="stop-color:#86C166"/>
					<stop  offset="1" style="stop-color:#BEE0A2"/>
				</linearGradient>
				<path fill="url(#SVGID_1_)" d="M338.582,34.488c0,12.108-8.184,21.054-18.277,21.054H29.531
					c-10.092,0-18.277-8.945-18.277-21.054v-6.182c0-12.107,8.186-21.923,18.277-21.923h290.773
					c10.094,0,18.277,9.816,18.277,21.923V34.488z"/>
			</g>
			<g opacity="0.45">
				<linearGradient id="SVGID_2_" gradientUnits="userSpaceOnUse" x1="174.9175" y1="50.542" x2="174.9175" y2="9.3828">
					<stop  offset="0" style="stop-color:#FFFFFF;stop-opacity:0.03"/>
					<stop  offset="0.957" style="stop-color:#FFFFFF;stop-opacity:0.6"/>
				</linearGradient>
				<path fill="url(#SVGID_2_)" d="M326.388,32.915c0,10.138-7.512,17.627-16.778,17.627H40.225c-9.264,0-16.778-7.49-16.778-17.627
					v-5.176c0-10.137,7.515-18.355,16.778-18.355H309.61c9.267,0,16.778,8.219,16.778,18.355V32.915z"/>
			</g>
		</g>
		<g>
			<path fill="#F7F8F8" d="M149.45,30.276c-1.064,0.641-2.105,1.167-3.124,1.58v10.662c0,0.561-0.166,1.073-0.498,1.536
				c-0.332,0.464-0.724,0.775-1.176,0.936c-0.452,0.16-1.285,0.24-2.498,0.24c-0.504,0-0.968-0.017-1.391-0.052l-1.013-3.021
				c0.469,0.023,1.441,0.034,2.918,0.034c0.16,0,0.312-0.074,0.455-0.223c0.143-0.148,0.215-0.309,0.215-0.48v-8.189
				c-1.408,0.549-2.489,0.961-3.245,1.236l-1.013-2.918c1.259-0.469,2.678-1.024,4.258-1.666v-6.713h-3.915v-3.056h3.915V14.55
				h2.987v5.631h2.627v3.056h-2.627v5.288c1.053-0.481,1.939-0.927,2.661-1.339L149.45,30.276z M170.189,36.783h-9.202
				c-0.526,1.969-1.677,3.731-3.45,5.288c-1.774,1.557-3.841,2.678-6.198,3.365l-1.819-2.61c4.349-1.133,7.113-3.147,8.292-6.043
				h-8.018v-2.815h1.769v-8.996c-0.218,0.24-0.521,0.486-0.91,0.738l-1.408-2.747c3.399-2.941,5.752-5.814,7.057-8.619l3.09,0.772
				c-0.298,0.664-0.555,1.156-0.772,1.477h7.777v2.747c-0.515,0.778-1.253,1.694-2.215,2.747h4.292v11.88h1.717V36.783z
				 M162.567,19.34h-5.734c-0.813,1.007-1.586,1.923-2.317,2.747h5.768C161.222,21.137,161.983,20.222,162.567,19.34z
				 M165.52,33.968v-9.031h-3.948c-0.194,0.904-0.344,1.534-0.446,1.889c1.522,1.408,2.787,2.815,3.794,4.223l-2.181,1.906
				c-0.973-1.477-1.877-2.626-2.712-3.451c-0.79,1.454-1.854,2.626-3.193,3.52l-1.871-2.215c1.968-1.19,3.238-3.147,3.811-5.872
				h-4.223v9.031h3.896c0.058-0.561,0.104-1.087,0.138-1.58l3.107,0.068l-0.12,1.511H165.52z M170.361,43.496l-2.061,2.146
				c-1.625-1.66-4.114-3.525-7.468-5.597l1.975-2.18C165.771,39.604,168.29,41.481,170.361,43.496z"/>
			<path fill="#F7F8F8" d="M191.887,21.727l-2.008,2.181c-0.87-1.408-2.416-3.165-4.636-5.271c-1.316,1.717-2.479,3.079-3.485,4.086
				h6.971v2.799h-2.507v2.747h4.464v2.884h-4.464v8.962c1.247-0.275,2.833-0.744,4.756-1.408l0.137,2.884
				c-3.64,1.259-7.868,2.363-12.687,3.313l-0.464-2.781l5.339-1.167v-9.803h-4.566v-2.884h4.566v-2.747h-2.764v-1.648
				c-0.424,0.446-0.893,0.858-1.408,1.236l-1.339-2.747c2.907-2.438,5.076-5.087,6.507-7.949l2.85,0.927
				c-0.092,0.229-0.246,0.51-0.463,0.841C189.181,18.471,190.914,20.319,191.887,21.727z M182.564,39.599l-2.729,0.807
				c-0.184-2.106-0.641-4.487-1.373-7.142l2.626-0.875C181.764,34.471,182.256,36.875,182.564,39.599z M190.874,32.955
				c-0.32,2.118-0.767,3.92-1.339,5.408l-2.609-0.738c0.492-1.362,0.881-3.142,1.167-5.339L190.874,32.955z M208.163,31.547
				c-1.774,3.846-3.921,6.822-6.438,8.927c-2.519,2.106-5.889,3.783-10.112,5.03l-1.597-2.85c3.823-0.881,6.941-2.277,9.356-4.189
				s4.458-4.653,6.13-8.224L208.163,31.547z M197.519,19.1c-0.722,5.15-1.883,9.356-3.485,12.619l-2.489-1.511
				c1.487-3.41,2.518-7.382,3.09-11.915L197.519,19.1z M201.776,35.375H198.6V14.67h3.177V35.375z M208.97,28.302l-2.661,1.133
				c-0.676-3.079-1.883-6.432-3.623-10.061l2.593-1.202C207.27,22.271,208.5,25.647,208.97,28.302z"/>
		</g>
	</g>
</g>
<g id="_x24_">
</g>
<g id="選單">
</g>
</svg>
