<?xml version="1.0" encoding="utf-8"?>
<!-- Generator: Adobe Illustrator 16.0.3, SVG Export Plug-In . SVG Version: 6.00 Build 0)  -->
<!DOCTYPE svg PUBLIC "-//W3C//DTD SVG 1.1//EN" "http://www.w3.org/Graphics/SVG/1.1/DTD/svg11.dtd">
<svg version="1.1" xmlns="http://www.w3.org/2000/svg" xmlns:xlink="http://www.w3.org/1999/xlink" x="0px" y="0px"
	 width="673.118px" height="455.724px" viewBox="0 0 673.118 455.724" enable-background="new 0 0 673.118 455.724"
	 xml:space="preserve">
<g id="BG">
</g>
<g id="UI">
</g>
<g id="_x24_">
</g>
<g id="選單">
</g>
<g id="window">
	<g>
		<g>
			<path opacity="0.8" fill="#3E3A39" d="M673.118,444.782c0,6.044-3.383,10.941-7.557,10.941H7.557
				c-4.173,0-7.557-4.897-7.557-10.94V10.94C0,4.898,3.384,0,7.557,0h658.004c4.174,0,7.557,4.897,7.557,10.94V444.782z"/>
			<path fill="#595757" d="M671.305,441.614c0,5.975-3.368,10.819-7.523,10.819H8.723c-4.155,0-7.522-4.845-7.522-10.819V12.565
				c0-5.975,3.367-10.82,7.522-10.82h655.059c4.155,0,7.523,4.845,7.523,10.82V441.614z"/>
			<path fill="#B5B5B6" d="M665.748,435.936c0,5.854-3.3,10.6-7.37,10.6H14.127c-4.071,0-7.371-4.744-7.371-10.6v-419
				c0-5.854,3.299-10.601,7.371-10.601h644.251c4.07,0,7.37,4.745,7.37,10.601V435.936z"/>
			<path fill="#FFFFFF" d="M660.667,430.945c0,5.787-3.262,10.479-7.286,10.479H19.124c-4.024,0-7.287-4.691-7.287-10.479V23.233
				c0-5.787,3.262-10.478,7.287-10.478l634.257-0.001c4.024,0,7.286,4.691,7.286,10.479V430.945z"/>
		</g>
		<g>
			<path opacity="0.2" fill="#231815" d="M645.439,55.193c0,14.325-11.612,25.937-25.936,25.937
				c-14.325,0-25.936-11.611-25.936-25.937c0-14.321,11.611-25.933,25.936-25.933C633.827,29.261,645.439,40.872,645.439,55.193z"/>
			<circle fill="#FFFFFF" cx="618.848" cy="54.541" r="24.598"/>
			<circle fill="#9FA0A0" cx="618.848" cy="54.541" r="23.223"/>
			<circle fill="#D32424" cx="618.848" cy="54.541" r="22.092"/>
			<linearGradient id="SVGID_1_" gradientUnits="userSpaceOnUse" x1="618.7612" y1="77.3506" x2="618.7612" y2="32.5391">
				<stop  offset="0.2151" style="stop-color:#FFFFFF;stop-opacity:0.03"/>
				<stop  offset="0.8482" style="stop-color:#FFFFFF;stop-opacity:0.5164"/>
				<stop  offset="0.957" style="stop-color:#FFFFFF;stop-opacity:0.6"/>
			</linearGradient>
			<circle opacity="0.6" fill="url(#SVGID_1_)" cx="618.761" cy="54.944" r="22.407"/>
			<g>
				<path fill="none" d="M608.979,48.247c-1.166-1.184-1.044-3.164,0.361-4.568c1.447-1.446,2.833-2.21,4.159-0.926l5.299,5.109
					l5.217-5.047c1.205-1.268,2.571-0.514,4.098,0.895c1.447,1.426,1.586,3.405,0.422,4.569l-5.095,5.069l5.909,5.857
					c1.205,1.286,1.085,3.346-0.361,4.812c-1.406,1.404-2.724,2.159-3.949,0.896l-6.206-6.044l-6.117,6.071
					c-1.206,1.306-2.541,0.572-4.006-0.832c-1.467-1.408-1.568-3.487-0.302-4.874l5.818-5.854L608.979,48.247z"/>
			</g>
			<g>
				<g>
					<path fill="#FFFFFF" d="M609.476,47.883c-1.108-1.125-0.992-2.355,0.342-3.692c1.374-1.374,2.69-1.449,3.95-0.229l5.036,5.238
						l4.95-5.18c1.145-1.203,2.441-1.134,3.892,0.202c1.373,1.353,1.507,2.584,0.4,3.688l-5.207,5.467l5.98,6.21
						c1.145,1.219,1.03,2.527-0.344,3.92c-1.335,1.332-2.586,1.4-3.75,0.201l-5.894-6.126l-5.808,6.153
						c-1.146,1.238-2.415,1.191-3.806-0.143c-1.394-1.338-1.488-2.662-0.286-3.979l5.894-6.21L609.476,47.883z"/>
				</g>
			</g>
		</g>
		<g>
			<path fill="#DCDDDD" d="M249.716,34.399c0.531,0,0.984,0.141,1.359,0.422c0.469,0.375,0.703,0.813,0.703,1.313
				c0,0.281-0.078,0.656-0.234,1.125c-0.625,3-1.375,5.734-2.25,8.203v31.172c0,1.125-0.563,1.688-1.688,1.688
				c-1.094,0-1.641-0.563-1.641-1.688V53.149c-0.719,1.313-1.469,2.563-2.25,3.75c-0.5,0.531-0.875,0.797-1.125,0.797
				c-1.282,0-1.922-0.5-1.922-1.5c0-0.406,0.125-0.797,0.375-1.172c1.563-2.469,2.937-5.234,4.125-8.297
				c1.281-3.188,2.359-6.906,3.234-11.156C248.56,34.79,248.997,34.399,249.716,34.399z M282.529,38.337c1,0,1.5,0.516,1.5,1.547
				c0,1.125-0.5,1.688-1.5,1.688h-13.172v4.688h8.859c2.219,0,3.328,1,3.328,3v8.063c0,2.094-1.109,3.141-3.328,3.141h-8.953
				c-0.313,4.469-1.188,7.859-2.625,10.172c1.688,0.719,3.64,1.297,5.859,1.734c1.625,0.406,5.093,0.703,10.406,0.891
				c1.094,0.063,1.656,0.672,1.688,1.828c-0.031,1.375-0.719,2.063-2.063,2.063c-1.625-0.063-3.672-0.25-6.141-0.563
				c-2.594-0.25-5.063-0.734-7.406-1.453c-1.719-0.469-3.266-1.031-4.641-1.688c-2.438,1.969-6.141,3.344-11.109,4.125
				c-1.25,0-1.875-0.625-1.875-1.875c0-0.906,0.453-1.469,1.359-1.688c3.406-0.625,6.063-1.531,7.969-2.719l-0.047-0.047
				c-2.5-1.75-4.578-3.969-6.234-6.656c-0.25-0.406-0.375-0.828-0.375-1.266c0-1.125,0.563-1.688,1.688-1.688
				c0.344,0,0.703,0.25,1.078,0.75c1.938,2.938,4.109,5.125,6.516,6.563c0.125-0.219,0.265-0.422,0.422-0.609
				c1.094-1.875,1.812-4.5,2.156-7.875h-8.719c-2.094,0-3.141-1.047-3.141-3.141v-8.063c0-2,1.047-3,3.141-3h8.859v-4.688h-12.188
				c-1,0-1.5-0.563-1.5-1.688c0-1.031,0.5-1.547,1.5-1.547h12.188v-2.766c0-1.125,0.563-1.688,1.688-1.688
				c1.094,0,1.641,0.563,1.641,1.688v2.766H282.529z M266.029,57.321c0-0.281,0-0.547,0-0.797v-7.078h-7.688
				c-0.532,0-0.797,0.297-0.797,0.891v5.859c0,0.75,0.265,1.125,0.797,1.125H266.029z M277.044,57.321
				c0.656,0,0.984-0.375,0.984-1.125v-5.859c0-0.594-0.328-0.891-0.984-0.891h-7.688v7.078c0,0.281,0,0.547,0,0.797H277.044z"/>
			<path fill="#DCDDDD" d="M309.409,36.134h20.25c2.375,0,3.563,1.125,3.563,3.375v33c0,3.5-1.766,5.25-5.297,5.25
				c-2.313,0-4.813-0.375-7.5-1.125c-1.094-0.281-1.641-0.922-1.641-1.922c0-1.25,0.546-1.875,1.641-1.875
				c3.188,0.781,5.688,1.172,7.5,1.172c1.156,0,1.734-0.875,1.734-2.625v-9h-14.25v12.938c0,1.094-0.625,1.641-1.875,1.641
				c-1.156,0-1.734-0.547-1.734-1.641V62.384h-13.453c-0.094,1.344-0.204,2.672-0.328,3.984c-0.25,2.063-0.656,4.203-1.219,6.422
				c-0.438,1.531-0.86,2.813-1.266,3.844c-0.438,0.875-1.016,1.313-1.734,1.313c-1.188-0.063-1.813-0.688-1.875-1.875
				c0-0.156,0.063-0.469,0.188-0.938c0.531-1.25,0.953-2.484,1.266-3.703c0.469-1.813,0.844-3.75,1.125-5.813
				c0.312-2.406,0.469-5.109,0.469-8.109v-18c0-2.25,1.109-3.375,3.328-3.375H309.409z M298.487,47.759h13.313v-8.438h-12
				c-0.875,0-1.313,0.547-1.313,1.641V47.759z M298.487,59.149h13.313v-8.25h-13.313v6.609
				C298.487,58.071,298.487,58.618,298.487,59.149z M315.409,39.321v8.438h14.25v-6.984c0-0.969-0.391-1.453-1.172-1.453H315.409z
				 M315.409,50.899v8.25h14.25v-8.25H315.409z"/>
			<path fill="#DCDDDD" d="M357.664,42.274c0.968,0,1.453,0.516,1.453,1.547c0,1.125-0.485,1.688-1.453,1.688h-13.313
				c-1.031,0-1.547-0.563-1.547-1.688c0-1.031,0.516-1.547,1.547-1.547H357.664z M356.351,48.649c1,0,1.5,0.516,1.5,1.547
				c0,1-0.5,1.5-1.5,1.5h-10.5c-1,0-1.5-0.5-1.5-1.5c0-1.031,0.5-1.547,1.5-1.547H356.351z M356.351,55.634c1,0,1.5,0.484,1.5,1.453
				c0,1-0.5,1.5-1.5,1.5h-10.5c-1,0-1.5-0.5-1.5-1.5c0-0.969,0.5-1.453,1.5-1.453H356.351z M347.117,62.009h7.875
				c2.031,0,3.047,0.922,3.047,2.766v9.422c0,1.844-1.016,2.766-3.047,2.766h-7.875c-1.844,0-2.766-0.922-2.766-2.766v-9.422
				C344.351,62.931,345.272,62.009,347.117,62.009z M355.976,35.759c1,0,1.5,0.5,1.5,1.5c0,0.969-0.5,1.453-1.5,1.453h-9.938
				c-1.031,0-1.547-0.484-1.547-1.453c0-1,0.516-1.5,1.547-1.5H355.976z M353.726,74.009c0.719,0,1.078-0.391,1.078-1.172v-6.703
				c0-0.781-0.359-1.172-1.078-1.172h-5.25c-0.625,0-0.938,0.391-0.938,1.172v6.703c0,0.781,0.312,1.172,0.938,1.172H353.726z
				 M373.601,60.321h-3.563c0,2.844-0.406,5.531-1.219,8.063c-1.188,3.188-3.344,6.047-6.469,8.578
				c-0.438,0.531-0.954,0.797-1.547,0.797c-1.375,0-2.063-0.688-2.063-2.063c0-0.125,0.125-0.5,0.375-1.125
				c3.094-2.188,5.219-4.688,6.375-7.5c0.75-2.094,1.141-4.344,1.172-6.75h-1.359c-2.094,0-3.141-1.078-3.141-3.234v-7.828
				c0-0.094,0-0.172,0-0.234c-0.313,0.344-0.641,0.672-0.984,0.984c-0.469,0.469-0.828,0.703-1.078,0.703
				c-1.25,0-1.875-0.484-1.875-1.453c0-0.438,0.109-0.813,0.328-1.125c1.313-1.25,2.453-2.641,3.422-4.172
				c1.062-1.594,1.938-3.469,2.625-5.625c0.156-0.719,0.593-1.078,1.313-1.078c0.469,0,0.875,0.141,1.219,0.422
				c0.438,0.344,0.656,0.75,0.656,1.219c0,0.281-0.063,0.609-0.188,0.984c-0.75,2.188-1.688,4.125-2.813,5.813
				c-0.157,0.219-0.297,0.422-0.422,0.609c0.281-0.031,0.593-0.047,0.938-0.047h12.797c0.281,0,0.531,0.016,0.75,0.047
				c-0.313-0.531-0.609-1.094-0.891-1.688c-0.781-1.563-1.422-3.328-1.922-5.297c-0.157-0.656-0.547-0.984-1.172-0.984h-5.203
				c-1,0-1.5-0.563-1.5-1.688c0-1,0.5-1.5,1.5-1.5h6c1.625,0,2.734,0.828,3.328,2.484c0.656,2.438,1.39,4.422,2.203,5.953
				c0.563,1.031,1.25,2.078,2.063,3.141c0.469,0.594,1.172,1.359,2.109,2.297c0.406,0.438,0.609,0.875,0.609,1.313
				c-0.063,0.969-0.625,1.484-1.688,1.547c-0.344,0-0.734-0.188-1.172-0.563c-0.719-0.656-1.344-1.266-1.875-1.828v7.594
				c0,2.156-1.047,3.234-3.141,3.234h-1.172v11.25c0,0.813,0.203,1.391,0.609,1.734c0.406,0.344,1.343,0.516,2.813,0.516
				c1.125,0,1.797-0.156,2.016-0.469c0.281-0.375,0.422-0.813,0.422-1.313v-3.141c0.031-1.188,0.593-1.813,1.688-1.875
				c1.062,0.063,1.625,0.828,1.688,2.297c0,3.25-0.141,5.141-0.422,5.672c-0.188,0.688-0.641,1.234-1.359,1.641
				c-0.688,0.344-2.032,0.516-4.031,0.516c-2.844,0-4.704-0.375-5.578-1.125c-0.781-0.719-1.172-2.016-1.172-3.891V60.321z
				 M376.929,57.087c0.656,0,0.984-0.359,0.984-1.078v-5.672c0-0.594-0.328-0.891-0.984-0.891h-10.453
				c-0.625,0-0.938,0.297-0.938,0.891v5.672c0,0.719,0.312,1.078,0.938,1.078H376.929z"/>
			<path fill="#DCDDDD" d="M397.622,37.259h8.625c2.125,0,3.188,1,3.188,3v26.25c0,2.125-1.063,3.188-3.188,3.188h-8.625
				c-2.094,0-3.141-1.063-3.141-3.188v-26.25C394.481,38.259,395.528,37.259,397.622,37.259z M397.81,51.087h8.25v-9.516
				c0-0.781-0.359-1.172-1.078-1.172h-6c-0.781,0-1.172,0.391-1.172,1.172V51.087z M404.981,66.509c0.719,0,1.078-0.453,1.078-1.359
				V54.321h-8.25v10.828c0,0.906,0.391,1.359,1.172,1.359H404.981z M416.747,62.384c-0.157,1.313-0.375,2.578-0.656,3.797
				c-0.625,3.594-1.516,6.953-2.672,10.078c-0.313,1-1.063,1.5-2.25,1.5c-1.25,0-1.875-0.563-1.875-1.688
				c0-0.063,0.109-0.406,0.328-1.031c1.343-3.406,2.297-6.703,2.859-9.891c0.844-3.781,1.266-7.969,1.266-12.563v-14.25
				c0-1.969,1.015-2.953,3.047-2.953h15.938c2,0,3,0.984,3,2.953v36.047c0,1.844-1.688,2.766-5.063,2.766
				c-2.125,0-4.188-0.297-6.188-0.891c-0.875-0.281-1.313-0.906-1.313-1.875c0-1.25,0.5-1.875,1.5-1.875l5.578,0.938
				c1.25,0,1.875-0.313,1.875-0.938V62.384H416.747z M417.356,50.009v2.578c0,2.313-0.094,4.5-0.281,6.563h15.047v-9.141H417.356z
				 M432.122,46.774v-6.516c0-1.156-0.359-1.734-1.078-1.734H418.06c-0.469,0-0.703,0.578-0.703,1.734v6.516H432.122z"/>
		</g>
		<g>
			<path fill="#231815" d="M247.05,33.065c0.531,0,0.984,0.141,1.359,0.422c0.469,0.375,0.703,0.813,0.703,1.313
				c0,0.281-0.078,0.656-0.234,1.125c-0.625,3-1.375,5.734-2.25,8.203V75.3c0,1.125-0.563,1.688-1.688,1.688
				c-1.094,0-1.641-0.563-1.641-1.688V51.815c-0.719,1.313-1.469,2.563-2.25,3.75c-0.5,0.531-0.875,0.797-1.125,0.797
				c-1.282,0-1.922-0.5-1.922-1.5c0-0.406,0.125-0.797,0.375-1.172c1.563-2.469,2.937-5.234,4.125-8.297
				c1.281-3.188,2.359-6.906,3.234-11.156C245.894,33.456,246.331,33.065,247.05,33.065z M279.862,37.003c1,0,1.5,0.516,1.5,1.547
				c0,1.125-0.5,1.688-1.5,1.688H266.69v4.688h8.859c2.219,0,3.328,1,3.328,3v8.063c0,2.094-1.109,3.141-3.328,3.141h-8.953
				c-0.313,4.469-1.188,7.859-2.625,10.172c1.688,0.719,3.64,1.297,5.859,1.734c1.625,0.406,5.093,0.703,10.406,0.891
				c1.094,0.063,1.656,0.672,1.688,1.828c-0.031,1.375-0.719,2.063-2.063,2.063c-1.625-0.063-3.672-0.25-6.141-0.563
				c-2.594-0.25-5.063-0.734-7.406-1.453c-1.719-0.469-3.266-1.031-4.641-1.688c-2.438,1.969-6.141,3.344-11.109,4.125
				c-1.25,0-1.875-0.625-1.875-1.875c0-0.906,0.453-1.469,1.359-1.688c3.406-0.625,6.063-1.531,7.969-2.719l-0.047-0.047
				c-2.5-1.75-4.578-3.969-6.234-6.656c-0.25-0.406-0.375-0.828-0.375-1.266c0-1.125,0.563-1.688,1.688-1.688
				c0.344,0,0.703,0.25,1.078,0.75c1.938,2.938,4.109,5.125,6.516,6.563c0.125-0.219,0.265-0.422,0.422-0.609
				c1.094-1.875,1.812-4.5,2.156-7.875h-8.719c-2.094,0-3.141-1.047-3.141-3.141v-8.063c0-2,1.047-3,3.141-3h8.859v-4.688h-12.188
				c-1,0-1.5-0.563-1.5-1.688c0-1.031,0.5-1.547,1.5-1.547h12.188v-2.766c0-1.125,0.563-1.688,1.688-1.688
				c1.094,0,1.641,0.563,1.641,1.688v2.766H279.862z M263.362,55.987c0-0.281,0-0.547,0-0.797v-7.078h-7.688
				c-0.532,0-0.797,0.297-0.797,0.891v5.859c0,0.75,0.265,1.125,0.797,1.125H263.362z M274.378,55.987
				c0.656,0,0.984-0.375,0.984-1.125v-5.859c0-0.594-0.328-0.891-0.984-0.891h-7.688v7.078c0,0.281,0,0.547,0,0.797H274.378z"/>
			<path fill="#231815" d="M306.742,34.8h20.25c2.375,0,3.563,1.125,3.563,3.375v33c0,3.5-1.766,5.25-5.297,5.25
				c-2.313,0-4.813-0.375-7.5-1.125c-1.094-0.281-1.641-0.922-1.641-1.922c0-1.25,0.546-1.875,1.641-1.875
				c3.188,0.781,5.688,1.172,7.5,1.172c1.156,0,1.734-0.875,1.734-2.625v-9h-14.25v12.938c0,1.094-0.625,1.641-1.875,1.641
				c-1.156,0-1.734-0.547-1.734-1.641V61.05H295.68c-0.094,1.344-0.204,2.672-0.328,3.984c-0.25,2.063-0.656,4.203-1.219,6.422
				c-0.438,1.531-0.86,2.813-1.266,3.844c-0.438,0.875-1.016,1.313-1.734,1.313c-1.188-0.063-1.813-0.688-1.875-1.875
				c0-0.156,0.063-0.469,0.188-0.938c0.531-1.25,0.953-2.484,1.266-3.703c0.469-1.813,0.844-3.75,1.125-5.813
				c0.312-2.406,0.469-5.109,0.469-8.109v-18c0-2.25,1.109-3.375,3.328-3.375H306.742z M295.82,46.425h13.313v-8.438h-12
				c-0.875,0-1.313,0.547-1.313,1.641V46.425z M295.82,57.815h13.313v-8.25H295.82v6.609C295.82,56.737,295.82,57.284,295.82,57.815
				z M312.742,37.987v8.438h14.25V39.44c0-0.969-0.391-1.453-1.172-1.453H312.742z M312.742,49.565v8.25h14.25v-8.25H312.742z"/>
			<path fill="#231815" d="M354.997,40.94c0.968,0,1.453,0.516,1.453,1.547c0,1.125-0.485,1.688-1.453,1.688h-13.313
				c-1.031,0-1.547-0.563-1.547-1.688c0-1.031,0.516-1.547,1.547-1.547H354.997z M353.685,47.315c1,0,1.5,0.516,1.5,1.547
				c0,1-0.5,1.5-1.5,1.5h-10.5c-1,0-1.5-0.5-1.5-1.5c0-1.031,0.5-1.547,1.5-1.547H353.685z M353.685,54.3c1,0,1.5,0.484,1.5,1.453
				c0,1-0.5,1.5-1.5,1.5h-10.5c-1,0-1.5-0.5-1.5-1.5c0-0.969,0.5-1.453,1.5-1.453H353.685z M344.45,60.675h7.875
				c2.031,0,3.047,0.922,3.047,2.766v9.422c0,1.844-1.016,2.766-3.047,2.766h-7.875c-1.844,0-2.766-0.922-2.766-2.766V63.44
				C341.685,61.597,342.606,60.675,344.45,60.675z M353.31,34.425c1,0,1.5,0.5,1.5,1.5c0,0.969-0.5,1.453-1.5,1.453h-9.938
				c-1.031,0-1.547-0.484-1.547-1.453c0-1,0.516-1.5,1.547-1.5H353.31z M351.06,72.675c0.719,0,1.078-0.391,1.078-1.172V64.8
				c0-0.781-0.359-1.172-1.078-1.172h-5.25c-0.625,0-0.938,0.391-0.938,1.172v6.703c0,0.781,0.312,1.172,0.938,1.172H351.06z
				 M370.935,58.987h-3.563c0,2.844-0.406,5.531-1.219,8.063c-1.188,3.188-3.344,6.047-6.469,8.578
				c-0.438,0.531-0.954,0.797-1.547,0.797c-1.375,0-2.063-0.688-2.063-2.063c0-0.125,0.125-0.5,0.375-1.125
				c3.094-2.188,5.219-4.688,6.375-7.5c0.75-2.094,1.141-4.344,1.172-6.75h-1.359c-2.094,0-3.141-1.078-3.141-3.234v-7.828
				c0-0.094,0-0.172,0-0.234c-0.313,0.344-0.641,0.672-0.984,0.984c-0.469,0.469-0.828,0.703-1.078,0.703
				c-1.25,0-1.875-0.484-1.875-1.453c0-0.438,0.109-0.813,0.328-1.125c1.313-1.25,2.453-2.641,3.422-4.172
				c1.062-1.594,1.938-3.469,2.625-5.625c0.156-0.719,0.593-1.078,1.313-1.078c0.469,0,0.875,0.141,1.219,0.422
				c0.438,0.344,0.656,0.75,0.656,1.219c0,0.281-0.063,0.609-0.188,0.984c-0.75,2.188-1.688,4.125-2.813,5.813
				c-0.157,0.219-0.297,0.422-0.422,0.609c0.281-0.031,0.593-0.047,0.938-0.047h12.797c0.281,0,0.531,0.016,0.75,0.047
				c-0.313-0.531-0.609-1.094-0.891-1.688c-0.781-1.563-1.422-3.328-1.922-5.297c-0.157-0.656-0.547-0.984-1.172-0.984h-5.203
				c-1,0-1.5-0.563-1.5-1.688c0-1,0.5-1.5,1.5-1.5h6c1.625,0,2.734,0.828,3.328,2.484c0.656,2.438,1.39,4.422,2.203,5.953
				c0.563,1.031,1.25,2.078,2.063,3.141c0.469,0.594,1.172,1.359,2.109,2.297c0.406,0.438,0.609,0.875,0.609,1.313
				c-0.063,0.969-0.625,1.484-1.688,1.547c-0.344,0-0.734-0.188-1.172-0.563c-0.719-0.656-1.344-1.266-1.875-1.828v7.594
				c0,2.156-1.047,3.234-3.141,3.234h-1.172v11.25c0,0.813,0.203,1.391,0.609,1.734c0.406,0.344,1.343,0.516,2.813,0.516
				c1.125,0,1.797-0.156,2.016-0.469c0.281-0.375,0.422-0.813,0.422-1.313v-3.141c0.031-1.188,0.593-1.813,1.688-1.875
				c1.062,0.063,1.625,0.828,1.688,2.297c0,3.25-0.141,5.141-0.422,5.672c-0.188,0.688-0.641,1.234-1.359,1.641
				c-0.688,0.344-2.032,0.516-4.031,0.516c-2.844,0-4.704-0.375-5.578-1.125c-0.781-0.719-1.172-2.016-1.172-3.891V58.987z
				 M374.263,55.753c0.656,0,0.984-0.359,0.984-1.078v-5.672c0-0.594-0.328-0.891-0.984-0.891H363.81
				c-0.625,0-0.938,0.297-0.938,0.891v5.672c0,0.719,0.312,1.078,0.938,1.078H374.263z"/>
			<path fill="#231815" d="M394.956,35.925h8.625c2.125,0,3.188,1,3.188,3v26.25c0,2.125-1.063,3.188-3.188,3.188h-8.625
				c-2.094,0-3.141-1.063-3.141-3.188v-26.25C391.815,36.925,392.862,35.925,394.956,35.925z M395.143,49.753h8.25v-9.516
				c0-0.781-0.359-1.172-1.078-1.172h-6c-0.781,0-1.172,0.391-1.172,1.172V49.753z M402.315,65.175c0.719,0,1.078-0.453,1.078-1.359
				V52.987h-8.25v10.828c0,0.906,0.391,1.359,1.172,1.359H402.315z M414.081,61.05c-0.157,1.313-0.375,2.578-0.656,3.797
				c-0.625,3.594-1.516,6.953-2.672,10.078c-0.313,1-1.063,1.5-2.25,1.5c-1.25,0-1.875-0.563-1.875-1.688
				c0-0.063,0.109-0.406,0.328-1.031c1.343-3.406,2.297-6.703,2.859-9.891c0.844-3.781,1.266-7.969,1.266-12.563v-14.25
				c0-1.969,1.015-2.953,3.047-2.953h15.938c2,0,3,0.984,3,2.953V73.05c0,1.844-1.688,2.766-5.063,2.766
				c-2.125,0-4.188-0.297-6.188-0.891c-0.875-0.281-1.313-0.906-1.313-1.875c0-1.25,0.5-1.875,1.5-1.875l5.578,0.938
				c1.25,0,1.875-0.313,1.875-0.938V61.05H414.081z M414.69,48.675v2.578c0,2.313-0.094,4.5-0.281,6.563h15.047v-9.141H414.69z
				 M429.456,45.44v-6.516c0-1.156-0.359-1.734-1.078-1.734h-12.984c-0.469,0-0.703,0.578-0.703,1.734v6.516H429.456z"/>
		</g>
	</g>
</g>
</svg>
