<svg width="152.07" height="136.4" viewBox="0 0 152.07 136.4" xmlns="http://www.w3.org/2000/svg" xmlns:xlink="http://www.w3.org/1999/xlink" overflow="hidden"><defs></defs><g><circle cx="76.98" cy="63.54" r="63.54" fill="#4A83C4"/><g><g><path d="M39.71 133.35C37.18 132.94 34.64 132.49 32.09 132 21.94 110.77 14.07 88.43 13.32 67.14 16.99 66.44 20.63 65.81 24.25 65.23 24.3 87.54 30.95 111.08 39.71 133.35Z" fill="#D3414C"/><path d="M43.47 133.93C42.21 133.75 40.95 133.55 39.69 133.35 30.93 111.08 24.28 87.55 24.22 65.24 26.03 64.95 27.83 64.68 29.62 64.42 29.45 87.16 35.47 111.22 43.47 133.93Z" fill="#F3ADA2"/><path d="M50.96 134.91C48.47 134.62 45.97 134.3 43.46 133.93 35.45 111.22 29.44 87.17 29.6 64.42 33.19 63.9 36.75 63.44 40.29 63.04 39.85 86.51 44.57 111.45 50.96 134.91Z" fill="#D3414C"/><path d="M54.68 135.3C53.44 135.18 52.2 135.05 50.95 134.9 44.56 111.44 39.84 86.51 40.27 63.03 42.04 62.83 43.8 62.64 45.56 62.47 45.08 86.25 49.14 111.54 54.68 135.3Z" fill="#F3ADA2"/><path d="M62.08 135.91C59.62 135.75 57.15 135.54 54.67 135.3 49.13 111.54 45.07 86.25 45.55 62.47 49.07 62.13 52.56 61.84 56.04 61.61 55.6 85.84 58.33 111.69 62.08 135.91Z" fill="#D3414C"/><path d="M65.75 136.12C64.52 136.06 63.29 135.99 62.06 135.91 58.31 111.69 55.58 85.84 56.02 61.61 57.76 61.5 59.5 61.39 61.23 61.31 60.88 85.7 62.93 111.74 65.75 136.12Z" fill="#F3ADA2"/><path d="M73.1 136.37C70.65 136.33 68.2 136.25 65.74 136.13 62.91 111.75 60.86 85.7 61.22 61.32 64.69 61.15 68.15 61.03 71.6 60.98 71.47 85.54 72.16 111.8 73.1 136.37Z" fill="#D3414C"/><path d="M76.77 136.4C75.55 136.4 74.32 136.39 73.1 136.37 72.15 111.8 71.47 85.54 71.6 60.97 73.33 60.94 75.05 60.93 76.78 60.93 76.77 85.51 76.77 111.81 76.77 136.4Z" fill="#F3ADA2"/><path d="M84.11 136.28C81.66 136.36 79.21 136.4 76.76 136.4 76.76 111.81 76.76 85.52 76.76 60.93 80.21 60.93 83.67 60.99 87.13 61.1 87.37 85.6 86 111.78 84.11 136.28Z" fill="#D3414C"/><path d="M87.78 136.12C86.55 136.18 85.32 136.23 84.1 136.27 85.99 111.77 87.36 85.59 87.11 61.09 88.84 61.15 90.57 61.22 92.31 61.31 92.66 85.7 90.61 111.74 87.78 136.12Z" fill="#F3ADA2"/><path d="M95.15 135.64C92.68 135.84 90.22 136.01 87.76 136.13 90.59 111.75 92.64 85.7 92.28 61.32 95.75 61.49 99.23 61.72 102.73 62.01 103.21 86.03 99.81 111.63 95.15 135.64Z" fill="#D3414C"/><path d="M98.85 135.3C97.61 135.42 96.37 135.53 95.14 135.64 99.79 111.63 103.19 86.03 102.71 62 104.46 62.14 106.21 62.3 107.97 62.47 108.46 86.25 104.39 111.54 98.85 135.3Z" fill="#F3ADA2"/><path d="M106.31 134.45C103.81 134.78 101.32 135.06 98.84 135.31 104.37 111.55 108.44 86.26 107.95 62.48 111.47 62.82 115 63.23 118.56 63.69 118.9 86.82 113.53 111.34 106.31 134.45Z" fill="#D3414C"/><path d="M110.06 133.93C108.8 134.11 107.55 134.29 106.3 134.45 113.52 111.34 118.89 86.82 118.55 63.68 120.33 63.91 122.12 64.16 123.91 64.41 124.08 87.16 118.07 111.22 110.06 133.93Z" fill="#F3ADA2"/><path d="M117.63 132.7C115.09 133.15 112.56 133.56 110.05 133.93 118.06 111.22 124.07 87.16 123.9 64.41 127.49 64.93 131.1 65.51 134.74 66.14 134.37 87.97 127.1 110.93 117.63 132.7Z" fill="#D3414C"/><path d="M121.43 132C120.15 132.25 118.88 132.48 117.61 132.71 127.09 110.94 134.35 87.97 134.72 66.15 136.54 66.47 138.37 66.8 140.21 67.15 139.46 88.43 131.59 110.77 121.43 132Z" fill="#F3ADA2"/></g></g><g><path d="M127.3 92.02C120.58 92.02 114.48 89.34 110.02 84.99 108.88 86.1 107.64 87.09 106.31 87.97 110.69 94.95 118.45 99.59 127.3 99.59 140.98 99.59 152.07 88.5 152.07 74.82 152.07 73.53 151.97 72.27 151.78 71.04 149.96 82.91 139.69 92.02 127.3 92.02Z" fill="#11569B"/><path d="M92.74 84.45C86.02 84.45 79.92 81.77 75.46 77.42 74.32 78.53 73.08 79.52 71.75 80.4 76.13 87.38 83.89 92.02 92.74 92.02 97.75 92.02 102.41 90.53 106.31 87.97 105.15 86.12 104.22 84.1 103.58 81.96 100.31 83.55 96.63 84.45 92.74 84.45Z" fill="#11569B"/><path d="M106.31 80.4C105.44 80.97 104.52 81.5 103.58 81.96 104.22 84.1 105.15 86.11 106.31 87.97 107.64 87.1 108.88 86.1 110.02 84.99 108.61 83.61 107.37 82.07 106.31 80.4Z" fill="#11569B"/><path d="M58.18 76.89C55.09 76.89 52.14 76.32 49.42 75.29 49.19 77.7 48.62 80 47.76 82.15 50.93 83.62 54.46 84.45 58.18 84.45 63.19 84.45 67.85 82.96 71.75 80.4 70.59 78.55 69.66 76.53 69.02 74.39 65.75 75.99 62.07 76.89 58.18 76.89Z" fill="#11569B"/><path d="M71.76 72.84C70.89 73.41 69.97 73.94 69.03 74.4 69.67 76.54 70.6 78.55 71.76 80.41 73.09 79.54 74.33 78.54 75.47 77.43 74.05 76.05 72.81 74.51 71.76 72.84Z" fill="#11569B"/><path d="M24.77 90.15C12.38 90.15 2.11 81.05 0.29 69.16 0.1 70.4 0 71.66 0 72.94 0 86.62 11.09 97.71 24.77 97.71 35.19 97.71 44.11 91.27 47.76 82.15 46.63 81.62 45.54 81.02 44.51 80.33 39.99 86.3 32.83 90.15 24.77 90.15Z" fill="#11569B"/><path d="M47.76 74.59C46.93 76.66 45.84 78.59 44.51 80.34 45.54 81.02 46.63 81.63 47.76 82.16 48.62 80 49.2 77.7 49.42 75.3 48.86 75.08 48.31 74.84 47.76 74.59Z" fill="#11569B"/><path d="M127.3 50.04C123.41 50.04 119.73 50.94 116.46 52.53 117.14 54.79 117.51 57.19 117.51 59.68 117.51 60.97 117.41 62.23 117.22 63.46 117.41 64.69 117.51 65.96 117.51 67.24 117.51 74.2 114.64 80.48 110.02 84.98 114.48 89.33 120.58 92.01 127.3 92.01 139.69 92.01 149.96 82.91 151.78 71.02 149.96 59.15 139.69 50.04 127.3 50.04Z" fill="#4A83C4"/><path d="M117.51 67.25C117.51 65.96 117.41 64.7 117.22 63.47 116.14 70.55 112.05 76.63 106.31 80.4 107.36 82.07 108.61 83.61 110.02 84.99 114.64 80.49 117.51 74.2 117.51 67.25Z" fill="#11569B"/><path d="M102.82 71.03C102.63 69.8 102.53 68.53 102.53 67.25 102.53 60.29 105.4 54.01 110.02 49.51 105.56 45.16 99.46 42.48 92.74 42.48 88.85 42.48 85.17 43.38 81.9 44.97 82.58 47.23 82.95 49.63 82.95 52.12 82.95 53.41 82.85 54.67 82.66 55.9 82.85 57.13 82.95 58.4 82.95 59.68 82.95 66.64 80.08 72.92 75.46 77.42 79.92 81.77 86.02 84.45 92.74 84.45 96.63 84.45 100.31 83.55 103.58 81.96 102.9 79.7 102.53 77.3 102.53 74.81 102.53 73.53 102.63 72.26 102.82 71.03Z" fill="#4A83C4"/><path d="M102.53 74.81C102.53 77.3 102.9 79.69 103.58 81.96 104.53 81.5 105.44 80.98 106.31 80.4 104.55 77.6 103.33 74.43 102.81 71.03 102.63 72.26 102.53 73.53 102.53 74.81Z" fill="#4A83C4"/><path d="M82.95 59.68C82.95 58.39 82.85 57.13 82.66 55.9 81.58 62.98 77.49 69.06 71.75 72.83 72.8 74.5 74.05 76.04 75.46 77.42 80.08 72.92 82.95 66.64 82.95 59.68Z" fill="#11569B"/><path d="M117.51 59.68C117.51 57.19 117.14 54.8 116.46 52.53 115.51 52.99 114.6 53.51 113.73 54.09 115.49 56.89 116.71 60.06 117.23 63.46 117.41 62.23 117.51 60.97 117.51 59.68Z" fill="#4A83C4"/><path d="M102.53 67.25C102.53 68.54 102.63 69.8 102.82 71.03 103.9 63.95 107.99 57.87 113.73 54.1 112.68 52.43 111.43 50.89 110.02 49.51 105.4 54.01 102.53 60.29 102.53 67.25Z" fill="#4A83C4"/><path d="M117.22 63.47C116.7 60.07 115.48 56.9 113.72 54.1 107.98 57.87 103.9 63.96 102.81 71.03 103.33 74.43 104.55 77.6 106.31 80.4 112.06 76.63 116.14 70.54 117.22 63.47Z" fill="#4A83C4"/><path d="M68.26 63.47C68.07 62.24 67.97 60.97 67.97 59.69 67.97 52.73 70.84 46.45 75.46 41.95 71 37.6 64.91 34.92 58.18 34.92 50.12 34.92 42.96 38.77 38.44 44.73 45.13 49.17 49.53 56.76 49.53 65.38 49.53 66.67 49.43 67.93 49.24 69.16 49.43 70.39 49.53 71.66 49.53 72.94 49.53 73.73 49.49 74.51 49.42 75.28 52.14 76.31 55.1 76.88 58.18 76.88 62.07 76.88 65.75 75.98 69.02 74.39 68.34 72.13 67.97 69.73 67.97 67.24 67.97 65.96 68.07 64.7 68.26 63.47Z" fill="#4A83C4"/><path d="M67.97 67.25C67.97 69.74 68.34 72.13 69.02 74.4 69.97 73.94 70.88 73.42 71.75 72.84 69.99 70.04 68.77 66.87 68.25 63.47 68.07 64.7 67.97 65.96 67.97 67.25Z" fill="#4A83C4"/><path d="M49.25 69.16C48.96 71.05 48.45 72.86 47.76 74.59 48.3 74.84 48.86 75.08 49.42 75.29 49.49 74.52 49.53 73.74 49.53 72.95 49.54 71.66 49.44 70.4 49.25 69.16Z" fill="#4A83C4"/><path d="M82.95 52.12C82.95 49.63 82.58 47.24 81.9 44.97 80.95 45.43 80.04 45.95 79.17 46.53 80.93 49.33 82.15 52.5 82.67 55.9 82.85 54.67 82.95 53.41 82.95 52.12Z" fill="#4A83C4"/><path d="M67.97 59.68C67.97 60.97 68.07 62.23 68.26 63.46 69.34 56.38 73.43 50.3 79.17 46.53 78.12 44.86 76.87 43.32 75.46 41.94 70.85 46.44 67.97 52.73 67.97 59.68Z" fill="#4A83C4"/><path d="M82.67 55.9C82.15 52.5 80.93 49.33 79.17 46.53 73.43 50.3 69.35 56.39 68.26 63.46 68.78 66.86 70 70.03 71.76 72.83 77.5 69.07 81.58 62.98 82.67 55.9Z" fill="#4A83C4"/><path d="M24.77 90.15C32.83 90.15 39.99 86.3 44.51 80.34 37.82 75.9 33.42 68.31 33.42 59.69 33.42 58.4 33.52 57.14 33.71 55.91 33.52 54.68 33.42 53.41 33.42 52.13 33.42 51.34 33.46 50.56 33.53 49.79 30.81 48.76 27.85 48.19 24.77 48.19 12.38 48.19 2.11 57.29 0.29 69.18 2.11 81.05 12.38 90.15 24.77 90.15Z" fill="#4A83C4"/><path d="M33.7 55.9C33.51 57.13 33.41 58.4 33.41 59.68 33.41 68.3 37.82 75.9 44.5 80.33 45.83 78.58 46.92 76.65 47.75 74.58 40.39 71.16 34.98 64.22 33.7 55.9Z" fill="#4A83C4"/><path d="M49.25 69.16C49.44 67.93 49.54 66.66 49.54 65.38 49.54 56.76 45.13 49.17 38.45 44.73 37.12 46.48 36.03 48.41 35.2 50.48 42.57 53.9 47.98 60.85 49.25 69.16Z" fill="#4A83C4"/><path d="M33.53 49.78C33.46 50.55 33.42 51.33 33.42 52.12 33.42 53.41 33.52 54.67 33.71 55.9 34 54.01 34.51 52.2 35.2 50.47 34.65 50.22 34.09 49.99 33.53 49.78Z" fill="#4A83C4"/><path d="M35.19 50.48C34.5 52.2 33.99 54.02 33.7 55.91 34.97 64.22 40.38 71.17 47.76 74.6 48.45 72.88 48.96 71.06 49.25 69.17 47.98 60.85 42.57 53.9 35.19 50.48Z" fill="#4A83C4"/></g><g><path d="M70.16 14.62 70.16 14.62C69.64 14.19 69.57 13.42 70 12.9L72.45 9.93C72.88 9.41 73.65 9.34 74.17 9.77L74.17 9.77C74.69 10.2 74.76 10.97 74.33 11.49L71.88 14.46C71.46 14.98 70.68 15.05 70.16 14.62Z" fill="#F16A81"/><path d="M55.76 34.19 55.76 34.19C55.1 34.31 54.46 33.86 54.34 33.2L53.67 29.41C53.55 28.75 54 28.11 54.66 27.99L54.66 27.99C55.32 27.87 55.96 28.32 56.08 28.98L56.75 32.77C56.87 33.44 56.43 34.08 55.76 34.19Z" fill="#25BEEF"/><path d="M86.6 34.37 86.6 34.37C85.98 34.62 85.26 34.32 85.01 33.7L83.56 30.13C83.31 29.51 83.61 28.79 84.23 28.54L84.23 28.54C84.85 28.29 85.57 28.59 85.82 29.21L87.27 32.78C87.53 33.4 87.23 34.11 86.6 34.37Z" fill="#66BC46"/><path d="M79.85 8.63 79.85 8.63C79.23 8.88 78.51 8.58 78.26 7.96L76.8 4.39C76.55 3.77 76.85 3.05 77.47 2.8L77.47 2.8C78.09 2.55 78.81 2.85 79.06 3.47L80.51 7.04C80.77 7.66 80.47 8.38 79.85 8.63Z" fill="#FDE8D4"/><path d="M92.74 13.43 92.74 13.43C92.12 13.68 91.4 13.38 91.15 12.76L89.7 9.18C89.45 8.56 89.75 7.84 90.37 7.59L90.37 7.59C90.99 7.34 91.71 7.64 91.96 8.26L93.41 11.83C93.67 12.45 93.37 13.17 92.74 13.43Z" fill="#66BC46"/><path d="M90.19 23.81 90.19 23.81C89.56 23.58 89.22 22.88 89.45 22.24L90.75 18.61C90.98 17.98 91.68 17.64 92.32 17.87L92.32 17.87C92.95 18.1 93.29 18.8 93.06 19.44L91.76 23.07C91.53 23.71 90.82 24.04 90.19 23.81Z" fill="#FDE8D4"/><path d="M107.33 31.08 107.33 31.08C106.68 30.93 106.27 30.26 106.42 29.61L107.31 25.86C107.46 25.21 108.13 24.8 108.78 24.95L108.78 24.95C109.43 25.1 109.84 25.77 109.69 26.42L108.8 30.17C108.64 30.82 107.98 31.23 107.33 31.08Z" fill="#FDE8D4"/><path d="M104.21 21.38 104.21 21.38C103.59 21.63 102.87 21.33 102.62 20.71L101.17 17.14C100.92 16.52 101.22 15.8 101.84 15.55L101.84 15.55C102.46 15.3 103.18 15.6 103.43 16.22L104.88 19.79C105.13 20.41 104.83 21.13 104.21 21.38Z" fill="#25BEEF"/><path d="M74.98 30.61 74.98 30.61C74.31 30.51 73.85 29.88 73.96 29.21L74.55 25.4C74.65 24.73 75.28 24.27 75.95 24.38L75.95 24.38C76.62 24.48 77.08 25.11 76.97 25.78L76.38 29.59C76.28 30.25 75.65 30.71 74.98 30.61Z" fill="#25BEEF"/><path d="M46.47 20.24 46.47 20.24C45.81 20.09 45.4 19.43 45.55 18.77L46.41 15.02C46.56 14.36 47.22 13.95 47.88 14.1L47.88 14.1C48.54 14.25 48.95 14.91 48.8 15.57L47.94 19.32C47.78 19.98 47.12 20.39 46.47 20.24Z" fill="#66BC46"/><path d="M55.54 14.34 55.54 14.34C54.96 14 54.76 13.25 55.09 12.67L57.02 9.33C57.36 8.75 58.11 8.55 58.69 8.88L58.69 8.88C59.27 9.22 59.47 9.97 59.14 10.55L57.21 13.89C56.87 14.48 56.12 14.68 55.54 14.34Z" fill="#FDE8D4"/><path d="M62.12 23.82 62.12 23.82C61.48 23.6 61.15 22.9 61.37 22.26L62.64 18.62C62.86 17.98 63.56 17.65 64.2 17.87L64.2 17.87C64.84 18.09 65.17 18.79 64.95 19.43L63.68 23.07C63.46 23.7 62.76 24.04 62.12 23.82Z" fill="#F16A81"/></g></g></svg>