<svg width="193.86" height="358.12" viewBox="0 0 193.86 358.12" xmlns="http://www.w3.org/2000/svg" xmlns:xlink="http://www.w3.org/1999/xlink" overflow="hidden"><defs></defs><path d="M168 358.12 30.67 358.12C29.97 358.12 29.41 357.55 29.41 356.86L29.41 238.31C29.41 228.37 37.47 220.31 47.41 220.31L151.27 220.31C161.21 220.31 169.27 228.37 169.27 238.31L169.27 356.86C169.27 357.56 168.7 358.12 168 358.12Z" fill="#5B3186"/><path d="M116.21 272.28 81.57 272.28C76.66 272.28 72.63 268.26 72.63 263.34L72.63 196.52C72.63 191.61 76.65 187.58 81.57 187.58L116.21 187.58C121.12 187.58 125.15 191.6 125.15 196.52L125.15 263.34C125.14 268.26 121.12 272.28 116.21 272.28Z" fill="#EF987C"/><path d="M114.91 262.52 84.19 262.52C79.61 262.52 75.86 258.77 75.86 254.19L75.86 190.56C75.86 185.98 79.61 182.23 84.19 182.23L114.92 182.23C119.5 182.23 123.25 185.98 123.25 190.56L123.25 254.19C123.25 258.77 119.5 262.52 114.91 262.52Z" fill="#EA7161"/><g><g><g><path d="M129.83 112.12C128.25 112.61 126.64 113.05 124.97 113.33 115.86 114.88 106.96 112.94 99.55 108.47 89.26 121.07 73.62 129.12 56.09 129.12 49.26 129.12 42.74 127.84 36.68 125.6 36.68 125.85 36.66 126.1 36.66 126.35L36.66 189.09C36.66 223.97 65.2 252.51 100.08 252.51L100.08 252.51C134.96 252.51 163.5 223.97 163.5 189.09L163.5 130.14C161.78 130.76 159.98 131.22 158.1 131.47 144.99 133.19 132.89 124.68 129.83 112.12Z" fill="#F7B290"/></g><path d="M99.55 108.47C90.27 102.87 83.33 93.31 81.34 81.63 80.4 76.12 80.68 70.69 81.94 65.61 56.06 73.39 37.02 97.35 36.68 125.6 42.74 127.84 49.25 129.12 56.09 129.12 73.62 129.12 89.27 121.06 99.55 108.47Z" fill="#F7B290"/><path d="M145.42 82.13C136.39 72.88 124.59 66.37 111.38 63.96 111.86 66.92 112.18 69.93 112.18 73.02 112.18 86.46 107.44 98.8 99.55 108.46 106.96 112.93 115.86 114.87 124.97 113.32 126.64 113.03 128.25 112.6 129.83 112.11 129.61 111.21 129.43 110.29 129.31 109.36 127.74 97.41 134.67 86.33 145.42 82.13Z" fill="#F7B290"/><path d="M111.38 63.97C107.71 63.3 103.94 62.93 100.08 62.93L100.08 62.93C93.78 62.93 87.69 63.87 81.94 65.6 80.68 70.68 80.4 76.11 81.34 81.62 83.33 93.3 90.26 102.86 99.55 108.46 107.44 98.8 112.18 86.47 112.18 73.02 112.18 69.94 111.86 66.92 111.38 63.97Z" fill="#F7B290"/><path d="M152.89 91.36C148.58 101.12 140.32 108.83 129.83 112.12 132.89 124.69 144.99 133.19 158.1 131.47 159.98 131.22 161.78 130.76 163.5 130.14L163.5 126.35C163.5 113.44 159.58 101.4 152.89 91.36Z" fill="#F7B290"/><path d="M129.31 109.36C129.43 110.3 129.61 111.22 129.83 112.11 140.32 108.82 148.58 101.11 152.89 91.35 150.69 88.04 148.18 84.96 145.42 82.13 134.67 86.33 127.74 97.41 129.31 109.36Z" fill="#F7B290"/></g></g><circle cx="163.36" cy="127.62" r="25.13" fill="#E74443"/><circle cx="40.96" cy="121.64" r="25.13" fill="#E74443"/><circle cx="54.3" cy="171.45" r="25.13" fill="#E74443"/><circle cx="146.78" cy="169.39" r="25.13" fill="#E74443"/><g><g><ellipse cx="29.41" cy="151.17" rx="23.1" ry="23.1" fill="#FAB189" transform="matrix(0.7071 -0.7071 0.7071 0.7071 -98.2796 65.0726)"/><g><circle cx="29.41" cy="146.81" r="23.1" fill="#F6C496"/><circle cx="29.41" cy="146.81" r="11.9" fill="#EC7068"/></g></g><g><ellipse cx="170.76" cy="151.17" rx="23.1" ry="23.1" fill="#FAB189" transform="matrix(0.7071 -0.7071 0.7071 0.7071 -56.8783 165.024)"/><g><circle cx="170.76" cy="146.81" r="23.1" fill="#F6C496"/><circle cx="170.76" cy="146.81" r="11.9" fill="#EC7068"/></g></g></g><g><path d="M129.83 108.14C128.25 108.63 126.64 109.07 124.97 109.35 115.86 110.9 106.96 108.96 99.55 104.49 89.26 117.09 73.62 125.14 56.09 125.14 49.26 125.14 42.74 123.86 36.68 121.62 36.68 121.87 36.66 122.12 36.66 122.37L36.66 185.11C36.66 219.99 65.2 248.53 100.08 248.53L100.08 248.53C134.96 248.53 163.5 219.99 163.5 185.11L163.5 126.16C161.78 126.78 159.98 127.24 158.1 127.49 144.99 129.21 132.89 120.7 129.83 108.14Z" fill="#F6C496"/><path d="M99.55 104.49C90.27 98.89 83.33 89.33 81.34 77.65 80.4 72.14 80.68 66.71 81.94 61.63 56.06 69.41 37.02 93.37 36.68 121.62 42.74 123.86 49.25 125.14 56.09 125.14 73.62 125.14 89.27 117.09 99.55 104.49Z" fill="#EF9978"/><path d="M145.42 78.15C136.39 68.9 124.59 62.39 111.38 59.98 111.86 62.94 112.18 65.95 112.18 69.04 112.18 82.48 107.44 94.82 99.55 104.48 106.96 108.95 115.86 110.89 124.97 109.34 126.64 109.05 128.25 108.62 129.83 108.13 129.61 107.23 129.43 106.31 129.31 105.38 127.74 93.43 134.67 82.35 145.42 78.15Z" fill="#EF9978"/><path d="M111.38 59.99C107.71 59.32 103.94 58.95 100.08 58.95L100.08 58.95C93.78 58.95 87.69 59.89 81.94 61.62 80.68 66.7 80.4 72.13 81.34 77.64 83.33 89.32 90.26 98.88 99.55 104.48 107.44 94.82 112.18 82.49 112.18 69.04 112.18 65.96 111.86 62.95 111.38 59.99Z" fill="#EF9978"/><path d="M152.89 87.38C148.58 97.14 140.32 104.85 129.83 108.14 132.89 120.71 144.99 129.21 158.1 127.49 159.98 127.24 161.78 126.78 163.5 126.16L163.5 122.37C163.5 109.46 159.58 97.43 152.89 87.38Z" fill="#EF9978"/><path d="M129.31 105.38C129.43 106.32 129.61 107.24 129.83 108.13 140.32 104.84 148.58 97.13 152.89 87.37 150.69 84.06 148.18 80.98 145.42 78.15 134.67 82.35 127.74 93.43 129.31 105.38Z" fill="#EF9978"/></g><g><path d="M111.86 198.42 89.96 198.42C86.31 198.42 83.33 195.44 83.33 191.79L83.33 129.86C83.33 126.21 86.31 123.23 89.96 123.23L111.86 123.23C115.51 123.23 118.49 126.21 118.49 129.86L118.49 191.79C118.49 195.43 115.5 198.42 111.86 198.42Z" fill="#EAA782"/><g><path d="M111.86 193.9 89.96 193.9C86.31 193.9 83.33 190.92 83.33 187.27L83.33 125.34C83.33 121.69 86.31 118.71 89.96 118.71L111.86 118.71C115.51 118.71 118.49 121.69 118.49 125.34L118.49 187.27C118.49 190.91 115.5 193.9 111.86 193.9Z" fill="#F6C496"/></g></g><path d="M94.75 38.45C94.75 38.54 94.75 38.63 94.74 38.73 94.75 38.73 94.76 38.73 94.77 38.73 94.77 38.63 94.76 38.54 94.75 38.45Z" fill="#F04E3D"/><g><g><g><circle cx="56.09" cy="56.09" r="56.09" fill="#F04E3D"/></g><ellipse cx="118.49" cy="58.36" rx="37.68" ry="38.58" fill="#F04E3D" transform="matrix(0.9858 -0.168 0.168 0.9858 -8.1214 20.7394)"/><circle cx="154.75" cy="89.08" r="25.67" fill="#F04E3D"/></g></g><path d="M56.09 112.18C26.63 112.18 2.52 89.45 0.23 60.57 0.11 62.06 0 63.54 0 65.06 0 96.04 25.11 121.15 56.09 121.15 73.62 121.15 89.27 113.1 99.55 100.5 97.78 99.43 96.11 98.21 94.53 96.87 84.48 106.33 70.98 112.18 56.09 112.18Z" fill="#D73127"/><path d="M129.25 95.37C127.86 95.78 126.44 96.14 124.97 96.39 117.68 97.63 110.52 96.61 104.15 93.87 102.76 96.18 101.25 98.42 99.55 100.5 106.96 104.97 115.86 106.91 124.97 105.36 126.64 105.07 128.25 104.64 129.83 104.15 129.61 103.25 129.43 102.33 129.31 101.4 129.04 99.35 129.04 97.33 129.25 95.37Z" fill="#D73127"/><path d="M155.93 63.46C155.93 63.42 155.92 63.37 155.91 63.33 155.9 63.37 155.91 63.42 155.9 63.46 155.91 63.46 155.92 63.46 155.93 63.46Z" fill="#D73127"/><path d="M99.55 91.53C98 93.43 96.31 95.19 94.53 96.87 96.11 98.21 97.79 99.43 99.55 100.5 101.25 98.42 102.76 96.19 104.15 93.87 102.57 93.18 101.03 92.42 99.55 91.53Z" fill="#D73127"/><path d="M180.01 93.64C178.08 104.33 169.45 113.03 158.1 114.52 147.92 115.86 138.37 111.02 133.17 102.92 132.08 103.38 130.97 103.78 129.83 104.14 132.89 116.71 144.99 125.21 158.1 123.49 172.15 121.64 182.05 108.75 180.2 94.7 180.15 94.34 180.07 94 180.01 93.64Z" fill="#D73127"/><path d="M129.83 95.18C129.63 95.24 129.45 95.32 129.25 95.37 129.05 97.33 129.04 99.34 129.31 101.39 129.43 102.33 129.61 103.25 129.83 104.14 130.97 103.78 132.09 103.38 133.17 102.92 131.67 100.58 130.51 97.99 129.83 95.18Z" fill="#D73127"/><path d="M56.09 8.97C72.18 8.97 86.65 15.78 96.88 26.64 98.44 25.53 100.08 24.53 101.81 23.67 91.64 9.36 74.97 0 56.09 0 25.11 0 0 25.11 0 56.09 0 57.6 0.11 59.09 0.23 60.57 2.52 31.7 26.63 8.97 56.09 8.97Z" fill="#F04E3D"/><path d="M56.09 112.18C70.98 112.18 84.48 106.34 94.53 96.87 87.82 91.17 82.96 83.12 81.35 73.66 80.7 69.82 80.63 66.03 81.07 62.36 79.48 47.98 85.88 34.44 96.89 26.64 86.65 15.78 72.18 8.97 56.09 8.97 26.63 8.97 2.52 31.7 0.23 60.57 2.52 89.45 26.63 112.18 56.09 112.18Z" fill="#F04E3D"/><path d="M81.34 64.69C81.21 63.91 81.15 63.13 81.06 62.36 80.62 66.03 80.69 69.82 81.34 73.66 82.95 83.11 87.81 91.17 94.52 96.87 96.3 95.19 98 93.43 99.54 91.53 90.27 85.93 83.33 76.37 81.34 64.69Z" fill="#F04E3D"/><path d="M112.01 29.3C109.97 29.65 108.03 30.2 106.13 30.85 109.97 38.44 112.18 47 112.18 56.09 112.18 57.6 112.07 59.09 111.95 60.57 112.07 62.05 112.18 63.54 112.18 65.05 112.18 75.6 109.21 85.43 104.15 93.86 110.52 96.6 117.68 97.63 124.97 96.38 126.44 96.13 127.86 95.77 129.25 95.36 129.32 94.72 129.39 94.09 129.5 93.46 129.44 93.11 129.35 92.77 129.31 92.41 127.46 78.36 137.36 65.46 151.41 63.62 152.93 63.42 154.43 63.38 155.9 63.45 155.91 63.41 155.9 63.36 155.91 63.32 155.82 62.54 155.76 61.77 155.63 60.99 152.05 39.99 132.52 25.8 112.01 29.3Z" fill="#F04E3D"/><path d="M111.95 60.57C111.02 72.26 106.55 82.95 99.55 91.52 101.02 92.41 102.57 93.18 104.15 93.86 109.21 85.43 112.18 75.6 112.18 65.05 112.18 63.54 112.07 62.06 111.95 60.57Z" fill="#F04E3D"/><path d="M129.25 95.37C129.45 95.31 129.64 95.24 129.83 95.18 129.69 94.62 129.6 94.05 129.5 93.48 129.39 94.1 129.32 94.73 129.25 95.37Z" fill="#F04E3D"/><path d="M101.81 32.64C103.2 31.95 104.64 31.37 106.13 30.85 104.86 28.34 103.42 25.94 101.81 23.67 100.08 24.53 98.44 25.53 96.88 26.64 98.65 28.52 100.3 30.52 101.81 32.64Z" fill="#F04E3D"/><path d="M101.81 32.64C100.31 30.52 98.66 28.52 96.88 26.64 85.88 34.44 79.48 47.98 81.06 62.36 82.59 49.51 90.43 38.28 101.81 32.64Z" fill="#F04E3D"/><path d="M112.18 56.09C112.18 47 109.97 38.44 106.13 30.85 104.64 31.36 103.19 31.95 101.81 32.64 107.5 40.65 111.13 50.21 111.96 60.58 112.07 59.09 112.18 57.6 112.18 56.09Z" fill="#F04E3D"/><path d="M101.81 32.64C90.43 38.29 82.6 49.51 81.07 62.36 81.16 63.14 81.22 63.91 81.35 64.69 83.34 76.37 90.27 85.93 99.56 91.53 106.56 82.96 111.03 72.27 111.96 60.58 111.13 50.21 107.5 40.65 101.81 32.64Z" fill="#F04E3D"/><path d="M155.9 72.42C167.76 72.94 177.92 81.65 180.01 93.64 180.47 91.09 180.56 88.43 180.2 85.73 178.55 73.2 168.13 64 155.93 63.46 156.25 66.5 156.26 69.5 155.9 72.42Z" fill="#F04E3D"/><path d="M153.66 72.41C154.41 72.38 155.16 72.39 155.9 72.42 156.26 69.5 156.25 66.49 155.93 63.45 155.92 63.45 155.91 63.45 155.9 63.45 155.52 66.56 154.74 69.55 153.66 72.41Z" fill="#F04E3D"/><path d="M155.9 72.42C154.24 85.95 145.58 97.66 133.17 102.92 138.38 111.02 147.92 115.86 158.1 114.52 169.45 113.03 178.08 104.33 180.01 93.64 177.93 81.65 167.76 72.94 155.9 72.42Z" fill="#F04E3D"/><path d="M155.9 72.42C155.16 72.39 154.41 72.38 153.66 72.41 149.63 83.1 141.02 91.66 129.82 95.17 130.51 97.98 131.66 100.58 133.16 102.91 145.58 97.66 154.24 85.96 155.9 72.42Z" fill="#F04E3D"/><path d="M151.41 72.59C152.17 72.49 152.92 72.44 153.67 72.41 154.75 69.55 155.53 66.56 155.91 63.45 154.43 63.39 152.93 63.42 151.42 63.62 137.37 65.47 127.47 78.36 129.32 92.41 129.37 92.77 129.45 93.11 129.51 93.46 131.43 82.78 140.06 74.09 151.41 72.59Z" fill="#F04E3D"/><path d="M153.66 72.41C152.91 72.44 152.16 72.49 151.4 72.59 140.05 74.08 131.42 82.78 129.49 93.47 129.59 94.04 129.68 94.62 129.82 95.17 141.02 91.67 149.64 83.11 153.66 72.41Z" fill="#F04E3D"/><g><circle cx="64.6" cy="187" r="1.19" fill="#EAA782"/><circle cx="60.02" cy="190.18" r="0.8" fill="#EAA782"/><circle cx="49.91" cy="190.18" r="0.8" fill="#EAA782"/><circle cx="69.65" cy="184.81" r="0.8" fill="#EAA782"/><circle cx="45.36" cy="188.39" r="0.8" fill="#EAA782"/><circle cx="59.22" cy="185.71" r="1.55" fill="#EAA782"/><circle cx="52.83" cy="187" r="1.28" fill="#EAA782"/><circle cx="67.53" cy="190.75" r="1.32" fill="#EAA782"/><circle cx="47.79" cy="184.02" r="1.32" fill="#EAA782"/><circle cx="72.27" cy="187.59" r="1.32" fill="#EAA782"/><circle cx="55" cy="192.07" r="0.87" fill="#EAA782"/></g><g><circle cx="131.34" cy="188.28" r="1.26" fill="#EAA782"/><circle cx="136.18" cy="191.64" r="0.85" fill="#EAA782"/><circle cx="125.99" cy="185.97" r="0.85" fill="#EAA782"/><circle cx="137.02" cy="186.92" r="1.64" fill="#EAA782"/><circle cx="143.77" cy="188.28" r="1.35" fill="#EAA782"/><circle cx="128.23" cy="192.24" r="1.39" fill="#EAA782"/></g><g><circle cx="147.38" cy="185.55" r="1.26" fill="#EAA782"/><circle cx="152.23" cy="188.91" r="0.85" fill="#EAA782"/><circle cx="142.04" cy="183.24" r="0.85" fill="#EAA782"/><circle cx="153.07" cy="184.19" r="1.64" fill="#EAA782"/><circle cx="159.82" cy="185.55" r="1.35" fill="#EAA782"/></g><path d="M18.39 53.81C18.39 33.6 34.77 17.21 54.99 17.21" stroke="#F69057" stroke-width="5.6693" stroke-linecap="round" stroke-miterlimit="10" fill="none"/><path d="M123.76 222.97C125.55 219.41 126.57 215.4 126.57 211.14L73.59 211.14C73.59 215.59 74.7 219.77 76.64 223.45 84.21 220.7 92.38 219.2 100.91 219.2 108.9 219.2 116.58 220.54 123.76 222.97Z" fill="#B02029"/><rect x="73.59" y="205.76" width="52.98" height="5.38" fill="#FFFFFF"/><path d="M111.33 233.84 90.48 233.84C88.56 233.84 86.99 232.27 86.99 230.35L86.99 218.81C86.99 216.89 88.56 215.32 90.48 215.32L111.33 215.32C113.25 215.32 114.82 216.89 114.82 218.81L114.82 230.35C114.82 232.27 113.25 233.84 111.33 233.84Z" fill="#01243A"/><path d="M100.08 237.63C110.45 237.63 119.41 231.66 123.75 222.97 116.58 220.54 108.9 219.2 100.9 219.2 92.38 219.2 84.21 220.7 76.63 223.45 81.07 231.88 89.9 237.63 100.08 237.63Z" fill="#E12E51"/><g><g><circle cx="59.95" cy="147.86" r="19.8" fill="#FFFFFF" display="none"/><path d="M34.26 138.02 50.73 121.55C43.09 124.31 37.03 130.37 34.26 138.02Z" fill="none"/><path d="M60.05 174.77C75.18 174.77 87.49 162.46 87.49 147.33 87.49 147.3 87.49 147.27 87.49 147.24L59.96 174.77C59.98 174.76 60.01 174.77 60.05 174.77Z" fill="none"/><path d="M81.93 130.84 43.56 169.21C44.74 170.1 45.99 170.91 47.31 171.61L84.33 134.59C83.63 133.27 82.82 132.02 81.93 130.84Z" fill="none"/><path d="M81.93 130.84C82.82 132.02 83.63 133.27 84.33 134.59L90.81 128.11 92.59 129.89C89.15 123.49 83.88 118.22 77.48 114.78L87.73 125.03 81.93 130.84Z" fill="#01243A"/><path d="M50.74 121.55 61.84 110.45C61.25 110.42 60.65 110.4 60.05 110.4 39.69 110.4 23.12 126.97 23.12 147.33 23.12 147.93 23.14 148.53 23.17 149.12L34.27 138.02C37.03 130.37 43.09 124.31 50.74 121.55Z" fill="#01243A"/><path d="M87.48 147.23C87.48 147.26 87.48 147.29 87.48 147.32 87.48 162.45 75.17 174.76 60.04 174.76 60.01 174.76 59.98 174.76 59.95 174.76L51.47 183.24C54.22 183.9 57.09 184.25 60.04 184.25 80.4 184.25 96.97 167.68 96.97 147.32 96.97 144.37 96.61 141.5 95.96 138.75L87.48 147.23Z" fill="#01243A"/><path d="M43.56 169.21 36.79 175.98C37.93 176.91 39.13 177.76 40.37 178.55L47.31 171.61C45.99 170.91 44.74 170.1 43.56 169.21Z" fill="#01243A"/><path d="M60.05 119.88C56.78 119.88 53.65 120.49 50.74 121.54L34.27 138.01C33.22 140.92 32.61 144.05 32.61 147.32 32.61 156.26 36.93 164.19 43.56 169.2L81.93 130.83C76.92 124.2 68.99 119.88 60.05 119.88Z" fill="#FFFFFF" opacity="0.67"/><path d="M32.6 147.33C32.6 144.06 33.21 140.93 34.26 138.02L23.16 149.12C23.68 159.94 28.88 169.56 36.78 175.98L43.55 169.21C36.92 164.2 32.6 156.27 32.6 147.33Z" fill="#01243A"/><path d="M60.05 119.88C68.99 119.88 76.92 124.2 81.93 130.83L87.73 125.03 77.48 114.78C72.78 112.25 67.47 110.71 61.84 110.44L50.74 121.54C53.65 120.49 56.77 119.88 60.05 119.88Z" fill="#01243A"/><path d="M47.31 171.61C51.09 173.6 55.39 174.75 59.95 174.76L87.48 147.23C87.46 142.67 86.32 138.37 84.33 134.59L47.31 171.61Z" fill="#FFFFFF" opacity="0.67"/><path d="M84.33 134.59C86.32 138.37 87.47 142.67 87.48 147.23L95.96 138.75C95.21 135.62 94.08 132.65 92.59 129.89L90.81 128.11 84.33 134.59Z" fill="#01243A"/><path d="M47.31 171.61 40.37 178.55C43.74 180.68 47.49 182.29 51.48 183.24L59.96 174.76C55.39 174.75 51.09 173.6 47.31 171.61Z" fill="#01243A"/><circle cx="59.95" cy="147.23" r="6.51" fill="#01243A"/></g><g><circle cx="139.39" cy="147.86" r="19.8" fill="#FFFFFF" display="none"/><path d="M113.71 138.02 130.18 121.55C122.53 124.31 116.47 130.37 113.71 138.02Z" fill="none"/><path d="M139.49 174.77C154.62 174.77 166.93 162.46 166.93 147.33 166.93 147.3 166.93 147.27 166.93 147.24L139.4 174.77C139.42 174.76 139.45 174.77 139.49 174.77Z" fill="none"/><path d="M161.37 130.84 123 169.21C124.18 170.1 125.43 170.91 126.75 171.61L163.77 134.59C163.07 133.27 162.26 132.02 161.37 130.84Z" fill="none"/><path d="M161.37 130.84C162.26 132.02 163.07 133.27 163.77 134.59L170.25 128.11 172.03 129.89C168.59 123.49 163.32 118.22 156.92 114.78L167.17 125.03 161.37 130.84Z" fill="#01243A"/><path d="M130.18 121.55 141.28 110.45C140.69 110.42 140.09 110.4 139.49 110.4 119.13 110.4 102.56 126.97 102.56 147.33 102.56 147.93 102.58 148.53 102.61 149.12L113.71 138.02C116.47 130.37 122.53 124.31 130.18 121.55Z" fill="#01243A"/><path d="M166.92 147.23C166.92 147.26 166.92 147.29 166.92 147.32 166.92 162.45 154.61 174.76 139.48 174.76 139.45 174.76 139.42 174.76 139.39 174.76L130.91 183.24C133.66 183.9 136.53 184.25 139.48 184.25 159.84 184.25 176.41 167.68 176.41 147.32 176.41 144.37 176.05 141.5 175.4 138.75L166.92 147.23Z" fill="#01243A"/><path d="M123 169.21 116.23 175.98C117.37 176.91 118.57 177.76 119.81 178.55L126.75 171.61C125.43 170.91 124.18 170.1 123 169.21Z" fill="#01243A"/><path d="M139.49 119.88C136.22 119.88 133.09 120.49 130.18 121.54L113.71 138.01C112.66 140.92 112.05 144.05 112.05 147.32 112.05 156.26 116.37 164.19 123 169.2L161.37 130.83C156.36 124.2 148.43 119.88 139.49 119.88Z" fill="#FFFFFF" opacity="0.67"/><path d="M112.04 147.33C112.04 144.06 112.65 140.93 113.7 138.02L102.6 149.12C103.12 159.94 108.32 169.56 116.22 175.98L122.99 169.21C116.36 164.2 112.04 156.27 112.04 147.33Z" fill="#01243A"/><path d="M139.49 119.88C148.43 119.88 156.36 124.2 161.37 130.83L167.17 125.03 156.92 114.78C152.22 112.25 146.91 110.71 141.28 110.44L130.18 121.54C133.09 120.49 136.21 119.88 139.49 119.88Z" fill="#01243A"/><path d="M126.75 171.61C130.53 173.6 134.83 174.75 139.39 174.76L166.92 147.23C166.9 142.67 165.76 138.37 163.77 134.59L126.75 171.61Z" fill="#FFFFFF" opacity="0.67"/><path d="M163.77 134.59C165.76 138.37 166.91 142.67 166.92 147.23L175.4 138.75C174.65 135.62 173.52 132.65 172.03 129.89L170.25 128.11 163.77 134.59Z" fill="#01243A"/><path d="M126.75 171.61 119.81 178.55C123.18 180.68 126.93 182.29 130.92 183.24L139.4 174.76C134.83 174.75 130.53 173.6 126.75 171.61Z" fill="#01243A"/><circle cx="139.39" cy="147.23" r="6.51" fill="#01243A"/></g><rect x="95.14" y="143.31" width="10.24" height="11.37" fill="#01243A"/><path d="M171.07 140.81C170.46 140.81 169.92 140.39 169.78 139.78 166.94 127.38 156.53 118.27 143.86 117.08 143.13 117.01 142.59 116.37 142.66 115.64 142.73 114.91 143.39 114.37 144.1 114.44 157.91 115.73 169.26 125.67 172.35 139.18 172.52 139.89 172.07 140.61 171.35 140.77 171.27 140.8 171.17 140.81 171.07 140.81Z" fill="#3B5666"/><path d="M89.46 136.84C88.92 136.84 88.41 136.5 88.21 135.96 84 124.32 72.83 116.76 60.49 117.1 59.78 117.2 59.15 116.54 59.13 115.81 59.11 115.08 59.69 114.47 60.42 114.45 73.9 114.03 86.12 122.34 90.72 135.06 90.97 135.75 90.61 136.51 89.92 136.76 89.76 136.81 89.61 136.84 89.46 136.84Z" fill="#3B5666"/></g><circle cx="133.67" cy="44.88" r="6.32" fill="#F69057"/><circle cx="19.45" cy="75.24" r="6.32" fill="#F69057"/></svg>