<svg width="174.67" height="444.17" viewBox="0 0 174.67 444.17" xmlns="http://www.w3.org/2000/svg" xmlns:xlink="http://www.w3.org/1999/xlink" overflow="hidden"><defs></defs><rect x="55.37" y="332.71" width="12.4" height="72.59" fill="#F6C496"/><rect x="55.37" y="332.71" width="12.4" height="37.31" fill="#F7B290"/><rect x="53.37" y="405.31" width="16.95" height="7.32" fill="#F47D54"/><rect x="53.37" y="412.63" width="16.95" height="7.32" fill="#FFD021"/><rect x="53.37" y="419.95" width="16.95" height="7.32" fill="#116BB0"/><path d="M61.37 424.58C52.22 424.58 44.8 432 44.8 441.15L77.95 441.15C77.95 432 70.53 424.58 61.37 424.58Z"/><rect x="112.82" y="332.71" width="12.4" height="72.59" fill="#F6C496"/><rect x="110.83" y="405.31" width="16.95" height="7.32" fill="#F47D54"/><rect x="110.83" y="412.63" width="16.95" height="7.32" fill="#FFD021"/><rect x="110.83" y="419.95" width="16.95" height="7.32" fill="#116BB0"/><rect x="112.82" y="332.71" width="12.4" height="37.31" fill="#F7B290"/><path d="M119.02 424.58C109.87 424.58 102.45 432 102.45 441.15L135.6 441.15C135.6 432 128.18 424.58 119.02 424.58Z"/><path d="M151.25 322.67 27.76 322.67C27.06 322.67 26.5 322.1 26.5 321.41L26.5 233.05C26.5 213.97 41.97 198.51 61.04 198.51L117.97 198.51C137.05 198.51 152.51 213.98 152.51 233.05L152.51 321.41C152.51 322.11 151.94 322.67 151.25 322.67Z" fill="#5B3186"/><path d="M103.82 245.33 74.38 245.33C69.47 245.33 65.44 241.31 65.44 236.39L65.44 177.95C65.44 173.04 69.46 169.01 74.38 169.01L103.82 169.01C108.73 169.01 112.76 173.03 112.76 177.95L112.76 236.39C112.76 241.31 108.73 245.33 103.82 245.33Z" fill="#EF987C"/><path d="M102.71 236.53 76.68 236.53C72.1 236.53 68.35 232.78 68.35 228.2L68.35 172.52C68.35 167.94 72.1 164.19 76.68 164.19L102.72 164.19C107.3 164.19 111.05 167.94 111.05 172.52L111.05 228.2C111.05 232.78 107.3 236.53 102.71 236.53Z" fill="#EA7161"/><g><g><g><path d="M116.98 101.02C115.56 101.47 114.11 101.85 112.6 102.11 104.4 103.51 96.37 101.75 89.7 97.73 80.43 109.08 66.34 116.34 50.54 116.34 44.38 116.34 38.51 115.18 33.06 113.17 33.06 113.4 33.04 113.62 33.04 113.85L33.04 170.38C33.04 201.81 58.75 227.52 90.18 227.52L90.18 227.52C121.61 227.52 147.32 201.81 147.32 170.38L147.32 117.26C145.77 117.82 144.15 118.23 142.46 118.46 130.63 120 119.74 112.34 116.98 101.02Z" fill="#F7B290"/></g><path d="M89.7 97.73C81.34 92.69 75.09 84.07 73.3 73.55 72.45 68.58 72.71 63.69 73.84 59.11 50.52 66.12 33.37 87.71 33.06 113.16 38.52 115.18 44.39 116.33 50.54 116.33 66.33 116.34 80.43 109.08 89.7 97.73Z" fill="#F7B290"/><path d="M131.02 74C122.89 65.66 112.25 59.8 100.35 57.63 100.78 60.29 101.07 63.01 101.07 65.79 101.07 77.9 96.8 89.01 89.69 97.72 96.37 101.74 104.39 103.5 112.59 102.1 114.1 101.84 115.55 101.45 116.97 101.01 116.77 100.2 116.61 99.37 116.5 98.53 115.09 87.77 121.34 77.78 131.02 74Z" fill="#F7B290"/><path d="M100.36 57.64C97.05 57.04 93.65 56.71 90.18 56.71L90.18 56.71C84.5 56.71 79.02 57.56 73.83 59.12 72.7 63.7 72.45 68.59 73.29 73.56 75.08 84.08 81.33 92.7 89.69 97.74 96.8 89.03 101.07 77.92 101.07 65.81 101.07 63.01 100.79 60.3 100.36 57.64Z" fill="#F7B290"/><path d="M137.75 82.31C133.87 91.11 126.43 98.05 116.97 101.01 119.73 112.33 130.63 120 142.44 118.44 144.14 118.22 145.76 117.8 147.3 117.24L147.3 113.83C147.31 102.21 143.79 91.37 137.75 82.31Z" fill="#F7B290"/><path d="M116.51 98.54C116.62 99.39 116.78 100.21 116.98 101.02 126.43 98.06 133.87 91.11 137.76 82.32 135.78 79.34 133.52 76.56 131.03 74.01 121.34 77.78 115.09 87.77 116.51 98.54Z" fill="#F7B290"/></g></g><circle cx="147.19" cy="114.99" r="22.65" fill="#E74443"/><circle cx="36.9" cy="109.6" r="22.65" fill="#E74443"/><circle cx="48.93" cy="154.48" r="22.65" fill="#E74443"/><circle cx="132.25" cy="152.62" r="22.65" fill="#E74443"/><g><g><ellipse cx="26.5" cy="136.21" rx="20.81" ry="20.81" fill="#FAB189" transform="matrix(0.7071 -0.7071 0.7071 0.7071 -88.551 58.6311)"/><g><circle cx="26.5" cy="132.28" r="20.81" fill="#F6C496"/><circle cx="26.5" cy="132.28" r="10.72" fill="#EC7068"/></g></g><g><ellipse cx="153.86" cy="136.21" rx="20.81" ry="20.81" fill="#FAB189" transform="matrix(0.7071 -0.7071 0.7071 0.7071 -51.248 148.689)"/><g><circle cx="153.86" cy="132.28" r="20.81" fill="#F6C496"/><circle cx="153.86" cy="132.28" r="10.72" fill="#EC7068"/></g></g></g><g><path d="M116.98 97.43C115.56 97.88 114.11 98.26 112.6 98.52 104.4 99.92 96.37 98.16 89.7 94.14 80.43 105.49 66.34 112.75 50.54 112.75 44.38 112.75 38.51 111.59 33.06 109.58 33.06 109.81 33.04 110.03 33.04 110.26L33.04 166.79C33.04 198.22 58.75 223.93 90.18 223.93L90.18 223.93C121.61 223.93 147.32 198.22 147.32 166.79L147.32 113.67C145.77 114.23 144.15 114.64 142.46 114.87 130.63 116.42 119.74 108.75 116.98 97.43Z" fill="#F6C496"/><path d="M89.7 94.14C81.34 89.1 75.09 80.48 73.3 69.96 72.45 64.99 72.71 60.1 73.84 55.52 50.52 62.53 33.37 84.12 33.06 109.57 38.52 111.59 44.39 112.74 50.54 112.74 66.33 112.75 80.43 105.5 89.7 94.14Z" fill="#EF9978"/><path d="M131.02 70.42C122.89 62.08 112.25 56.22 100.35 54.05 100.78 56.71 101.07 59.43 101.07 62.21 101.07 74.32 96.8 85.43 89.69 94.14 96.37 98.16 104.39 99.92 112.59 98.52 114.1 98.26 115.55 97.87 116.97 97.43 116.77 96.62 116.61 95.79 116.5 94.95 115.09 84.18 121.34 74.2 131.02 70.42Z" fill="#EF9978"/><path d="M100.36 54.05C97.05 53.45 93.65 53.12 90.18 53.12L90.18 53.12C84.5 53.12 79.02 53.97 73.83 55.53 72.7 60.11 72.45 65 73.29 69.97 75.08 80.49 81.33 89.11 89.69 94.15 96.8 85.44 101.07 74.33 101.07 62.22 101.07 59.43 100.79 56.71 100.36 54.05Z" fill="#EF9978"/><path d="M137.75 78.73C133.87 87.53 126.43 94.47 116.97 97.43 119.73 108.75 130.63 116.42 142.44 114.86 144.14 114.64 145.76 114.22 147.3 113.66L147.3 110.25C147.31 98.63 143.79 87.78 137.75 78.73Z" fill="#EF9978"/><path d="M116.51 94.95C116.62 95.8 116.78 96.62 116.98 97.43 126.43 94.47 133.87 87.52 137.76 78.73 135.78 75.75 133.52 72.97 131.03 70.42 121.34 74.2 115.09 84.18 116.51 94.95Z" fill="#EF9978"/></g><g><path d="M100.13 178.78 81.71 178.78C78.06 178.78 75.08 175.8 75.08 172.15L75.08 117.66C75.08 114.01 78.06 111.03 81.71 111.03L100.13 111.03C103.78 111.03 106.76 114.01 106.76 117.66L106.76 172.15C106.76 175.79 103.78 178.78 100.13 178.78Z" fill="#EAA782"/><g><path d="M100.13 174.7 81.71 174.7C78.06 174.7 75.08 171.72 75.08 168.07L75.08 113.58C75.08 109.93 78.06 106.95 81.71 106.95L100.13 106.95C103.78 106.95 106.76 109.93 106.76 113.58L106.76 168.07C106.76 171.72 103.78 174.7 100.13 174.7Z" fill="#F6C496"/></g></g><path d="M85.37 34.64C85.37 34.72 85.37 34.81 85.36 34.89 85.37 34.89 85.38 34.89 85.39 34.89 85.39 34.81 85.38 34.72 85.37 34.64Z" fill="#F04E3D"/><g><g><g><circle cx="50.54" cy="50.54" r="50.54" fill="#F04E3D"/></g><ellipse cx="106.76" cy="52.58" rx="33.95" ry="34.76" fill="#F04E3D" transform="matrix(0.9858 -0.168 0.168 0.9858 -7.3174 18.6864)"/><circle cx="139.44" cy="80.26" r="23.13" fill="#F04E3D"/></g></g><path d="M50.54 101.07C23.99 101.07 2.27 80.59 0.21 54.57 0.1 55.91 0 57.25 0 58.62 0 86.53 22.63 109.16 50.54 109.16 66.34 109.16 80.43 101.9 89.7 90.55 88.11 89.59 86.6 88.49 85.17 87.28 76.12 95.81 63.96 101.07 50.54 101.07Z" fill="#D73127"/><path d="M116.45 85.93C115.19 86.3 113.92 86.62 112.59 86.85 106.02 87.97 99.57 87.04 93.83 84.58 92.58 86.67 91.22 88.68 89.69 90.55 96.37 94.57 104.39 96.33 112.59 94.93 114.1 94.67 115.55 94.28 116.97 93.84 116.77 93.03 116.61 92.2 116.5 91.36 116.26 89.51 116.27 87.7 116.45 85.93Z" fill="#D73127"/><path d="M140.49 57.18C140.49 57.14 140.48 57.1 140.48 57.06 140.48 57.1 140.48 57.14 140.47 57.18 140.48 57.17 140.48 57.17 140.49 57.18Z" fill="#D73127"/><path d="M89.7 82.47C88.3 84.18 86.78 85.77 85.17 87.28 86.59 88.49 88.1 89.59 89.7 90.55 91.23 88.67 92.59 86.66 93.84 84.58 92.41 83.96 91.02 83.27 89.7 82.47Z" fill="#D73127"/><path d="M162.19 84.37C160.45 94 152.68 101.84 142.45 103.18 133.28 104.39 124.68 100.03 119.99 92.73 119.01 93.14 118.01 93.51 116.98 93.83 119.74 105.15 130.64 112.82 142.45 111.26 155.11 109.59 164.03 97.98 162.36 85.32 162.32 85 162.25 84.69 162.19 84.37Z" fill="#D73127"/><path d="M116.98 85.76C116.8 85.82 116.63 85.88 116.46 85.94 116.28 87.71 116.27 89.52 116.51 91.36 116.62 92.21 116.78 93.03 116.98 93.84 118.01 93.52 119.01 93.15 119.99 92.74 118.64 90.63 117.6 88.29 116.98 85.76Z" fill="#D73127"/><path d="M50.54 8.08C65.04 8.08 78.08 14.22 87.29 24 88.69 23 90.17 22.1 91.73 21.33 82.57 8.44 67.55 0 50.54 0 22.63 0 0 22.63 0 50.54 0 51.9 0.1 53.24 0.2 54.58 2.27 28.56 23.99 8.08 50.54 8.08Z" fill="#F04E3D"/><path d="M50.54 101.07C63.96 101.07 76.12 95.8 85.17 87.27 79.12 82.13 74.74 74.88 73.29 66.36 72.7 62.9 72.64 59.48 73.04 56.18 71.61 43.23 77.38 31.03 87.29 24 78.07 14.22 65.04 8.08 50.54 8.08 23.99 8.08 2.27 28.56 0.21 54.58 2.27 80.59 23.99 101.07 50.54 101.07Z" fill="#F04E3D"/><path d="M73.29 58.29C73.17 57.59 73.11 56.89 73.04 56.19 72.65 59.49 72.7 62.91 73.29 66.37 74.74 74.89 79.12 82.14 85.17 87.28 86.77 85.77 88.3 84.18 89.7 82.47 81.33 77.42 75.09 68.81 73.29 58.29Z" fill="#F04E3D"/><path d="M100.92 26.4C99.09 26.71 97.33 27.21 95.63 27.8 99.09 34.64 101.08 42.35 101.08 50.54 101.08 51.9 100.98 53.24 100.88 54.58 100.99 55.92 101.08 57.26 101.08 58.62 101.08 68.12 98.41 76.98 93.85 84.58 99.59 87.05 106.04 87.97 112.61 86.85 113.93 86.62 115.21 86.3 116.47 85.93 116.53 85.36 116.59 84.78 116.7 84.22 116.64 83.9 116.57 83.59 116.53 83.27 114.86 70.61 123.78 58.99 136.44 57.33 137.81 57.15 139.16 57.12 140.49 57.17 140.49 57.13 140.49 57.09 140.5 57.05 140.42 56.35 140.37 55.65 140.25 54.95 137 36.03 119.4 23.24 100.92 26.4Z" fill="#F04E3D"/><path d="M100.87 54.58C100.03 65.11 96 74.74 89.7 82.47 91.03 83.27 92.42 83.96 93.84 84.58 98.4 76.99 101.07 68.13 101.07 58.62 101.07 57.25 100.98 55.91 100.87 54.58Z" fill="#F04E3D"/><path d="M116.45 85.93C116.63 85.88 116.8 85.81 116.97 85.75 116.85 85.25 116.76 84.73 116.67 84.22 116.58 84.78 116.51 85.36 116.45 85.93Z" fill="#F04E3D"/><path d="M91.73 29.4C92.98 28.78 94.28 28.25 95.62 27.79 94.48 25.53 93.18 23.37 91.73 21.32 90.17 22.1 88.69 23 87.29 24 88.89 25.7 90.37 27.5 91.73 29.4Z" fill="#F04E3D"/><path d="M91.73 29.4C90.38 27.49 88.89 25.69 87.29 23.99 77.38 31.02 71.61 43.22 73.04 56.17 74.42 44.6 81.48 34.49 91.73 29.4Z" fill="#F04E3D"/><path d="M101.07 50.54C101.07 42.35 99.08 34.64 95.62 27.8 94.28 28.26 92.98 28.79 91.73 29.41 96.86 36.63 100.13 45.24 100.87 54.58 100.98 53.24 101.07 51.9 101.07 50.54Z" fill="#F04E3D"/><path d="M91.73 29.4C81.48 34.49 74.42 44.6 73.04 56.18 73.12 56.88 73.17 57.58 73.29 58.28 75.08 68.8 81.33 77.42 89.69 82.46 96 74.73 100.03 65.11 100.86 54.57 100.13 45.24 96.86 36.62 91.73 29.4Z" fill="#F04E3D"/><path d="M140.47 65.25C151.16 65.72 160.31 73.57 162.19 84.37 162.6 82.07 162.68 79.68 162.36 77.24 160.88 65.95 151.48 57.66 140.49 57.17 140.79 59.91 140.79 62.62 140.47 65.25Z" fill="#F04E3D"/><path d="M138.45 65.24C139.13 65.21 139.8 65.22 140.47 65.25 140.79 62.62 140.79 59.91 140.49 57.17 140.48 57.17 140.47 57.17 140.47 57.17 140.13 59.97 139.42 62.67 138.45 65.24Z" fill="#F04E3D"/><path d="M140.47 65.25C138.98 77.44 131.17 87.99 119.99 92.73 124.68 100.03 133.28 104.39 142.45 103.18 152.68 101.84 160.45 94 162.19 84.37 160.31 73.57 151.16 65.72 140.47 65.25Z" fill="#F04E3D"/><path d="M140.47 65.25C139.8 65.22 139.13 65.21 138.45 65.24 134.82 74.87 127.06 82.59 116.97 85.75 117.59 88.28 118.63 90.62 119.98 92.73 131.17 87.99 138.98 77.45 140.47 65.25Z" fill="#F04E3D"/><path d="M136.42 65.41C137.1 65.32 137.78 65.28 138.45 65.25 139.42 62.67 140.12 59.98 140.47 57.18 139.14 57.12 137.79 57.16 136.42 57.34 123.76 59.01 114.84 70.62 116.51 83.28 116.55 83.6 116.63 83.91 116.68 84.23 118.42 74.59 126.19 66.75 136.42 65.41Z" fill="#F04E3D"/><path d="M138.45 65.24C137.78 65.27 137.1 65.31 136.42 65.4 126.19 66.74 118.42 74.58 116.68 84.21 116.77 84.73 116.86 85.24 116.98 85.74 127.06 82.59 134.82 74.88 138.45 65.24Z" fill="#F04E3D"/><g><circle cx="58.2" cy="168.49" r="1.07" fill="#EAA782"/><circle cx="54.08" cy="171.35" r="0.72" fill="#EAA782"/><circle cx="44.97" cy="171.35" r="0.72" fill="#EAA782"/><circle cx="62.76" cy="166.52" r="0.72" fill="#EAA782"/><circle cx="40.87" cy="169.74" r="0.72" fill="#EAA782"/><circle cx="53.35" cy="167.33" r="1.4" fill="#EAA782"/><circle cx="47.6" cy="168.49" r="1.15" fill="#EAA782"/><circle cx="60.85" cy="171.87" r="1.19" fill="#EAA782"/><circle cx="43.06" cy="165.81" r="1.19" fill="#EAA782"/><circle cx="65.12" cy="169.02" r="1.19" fill="#EAA782"/><circle cx="49.56" cy="173.05" r="0.78" fill="#EAA782"/></g><g><circle cx="118.34" cy="169.65" r="1.13" fill="#EAA782"/><circle cx="122.7" cy="172.67" r="0.76" fill="#EAA782"/><circle cx="113.52" cy="167.56" r="0.76" fill="#EAA782"/><circle cx="123.46" cy="168.42" r="1.48" fill="#EAA782"/><circle cx="129.54" cy="169.65" r="1.22" fill="#EAA782"/><circle cx="115.54" cy="173.21" r="1.26" fill="#EAA782"/></g><g><circle cx="132.8" cy="167.18" r="1.13" fill="#EAA782"/><circle cx="137.16" cy="170.21" r="0.76" fill="#EAA782"/><circle cx="127.98" cy="165.1" r="0.76" fill="#EAA782"/><circle cx="137.92" cy="165.95" r="1.48" fill="#EAA782"/><circle cx="144" cy="167.18" r="1.22" fill="#EAA782"/></g><path d="M16.57 48.49C16.57 30.28 31.33 15.52 49.54 15.52" stroke="#F69057" stroke-width="5.6693" stroke-linecap="round" stroke-miterlimit="10" fill="none"/><path d="M111.51 200.9C113.12 197.69 114.05 194.08 114.05 190.24L66.31 190.24C66.31 194.25 67.31 198.02 69.05 201.33 75.87 198.85 83.24 197.5 90.92 197.5 98.12 197.5 105.04 198.71 111.51 200.9Z" fill="#B02029"/><rect x="66.31" y="185.39" width="47.73" height="4.85" fill="#FFFFFF"/><path d="M99.96 210.69 81.87 210.69C79.95 210.69 78.38 209.12 78.38 207.2L78.38 197.49C78.38 195.57 79.95 194 81.87 194L99.96 194C101.88 194 103.45 195.57 103.45 197.49L103.45 207.2C103.46 209.12 101.89 210.69 99.96 210.69Z" fill="#01243A"/><path d="M90.18 214.1C99.52 214.1 107.59 208.72 111.51 200.89 105.05 198.7 98.13 197.49 90.92 197.49 83.24 197.49 75.88 198.84 69.05 201.32 73.05 208.92 81 214.1 90.18 214.1Z" fill="#E12E51"/><g><g><circle cx="54.02" cy="133.23" r="17.84" fill="#FFFFFF" display="none"/><path d="M30.87 124.36 45.71 109.52C38.83 112.01 33.37 117.47 30.87 124.36Z" fill="none"/><path d="M54.1 157.47C67.73 157.47 78.83 146.38 78.83 132.74 78.83 132.71 78.83 132.68 78.83 132.66L54.02 157.47C54.05 157.46 54.07 157.47 54.1 157.47Z" fill="none"/><path d="M73.82 117.89 39.25 152.46C40.32 153.26 41.44 154 42.63 154.62L75.99 121.26C75.35 120.07 74.62 118.95 73.82 117.89Z" fill="none"/><path d="M73.82 117.89C74.62 118.96 75.36 120.08 75.98 121.27L81.82 115.43 83.43 117.04C80.33 111.28 75.58 106.53 69.82 103.43L79.06 112.67 73.82 117.89Z" fill="#01243A"/><path d="M45.71 109.51 55.71 99.51C55.17 99.48 54.64 99.47 54.1 99.47 35.75 99.47 20.83 114.4 20.83 132.74 20.83 133.28 20.85 133.82 20.87 134.35L30.87 124.35C33.37 117.47 38.83 112.01 45.71 109.51Z" fill="#01243A"/><path d="M78.82 132.66C78.82 132.69 78.82 132.72 78.82 132.74 78.82 146.37 67.73 157.47 54.09 157.47 54.06 157.47 54.03 157.47 54.01 157.47L46.37 165.11C48.85 165.7 51.43 166.02 54.09 166.02 72.44 166.02 87.36 151.09 87.36 132.75 87.36 130.09 87.04 127.51 86.45 125.03L78.82 132.66Z" fill="#01243A"/><path d="M39.25 152.46 33.15 158.56C34.18 159.39 35.25 160.17 36.38 160.87L42.63 154.62C41.43 154 40.31 153.26 39.25 152.46Z" fill="#01243A"/><path d="M54.1 108.02C51.15 108.02 48.34 108.57 45.71 109.52L30.87 124.36C29.92 126.98 29.37 129.8 29.37 132.75 29.37 140.8 33.26 147.95 39.24 152.47L73.81 117.9C69.3 111.91 62.16 108.02 54.1 108.02Z" fill="#FFFFFF" opacity="0.67"/><path d="M29.38 132.74C29.38 129.79 29.93 126.98 30.88 124.35L20.88 134.35C21.35 144.1 26.04 152.77 33.15 158.55L39.25 152.45C33.27 147.94 29.38 140.8 29.38 132.74Z" fill="#01243A"/><path d="M54.1 108.02C62.15 108.02 69.3 111.91 73.82 117.89L79.05 112.66 69.81 103.42C65.57 101.14 60.79 99.75 55.72 99.51L45.72 109.51C48.34 108.56 51.15 108.02 54.1 108.02Z" fill="#01243A"/><path d="M42.62 154.62C46.03 156.42 49.9 157.45 54.01 157.46L78.82 132.65C78.81 128.54 77.78 124.67 75.98 121.26L42.62 154.62Z" fill="#FFFFFF" opacity="0.67"/><path d="M75.98 121.26C77.78 124.67 78.81 128.54 78.82 132.65L86.46 125.01C85.79 122.19 84.76 119.51 83.42 117.02L81.81 115.41 75.98 121.26Z" fill="#01243A"/><path d="M42.62 154.62 36.37 160.87C39.41 162.79 42.78 164.24 46.38 165.09L54.02 157.45C49.91 157.45 46.03 156.42 42.62 154.62Z" fill="#01243A"/><circle cx="54.02" cy="132.66" r="5.87" fill="#01243A"/></g><g><circle cx="125.59" cy="133.23" r="17.84" fill="#FFFFFF" display="none"/><path d="M102.45 124.36 117.29 109.52C110.4 112.01 104.94 117.47 102.45 124.36Z" fill="none"/><path d="M125.68 157.47C139.31 157.47 150.41 146.38 150.41 132.74 150.41 132.71 150.41 132.68 150.41 132.66L125.6 157.47C125.62 157.46 125.65 157.47 125.68 157.47Z" fill="none"/><path d="M145.4 117.89 110.83 152.46C111.9 153.26 113.02 154 114.21 154.62L147.57 121.26C146.93 120.07 146.2 118.95 145.4 117.89Z" fill="none"/><path d="M145.4 117.89C146.2 118.96 146.94 120.08 147.56 121.27L153.4 115.43 155.01 117.04C151.91 111.28 147.16 106.53 141.4 103.43L150.64 112.67 145.4 117.89Z" fill="#01243A"/><path d="M117.29 109.51 127.29 99.51C126.75 99.48 126.22 99.47 125.68 99.47 107.33 99.47 92.41 114.4 92.41 132.74 92.41 133.28 92.43 133.82 92.45 134.35L102.45 124.35C104.94 117.47 110.4 112.01 117.29 109.51Z" fill="#01243A"/><path d="M150.4 132.66C150.4 132.69 150.4 132.72 150.4 132.74 150.4 146.37 139.31 157.47 125.67 157.47 125.64 157.47 125.61 157.47 125.59 157.47L117.95 165.11C120.43 165.7 123.01 166.02 125.67 166.02 144.02 166.02 158.94 151.09 158.94 132.75 158.94 130.09 158.62 127.51 158.03 125.03L150.4 132.66Z" fill="#01243A"/><path d="M110.82 152.46 104.72 158.56C105.75 159.39 106.82 160.17 107.95 160.87L114.2 154.62C113.01 154 111.89 153.26 110.82 152.46Z" fill="#01243A"/><path d="M125.68 108.02C122.73 108.02 119.92 108.57 117.29 109.52L102.45 124.36C101.5 126.98 100.95 129.8 100.95 132.75 100.95 140.8 104.84 147.95 110.82 152.47L145.39 117.9C140.88 111.91 133.73 108.02 125.68 108.02Z" fill="#FFFFFF" opacity="0.67"/><path d="M100.95 132.74C100.95 129.79 101.5 126.98 102.45 124.35L92.45 134.35C92.92 144.1 97.61 152.77 104.72 158.55L110.82 152.45C104.84 147.94 100.95 140.8 100.95 132.74Z" fill="#01243A"/><path d="M125.68 108.02C133.73 108.02 140.88 111.91 145.4 117.89L150.63 112.66 141.39 103.42C137.15 101.14 132.37 99.75 127.3 99.51L117.3 109.51C119.91 108.56 122.73 108.02 125.68 108.02Z" fill="#01243A"/><path d="M114.2 154.62C117.61 156.42 121.48 157.45 125.59 157.46L150.4 132.65C150.39 128.54 149.36 124.67 147.56 121.26L114.2 154.62Z" fill="#FFFFFF" opacity="0.67"/><path d="M147.56 121.26C149.36 124.67 150.39 128.54 150.4 132.65L158.04 125.01C157.37 122.19 156.34 119.51 155 117.02L153.39 115.41 147.56 121.26Z" fill="#01243A"/><path d="M114.2 154.62 107.95 160.87C110.99 162.79 114.36 164.24 117.96 165.09L125.6 157.45C121.48 157.45 117.61 156.42 114.2 154.62Z" fill="#01243A"/><circle cx="125.59" cy="132.66" r="5.87" fill="#01243A"/></g><rect x="85.72" y="129.12" width="9.23" height="10.24" fill="#01243A"/><path d="M154.14 126.87C153.59 126.87 153.1 126.49 152.98 125.94 150.42 114.77 141.04 106.55 129.63 105.49 128.97 105.43 128.49 104.85 128.55 104.19 128.61 103.53 129.21 103.05 129.85 103.11 142.29 104.27 152.52 113.23 155.31 125.4 155.46 126.04 155.06 126.68 154.41 126.83 154.32 126.86 154.23 126.87 154.14 126.87Z" fill="#3B5666"/><path d="M80.61 123.29C80.12 123.29 79.66 122.99 79.49 122.5 75.7 112.01 65.63 105.2 54.51 105.51 53.87 105.6 53.3 105.01 53.28 104.35 53.26 103.69 53.78 103.14 54.44 103.12 66.58 102.74 77.59 110.23 81.74 121.69 81.96 122.31 81.64 123 81.02 123.22 80.88 123.27 80.74 123.29 80.61 123.29Z" fill="#3B5666"/></g><circle cx="120.43" cy="40.44" r="5.69" fill="#F69057"/><circle cx="17.52" cy="67.79" r="5.69" fill="#F69057"/><g><rect x="40.53" y="322.67" width="40.44" height="30.99" fill="#050706"/><path d="M82.59 358.13 38.91 358.13C38.4 358.13 37.97 357.71 37.97 357.19L37.97 354.59C37.97 354.08 38.39 353.65 38.91 353.65L82.59 353.65C83.1 353.65 83.53 354.07 83.53 354.59L83.53 357.19C83.53 357.71 83.11 358.13 82.59 358.13Z" fill="#116BB0"/></g><g><rect x="97.66" y="322.67" width="42.74" height="30.99" fill="#050706"/><path d="M142.15 358.13 95.89 358.13C95.38 358.13 94.95 357.71 94.95 357.19L94.95 354.59C94.95 354.08 95.37 353.65 95.89 353.65L142.15 353.65C142.66 353.65 143.09 354.07 143.09 354.59L143.09 357.19C143.09 357.71 142.67 358.13 142.15 358.13Z" fill="#116BB0"/></g><g><g><circle cx="90.92" cy="280.55" r="22.37" fill="#B09DCC"/></g><g><circle cx="90.92" cy="280.55" r="18.69" fill="#C1BDDF"/></g><path d="M98.19 270.35 83.65 270.35C82.3 270.35 81.19 271.46 81.19 272.81 81.19 274.16 82.3 275.27 83.65 275.27L88.46 275.27 88.46 288.3C88.46 289.65 89.57 290.76 90.92 290.76 92.27 290.76 93.38 289.65 93.38 288.3L93.38 275.27 98.19 275.27C99.54 275.27 100.65 274.16 100.65 272.81 100.65 271.46 99.54 270.35 98.19 270.35Z" fill="#FFFFFF"/></g><rect x="44.8" y="441.15" width="33.15" height="3.02" fill="#55768E"/><rect x="102.45" y="441.15" width="33.15" height="2.36" fill="#55768E"/><path d="M62.52 322.67 62.52 353.66 85.24 353.66 85.24 339.33C85.24 336.59 87.49 334.34 90.23 334.34 92.97 334.34 95.22 336.59 95.22 339.33L95.22 353.66 116.49 353.66 116.49 322.67 62.52 322.67Z" fill="#050706"/></svg>