<svg width="126.9" height="75.47" viewBox="0 0 126.9 75.47" xmlns="http://www.w3.org/2000/svg" xmlns:xlink="http://www.w3.org/1999/xlink" overflow="hidden"><defs></defs><g><g><path d="M26.39 72.42C23.86 72.01 21.32 71.56 18.77 71.07 8.62 49.84 0.75 27.51 0 6.21 3.67 5.51 7.31 4.88 10.93 4.3 10.99 26.62 17.63 50.16 26.39 72.42Z" fill="#D3414C"/><path d="M30.16 73C28.9 72.82 27.64 72.62 26.38 72.42 17.62 50.15 10.97 26.62 10.91 4.31 12.72 4.02 14.52 3.75 16.31 3.49 16.14 26.24 22.16 50.29 30.16 73Z" fill="#F3ADA2"/><path d="M37.65 73.98C35.16 73.69 32.66 73.37 30.15 73 22.14 50.29 16.13 26.24 16.29 3.49 19.88 2.97 23.44 2.51 26.98 2.11 26.54 25.59 31.26 50.52 37.65 73.98Z" fill="#D3414C"/><path d="M41.37 74.38C40.13 74.26 38.89 74.13 37.64 73.98 31.25 50.52 26.53 25.59 26.96 2.11 28.73 1.91 30.49 1.72 32.25 1.55 31.77 25.32 35.83 50.62 41.37 74.38Z" fill="#F3ADA2"/><path d="M48.77 74.99C46.31 74.83 43.84 74.62 41.36 74.38 35.82 50.62 31.76 25.33 32.24 1.55 35.76 1.2 39.25 0.92 42.73 0.69 42.29 24.92 45.02 50.77 48.77 74.99Z" fill="#D3414C"/><path d="M52.44 75.2C51.21 75.14 49.98 75.07 48.75 74.99 45 50.77 42.28 24.92 42.71 0.69 44.45 0.58 46.19 0.47 47.92 0.39 47.57 24.77 49.62 50.82 52.44 75.2Z" fill="#F3ADA2"/><path d="M59.79 75.44C57.34 75.4 54.89 75.32 52.43 75.2 49.6 50.82 47.55 24.77 47.91 0.39 51.38 0.22 54.84 0.1 58.29 0.05 58.16 24.61 58.84 50.88 59.79 75.44Z" fill="#D3414C"/><path d="M63.45 75.47C62.23 75.47 61 75.46 59.78 75.44 58.83 50.87 58.15 24.61 58.28 0.04 60 0.01 61.73 0 63.46 0 63.46 24.59 63.46 50.88 63.45 75.47Z" fill="#F3ADA2"/><path d="M70.8 75.35C68.35 75.43 65.9 75.47 63.45 75.47 63.45 50.88 63.45 24.59 63.45 0 66.9 0 70.36 0.06 73.82 0.17 74.06 24.67 72.69 50.85 70.8 75.35Z" fill="#D3414C"/><path d="M74.47 75.2C73.24 75.26 72.01 75.31 70.79 75.35 72.68 50.85 74.05 24.67 73.8 0.17 75.53 0.23 77.26 0.3 79 0.39 79.35 24.77 77.3 50.82 74.47 75.2Z" fill="#F3ADA2"/><path d="M81.84 74.71C79.37 74.91 76.91 75.08 74.45 75.2 77.28 50.82 79.33 24.77 78.97 0.39 82.44 0.56 85.92 0.79 89.42 1.08 89.9 25.1 86.5 50.7 81.84 74.71Z" fill="#D3414C"/><path d="M85.54 74.38C84.3 74.5 83.06 74.61 81.83 74.72 86.49 50.7 89.88 25.1 89.4 1.07 91.15 1.21 92.9 1.37 94.66 1.54 95.15 25.32 91.08 50.62 85.54 74.38Z" fill="#F3ADA2"/><path d="M93 73.52C90.5 73.85 88.01 74.13 85.53 74.38 91.06 50.62 95.13 25.33 94.64 1.55 98.16 1.89 101.69 2.3 105.25 2.76 105.59 25.89 100.22 50.41 93 73.52Z" fill="#D3414C"/><path d="M96.75 73C95.49 73.18 94.24 73.36 92.99 73.52 100.2 50.41 105.58 25.89 105.24 2.75 107.02 2.98 108.81 3.23 110.6 3.48 110.77 26.24 104.76 50.29 96.75 73Z" fill="#F3ADA2"/><path d="M104.31 71.78C101.77 72.23 99.24 72.64 96.73 73.01 104.74 50.3 110.75 26.24 110.58 3.49 114.17 4.01 117.78 4.59 121.42 5.22 121.06 27.04 113.79 50 104.31 71.78Z" fill="#D3414C"/><path d="M108.12 71.07C106.84 71.32 105.57 71.55 104.3 71.78 113.78 50.01 121.04 27.04 121.41 5.22 123.23 5.54 125.06 5.87 126.9 6.22 126.15 27.51 118.28 49.84 108.12 71.07Z" fill="#F3ADA2"/></g></g></svg>