<svg id="Layer_1" data-name="Layer 1" xmlns="http://www.w3.org/2000/svg" viewBox="0 0 408.03 38.37"><defs><style>.cls-1{fill:#414042;}</style></defs><title>Hero Text</title><path class="cls-1" d="M210.26.84V8.08h-17.1v8h16.26v7.23H193.16V37.74h-8.23V.84Z"/><path class="cls-1" d="M245.57,13.09q0,8.86-7,11.45l9.35,13.2H237.76L229.58,26h-5.7V37.74h-8.23V.84h14q8.6,0,12.27,2.91T245.57,13.09Zm-9.92,4.38a5.57,5.57,0,0,0,1.53-4.35c0-2-.53-3.36-1.58-4.1s-2.9-1.1-5.54-1.1h-6.18V18.84h6C232.71,18.84,234.63,18.39,235.65,17.47Z"/><path class="cls-1" d="M252.43.84h8.24v36.9h-8.24Z"/><path class="cls-1" d="M294.76.84V8.18H276.4v7.6h16.52v7H276.4v7.65h19v7.29H268.16V.84Z"/><path class="cls-1" d="M326.91.84h8.23v36.9h-8.23L309.33,14.62V37.74H301.1V.84h7.7L326.91,24.6Z"/><path class="cls-1" d="M370.82,5.67q5.28,4.83,5.28,13.44T371,32.72q-5.15,5-15.7,5H342.64V.84h13Q365.54.84,370.82,5.67Zm-6,21.93q3-2.85,3-8.28t-3-8.37Q361.74,8,355.46,8h-4.59V30.45h5.22C359.86,30.45,362.75,29.5,364.78,27.6Z"/><path class="cls-1" d="M390,8.21a3.18,3.18,0,0,0-1.19,2.58,2.91,2.91,0,0,0,1.45,2.56c1,.64,3.2,1.38,6.7,2.25a18.83,18.83,0,0,1,8.16,3.88c1.93,1.72,2.9,4.24,2.9,7.54a10,10,0,0,1-3.72,8.05q-3.72,3.09-9.79,3.09a22.65,22.65,0,0,1-15.78-6.49l4.91-6q6,5.24,11,5.23a5.79,5.79,0,0,0,3.56-1,3.14,3.14,0,0,0,1.29-2.64,3.06,3.06,0,0,0-1.37-2.64,17.93,17.93,0,0,0-5.44-2q-6.44-1.53-9.42-4c-2-1.64-3-4.21-3-7.71a9.54,9.54,0,0,1,3.78-8.1A15.16,15.16,0,0,1,393.52,0a22.57,22.57,0,0,1,7.39,1.27,19.56,19.56,0,0,1,6.43,3.59l-4.16,6a16.25,16.25,0,0,0-9.93-3.64A5,5,0,0,0,390,8.21Z"/><path class="cls-1" d="M21.26,7.12V35.3a2,2,0,0,0,.35,1.28,2.56,2.56,0,0,0,1.27.71v.87H12.1v-.87a2.52,2.52,0,0,0,1.26-.71,2,2,0,0,0,.36-1.28V7.12H3a1.66,1.66,0,0,0-1.17.37,2.81,2.81,0,0,0-.66,1.37H.35V-.76h.81A3.09,3.09,0,0,0,1.83.61,1.64,1.64,0,0,0,3,1H32A1.67,1.67,0,0,0,33.15.61a2.81,2.81,0,0,0,.66-1.37h.81V8.86h-.81a2.81,2.81,0,0,0-.66-1.37A1.67,1.67,0,0,0,32,7.12Z"/><path class="cls-1" d="M39.68,35.3V3.82a1.92,1.92,0,0,0-.35-1.25,2.56,2.56,0,0,0-1.27-.71V1H48.85v.87a2.34,2.34,0,0,0-1.27.69,2,2,0,0,0-.35,1.27V35.3a2.05,2.05,0,0,0,.36,1.3,2.42,2.42,0,0,0,1.26.69v.87H38.06v-.87a2.56,2.56,0,0,0,1.27-.71A2,2,0,0,0,39.68,35.3Z"/><path class="cls-1" d="M73.19,7.12V35.3a2,2,0,0,0,.36,1.28,2.52,2.52,0,0,0,1.26.71v.87H64v-.87a2.56,2.56,0,0,0,1.27-.71,2,2,0,0,0,.35-1.28V7.12H54.92a1.63,1.63,0,0,0-1.16.37,2.81,2.81,0,0,0-.66,1.37h-.81V-.76h.81A3,3,0,0,0,53.77.61,1.59,1.59,0,0,0,54.92,1h29A1.7,1.7,0,0,0,85.09.61a2.81,2.81,0,0,0,.66-1.37h.81V8.86h-.81a2.81,2.81,0,0,0-.66-1.37,1.7,1.7,0,0,0-1.19-.37Z"/><path class="cls-1" d="M111.43,28.68H95.73l-2.32,5.23a4.65,4.65,0,0,0-.48,1.72c0,.8.56,1.35,1.69,1.66v.87H83.19v-.87a3,3,0,0,0,1.54-.76A7.58,7.58,0,0,0,86,34.4L98.65,5.83a5.62,5.62,0,0,0,.61-2.17,1.88,1.88,0,0,0-1.47-1.8V1H110v.87c-1,.31-1.49.84-1.49,1.61A4.25,4.25,0,0,0,109,5.26l13.16,28.65a9.78,9.78,0,0,0,1.47,2.49,3.14,3.14,0,0,0,1.69.89v.87H112.64v-.87c1.11-.2,1.67-.76,1.67-1.69a4.76,4.76,0,0,0-.5-1.69Zm-2.17-5.09-5.6-13.24L98,23.59Z"/><path class="cls-1" d="M136.82,12.7V35.3a2,2,0,0,0,.35,1.28,2.56,2.56,0,0,0,1.27.71v.87H128.29v-.87a2.56,2.56,0,0,0,1.27-.71,2,2,0,0,0,.35-1.28V3.82a2,2,0,0,0-.35-1.25,2.56,2.56,0,0,0-1.27-.71V1H140v.87A1.25,1.25,0,0,0,139,3.11a2.28,2.28,0,0,0,.7,1.45l19.06,21.32V3.82a2,2,0,0,0-.35-1.25,2.56,2.56,0,0,0-1.27-.71V1h10.15v.87a2.56,2.56,0,0,0-1.27.71,2,2,0,0,0-.35,1.25V35.3a2,2,0,0,0,.35,1.28,2.56,2.56,0,0,0,1.27.71v.87H156.36v-.87c.71-.16,1.06-.55,1.06-1.17,0-.36-.41-1-1.24-1.91Z"/></svg>