<?xml version="1.0" encoding="utf-8"?>
<!-- Generator: Adobe Illustrator 24.0.1, SVG Export Plug-In . SVG Version: 6.00 Build 0)  -->
<svg version="1.1" id="Layer_1" xmlns="http://www.w3.org/2000/svg" xmlns:xlink="http://www.w3.org/1999/xlink" x="0px" y="0px"
	 viewBox="0 0 582.2 189.6" style="enable-background:new 0 0 582.2 189.6;" xml:space="preserve">
<style type="text/css">
	.st0{fill:#252B3D;}
	.st1{fill:#E18C53;}
	.st2{fill:#71B577;}
	.st3{fill:#272A41;}
	.st4{fill:#E48A4E;}
	.st5{fill:#373340;}
	.st6{fill:#E08850;}
	.st7{fill:#EA8947;}
	.st8{fill:#E88A4C;}
	.st9{fill:#224630;}
	.st10{fill:#B8917D;}
	.st11{fill:#472617;}
	.st12{fill:#E98A4B;}
	.st13{fill:#202D45;}
	.st14{fill:#D78755;}
	.st15{fill:#452D27;}
	.st16{fill:#E98A4A;}
	.st17{fill:#BB937F;}
	.st18{fill:#A78D84;}
	.st19{fill:#C99273;}
	.st20{fill:#2E3040;}
	.st21{fill:#B7907E;}
	.st22{fill:#7DA48B;}
	.st23{fill:#BF937C;}
	.st24{fill:#1B392D;}
	.st25{fill:#B39080;}
	.st26{fill:#B18976;}
	.st27{fill:#452619;}
	.st28{fill:#F3DAB4;}
	.st29{fill:#F3D9B4;}
	.st30{fill:#282C3C;}
	.st31{fill:#2F2F3D;}
	.st32{fill:#F2D5AE;}
	.st33{fill:#EA8A49;}
	.st34{fill:#F3D3AC;}
	.st35{fill:#253046;}
	.st36{fill:#1C2D47;}
	.st37{fill:#EB8948;}
	.st38{fill:#DE864C;}
	.st39{fill:#BB886C;}
	.st40{fill:#C39276;}
	.st41{fill:#EA8A4A;}
	.st42{fill:#BB927C;}
	.st43{fill:#64371D;}
	.st44{fill:#4C3B3B;}
	.st45{fill:#7CA28C;}
	.st46{fill:#456254;}
	.st47{fill:#7AA586;}
	.st48{fill:#272D3E;}
	.st49{fill:#DFD6CB;}
	.st50{fill:#38373E;}
	.st51{fill:#592A12;}
	.st52{fill:#474348;}
	.st53{fill:#242B3D;}
	.st54{fill:#232836;}
	.st55{fill:#252A36;}
	.st56{fill:#FFFFFF;}
	.st57{fill:#EEB258;}
	.st58{fill:#2E303E;}
	.st59{fill:#2F3144;}
	.st60{fill:#282B37;}
	.st61{fill:#1D2C4B;}
	.st62{fill:#8B8176;}
	.st63{fill:#1E2C47;}
	.st64{fill:#D9B481;}
	.st65{fill:#252C3E;}
	.st66{fill:#242732;}
	.st67{fill:#C5AB8A;}
	.st68{fill:#F8F8F9;}
	.st69{fill:#F7F6F7;}
	.st70{fill:#282D3C;}
	.st71{fill:#F2A368;}
	.st72{fill:#FDDD4E;}
	.st73{fill:#262C3D;}
	.st74{fill:#FAF9F8;}
	.st75{fill:#EC9F67;}
	.st76{fill:#FBFAFA;}
	.st77{fill:#2D2E3B;}
	.st78{fill:#2A2F42;}
	.st79{fill:#232C46;}
	.st80{fill:#272C35;}
	.st81{fill:#262D43;}
	.st82{fill:#292F44;}
	.st83{fill:#272F4C;}
	.st84{fill:#232B44;}
	.st85{fill:#2A2C37;}
	.st86{fill:#1F2D45;}
	.st87{fill:#202C46;}
	.st88{fill:#2E3043;}
	.st89{fill:#282C34;}
	.st90{fill:#3B3416;}
	.st91{fill:#4B3F18;}
	.st92{fill:#282D42;}
	.st93{fill:#1F2C48;}
	.st94{fill:#E3D691;}
	.st95{fill:#292B33;}
	.st96{fill:#222B48;}
	.st97{fill:#222B45;}
	.st98{fill:#272C37;}
	.st99{fill:#202B49;}
	.st100{fill:#222B44;}
	.st101{fill:#F4D64B;}
	.st102{fill:#222B47;}
	.st103{fill:#D5CA8E;}
	.st104{fill:#F1DD7C;}
	.st105{fill:#39231B;}
	.st106{fill:#53392E;}
	.st107{fill:#38241E;}
	.st108{fill:#442617;}
	.st109{fill:#212B48;}
	.st110{fill:#442719;}
	.st111{fill:#212C46;}
	.st112{fill:#212B47;}
	.st113{fill:#222B46;}
	.st114{fill:#1E2B4C;}
	.st115{fill:#1D2E47;}
	.st116{fill:#212B46;}
	.st117{fill:#1E2D47;}
	.st118{fill:#4D3021;}
	.st119{fill:#372725;}
	.st120{fill:#4D4624;}
	.st121{fill:#5F371D;}
	.st122{fill:#B79584;}
	.st123{fill:#362522;}
	.st124{fill:#382724;}
	.st125{fill:#444342;}
	.st126{fill:#D7A888;}
	.st127{fill:#382825;}
	.st128{fill:#794929;}
	.st129{fill:#3F2517;}
	.st130{fill:#2A262D;}
	.st131{fill:#B69687;}
	.st132{fill:#D9CE92;}
	.st133{fill:#544D25;}
	.st134{fill:#D69262;}
	.st135{fill:#E3D894;}
	.st136{fill:#ECDA88;}
	.st137{fill:#FFFDFE;}
	.st138{fill:#FEFEFE;}
	.st139{fill:#262C3E;}
	.st140{fill:#252C3D;}
	.st141{fill:#2C3143;}
	.st142{fill:#1C2C46;}
	.st143{fill:#323040;}
	.st144{fill:#F8A160;}
	.st145{fill:#3F353B;}
	.st146{fill:#282C37;}
	.st147{fill:#2A2D3A;}
	.st148{fill:#522D18;}
	.st149{fill:#D2A890;}
	.st150{fill:#213049;}
	.st151{fill:#3E393F;}
	.st152{fill:#CEA48A;}
	.st153{fill:#4D362D;}
	.st154{fill:#CDA892;}
	.st155{fill:#CD8C5E;}
	.st156{fill:#202D47;}
	.st157{fill:#C49C85;}
	.st158{fill:#C3A08D;}
	.st159{fill:#42383D;}
	.st160{fill:#D9A888;}
	.st161{fill:#3F271D;}
	.st162{fill:#D5A88D;}
	.st163{fill:#FBDC41;}
	.st164{fill:#FBDE57;}
	.st165{fill:#353015;}
	.st166{fill:#2A314B;}
	.st167{fill:#E9D67E;}
	.st168{fill:#C2BA89;}
	.st169{fill:#DCD29E;}
	.st170{fill:#EFDB7E;}
	.st171{fill:#D9CFA0;}
	.st172{fill:#4F4826;}
	.st173{fill:#4F4725;}
	.st174{fill:#C9BD84;}
	.st175{fill:#1D2D49;}
	.st176{fill:#202C49;}
	.st177{fill:#1E2D46;}
	.st178{fill:#202D43;}
	.st179{fill:#2B2F42;}
	.st180{fill:#B0AA8B;}
	.st181{fill:#292F3E;}
	.st182{fill:#2F333F;}
	.st183{fill:#272E3E;}
	.st184{fill:#2A2F39;}
	.st185{fill:#2B3036;}
	.st186{fill:#262B32;}
	.st187{fill:#1F242F;}
	.st188{fill:#1E232B;}
	.st189{fill:#2D3342;}
	.st190{fill:#F9D60B;}
	.st191{fill:#F3D113;}
	.st192{fill:#F9F9F9;}
	.st193{fill:#F5F5F6;}
	.st194{fill:#2A2F3A;}
	.st195{fill:#262E4D;}
	.st196{fill:#293147;}
	.st197{fill:#2C3138;}
	.st198{fill:#E4E4E7;}
	.st199{fill:#34374A;}
	.st200{fill:#33373B;}
	.st201{fill:#D5CA75;}
	.st202{fill:#1E2B50;}
	.st203{fill:#20232F;}
	.st204{fill:#202B4B;}
	.st205{fill:#1F2B4C;}
	.st206{fill:#59534E;}
	.st207{fill:#2F3246;}
	.st208{fill:#232C45;}
	.st209{fill:#2B3044;}
	.st210{fill:#2F343E;}
	.st211{fill:#343947;}
	.st212{fill:#2F3545;}
	.st213{fill:#4A4223;}
	.st214{fill:#DFCE60;}
	.st215{fill:#343746;}
	.st216{fill:#2D3449;}
	.st217{fill:#1E2A53;}
	.st218{fill:#292D38;}
	.st219{fill:#1B2234;}
	.st220{fill:#79BA6A;}
	.st221{fill:#27323F;}
	.st222{fill:#293640;}
	.st223{fill:#75B468;}
	.st224{fill:#76B966;}
	.st225{fill:#EEEEF0;}
	.st226{fill:#272E40;}
	.st227{fill:#76BB64;}
	.st228{fill:#1C3E1E;}
	.st229{fill:#292845;}
	.st230{fill:#74B664;}
	.st231{fill:#272843;}
	.st232{fill:#82AA85;}
	.st233{fill:#292746;}
	.st234{fill:#272842;}
	.st235{fill:#6A8A70;}
	.st236{fill:#244927;}
	.st237{fill:#272F43;}
	.st238{fill:#1A3821;}
	.st239{fill:#DDDDE0;}
	.st240{fill:#81AB83;}
	.st241{fill:#1A2D2A;}
	.st242{fill:#1B3C1E;}
	.st243{fill:#292748;}
	.st244{fill:#254B27;}
	.st245{fill:#19381F;}
	.st246{fill:#7B9B83;}
	.st247{fill:#7DA37F;}
	.st248{fill:#7FA287;}
	.st249{fill:#84A48B;}
	.st250{fill:#1A2F28;}
	.st251{fill:#81A388;}
	.st252{fill:#1C3C1F;}
	.st253{fill:#282744;}
	.st254{fill:#1B3924;}
	.st255{fill:#7CA77C;}
	.st256{fill:#C9CCD4;}
	.st257{fill:#7B9882;}
	.st258{fill:#849892;}
	.st259{fill:#2A522A;}
	.st260{fill:#1B3D20;}
	.st261{fill:#FDFDFD;}
	.st262{fill:#76BB63;}
	.st263{fill:#394B4A;}
	.st264{fill:#75BC62;}
	.st265{fill:#76BC62;}
	.st266{fill:#234926;}
	.st267{fill:#25333B;}
	.st268{fill:#85AA89;}
	.st269{fill:#7EA781;}
	.st270{fill:#76BB62;}
	.st271{fill:#24452A;}
	.st272{fill:#7FBB72;}
	.st273{fill:#7EA283;}
	.st274{fill:#75BC61;}
	.st275{fill:#81A387;}
	.st276{fill:#19351F;}
	.st277{fill:#81A088;}
	.st278{fill:#2E3648;}
	.st279{fill:#779182;}
	.st280{fill:#84A28C;}
	.st281{fill:#81AC81;}
	.st282{fill:#242832;}
	.st283{fill:#152C21;}
	.st284{fill:#292D36;}
	.st285{fill:#F0B5D2;}
	.st286{fill:#FDFCFD;}
	.st287{fill:#DDABC5;}
	.st288{fill:#FFFEFF;}
	.st289{fill:#272E3F;}
	.st290{fill:#272D3F;}
	.st291{fill:#EDEEF0;}
	.st292{fill:#4B5F6A;}
	.st293{fill:#EEB158;}
	.st294{fill:#495C68;}
	.st295{fill:#495C67;}
	.st296{fill:#EEAD4B;}
	.st297{fill:#EDAD4F;}
	.st298{fill:#D2AE7E;}
	.st299{fill:#2C2C3D;}
	.st300{fill:#3A2817;}
	.st301{fill:#1F2B48;}
	.st302{fill:#384352;}
	.st303{fill:#D5B282;}
	.st304{fill:#2E2A2A;}
	.st305{fill:#5E5959;}
	.st306{fill:#262D3F;}
	.st307{fill:#F7B9AB;}
	.st308{fill:#F7B8AA;}
	.st309{fill:#414042;}
</style>
<g>
	<path class="st0" d="M106.8,78c-1.1-1-2.6-1-3.9-1.4c-4.8-1.6-7.1-4.9-5.9-8.7c1.3-4.2,5.4-5.9,10.3-4.5c2.3,0.7,3.6,2.2,4.8,4.2
		c3.5-3.1,7.3-4.6,11.9-3.7c3,0.6,4.9,2.7,5.2,5.6c0.3,2.5-1.4,4.9-4.1,6.2c-2.6,1.2-5.2,1.6-8,1.4c-0.5,0-1.2-0.4-1.4,0.4
		c-0.1,0.7,0.5,0.9,1.1,0.9C122,78.9,127,80.3,132,82c1,0.3,1.7,0.1,2.5-0.3c2.3-1,4.6-1.3,7.1-0.8c7,1.4,9.6,8.1,5.3,13.8
		c-0.9,1.1-0.9,1.8,0,2.8c3.9,4.5,5.2,10,5.2,15.6c0,9.4-4.1,16.9-11.8,22.4c-1.6,1.2-3.2,2.4-5.3,3.3c1.9,2.7,4.3,5.1,5.9,7.9
		c3.4,5.7,5.7,11.8,5,18.5c-0.5,4.7-2.3,6.5-7,7.4c-0.7,0.1-1,0.5-1.2,1c-1.5,2.7-3.4,5.1-5.4,7.4c-1.4,1.6-1.8,3.5-1.3,5.4
		c0.5,2.2-0.6,3.3-2.4,3.6c-4.1,0.7-8.2,0.6-12.3,0.3c-1.7-0.1-2.8-1.2-2.3-3.2c0-0.2,0.1-0.3,0.1-0.5c0.6-4.2-1.1-5.8-5.2-4.8
		c-1.7,0.4-1.3,2.1-1.3,3.2c0.2,4-0.3,4.7-4.3,5.2c-3.2,0.4-6.4,0.2-9.6-0.3c-1.1-0.2-2.3-0.6-2.6-1.9c-0.6-2.5-2.1-4.5-3.6-6.5
		c-2-2.8-2.8-5.9-3.5-9.2c-0.1-0.8-0.3-1.2-1.2-1.4c-4.9-1.3-6.6-3.4-6.6-8.5c0-5.7,2.1-10.7,5.1-15.4c1.5-2.4,3.1-4.7,4.9-6.9
		c0.9-1.2,0.8-1.5-0.6-2.1c-2.8-1.4-5.6-2.9-8.2-4.7c-5.9-4.1-8.8-10-9.4-17c-0.8-8.5,0.7-16.4,6.3-23.1c0.7-0.8,0.4-1.4,0.1-2.2
		c-0.6-2-0.7-4.1,0-6.2c1.7-4.9,6.3-7,11.8-4.7c2.8,1.1,5,0.9,7.5,0.1c3.8-1.2,7.7-1.6,11.7-1.8C105.7,78.5,106.4,78.7,106.8,78z"/>
	<path class="st1" d="M117.6,182.1c-0.1-1.1,1-1.1,1.5-1.6c0.5-0.5,1.2-1,0.7-1.8c-0.5-0.7-1.4-0.5-2-0.3c-3,1.1-6.1,0.9-9.3,0.8
		c-1.4,0-2.9-0.2-4.2-0.9c0.1-0.2,0.3-0.3,0.5-0.5c-0.4-0.1-0.6,0.2-0.9,0.4c-0.8,0.3-2-0.7-2.3,0.5c-0.2,0.8,0.9,1.1,1.5,1.7
		c1.6,1.7,0.7,3.8,0.6,5.6c0,1.3-1.7,0.8-2.6,0.9c-1.3,0.1-2.6,0-3.9,0.1c-2,0.1-3.2-0.7-4.5-2.4c-2.9-3.8-5-7.8-5.3-12.6
		c-0.1-0.2-0.1-0.5,0-0.7c0.5-3.7,0.6-7.5,0-11.2c-0.1-0.2-0.2-0.5,0-0.7c0-0.9,0.1-1.8,0.1-2.7c0.3-1.2,0.3-2.4,0.9-3.5
		c0-0.2,0.1-0.3,0.1-0.5c0.5-0.7-0.1-1.7,0.4-2.4c0.2-0.5,0.4-1,0.5-1.5c0.3-1.6,0.2-3.4,1.3-4.8c0.1-0.1,0.2-0.3,0.2-0.4
		c0.1-0.2,0-0.3-0.1-0.1c-0.7,1.3-1.1,2.8-2.4,3.8c-0.7,0.8-0.6,1.9-1.1,2.7c-0.3,0.7-0.3,1.5-0.9,2.1c-0.1,0.1-0.1,0.2-0.1,0.4
		c-0.2,0.7-0.4,1.4-0.8,2c-0.3,0.8-0.7,1.7-1,2.5c-0.1-0.1-0.3-0.2-0.3-0.3c-0.5,0.5,0,0.8,0.2,1.2c-0.4,0.6-0.4,1.3-0.4,2
		c-0.2,0.1-0.3,0.3-0.5,0.4c-0.5,0.7-0.4,1.4-0.1,2.1c0,0.1,0.1,0.2,0.1,0.3c0,0.9,0,1.8-0.1,2.6c-0.1,0.7,0.4,1.6-0.4,2
		c-0.8,0.4-1.8,0-2.5-0.5c-0.7-0.5-1.4-1.1-1.6-2c-0.5-3-1-6,0.6-8.9c0.1,0.1,0,0,0,0c1.8-6.3,5.7-11.4,9.9-16.3
		c0.3-0.4,0.7-0.7,1-1c0.9-0.9,1-1.5-0.5-2c-4.8-1.7-9.3-4-13.1-7.5c-2.4-2.2-4.3-4.7-5.1-7.9c0.4-1.2,0.8-2.4-0.2-3.5
		c-0.3-0.1-0.6-0.1-0.7-0.4c-0.1-2.6-0.3-5.2,0-7.7c0.7-1.2,0.5-2.7,0.8-4c0.5-4.4,2.7-8,5.4-11.3c0.9-1.2,1.6-2,0.7-3.7
		c-1.2-2.3-0.4-5.2,1.2-6.4c1.5-1.1,5.1-1,7.1,0.6c1.1,0.9,1.8,0.7,3,0.3c3.2-0.9,6.4-2.3,9.8-2.5c2.3,0.5,4.5,0.6,6.8,0.1
		c3.1,1.8,6.3,1.4,9.5,0.1c1.4-0.6,2.7-1,4.1-0.2c-0.2,0.2-0.5,0.4-0.8,0.5c0.3-0.1,0.6-0.2,0.8-0.5c4.3,0.2,8.3,1.9,12.3,3.4
		c1.9,0.7,3.2,0.9,4.7-0.5c0.6-0.5,1.4,0.1,1.9-0.5c2.7-1.4,4.1,0.5,5.5,2.2c1.7,2,0.6,3.9-0.6,5.6c-2.2,3.2-2.2,3.2,0.2,6.4
		c1.4,2,2.9,4,3.1,6.6c-0.2,0.2-0.4,0.5-0.4,0.8c0.3,0,0.3-0.4,0.5-0.4c1,1.6,1,3.5,1,5.3c1.1,2.5,0.7,5,0,7.5
		c-1,5-3.7,8.9-7.7,12.1c-3.1,2.4-6.2,4.7-10,6c-0.9,0.3-1,1-0.3,1.7c0.9,0.9,1.9,1.7,2.8,2.6c4.9,5.5,8.7,11.6,10.2,19
		c0.4,1.9,0.2,3.9-0.3,5.7c-0.2,0.9-0.8,1.6-1.6,2.1c-1.4,0.8-2.4,1-2.5-1.2c-0.2-6.5-2.9-12.4-4.9-18.5c-0.4-1.3-0.9-2.6-2.1-3.4
		c-0.1-0.1-0.3-0.2-0.4-0.2c-0.2-0.2-0.5-0.4-0.7-0.6c0,0.4,0.3,0.6,0.3,0.9c-0.8,1.3,0.4,2.2,0.7,3.3c0.9,3.3,2,6.5,3,9.7
		c0.2,0.3,0.4,0.6,0.4,1c0.1,1.1-0.1,2.3,0.1,3.4c0.1,0.2,0.2,0.4,0.3,0.6c0,4,0.4,8-1.8,11.7c-0.6,1-1.4,1.9-2.2,2.7
		c-2.2,2.2-3.4,4.7-3.7,7.8c-0.2,2.6-2.3,1.7-3.8,1.9c-1.3-0.7-2.6-0.7-3.8,0c-0.3,0-0.7,0-1,0C117.4,185.5,118.3,183.7,117.6,182.1
		z"/>
	<path class="st2" d="M112.8,79.5c0.4,0.8,0.5,1.5-0.7,1.7c-1.2,0.2-2.4-0.2-3.5-0.5c-0.6-0.2-1.1-1-0.2-1.1
		c1.9-0.2,1.5-1.4,1.4-2.6c-0.2-1.6-1.2-2.3-2.7-2.5c-0.2-0.1-0.4-0.2-0.6-0.3c-0.8-0.3-1.8,0.1-2.5-0.6c-1.1,0.1-2-0.4-2.9-1
		c-1.2-0.9-1.9-2.3-1.7-3.8c0.1-1.5,1.4-2.2,2.7-2.7c3-1,6.5,0.7,7.7,3.8c0.4,1.1,0.9,2,1.7,3.2c1.7-2,3.5-3.8,5.8-5
		c1.5-0.7,2.9-1.3,4.6-1.2c1.8,0.1,2.9,1.1,3.5,2.7c0.6,1.7-0.6,2.6-1.9,3.4c-0.3,0.2-0.6,0.5-1,0.7c-0.2,0.2-0.5,0.3-0.7,0.4
		c-1.9,0.3-3.7,0.1-5.6,0.2c-2.8,0.4-3.2,0.8-3.2,3.5C112.9,78.3,113.1,78.9,112.8,79.5z"/>
	<path class="st3" d="M112.8,79.5c-1.5-3.1-0.5-5.3,2.7-5.7c0.2,0.1,0.4,0.3,0.7,0.3c2,0.4,4.2-0.4,6.2,0.5c-0.1,0.8-0.6,1-1.3,1
		c-1.1,0-2.2,0-3.4,0c-2.3-0.1-4.7-0.5-4.1,3.2C113.7,79.2,113.2,79.4,112.8,79.5z"/>
	<path class="st4" d="M106,82.5c-1.5,1.3-5.5,1.3-6.8-0.1c0,0,0,0,0,0c1.1-0.4,2.3-0.1,3.5-0.2c0.3,0,0.5-0.1,0.2-0.1
		c0,0,0-0.1,0-0.2C104.1,81,105,81.9,106,82.5z"/>
	<path class="st5" d="M88.5,147.3c0.5-1.8,1.4-3.3,2.4-4.9c1.3,0.1,0.6,0.9,0.5,1.5c-0.6,1.6-1.3,3.2-1.9,4.8
		C89.5,148.1,89.6,147.3,88.5,147.3z"/>
	<path class="st6" d="M72,117.3c0.1-0.4,0.7-1.1,0.7-0.6c0.2,1.4,1.2,3.2-0.7,4.4c-0.1-0.1-0.1-0.2-0.1-0.4
		C71.7,119.6,71.6,118.4,72,117.3z"/>
	<path class="st7" d="M117.6,182.1c2.1,1.3,0.5,3.3,1,4.9c-0.4,0.1-0.8,0.1-1-0.4C117.3,185.1,117.2,183.6,117.6,182.1L117.6,182.1z
		"/>
	<path class="st8" d="M119.5,187c1.3-1.6,2.6-1.6,3.8,0C122.1,187.3,120.8,187.2,119.5,187z"/>
	<path class="st9" d="M122.4,74.6c-2.2-0.2-4.6,0.7-6.7-0.5c2.1-0.5,4.2,0.2,6.3-0.4c0.1,0,0.2,0,0.4,0
		C122.4,74,122.4,74.3,122.4,74.6z"/>
	<path class="st10" d="M87.5,159.3c0.1,0.2,0.1,0.4,0.2,0.6c0.7,1.8,0.5,3.7,0.2,5.6c-0.2,0.3-0.4,0.4-0.7,0.2
		C87.1,163.5,86.8,161.4,87.5,159.3z"/>
	<path class="st11" d="M134.1,158.9c0-0.3,0-0.7,0.1-1c1.8,1.4,0.5,3.3,0.9,4.9c-0.1-0.1-0.2-0.1-0.4-0.2
		C133.8,161.5,134.8,160.1,134.1,158.9z"/>
	<path class="st12" d="M104,178.3c0.5-1.6,1.6-0.8,2.9-0.7c-0.8,1-1.8,0.6-2.5,0.8c0,0-0.2,0-0.2,0L104,178.3z"/>
	<path class="st13" d="M76.4,89.3c-0.7-1.2-0.5-2-0.1-3.2C77.1,87.3,77,88,76.4,89.3z"/>
	<path class="st14" d="M72,105.5c-0.3,1.3,0.9,3-0.8,4C71.1,108.1,71.3,106.7,72,105.5z"/>
	<path class="st15" d="M130.5,144.9c-1.1-0.3-1-1.2-1.2-2.3c1.1,0.5,1.8,1.1,1.9,2.2C131,144.9,130.8,144.9,130.5,144.9z"/>
	<path class="st16" d="M84.6,157.9c-1.7-0.6-0.6-1.7-0.9-2.8c1.3,0.5,0.8,1.4,1,1.9C84.7,157.4,84.6,157.6,84.6,157.9z"/>
	<path class="st17" d="M102.8,81.9c0.1,0.2,1,0.2,0.4,0.4c-1.3,0.3-2.7,0.1-4,0.1C100.3,81.7,101.6,81.9,102.8,81.9z"/>
	<path class="st18" d="M117.5,182.1c0,1.5,0,3,0,4.5C116.8,185.1,116.9,183.6,117.5,182.1z"/>
	<path class="st19" d="M87.1,165.6c0.1,0,0.3,0,0.4,0c0.9,1.2,0.5,2.4,0.3,3.7c-0.2,0.3-0.4,0.4-0.7,0.3
		C86.8,168.3,86.9,167,87.1,165.6z"/>
	<path class="st20" d="M88.5,153.1c0,1.2-0.3,2.4-0.9,3.5C87.5,155.3,87.4,154.1,88.5,153.1z"/>
	<path class="st21" d="M72,117.3c0,1.2,0,2.3,0,3.5c-0.7-1.1-0.4-2.4-0.8-3.5C71.4,117.3,71.7,117.3,72,117.3z"/>
	<path class="st5" d="M86.6,152.1c-0.1-0.9,0.2-1.6,0.9-2.1C87.4,150.8,88,151.9,86.6,152.1z"/>
	<path class="st22" d="M103.9,73.7c1,0.1,2.1-0.5,2.9,0.5c-1,0.2-1.9,0.4-2.8-0.1C104,73.9,104,73.8,103.9,73.7z"/>
	<path class="st23" d="M83.7,159.9c0.2,0,0.3,0.1,0.5,0.1c0,1,0.1,1.9-0.4,2.8c0,0-0.1,0-0.1,0C83,161.8,83,160.8,83.7,159.9z"/>
	<path class="st24" d="M104.1,74c0.9,0,1.9,0.1,2.8,0.1c0.1,0.1,0.1,0.3,0.2,0.4C106.1,74.5,104.9,75.1,104.1,74z"/>
	<path class="st20" d="M85.7,154.5c0-0.8,0.4-1.4,0.8-2C86.6,153.3,86.5,154.1,85.7,154.5z"/>
	<path class="st25" d="M87.1,169.6c0.1,0,0.3,0,0.4,0c0.6,0.6,0.5,1.2,0.1,1.9c0,0.2-0.1,0.3-0.1,0.5C87,171.3,87,170.4,87.1,169.6z
		"/>
	<path class="st26" d="M138.4,84.8c-0.4,0.9-1.3,0.3-1.9,0.5C137,84.6,137.8,84.8,138.4,84.8z"/>
	<path class="st27" d="M89,150.2c0.2,0.9,0.1,1.7-0.4,2.4C88.6,151.8,88.2,150.9,89,150.2z"/>
	<path class="st28" d="M98.2,162.5c-0.1-5.6,1.2-10.4,3.5-14.9c1.7-3.3,4.4-5.3,8.3-5.2c3.8,0,6.5,1.7,8.4,5
		c2.2,3.8,4.1,7.6,4.3,12.1c0.1,2.4,0.1,4.9-0.6,7.1c-1.3,4.2-5.1,5.3-9,5.7c-3.1,0.4-6.3,0-9.3-1C99.8,170,98.2,167.3,98.2,162.5z"
		/>
	<path class="st29" d="M110.2,126.1c-0.4,0-1.3,0.1-2.2-0.1c-4.4-0.9-6.1-2.5-6.8-6.4c-0.7-4.5,0.3-8.7,2.8-12.4
		c2.8-4.3,8.1-4.8,11.5-0.9c3.8,4.4,5.1,9.6,3.1,15.2C117.3,125.3,115.6,126.1,110.2,126.1z"/>
	<path class="st30" d="M99.7,107.6c-1,1.3-1.9,2.3-3.7,1.1c-2.2-1.6-2.7-2.9-1.7-5c1-1.8,2.3-2.3,4.2-1.3c0.6,0.3,1.4,0.5,1.6,1.3
		C99.7,105,99.9,106.3,99.7,107.6z"/>
	<path class="st31" d="M123.4,102.3c1.9,1.5,2.6,3.6,1.6,5.2c-1.2,1.8-3,1.5-4.8,1c-0.5-0.1-0.5-0.5-0.6-0.9
		c0.5-1.3,0.2-2.6-0.1-3.8c-0.1-1.4,1.4-0.8,1.9-1.5C122.1,101.6,122.8,101.7,123.4,102.3z"/>
	<path class="st32" d="M141.2,89.6c-0.1,1-0.6,1.6-1.7,1.6c-1.2,0-2.2-0.4-2.3-1.6c-0.1-1,0.7-1.8,1.9-1.8
		C140.3,87.6,140.9,88.4,141.2,89.6z"/>
	<path class="st33" d="M87.6,171.5c0-0.6-0.1-1.3-0.1-1.9c0-1.3,0-2.6,0-3.9c0-1.9,0.1-3.9,0.1-5.8c0.6,0.1,0.9,0.4,0.9,1
		c0,3.2,0,6.4,0,9.7C88.5,171.1,88.2,171.4,87.6,171.5z"/>
	<path class="st34" d="M84.6,87.6c-0.8,1-1.7,1.7-2.8,1.8c-0.9,0.1-1.1-0.8-1-1.5c0.2-1,0.9-1.7,2-1.7
		C83.8,86.3,84.2,86.9,84.6,87.6z"/>
	<path class="st35" d="M119.6,103.7c1.5,1.2,1.3,2.5,0.1,3.8c-0.1-0.1-0.2-0.2-0.2-0.4C118.9,106,118.8,104.8,119.6,103.7
		L119.6,103.7z"/>
	<path class="st36" d="M99.7,107.6c-0.6-1.4-1.3-2.7,0.4-3.9c0,0,0.2,0,0.2,0c0.1,0.2,0.2,0.4,0.3,0.6c0.1,0.8,0.1,1.7,0,2.5
		c-0.1,0.2-0.2,0.4-0.4,0.6C100,107.5,99.8,107.6,99.7,107.6z"/>
	<path class="st37" d="M123.4,102.3c-0.6,0-1.3,0-1.9-0.1c-0.1-0.4-1-0.5-0.6-1.1c0.3-0.6,1-0.3,1.5-0.3
		C123.4,100.8,123.4,101.5,123.4,102.3z"/>
	<path class="st38" d="M83.7,159.9c0,1,0,1.9-0.1,2.9C82.2,161.8,82.2,160.8,83.7,159.9z"/>
	<path class="st16" d="M119.6,82.3c-0.5,1.7-1.7,0.7-3.2,1.2C117.6,81.9,118.7,82.6,119.6,82.3C119.6,82.3,119.6,82.3,119.6,82.3z"
		/>
	<path class="st39" d="M100.1,107.5c0-0.1,0-0.2,0-0.3c0.4-1.1,0.3-2.1,0-3.2c0-0.1,0-0.2,0.1-0.3
		C101.5,105,101.7,106.3,100.1,107.5z"/>
	<path class="st40" d="M119.1,107c-0.7-1.2-0.7-1.8,0.1-3.2C119.3,104.9,119.5,105.9,119.1,107z"/>
	<path class="st41" d="M79.8,156c1.1,0.2,1,0.9,0.8,1.7C79.4,157.4,80,156.5,79.8,156C79.8,156,79.8,156,79.8,156z"/>
	<path class="st42" d="M134.1,158.9c0.9,1.2,0.4,2.5,0.5,3.8C133.5,161.6,134.3,160.2,134.1,158.9z"/>
	<path class="st43" d="M119.1,107c0-1.1,0.1-2.1,0.1-3.2c0.1,0,0.2-0.1,0.4-0.1c0,1.2-0.1,2.3-0.1,3.5
		C119.3,107.1,119.2,107.1,119.1,107z"/>
	<path class="st44" d="M91.4,144c-0.1-0.5,0.1-1.2-0.5-1.5c0.2-0.2,0.5-0.6,0.7-0.3C92.1,142.7,91.9,143.4,91.4,144z"/>
	<path class="st45" d="M122,73.7c-2.1,1-4.2,0.3-6.3,0.4c-0.1-0.1-0.1-0.2-0.2-0.3C117.7,73.7,119.9,73.7,122,73.7z"/>
	<path class="st46" d="M105.8,70c1,0,1.4,0.6,2.2,1.7C106.6,71.4,106.2,70.7,105.8,70z"/>
	<path class="st47" d="M120.1,70.3c-0.2,0.3-0.5,0.5-0.9,0.4c-0.2-0.1-0.4-0.4-0.3-0.5c0.2-0.4,0.6-0.4,1-0.4
		C120,69.9,120.3,69.9,120.1,70.3z"/>
	<path class="st48" d="M109.3,115.7c0.3-1.9-1.2-3-2.1-4.4c-1.5-2.6-1-3.7,1.9-3.7c1.7,0,4.1-0.4,4.7,1.4c0.7,1.9-1.3,3.4-2.8,4.5
		c-0.1,0.1-0.2,0.2-0.3,0.4c-0.2,0.2-0.3,0.6-0.4,0.9c-0.1,1.2-0.2,2.3,0.1,3.5c0.1,0.1,0.3,0.3,0.5,0.4c0.6,0.3,1.2,0.2,1.9,0.1
		c0.1,0,0.2,0,0.3-0.1c0.4,0,0.8,0.1,1.4,0.2c-0.8,1.5-2.1,2.1-3.4,1.6c-1.3-0.5-2.3-0.7-3.6-0.2c-0.7,0.3-1.6,0.2-2.2-0.5
		c-0.3-0.4-0.7-0.8-0.3-1.2c0.6-0.7,0.8,0.4,1.3,0.4c0.8,0.2,1.6,0.5,2.4-0.2c0.1-0.2,0.2-0.3,0.3-0.5
		C109.2,117.3,109,116.5,109.3,115.7z"/>
	<path class="st49" d="M110.8,118.8c-0.1-0.1-0.2-0.1-0.4-0.1c-0.7-1.4-0.3-2.9-0.2-4.3c0.2-0.2,0.4-0.3,0.6-0.5c0,0.5,0.1,1,0,1.4
		c-0.4,2,0.4,3.1,2.4,3.3c0,0,0,0.1,0,0.1C112.4,119,111.6,119,110.8,118.8z"/>
	<path class="st50" d="M108.8,118.5c-0.7,1-1.5,0.8-2.4,0.2C107.2,118.7,108,118.6,108.8,118.5z"/>
	<path class="st50" d="M109.3,115.7c0,0.8,0.3,1.6-0.2,2.4C109,117.3,108.9,116.5,109.3,115.7z"/>
	<path class="st51" d="M100.2,104c0.7,1.1,0.7,2.1,0,3.2C100.2,106.1,100.2,105,100.2,104z"/>
	<path class="st50" d="M110.2,114.3c0.1,1.4,0.1,2.9,0.2,4.3C109.3,117.3,109.7,115.8,110.2,114.3z"/>
	<path class="st52" d="M110.8,118.8c0.8,0,1.6,0,2.4,0C112.4,119.4,111.6,119.4,110.8,118.8z"/>
</g>
<g>
	<path class="st53" d="M275.8,180.2c1.1,4.6-0.2,6.9-4.7,8.2c-4.1,1.2-8.2,1.9-12.5,0.8c-3.1-1.1-6.2-0.5-9.4-0.4
		c-5.8-0.1-11.7-0.3-17.5-1.5c-4.5-0.9-6.4-3.2-5.2-8.4c1.1-4.9-0.8-6.5-4.2-8.7c-6.4-4-11.6-9.3-14.8-16.2c-0.4-0.8-0.5-2.3-2.3-1
		c-13,8.7-23.2-1.2-24.4-12.1c0.4-2.7,0.4-5.4,0-8.1c0.4-5.6,2.4-10.5,5.6-15c5.6-7.8,11.7-15.2,19.1-21.4c1.3-1.1,1.7-2.3,2-3.7
		c3-14.5,8.8-27.9,16.1-40.6c6.9-12,18.2-18.4,31.4-21.6c3.1-0.7,6.2-1.5,9.3-1.8c2.4-0.2,3.1-1.4,3.7-3.4
		c2.2-7.4,4.5-14.8,6.9-22.2c0.4-1.4,0.7-3.1,2.6-3.2c1.7-0.1,3.2,0.7,4.2,2.3c2.3,3.3,4.9,6.5,7.1,9.9c1.3,2,2.3,2.4,4.5,1.2
		c6-3,12.1-5.9,18.2-8.7c4.1-1.8,5.3-1.1,6.2,3.4c0.9,4.6,1.9,9.3,2.5,13.9c0.3,1.9,1.1,2.5,2.8,2.4c2.8-0.2,5.6,0.2,8.4,0.6
		c4.1,0.6,4.7,1.6,2.7,5.3c-2.1,3.8-4.5,7.6-6.8,11.3c-0.9,1.4-0.8,2.1,0.4,3.4c9,9.4,14.3,20.9,17.7,33.3
		c1.8,6.7,3.4,13.5,4.6,20.4c0.2,1.4,0.8,2.4,1.8,3.4c6.8,6.9,11.6,15,14.9,24.2c2.4,6.7,4.1,13.3,3.8,20.4
		c-0.2,4.7-1.6,9.1-3.8,13.2c-1.1,2.1-3,3.3-5.2,4.1c-3.2,1.1-6.6,2-9.9,1.5c-4.1-0.6-7.2,0.8-10.5,3c-3.5,2.4-7.5,4.2-11.3,6
		c-1.4,0.7-2,1.1-1.7,2.9c1.1,6.1-1.5,10.5-7.6,11.3c-10.3,1.3-20.6,2.5-30.9,0.9c-3.2-0.5-6.2-1.6-6.9-5.4c0.3-0.7,0.3-1.4,0.1-2
		c-0.6-1.4,1-3.3-0.4-4.1c-1.6-0.9-3.8-0.4-5.6-0.3C275,178,274.9,179,275.8,180.2z"/>
	<path class="st54" d="M275.8,180.2c-0.8-0.3-1.1-1.1-0.7-1.6c1.7-2.1,4.1-0.7,6.2-1c1.5-0.2,1.9,0.9,1.8,2.2
		c-0.1,1.5,0.5,3.1-0.5,4.5c-0.2-0.8-0.3-1.5-0.5-2.3c-0.4-1.1,1.1-2.9-0.2-3.3c-1.7-0.6-3.7-0.4-5.6-0.2
		C275.4,178.6,276,179.6,275.8,180.2z"/>
	<path class="st55" d="M249.2,188.9c3.2-0.7,6.3-1.3,9.4,0.4C255.5,189.2,252.4,189,249.2,188.9z"/>
	<path class="st56" d="M324.3,125.4c1.5,3.3,2.8,6.3,4.2,9.1c3.9,7.6,6.3,15.8,9.8,23.6c0.7,1.6-0.2,2.3-0.9,3.3
		c-3.6,4.8-8.9,6.2-14.4,7.4c-1.6,0.3-3.3,0.8-4.9,1.3c-1,0.3-1.8,1-1.9,2.2c-0.1,1.2,0.7,1.7,1.8,2.1c2.9,1,3,3.6,3.1,6
		c0,1.1-0.7,1.7-1.9,2c-8,1.9-16.1,3.3-24.4,2.2c-4.5-0.6-5.5-1.6-4.9-6c0.6-4.2-0.6-5.7-4.9-5.4c-7.8,0.6-15.6-0.1-23.3-0.6
		c-0.7,0-1.4,0-2,0.1c-0.6,0.1-1.5,0-1.7,0.8c-0.3,0.9,0.4,1.5,1,2c2.4,1.6,5.3,1.9,8,2.4c1.2,0.2,2.4,0.3,2.1,1.9
		c-0.2,1.4,0.5,3.4-1.7,4c-1.6,0.4-3.3,0.9-4.9,0.8c-9-0.6-18.1-0.3-27-1.3c-2.6-0.3-3.2-1.8-2.8-4c0.5-2.4,1.1-4.8,2.1-7.1
		c0.7-1.7,0.7-3.4-1.7-3.9c-12.6-2.7-19.1-11.1-21.6-23.1c-2.1-9.9-2.4-19.9-0.9-29.9c0.3-2.2,1-4.4,1.4-6.6c0.2-1,0.4-2.5-1-2.9
		c-1.4-0.4-2,0.8-2.5,1.8c-2.6,5-3.9,10.4-4.4,15.8c-0.6,6-1.7,12.1-0.3,18.2c1,4-2.1,5.7-4.5,7.4c-2.6,1.7-6.8,1-8.7-1.2
		c-4.7-5.1-5.1-11-2.9-17.3c4.5-12.8,13.2-22.7,23.4-31.3c1.4-1.2,2.1-2.4,2.5-4.1c3-12,7-23.7,12.7-34.7
		c5.8-11.2,14.9-18.2,26.5-22.2c12.2-4.2,24.7-6.9,37.8-4.7c11.4,1.9,21.3,7.1,30.6,13.4c4,2.7,6.3,7.1,8.5,11.2
		c6.8,12.7,11.2,26.2,13.8,40.3c0.6,3.2,1.8,5.9,3.9,8.4c4.7,5.8,9,11.9,12.3,18.5c4,8,5.9,16.5,4.1,25.5c-0.8,3.9-2.4,7.4-6.7,8.5
		c-4.5,1.2-8.4,0.3-11.8-3c-3.4-3.4-4.9-7.8-6.4-12.1c-1.9-5.5-4.4-10.6-8.3-14.9C328.9,127.5,327.4,125.6,324.3,125.4z"/>
	<path class="st57" d="M315.6,23.8c0.2,5.6,0.3,5.9,5.7,6.1c1.9,0.1,3.8,0,6,0c-1.2,3.5-3.6,5.9-5.2,8.9c-0.6,1.1-1.5,0.1-2.3-0.2
		c-4.2-1.7-7.9-4.7-12.3-6c-0.5,0.3-0.9,0.2-1.3-0.1c-4.3-2.7-9.1-3.6-14.1-4.1c-0.3-0.1-0.5-0.2-0.6-0.5c-1.9-0.3-3.8,0.1-5.7-0.1
		c-3.2,0-6.3,0-9.5,0c-1.3-0.3-3.3,0.6-2.8-2.1c1.9-5.7,3.9-11.5,5.9-17.4c2.4,1.3,3.2,3.8,4.4,5.7c1.2,2,2.8,3.6,3.8,5.8
		c0.6,1.4,1.9,2.2,4.1,1.2c6.2-3,12.4-5.8,18.2-9.6c2-1.3,3-0.4,3.7,1.4c0.7,0.6,0.7,1.3,0.4,2.1c0.1,1.2,0.2,2.5,0.4,3.7
		c0.7,1.5-0.2,3.3,0.6,4.8C315.2,23.6,315.4,23.7,315.6,23.8L315.6,23.8z"/>
	<path class="st58" d="M291.6,27.8c0.2,0.2,0.4,0.4,0.6,0.6c-5.8,0-11.6,0.1-17.5,0.1c-0.9,0-1.9,0.2-2.3-0.9c1.3-0.6,2.7,0.4,4-0.3
		c3.3,0,6.7,0,10,0C288,27.9,289.9,27,291.6,27.8z"/>
	<path class="st59" d="M315.6,23.8c0-1.6-0.1-3.3,0.1-4.9c0.3-1.6,0.9-1.3,1.3,0.1c1,1.8,1,3.6,0,5.4
		C316.5,24.2,316.1,24,315.6,23.8C315.6,23.8,315.6,23.8,315.6,23.8z"/>
	<path class="st60" d="M317,24.4c0-1.8,0-3.6,0-5.4C319.2,20.8,319.2,22.6,317,24.4z"/>
	<path class="st61" d="M314,15c-0.7-0.6-0.3-1.4-0.4-2.1c0.7-0.1,1.5-1,1.9,0.2C315.9,14.2,315.3,14.9,314,15z"/>
	<path class="st62" d="M276.4,27.2c-1.3,0.7-2.6,0.6-4,0.3c0-0.8,0.4-1.4,1.1-1.8C273.7,27.8,275.4,26.8,276.4,27.2z"/>
	<path class="st63" d="M306.2,32.5c0.4,0,0.8,0.1,1.3,0.1c-0.1,0.9-0.7,1.3-1.6,1.2c-0.5,0-0.9-0.3-0.8-0.8
		C305.3,32.8,305.9,32.7,306.2,32.5z"/>
	<path class="st64" d="M315,23.5c-1.5-1.4-0.4-3.2-0.6-4.8C315.3,20.2,314.9,21.9,315,23.5z"/>
	<path class="st53" d="M247.2,83.2c-5.8-1.4-10.9-7.3-7.9-14.8c2.1-5.5,7.2-7.6,13.9-6c4.7,1.1,7.6,5.8,7.2,11.1
		c-0.3,5.1-3,8.2-7.9,9.7C250.8,82.9,249,82.9,247.2,83.2z"/>
	<path class="st65" d="M300,62.3c6.3-0.1,11.4,4.5,11.5,10.3c0.1,5.5-4.9,10.9-10,10.7c-7.4-0.3-11.4-4.8-11.6-10.6
		C289.8,66.9,294.3,62.3,300,62.3z"/>
	<path class="st66" d="M247.2,83.2c1.8-0.8,3.6-0.8,5.4,0C250.8,83.7,249,83.6,247.2,83.2z"/>
	<path class="st67" d="M291.6,27.8c-1.8,0-3.5,0.2-5.2-0.6c1.8,0,3.5,0,5.3,0c0.1,0,0.2,0.1,0.2,0.2
		C291.8,27.5,291.7,27.7,291.6,27.8z"/>
	<path class="st68" d="M249.3,67.5c-0.1,3.3-2.2,5.2-4.8,5.1c-1.8-0.1-2.6-1-2.7-2.7c0-2.3,2.2-4.8,4.4-4.7
		C248.1,65.2,249.3,66.2,249.3,67.5z"/>
	<path class="st69" d="M296.4,73.5c-1.7-0.3-3-0.8-2.9-2.7c0.1-2.7,2-4.6,4.4-4.4c1.9,0.1,3.1,0.9,2.7,2.9
		C300.2,71.7,299.1,73.5,296.4,73.5z"/>
</g>
<g>
	<path class="st53" d="M405.9,171c0.8,0.8-0.4,2.7,1.4,2.8c1.5,0.1,2.7-0.2,2.6-2.4c-0.1-4.9,2-7.8,5.9-9.3c1.7-0.7,3-0.4,4.1,0.9
		c1.9,2.2,3.2,4.7,2,7.7c-1.3,3.3-3.3,6.2-7.1,6.4c-2.9,0.1-5.2,2.1-8.1,2c-0.6,0-0.7,0.6-0.7,1.1c0,1-0.4,1.9-1,2.7
		c-0.6,0.9-0.7,1.6-0.3,2.6c0.9,2.7-0.6,4.7-3.4,4.8c-4.7,0.1-9.4,0-14,0.1c-1.8,0-2.6-0.7-2.6-2.6c-0.1-4.4-3.2-7.6-7.6-8.1
		c-4.9-0.6-8.6,1.5-9.5,6c-0.6,3-1.9,3.9-4.9,3.7c-4.1-0.3-8.2,0.8-12.3,0.4c-3.9-0.4-5-2.2-3.1-5.6c0.6-1,0.5-1.8,0-2.4
		c-1.8-2.2-1.4-4.7-1.3-7.2c0-1.9,0-3.9,0-6c-2.7,1.1-4.9-0.4-7.2-1.2c-1-0.3-1.2-1.4-1.5-2.3c-2.1-7-0.3-13.5,2.4-19.9
		c0.7-1.6,0.7-2.6-0.4-4c-1.4-1.8-2.5-3.7-3.6-5.7c-0.6-1-1.2-1.3-2.3-1.3c-2.7,0-5.3-0.1-8,0.2c-5,0.7-6.6-1.1-6.2-6.2
		c0.4-3.8,0.6-7.7,1-11.6c0.1-0.9-0.5-1.3-0.9-1.9c-3.1-4.3-6.7-8-10.4-11.8c-3.2-3.3-3.2-5.5,0.1-8.7c2.4-2.4,4.3-5.3,7.1-7.3
		c1.1-0.8,0.5-1.7,0.2-2.4c-1.4-3.6-2.6-7.2-3.3-11c-0.5-2.7-0.1-3.6,2.6-4.5c3.7-1.3,7.4-2.6,11.2-3.9c2.1-0.7,3.5-2,4.5-4.1
		c1.7-3.8,3.6-7.6,5.7-11.2c2.9-5,5-5.8,10.4-4c3.9,1.3,8,2,11.8,3.6c1.1,0.5,2,0.2,2.9-0.5c4.4-3.3,9.2-5.9,13.9-8.8
		c1.9-1.2,4-1.6,6.1-2.1c2-0.5,3.3,0.5,4.7,1.7c5,4.3,9.2,9.3,13.1,14.5c1.2,1.6,2.4,2,4.2,1.6c5.3-1.2,10.7-1.2,16.1-1.7
		c3.6-0.4,4.1,0.1,5.3,3.5c1.2,3.5,2.3,7,2,10.8c-0.2,1.9,0.6,3.1,2.7,3.5c4.1,0.8,8.1,2,11.9,3.8c2.8,1.4,3.4,3.1,2.1,5.9
		c-1.9,4.1-4.9,7.5-7.5,11.2c-1.1,1.5-1,2.6,0,3.8c2.9,3.3,5,7.1,7.5,10.6c1.9,2.7,1.5,5.3-1.1,7.3c-3.8,2.7-7.4,5.8-11.7,7.6
		c-4.2,1.7-4.4,5.3-4.8,8.7c-1,7.1-1.1,7.6-8,6.9c-3.9-0.4-6.1,0.5-7.8,4c-0.5,1.1-0.7,1.8-0.3,2.9c1.8,4.5,3.7,8.9,3,14
		c-0.5,3.6-3.1,6.8-6.2,7.3c-1.6,0-2.3,0.7-1.8,2.3C405.5,169.4,405.4,170.3,405.9,171z"/>
	<path class="st70" d="M405.9,171c-1.6-1.1-0.9-2.7-0.8-4.1c0.1-1.1,1.3-0.6,2-0.6c-1.4,0.4-2,1.1-1.4,2.7
		C406.1,169.6,405.9,170.3,405.9,171z"/>
	<path class="st71" d="M340,158.8c0-1,0.1-2,0.1-3.1c0.4-0.6-0.1-1.4,0.5-2c1.3-4.1,3-8,4.7-11.8c1.1-2.4,2.7-4.4,4.4-6.3
		c0.3-0.4,1.1-0.9,1.4-0.8c1.9,0.7,2.5-0.8,3.3-2c-0.7-0.9-1.8-0.6-2.7-0.8c-7.1-1.5-11.5-6.3-15.5-11.8c-2.1-2.9-3.7-6-4-9.7
		c-0.4-0.8,0.2-1.8-0.5-2.5l0,0c-0.4-0.8,0.1-1.7-0.4-2.5c-0.8-7.8,1.2-14.9,6-21c4.2-5.3,9.9-8.4,16.3-10.4
		c2.8-0.9,5.5-1.6,8.3-2.4c0.6-0.7,1.5-0.6,2.2-0.9c0.7-0.1,1.4,0,2.1-0.3c0.8-0.1,1.6,0.2,2.4-0.3c0.1,0.1,0.3,0.1,0.4,0
		c2.8-1.3,5.7-0.6,8.5-0.5c0.3,0.1,0.5,0.2,0.7,0.4c1.4,1.1,3,0.2,4.5,0.4c1,0,2.1,0,3.1,0.2c1.5,0.4,3,0.5,4.5,0.8
		c1,0,2,0.2,2.9,0.5c0.7,0.2,1.4,0.4,2,0.7c0.3,0.1,0.6,0.3,1,0.4c8.4,3.2,14.9,8.4,18.5,16.8c1.1,2.5,2.7,4.7,3.2,7.5
		c0.2,0.6,0,1.2,0.1,1.8c-0.1,1.5,0.2,3-0.2,4.4c-0.1,0.3,0-0.1,0,0.2c0.1-0.1,0.1-0.3,0.3-0.4c0.2,0,0.3,0.1,0.3,0.3
		c0,0.9,0,1.7,0,2.6c0,0.2-0.1,0.3-0.3,0.3c-0.4,0.8,0,1.8-0.2,2.6c-0.1,0.2-0.2,0.4-0.3,0.6c-2,9-8.2,14.6-15.5,19.3
		c-2.3,1.5-4.9,2.7-7.4,3.8c-0.8,0.4-1.2,1-1.9,1.4c0.6,1,1.5,0.6,2.2,0.7c0.2,0.1,0.3,0.2,0.5,0.3c0.6,0.2,1.2,0,1.7-0.1
		c0.2-0.1,0.4-0.1,0.5-0.2c0.1,0,0.2,0,0.3-0.1c1.4-0.3,2.1,0.6,2.7,1.6c2.5,4.1,5.4,8,7,12.6c0.5,1.5,1.9,2.8,2.3,4.4
		c0.5,0.5,0.3,1.1,0.1,1.6l-0.2,0c-2.3,0.6-4.4,2.2-7,1.4c-0.6-3.6-1.8-6.9-3.2-10.2c-0.8-1.9-2.5-2.8-4.2-3.7
		c-2-0.1-0.5,1.1-0.6,1.7c2.1,3.8,3.4,7.8,4.1,12.1c0.1,0.2,0.2,0.4,0.2,0.6c0.1,0.6,0,1.2,0.2,1.8c0.1,0.2,0.2,0.3,0.3,0.5
		c0,0.5,0,0.9,0.1,1.4c0.6,0.6,0.3,1.4,0.6,2.1c0.1,0.2,0.2,0.4,0.3,0.5c0,2.6,0.3,5.1,1,7.6c0.5,0.6,0.6,1.4,0.9,2.1
		c0.2,0.9,0.3,1.8-0.5,2.6c-0.2,3.5-3.2,6-3.5,9.6c-0.1,0.7-1.1,0.6-1.7,0.6c-2.3,0.2-4.6,0.4-7,0.6c-1,0.1-1.4-0.4-2-1.2
		c-2.4-3.7-4.9-7.4-9.8-8.2c-6.5-1.1-11.7,0.2-14.2,6.3c-0.1,0.4-0.1,0.8-0.2,1.2l0,0c-0.4,1.5-1.2,2-2.8,1.5c-1.9-0.6-4.1-0.3-6-1
		c0.2-0.2,0.5-0.3,0.7-0.2c-0.7,0.1-1.6-0.3-2.4,0.2c-0.4,0.2-0.8,0.5-0.9,0.5c-2.7-6-3.5-12.3-3.1-18.8c0.5-1.1-0.2-2.4,0.5-3.5
		c0.6-0.9,0.5-1.9,0.5-2.9c0-0.1,0-0.2,0-0.3c-0.1-0.6,0-1.3,0.2-1.9c0.2-0.6,0.2-1.3,0.3-1.9c0-0.2,0.1-0.5,0.1-0.7
		c0.6-2.3,0.8-4.7,1.3-7.1c0.1-0.5,0.3-0.9,0.5-1.3c0.4-0.8,0.7-1.6,0.8-2.5c0.3-1,0.5-2,0.9-3.1c-1,0.9-1.6,2-2.4,3
		c-1.2,1.5-1.8,3.3-2.4,5.1c-0.7,1.9-1.2,3.8-1.7,5.7c-0.1,0.6-0.4,1.1-0.9,1.5c-0.7,1.7-0.7,3.4-0.8,5.2c-2.3,0.1-4.4-0.6-6.1-2.1
		C340.2,159.8,339.7,159.5,340,158.8z"/>
	<path class="st72" d="M328.9,114.7c1.5,6.6,6.1,11.1,10.7,15.5c1.9,1.9,4.6,3.2,7.7,3.5c-1.6,1.9-2.9,3.5-4.4,5.3
		c-1.1-1.6-2.4-3-3.2-4.6c-1.9-4-5.4-4.2-9.2-4.1c-0.1-0.1-0.1-0.1-0.2-0.2c0-0.2,0-0.4,0.2-0.5c-1.9,0.6-3.8,0.3-5.7,0.3
		c-0.4,0-0.7-0.1-1-0.3c-0.2-0.1-0.5-0.3-0.5-0.4c0.8-4-0.3-8.2,1.5-12.1c0.3-0.7,0-1.5-0.4-2.1c-3.7-5.5-8.1-10.4-13.3-14.7
		c-0.2,0.1-0.3,0.1-0.4-0.1c-1.1-0.6-1.7-1.3-0.4-2.3c2.5-2,5-4,7.4-6c1.6-1.3,3.4-2.5,4.1-4.6c0-0.2,0.1-0.3,0.3-0.3
		c0.3-0.8,0-1.6,0.2-2.3c0.1-0.3,0.1-0.5,0.1-0.2c0,0-0.1,0-0.2,0c-0.2,0-0.3-0.1-0.3-0.3c-0.1-1.2-0.4-2.3-1-3.2l0,0
		c-0.2-0.8-0.4-1.6-0.6-2.4c-0.2-0.1-0.3-0.3-0.3-0.5c-0.2-1-0.3-2.1-0.6-3.1c-0.4-1.3-0.2-2.1,1-2.7c0.1-0.2,0.3-0.2,0.4-0.1
		c4.5-1.2,9-2.7,13-5.1c2.2-1.4,2.4-4.2,3.4-6.4c0-0.1,0-0.2,0-0.3c0-0.7,0.3-1.2,0.9-1.6c0.8-2.8,2.7-5.1,4.3-7.5
		c0.8-1.3,1.8-0.1,2.6-0.3c0,0,0,0,0,0c5,1.4,10,3,15,4.3c0.9,0.3,2.1-0.2,2.9-0.8c3.9-3,7.6-6.1,11.8-8.7c1.9-1.2,3.9-2.3,6-3.3
		c1.1-0.5,2.2-0.5,3.1,0.9c3.5,5.3,7.7,10.1,11.8,14.9c1.6,1.8,3.4,3.8,6.4,3.4c1.3-0.4,2.7-0.1,4.2-0.2c0.2,0-0.1-0.4-0.1-0.1
		c0,0.1-0.1,0.1-0.2,0.1c-0.5,0-1,0.1-1.4-0.2c4.9-0.5,9.6-2.1,14.6-2.5c1.7-0.1,2.3,0.4,2.4,2c0,1.3,0.1,2.6,0.2,3.9
		c0.6,1.7-0.3,3.5,0.5,5.1c0.1,0.1,0.2,0.2,0.4,0.4c0.2,0.1,0.2,0.1,0.2,0.2c0,0.1-0.1,0.1-0.1,0.1c0,0.4,0,0.8,0,1.2
		c-0.1,4.7,1,4.6,4.9,4.6c3.3,0,6.4,1.3,9.5,2.4c0.1,0,0.1,0.1,0.1,0.2c0.9,0.8,3-0.1,3,1.6c0,1.1-1.2,2.2-2,3.2
		c-2.3,3.2-4.5,6.5-6.8,9.7c-2,2.8-2,4.9,0.4,7.4c2.8,2.9,6.2,5.4,7.8,9.4c0.5,1.2,0.4,1.7-0.7,2.2c-4.5,1.9-8.1,5.2-12.6,7
		c-2.8,1.1-3.5,3.7-3.5,6.5c0,0.1-0.1,0.2-0.1,0.3c-0.1,0.2-0.2,0.3-0.2,0.5c-0.2,0.5-0.1,1.1-0.2,1.6c-0.1,0.2-0.2,0.4-0.3,0.5
		c0,0.3-0.1,0.6-0.1,1l0,0c-0.5,2.7-2,3.9-4.8,3c-1.6,0.5-3.2-0.2-4.8,0.4c-0.2,0.2-0.4,0.3-0.7,0.5c-0.1,0.2-0.2,0.2-0.4,0.2
		c-1.5,0.9-2.2,2.5-3.2,3.9c-0.7,0.9-1.2,1.2-2,0.2c-0.9-1.1-1.8-2-2.7-3.1c8.1-5.3,16.4-11,19-21.5c0.5-0.7,0-1.6,0.4-2.3
		c0.1-3.2,0.8-6.5-0.5-9.6c-0.7-0.3-1-0.9-1.1-1.6c-0.1-0.8,0.2-1.6-0.2-2.3c0-0.5-0.1-0.9-0.1-1.4c-0.7-0.6-1-1.5-1.3-2.4
		c-0.1-0.2-0.1-0.4-0.2-0.7c-0.8-3.3-2.9-5.9-4.8-8.6c-2.7-4-5.6-7.8-10.2-10c-1.6-0.8-3.4-1.1-4.8-2.1c-0.7-0.4-1.4-0.6-2.1-0.8
		c-0.3-0.1-0.6-0.2-0.9-0.3c-0.8-0.3-1.6-0.6-2.5-0.7c-0.3-0.1-0.7-0.1-1-0.2c-1.4-0.4-2.9-0.1-4.3-0.6c-0.4-0.1-0.7-0.2-1.1-0.3
		c-2.2-0.6-4.5-0.6-6.7-0.9c-0.4-0.1-0.7-0.3-0.9-0.7c-0.1-0.2-0.1-0.4-0.1-0.6c0-0.4,1.2-0.6,0.3-1.2c-4.6-0.3-9.2-0.3-13.8,0
		c-0.4,0.3-0.8,0.5-0.6,1.1c0,0.2,0.1,0.4,0,0.6c-0.1,0.2-0.2,0.4-0.4,0.5c-0.3,0.1-0.6,0.1-0.9-0.1c-0.4-0.1-0.8-0.1-1,0.4
		c-1.1,0.7-2.3-0.1-3.4,0.5c-3.7,0-7,1.2-10.2,2.9l0,0c-2.5,0.7-4.7,1.9-6.7,3.4c-4.8,3.7-9.4,7.6-12.1,13.2c-0.8,1.7-1.1,3.7-2,5.4
		c-0.6,0.5-0.1,1.3-0.4,1.9c0.4,1-0.7,1.8-0.4,2.8c0,0.3,0.1,0.5,0,0.8c-0.1,2.1-0.1,4.3,0,6.4c0,0.3,0,0.5,0,0.8
		c0.1,1.7-0.2,3.4,0.2,5.1c0,0.5,0.1,0.9,0.1,1.4C328.9,113.1,328.4,114,328.9,114.7z"/>
	<path class="st73" d="M419.6,93c0.5,0.8,0.7,1.6,0.9,2.5c-0.3,0-0.6,0-0.9,0c-0.2,0.2-0.4,0.4-0.7,0.5c-0.6,0.2-0.7,0.8-1,1.3
		c-0.1,0.1-0.2,0.1-0.2,0.2c-2.4-4.7-4.2-9.7-7.5-14c-3.6-4.6-8.2-7.3-13.5-9.4c-0.3-0.1-0.5-0.3-0.8-0.5c-0.1-0.8,0.7-0.9,1.1-1.4
		c0.2-0.1,0.3-0.2,0.5-0.3c0.5-0.2,1.1-0.3,1.6-0.6c0.1,0,0.2-0.1,0.3-0.1c1.2,0.5,2.5,0.9,3.7,1.5c8.4,3.9,12.6,11.5,16.6,19.2
		c0.1,0.2,0,0.5,0,0.7c-0.1,0.1-0.3,0.2-0.2,0.3C419.3,93.1,419.5,93.1,419.6,93z"/>
	<path class="st73" d="M364.3,67.4c0.3,0,0.5-0.1,0.8-0.1c0.8-0.6,1.6-0.6,2.5-0.6c3.4,0,6.7,0,10.1,0c0.9,0,1.7,0.2,2.5,0.7
		c2.5,0,5,0.2,7.4,0.9c-0.9,1.2-2.9,0.1-3.6,1.8c-1.9,1.2-3.8,0.9-5.8,0.3c-3,0-6,0-9.1-0.1c-0.2-1.2-1.1-1-1.8-0.9
		C365.8,69.4,364.8,68.9,364.3,67.4z"/>
	<path class="st74" d="M403.2,156.8c2.5,0.2,4.4-2.1,7-1.4c-0.2,1.9-0.4,3.8-1.2,5.6c-0.6,1.3-1.6,2-3,1.8c-1.3-0.1-1.9-0.9-2-2.3
		C403.8,159.3,403.1,158.1,403.2,156.8z"/>
	<path class="st75" d="M418.7,170c-0.8,0.8-1.1,2.6-2.5,2c-0.9-0.4-2.2,1.1-2.4-0.3c-0.2-1.6-1-3.3,0.2-4.9c1-1.2,2.1-2.4,3.3-3.7
		c0.9,1.1,1.1,2.3,1.3,3.5c0.4,0.8,0.5,1.7,0.4,2.6C418.9,169.5,418.8,169.8,418.7,170z"/>
	<path class="st76" d="M340,158.8c1.8,2.1,4.5,2.4,6.7,3.5c0,0.1,0.1,0.2,0,0.2c-0.4,1.1,0.4,3-1.3,3.3c-2.2,0.3-4.3-0.1-5.4-2.6
		c-0.4-1.1-0.5-2.2-0.6-3.3c-0.2-0.3-0.2-0.6,0.1-0.9C339.7,158.9,339.9,158.9,340,158.8z"/>
	<path class="st77" d="M347.9,155.6c0.4-2,0.8-4,1.8-5.9c0.1,0.1,0.2,0.2,0.3,0.2c0.4,0.6,0.4,1.2,0.5,1.8c0.9,1.5,1.1,3,0.3,4.5
		c-0.7,1.3,0,2.9-1.1,4.1c-0.6,0-1-0.3-1-1C347.8,158.3,348.7,156.7,347.9,155.6z"/>
	<path class="st78" d="M349.8,160.4c0-1.8-0.1-3.5,0.8-5.2c0.7-1.3-0.3-2.4-0.8-3.6c0.3-0.3,0.7-0.4,1.1-0.4c1.2,0.2,1.4,1,1.2,1.9
		c-0.2,0.9-0.1,1.9-0.4,2.9c0.1,0.2,0,0.3-0.1,0.4c-0.5,0.4-0.4,1-0.5,1.5c-0.4,0.8,0,1.6-0.4,2.4c0,0,0,0,0,0
		C350.4,160.5,350.1,160.4,349.8,160.4z"/>
	<path class="st79" d="M410.8,133.4c0.1-0.2,0.2-0.2,0.4-0.2c3,0,6,0,9,0c0,0.3,0,0.7,0,1C417,133.7,413.9,135.3,410.8,133.4z"/>
	<path class="st80" d="M325.5,132.3c-0.8-0.1-1.8,0.3-1.9-1c2.3-1,4.5-1,6.8,0c0.6,0.1,1.2-0.2,1.7,0.4c-0.5,0.9-1.2,0.4-1.7,0.6
		C328.8,133,327.1,133,325.5,132.3z"/>
	<path class="st81" d="M422.4,70.3c-0.1-0.1-0.1-0.2-0.1-0.4c0.3-2.3-0.2-4.7,0.3-7.2C423.9,64.8,423.6,69.2,422.4,70.3z"/>
	<path class="st82" d="M328.5,98.4c1.2,0.2,0.9,1.2,0.9,1.9c0,1.6,0,3.2,0,4.7c0,1.4-0.5,0.3-0.9,0.1
		C327.6,102.9,327.6,100.6,328.5,98.4z"/>
	<path class="st83" d="M330.4,131.3c-2.3,0-4.5,0-6.8,0c0-0.3,0-0.6,0-1c2.3-0.8,4.6-0.7,6.8,0c0,0,0,0,0,0
		C330.4,130.7,330.4,131,330.4,131.3z"/>
	<path class="st84" d="M325.5,132.3c1.6,0,3.2,0,4.8,0C329.1,133.7,326.8,133.7,325.5,132.3z"/>
	<path class="st70" d="M404,172c1.4,1.3,1.4,3.5,0,4.8C403.1,175.2,403.1,173.6,404,172z"/>
	<path class="st70" d="M403,171.6c0.2-2-0.2-3.6,0.6-5C404,168.1,404.6,169.6,403,171.6z"/>
	<path class="st85" d="M418.6,95.5c0.3,0,0.6,0,1,0c0.2,1.4-0.2,2.7-1,3.9c-0.1,0.1-0.3,0.2-0.5,0.2c-0.2,0-0.3-0.2-0.4-0.3
		c0-0.6,0-1.2-0.1-1.9c0,0,0.1-0.1,0.1-0.1C418.2,96.8,417.9,95.9,418.6,95.5z"/>
	<path class="st86" d="M404,172c0,1.6,0,3.2,0,4.8c-0.3,0-0.6,0-1,0c-0.4-1.6-0.4-3.2,0-4.8C403.4,172,403.7,172,404,172z"/>
	<path class="st87" d="M361.4,71.3c-0.8-0.1-1.8,0.3-1.9-1c1.5-0.8,2.9-0.7,4.4,0c0.2,0,0.3,0,0.5,0c0.2,0.6-0.2,0.9-0.7,1.2
		C362.9,71.4,362.1,71.7,361.4,71.3z"/>
	<path class="st88" d="M347.9,155.6c1.8,0.9,0.5,2.6,0.9,3.9c-1.6-0.1-0.5-1.7-1.3-2.3C347.6,156.6,347.8,156.1,347.9,155.6z"/>
	<path class="st89" d="M363.8,70.3c-1.5,0-2.9,0-4.4,0C360.9,68.6,362.3,69,363.8,70.3z"/>
	<path class="st90" d="M328.5,98.4c0,2.3,0,4.5,0,6.8c0,0.2-0.1,0.4-0.1,0.6c-0.2,0-0.3-0.1-0.4-0.3c0.1-0.1,0.1-0.3,0-0.4
		c-0.4-2.2-0.4-4.4,0-6.6c0-0.2,0.1-0.4,0.1-0.6C328.2,98.1,328.4,98.2,328.5,98.4z"/>
	<path class="st91" d="M330.4,130.3c-2.3,0-4.6,0-6.8,0c0-0.2,0.1-0.5,0.1-0.7c0.2-0.1,0.5-0.2,0.7-0.3c1.9,0.7,3.9-0.2,5.8,0.5
		C330.3,130,330.4,130.2,330.4,130.3z"/>
	<path class="st92" d="M362.6,187c-1.6,0.7-2.7,0.6-3.8,0C359.8,186.5,360.9,186.4,362.6,187z"/>
	<path class="st93" d="M421,99.3c0.6,0.3,0.7,0.9,0.8,1.5c-0.6,0.4-0.3,1.5-1.4,1.4c-0.7-1-0.7-1.9,0-2.9l0,0
		C420.7,99.1,420.9,99.1,421,99.3z"/>
	<path class="st89" d="M416,57c-1.3,0.8-2.1,0.7-3.1,0.3C413.7,56.4,414.5,56.8,416,57z"/>
	<path class="st94" d="M422,69.5c-1.1-0.6-0.3-1.5-0.5-2.3c-0.2-0.9,0-1.9,0-2.8C422.1,66.1,421.9,67.8,422,69.5z"/>
	<path class="st95" d="M420.5,99.4c0,1,0,1.9,0,2.9C419,101.3,419,100.3,420.5,99.4z"/>
	<path class="st96" d="M421.1,112.6c-0.8-0.7-0.7-1.5-0.3-2.5C421.9,111,421.3,111.8,421.1,112.6z"/>
	<path class="st97" d="M329.8,112.2c0.8,0.7,0.7,1.5,0.3,2.5C329,113.9,329.6,113,329.8,112.2z"/>
	<path class="st98" d="M321.6,126.5c-1.5-1-1.5-1.9,0-2.9C322.3,124.5,322.3,125.5,321.6,126.5z"/>
	<path class="st99" d="M321.6,126.5c0-1,0-1.9,0-2.9C323.1,124.5,323.1,125.5,321.6,126.5z"/>
	<path class="st100" d="M422.4,125.5c1.4,1,1.6,2-0.1,2.9C421.8,127.4,421.8,126.4,422.4,125.5L422.4,125.5z"/>
	<path class="st97" d="M421.5,129.4c1.7,0.6,0.7,1.7,0.6,2.6C421.2,131.3,421.6,130.3,421.5,129.4
		C421.5,129.4,421.5,129.4,421.5,129.4z"/>
	<path class="st101" d="M328,105.5c0.1,0.1,0.3,0.2,0.4,0.3c0,1.7,0,3.4,0,5.2C327.5,109.2,328.1,107.3,328,105.5z"/>
	<path class="st102" d="M336.6,131.9c-0.8,0.4-1.4,0.6-2.2-0.2C335.2,131.3,335.8,131.1,336.6,131.9z"/>
	<path class="st103" d="M411.9,132.7c1.5-0.9,3.2-0.3,4.8-0.4C415.1,132.9,413.5,132.8,411.9,132.7z"/>
	<path class="st104" d="M404.4,61.1c0.7,0,1.4,0.1,2,0.1c0,0.1,0,0.3,0,0.4c-1.5,0-3,0-4.5,0C402.6,61,403.5,61.1,404.4,61.1z"/>
	<path class="st105" d="M403.1,172c0,1.6,0,3.2,0,4.8c-0.5-0.2-0.5-0.7-0.5-1.1c0-0.9,0-1.7,0-2.6C402.4,172.6,402.1,172,403.1,172
		L403.1,172z"/>
	<path class="st106" d="M395.2,144.5c-0.5-0.8-0.9-1.6-1.4-2.5c1-0.2,1.5,0.4,2.1,0.8C395.2,143.3,395.4,143.9,395.2,144.5z"/>
	<path class="st107" d="M350.2,163.4c0,1.2,0.1,2.3-0.5,3.5c0-1.3,0-2.6,0-3.9c0,0,0.2-0.1,0.2-0.1
		C350.1,163,350.2,163.2,350.2,163.4z"/>
	<path class="st108" d="M418,99.4c0.2,0,0.4,0,0.6,0c0,1.5,0,3,0,4.5c-0.1-0.1-0.3-0.3-0.4-0.4C417.6,102.2,417.9,100.8,418,99.4z"
		/>
	<path class="st109" d="M319.8,78c0.3,0.1,0.4,0.2,0.3,0.5c-0.5,0.2-0.2,1.1-0.9,1.2c-0.1,0-0.3-0.3-0.4-0.5
		C318.7,78.5,319.1,78.1,319.8,78z"/>
	<path class="st110" d="M418.1,106.9c0.1-0.1,0.2-0.2,0.4-0.4c-0.2,1.2,0.8,2.7-0.8,3.5c0-0.2,0-0.3-0.1-0.5
		C418.2,108.7,417.4,107.6,418.1,106.9z"/>
	<path class="st111" d="M349.7,71.2c0.6,0.2,1.3-0.2,1.9,0.8C350.6,72.2,350,72.4,349.7,71.2C349.7,71.2,349.7,71.2,349.7,71.2z"/>
	<path class="st112" d="M353,96c0.1,0,0.3,0,0.4,0.1c-0.1,0.9-0.6,1-1.3,0.8c-0.1,0-0.2-0.3-0.3-0.5C352.1,96.2,352.5,96.1,353,96z"
		/>
	<path class="st113" d="M318.7,75c0,0.4,0,0.8-0.4,0.8c-0.5,0.1-0.5-0.3-0.5-0.6c0-0.3,0-0.7,0.4-0.8
		C318.7,74.3,318.6,74.8,318.7,75z"/>
	<path class="st112" d="M320.7,80.9c-0.2,0.5,0.3,1.3-0.5,1.6c-0.1,0-0.4-0.2-0.4-0.4C319.6,81.5,319.9,81,320.7,80.9
		C320.7,80.9,320.7,80.9,320.7,80.9z"/>
	<path class="st114" d="M344.9,50.9c0.2-1.2,0.9-0.9,1.8-0.7C346.2,51.2,345.5,50.7,344.9,50.9C344.9,50.9,344.9,50.9,344.9,50.9z"
		/>
	<path class="st109" d="M337.1,60.6c-0.7-0.1-1-0.5-0.9-1.1c0.1-0.6,0.5-0.8,1-0.8C337.5,59.3,337.5,60,337.1,60.6L337.1,60.6z"/>
	<path class="st115" d="M396.3,135.1c0.7-1.3,1.4-1.3,2,0.1c0,0,0,0.1,0,0.1C397.6,135.7,396.9,135.8,396.3,135.1z"/>
	<path class="st116" d="M320.7,72.2c-0.1,0.1-0.3,0.1-0.4,0.1c-0.4-0.1-1,0.1-1.2-0.4c0-0.1,0.2-0.4,0.3-0.5
		C320,71.2,320.6,71.3,320.7,72.2z"/>
	<path class="st117" d="M364.2,184.5c1,0.2,1.2,0.8,0.7,1.7C363.9,186,364.5,185.1,364.2,184.5C364.2,184.6,364.2,184.5,364.2,184.5
		z"/>
	<path class="st102" d="M356.6,69.3c0.2,0.1,0.5,0.2,0.6,0.4c0.1,0.4-0.3,0.5-0.6,0.5c-0.3,0-0.7-0.2-0.8-0.3
		C355.7,69.5,356.1,69.5,356.6,69.3z"/>
	<path class="st118" d="M399.2,156.9c0-0.1,0.1-0.2,0.2-0.3c1.5,0.6,0.5,1.9,0.8,2.9c-0.1-0.1-0.2-0.1-0.3-0.1
		C399,158.7,399.8,157.6,399.2,156.9z"/>
	<path class="st119" d="M368.8,70.3c-0.7,0.5-1.5,0.5-2.3,0.5c-0.5,0.2-1.1,0.5-1.2-0.5C366.4,70.3,367.6,70.3,368.8,70.3z"/>
	<path class="st120" d="M422.4,125.5c0,1,0,1.9,0,2.9c-0.3,0-0.6,0-0.8,0c-0.1-0.1-0.1-0.3-0.1-0.4c0.6-0.6-0.2-1.6,0.6-2.3
		C422.2,125.6,422.3,125.5,422.4,125.5z"/>
	<path class="st121" d="M418.7,170c-0.1-0.1-0.1-0.2-0.1-0.2c0.5-0.8-0.1-1.8,0.5-2.6C419.6,168.2,420.1,169.2,418.7,170z"/>
	<path class="st73" d="M365.3,70.3c0.3,0.5,0.7,0.5,1.2,0.5c-0.6,0.5-1.3,0.5-2.1,0.5c-0.2,0.2-0.4,0.2-0.6-0.1
		c0.2-0.3,0.3-0.6,0.5-0.9C364.6,70.3,364.9,70.3,365.3,70.3z"/>
	<path class="st73" d="M359.9,68.3c1-1,2.3-0.2,3.4-0.5C362.3,68.8,361,68.2,359.9,68.3z"/>
	<path class="st122" d="M419.1,167.2c-0.1,0.9,0.4,1.8-0.5,2.6c0-1,0-2.1,0-3.1C418.8,166.8,418.9,167,419.1,167.2z"/>
	<path class="st123" d="M410.4,155.4c0-0.5-0.1-1.1-0.1-1.6c0-0.1,0-0.3,0.1-0.4c0.1-0.2,0.3-0.4,0.4,0
		C410.8,154,411.1,154.8,410.4,155.4z"/>
	<path class="st124" d="M340.6,153.8c0,0.7,0,1.4-0.5,2c0-0.8,0-1.5,0-2.3c0-0.4,0.2-0.3,0.4-0.1
		C340.5,153.4,340.5,153.6,340.6,153.8z"/>
	<path class="st125" d="M321.7,84.2c0.1,0.1,0.3,0.2,0.4,0.3c0.4,0.9,0.4,1.8,0,2.7c-0.1,0.1-0.3,0.2-0.4,0.2
		C321.7,86.3,321.7,85.2,321.7,84.2z"/>
	<path class="st126" d="M353.7,185.1c0.5-0.9,1.4-0.4,2.1-0.4c0.4,0,0.2,0.2,0,0.4c-0.1,0.1-0.3,0.1-0.4,0.1
		C354.8,185.1,354.3,185.1,353.7,185.1z"/>
	<path class="st127" d="M401.1,163.5c-0.1-0.1-0.2-0.2-0.4-0.3c-0.6-0.7-0.4-1.4-0.1-2.2C401.8,161.6,400.8,162.7,401.1,163.5z"/>
	<path class="st128" d="M396.3,135.1c0.7,0,1.3,0.1,2,0.1c0,0.1-0.1,0.3-0.1,0.4c-1,0.4-1.9,0.4-2.9,0c0-0.1-0.1-0.3-0.1-0.4
		C395.6,135.2,395.9,135.2,396.3,135.1z"/>
	<path class="st129" d="M363.8,71.2c0.2,0,0.4,0.1,0.6,0.1c-0.7,0.5-1.5,0.5-2.3,0.5c-0.2-0.2-0.4-0.3-0.6-0.5
		C362.2,71.2,363,71.2,363.8,71.2z"/>
	<path class="st70" d="M403,172c-0.4,0.2-0.4,0.7-0.5,1.1c-0.5-0.6-0.5-1.3-0.4-2.1c0.3,0,0.6,0,1,0C403.1,171.4,403,171.7,403,172z
		"/>
	<path class="st130" d="M339.6,159c0,0.3-0.1,0.6-0.1,0.9c-0.6-0.6-0.5-1.3-0.1-2.3C339.5,158.3,339.6,158.6,339.6,159z"/>
	<path class="st131" d="M400.6,161c0,0.7,0.1,1.4,0.1,2.2c-1-0.6-0.4-1.5-0.5-2.3C400.3,160.9,400.5,161,400.6,161z"/>
	<path class="st132" d="M328.9,114.7c-0.9-0.7-0.3-1.5-0.4-2.3C329,113.1,328.9,113.9,328.9,114.7z"/>
	<path class="st133" d="M337.2,60.6c0-0.6,0-1.3,0.1-1.9c0.3,0,0.5,0,0.8,0C337.7,59.3,337.8,60.1,337.2,60.6z"/>
	<path class="st134" d="M331.4,105.7c0.7,0.7,0.4,1.6,0.4,2.5C331.2,107.4,331.4,106.5,331.4,105.7z"/>
	<path class="st135" d="M422.4,110.4c-0.1,0.8,0.5,1.7-0.4,2.3C421.9,112,421.8,111.2,422.4,110.4z"/>
	<path class="st73" d="M421,99.3c-0.2,0-0.4,0-0.5,0c0-0.8,0-1.7,0-2.5C421.5,97.5,420.8,98.5,421,99.3z"/>
	<path class="st134" d="M331.8,108.1c0.9,0.7,0.5,1.7,0.5,2.5C331.7,109.9,331.7,109,331.8,108.1z"/>
	<path class="st136" d="M328.5,95.2c0-0.7,0-1.4,0.1-2.1c0-0.3,0.4-0.2,0.2,0c0,0,0.1,0.1,0.1,0.2C328.9,93.9,328.9,94.6,328.5,95.2
		z"/>
	<path class="st137" d="M363.3,161.2c-0.1-5,1.4-9.6,3.9-13.9c3.9-6.8,13.6-8,17.8-0.8c3.1,5.4,4.6,10.9,4.5,17
		c-0.1,3.5-4.2,7.7-7.9,8.5c-4.3,1-8.5,0.3-12.5-1.2C365.5,169.4,362.7,166.2,363.3,161.2z"/>
	<path class="st138" d="M382.9,107c2.4,0.1,5.4,3.4,5.6,6.1c0.4,4.5-2.3,8.6-7.5,11.2c-6.8,3.5-16.8-0.5-19.5-7.6
		c-1.4-3.8,0.8-8.7,5-11.1c1.8,2.7,4.1,4.9,6.5,7c1.2,1.1,1.8,3.9,1.1,5.3c-0.5,1.1-1.6,1.3-2.7,1.3c-1.7-0.1-3.3-0.5-4.8-0.6
		c3.3,1,6.9,0.8,10.4,0.3c1-0.1,1.9-0.2,2.8,0.4c2.3,1.5,3.1,1.2,4-1.5c0.2-0.5,0.3-0.9,0-1.9c-2,1.4-4.1,2.3-6.3,2.7
		c-1.2,0.2-2.4,0.2-2.9-1c-0.5-1.3-0.8-3,0.5-3.8C378.3,112,380.4,109.4,382.9,107z"/>
	<path class="st139" d="M382.9,107c-1.3,2.9-3.5,5-6.3,6.3c-2.2,1-1.5,2.8-1.4,4.3c0,1,1,0.7,1.6,0.5c2.3-0.7,5-0.5,6.6-2.9
		c0.6-0.9,1.2-0.4,1.5,0.4c0.4,1-1.3,5.1-2.3,5.7c-1.1,0.6-2-0.1-2.5-0.9c-0.8-1.2-1.5-1.1-2.8-0.9c-3.6,0.6-7.2,0.7-10.8-0.2
		c-0.9-0.2-1.7-0.4-2.2-1.5c2.4,0.3,4.6,0.7,6.8,0.8c0.9,0.1,2.4,0.6,2.5-0.6c0.1-1.5,1.1-3.4-0.7-4.6c-2.1-1.4-3.6-3.4-5.5-5.1
		c-0.8-0.7-1-1.6-0.9-2.6c4.7-2.4,9.6-1.7,14.5-0.7C382.1,105.2,382.6,106.1,382.9,107z"/>
	<path class="st140" d="M350.2,98.4c-0.2-1.6,0.7-2.9,1.5-4.1c1.8-2.5,4.5-2.3,5.9,0.4c0.9,1.8,1,3.7,0.8,5.6
		c-0.2,0.4-0.1,1-0.8,1.2c-0.9,1.2-0.4,2.4,0.1,3.6c0,0.2,0,0.4-0.1,0.6c-0.4,1.6-1.5,2.4-3.2,2.3c-1.9-0.1-2.8-1.6-3.6-3.1
		c-0.4-0.7-0.4-1.5-0.6-2.3C349.9,101.3,349.9,99.8,350.2,98.4z"/>
	<path class="st73" d="M390.4,95.3c0.5-2,1.7-3.1,3.7-3c1.9,0.1,2.2,1.9,2.6,3.4c0.8,3.3,0.8,6.5-0.7,9.6c-0.7,1.4-1.3,2.9-3,2.6
		c-1.7-0.3-2.7-1.7-2.6-3.5c-0.2-0.3-0.3-0.7-0.2-1.1c0.9-2.3,0.9-4.5,0-6.8C390.1,96,390.2,95.7,390.4,95.3z"/>
	<path class="st141" d="M393,69.3c0.3,0.1,0.6,0.1,0.8,0.2c0.5,0.2,0.7,0.5,0.9,0.9c0.1,0.3,0.1,0.7,0,1c-0.1,0.9-0.8,1-1.4,1.2
		c-1-0.2-2-0.3-2.9-0.5c-1.4-0.9-3-0.4-4.5-0.8c-1.1,0-2.1-0.1-3.2-0.1c-0.2-0.2-0.2-0.4,0-0.6c1.8-0.9,3.8-0.7,5.6-1.5
		c0.2-0.1,0.5-0.1,0.8-0.1C390.4,69.2,391.8,68.9,393,69.3z"/>
	<path class="st77" d="M351.7,156.1c0-1,0-2,0-3c0-0.7-0.1-1.3-1-1.4c-0.6-0.5-0.3-1.4-0.9-1.9c0,0-0.1-0.1-0.1-0.1
		c0.5-1.9,1.2-3.7,2.5-5.3c1.9,0.9,0.7,2.6,1,3.9C353,151,352.6,153.6,351.7,156.1z"/>
	<path class="st142" d="M389.7,88.7c-0.4-0.2-0.8-0.2-0.9-0.4c-0.1-0.3-0.2-1,0-1.1c1.4-1,2.8-2.1,4.5-2.4c1.1-0.2,1.4,0.5,0.6,1.2
		C392.6,87,391.1,87.8,389.7,88.7z"/>
	<path class="st143" d="M353.2,148.3c-1-1.1,0-2.8-1-3.9c1.7-2.8,1.8-2.9,4-3.8c-1,1.4-1.2,2.9-1.7,4.2c-0.8,0.7-0.5,1.7-0.9,2.5
		C353.7,147.8,353.6,148.2,353.2,148.3z"/>
	<path class="st144" d="M389.5,104.2c-0.1,0.4-0.7,1.1-0.8,0.5c-0.3-3-0.6-6,0.1-8.9c0-0.1,0.4-0.2,0.6-0.2
		C390.5,98.4,390.5,101.3,389.5,104.2z"/>
	<path class="st145" d="M354.6,84.8c0.7,0.3,1.3,0.6,2,0.9c0.7,0.3,1.7,0.6,1.1,1.7c-0.5,0.8-1.3,0.5-1.9,0.1
		c-0.9-0.5-1.9-0.8-2.6-1.7C353.5,85.3,354,85,354.6,84.8z"/>
	<path class="st146" d="M388.5,69.3c-0.1,1-0.8,0.9-1.5,1c-1.5,0.1-2.9,0.4-4.4,0.5c-1.3,0.2-2.7,0.4-4-0.1
		c-0.1-0.1-0.3-0.3-0.4-0.4c1.3,0,2.6,0,3.8,0c0.7,0,1.5,0.1,1.6-1C385.3,68.6,386.9,68.5,388.5,69.3z"/>
	<path class="st147" d="M393.4,72.6c0.3-0.5,1-0.6,0.9-1.4c0.4-0.5,1-0.6,1.5-0.9c0.2-0.1,0.3-0.2,0.5-0.2c0.3,0.1,0.6,0.1,0.9,0.2
		c0.2,0.3,0.3,0.6,0.4,0.9c0,0.4-0.2,0.7-0.4,0.9l0,0c-0.5,0.6-1.5,0.4-2,1C394.6,73.1,394,72.8,393.4,72.6z"/>
	<path class="st148" d="M390.5,103.2c0,0.4-0.1,0.7-0.1,1.1c-0.1-0.1-0.2-0.1-0.4-0.2c-0.5-2.9-0.4-5.7,0-8.6
		c0.1-0.1,0.3-0.1,0.4-0.2c0,0.4,0.1,0.7,0.1,1.1C391.2,98.7,391.2,101,390.5,103.2z"/>
	<path class="st149" d="M390,95.5c0,2.9,0,5.7,0,8.6c-0.2,0-0.4,0-0.5,0.1c0-2.9,0-5.8,0-8.7C389.7,95.5,389.8,95.5,390,95.5z"/>
	<path class="st150" d="M354.6,84.8c0,1.1-0.8,1-1.5,1c-0.5-0.2-1.1-0.8-0.7-1.2C353,83.8,353.9,84.3,354.6,84.8z"/>
	<path class="st151" d="M385.9,71.3c1.5,0.3,3.3-0.9,4.5,0.8C388.9,72,387.4,71.9,385.9,71.3z"/>
	<path class="st152" d="M418,99.4c0.1,1.4,0.1,2.7,0.2,4.1c0,0.4-0.1,0.7-0.1,1.1c-0.1,0-0.2,0-0.4,0c0-1.8,0-3.5,0-5.3
		C417.7,99.4,417.8,99.4,418,99.4z"/>
	<path class="st153" d="M357.5,101.3c0.3-0.3,0.6-0.6,0.9-0.9c0,0.4,0,0.9,0.1,1.3c-0.5,1.1,0.1,2.4-0.4,3.5
		c-0.2,0.2-0.3,0.4-0.5,0.7c0-0.2-0.1-0.4-0.1-0.6C356.9,103.9,356.7,102.6,357.5,101.3z"/>
	<path class="st154" d="M378.6,70.7c1.3,0,2.6,0.1,4,0.1c0.1,0.1,0.1,0.2,0.2,0.3c-1.4,0-2.8,0-4.3,0c0,0-0.1-0.1-0.1-0.1
		C378.5,70.9,378.6,70.8,378.6,70.7z"/>
	<path class="st155" d="M350.2,98.4c0,1.4,0,2.9,0,4.3C349.5,101.3,349.5,99.8,350.2,98.4z"/>
	<path class="st156" d="M395.3,73.3c0.1-1.3,1.2-1,2-1c0.1,1.1-1.1,0.8-1.4,1.4C395.5,73.7,395.4,73.5,395.3,73.3z"/>
	<path class="st157" d="M418.1,106.9c-0.1,0.9,0.2,1.9-0.5,2.7c0.1-1-0.2-2,0.2-2.9c0,0,0.1,0,0.2,0
		C418.1,106.7,418.1,106.8,418.1,106.9z"/>
	<path class="st158" d="M358,105.1c0-1.2-0.2-2.4,0.4-3.5C358.3,102.8,358.9,104.1,358,105.1z"/>
	<path class="st159" d="M353.7,147.4c0.1-0.9-0.6-2.1,0.9-2.5C354.2,145.7,354,146.6,353.7,147.4z"/>
	<path class="st160" d="M395.3,135.7c1,0,1.9,0,2.9,0C397.2,136.4,396.3,136.4,395.3,135.7z"/>
	<path class="st161" d="M350.8,160.5c0-1,0-2,0-2.9c1,0,0.7,0.5,0.5,1C351.2,159.2,351.3,159.9,350.8,160.5z"/>
	<path class="st77" d="M351.2,158.6c0-0.4,0-0.8-0.5-1c0-0.6,0.3-1,0.9-1C351.7,157.2,351.7,157.9,351.2,158.6z"/>
	<path class="st162" d="M399.2,156.9c0.6,0.7,0.5,1.6,0.6,2.5C398.7,158.7,399.4,157.7,399.2,156.9z"/>
	<path class="st163" d="M365.3,66.4c-0.4-0.1-0.9-0.1-0.8-0.6c0-0.2,0.5-0.3,0.7-0.4c0.7-0.6,1.5-0.5,2.3-0.5c3.6,0,7.3,0,10.9,0
		c0.8,0,1.6-0.1,2.3,0.5c0.2,0.1,0.7,0.4,0.7,0.4c-0.3,0.9-1.1,0.4-1.7,0.6c-1.1,0.8-2.3,0.3-3.4,0.5c-2.2,0-4.4,0-6.6,0
		C368.2,66.7,366.7,67.3,365.3,66.4z"/>
	<path class="st164" d="M380.8,65.4c-5.2,0-10.3,0-15.5,0c0.1-0.8,0.7-1,1.4-1c4.3,0,8.5,0,12.8,0C380.1,64.5,380.7,64.6,380.8,65.4
		z"/>
	<path class="st165" d="M380.2,67.4c-5,0-10.1,0-15.1,0c0.1-0.1,0.3-0.3,0.4-0.4c1.4-0.6,2.8-0.2,4.2-0.3c2.2,0,4.3,0,6.5,0
		c1.1,0.1,2.3-0.3,3.4,0.3C379.8,67.1,380,67.2,380.2,67.4z"/>
	<path class="st166" d="M388.5,69.3c-1.6,0-3.2,0-4.8,0c0.9-1.9,2.7-0.5,4-1c0.3,0,0.6,0.1,0.8,0.1C388.8,68.7,388.8,69,388.5,69.3
		L388.5,69.3z"/>
	<path class="st167" d="M330.2,129.9c-1.9-0.1-3.9,0.2-5.8-0.5c2.1,0,4.2,0,6.3,0c0,0,0.1,0.2,0,0.2
		C330.6,129.7,330.4,129.8,330.2,129.9z"/>
	<path class="st168" d="M328,98.5c0,2.2,0,4.4,0,6.6C327.2,102.9,327.2,100.7,328,98.5z"/>
	<path class="st146" d="M388.5,69.3c0-0.3,0-0.6,0-0.9c1.4,0.9,3.2-0.2,4.5,0.9C391.5,69.3,390,69.3,388.5,69.3z"/>
	<path class="st169" d="M369.6,66.8c-1.4,0-2.7,0.1-4.1,0.1c-0.1-0.2-0.1-0.3-0.2-0.5c1.4,0,2.9,0,4.3,0c0.1,0.1,0.2,0.2,0.1,0.3
		C369.7,66.8,369.7,66.8,369.6,66.8z"/>
	<path class="st102" d="M419.6,93c-0.1,0.4,0.1,1-0.4,1.3c-0.1,0-0.5-0.2-0.5-0.3c-0.2-0.7,0-1.2,0.8-1.3
		C419.6,92.7,419.6,92.8,419.6,93z"/>
	<path class="st170" d="M322.1,87.1c0-0.9,0-1.8,0-2.7c1,0.8,0.4,1.8,0.4,2.8c0,0-0.1,0.1-0.2,0C322.2,87.3,322.2,87.2,322.1,87.1z"
		/>
	<path class="st171" d="M379.6,66.9c-1.1,0-2.1-0.1-3.2-0.1c-0.2-0.1-0.2-0.1-0.2-0.2c0-0.1,0.1-0.1,0.1-0.1c1.1,0,2.2,0,3.4,0
		C379.7,66.6,379.7,66.8,379.6,66.9z"/>
	<path class="st172" d="M394.3,70.3c-0.2-0.3-0.3-0.6-0.5-0.8c0.9,0.1,1.7,0.3,2.5,0.7c0,0.1-0.1,0.2-0.1,0.2
		C395.6,70.8,394.9,70.8,394.3,70.3z"/>
	<path class="st173" d="M397.3,71.2c0-0.3,0-0.5,0-0.8c0.7,0.3,1.3,0.5,2,0.8c0,0-0.1,0.2-0.1,0.2C398.5,71.8,397.8,71.8,397.3,71.2
		z"/>
	<path class="st174" d="M422,125.7c-0.1,0.8,0,1.6-0.6,2.3C421.6,127.2,421.1,126.3,422,125.7z"/>
	<path class="st175" d="M418.6,95.5c-0.2,0.7,0.5,1.7-0.9,1.8C417.7,96.6,417.3,95.6,418.6,95.5z"/>
	<path class="st176" d="M397.3,71.2c0.6,0.1,1.3,0.1,1.9,0.2c-0.2,1.2-1.2,0.7-1.9,0.8C397.2,71.9,397.3,71.5,397.3,71.2z"/>
	<path class="st177" d="M349.8,149.8c1.3,0.1,0.7,1.2,0.9,1.9c-0.3,0-0.6,0-0.9,0C349.8,151,349.8,150.4,349.8,149.8z"/>
	<path class="st178" d="M357.5,101.3c0,1.3-0.1,2.6-0.1,3.8c-1.7-1.3-0.9-3-0.5-4.5C357,100.3,357.4,101,357.5,101.3z"/>
	<path class="st179" d="M390.5,103.2c0-2.3,0-4.5,0-6.8C391.8,97.8,391.8,101.8,390.5,103.2z"/>
	<path class="st176" d="M394.3,70.3c0.6,0,1.3,0.1,1.9,0.1c-0.2,1.2-1.2,0.7-1.9,0.8C394.3,70.9,394.3,70.6,394.3,70.3z"/>
	<path class="st180" d="M376.4,66.5c0,0.1,0,0.2,0,0.3c-2.3,0-4.6,0-6.8,0c0-0.1,0-0.2,0-0.4C371.9,66.5,374.1,66.5,376.4,66.5z"/>
</g>
<g>
	<path class="st53" d="M14,132.2c1.5-2.8,4.1-3.4,7-3.2c1.9,0.1,2.5-0.4,2.7-2.5c0.5-8.5,4.6-14.8,12.2-18.6
		c1.7-0.9,2.3-1.6,1.7-3.6c-1.4-4.5,1.2-7.3,5.9-6.3c1.4,0.3,1.1-0.6,1.3-1.1c1-2.1,2.3-3.8,4.8-4.3c3.5-0.7,6.3,1.3,6.6,4.9
		c0.1,1,0,2.1,0,3.2c0.4-0.1,0.6-0.1,0.9-0.1c1.9-0.7,4-1.5,5.6,0.4c1.5,1.8,1.2,4.1,0.2,5.9c-1,1.6-0.5,2.3,0.7,3.3
		c7,6.2,10.5,14.3,11.5,23.5c-0.2,1.3-0.4,2.6,0.1,3.8c0.1,6,2.7,11.5,3.3,17.4c0.6,6.1-1.2,11.6-4.3,16.8c-0.3,0.5-0.7,0.9-0.8,1.5
		c-1.5,7-7.6,8.9-13.7,4.9c-0.6,2.1-0.2,4.3-0.6,6.5c-0.5,1,0.1,2.1-0.4,3.1c-0.4,0.9-0.7,1.9-1.9,1.8c-0.3,0.2-0.6,0-0.8-0.2
		c-0.3-0.5-0.9-0.8-1.3-1.3c0.1-1.1,1-1.3,1.7-1.6c0.3-0.1,0.6-0.1,0.9-0.3c0.4-2.5,0.6-4.9-0.2-7.3c-0.6-1-1.3-0.5-2-0.1
		c-1.3,0.7-3.3,0-4.1,1.9c-0.6,2.2-1.6,1.4-2.6,0.3c-0.6-0.5-1.1-0.7-1.6,0.2c-0.1,0.2-0.3,0.3-0.4,0.4c-0.3,0.1-0.6,0.1-0.9,0
		c-0.4-0.3-0.8-0.7-1.1-1c-0.3-0.3-0.5-0.6-0.9-0.8c-1-0.4-2.1-0.1-3.1-0.4c-1.2-0.3-1,0.6-1.1,1.3c0,0.7,0,1.4-0.2,2.1
		c-0.1,0.3-0.3,0.6-0.7,0.8c-0.2,0-0.5,0-0.7,0c-1-0.6,0-2-1.1-2.5c-0.3-2.6-2-3.4-4.3-4.2c-6.9-2.5-11.6-7.3-12.6-15
		c-0.1-1.1-0.8-1.1-1.6-1.3c-2.7-0.6-5.3-1.3-7.6-2.8c-1.4-0.9-2.6-2-3.4-3.3c-1.4-2.2-1.8-4.6-0.5-7c1.3-2.3,3.6-2.2,5.7-2
		c3.9,0.4,7.7,0.9,11.4-0.7c1.8-1,2.8-0.5,3,1.5c0.1,2-0.6,3.8-1.6,5.5c-5,8.8-1.7,18.3,7.7,22.1c6.9,2.7,14,2.5,21.2,1.8
		c1.8-0.2,1.8-0.9,1.1-2.3c-2-4.4-3.1-9-3-13.8c0-0.3,0-0.6,0-1c0.2-1.3,0.2-2.9,1.9-2.9c1.6,0,1.2,1.6,1.3,2.7
		c0.4,3.6,0.5,7.3,1.9,10.7c1.1,2.6,2.4,5,4.6,6.7c3.5,2.7,7,1.5,7.8-2.8c0.8-4,0.5-8,0.1-12.1c-0.2-1.6-0.3-3.2-0.1-4.8
		c0.1-1,0.5-2,1.7-2c1.1,0,1.5,0.9,1.6,1.8c0.4,2.2,0.6,4.5,0.8,6.7c0.1,0.9-0.1,1.7,0.3,2.6c2.3-6.8,1.6-13.5-1.2-20
		c-0.9-2.1-0.9-4.3-0.8-6.4c0.3-7.9-2.1-15.1-6.6-21.4c-4.6-6.4-10.8-9.6-19-8.6c-6.1,0.8-11.4,2.8-15.5,7.6
		c-2.6,3-3.8,6.6-4.3,10.5c0.1,0.4,0.4,0.1,0.1,0.2c0,0-0.1-0.1-0.1-0.2c0-3.1,1.8-5.8,4.3-6.7c2.8-1,5.7-0.1,7.7,2.6
		c0.8,1.2,1.7,1.2,3,1.2c2.9,0,5-0.5,7.1-2.9c2.8-3.1,8.6-2.2,11.5,1.1c2.8,3.1,2.4,8.5-0.7,11.4c-0.6,0.5-1.1,1-1.2,1.9
		c-0.3,3.8-1.6,5.2-5.4,5.9c-0.5,0-1-0.1-1.5-0.3c-0.7-0.5-1.6-0.7-2.1-1.5c0.4-1.2,1.7-1,2.6-1.5c1-0.6,2.5-0.7,2.5-2.3
		c0-1.6-1.5-1.9-2.7-2.2c-0.3-0.1-0.6-0.2-0.9-0.3c-2-0.5-3.4-1.6-4.3-3.6c-1.6-3.5-4.2-3.9-6.4-0.9c-2.1,3-4.8,4-8.3,3.8
		c-3.4-0.2-6.9,0.2-10.4-0.4c-1.6-0.3-3.2,0.4-4.7,1.1c-0.3,0.1-0.7,0.2-1.1,0.2c-0.4,0-0.7-0.1-1.1-0.2
		C14.3,132.9,14.1,132.6,14,132.2z"/>
	<path class="st181" d="M44.5,180.2c0.6,0,0.9,0.4,0.9,1c0.9,1.1,0.5,2.4,0.6,3.7c0.1,0.7-0.3,1.7,0.9,1.9c2.3,0.9,4.7,0.2,7,0.9
		c0.5,0.8,1.5,0.8,2.2,1.3c0.2,0.2,0.4,0.3,0.5,0.5c-0.1,0.5-0.5,0.6-0.9,0.5c-0.7,0.3-1.4,0.1-2.1,0.2c-1.3-0.4-2.6-1.1-4-0.2
		c-0.1,0.2-0.2,0.3-0.3,0.4c-1.7,0.1-3.2-0.1-4.4-1.4c-0.6-0.7-1.3-0.3-2-0.3c-2.1,0.1-4.1,0.7-6.2-0.2c-0.1-0.2-0.1-0.4,0-0.6
		c1.6-0.8,3.2-0.1,4.6-0.4c-1.4-0.2-3,0.4-4.6-0.4c-0.2-0.3-0.2-0.7,0-1.1c1.5-0.6,3-0.1,4.5-0.2c2.6-0.2,3.2-0.8,3.1-3.4
		C44.1,181.7,43.8,180.8,44.5,180.2z"/>
	<path class="st182" d="M15.4,132.7c0.3,0,0.6,0,0.9,0c-0.1,3.3,1.8,4.9,4.6,5.7c0.6,0.2,1.2,0.5,1.5,1.1c0.1,0.4,0,0.7-0.3,1
		c-1.1,0.8-2.2-0.1-3.3,0.3c-2.3-0.9-4.7-1.9-5.3-4.7c0.3-0.2,0.7-0.2,1-0.4C15.1,134.8,14.5,133.5,15.4,132.7z"/>
	<path class="st183" d="M36.7,186c0,0.3,0,0.6,0,0.9c0.3,0.3,0.3,0.6,0,1c0,0.2,0,0.4,0,0.5c-3.1-0.6-3.9-2.9-1.9-5.1
		c0.6-0.7,1.3-1.2,1.9-1.8c0.6,0.3,0.4,1.2,1,1.5c0.2,0,0.5,0.1,0.7,0.1C38.1,184.3,37,184.9,36.7,186z"/>
	<path class="st184" d="M18.8,140.9c1.1-0.8,2.3-0.2,3.4-0.4c0.1,0,0.2,0.1,0.4,0.1c1.8,0.7,3.8-0.3,5.5,0.8
		c0.2,0.3,0.3,0.7,0.2,1.1c-1.4,1-0.4,3.2-2,4c0.2-1.9-0.9-2.3-2.5-2.1c0.2-0.3,0.3-0.6,0.5-1c0.5-0.4,0.4-0.7-0.1-1
		C22.3,141.9,20.5,141.4,18.8,140.9z"/>
	<path class="st185" d="M14.4,136.6c-0.3-0.2-0.6-0.3-0.9-0.5c-0.3-1.4-0.3-2.7,0.5-3.9c0.1,0.2,0.3,0.3,0.4,0.5
		C15.1,134,15.1,135.3,14.4,136.6z"/>
	<path class="st186" d="M37.7,183.1c-1-0.1-0.9-0.9-1-1.5c0-0.3,0-0.5,0-0.8c0.4-0.5,0.8-0.6,1,0.2
		C37.7,181.6,37.6,182.4,37.7,183.1z"/>
	<path class="st53" d="M24.1,142.4c0.6,0.1,1.3-0.3,1.7,0.4c-0.4,0.8-1.1,0.4-1.6,0.5C24.1,143,24.1,142.7,24.1,142.4z"/>
	<path class="st187" d="M75,137.5c-0.9-1.3-0.7-2.5-0.1-3.8C74.9,135,75,136.3,75,137.5z"/>
	<path class="st188" d="M49.3,190.3c0-0.1,0-0.3,0-0.4c1-0.8,2.1-0.5,3.2-0.3c0.3,0.2,0.4,0.4,0.2,0.7
		C51.6,190.5,50.4,190.5,49.3,190.3z"/>
	<path class="st189" d="M58.6,187.6c0-1-0.4-2.1,0.4-3.1C59,185.6,59.3,186.7,58.6,187.6z"/>
	<path class="st189" d="M52.7,190.3c0-0.1,0-0.3,0-0.4c0.2-0.2,0.3-0.2,0.5,0c0.9,0,1.7,0,2.6,0.1C54.8,190.6,53.7,190.2,52.7,190.3
		z"/>
	<path class="st56" d="M26.1,146.4c0.7-0.8,0.5-1.8,0.4-2.7c-0.2-1.3,0.5-1.4,1.5-1.4c0.4-0.3,0.8-0.4,1.2-0.3
		c3.9,0.2,7.8,0.4,11.7-0.1c2.1-0.2,4.3-0.4,6.4-0.7c0.5,0,1-0.1,1.5-0.3c1.3-0.4,2.7-0.1,4-0.5c4-1.2,4.8-2.3,4.6-6.3
		c-0.1-0.9,0.5-0.8,0.9-1.1c2.6-1.6,3.7-4.7,3-8c-0.6-2.8-3.4-5.3-6.3-5.6c-4-0.4-6.2,0.7-8.1,4.5c-0.4,0.8-0.8,0.6-1.3,0.4
		c-1.9-0.8-3.8-0.8-5.6,0.2c-1.1,0.6-1.1-0.1-1.4-0.8c-1.4-3.1-3.5-4.3-6.5-3.8c-2.7,0.5-5,3-5.2,5.9c-0.1,1.1,0,2.2-0.4,3.3
		c-0.9-1.6-0.7-3.4-0.4-5.1c1.6-8.7,9-14.7,18.1-16.3c11.4-2,20,4.4,24.3,13.6c2.5,5.4,4.1,11,3.8,17c-0.2,2.6,0.5,5,1.4,7.5
		c2.3,5.8,2.9,11.7,1,17.7c-0.3,0.9-0.7,1.8-1.5,2.6c-0.3-2.7-0.5-5.5-0.8-8.2c-0.1-0.6,0-1.3-0.1-1.9c-0.2-0.9-0.1-2.3-1.4-2.2
		c-1.4,0.1-0.9,1.5-0.9,2.4c0.2,4.6,0.7,9.2,0.4,13.8c-0.3,4.3-1.5,6.5-4,7.2c-2.5,0.7-6-1.2-7.9-4.4c-2.7-4.5-3.9-9.3-3.9-14.5
		c0-0.5,0.1-1,0-1.5c-0.1-0.6,0.1-1.5-0.8-1.5c-0.9-0.1-1.2,0.8-1.2,1.5c-0.2,3-0.1,6,0.6,8.9c0.8,3.2,1.7,6.4,3.7,9.3
		c-5.7,1.7-11.4,1.3-17,0.7c-5-0.5-9.7-1.9-13.4-5.5c-5.1-4.9-6-13.2-2.3-19.1C25.3,149.8,26.1,148.3,26.1,146.4z"/>
	<path class="st190" d="M22.2,139.5c-1.4-0.7-2.9-0.9-4.2-1.7c-2-1.3-2.8-2.8-1.6-5.1c1.7-1.4,3.7-1.5,5.7-1.3
		c3.9,0.4,7.7,0.4,11.6,0.4c2.5,0,4.4-0.9,5.6-3.1c0.5-0.9,1.1-1.6,1.9-2.1c2-1.3,4.5-0.8,5.2,1.4c1.1,3.4,3.5,4.7,6.5,5
		c1.8,0.2,2.3,1.4,2.5,2.6c0.2,1.2-1,1.5-1.9,2.1c-1.3,0.9-2.9,0.9-4.2,1.7c-0.1,0.1-0.2,0.2-0.2,0.3c-0.5,0.3-1.1,0.3-1.7,0.4
		c-0.4,0-0.7,0-1.1,0c-1.4,0.1-2.8-0.3-4.2,0.4c-0.2,0.2-0.4,0.3-0.7,0.4c-0.4,0.1-0.8,0.2-1.2,0.3c-1.4,0.1-2.7,0-4.1,0
		c-1.5,0-3.1,0-4.6,0c-1.1,0-2.2,0-3.3-0.1c-0.5-0.1-1.1-0.1-1.6-0.2C25.1,140.5,23.5,140.6,22.2,139.5z"/>
	<path class="st138" d="M13.4,147.8c3.2,0.9,6.4-0.3,9.8-0.1c-1.2,3.1-3.1,5.8-3.5,9.1c-0.1,0.7-0.6,0.6-1.1,0.6
		c-3.5-0.6-7-1.3-9.1-4.6c-1-1.6-1.6-3.4,0-5C10.9,147.4,12.1,147.3,13.4,147.8z"/>
	<path class="st191" d="M54.2,188c-2.6-0.1-5.4,0.8-7.7-1.1c-0.3-0.3-0.3-0.6-0.2-1c0.4-0.9,1.4-1.2,2.2-1.7
		c1.5-0.9,2.4-2.2,1.9-4.1c0-0.7-0.1-1.4,1-1.5c1.3-0.1,2.5-0.3,3.8-0.5c0.9-0.5,1.8-0.2,1.9,0.7c0.3,2.5,0.9,5-0.5,7.5
		c-0.7,0.5-1.3,1-2,1.5C54.4,188.1,54.3,188.1,54.2,188z"/>
	<path class="st191" d="M36.7,186c-0.8-1.7,1.1-1.9,1.7-2.9c0.1-0.2,0.2-0.4,0.3-0.5c0.4-0.8,0.3-1.7,0-2.5
		c-0.1-1.1-0.3-2.5,1.6-1.4c1.1,0.8,2.5-0.2,3.6,0.5c0.2,0.3,0.4,0.6,0.6,0.9C45.1,186.4,43.1,188,36.7,186z"/>
	<path class="st192" d="M59.5,125.9c0,0.3,0.1,0.8-0.1,0.9c-1.5,1.8-3.9,2.4-5.8,3.6c-1,0.6-2.2-0.4-3.3-1c-0.8-0.4-0.7-0.9,0.1-1.4
		c2.3-1.2,4.5-2.4,6.7-3.7C59,123.4,59.4,124.4,59.5,125.9z"/>
	<path class="st193" d="M37.4,125.5c-0.4,0.4-0.6,0.6-0.8,0.7c-2.1,1-4.2,2-6.3,3c-0.4,0.2-1,0.5-1.3-0.1c-0.2-0.6-0.5-1.3,0.3-1.7
		c2.1-1.2,4.1-2.6,6.3-3.6C36.9,123.1,36.4,125.1,37.4,125.5z"/>
	<path class="st194" d="M50.3,180.1c0.9,3,0.7,3.7-2.2,4.9c-0.6,0.3-1.1,0.7-1.6,1c-0.8-1.6-0.7-3.2-0.1-4.9l0.1-0.1
		c1.2,0.9,1.4-0.3,1.9-1c0.3,0.1,0.6,0.2,0.8,0.4c0.3,0.2,0.2,0.9,0.7,0.8C50.4,181.2,50.2,180.6,50.3,180.1z"/>
	<path class="st195" d="M57.1,178.3c0.4,0.1,0.9,0.2,0.9,0.6c0,2.5,0,4.9,0,7.4c0,0.4-0.5,0.6-0.9,0.7
		C56.6,184.1,56.7,181.2,57.1,178.3z"/>
	<path class="st196" d="M46.4,181.2c0,1.6,0.1,3.2,0.1,4.9c0,0.3,0,0.6,0,0.8c-0.2,0.3-0.3,0.7-0.5,0.7c-0.5,0.1-0.5-0.4-0.5-0.8
		c0-1.9,0-3.8,0-5.6C45.7,181.2,46,181.2,46.4,181.2z"/>
	<path class="st197" d="M57.1,178.3c0,2.9,0,5.8,0,8.7c-0.2-0.2-0.4-0.4-0.6-0.6c0.1-2.2,0.3-4.3,0.1-6.5c-0.1-1-0.3-1.7-1.5-1.7
		C55.8,176.9,56.5,176.9,57.1,178.3z"/>
	<path class="st198" d="M48.3,180.2c0,0.1,0,0.2,0,0.2c0,0.8,0.5,2-0.5,2.3c-1.3,0.5-0.4-1.5-1.4-1.6c0.3-0.6-0.5-1.7,0.6-2
		C47.8,178.9,48,179.7,48.3,180.2z"/>
	<path class="st199" d="M14.4,136.6c0-1.3,0-2.6,0-3.9c0.3,0,0.6,0,1,0C15,134,16.3,135.7,14.4,136.6z"/>
	<path class="st200" d="M52.9,140.5c-1.2,0.6-2.5,1-3.9,0.9c-0.4,0.2-0.7,0-0.8-0.4c-0.1-0.7,0.4-0.9,0.9-1c0.7-0.1,1.5-0.1,2.1,0.4
		C51.8,140.5,52.3,140.5,52.9,140.5z"/>
	<path class="st97" d="M43.7,177.8c-1.3,0.5-2.1,0.6-3.1,0C41.6,177.1,42.4,177.2,43.7,177.8z"/>
	<path class="st201" d="M43.9,179.3c-1.2,0-2.4-0.1-3.6-0.1c-0.1,0-0.2-0.1-0.2-0.1c0-0.1,0.1-0.2,0.2-0.3
		C41.5,178.8,42.8,178.4,43.9,179.3z"/>
	<path class="st202" d="M51.2,140.5c-0.6,0-1.3,0-1.9,0c-0.3-0.3-0.3-0.7,0-1c0,0,0,0,0,0C50,139.7,51.1,139.1,51.2,140.5z"/>
	<path class="st203" d="M13.4,147.8c-1.3,0-2.6-0.1-3.8-0.1C10.9,147,12.1,146.9,13.4,147.8z"/>
	<path class="st204" d="M57,135.5c0,0.3,0,0.7-0.4,0.8c-0.5,0.1-0.5-0.3-0.5-0.6c0-0.3,0.2-0.7,0.4-0.7
		C57,134.8,56.9,135.2,57,135.5z"/>
	<path class="st205" d="M54.2,188c0.1-0.1,0.2-0.1,0.3-0.1c0.7,0.1,1.5-0.1,1.6,1C55.3,188.8,54.3,189.3,54.2,188z"/>
	<path class="st206" d="M38.7,180.1c0.6,0.8,0.5,1.7,0,2.5C38.7,181.8,38.7,181,38.7,180.1z"/>
	<path class="st207" d="M36.7,187.9c0-0.3,0-0.6,0-1c2.5,0,5,0,7.4,0c0,0.3,0,0.6,0,1C41.7,187.9,39.2,187.9,36.7,187.9z"/>
	<path class="st208" d="M53.2,189.9c-0.2,0-0.3,0-0.5,0c-1.1,0-2.3,0-3.4,0c-0.3-0.1-0.9-0.5-0.6-0.6C50.2,189,51.9,188,53.2,189.9z
		"/>
	<path class="st184" d="M22.2,139.5c1.5,0.1,3,0.4,4.5,0.9c-1.5,0.9-3,0.7-4.5,0.1c0,0,0,0,0,0C22.2,140.1,22.2,139.8,22.2,139.5z"
		/>
	<path class="st209" d="M22.2,140.5c1.5,0,3,0,4.5-0.1c0.4,0,0.9,0.1,1.3,0.1c0.3,0.2,0.3,0.4,0.2,0.7c-0.1,0.1-0.1,0.1-0.2,0.2
		c-1.4,0-2.8,0-4.2,0C23,141.4,22.3,141.5,22.2,140.5z"/>
	<path class="st209" d="M28.7,142.5c-0.3,0-0.5,0-0.8-0.1c0-0.3,0-0.6,0-1c0,0,0,0,0,0c1.6-0.8,3.2-0.6,4.8-0.1
		c0.3,0.4,0.3,0.8,0,1.2C31.4,142.7,30.1,142.8,28.7,142.5z"/>
	<path class="st210" d="M32.8,141.5c-1.6,0-3.2,0-4.9,0c0-0.3,0-0.6,0-0.9c1.1,0,2.3,0.1,3.4,0.1c1.6,0.2,3.2,0.2,4.8,0
		c1.5,0,2.9-0.1,4.4-0.1c0.7,0.8,1.5,0.3,2.3,0.3c1.1,0,2.3,0,3.4,0c0.6,0.1,1.4,0,1.5,1c-2.2,0.3-4.4,0.8-6.6,0.6
		c-0.8,0.3-1.7,0.2-2.5,0.1c-1.1-0.6-2.3-0.5-3.5-0.5C34.4,142.1,33.5,142.1,32.8,141.5z"/>
	<path class="st211" d="M38.6,142.4c0.9,0,1.7,0,2.6,0.1c-4.2,0.7-8.3,0.5-12.5,0c1.4,0,2.7-0.1,4.1-0.1
		C34.8,141.7,36.7,141.7,38.6,142.4z"/>
	<path class="st212" d="M47.8,141.8c-0.4-0.5-0.9-0.4-1.5-0.4c-0.2-0.2-0.3-0.5-0.2-0.8c0.2-0.5,0.8-0.6,1.2-0.9
		c0.6-0.1,1.3-0.1,1.9-0.2c0,0.3,0,0.7,0,1c-0.7,0.1-1.2,0.4-0.3,1C48.6,141.6,48.2,141.7,47.8,141.8z"/>
	<path class="st213" d="M47.4,139.6c0,0.6-0.4,0.8-1,0.9c-1.2,0.8-2.5,0.3-3.8,0.4c-0.5,0-0.9-0.1-1.1-0.5c0.1-0.1,0.1-0.2,0.2-0.3
		c1.6-0.8,3.3,0.1,4.9-0.5C46.8,139.6,47.1,139.6,47.4,139.6z"/>
	<path class="st214" d="M46.6,139.5c-1.6,0.7-3.3,0.5-4.9,0.5C43.2,138.9,44.9,139.7,46.6,139.5z"/>
	<path class="st211" d="M36.2,140.6c-1.6,0.5-3.2,0.5-4.8,0C33,140.6,34.6,140.6,36.2,140.6z"/>
	<path class="st215" d="M41.4,140.4c0.4,0.1,0.8,0.1,1.2,0.2c0.2,0.3,0.2,0.6,0,0.8c-0.8-0.1-1.8,0.4-1.9-0.9
		C40.9,140.4,41.1,140.4,41.4,140.4z"/>
	<path class="st216" d="M38.6,142.4c-1.9,0-3.9,0-5.8,0c0-0.3,0-0.6,0-0.9c1.4,0,2.8,0,4.2,0C37.8,141.4,38.5,141.4,38.6,142.4z"/>
	<path class="st217" d="M42.5,141.4c0-0.3,0-0.6,0-0.8c1.3,0,2.5-0.1,3.8-0.1c0,0.3,0,0.6,0,0.9C45.1,141.4,43.8,141.4,42.5,141.4z"
		/>
</g>
<g>
	<path class="st53" d="M195,190.1c-3.5-0.1-6.8-0.7-9.7-2.7c-1-0.7-1.8-1.1-2.1,0.7c-0.2,1.1-1,1.6-2.1,1.8
		c-3.1,0.5-6.1,0.8-9.2,0.2c-2.2-0.4-2.5-2.2-2.5-3.8c0-2-0.8-2.6-2.6-2.3c-0.1,0-0.1,0-0.2,0c-3.9-0.2-3.9-0.3-4.9,3.6
		c-0.3,1.2-1.1,1.9-2.2,2c-1.9,0.1-3.7,0-5.6-0.1c-1.4-0.1-2.2-0.9-2.3-2.3c-0.3-3.2-2.1-5-4.9-6.4c-3.5-1.8-5.6-4.9-6-8.9
		c-0.5-5,0.7-9.5,3.3-13.8c1.1-1.8,0.9-2.6-1-3.6c-6.4-3.2-10.1-12.7-7.5-19.4c1.5-3.9,4.1-5.8,8.2-5.8c1.1,0,1.1-0.4,1.2-1.2
		c0.4-3.5,1.5-6.8,3.6-9.7c4-5.9,11.4-7.3,17.3-3.4c1.1,0.7,1.8,0.8,2.9,0.1c6.4-3.8,16.2-1.1,20.3,5.6c3.1,5.1,5.1,10.6,4.8,16.7
		c-0.2,3.3-0.2,6.7,0,10c-0.2,2.7-0.2,5.5-0.5,8.2c-0.2,1.5,0.2,2.6,1.2,3.6c2.7,2.9,2.8,3.3,0.7,6.5c0.1,0.1,0.2,0.2,0.3,0.3
		c4.4,2.2,5.2,2.3,2.3,7.2c-0.5,0.8-0.3,1.1,0.4,1.6c2.5,1.9,2.6,2.1,1.3,4.8c-0.8,1.6-0.2,2.3,1.2,2.8c1.4,0.5,2.8,1,4.1,1.6
		c1.1,0.4,1.8,1.3,1.8,2.5c0,1.2-0.7,2.1-1.8,2.7c-1.4,0.6-2.8,1.3-4.4,1C198.5,189.8,196.8,189.8,195,190.1z"/>
	<path class="st218" d="M193.7,147.4c-0.5-3.3-0.5-6.7,0-10C194,140.7,194,144.1,193.7,147.4z"/>
	<path class="st219" d="M195,190.1c1.7-0.6,3.5-0.6,5.2,0C198.5,190.2,196.8,190.3,195,190.1z"/>
	<path class="st220" d="M156,157c2,0,4,0,5.9,0c0.2-0.2,0.3-0.3,0.6-0.3c0.7-0.2,1.5-0.1,2.3-0.1c4.2-0.6,8.6-0.2,13.1-1.9
		c-1.4-0.8-2.4-0.2-3.3-0.3c-0.7,0-1.4,0-2.1,0.3c-1.3,0.6-2.8,0.4-4.1,0.7c-0.3,0-0.7,0-1,0c-2.7-0.4-5.4-0.1-8.1-0.2
		c-0.8-0.1-1.6-0.4-2.5-0.5c-0.7-0.1-1.5-0.3-2.2-0.4c-0.1-0.1-0.1-0.3-0.1-0.4c-1.1-0.7-2.3-0.4-3.5-0.1c-0.1,0-0.2,0.1-0.2,0.1
		c-5-0.5-9.3-2.2-12.2-6.5c-0.8-1.2-1.9-2.8,0.1-4c1.6,0.4,3.2,0.4,4.8,0c0.5,0.3,1,0.6,1.5,1c4,3.5,5.3,3.6,9.8,0.6
		c1.6-1,2.7-0.9,4.1,0.7c1.2,1.4,2.7,2.2,4.4,2.6c2,0.4,3.7-0.2,5.2-1.5c0.6-0.5,1.1-1.2,0.6-2.1c-1.1,0.5-1.2,2-2.5,2.2
		c-0.2,0-0.4,0-0.5-0.1c-0.8-0.6-1.6-0.7-2.4,0c-0.2,0.1-0.3,0.1-0.5,0.2c-1,0.1-1.7-0.5-2.4-1.1c-0.8-0.8-1.6-1.7-2.7-2.2
		c-0.2-0.1-0.3-0.2-0.5-0.3c-1.2-0.5-2.4-0.4-3.6-0.2c-3.1,2.5-5.7,1.9-8.4-1c-1.7-1.9-4.5-2.7-7-1.6c-2.1,1-2.4,0.1-2.4-1.6
		c0.4-0.7-0.1-1.5,0.4-2.1c0.7-1.4,1.3-2.7,2.3-3.9c1.5-1.7,3.7-2.3,5.8-1.5c2.4,0.9,2.6,0.8,2.8-1.7c0-0.4,0-0.8,0.3-1.1
		c0.2-0.1,0.3-0.1,0.5,0c0.3,0.1,0.6,0.1,0.8-0.2c0.5-0.9,0.5-1.7-0.1-2.6c-0.3-0.3-0.3-0.8-0.7-1.1c0.9-4.2,3.1-7.4,7.1-8.9
		c3.9-1.4,8.3,0.1,11,3.5c0.7,0.8,0.9,0.9,1.7,0.1c2-1.9,4.3-3,7.2-2.9c8.7,0.4,11,3.3,14.1,12.1c2.3,6.6,1.7,13.4,1.6,20.1
		c0,0.5,0,1.1,0,1.6c0,0.2-0.1,0.3-0.3,0.2c-0.2-0.1-0.4-0.3-0.6-0.2c-0.2,3,0.1,6.1-0.2,9.1c0,0.5-0.1,1.1,0.4,1.5
		c0,0.9,0,1.8,0,2.8c0.1,0.2,0.1,0.3,0.1,0.5c-0.6,1.4-0.7,2.8-0.1,4.2c0.1,0.1,0.3,0.2,0.4,0.3c0.1,0.1,0.2,0.2,0.3,0.4
		c0.2,5.2,2.3,9.6,5.7,13.5c1.3,1.4,2.8,2.2,4.6,2.6c0.9,0.2,1.8,0.5,2.5,1.2c-0.9,1.3-2.5,0.6-3.7,1.2c-0.1,0.2-0.2,0.2-0.3,0
		c-3.9,0.3-7.8,0.1-11.4-1.6c-1.9-0.9-3.8-1.7-4.5-3.9c-0.2-0.5-0.6-0.9-1.2-0.9c-0.7,0-1.1,0.5-1.3,1.1c-0.1,0.2-0.1,0.4-0.1,0.6
		c-0.4,1.5,0,3.6-1.6,4.3c-2.3,1-4.8,1.4-7.2,0.5c-0.8-0.6-0.1-1.7-0.7-2.3c-0.1-0.9-0.2-1.8,0.1-2.6c0.6-1.6-0.3-2-1.6-1.8
		c-4.1,0.6-8.2,0.3-12.3,0.4c-0.7-0.5-1.7,0.1-2.4-0.4c-2.9-0.5-5.6-1.3-8.1-2.9c-2.3-1.5-3.5-3.7-4.2-6.3c0-0.1,0-0.2,0.1-0.3
		c0.5-1.3,0.5-2.5-0.2-3.8c0-0.2,0-0.4,0.1-0.5c0.6-3.3,2.1-6.1,3.5-9.1c1.2-2.5,2.6-1.5,4.1-1.6c0.2,0.1,0.5,0.1,0.6,0.3
		c0.1,0.1,0.1,0.3,0.2,0.5c1.1,0.7,2.1,0.2,3.1-0.3C155.3,156.7,155.7,156.8,156,157z"/>
	<path class="st221" d="M166.5,146.7c0.8-0.3,1.2-1.1,1.5-1.8c0.2-0.6,0.3-1.2,1.1-1c0.9,0.3,1,1,0.8,1.8c-0.3,1-1,1.7-1.8,2.3
		c-2.6,1.8-6.9,1.2-8.9-1.3c-1.2-1.5-2.5-2.3-4.4-1.6c0-0.3,0-0.5,0-0.8c0.7-0.6,1.7-0.5,2.5-1c0.3-0.1,0.6,0,0.9,0.2
		c1.4,0.1,2,1.3,2.9,2.1c0.6,0.6,1.2,1.3,2.2,1.2C164.2,146.6,165.4,146.6,166.5,146.7z"/>
	<path class="st222" d="M174.5,153.9c0.5-0.1,1.1-0.2,1.6-0.3c0.9-0.2,2-0.5,2.3,0.6c0.3,1.3-1,1.4-1.8,1.6c-1.5,0.3-3,0.6-4.6,0.7
		c-2.4,0.2-4.8,0.3-7.2,0.4c-0.8-0.1-1.6-0.1-2.3,0c-0.2,0-0.3,0-0.5,0.1c-0.5-0.7-1.5,0-2-0.7c1.8-1.1,3.7-0.3,5.5-0.6
		c0.9,0,1.8,0,2.8,0.1c0.4,0.1,0.8,0,1.2,0c-0.4,0-0.7,0-1.1-0.3c-0.1-0.2-0.1-0.3,0-0.5c1.3-0.8,2.9-0.2,4.2-0.8
		C173.1,153.8,173.9,154.3,174.5,153.9z"/>
	<path class="st223" d="M154,186.9c0-0.4-0.1-0.8-0.1-1.2c-0.1-2.5,0.6-2.9,3.3-2.1c0.8,0,1.7,0,2.6,0c0,0.8-0.2,1.4-0.6,1.9
		c-0.6,0.4,0.1,1.3-0.6,1.6c-0.7,0.4-1.5,0.3-2.3,0.3C155.5,187.4,154.6,187.5,154,186.9z"/>
	<path class="st224" d="M190.2,161.1c-0.6-0.1-0.8-0.4-0.8-0.9c0-3.4,0-6.8,0-10.2c0-0.3-0.1-0.9,0.6-0.7c0.1,0,0.1,0.3,0.2,0.5
		c0.6,3,0.6,6,0,8.9C190.2,159.6,190.2,160.3,190.2,161.1z"/>
	<path class="st225" d="M194.7,172.9c-0.4-1.6-1-2.9-0.9-4.4C197.3,169.3,197.4,169.8,194.7,172.9z"/>
	<path class="st226" d="M166,156.3c-2,0-4,0-6.1,0c-0.7-0.2-1.8,0.5-2-0.8c2.6-0.7,5.3-0.4,7.9-0.2
		C166.2,155.6,166.3,155.9,166,156.3z"/>
	<path class="st227" d="M143.4,143.4c-1.1,1.1-3.8,1.1-4.8,0c0.5-0.6,1.3-0.4,1.9-0.8c0.8,0.4,1.7-0.1,2.4,0.4
		C143.1,143.1,143.3,143.3,143.4,143.4z"/>
	<path class="st226" d="M151.5,156.2c0.8-0.8,4.5-1.1,5.3-0.5c0.1,0-0.1,0.4-0.1,0.5C155,156.6,153.2,157.4,151.5,156.2z"/>
	<path class="st228" d="M166,155.5c-2.7,0-5.4,0-8,0c0-0.1,0-0.2,0-0.3c0.4-0.4,0.9-0.2,1.4-0.2c2.7,0,5.5-0.1,8.2,0.1
		c0.3,0,0.5,0.1,0.8,0.1c0,0.1,0,0.3,0,0.4C167.6,156.1,166.8,156,166,155.5z"/>
	<path class="st229" d="M158.7,187.7c-1.1,1.2-3.8,1.1-4.8,0C155.5,187.1,157.1,187.1,158.7,187.7z"/>
	<path class="st230" d="M149.1,128.9c-0.1,0.2-0.2,0.6-0.3,0.6c-0.4,0.1-0.4-0.3-0.5-0.6c-0.3-1.2-0.2-2.5,0-3.7
		c0-0.1,0-0.2,0.1-0.3c0.5,0,0.8,0.3,0.8,0.8C149.7,126.7,149.7,127.8,149.1,128.9z"/>
	<path class="st231" d="M177,188.9c-1.4,0.5-2.8,0.5-4.3,0C174.1,188.5,175.6,188.4,177,188.9z"/>
	<path class="st232" d="M190.2,158.8c0-3,0-6,0-8.9c0.4,0.2,0.4,0.6,0.4,0.9c0.2,2.4,0.4,4.7-0.1,7.1
		C190.5,158.2,190.3,158.5,190.2,158.8z"/>
	<path class="st233" d="M160.1,114.7c-1.2,0.5-2.3,0.5-4,0.1C157.7,114.2,158.9,114.3,160.1,114.7z"/>
	<path class="st234" d="M142.6,171.6c-1.2-1.1-1.2-2.9,0-4C143.5,168.9,143.4,170.2,142.6,171.6z"/>
	<path class="st235" d="M157.2,183.6c-1.5,0.1-3.4-0.5-3.3,2.1c-0.5-0.7-0.5-1.6-0.7-2.4c1.3-0.5,2.6-0.4,3.9-0.1
		C157.1,183.4,157.1,183.5,157.2,183.6z"/>
	<path class="st236" d="M190.6,157.9c0-2.4,0-4.7,0.1-7.1c0.1-0.1,0.2-0.2,0.3-0.2C190.9,153,191.4,155.5,190.6,157.9z"/>
	<path class="st237" d="M199.9,187.7c0.1-0.1,0.2-0.1,0.3,0c0.9,0.2,1.8-0.2,2.7,0.4C201.3,188.8,200.8,188.7,199.9,187.7z"/>
	<path class="st238" d="M151.5,156.2c1.7,0,3.5,0,5.2,0.1c0,0.8-0.6,0.2-0.9,0.4c-1.4,0.2-2.9,1.1-4.3,0c-0.2-0.1-0.4-0.2-0.6-0.4
		C151.1,156.3,151.3,156.3,151.5,156.2z"/>
	<path class="st239" d="M193,161.7c1.8,0.9,1.2,1.7,0.2,2.6C192.8,163.5,192.9,162.7,193,161.7z"/>
	<path class="st240" d="M190.7,169.1c-0.2,0-0.3,0-0.5,0.1c-0.7-1.6-0.6-3.2-0.1-4.8c0-0.2,0.1-0.3,0.1-0.5c0.1,0.2,0.2,0.3,0.3,0.5
		C191,165.9,190.8,167.5,190.7,169.1z"/>
	<path class="st241" d="M157.1,183.3c-1.3,0-2.6-0.3-3.9,0.1c1.3-1,2.9-0.3,4.3-0.5c0,0,0.1,0.1,0.1,0.1
		C157.4,183.1,157.2,183.2,157.1,183.3z"/>
	<path class="st242" d="M158.7,187.7c-1.6,0-3.2,0-4.8,0c0-0.1,0-0.3,0-0.4c0.7-0.3,1.5-0.1,2.2-0.2c0.7,0,1.4,0,2.2,0
		c0.2,0,0.4,0.1,0.5,0.3C158.8,187.5,158.8,187.6,158.7,187.7z"/>
	<path class="st243" d="M157.1,143.4c-0.4,1.4-1.6,0.5-2.4,0.8c0-0.2,0-0.5,0-0.7C155.5,142.8,156.3,142.8,157.1,143.4z"/>
	<path class="st244" d="M190.7,169.1c0-1.6-0.1-3.2-0.1-4.7c0.8,1.6,0.3,3.2,0.4,4.8C190.9,169.2,190.8,169.1,190.7,169.1z"/>
	<path class="st245" d="M142.6,171.6c0-1.3,0-2.7,0-4c0.1-0.1-0.2-0.8,0.4-0.4c0.7,1.5,0.8,2.9,0,4.4
		C142.9,171.6,142.8,171.6,142.6,171.6z"/>
	<path class="st246" d="M151.5,156.7c1.4,0,2.9,0,4.3,0c0.1,0.1,0.1,0.2,0.2,0.3c-0.4,0-0.9,0.1-1.3,0.1c-1.1,0.5-2.1,0.6-3.2-0.1
		C151.5,156.9,151.5,156.8,151.5,156.7z"/>
	<path class="st247" d="M154,143.2c1.2-1.2,2.6-0.8,3.9-0.2c-1.2,0.4-2.5-0.1-3.7,0.3C154.1,143.3,154,143.3,154,143.2z"/>
	<path class="st248" d="M143.1,171.6c0-1.5,0-2.9,0-4.4c0.1-0.1,0.2-0.1,0.3-0.1c0,0.2,0.1,0.3,0.1,0.5c0.5,1.3,0.5,2.7,0,4
		c0,0-0.1,0-0.1,0C143.3,171.6,143.2,171.6,143.1,171.6z"/>
	<path class="st249" d="M154.7,153.9c0,0.1-0.1,0.3-0.1,0.4c-1.3,0-2.6,0.2-3.9-0.4c0,0,0-0.1,0-0.1
		C152.1,153.4,153.4,153.2,154.7,153.9z"/>
	<path class="st250" d="M155.6,180.8c0.8,0,1.6-0.1,2.4,0.4c-1.2,0-2.4,0-3.8,0C154.7,180.7,155.2,181,155.6,180.8z"/>
	<path class="st251" d="M148.2,125.1c0,1.2,0,2.5,0,3.7c-0.2,0-0.3-0.1-0.5-0.1C147.9,127.5,147.6,126.3,148.2,125.1z"/>
	<path class="st252" d="M154.2,143.4c1.2-0.7,2.5-0.3,3.7-0.3c0.1,0.1,0.1,0.2,0.2,0.3c-0.3,0-0.6,0-0.9,0.1c-0.8,0-1.6,0-2.4,0
		C154.5,143.4,154.3,143.4,154.2,143.4z"/>
	<path class="st253" d="M171.7,187.7c-0.4,0-0.8-0.2-0.8-0.7c-0.1-0.5,0.1-0.9,0.7-0.9C172.1,186.6,172,187.1,171.7,187.7z"/>
	<path class="st254" d="M142.9,143c-0.8,0-1.7,0.1-2.4-0.4c0.8,0,1.7,0,2.5,0.1c0,0,0.1,0.1,0.1,0.1C143,142.9,143,142.9,142.9,143z
		"/>
	<path class="st255" d="M171.8,185.3c1.3,0.5,0.5,1.6,0.7,2.3c0,0-0.2,0-0.2,0l-0.2,0c-0.6-0.6,0-1.4-0.4-2
		C171.7,185.5,171.7,185.4,171.8,185.3z"/>
	<path class="st256" d="M197.9,177.8c0,0.3-0.1,0.5-0.4,0.6c-0.5,0.1-0.5-0.5-0.7-0.8c-0.2-0.4,0.2-0.4,0.4-0.4
		C197.6,177.2,197.8,177.4,197.9,177.8z"/>
	<path class="st257" d="M156.3,187.2c-0.8,0-1.6,0-2.4,0c0-0.1,0-0.3,0-0.4c0.8,0,1.6,0,2.3,0c0.1,0.1,0.2,0.1,0.1,0.2
		C156.4,187.2,156.4,187.2,156.3,187.2z"/>
	<path class="st226" d="M159.3,155c-0.4,0-0.9,0-1.3,0.1c-0.4,0-0.9,0.1-1.2-0.4c0.8,0,1.5,0,2.3,0
		C159.2,154.8,159.3,154.9,159.3,155z"/>
	<path class="st258" d="M158.7,186.9c0.2-0.5-0.3-1.1,0.5-1.4c-0.2,0.6,0.2,1.4-0.4,1.9c0,0,0-0.1,0-0.1c-0.1-0.1-0.2-0.2-0.2-0.2
		C158.6,186.9,158.7,186.9,158.7,186.9z"/>
	<path class="st259" d="M171.7,185.6c0.6,0.6,0.3,1.3,0.4,2c-0.1,0-0.3,0-0.4,0.1c0-0.5-0.1-1.1-0.1-1.6
		C171.6,186,171.6,185.8,171.7,185.6z"/>
	<path class="st260" d="M145.5,133.5c0,0.7,0.1,1.5-0.4,2.1C145.1,134.9,144.8,134.1,145.5,133.5z"/>
	<path class="st138" d="M169.8,129.4c-0.1-2.8,0.2-5.8,2.5-8.3c1.9-2.1,4.6-2.3,6.8-0.6c4.1,3.3,4.9,11.7,1.6,15.9
		c-1.7,2.1-3.8,2.4-6.1,2c-2.1-0.4-3.3-1.8-4-3.8C170.1,133.1,170,131.4,169.8,129.4z"/>
	<path class="st261" d="M151.4,124.8c0.4-1.3,1.1-2.4,2-3.4c2.8-3.1,6.4-2.5,8,1.4c1,2.5,0.7,5.1,0.2,7.7c-0.4,2.1-0.6,4.3-2.6,5.9
		c-2.9,2.2-5.3,1.7-7-1.5c-0.2-0.4-0.4-0.7-0.6-1.1c-0.7-1-0.4-2.3-0.7-3.4c0-0.5,0-0.9,0-1.4C151.2,127.6,150.5,126.1,151.4,124.8z
		"/>
	<path class="st65" d="M184.6,163.7c0.2,1.5-0.5,3.1,0.9,4.5c0.7,0.7,0.2,1.8-0.4,2.6c-2.6,3.4-7.7,3.5-10.5,0.2
		c-0.2-0.2-0.4-0.4-0.5-0.6c-0.4-4.2-1.1-8.4,0.6-12.5c0.1-0.3,0.2-0.7,0.6-0.6c0.4,0.1,0.3,0.6,0.3,0.9c0.9,3,0.3,6,0.5,9.1
		c0.1,0.7-0.4,1.4-0.1,2.1c0.1,0.1,0.3,0.2,0.3,0.3c1.2,2.2,5.2,2.4,6.7,0.4c0.8-1-0.5-1.5-0.3-2.3c-0.5-1.2-0.5-2.3,0-3.5
		c0.2-2,0.6-4,1.2-5.9c0.5,0,0.8,0.3,0.8,0.7C184.9,160.5,185.3,162.1,184.6,163.7z"/>
	<path class="st262" d="M176.5,159.5c1.1,1.1,1.2,7.7,0,8.9c-0.3-0.3-0.4-0.6-0.4-1c0-2,0-4,0-6C176.1,160.7,175.9,160,176.5,159.5z
		"/>
	<path class="st263" d="M145.1,135.7c0,1.1-0.5,1.4-1.1,1.5c-0.7,0-1.3-0.4-1.3-1.2c0-0.8,0.6-1.1,1.3-1.1
		C144.7,135,145.1,135.4,145.1,135.7z"/>
	<path class="st264" d="M154.7,153.9c-1.3,0-2.6-0.1-4-0.1c0.8-0.7,3.9-1.1,4.5-0.5C155.5,153.7,155,153.8,154.7,153.9z"/>
	<path class="st265" d="M190.1,164.4c0,1.6,0.1,3.2,0.1,4.8C189.1,168.1,189,165.5,190.1,164.4z"/>
	<path class="st266" d="M175.7,167.9c0-3.3,0-6.5,0-9.8c0.1,0.2,0.2,0.4,0.4,0.6c0.4,2.8,0.1,5.5,0.2,8.3c0,0.2,0,0.5,0,0.7
		C176.1,168,176,168.1,175.7,167.9z"/>
	<path class="st267" d="M139.5,136.5c-0.7-0.1-1-0.5-1-1.2c0.1-0.7,0.5-0.9,1.1-0.9c0.8,0,1,0.5,0.9,1.2
		C140.5,136.3,140.2,136.6,139.5,136.5z"/>
	<path class="st268" d="M176.2,167.5c-0.3-2.9,0-5.9,0-8.8c0.3,0.2,0.3,0.5,0.4,0.8c0,2.7,0,5.4-0.1,8.1
		C176.3,167.7,176.2,167.7,176.2,167.5z"/>
	<path class="st269" d="M159.3,155c-0.1-0.1-0.2-0.2-0.2-0.3c2.9,0,5.7-0.3,8.6,0.2C164.8,155,162,155,159.3,155z"/>
	<path class="st270" d="M143.5,171.6c0-1.3,0-2.7,0-4C144.6,168.7,144.6,170.4,143.5,171.6z"/>
	<path class="st262" d="M151.5,157.1c1.1,0,2.1,0,3.2,0.1c-1.1,1.4-2.5,0.7-3.7,0.5C150.7,157.5,151.2,157.2,151.5,157.1z"/>
	<path class="st271" d="M184.6,163.7c-0.4-1.8,0.5-3.7-0.5-5.4c0.1-0.5,0.2-1.2,0.8-0.3c0.2,1.9,0.4,3.7-0.1,5.5
		C184.8,163.5,184.7,163.6,184.6,163.7z"/>
	<path class="st272" d="M149.1,128.9c0-1.1,0-2.1,0-3.2C150.4,126.7,150.4,127.8,149.1,128.9z"/>
	<path class="st273" d="M184.9,163.5c0-1.8,0-3.7,0.1-5.5C185.6,159.8,185.6,161.6,184.9,163.5z"/>
	<path class="st272" d="M151.4,124.8c-0.2,1.4-0.5,2.8-0.7,4.1C151,127.6,149.9,126,151.4,124.8z"/>
	<path class="st272" d="M150.7,130.4c0.4,1.1,0.7,2.2,0.7,3.4C149.9,132.9,151,131.5,150.7,130.4z"/>
	<path class="st274" d="M163.6,146.5c0.8-1.1,1.6-1.2,2.4,0C165.2,146.9,164.4,147,163.6,146.5z"/>
	<path class="st274" d="M186.5,170.2c-0.4-1.1-0.5-1.7,0-2.6C187.1,168.4,187,169.1,186.5,170.2z"/>
	<path class="st275" d="M182.6,167.5c-0.7-1.1-0.6-2.1,0-3.2C182.8,165.4,182.8,166.5,182.6,167.5z"/>
	<path class="st276" d="M182.6,167.5c0-1.1,0-2.1,0-3.2c0.1-0.1,0.2-0.1,0.3-0.2c0,1.2,0,2.3,0,3.5
		C182.8,167.6,182.7,167.6,182.6,167.5z"/>
	<path class="st277" d="M163.6,146.5c0.8,0,1.6,0,2.4,0c0.2,0,0.3,0.1,0.5,0.1c-1.1,0.6-2.2,0.5-3.3,0
		C163.3,146.6,163.4,146.6,163.6,146.5z"/>
	<path class="st278" d="M162.4,156.9c0.8-0.4,1.5-0.4,2.3,0C164,156.9,163.2,156.9,162.4,156.9z"/>
	<path class="st279" d="M176.2,167.5c0.1,0,0.2,0,0.3,0c0,0.3,0.1,0.5,0.1,0.8c0,0.4,0,0.8,0,1.2c-0.1,0-0.3,0-0.4,0
		c-0.3-0.5-0.2-1.1-0.1-1.6C176.1,167.8,176.1,167.7,176.2,167.5z"/>
	<path class="st280" d="M174.5,153.9c-0.6,0.5-1.3,0.4-1.9,0.4C173.1,153.6,173.8,154,174.5,153.9z"/>
	<path class="st278" d="M166,155.5c0.8,0,1.6,0,2.4,0c1,0.1,2.1-0.2,3.5,0.5c-2.2,0.6-4.1,0.2-5.9,0.4C166,156,166,155.7,166,155.5z
		"/>
	<path class="st281" d="M158.7,186.9c0,0.1,0,0.2,0,0.4c-0.8,0-1.6,0-2.4,0c0-0.1,0-0.2,0-0.3C157.1,186.9,157.9,186.9,158.7,186.9z
		"/>
	<path class="st65" d="M180.1,128.8c0.1,1.6-0.2,3.2-0.9,4.8c-0.5,1.2-1.4,2-2.7,2c-1.3,0-2-0.9-2.5-2c-1.1-2.9-1.3-5.7,0.1-8.6
		c0.6-1.3,1.5-2.3,3.1-2.2c1.5,0.2,2.2,1.3,2.6,2.7C180.1,126.5,180.1,127.6,180.1,128.8z"/>
	<path class="st65" d="M153.6,127.3c0.4-1.4,0.6-2.9,1.6-4.1c1.4-1.8,3.1-1.6,4.1,0.4c1.5,3.4,0.8,6.7-0.7,9.8c-0.5,1-1.5,1.4-2.6,1
		c-1.6-0.6-2.4-1.8-2.3-3.6C153.8,129.7,153.7,128.5,153.6,127.3z"/>
	<path class="st282" d="M153.6,127.3c0.5,1.2,0.5,2.4,0,3.6C153.4,129.7,153.4,128.5,153.6,127.3z"/>
	<path class="st283" d="M176,168c0,0.5,0,1.1,0.1,1.6c-0.9-0.4-0.2-1.1-0.4-1.6C175.8,168,175.9,168,176,168z"/>
</g>
<g>
	<path class="st53" d="M525.3,71.4c-0.1,3.5-1.2,7-0.8,10.9c5-1,10-1.3,15-0.7c1.2,0.2,1-0.6,1.1-1.3c0.7-5.6,1.4-11.2,2.3-16.7
		c1.6-10.4,13.2-15.4,21.7-10.3c5,3,5.5,6.6,6,11.4c1,9.2-3.8,16.4-7.9,23.8c-0.8,1.5-0.9,2.2,0.7,3.3c7.3,4.7,12.1,17.1,10.3,26.1
		c-0.3,1.4-0.5,2.9-0.8,4.3c-1.3,6.1-9.2,14.8-15.1,16.6c1.7,2.5,3.3,4.9,3.7,8c0.4,3.3-0.4,6.2-2.3,8.9c-0.5,0.7-0.9,1.2-0.7,2.2
		c1.5,6.8-2,11.9-6,16.8c-0.1,0.1-0.2,0.2-0.4,0.3c-4.3,2.5-4.6,6.6-4.4,10.8c0.1,2-0.6,2.9-2.4,3.5c-2.9,1.1-5.9,1.3-8.8,0.8
		c-1.9-0.3-3.6-0.3-5.5,0.1c-4.9,0.9-9.8-0.3-14.7-0.5c-1.5-0.1-2.2-1.1-2.2-2.7c0-1,0-2.1-0.1-3.1c-0.5-3.6-0.5-3.6-4.1-3.6
		c-3.5,0-6.9-3.3-6.9-6.8c0-1.5-0.2-2.5-1.5-3.6c-3.3-3-3.7-7-2.8-11.1c1.2-5.5,3-10.9,6.4-15.5c0-0.1,0.1-0.1,0.1-0.2
		c2.2-3.3,2.1-3.5-1.4-5.1c-2.2-1-4.2-2.3-6-4c-0.5-0.5-0.9-1.1-2-0.5c-0.7,0.4-1.3-0.7-1.7-1.4c-7-10-7.6-20.6-2.7-31.6
		c2.2-4.9,5.5-9,10.5-11.3c1.6-0.7,0.9-1.9,0.7-2.8c-1.7-7.3-1.7-14.7-0.3-22.1c0.5-2.5,1.3-4.8,2.5-7c3.3-5.8,7.5-6.7,13.7-6.5
		c2.2,0.1,3.2,1.9,4.3,3.5c1.4,2.2,2,4.6,2.2,7.1C525.1,64.7,525.1,68.1,525.3,71.4z"/>
	<path class="st284" d="M525.3,71.4c-0.6-3.4-0.6-6.8,0-10.1C525.7,64.7,525.5,68.1,525.3,71.4z"/>
	<path class="st285" d="M502.8,158.2c-0.1-1.7,0.7-3.1,1.4-4.6c1.9-3.9,4.1-7.7,6.4-11.4c1.4-2.2,3-4,6.1-3.4
		c-2.1-1.8-4.6-2.4-7-3.4c-2.3-0.9-4.6-1.8-6.8-3c-8.2-4.5-10.8-17-9.2-24.8c1.7-7.7,6.5-13.2,12.2-18.1c1.4-1.2,1.7-2.3,1.3-4
		c-1.9-7.4-1.3-14.7,0.4-22c0.5-2.1,1.3-4.1,2.8-5.8c2.9-3.5,7.1-2.8,8.8,1.4c1.2,2.8,1.3,5.8,1.3,8.8c-0.1,5.6-0.4,11.3-0.7,16.9
		c-0.1,1.7,0.4,1.9,1.9,1.8c4.5-0.5,8.9-1,13.5-0.6c2.3,0.2,4.7,0.2,6.9,0.9c1.1,0.3,1.7,0.2,2-1.2c1.5-7.1,2.2-14.3,3.4-21.5
		c0.9-5.4,4.9-9.1,10.5-9.2c3.7,0,8.7,5.2,8.4,8.9c-0.4,4.9-1.7,9.5-3.7,13.9c-1.6,3.5-3.3,7-4.9,10.5c-1.1,2.5-0.8,2.9,1.6,4
		c1.3,0.6,2.3,1.8,3.2,2.8c5.9,6.9,8.3,15,7.3,23.8c-0.6,5.5-3.8,9.9-8.4,13.1c-5.9,4.2-7.9,4.2-14.1,0.7c-1.8-1-3.6-1.3-5.6-0.9
		c-4.4,0.8-6.9,4.1-5.9,8.4c1.1,4.7,3.7,8.5,8.6,10.3c1.8,0.7,3.2,0.6,4.6-0.9c-2.6-1.6-5.8-2.2-7.9-4.5c0.5-1.4,2-1.7,2.9-2.7
		c1.6-1.7,2.3-3.8,3.3-5.7c3,1.5,5.6,3.5,8.1,5.6c2.4,2,3.4,4.8,2.6,8.1c-0.6,2.5-1,2.7-3.3,1.2c-0.3-0.2-0.7-0.4-1.4-0.7
		c0.5,2.7,1,5,1.3,7.4c0.8,5.1-0.6,9.6-3.8,13.5c-1,1.2-2.6,1.4-3.7,2.6c-2.8,2.7-3,6-2.8,9.3c0.1,1.9-0.5,2.6-2.2,2.9
		c-2.2,0.4-4.3-0.1-6.5-0.2c-1-0.1-1.1-0.8-0.9-1.6c0.3-1.4,1-2.7,0.5-4.2c-0.3-0.8,0.5-0.8,1-1c1.2-0.4,2.4-0.9,3.1-2.2
		c-1.6-0.9-3.3-0.3-5-0.5c-0.9-0.1-1.7,0.8-2,1.8c-0.6,2.1-1.2,4.2-1.6,6.3c-0.2,1.2-0.6,1.8-1.8,1.8c-3.1-0.1-6.1,0.2-9.2-0.4
		c-0.8-0.2-1.5-0.3-1.6-1.4c-0.4-3-1-6-1.2-9.1c-0.1-1.4-0.7-1.9-1.8-2.1c-0.8-0.2-1.5-0.2-2.3-0.6c-3.6-2.1-3.8-2.7-1.2-5.8
		c3-3.7,6.1-12.6,5.7-16.9c-3.3,3.2-4.8,7.2-6.4,11.2c-0.9-0.2-1.3-0.9-1.8-1.5C507.4,158.3,505,158.5,502.8,158.2z"/>
	<path class="st286" d="M547.3,136.6c-0.3,4.1-2.9,6.6-6.3,8.5c-2.5-2.1-1.7-5.1-1.8-7.7c0-1.9,2.6-2.9,4.8-2.2
		C545.2,135.5,546.2,136.1,547.3,136.6z"/>
	<path class="st286" d="M502.8,158.2c3.5-1.1,6.5,0.1,8.3,3.4c-0.3,1.3-1,2.4-1.9,3.3c-1.7,1.9-5.3,1.1-6.1-1.3
		C502.4,161.8,502.5,160,502.8,158.2z"/>
	<path class="st287" d="M506.6,172.1c1.7,2,3.9,2.9,6,4.3c-1.9,1.3-3.2,0.3-4.5-0.6C507,175,505.8,174.1,506.6,172.1z"/>
	<path class="st56" d="M548.2,162.1c0.2,2.8-0.3,5.1-1.7,7.4c-3.3,5.8-14.1,5.1-17.3-0.7c-2-3.6-1.4-7.7-0.6-11.7
		c0.8-3.8,3.2-6.1,6.4-7.5c3.2-1.4,8.3,0.6,10.5,4C547.3,156.2,548.8,159,548.2,162.1z"/>
	<path class="st56" d="M559.3,67.3c0,5.5-2,10.5-3.8,15.6c-0.3,0.8-0.5,1.7-0.6,2.6c-0.3,2.2-2.4,4.1-4,3.8c-1.6-0.3-3-2.8-2.7-4.9
		c0.2-1.4,0.7-2.8,1-4.2c0.9-4.3,0.8-8.9,3.4-12.7c0.5-0.8,1.1-1.6,1.7-2.3c0.9-1,1.9-1.8,3.4-1.2C559.3,64.5,559.4,65.9,559.3,67.3
		z"/>
	<path class="st138" d="M535.1,118.4c5.1,2.9,3.5,9.8-0.8,11.9c-4.6,2.2-10.7,1.6-13.5-1.8c-2.5-3-2.2-7.7,0.7-10.3
		c0.6-0.6,1-0.7,1.4,0.1c1.5,0.9,2.6,2.3,4.1,3.3c0.7,0.4,0.7,1.2,0.7,2c0,1-0.3,2,0.3,3.1c0.6-0.7,0.3-1.6,0.4-2.4
		c0.1-0.9,0.4-1.8,1.4-2.1C531.9,121.6,533.4,120,535.1,118.4z"/>
	<path class="st288" d="M516.2,67.7c-0.9,5.2,0,10.9-1,16.5c-0.1,0.5-0.1,1-0.3,1.4c-0.6,1.2-0.8,3-2.6,2.7
		c-1.6-0.2-1.5-1.9-1.9-3.2c-2.1-6.6-0.2-13,0.9-19.4c0.3-1.6,0.9-3,2.6-2.9c1.8,0.1,2.4,1.6,2.3,3.3
		C516.2,66.6,516.2,67,516.2,67.7z"/>
	<path class="st289" d="M535.1,118.4c-0.4,2.3-2.2,3.4-4.1,3.9c-1.8,0.4-2.2,1.2-2.2,2.9c0,1,0.7,3-1,2.9c-1.5,0-1-2-0.9-3
		c0.3-2-0.1-3.5-2.1-4.4c-0.9-0.4-1.6-1.4-2-2.3c0.1-0.8,0.2-1.5,1.1-2C526.7,114.8,532.8,115.9,535.1,118.4z"/>
	<path class="st290" d="M514.6,110.6c-0.2,1.5-0.5,3-2.2,3.7c-1.6,0.7-3.3,0.3-4.5-0.8c-1.1-1-1.9-2.6-1.1-4.1
		c0.7-1.3,0-2.1-0.4-3.1c-0.1-0.4-0.6-0.9-0.1-1.3c0.5-0.4,0.9,0,1.2,0.3c0.9,1,1.8,1.4,3.3,1.1C513,106.1,514.7,108.1,514.6,110.6z
		"/>
	<path class="st139" d="M540.9,113.6c0-2.4,2-4.3,4.4-3.9c0.5,0.1,1,0.2,1.3,0.5c1,0.7,2.7-1.7,2.4-0.2c-0.6,2.6,0.8,6.7-3.6,7.5
		C542.6,118,540.9,116.4,540.9,113.6z"/>
	<path class="st291" d="M526.9,118.6c1.6-0.3,2.9-0.2,4.5,0.5C529.6,120.2,528.3,120.4,526.9,118.6z"/>
</g>
<g>
	<path class="st53" d="M426.4,173.7c-1,0.8-2,1.7-3.1,2.3c-2.6,1.4-5,0.1-5-2.9c-0.1-3.4,1-6.7,2.4-9.8c1.8-4.1,4-8.1,6.3-12
		c1.4-2.3,1.9-4.9,1-7.8c-2.2-6.7-1.5-13.6-0.1-20.3c2.4-12.2,10.1-19.1,22.1-21.6c12.6-2.6,24.7-2.3,35.5,5.7
		c3.6,2.7,6.4,6.1,8.5,10.1c4.8,9.2,6.7,19.1,6.7,29.3c0,1.3,0.4,2.3,1,3.4c4.7,7.5,6.7,15.8,6.3,24.6c0,0.5,0,1-0.1,1.4
		c-0.4,1.5-1.1,3-2.7,3.4c-1.5,0.4-2.5-0.7-3.6-1.6c-0.9-0.8-1.3-2.6-2.4-2.5c-0.8,0.1-1.5,1.7-2.3,2.5c-2.6,2.7-6.1,3.8-9.5,5.1
		c-0.8,0.3-1.6,0.3-1.7,1.6c-0.4,5.3-4.2,7.2-8.8,4.6c-0.1-0.1-0.3-0.2-0.4-0.3c-3.1-4.4-7.5-3.4-11.7-2.9
		c-5.3,0.7-10.6,0.6-15.9-0.5c-1.4-0.3-2.5,0.4-3.6,0.9c-2.2,1.1-4.3,2.5-6.9,2.8c-1.3,0.2-2.9,0.5-3.8-0.9c-0.9-1.4-0.8-3,0.1-4.3
		c0.9-1.3,0.6-1.8-0.7-2.4C430.5,180.2,428.5,176.9,426.4,173.7z"/>
	<path class="st56" d="M470.5,127.9c-1.4-1.4-3.6-1.3-4.3-3.4c-1.4-3.9-0.9-7.5,1.6-9.3c2.9-2.1,7.5-1.7,10.6,0.8
		c3.8,3.2,5.9,7.6,7.2,12.3c2,7.2,1.3,14.4-1.6,21.3c-0.6,1.4-0.4,2.2,0.5,3.4c5.1,6.3,7.3,13.2,3.7,21c-1.4,3.2-3.9,5.1-7.2,6.3
		c-9,3.4-18.2,2.7-27.4,2c-4.8-0.4-9.6-1-14.2-2.5c-7.4-2.4-9.9-6-10.8-14.5c-0.7-6.3,1.3-12.1,4.1-17.6c0.7-1.4,0.9-2.6,0.3-4.1
		c-3-7.2-3-14.6-0.9-22c0.6-2.1,1.5-4.1,3-5.7c2.9-3.2,6.3-3.8,9.9-1.7c2.5,1.5,3.7,5.8,2.6,9.1c-0.6,1.7-1.3,3.3-2.4,4.7
		c-1.9,2.5-1.5,5.1,1,6.9c0.4,0.3,0.9,0.6,1.2,1.1c4.1,6.8,13.9,7.6,18.9,1.4c0.8-0.9,1.6-1.5,2.6-1.9c2-0.8,3.7-2,3.8-4.5
		c0-0.9,0.5-0.7,1.1-0.8c2.5-0.6,3.3-2,3.5-6.1c0.1-2.3-1.2-4.7-3-5.4c-1.9-0.7-3.7,0.8-4,3.3c-0.1,1-0.1,1.9,0,2.9
		C470.3,126,470.4,126.8,470.5,127.9z"/>
	<path class="st292" d="M487.7,178.8c2.7-2.6,4.3-5.5,4.5-9.5c0.2-6.3-1.6-11.8-5.3-16.7c-0.7-1-0.6-1.7-0.2-2.7
		c1.5-4.4,2.5-8.8,2.4-13.5c-0.2-6.3-1.6-12.3-5-17.6c-2.6-4-6.4-6.5-11.1-7.3c-4.9-0.8-9.7,3.7-9.9,9.3c0,0.7-0.1,1.5,0.1,2.2
		c0.5,1.5-0.2,1.7-1.4,1.6c-4-0.4-8-0.8-12,0.8c0.3-4,0.9-8-1.6-11.4c-2.6-3.6-6.5-3.5-10.5-2.8c4.5-4,9.3-7.3,15.2-8.3
		c7.3-1.3,14.6-0.7,21.7,1.2c9.6,2.6,15.7,8.8,18.9,18c1.7,4.9,3.5,9.9,4,15.1c0.3,2.8,0.3,5.6-0.1,8.4c-0.6,3.7,0.7,6.7,2.6,9.5
		c4,6,5.5,12.6,4.6,20.1c-3.5-3.9-6.7-7.8-10.7-11.6c-0.6,2.5,0.7,4,1.7,5.4c1.3,1.8,0.8,3.3-0.2,4.9c-1.7,2.7-4.2,4.4-7.1,5.5
		C487.7,179.4,487.5,179.2,487.7,178.8z"/>
	<path class="st293" d="M453.4,126.5c2.3,0,4.6,0,7,0c0.2,0.1,0.4,0.2,0.6,0.3c0.9,0.2,1.9-0.1,2.7,0.6c0.6,0,1.1,0.1,1.7,0.1l0,0
		c1,0.5,2,1,2.9,1.6c2.1,1.4,1.9,3.1-0.3,4.2c-1.2,0.5-2.5,0.9-3.7,0.9c-4.5,0.1-9,0.5-13.5-0.7c-1.6-0.4-3.7-0.6-4-2.5
		c-0.3-2.1,1.7-2.6,3.1-3.5C450.8,126.3,452.3,127,453.4,126.5z"/>
	<path class="st294" d="M450.1,136.3c4.6,0.9,9,1.2,13.4,0.5C459.9,140.6,453.9,140.4,450.1,136.3z"/>
	<path class="st295" d="M424.3,165.4c0,1.9,1.6,4-0.9,5.5c-0.3,0.2-0.8,0.3-1.1,0.2c-0.5-0.2-0.3-0.6-0.2-1
		C422.4,168.4,422.9,166.8,424.3,165.4z"/>
	<path class="st296" d="M438,186.2c-0.2-1.2,0.2-2,1.3-2.1c0.4,0,0.9,0.2,0.9,0.6C440,186,438.6,185.5,438,186.2z"/>
	<path class="st297" d="M480.9,184.7c2.3,0.1-0.3,1.4,0.5,1.8c-0.8,0.7-1.6,0.6-2.4,0.1c-0.2-0.2-0.4-0.4-0.6-0.6
		C478.8,184.9,480.4,185.8,480.9,184.7z"/>
	<path class="st298" d="M480.9,184.7c-0.4,1.4-1.8,0.7-2.6,1.3c-0.3-0.3-1.1-0.6-0.2-0.9C479,184.8,479.9,184.8,480.9,184.7z"/>
	<path class="st299" d="M453.4,126.5c-1.2,0.3-2.4,0.6-3.5,0.9C450.7,125.7,452.2,126.7,453.4,126.5z"/>
	<path class="st300" d="M460.6,126.9c-0.1-0.1-0.2-0.3-0.3-0.4c1.1,0,2.3,0,3.5,0c0,0,0.1,0.2,0.1,0.2c-0.2,0.1-0.3,0.2-0.5,0.3
		C462.4,127.2,461.5,127.4,460.6,126.9z"/>
	<path class="st301" d="M465.3,127.5c0.2-1.1,0.9-1.1,1.7-0.8C466.8,127.8,465.9,127.2,465.3,127.5
		C465.3,127.5,465.3,127.5,465.3,127.5z"/>
	<path class="st302" d="M487.7,178.8c0.2,0.2,0.3,0.3,0.5,0.5c-0.5,0.6-1.1,0.7-2.1,1.1C486.5,179.4,487.1,179.1,487.7,178.8z"/>
	<path class="st303" d="M460.6,126.9c0.9,0,1.8,0.1,2.7,0.1c0.1,0.1,0.2,0.3,0.3,0.4C462.6,127.3,461.5,127.9,460.6,126.9z"/>
	<path class="st304" d="M481.4,187c-0.8,0.9-1.6,0.6-2.4,0C479.8,186.7,480.6,186.6,481.4,187z"/>
	<path class="st305" d="M481.4,187c-0.8,0-1.6,0-2.4,0c0-0.1,0-0.3,0-0.4c0.8,0,1.6,0,2.4-0.1C481.3,186.7,481.3,186.8,481.4,187z"
		/>
	<path class="st306" d="M443.5,123.5c-0.3,1.2-0.5,2.3-0.8,3.4c-0.5,1.4-1.3,2.4-3,2.4c-1.6-0.1-2.4-1.2-2.9-2.5
		c-0.7-2-0.4-4,0.2-5.9c0.5-1.6,1.7-2.4,3.2-2.4c1.5,0,2.2,1.2,2.6,2.4C443.1,121.8,443.3,122.7,443.5,123.5z"/>
	<path class="st307" d="M479.9,134.7c-1.3,0-2.1,0-2.7-0.4c-1.5-0.8-1.6-2.1-0.2-3c0.5-0.3,1-0.4,1.6-0.6c1.6-0.6,3-0.5,4.3,0.7
		c0.6,0.5,0.5,1.1,0.2,1.8C482.3,134.7,480.7,134.6,479.9,134.7z"/>
	<path class="st308" d="M434.2,129.8c1.3,0.2,2.9,0.2,3,2c0,1.7-1.5,1.7-2.7,1.6c-1.2-0.1-3,0.3-3.1-1.7
		C431.4,129.8,432.9,129.9,434.2,129.8z"/>
</g>
<g>
	<path class="st309" d="M833.4,71.7V79h-17.1v8h16.3v7.2h-16.3v14.5H808V71.7H833.4z"/>
	<path class="st309" d="M868.7,84c0,5.9-2.3,9.7-7,11.5l9.3,13.2h-10.1l-8.2-11.8H847v11.8h-8.2V71.7h14c5.7,0,9.8,1,12.3,2.9
		C867.5,76.6,868.7,79.7,868.7,84z M858.8,88.4c1-0.9,1.5-2.4,1.5-4.4c0-2-0.5-3.4-1.6-4.1c-1.1-0.7-2.9-1.1-5.5-1.1H847v10.9h6
		C855.8,89.7,857.7,89.3,858.8,88.4z"/>
	<path class="st309" d="M875.5,71.7h8.2v36.9h-8.2V71.7z"/>
	<path class="st309" d="M917.9,71.7v7.3h-18.4v7.6H916v7h-16.5v7.7h18.9v7.3h-27.2V71.7H917.9z"/>
	<path class="st309" d="M950,71.7h8.2v36.9H950l-17.6-23.1v23.1h-8.2V71.7h7.7L950,95.5V71.7z"/>
	<path class="st309" d="M993.9,76.6c3.5,3.2,5.3,7.7,5.3,13.4c0,5.7-1.7,10.3-5.1,13.6c-3.4,3.3-8.7,5-15.7,5h-12.6V71.7h13
		C985.4,71.7,990.4,73.3,993.9,76.6z M987.9,98.5c2-1.9,3-4.7,3-8.3s-1-6.4-3-8.4s-5.1-2.9-9.3-2.9H974v22.4h5.2
		C983,101.3,985.9,100.4,987.9,98.5z"/>
	<path class="st309" d="M1013.1,79.1c-0.8,0.7-1.2,1.5-1.2,2.6c0,1.1,0.5,1.9,1.5,2.6c1,0.6,3.2,1.4,6.7,2.2
		c3.5,0.9,6.2,2.2,8.2,3.9c1.9,1.7,2.9,4.2,2.9,7.5s-1.2,6-3.7,8c-2.5,2.1-5.7,3.1-9.8,3.1c-5.8,0-11.1-2.2-15.8-6.5l4.9-6
		c4,3.5,7.7,5.2,11,5.2c1.5,0,2.7-0.3,3.6-1c0.9-0.7,1.3-1.5,1.3-2.6s-0.5-2-1.4-2.6c-0.9-0.7-2.7-1.3-5.4-2c-4.3-1-7.4-2.3-9.4-4
		c-2-1.6-3-4.2-3-7.7c0-3.5,1.3-6.2,3.8-8.1c2.5-1.9,5.7-2.9,9.4-2.9c2.5,0,4.9,0.4,7.4,1.3c2.5,0.8,4.6,2,6.4,3.6l-4.2,6
		c-3.2-2.4-6.5-3.6-9.9-3.6C1015,78.1,1013.9,78.4,1013.1,79.1z"/>
</g>
<g>
	<path class="st309" d="M644.4,78v28.2c0,0.6,0.1,1,0.4,1.3s0.7,0.5,1.3,0.7v0.9h-10.8v-0.9c0.6-0.2,1-0.4,1.3-0.7s0.4-0.7,0.4-1.3
		V78h-10.7c-0.5,0-0.9,0.1-1.2,0.4s-0.5,0.7-0.7,1.4h-0.8v-9.6h0.8c0.2,0.7,0.4,1.1,0.7,1.4c0.3,0.3,0.6,0.4,1.2,0.4h29
		c0.5,0,0.9-0.1,1.2-0.4c0.3-0.3,0.5-0.7,0.7-1.4h0.8v9.6h-0.8c-0.2-0.7-0.4-1.1-0.7-1.4c-0.3-0.2-0.7-0.4-1.2-0.4H644.4z"/>
	<path class="st309" d="M662.8,106.2V74.7c0-0.5-0.1-1-0.4-1.3s-0.7-0.5-1.3-0.7v-0.9H672v0.9c-0.6,0.2-1,0.4-1.3,0.7
		c-0.2,0.3-0.4,0.7-0.4,1.3v31.5c0,0.6,0.1,1,0.4,1.3c0.2,0.3,0.7,0.5,1.3,0.7v0.9h-10.8v-0.9c0.6-0.2,1-0.4,1.3-0.7
		S662.8,106.8,662.8,106.2z"/>
	<path class="st309" d="M696.3,78v28.2c0,0.6,0.1,1,0.4,1.3s0.7,0.5,1.3,0.7v0.9h-10.8v-0.9c0.6-0.2,1-0.4,1.3-0.7
		c0.2-0.3,0.4-0.7,0.4-1.3V78H678c-0.5,0-0.9,0.1-1.2,0.4c-0.3,0.2-0.5,0.7-0.7,1.4h-0.8v-9.6h0.8c0.2,0.7,0.4,1.1,0.7,1.4
		c0.3,0.3,0.6,0.4,1.2,0.4h29c0.5,0,0.9-0.1,1.2-0.4c0.3-0.3,0.5-0.7,0.7-1.4h0.8v9.6h-0.8c-0.2-0.7-0.4-1.1-0.7-1.4
		S707.5,78,707,78H696.3z"/>
	<path class="st309" d="M734.5,99.6h-15.7l-2.3,5.2c-0.3,0.7-0.5,1.3-0.5,1.7c0,0.8,0.6,1.4,1.7,1.7v0.9h-11.4v-0.9
		c0.7-0.1,1.2-0.4,1.5-0.8s0.8-1.1,1.2-2.1l12.7-28.6c0.4-0.9,0.6-1.6,0.6-2.2c0-0.8-0.5-1.4-1.5-1.8v-0.9h12.2v0.9
		c-1,0.3-1.5,0.8-1.5,1.6c0,0.5,0.2,1.1,0.5,1.8l13.2,28.6c0.6,1.2,1,2,1.5,2.5c0.4,0.4,1,0.7,1.7,0.9v0.9h-12.7v-0.9
		c1.1-0.2,1.7-0.8,1.7-1.7c0-0.4-0.2-0.9-0.5-1.7L734.5,99.6z M732.4,94.5l-5.6-13.2l-5.7,13.2H732.4z"/>
	<path class="st309" d="M759.9,83.6v22.6c0,0.6,0.1,1,0.4,1.3c0.2,0.3,0.7,0.5,1.3,0.7v0.9h-10.1v-0.9c0.6-0.2,1-0.4,1.3-0.7
		s0.4-0.7,0.4-1.3V74.7c0-0.5-0.1-1-0.4-1.3s-0.7-0.5-1.3-0.7v-0.9h11.7v0.9c-0.7,0.2-1.1,0.6-1.1,1.3c0,0.4,0.2,0.9,0.7,1.4
		l19.1,21.3V74.7c0-0.5-0.1-1-0.4-1.3c-0.2-0.3-0.7-0.5-1.3-0.7v-0.9h10.1v0.9c-0.6,0.2-1,0.4-1.3,0.7s-0.4,0.7-0.4,1.3v31.5
		c0,0.6,0.1,1,0.4,1.3s0.7,0.5,1.3,0.7v0.9h-10.9v-0.9c0.7-0.2,1.1-0.6,1.1-1.2c0-0.4-0.4-1-1.2-1.9L759.9,83.6z"/>
</g>
<text transform="matrix(1 0 0 1 803.5003 -49.6683)" class="st309" style="font-family:'Montserrat-Bold'; font-size:52.7808px; letter-spacing:-1;">FRIENDS</text>
<text transform="matrix(0.9293 0 0 1 623.1096 -49.6682)" class="st309" style="font-family:'CopperplateGothic-Bold'; font-size:55.7738px;">TITAN</text>
</svg>
