<svg id="Layer_1" data-name="Layer 1" xmlns="http://www.w3.org/2000/svg" viewBox="0 0 582.25 189.56"><defs><style>.cls-1{fill:#252b3d;}.cls-2{fill:#e18c53;}.cls-3{fill:#71b577;}.cls-4{fill:#272a41;}.cls-5{fill:#e48a4e;}.cls-6{fill:#373340;}.cls-7{fill:#e08850;}.cls-8{fill:#ea8947;}.cls-9{fill:#e88a4c;}.cls-10{fill:#224630;}.cls-11{fill:#b8917d;}.cls-12{fill:#472617;}.cls-13{fill:#e98a4b;}.cls-14{fill:#202d45;}.cls-15{fill:#d78755;}.cls-16{fill:#452d27;}.cls-17{fill:#e98a4a;}.cls-18{fill:#bb937f;}.cls-19{fill:#a78d84;}.cls-20{fill:#c99273;}.cls-21{fill:#2e3040;}.cls-22{fill:#b7907e;}.cls-23{fill:#7da48b;}.cls-24{fill:#bf937c;}.cls-25{fill:#1b392d;}.cls-26{fill:#b39080;}.cls-27{fill:#b18976;}.cls-28{fill:#452619;}.cls-29{fill:#f3dab4;}.cls-30{fill:#f3d9b4;}.cls-31{fill:#282c3c;}.cls-32{fill:#2f2f3d;}.cls-33{fill:#f2d5ae;}.cls-34{fill:#ea8a49;}.cls-35{fill:#f3d3ac;}.cls-36{fill:#253046;}.cls-37{fill:#1c2d47;}.cls-38{fill:#eb8948;}.cls-39{fill:#de864c;}.cls-40{fill:#bb886c;}.cls-41{fill:#c39276;}.cls-42{fill:#ea8a4a;}.cls-43{fill:#bb927c;}.cls-44{fill:#64371d;}.cls-45{fill:#4c3b3b;}.cls-46{fill:#7ca28c;}.cls-47{fill:#456254;}.cls-48{fill:#7aa586;}.cls-49{fill:#272d3e;}.cls-50{fill:#dfd6cb;}.cls-51{fill:#38373e;}.cls-52{fill:#592a12;}.cls-53{fill:#474348;}.cls-54{fill:#242b3d;}.cls-55{fill:#232836;}.cls-56{fill:#252a36;}.cls-57{fill:#fff;}.cls-58{fill:#eeb258;}.cls-59{fill:#2e303e;}.cls-60{fill:#2f3144;}.cls-61{fill:#282b37;}.cls-62{fill:#1d2c4b;}.cls-63{fill:#8b8176;}.cls-64{fill:#1e2c47;}.cls-65{fill:#d9b481;}.cls-66{fill:#252c3e;}.cls-67{fill:#242732;}.cls-68{fill:#c5ab8a;}.cls-69{fill:#f8f8f9;}.cls-70{fill:#f7f6f7;}.cls-71{fill:#282d3c;}.cls-72{fill:#f2a368;}.cls-73{fill:#fddd4e;}.cls-74{fill:#262c3d;}.cls-75{fill:#faf9f8;}.cls-76{fill:#ec9f67;}.cls-77{fill:#fbfafa;}.cls-78{fill:#2d2e3b;}.cls-79{fill:#2a2f42;}.cls-80{fill:#232c46;}.cls-81{fill:#272c35;}.cls-82{fill:#262d43;}.cls-83{fill:#292f44;}.cls-84{fill:#272f4c;}.cls-85{fill:#232b44;}.cls-86{fill:#2a2c37;}.cls-87{fill:#1f2d45;}.cls-88{fill:#202c46;}.cls-89{fill:#2e3043;}.cls-90{fill:#282c34;}.cls-91{fill:#3b3416;}.cls-92{fill:#4b3f18;}.cls-93{fill:#282d42;}.cls-94{fill:#1f2c48;}.cls-95{fill:#e3d691;}.cls-96{fill:#292b33;}.cls-97{fill:#222b48;}.cls-98{fill:#222b45;}.cls-99{fill:#272c37;}.cls-100{fill:#202b49;}.cls-101{fill:#222b44;}.cls-102{fill:#f4d64b;}.cls-103{fill:#222b47;}.cls-104{fill:#d5ca8e;}.cls-105{fill:#f1dd7c;}.cls-106{fill:#39231b;}.cls-107{fill:#53392e;}.cls-108{fill:#38241e;}.cls-109{fill:#442617;}.cls-110{fill:#212b48;}.cls-111{fill:#442719;}.cls-112{fill:#212c46;}.cls-113{fill:#212b47;}.cls-114{fill:#222b46;}.cls-115{fill:#1e2b4c;}.cls-116{fill:#1d2e47;}.cls-117{fill:#212b46;}.cls-118{fill:#1e2d47;}.cls-119{fill:#4d3021;}.cls-120{fill:#372725;}.cls-121{fill:#4d4624;}.cls-122{fill:#5f371d;}.cls-123{fill:#b79584;}.cls-124{fill:#362522;}.cls-125{fill:#382724;}.cls-126{fill:#444342;}.cls-127{fill:#d7a888;}.cls-128{fill:#382825;}.cls-129{fill:#794929;}.cls-130{fill:#3f2517;}.cls-131{fill:#2a262d;}.cls-132{fill:#b69687;}.cls-133{fill:#d9ce92;}.cls-134{fill:#544d25;}.cls-135{fill:#d69262;}.cls-136{fill:#e3d894;}.cls-137{fill:#ecda88;}.cls-138{fill:#fffdfe;}.cls-139{fill:#fefefe;}.cls-140{fill:#262c3e;}.cls-141{fill:#252c3d;}.cls-142{fill:#2c3143;}.cls-143{fill:#1c2c46;}.cls-144{fill:#323040;}.cls-145{fill:#f8a160;}.cls-146{fill:#3f353b;}.cls-147{fill:#282c37;}.cls-148{fill:#2a2d3a;}.cls-149{fill:#522d18;}.cls-150{fill:#d2a890;}.cls-151{fill:#213049;}.cls-152{fill:#3e393f;}.cls-153{fill:#cea48a;}.cls-154{fill:#4d362d;}.cls-155{fill:#cda892;}.cls-156{fill:#cd8c5e;}.cls-157{fill:#202d47;}.cls-158{fill:#c49c85;}.cls-159{fill:#c3a08d;}.cls-160{fill:#42383d;}.cls-161{fill:#d9a888;}.cls-162{fill:#3f271d;}.cls-163{fill:#d5a88d;}.cls-164{fill:#fbdc41;}.cls-165{fill:#fbde57;}.cls-166{fill:#353015;}.cls-167{fill:#2a314b;}.cls-168{fill:#e9d67e;}.cls-169{fill:#c2ba89;}.cls-170{fill:#dcd29e;}.cls-171{fill:#efdb7e;}.cls-172{fill:#d9cfa0;}.cls-173{fill:#4f4826;}.cls-174{fill:#4f4725;}.cls-175{fill:#c9bd84;}.cls-176{fill:#1d2d49;}.cls-177{fill:#202c49;}.cls-178{fill:#1e2d46;}.cls-179{fill:#202d43;}.cls-180{fill:#2b2f42;}.cls-181{fill:#b0aa8b;}.cls-182{fill:#292f3e;}.cls-183{fill:#2f333f;}.cls-184{fill:#272e3e;}.cls-185{fill:#2a2f39;}.cls-186{fill:#2b3036;}.cls-187{fill:#262b32;}.cls-188{fill:#1f242f;}.cls-189{fill:#1e232b;}.cls-190{fill:#2d3342;}.cls-191{fill:#f9d60b;}.cls-192{fill:#f3d113;}.cls-193{fill:#f9f9f9;}.cls-194{fill:#f5f5f6;}.cls-195{fill:#2a2f3a;}.cls-196{fill:#262e4d;}.cls-197{fill:#293147;}.cls-198{fill:#2c3138;}.cls-199{fill:#e4e4e7;}.cls-200{fill:#34374a;}.cls-201{fill:#33373b;}.cls-202{fill:#d5ca75;}.cls-203{fill:#1e2b50;}.cls-204{fill:#20232f;}.cls-205{fill:#202b4b;}.cls-206{fill:#1f2b4c;}.cls-207{fill:#59534e;}.cls-208{fill:#2f3246;}.cls-209{fill:#232c45;}.cls-210{fill:#2b3044;}.cls-211{fill:#2f343e;}.cls-212{fill:#343947;}.cls-213{fill:#2f3545;}.cls-214{fill:#4a4223;}.cls-215{fill:#dfce60;}.cls-216{fill:#343746;}.cls-217{fill:#2d3449;}.cls-218{fill:#1e2a53;}.cls-219{fill:#292d38;}.cls-220{fill:#79ba6a;}.cls-221{fill:#27323f;}.cls-222{fill:#293640;}.cls-223{fill:#75b468;}.cls-224{fill:#76b966;}.cls-225{fill:#eeeef0;}.cls-226{fill:#272e40;}.cls-227{fill:#76bb64;}.cls-228{fill:#1c3e1e;}.cls-229{fill:#292845;}.cls-230{fill:#74b664;}.cls-231{fill:#272843;}.cls-232{fill:#82aa85;}.cls-233{fill:#292746;}.cls-234{fill:#272842;}.cls-235{fill:#6a8a70;}.cls-236{fill:#244927;}.cls-237{fill:#272f43;}.cls-238{fill:#1a3821;}.cls-239{fill:#dddde0;}.cls-240{fill:#81ab83;}.cls-241{fill:#1a2d2a;}.cls-242{fill:#1b3c1e;}.cls-243{fill:#292748;}.cls-244{fill:#254b27;}.cls-245{fill:#19381f;}.cls-246{fill:#7b9b83;}.cls-247{fill:#7da37f;}.cls-248{fill:#7fa287;}.cls-249{fill:#84a48b;}.cls-250{fill:#1a2f28;}.cls-251{fill:#81a388;}.cls-252{fill:#1c3c1f;}.cls-253{fill:#282744;}.cls-254{fill:#1b3924;}.cls-255{fill:#7ca77c;}.cls-256{fill:#c9ccd4;}.cls-257{fill:#7b9882;}.cls-258{fill:#849892;}.cls-259{fill:#2a522a;}.cls-260{fill:#1b3d20;}.cls-261{fill:#fdfdfd;}.cls-262{fill:#76bb63;}.cls-263{fill:#394b4a;}.cls-264{fill:#75bc62;}.cls-265{fill:#76bc62;}.cls-266{fill:#234926;}.cls-267{fill:#25333b;}.cls-268{fill:#85aa89;}.cls-269{fill:#7ea781;}.cls-270{fill:#76bb62;}.cls-271{fill:#24452a;}.cls-272{fill:#7fbb72;}.cls-273{fill:#7ea283;}.cls-274{fill:#75bc61;}.cls-275{fill:#81a387;}.cls-276{fill:#19351f;}.cls-277{fill:#81a088;}.cls-278{fill:#2e3648;}.cls-279{fill:#779182;}.cls-280{fill:#84a28c;}.cls-281{fill:#81ac81;}.cls-282{fill:#242832;}.cls-283{fill:#152c21;}.cls-284{fill:#292d36;}.cls-285{fill:#f0b5d2;}.cls-286{fill:#fdfcfd;}.cls-287{fill:#ddabc5;}.cls-288{fill:#fffeff;}.cls-289{fill:#272e3f;}.cls-290{fill:#272d3f;}.cls-291{fill:#edeef0;}.cls-292{fill:#4b5f6a;}.cls-293{fill:#eeb158;}.cls-294{fill:#495c68;}.cls-295{fill:#495c67;}.cls-296{fill:#eead4b;}.cls-297{fill:#edad4f;}.cls-298{fill:#d2ae7e;}.cls-299{fill:#2c2c3d;}.cls-300{fill:#3a2817;}.cls-301{fill:#1f2b48;}.cls-302{fill:#384352;}.cls-303{fill:#d5b282;}.cls-304{fill:#2e2a2a;}.cls-305{fill:#5e5959;}.cls-306{fill:#262d3f;}.cls-307{fill:#f7b9ab;}.cls-308{fill:#f7b8aa;}</style></defs><title>Working File Mascots</title><path class="cls-1" d="M106.81,78c-1.11-1-2.62-1-3.92-1.44C98.13,75,95.81,71.63,97,67.86c1.29-4.2,5.4-6,10.26-4.53A8,8,0,0,1,112,67.54c3.46-3.09,7.32-4.57,11.86-3.65a6.26,6.26,0,0,1,5.24,5.57c.29,2.52-1.39,4.91-4.13,6.2a16.34,16.34,0,0,1-8,1.41c-.46,0-1.24-.43-1.36.45s.51.87,1.12.92A65.27,65.27,0,0,1,132,82a3.12,3.12,0,0,0,2.48-.28,11.11,11.11,0,0,1,7.06-.83c7,1.45,9.61,8.08,5.25,13.77-.87,1.13-.88,1.81,0,2.84,3.85,4.49,5.19,10,5.18,15.62,0,9.37-4.12,16.89-11.78,22.37a23.87,23.87,0,0,1-5.31,3.26c1.94,2.74,4.25,5.06,5.94,7.86,3.44,5.71,5.67,11.76,5,18.53-.5,4.75-2.25,6.45-7,7.44a1.69,1.69,0,0,0-1.24,1,41.29,41.29,0,0,1-5.42,7.39,5.69,5.69,0,0,0-1.29,5.42c.55,2.22-.56,3.29-2.44,3.62a49.72,49.72,0,0,1-12.31.29,2.35,2.35,0,0,1-2.32-3.19,4,4,0,0,0,.08-.48c.6-4.19-1-5.78-5.23-4.84-1.69.38-1.34,2.07-1.28,3.21.21,4-.27,4.68-4.31,5.21a33.5,33.5,0,0,1-9.64-.3c-1.13-.17-2.27-.57-2.58-1.86a18.52,18.52,0,0,0-3.56-6.52c-2-2.75-2.84-5.91-3.46-9.16-.14-.77-.28-1.16-1.21-1.39-4.9-1.26-6.58-3.41-6.62-8.51,0-5.67,2.14-10.68,5.06-15.38a78.86,78.86,0,0,1,4.87-6.91c.92-1.18.77-1.49-.57-2.15a62.47,62.47,0,0,1-8.16-4.65c-5.87-4.08-8.76-10-9.42-17-.8-8.49.71-16.38,6.33-23.12.66-.8.35-1.45.12-2.22a9.59,9.59,0,0,1,0-6.17c1.74-4.88,6.32-7,11.85-4.7a10,10,0,0,0,7.54.08,42.29,42.29,0,0,1,11.67-1.76C105.73,78.45,106.35,78.74,106.81,78Z"/><path class="cls-2" d="M117.58,182.1c-.12-1.12,1-1.06,1.53-1.6s1.2-1.05.72-1.81-1.38-.49-2-.27c-3,1.13-6.15.86-9.26.83a9.06,9.06,0,0,1-4.16-.91,1.19,1.19,0,0,1,.51-.46c-.4-.11-.64.17-.9.39-.76.29-2-.68-2.29.48-.23.82,1,1.12,1.48,1.66,1.64,1.67.66,3.78.61,5.64,0,1.3-1.68.82-2.64.9-1.28.1-2.57,0-3.86.06-2,.1-3.21-.73-4.48-2.42-2.87-3.81-5-7.78-5.35-12.6a.63.63,0,0,1,0-.73,36.71,36.71,0,0,0,0-11.22.68.68,0,0,1,0-.74l.12-2.74a15.05,15.05,0,0,1,.87-3.45l.09-.47c.52-.73-.06-1.66.42-2.4l.54-1.46c.31-1.64.16-3.41,1.34-4.79a2.14,2.14,0,0,0,.2-.4c.06-.24,0-.28-.14-.11-.74,1.31-1.13,2.82-2.35,3.8-.72.77-.63,1.87-1.09,2.74a7.27,7.27,0,0,1-.86,2.1.34.34,0,0,0-.08.37,7.77,7.77,0,0,1-.84,2l-1,2.53a.66.66,0,0,1-.32-.32c-.47.49,0,.81.21,1.18a3.65,3.65,0,0,0-.41,2.05,3.72,3.72,0,0,0-.49.4,1.94,1.94,0,0,0-.06,2.12c0,.1.08.2.11.3,0,.88,0,1.76-.08,2.64-.05.68.36,1.6-.41,2a2.4,2.4,0,0,1-2.46-.53,3.34,3.34,0,0,1-1.6-2c-.48-3-1-6,.58-8.87.14.08,0,0,0,0,1.81-6.35,5.75-11.41,9.92-16.32.32-.37.68-.69,1-1,.85-.92,1-1.5-.49-2a36.87,36.87,0,0,1-13.07-7.53,15.32,15.32,0,0,1-5.07-8c.4-1.19.77-2.39-.18-3.51a1.34,1.34,0,0,1-.75-.37,47.5,47.5,0,0,1,0-7.73c.75-1.25.47-2.7.82-4,.5-4.41,2.73-8,5.45-11.34.94-1.16,1.56-2,.68-3.72A5.37,5.37,0,0,1,79.31,84c1.46-1.14,5.15-1,7.07.57,1.11.92,1.83.66,3,.34,3.25-.89,6.38-2.27,9.79-2.53a16.88,16.88,0,0,0,6.79.1c3.14,1.84,6.35,1.44,9.48.12,1.42-.59,2.7-1,4.12-.24a1.52,1.52,0,0,1-.78.48,1.42,1.42,0,0,0,.79-.48c4.34.19,8.3,1.9,12.26,3.38,1.88.7,3.25.9,4.7-.48.55-.48,1.37.14,1.89-.46,2.69-1.4,4.12.51,5.54,2.2,1.7,2,.6,3.92-.59,5.65-2.21,3.21-2.22,3.15.16,6.41,1.44,2,2.87,4,3.12,6.6a1.46,1.46,0,0,0-.43.75c.31,0,.25-.39.52-.4a9.73,9.73,0,0,1,1,5.28c1.12,2.5.73,5,0,7.48a20.13,20.13,0,0,1-7.74,12.08c-3.09,2.42-6.19,4.73-10,6-.9.3-1,1-.29,1.67.92.88,1.93,1.67,2.77,2.61,4.9,5.52,8.71,11.64,10.19,19a12.59,12.59,0,0,1-.34,5.75,3.29,3.29,0,0,1-1.56,2.06c-1.38.82-2.4,1-2.46-1.16-.18-6.55-2.92-12.44-4.87-18.52a6.28,6.28,0,0,0-2.11-3.41,1.92,1.92,0,0,1-.38-.25,5.43,5.43,0,0,1-.68-.59c0,.36.31.59.3.94-.82,1.3.36,2.24.65,3.32.89,3.25,1.95,6.47,2.95,9.7a1.82,1.82,0,0,1,.39,1,32.1,32.1,0,0,0,.13,3.4c.1.2.21.4.33.59,0,4,.4,8-1.83,11.66a13.8,13.8,0,0,1-2.24,2.69,12,12,0,0,0-3.69,7.82c-.23,2.64-2.34,1.7-3.83,1.94a3.64,3.64,0,0,0-3.85,0l-1,0C117.4,185.51,118.27,183.66,117.58,182.1Z"/><path class="cls-3" d="M112.8,79.45c.37.83.46,1.54-.72,1.72a8.12,8.12,0,0,1-3.53-.47c-.55-.15-1.08-1-.15-1.07,1.92-.24,1.53-1.41,1.4-2.58a2.67,2.67,0,0,0-2.74-2.49l-.58-.32c-.83-.26-1.8.11-2.55-.55a4.65,4.65,0,0,1-4.61-4.81c.15-1.54,1.37-2.23,2.75-2.68A6.34,6.34,0,0,1,109.72,70a13.18,13.18,0,0,0,1.68,3.16,19.7,19.7,0,0,1,5.77-5,9.15,9.15,0,0,1,4.59-1.21,3.58,3.58,0,0,1,3.48,2.66c.56,1.7-.6,2.61-1.87,3.4-.34.21-.64.48-1,.72a3.1,3.1,0,0,1-.7.42,41.87,41.87,0,0,1-5.6.17c-2.82.41-3.18.79-3.18,3.48A3.46,3.46,0,0,1,112.8,79.45Z"/><path class="cls-4" d="M112.8,79.45c-1.54-3-.48-5.27,2.74-5.74a2.8,2.8,0,0,0,.69.35c2,.37,4.19-.42,6.19.52-.06.84-.61,1-1.33,1-1.12,0-2.24,0-3.36,0-2.28-.09-4.71-.47-4.09,3.18C113.71,79.19,113.21,79.38,112.8,79.45Z"/><path class="cls-5" d="M106,82.46c-1.46,1.33-5.52,1.26-6.79-.1v0c1.15-.39,2.33-.1,3.5-.18.32,0,.51-.07.19,0a1.24,1.24,0,0,1,0-.23C104.05,81,105,81.93,106,82.46Z"/><path class="cls-6" d="M88.55,147.28a19.66,19.66,0,0,1,2.37-4.85c1.25.13.63.92.53,1.52l-2,4.83C89.45,148.11,89.56,147.34,88.55,147.28Z"/><path class="cls-7" d="M72,117.3c.14-.4.65-1.13.73-.56.19,1.44,1.15,3.19-.67,4.37a.35.35,0,0,1-.1-.35A6.87,6.87,0,0,1,72,117.3Z"/><path class="cls-8" d="M117.58,182.1c2,1.29.5,3.28,1,4.88-.42.09-.79.07-1-.37a12.66,12.66,0,0,1,0-4.51Z"/><path class="cls-9" d="M119.54,187c1.28-1.57,2.56-1.56,3.85,0A10,10,0,0,1,119.54,187Z"/><path class="cls-10" d="M122.42,74.58c-2.24-.21-4.56.65-6.71-.53,2.08-.47,4.24.21,6.32-.38a1.65,1.65,0,0,1,.38,0C122.41,74,122.41,74.29,122.42,74.58Z"/><path class="cls-11" d="M87.46,159.3l.16.59a10.71,10.71,0,0,1,.19,5.56.47.47,0,0,1-.72.19C87.07,163.52,86.83,161.38,87.46,159.3Z"/><path class="cls-12" d="M134.08,158.94l0-1c1.85,1.37.52,3.3.85,4.93a2,2,0,0,0-.36-.18C133.82,161.54,134.76,160.12,134.08,158.94Z"/><path class="cls-13" d="M104,178.27c.55-1.61,1.63-.82,2.88-.73-.82,1.05-1.76.57-2.49.8l-.2,0Z"/><path class="cls-14" d="M76.41,89.28a3.47,3.47,0,0,1-.15-3.19A2.74,2.74,0,0,1,76.41,89.28Z"/><path class="cls-15" d="M72,105.47c-.26,1.35,1,3-.82,4A8.6,8.6,0,0,1,72,105.47Z"/><path class="cls-16" d="M130.53,144.93c-1.08-.28-1-1.17-1.19-2.28a2.81,2.81,0,0,1,1.95,2.18Z"/><path class="cls-17" d="M84.58,157.92c-1.67-.55-.62-1.67-.92-2.78,1.32.5.79,1.36,1,1.92C84.65,157.35,84.62,157.64,84.58,157.92Z"/><path class="cls-18" d="M102.81,81.86c.1.19,1,.21.39.37a17.52,17.52,0,0,1-4,.09A7.1,7.1,0,0,1,102.81,81.86Z"/><path class="cls-19" d="M117.54,182.1l0,4.51A5.38,5.38,0,0,1,117.54,182.1Z"/><path class="cls-20" d="M87.09,165.64a1.39,1.39,0,0,0,.41,0c.88,1.16.54,2.43.31,3.68a.58.58,0,0,1-.73.27A10.65,10.65,0,0,1,87.09,165.64Z"/><path class="cls-21" d="M88.45,153.11a7.54,7.54,0,0,1-.87,3.45C87.5,155.31,87.41,154.07,88.45,153.11Z"/><path class="cls-22" d="M72,117.3c0,1.15,0,2.31,0,3.46-.7-1.08-.36-2.4-.83-3.53Z"/><path class="cls-6" d="M86.6,152.12a2.25,2.25,0,0,1,.86-2.1C87.45,150.83,88,151.86,86.6,152.12Z"/><path class="cls-23" d="M103.93,73.69c1,.1,2.1-.49,2.94.49a3.48,3.48,0,0,1-2.81-.13A1.4,1.4,0,0,0,103.93,73.69Z"/><path class="cls-24" d="M83.68,159.88l.49.09a5,5,0,0,1-.44,2.82l-.12,0A2.45,2.45,0,0,1,83.68,159.88Z"/><path class="cls-25" d="M104.06,74.05l2.81.13.19.38C106.05,74.45,104.91,75.09,104.06,74.05Z"/><path class="cls-21" d="M85.68,154.53a3.24,3.24,0,0,1,.84-2A1.71,1.71,0,0,1,85.68,154.53Z"/><path class="cls-26" d="M87.08,169.62a1.84,1.84,0,0,1,.41,0,1.36,1.36,0,0,1,.14,1.9c0,.17-.09.34-.13.51A3.33,3.33,0,0,1,87.08,169.62Z"/><path class="cls-27" d="M138.41,84.78c-.44.93-1.26.31-1.89.46C137,84.6,137.75,84.81,138.41,84.78Z"/><path class="cls-28" d="M89,150.24a2.77,2.77,0,0,1-.42,2.4C88.61,151.83,88.21,150.93,89,150.24Z"/><path class="cls-29" d="M98.19,162.47a29.68,29.68,0,0,1,3.54-14.89c1.73-3.29,4.36-5.26,8.28-5.23a9.24,9.24,0,0,1,8.44,5c2.2,3.8,4.12,7.65,4.26,12.14a21.82,21.82,0,0,1-.64,7.14c-1.35,4.25-5.07,5.28-9,5.72a21.24,21.24,0,0,1-9.28-1C99.79,170,98.16,167.29,98.19,162.47Z"/><path class="cls-30" d="M110.17,126.05a12.21,12.21,0,0,1-2.18-.11c-4.43-.91-6.15-2.51-6.75-6.41A17.26,17.26,0,0,1,104,107.1c2.84-4.33,8.13-4.78,11.49-.87,3.81,4.44,5.14,9.6,3.13,15.23C117.28,125.27,115.56,126.1,110.17,126.05Z"/><path class="cls-31" d="M99.7,107.57c-1,1.3-1.94,2.35-3.72,1.11-2.23-1.56-2.74-3-1.69-5,.95-1.85,2.34-2.33,4.17-1.32.61.33,1.41.47,1.6,1.32C99.65,105,99.88,106.29,99.7,107.57Z"/><path class="cls-32" d="M123.4,102.26c1.93,1.53,2.64,3.64,1.6,5.16-1.23,1.81-3,1.48-4.79,1-.51-.12-.52-.53-.55-.93a6.37,6.37,0,0,0-.09-3.84c-.08-1.39,1.42-.79,1.88-1.5A1.36,1.36,0,0,1,123.4,102.26Z"/><path class="cls-33" d="M141.17,89.58a1.6,1.6,0,0,1-1.73,1.59c-1.18,0-2.2-.39-2.26-1.63A1.77,1.77,0,0,1,139,87.7C140.34,87.62,140.9,88.43,141.17,89.58Z"/><path class="cls-34" d="M87.63,171.48c0-.63-.09-1.26-.14-1.9,0-1.3,0-2.61,0-3.91l.12-5.78a.9.9,0,0,1,.87,1c0,3.22,0,6.45,0,9.67A.9.9,0,0,1,87.63,171.48Z"/><path class="cls-35" d="M84.6,87.65a4.54,4.54,0,0,1-2.78,1.83c-.93.13-1.14-.77-1-1.52a1.93,1.93,0,0,1,2-1.69C83.77,86.26,84.17,86.94,84.6,87.65Z"/><path class="cls-36" d="M119.57,103.7c1.48,1.25,1.32,2.53.09,3.84a.48.48,0,0,1-.21-.38,3.42,3.42,0,0,1,.08-3.47Z"/><path class="cls-37" d="M99.7,107.57c-.63-1.36-1.29-2.72.36-3.86l.2,0a2.56,2.56,0,0,1,.3.65,9.67,9.67,0,0,1,0,2.52,1.81,1.81,0,0,1-.4.59A2,2,0,0,1,99.7,107.57Z"/><path class="cls-38" d="M123.4,102.26l-2-.06c-.11-.43-1-.53-.63-1.1s1-.29,1.52-.3C123.37,100.78,123.4,101.52,123.4,102.26Z"/><path class="cls-39" d="M83.68,159.88c0,1,0,1.91-.07,2.87C82.19,161.76,82.16,160.8,83.68,159.88Z"/><path class="cls-17" d="M119.56,82.34c-.5,1.7-1.69.71-3.19,1.16,1.21-1.56,2.32-.91,3.18-1.16Z"/><path class="cls-40" d="M100.13,107.49c0-.11,0-.22,0-.33a4.79,4.79,0,0,0,0-3.17.5.5,0,0,1,.08-.26C101.51,105,101.73,106.29,100.13,107.49Z"/><path class="cls-41" d="M119.05,107c-.72-1.18-.7-1.8.11-3.23A6.54,6.54,0,0,1,119.05,107Z"/><path class="cls-42" d="M79.77,156c1.13.2,1,.89.77,1.74-1.14-.29-.55-1.17-.78-1.72Z"/><path class="cls-43" d="M134.08,158.94c.89,1.15.39,2.5.54,3.76C133.54,161.58,134.31,160.18,134.08,158.94Z"/><path class="cls-44" d="M119.05,107c0-1.08.07-2.15.11-3.23l.37-.09c0,1.16,0,2.31-.08,3.47A3.25,3.25,0,0,1,119.05,107Z"/><path class="cls-45" d="M91.45,144c-.08-.54.07-1.16-.53-1.52.2-.23.54-.56.73-.31A1.41,1.41,0,0,1,91.45,144Z"/><path class="cls-46" d="M122,73.67c-2,1-4.22.25-6.33.38,0-.11-.11-.22-.16-.34Z"/><path class="cls-47" d="M105.75,70c1,0,1.45.58,2.18,1.66A3.2,3.2,0,0,1,105.75,70Z"/><path class="cls-48" d="M120.1,70.29a.77.77,0,0,1-.95.35c-.15-.06-.37-.36-.33-.46.16-.44.58-.41,1-.36C120,69.85,120.27,69.9,120.1,70.29Z"/><path class="cls-49" d="M109.28,115.68c.31-1.92-1.24-3-2-4.37-1.52-2.63-1-3.7,2-3.74,1.75,0,4.13-.4,4.74,1.4s-1.28,3.35-2.84,4.5a1.45,1.45,0,0,0-.28.36,2.68,2.68,0,0,0-.41.85,9.86,9.86,0,0,0,.1,3.47,2.28,2.28,0,0,0,.5.38,4,4,0,0,0,1.87.13l.31-.06,1.44.18c-.79,1.53-2,2.1-3.36,1.56a4.55,4.55,0,0,0-3.59-.24,2,2,0,0,1-2.2-.54c-.32-.37-.73-.81-.34-1.24.64-.7.84.41,1.33.44.81.18,1.63.53,2.35-.23l.32-.46A7.69,7.69,0,0,1,109.28,115.68Z"/><path class="cls-50" d="M110.79,118.76a.38.38,0,0,0-.35-.1c-.71-1.41-.32-2.87-.21-4.32l.57-.51a7.59,7.59,0,0,1,0,1.43c-.43,2,.42,3.06,2.38,3.34l0,.14A3.59,3.59,0,0,1,110.79,118.76Z"/><path class="cls-51" d="M108.8,118.53c-.69,1-1.51.79-2.35.23Z"/><path class="cls-51" d="M109.28,115.68a3.94,3.94,0,0,1-.16,2.4A3.86,3.86,0,0,1,109.28,115.68Z"/><path class="cls-52" d="M100.18,104a2.64,2.64,0,0,1,0,3.17Z"/><path class="cls-51" d="M110.23,114.34l.21,4.32C109.33,117.27,109.7,115.81,110.23,114.34Z"/><path class="cls-53" d="M110.79,118.76l2.42,0A1.68,1.68,0,0,1,110.79,118.76Z"/><path class="cls-54" d="M275.81,180.18c1.12,4.64-.24,6.91-4.69,8.25-4.13,1.24-8.24,1.87-12.5.84-3.09-1.13-6.25-.49-9.38-.35a98.76,98.76,0,0,1-17.47-1.49c-4.46-.91-6.39-3.24-5.18-8.43,1.15-4.91-.78-6.54-4.24-8.67a37.75,37.75,0,0,1-14.82-16.22c-.39-.84-.5-2.25-2.29-1.05-13,8.71-23.22-1.21-24.36-12.12a30.1,30.1,0,0,0,0-8.1,28.63,28.63,0,0,1,5.61-15c5.6-7.81,11.66-15.24,19.1-21.41a6,6,0,0,0,2-3.72c3-14.46,8.77-27.92,16.06-40.61,6.89-12,18.23-18.36,31.42-21.6a60.44,60.44,0,0,1,9.28-1.75c2.41-.2,3.09-1.4,3.69-3.42,2.19-7.43,4.54-14.82,6.85-22.21.43-1.38.73-3.08,2.55-3.16a4.76,4.76,0,0,1,4.25,2.26c2.3,3.34,4.91,6.47,7.09,9.88,1.3,2,2.33,2.35,4.51,1.24,6-3.05,12.09-5.87,18.21-8.65,4.06-1.85,5.35-1.07,6.2,3.37.88,4.64,1.86,9.27,2.53,14,.28,1.94,1.09,2.47,2.83,2.37a41.76,41.76,0,0,1,8.42.64c4.09.58,4.75,1.59,2.71,5.29s-4.47,7.55-6.84,11.25c-.87,1.36-.83,2.15.36,3.4,9,9.44,14.3,20.89,17.71,33.34,1.84,6.73,3.39,13.52,4.57,20.4a6.05,6.05,0,0,0,1.83,3.42,65,65,0,0,1,14.9,24.2c2.42,6.7,4.06,13.32,3.82,20.39a30.37,30.37,0,0,1-3.81,13.18,8.59,8.59,0,0,1-5.17,4.08c-3.23,1.09-6.62,2-9.95,1.53-4.14-.63-7.25.79-10.55,3a91.17,91.17,0,0,1-11.32,6c-1.42.67-2,1.11-1.69,2.91,1.14,6.1-1.53,10.55-7.6,11.35-10.26,1.34-20.6,2.54-31,.91-3.15-.5-6.18-1.6-6.94-5.39a2.57,2.57,0,0,0,.06-2c-.57-1.39,1.05-3.32-.36-4.12-1.62-.92-3.75-.36-5.65-.27C275,178,274.87,179,275.81,180.18Z"/><path class="cls-55" d="M275.81,180.18c-.76-.33-1.09-1.15-.68-1.63,1.72-2.07,4.12-.65,6.19-1,1.53-.23,1.89.9,1.77,2.15-.14,1.52.5,3.13-.51,4.55A21.88,21.88,0,0,0,282,182c-.41-1.14,1.09-2.86-.19-3.3a14.5,14.5,0,0,0-5.59-.22C275.36,178.58,276,179.62,275.81,180.18Z"/><path class="cls-56" d="M249.24,188.92c3.16-.7,6.31-1.27,9.38.35Z"/><path class="cls-57" d="M324.28,125.35c1.52,3.3,2.76,6.26,4.21,9.13,3.86,7.63,6.32,15.84,9.83,23.61.72,1.58-.19,2.35-.88,3.26-3.58,4.78-8.88,6.25-14.36,7.39-1.64.35-3.28.76-4.88,1.26a2.43,2.43,0,0,0-1.86,2.19c-.06,1.21.71,1.73,1.79,2.1,2.92,1,3,3.56,3.07,6,0,1.07-.71,1.67-1.92,1.95-8,1.86-16.09,3.34-24.42,2.17-4.52-.63-5.45-1.57-4.87-6,.56-4.21-.6-5.72-4.88-5.4-7.81.59-15.56-.1-23.33-.65a8.54,8.54,0,0,0-2,.12c-.63.11-1.49,0-1.73.78s.36,1.5,1,2c2.4,1.64,5.26,1.88,8,2.42,1.18.22,2.39.27,2.13,1.87-.24,1.44.48,3.42-1.68,4a16.28,16.28,0,0,1-4.93.79c-9-.63-18.06-.26-27-1.29-2.57-.29-3.22-1.83-2.79-4a39.82,39.82,0,0,1,2.1-7.1c.68-1.65.68-3.38-1.74-3.89-12.57-2.66-19.06-11.11-21.65-23.07a83.32,83.32,0,0,1-.89-29.91c.32-2.21,1-4.37,1.37-6.58.16-1,.43-2.47-1-2.86s-2,.84-2.51,1.83A42.69,42.69,0,0,0,204,123.23c-.56,6-1.73,12.11-.29,18.18,1,4-2.06,5.69-4.55,7.37s-6.77,1-8.75-1.17c-4.71-5.11-5.14-11.05-2.92-17.31,4.54-12.84,13.23-22.65,23.4-31.29a7.27,7.27,0,0,0,2.51-4.14A157.66,157.66,0,0,1,226.1,60.12C231.86,49,241,41.94,252.58,37.94c12.24-4.21,24.71-6.95,37.82-4.72,11.36,1.92,21.29,7.08,30.64,13.44,3.95,2.7,6.25,7.07,8.5,11.25a137.47,137.47,0,0,1,13.82,40.33,18.29,18.29,0,0,0,3.9,8.42,104.07,104.07,0,0,1,12.34,18.53c4,8,5.92,16.53,4.13,25.52-.78,3.87-2.39,7.36-6.71,8.52a11.6,11.6,0,0,1-11.83-3c-3.44-3.36-4.92-7.75-6.44-12.09-1.92-5.48-4.39-10.62-8.31-15C328.92,127.49,327.44,125.56,324.28,125.35Z"/><path class="cls-58" d="M315.6,23.8c.15,5.65.31,5.85,5.66,6.15,1.9.1,3.81,0,6,0-1.15,3.48-3.62,5.92-5.16,8.88-.59,1.15-1.52.11-2.3-.21-4.24-1.72-7.89-4.68-12.34-6a.9.9,0,0,1-1.27-.15c-4.3-2.71-9.13-3.61-14.08-4.11a.78.78,0,0,1-.62-.51c-1.89-.35-3.79.07-5.69-.08h-9.5c-1.25-.25-3.3.59-2.8-2.05,1.92-5.73,3.85-11.47,5.85-17.41,2.43,1.28,3.17,3.78,4.39,5.73s2.84,3.65,3.83,5.82c.64,1.41,1.93,2.23,4.14,1.15,6.18-3,12.43-5.82,18.21-9.58,2-1.28,3-.36,3.65,1.44A1.66,1.66,0,0,1,314,15l.36,3.74c.67,1.54-.24,3.28.63,4.79l.61.3Z"/><path class="cls-59" d="M291.56,27.83l.59.57-17.47.08c-.86,0-1.85.22-2.29-.91,1.29-.59,2.7.37,4-.32l10,0C288,27.94,289.9,27,291.56,27.83Z"/><path class="cls-60" d="M315.6,23.82a30.45,30.45,0,0,1,.14-4.88c.28-1.57.9-1.25,1.26.07a5.3,5.3,0,0,1,0,5.41l-1.4-.62Z"/><path class="cls-61" d="M317,24.42V19C319.18,20.81,319.18,22.62,317,24.42Z"/><path class="cls-62" d="M314,15c-.66-.6-.29-1.39-.39-2.09.66-.14,1.51-1,1.9.17S315.27,15,314,15Z"/><path class="cls-63" d="M276.37,27.25a5.64,5.64,0,0,1-4,.33,2.14,2.14,0,0,1,1.15-1.83C273.65,27.81,275.4,26.78,276.37,27.25Z"/><path class="cls-64" d="M306.23,32.51l1.27.15A1.22,1.22,0,0,1,306,33.85c-.46-.05-.94-.29-.77-.76C305.28,32.81,305.87,32.7,306.23,32.51Z"/><path class="cls-65" d="M315,23.52c-1.54-1.42-.38-3.2-.63-4.79C315.34,20.22,314.91,21.91,315,23.52Z"/><path class="cls-54" d="M247.21,83.21c-5.8-1.36-10.89-7.33-8-14.82,2.15-5.46,7.23-7.61,13.93-6,4.67,1.14,7.6,5.77,7.25,11.11-.35,5.14-3.05,8.22-7.87,9.65A17.51,17.51,0,0,0,247.21,83.21Z"/><path class="cls-66" d="M300,62.27c6.34-.06,11.41,4.47,11.51,10.3.1,5.46-4.85,10.91-10,10.71-7.42-.29-11.43-4.81-11.57-10.59A10.12,10.12,0,0,1,300,62.27Z"/><path class="cls-67" d="M247.21,83.21a6.32,6.32,0,0,1,5.36,0A10.36,10.36,0,0,1,247.21,83.21Z"/><path class="cls-68" d="M291.56,27.83c-1.76,0-3.54.2-5.21-.6l5.28,0c.08,0,.21.15.2.17A3,3,0,0,1,291.56,27.83Z"/><path class="cls-69" d="M249.28,67.49c-.12,3.34-2.2,5.19-4.82,5.08a2.49,2.49,0,0,1-2.68-2.75c0-2.34,2.18-4.76,4.36-4.67C248.09,65.22,249.29,66.16,249.28,67.49Z"/><path class="cls-70" d="M296.44,73.51c-1.74-.26-3-.82-2.95-2.72.09-2.71,2-4.57,4.43-4.41,1.88.11,3.11.94,2.75,2.93C300.24,71.68,299.07,73.5,296.44,73.51Z"/><path class="cls-54" d="M405.93,171c.82.79-.42,2.72,1.42,2.83,1.5.09,2.67-.2,2.64-2.38-.08-4.92,2-7.76,5.89-9.27a3.35,3.35,0,0,1,4.13.9c1.94,2.21,3.21,4.73,2,7.73-1.33,3.26-3.29,6.18-7.15,6.37-2.91.15-5.24,2.08-8.12,2-.64,0-.69.56-.72,1.06a5,5,0,0,1-1,2.68,2.62,2.62,0,0,0-.32,2.64c.86,2.68-.58,4.71-3.39,4.77-4.68.08-9.36,0-14,.06-1.78,0-2.6-.69-2.63-2.6a8.2,8.2,0,0,0-7.65-8.15c-4.91-.56-8.55,1.52-9.54,6-.65,3-1.92,3.9-4.91,3.67-4.08-.31-8.16.81-12.29.42-3.87-.36-5-2.16-3.1-5.57a2,2,0,0,0,0-2.37c-1.76-2.19-1.38-4.69-1.34-7.16,0-1.93,0-3.86,0-6-2.7,1.11-4.89-.42-7.19-1.16-1-.33-1.23-1.42-1.51-2.35-2.12-7-.27-13.54,2.44-19.92.68-1.6.71-2.61-.39-4a44.25,44.25,0,0,1-3.63-5.69,2.37,2.37,0,0,0-2.32-1.32,54.45,54.45,0,0,0-8,.2c-5,.66-6.64-1.14-6.16-6.15.38-3.85.6-7.71,1-11.56.09-.89-.48-1.29-.89-1.86a101.09,101.09,0,0,0-10.4-11.77c-3.21-3.26-3.2-5.47.11-8.69,2.43-2.36,4.27-5.29,7.09-7.26,1.08-.75.46-1.65.19-2.36a61.62,61.62,0,0,1-3.34-11c-.51-2.73-.06-3.6,2.58-4.53l11.15-3.88A7.18,7.18,0,0,0,331,61.35a117,117,0,0,1,5.66-11.17c2.91-5,5-5.76,10.39-4,3.9,1.27,8,1.95,11.77,3.56a2.8,2.8,0,0,0,2.94-.47c4.4-3.28,9.21-5.92,13.86-8.82a20.67,20.67,0,0,1,6.12-2.11c2-.51,3.32.51,4.73,1.71a92.63,92.63,0,0,1,13.15,14.49,3.64,3.64,0,0,0,4.25,1.58C409.17,54.94,414.6,55,420,54.37c3.64-.4,4.12.12,5.3,3.46,1.24,3.5,2.32,7,2,10.84-.18,1.94.58,3.08,2.68,3.48A46.31,46.31,0,0,1,441.82,76c2.8,1.38,3.4,3.06,2.13,5.88-1.87,4.15-4.87,7.55-7.46,11.21-1.05,1.5-1,2.64,0,3.83,2.93,3.26,5.05,7.08,7.53,10.64,1.89,2.7,1.55,5.33-1.12,7.27-3.78,2.75-7.4,5.81-11.75,7.57-4.15,1.68-4.35,5.3-4.81,8.72-.95,7.07-1.08,7.64-8,6.88-3.95-.43-6.14.54-7.8,4a3.12,3.12,0,0,0-.25,2.95c1.79,4.47,3.67,8.91,3,14-.46,3.59-3,6.84-6.19,7.34-1.58,0-2.32.68-1.84,2.31C405.55,169.39,405.37,170.31,405.93,171Z"/><path class="cls-71" d="M405.93,171c-1.62-1.1-.94-2.74-.78-4.13.12-1.07,1.26-.59,2-.64-1.38.43-2,1.15-1.36,2.7A6.4,6.4,0,0,1,405.93,171Z"/><path class="cls-72" d="M340,158.81l.08-3.07c.41-.6-.07-1.42.48-2a114.07,114.07,0,0,1,4.73-11.84,25.71,25.71,0,0,1,4.41-6.29c.35-.39,1.06-.89,1.41-.77,1.95.67,2.49-.79,3.27-2-.73-.86-1.8-.58-2.7-.76-7.06-1.47-11.46-6.35-15.45-11.82a19.38,19.38,0,0,1-4-9.66c-.43-.8.23-1.8-.47-2.54l0,0c-.43-.77.06-1.68-.36-2.46a27.9,27.9,0,0,1,6-21c4.19-5.25,9.93-8.44,16.31-10.44,2.75-.87,5.53-1.62,8.3-2.42.58-.74,1.5-.61,2.25-.91a11.25,11.25,0,0,0,2.07-.31c.8-.13,1.64.17,2.41-.25a.28.28,0,0,0,.37,0c2.79-1.31,5.69-.62,8.55-.49a1.76,1.76,0,0,1,.67.4c1.4,1.06,3,.15,4.47.43a15.22,15.22,0,0,1,3.09.17c1.47.37,3,.52,4.47.79a13.11,13.11,0,0,1,2.91.48,11.1,11.1,0,0,1,2,.74l1,.44c8.38,3.16,14.87,8.42,18.49,16.8,1.07,2.5,2.73,4.75,3.24,7.49a7.5,7.5,0,0,1,.07,1.77c-.1,1.47.21,3-.23,4.42-.09.3,0-.12,0,.21.14-.09.1-.31.28-.36a.31.31,0,0,1,.35.34c0,.86,0,1.73,0,2.59a.39.39,0,0,1-.3.34c-.42.85,0,1.77-.23,2.63a3.2,3.2,0,0,1-.32.57c-2,9-8.21,14.61-15.47,19.33a54.05,54.05,0,0,1-7.38,3.79c-.81.36-1.17,1-1.86,1.39.62,1,1.52.57,2.24.74l.52.29a3.15,3.15,0,0,0,1.72-.08l.53-.21.28-.07c1.37-.27,2.12.64,2.71,1.59,2.54,4.07,5.37,8,7,12.59.54,1.52,1.87,2.75,2.3,4.4.52.51.31,1.07.14,1.64l-.21,0c-2.31.59-4.42,2.18-7,1.42A47.53,47.53,0,0,0,400,146.6c-.79-1.95-2.46-2.82-4.15-3.72-2-.1-.5,1.07-.62,1.66a35.88,35.88,0,0,1,4.11,12.05,2.09,2.09,0,0,1,.24.58,12.2,12.2,0,0,0,.18,1.81,3.39,3.39,0,0,0,.34.5c0,.45.05.91.07,1.36.6.58.31,1.41.58,2.08.11.18.21.36.31.54a26.33,26.33,0,0,0,1,7.59,9,9,0,0,1,.9,2.09c.15.92.34,1.85-.49,2.58-.18,3.54-3.2,6-3.48,9.56-.06.69-1.07.59-1.67.65-2.32.24-4.64.37-7,.61-1.05.11-1.42-.37-2-1.24-2.38-3.73-4.91-7.4-9.8-8.19-6.53-1.06-11.69.21-14.2,6.26a5,5,0,0,0-.19,1.17v0c-.42,1.46-1.18,2-2.81,1.53-1.94-.6-4.08-.26-6-1a.79.79,0,0,1,.74-.25c-.73.07-1.6-.31-2.39.23l-.89.53a38.37,38.37,0,0,1-3.07-18.79c.55-1.1-.16-2.37.46-3.46a5.18,5.18,0,0,0,.53-2.9c0-.1,0-.21,0-.31a4.6,4.6,0,0,1,.17-1.88,12.66,12.66,0,0,0,.32-1.94,5.12,5.12,0,0,1,.14-.68c.58-2.34.75-4.75,1.32-7.08a8.2,8.2,0,0,1,.52-1.3,11.72,11.72,0,0,0,.83-2.53,25.45,25.45,0,0,1,.9-3.05,31.32,31.32,0,0,0-2.4,3,17,17,0,0,0-2.43,5.14,45.64,45.64,0,0,0-1.67,5.72,2.57,2.57,0,0,1-.9,1.51,14.84,14.84,0,0,0-.78,5.16,8.78,8.78,0,0,1-6.12-2.1C340.23,159.82,339.68,159.5,340,158.81Z"/><path class="cls-73" d="M328.9,114.74c1.49,6.56,6.09,11.08,10.65,15.46a13.44,13.44,0,0,0,7.74,3.54l-4.45,5.31a35.46,35.46,0,0,1-3.23-4.63c-1.94-4-5.44-4.25-9.16-4.1l-.21-.18a.59.59,0,0,1,.17-.49c-1.88.59-3.81.28-5.72.31a2,2,0,0,1-1-.3c-.19-.15-.55-.33-.53-.44.77-4-.33-8.21,1.46-12.09a2.21,2.21,0,0,0-.39-2.07A66.72,66.72,0,0,0,311,100.4c-.17.1-.29.06-.35-.13-1.08-.59-1.67-1.3-.44-2.3,2.47-2,5-4,7.42-6,1.57-1.33,3.41-2.45,4.11-4.58A.42.42,0,0,1,322,87c.33-.76,0-1.57.2-2.33a1.85,1.85,0,1,1,.05-.22s-.15,0-.23,0a.3.3,0,0,1-.31-.33,6.24,6.24,0,0,0-1-3.24v0c-.19-.8-.38-1.6-.58-2.4a.54.54,0,0,1-.28-.52,23.53,23.53,0,0,0-.62-3,1.88,1.88,0,0,1,1-2.69.27.27,0,0,1,.43-.1,46.45,46.45,0,0,0,13-5.15c2.24-1.38,2.44-4.18,3.45-6.4,0-.11,0-.21,0-.32a1.85,1.85,0,0,1,.9-1.59c.85-2.84,2.73-5.07,4.31-7.48.83-1.28,1.75-.06,2.59-.31h0c5,1.44,10,2.95,15,4.29a3.64,3.64,0,0,0,2.9-.82c3.88-3,7.63-6.1,11.78-8.69a56.72,56.72,0,0,1,6-3.28,2.22,2.22,0,0,1,3.08.87,141,141,0,0,0,11.81,14.88c1.59,1.84,3.44,3.8,6.38,3.36,1.33-.41,2.7-.06,4.18-.24.18,0-.1-.39-.07-.07,0,.06-.07.09-.22.09-.47,0-1,.11-1.37-.24,4.91-.54,9.64-2.13,14.59-2.54,1.74-.14,2.34.45,2.38,2,0,1.29.12,2.57.18,3.86.56,1.67-.28,3.47.45,5.12l.37.37c.16.06.23.13.19.22s-.09.14-.14.14c0,.41,0,.81,0,1.21-.13,4.65,1,4.59,4.89,4.56,3.3,0,6.41,1.34,9.53,2.37.06,0,.09.13.15.18.89.85,3-.06,3,1.58,0,1.08-1.24,2.18-2,3.23-2.27,3.24-4.5,6.49-6.85,9.66-2.05,2.77-2,4.91.41,7.39,2.85,2.92,6.18,5.41,7.81,9.39.48,1.17.43,1.66-.75,2.15-4.46,1.87-8.08,5.23-12.64,7-2.84,1.09-3.5,3.73-3.54,6.52l-.09.26c-.08.18-.17.35-.24.53-.16.52-.11,1.06-.24,1.57a2.69,2.69,0,0,1-.31.55c0,.33-.07.65-.1,1l0,0c-.49,2.74-2,3.92-4.76,3-1.58.47-3.24-.17-4.81.38l-.68.48a.25.25,0,0,1-.37.15c-1.49.93-2.18,2.53-3.15,3.87-.69.94-1.21,1.18-2,.18s-1.79-2.05-2.72-3.1c8.14-5.33,16.37-11,19.05-21.54.52-.71,0-1.61.39-2.34.09-3.23.81-6.48-.5-9.64a1.88,1.88,0,0,1-1.1-1.62c-.11-.76.18-1.57-.23-2.31l-.09-1.4a5.33,5.33,0,0,1-1.27-2.36,4.84,4.84,0,0,1-.19-.65c-.82-3.29-2.92-5.89-4.77-8.58-2.73-4-5.63-7.81-10.18-10-1.59-.77-3.37-1.09-4.83-2.15a12.35,12.35,0,0,0-2.12-.81c-.32-.09-.62-.19-.93-.3a13.92,13.92,0,0,0-2.52-.72c-.35,0-.68-.13-1-.21-1.39-.38-2.88-.09-4.25-.64a8.2,8.2,0,0,1-1.08-.29,57.72,57.72,0,0,0-6.68-.94,1.71,1.71,0,0,1-.87-.65,1.11,1.11,0,0,1-.1-.65c.05-.4,1.23-.56.25-1.2a107.7,107.7,0,0,0-13.8,0c-.4.27-.79.55-.58,1.14a1.52,1.52,0,0,1,0,.6,1,1,0,0,1-.36.5.83.83,0,0,1-.89-.14c-.41-.07-.82-.15-1,.38-1.06.71-2.34-.07-3.43.5a21.45,21.45,0,0,0-10.15,2.91h0a19.06,19.06,0,0,0-6.7,3.44c-4.81,3.68-9.36,7.58-12.1,13.2-.85,1.75-1.06,3.68-2,5.38-.57.54-.06,1.32-.43,1.91.42,1-.74,1.77-.41,2.77a4.73,4.73,0,0,1,.05.75q-.09,3.22,0,6.44,0,.39,0,.78c.1,1.69-.21,3.39.19,5.07l.12,1.43C328.92,113.13,328.36,114,328.9,114.74Z"/><path class="cls-74" d="M419.58,93a6,6,0,0,1,.87,2.53h-.92a2.07,2.07,0,0,1-.7.51c-.63.19-.72.82-1,1.27l-.23.18c-2.38-4.73-4.16-9.72-7.51-14-3.59-4.55-8.25-7.28-13.46-9.37a6.71,6.71,0,0,1-.81-.49c-.11-.83.71-.91,1.07-1.36a2.43,2.43,0,0,1,.51-.32A9,9,0,0,0,399,71.3l.27-.09c1.23.49,2.47.94,3.67,1.49,8.45,3.88,12.64,11.45,16.61,19.2.1.18,0,.47,0,.71s-.26.21-.23.32S419.46,93.09,419.58,93Z"/><path class="cls-74" d="M364.29,67.43l.8-.08a4,4,0,0,1,2.51-.64h10.1a4.61,4.61,0,0,1,2.51.66,23.63,23.63,0,0,1,7.43.94c-.9,1.21-2.95.06-3.61,1.75-1.89,1.21-3.85.86-5.82.27l-9.08-.06c-.15-1.15-1.06-1-1.8-.93A2.64,2.64,0,0,1,364.29,67.43Z"/><path class="cls-75" d="M403.18,156.83c2.47.18,4.45-2.06,7-1.42A16.1,16.1,0,0,1,409,161a2.82,2.82,0,0,1-3,1.83c-1.26-.12-1.87-.93-2-2.26S403.14,158.13,403.18,156.83Z"/><path class="cls-76" d="M418.7,170c-.78.79-1.14,2.55-2.48,2-.92-.36-2.25,1.1-2.4-.27-.17-1.57-1-3.34.23-4.86,1-1.24,2.11-2.38,3.27-3.67a7.45,7.45,0,0,1,1.29,3.45,4.5,4.5,0,0,1,.39,2.63A2.28,2.28,0,0,1,418.7,170Z"/><path class="cls-77" d="M340,158.81c1.77,2.08,4.46,2.36,6.73,3.45,0,.08.05.17,0,.24-.44,1.12.38,3-1.3,3.29-2.19.34-4.34-.07-5.36-2.62a11.06,11.06,0,0,1-.62-3.28.62.62,0,0,1,.11-.88A2.67,2.67,0,0,1,340,158.81Z"/><path class="cls-78" d="M347.87,155.56a18.58,18.58,0,0,1,1.83-5.87l.29.25a5.72,5.72,0,0,1,.53,1.81,4.42,4.42,0,0,1,.29,4.55c-.66,1.31,0,2.92-1.06,4.09a.88.88,0,0,1-1-1C347.79,158.29,348.73,156.71,347.87,155.56Z"/><path class="cls-79" d="M349.75,160.39c0-1.77-.1-3.51.81-5.17.71-1.3-.29-2.42-.79-3.56a1.6,1.6,0,0,1,1.09-.4c1.15.18,1.4,1,1.22,2s-.09,1.92-.36,2.85a.46.46,0,0,1-.07.45c-.46.42-.43,1-.53,1.54-.35.77,0,1.64-.35,2.4v0Z"/><path class="cls-80" d="M410.83,133.38a.29.29,0,0,1,.37-.15h9l0,1C417,133.73,413.88,135.29,410.83,133.38Z"/><path class="cls-81" d="M325.52,132.3c-.76-.1-1.78.33-1.94-1a7.76,7.76,0,0,1,6.78,0c.58.06,1.25-.16,1.74.39-.45.86-1.17.45-1.73.58A5.68,5.68,0,0,1,325.52,132.3Z"/><path class="cls-82" d="M422.4,70.27a.25.25,0,0,1,0-.36c.33-2.33-.22-4.72.35-7.21C423.87,64.82,423.63,69.21,422.4,70.27Z"/><path class="cls-83" d="M328.51,98.39c1.16.23.86,1.16.88,1.9,0,1.58.05,3.16,0,4.75,0,1.36-.55.28-.87.13A8.72,8.72,0,0,1,328.51,98.39Z"/><path class="cls-84" d="M330.36,131.33h-6.78c0-.32,0-.64,0-1a11.13,11.13,0,0,1,6.85,0v0Z"/><path class="cls-85" d="M325.52,132.3h4.85A3.36,3.36,0,0,1,325.52,132.3Z"/><path class="cls-71" d="M404,172a3.31,3.31,0,0,1,0,4.84A4.43,4.43,0,0,1,404,172Z"/><path class="cls-71" d="M403,171.6c.23-2-.16-3.58.58-5C404,168.1,404.56,169.64,403,171.6Z"/><path class="cls-86" d="M418.56,95.48h1a5.42,5.42,0,0,1-1,3.9.78.78,0,0,1-.5.25.62.62,0,0,1-.43-.33l-.05-1.86.1-.12C418.25,96.84,417.93,95.93,418.56,95.48Z"/><path class="cls-87" d="M404,172v4.84h-1a10.55,10.55,0,0,1,0-4.84Z"/><path class="cls-88" d="M361.39,71.27c-.75-.12-1.78.33-1.95-1a4.67,4.67,0,0,1,4.36,0h.48c.23.65-.24.9-.67,1.17C362.87,71.43,362.1,71.7,361.39,71.27Z"/><path class="cls-89" d="M347.87,155.56c1.84.92.52,2.59.91,3.86-1.59-.14-.54-1.7-1.25-2.32Z"/><path class="cls-90" d="M363.8,70.29h-4.36C360.89,68.55,362.35,69,363.8,70.29Z"/><path class="cls-91" d="M328.51,98.39q0,3.39,0,6.78l-.15.65a.36.36,0,0,1-.37-.3.4.4,0,0,0,0-.42,16.71,16.71,0,0,1,0-6.61c0-.19.07-.38.11-.56Z"/><path class="cls-92" d="M330.44,130.3l-6.85,0,.12-.69.69-.25c1.89.68,3.93-.25,5.82.5A1.26,1.26,0,0,1,330.44,130.3Z"/><path class="cls-93" d="M362.62,187a4,4,0,0,1-3.82,0A4.49,4.49,0,0,1,362.62,187Z"/><path class="cls-94" d="M421,99.34c.59.32.68.91.83,1.47-.56.39-.31,1.53-1.36,1.45a2.37,2.37,0,0,1,0-2.9h0C420.68,99.09,420.86,99.08,421,99.34Z"/><path class="cls-90" d="M416,57a3,3,0,0,1-3.1.33C413.7,56.38,414.55,56.77,416,57Z"/><path class="cls-95" d="M422,69.54c-1.11-.55-.34-1.53-.47-2.3a15.64,15.64,0,0,1,0-2.82A17.31,17.31,0,0,1,422,69.54Z"/><path class="cls-96" d="M420.51,99.36v2.9C419,101.29,419,100.32,420.51,99.36Z"/><path class="cls-97" d="M421.12,112.61c-.78-.72-.69-1.49-.3-2.46C421.85,111,421.29,111.82,421.12,112.61Z"/><path class="cls-98" d="M329.76,112.25a2,2,0,0,1,.29,2.47C329,113.91,329.57,113,329.76,112.25Z"/><path class="cls-99" d="M321.64,126.48q-2.25-1.45,0-2.9A2.4,2.4,0,0,1,321.64,126.48Z"/><path class="cls-100" d="M321.64,126.48v-2.9C323.12,124.55,323.14,125.51,321.64,126.48Z"/><path class="cls-101" d="M422.45,125.48c1.42,1,1.59,2-.06,2.92a2.59,2.59,0,0,1,0-2.92Z"/><path class="cls-98" d="M421.47,129.36c1.69.56.73,1.67.63,2.6-.91-.71-.47-1.7-.65-2.56Z"/><path class="cls-102" d="M328,105.52c.12.09.25.19.37.3V111C327.51,109.2,328.07,107.34,328,105.52Z"/><path class="cls-103" d="M336.55,131.93a1.62,1.62,0,0,1-2.24-.21C335.19,131.28,335.82,131.1,336.55,131.93Z"/><path class="cls-104" d="M411.88,132.75c1.54-.88,3.2-.34,4.81-.38A15,15,0,0,1,411.88,132.75Z"/><path class="cls-105" d="M404.38,61.07l2,.09v.37h-4.54A3.82,3.82,0,0,1,404.38,61.07Z"/><path class="cls-106" d="M403.05,172v4.84c-.45-.25-.46-.7-.53-1.14l0-2.59c-.19-.52-.5-1.11.5-1.1Z"/><path class="cls-107" d="M395.25,144.54l-1.44-2.47c1-.2,1.5.38,2.06.81C395.18,143.25,395.35,144,395.25,144.54Z"/><path class="cls-108" d="M350.25,163.39a8.49,8.49,0,0,1-.46,3.46c0-1.31,0-2.62,0-3.93,0,0,.18-.08.18-.07C350.07,163,350.16,163.21,350.25,163.39Z"/><path class="cls-109" d="M418,99.42l.58,0c0,1.5,0,3,0,4.52l-.38-.39C417.57,102.17,417.87,100.79,418,99.42Z"/><path class="cls-110" d="M319.82,78c.27.08.41.23.28.52-.52.24-.22,1.13-.91,1.19-.12,0-.35-.29-.38-.48C318.66,78.45,319.06,78.07,319.82,78Z"/><path class="cls-111" d="M418.15,106.86c.12-.12.25-.24.37-.37-.22,1.19.78,2.68-.85,3.54l-.06-.49C418.25,108.74,417.4,107.64,418.15,106.86Z"/><path class="cls-112" d="M349.72,71.22c.55.17,1.25-.2,1.9.77-1,.25-1.63.45-1.91-.76Z"/><path class="cls-113" d="M353,96a.29.29,0,0,1,.35.13c-.1.85-.64,1-1.33.77-.14,0-.2-.34-.3-.51Z"/><path class="cls-114" d="M318.69,75c0,.4,0,.77-.37.84s-.47-.32-.5-.61,0-.68.36-.77S318.58,74.79,318.69,75Z"/><path class="cls-113" d="M320.69,81c-.17.54.27,1.26-.45,1.62-.08,0-.39-.21-.44-.37a.92.92,0,0,1,.88-1.28Z"/><path class="cls-115" d="M344.9,50.91c.22-1.23.92-.95,1.79-.7-.47,1-1.22.52-1.77.71Z"/><path class="cls-110" d="M337.12,60.61a.91.91,0,0,1-.9-1.13c.06-.61.48-.76,1-.79a2.17,2.17,0,0,1-.06,1.94Z"/><path class="cls-116" d="M396.28,135.15c.7-1.34,1.35-1.29,2,.06l0,.06A1.45,1.45,0,0,1,396.28,135.15Z"/><path class="cls-117" d="M320.67,72.16a1.08,1.08,0,0,1-.43.1c-.43-.09-1,.08-1.21-.42,0-.08.17-.43.32-.47C320,71.17,320.56,71.34,320.67,72.16Z"/><path class="cls-118" d="M364.25,184.54c1,.25,1.21.84.69,1.75-1-.27-.45-1.17-.7-1.73Z"/><path class="cls-103" d="M356.58,69.33c.16.1.54.2.61.41.14.44-.3.51-.59.49s-.69-.16-.75-.34C355.7,69.45,356.15,69.45,356.58,69.33Z"/><path class="cls-119" d="M399.19,156.88a1.69,1.69,0,0,1,.17-.29c1.47.64.53,1.92.76,2.89a1.28,1.28,0,0,0-.34-.14C399,158.67,399.8,157.61,399.19,156.88Z"/><path class="cls-120" d="M368.76,70.32a3.65,3.65,0,0,1-2.33.49c-.53.15-1.13.47-1.15-.51Z"/><path class="cls-121" d="M422.42,125.48l0,2.92h-.82a1,1,0,0,1-.1-.41c.62-.65-.17-1.64.57-2.26A2.45,2.45,0,0,1,422.42,125.48Z"/><path class="cls-122" d="M418.7,170a.36.36,0,0,1-.09-.24c.48-.81-.11-1.79.45-2.58C419.59,168.2,420.15,169.23,418.7,170Z"/><path class="cls-74" d="M365.28,70.3c.25.46.71.47,1.15.51a2.73,2.73,0,0,1-2.06.48c-.24.21-.44.18-.58-.11l.49-.89Z"/><path class="cls-74" d="M359.87,68.31c1-1,2.31-.18,3.43-.5C362.28,68.85,361,68.17,359.87,68.31Z"/><path class="cls-123" d="M419.06,167.18c-.11.86.36,1.83-.45,2.58v-3.09Z"/><path class="cls-124" d="M410.4,155.43c0-.55-.09-1.09-.14-1.64a1.58,1.58,0,0,1,.11-.44c.09-.16.34-.44.37,0C410.79,154,411.11,154.82,410.4,155.43Z"/><path class="cls-125" d="M340.58,153.75a2.81,2.81,0,0,1-.48,2c0-.77,0-1.55,0-2.32,0-.37.22-.31.38-.11S340.54,153.6,340.58,153.75Z"/><path class="cls-126" d="M321.72,84.19a3.39,3.39,0,0,1,.39.27,3.21,3.21,0,0,1,0,2.66l-.41.24C321.71,86.3,321.71,85.24,321.72,84.19Z"/><path class="cls-127" d="M353.75,185.11c.53-.86,1.36-.41,2.06-.44.36,0,.24.24,0,.36a1.49,1.49,0,0,1-.44.1Z"/><path class="cls-128" d="M401.08,163.46c-.13-.09-.24-.19-.36-.29a2.1,2.1,0,0,1-.14-2.15C401.76,161.63,400.83,162.67,401.08,163.46Z"/><path class="cls-129" d="M396.28,135.15l2,.12a2.74,2.74,0,0,1-.09.39,3.53,3.53,0,0,1-2.88,0c0-.13-.07-.25-.11-.38Z"/><path class="cls-130" d="M363.79,71.18l.58.11a3.63,3.63,0,0,1-2.34.5l-.64-.52Z"/><path class="cls-71" d="M403.05,172c-.45.24-.45.68-.5,1.1a2.9,2.9,0,0,1-.44-2.08h.95Z"/><path class="cls-131" d="M339.6,159c0,.29-.07.59-.11.88-.56-.62-.51-1.29-.07-2.32C339.51,158.26,339.56,158.64,339.6,159Z"/><path class="cls-132" d="M400.58,161c.05.72.09,1.44.14,2.16-1-.61-.45-1.54-.53-2.34Z"/><path class="cls-133" d="M328.9,114.74c-.85-.66-.35-1.55-.41-2.34A3.66,3.66,0,0,1,328.9,114.74Z"/><path class="cls-134" d="M337.16,60.63c0-.65,0-1.29,0-1.94H338C337.67,59.32,337.78,60.14,337.16,60.63Z"/><path class="cls-135" d="M331.41,105.66c.67.74.4,1.62.36,2.46A3.35,3.35,0,0,1,331.41,105.66Z"/><path class="cls-136" d="M422.37,110.45c-.07.79.46,1.69-.4,2.34A3.35,3.35,0,0,1,422.37,110.45Z"/><path class="cls-74" d="M421,99.34l-.53,0,0-2.48C421.54,97.53,420.76,98.54,421,99.34Z"/><path class="cls-135" d="M331.75,108.1c.91.7.48,1.66.47,2.54A4,4,0,0,1,331.75,108.1Z"/><path class="cls-137" d="M328.5,95.16a20.67,20.67,0,0,1,.09-2.08c0-.29.43-.25.2,0,0,0,.09.12.14.18A2.87,2.87,0,0,1,328.5,95.16Z"/><path class="cls-138" d="M363.31,161.2a27.05,27.05,0,0,1,3.91-13.94c3.91-6.78,13.57-8,17.75-.8a31.74,31.74,0,0,1,4.51,17c-.07,3.47-4.18,7.69-7.87,8.52a21.68,21.68,0,0,1-12.54-1.21A8.51,8.51,0,0,1,363.31,161.2Z"/><path class="cls-139" d="M382.94,107c2.36.13,5.38,3.41,5.64,6.13.43,4.5-2.29,8.57-7.51,11.23-6.8,3.47-16.84-.45-19.49-7.61-1.41-3.81.82-8.71,5-11.09a38,38,0,0,0,6.53,7,5.44,5.44,0,0,1,1.12,5.32,2.5,2.5,0,0,1-2.66,1.26c-1.69-.07-3.35-.46-4.81-.62,3.3,1,6.86.78,10.42.26a3.69,3.69,0,0,1,2.77.4c2.32,1.47,3.11,1.15,4-1.51a2.7,2.7,0,0,0,0-1.87,14.5,14.5,0,0,1-6.34,2.69c-1.17.19-2.44.23-2.93-1s-.8-3,.51-3.78C378.26,112,380.43,109.36,382.94,107Z"/><path class="cls-140" d="M382.94,107a12.58,12.58,0,0,1-6.3,6.35c-2.22,1.05-1.47,2.77-1.39,4.32.05,1,1,.66,1.56.5,2.31-.71,5-.52,6.61-2.91.63-.94,1.25-.41,1.54.42.36,1-1.31,5.11-2.27,5.65-1.13.64-1.95-.14-2.45-.89-.77-1.16-1.54-1.14-2.81-.92a24.78,24.78,0,0,1-10.77-.24,2.88,2.88,0,0,1-2.24-1.54c2.4.31,4.59.67,6.8.83.85.06,2.4.56,2.48-.57.12-1.51,1.09-3.39-.71-4.64-2.08-1.44-3.63-3.42-5.46-5.11a2.83,2.83,0,0,1-.92-2.59c4.73-2.36,9.6-1.74,14.48-.67A2.81,2.81,0,0,1,382.94,107Z"/><path class="cls-141" d="M350.16,98.41c-.17-1.63.66-2.88,1.54-4.12,1.75-2.46,4.49-2.27,5.91.44a9,9,0,0,1,.76,5.64c-.2.43-.14,1-.78,1.16-.93,1.23-.43,2.42.07,3.62a1,1,0,0,1-.1.64,2.86,2.86,0,0,1-3.15,2.34c-1.92-.13-2.82-1.61-3.61-3.09a10.75,10.75,0,0,1-.62-2.31A11.62,11.62,0,0,1,350.16,98.41Z"/><path class="cls-74" d="M390.4,95.33c.46-2,1.71-3.14,3.72-3s2.19,1.89,2.56,3.36a13.53,13.53,0,0,1-.72,9.64c-.68,1.39-1.27,2.86-3,2.56a3.14,3.14,0,0,1-2.6-3.55,1.4,1.4,0,0,1-.2-1.09,8.93,8.93,0,0,0,0-6.81A1.41,1.41,0,0,1,390.4,95.33Z"/><path class="cls-142" d="M393,69.28l.84.16a1.34,1.34,0,0,1,.87,1,2.64,2.64,0,0,1,0,1c-.06.87-.76,1-1.4,1.24l-2.93-.52c-1.39-.94-3-.39-4.53-.8l-3.16-.12a.35.35,0,0,1,0-.59c1.76-.87,3.79-.7,5.57-1.46a1.21,1.21,0,0,1,.75-.09C390.42,69.22,391.75,68.86,393,69.28Z"/><path class="cls-78" d="M351.72,156.06c0-1,0-2,0-3,0-.7-.12-1.29-1-1.37-.62-.46-.31-1.37-.88-1.85l-.13-.13a12.52,12.52,0,0,1,2.5-5.28c1.91.91.74,2.59,1,3.92A26.83,26.83,0,0,1,351.72,156.06Z"/><path class="cls-143" d="M389.72,88.74c-.36-.16-.8-.22-.88-.42s-.2-1,0-1.11a13.28,13.28,0,0,1,4.47-2.44c1.09-.23,1.44.51.61,1.19A48.12,48.12,0,0,1,389.72,88.74Z"/><path class="cls-144" d="M353.17,148.33c-1-1.14,0-2.78-1-3.92,1.67-2.81,1.75-2.88,4-3.76a14.9,14.9,0,0,0-1.69,4.23c-.78.67-.53,1.7-.88,2.52C353.7,147.82,353.62,148.17,353.17,148.33Z"/><path class="cls-145" d="M389.5,104.18c-.15.4-.69,1.14-.76.49a26.84,26.84,0,0,1,.13-8.94c0-.12.41-.16.63-.24A12.72,12.72,0,0,1,389.5,104.18Z"/><path class="cls-146" d="M354.58,84.78c.65.29,1.31.56,1.95.88s1.71.64,1.11,1.69c-.45.8-1.29.48-1.93.13a7.31,7.31,0,0,1-2.59-1.69A3.19,3.19,0,0,1,354.58,84.78Z"/><path class="cls-147" d="M388.52,69.32c-.1,1-.83.91-1.55,1-1.46.14-2.92.36-4.37.55a7.43,7.43,0,0,1-4-.13l-.42-.39,3.84,0c.73,0,1.5.06,1.62-1A5.68,5.68,0,0,1,388.52,69.32Z"/><path class="cls-148" d="M393.39,72.64c.32-.46,1-.64.94-1.38.4-.47,1-.57,1.5-.86a2.47,2.47,0,0,1,.53-.22l.91.21a1.86,1.86,0,0,1,.38.93,1.31,1.31,0,0,1-.41.91h0c-.52.59-1.46.42-2,1Z"/><path class="cls-149" d="M390.53,103.23l-.13,1.09c-.12-.07-.24-.14-.37-.2a26.85,26.85,0,0,1,0-8.58,3.72,3.72,0,0,0,.39-.21c0,.37.07.75.1,1.12A11.77,11.77,0,0,1,390.53,103.23Z"/><path class="cls-150" d="M390,95.54c0,2.86,0,5.72,0,8.59l-.53.05V95.49Z"/><path class="cls-151" d="M354.58,84.78c0,1.07-.76,1-1.46,1-.52-.24-1.1-.76-.75-1.19C353,83.8,353.87,84.26,354.58,84.78Z"/><path class="cls-152" d="M385.93,71.32c1.51.28,3.28-.92,4.53.8A15.92,15.92,0,0,1,385.93,71.32Z"/><path class="cls-153" d="M418,99.42c0,1.37.1,2.73.16,4.09-.05.37-.09.73-.14,1.1h-.37V99.3A2.06,2.06,0,0,0,418,99.42Z"/><path class="cls-154" d="M357.51,101.3l.86-.93c0,.43,0,.87.07,1.3-.55,1.11.11,2.36-.41,3.46-.16.22-.31.44-.47.65-.05-.21-.09-.42-.14-.63A4,4,0,0,1,357.51,101.3Z"/><path class="cls-155" d="M378.63,70.72l4,.13c.06.12.12.23.17.35h-4.25s-.13-.12-.11-.14A2.37,2.37,0,0,1,378.63,70.72Z"/><path class="cls-156" d="M350.16,98.41c0,1.44,0,2.88,0,4.32A4.8,4.8,0,0,1,350.16,98.41Z"/><path class="cls-157" d="M395.27,73.27c.14-1.33,1.17-1,2-1,.08,1-1.06.81-1.45,1.37C395.5,73.68,395.35,73.53,395.27,73.27Z"/><path class="cls-158" d="M418.15,106.86c-.06.92.24,1.91-.54,2.68a8.09,8.09,0,0,1,.21-2.9.31.31,0,0,1,.19,0C418.07,106.72,418.1,106.8,418.15,106.86Z"/><path class="cls-159" d="M358,105.13c0-1.16-.22-2.36.41-3.46C358.33,102.83,358.87,104.06,358,105.13Z"/><path class="cls-160" d="M353.66,147.4c.15-.89-.62-2.1.88-2.52Z"/><path class="cls-161" d="M395.31,135.66h2.88A2.07,2.07,0,0,1,395.31,135.66Z"/><path class="cls-162" d="M350.77,160.45l0-2.94c1,0,.7.52.49,1.05C351.21,159.22,351.34,159.92,350.77,160.45Z"/><path class="cls-78" d="M351.22,158.56c0-.41-.05-.83-.49-1.05a.87.87,0,0,1,.92-1A2.75,2.75,0,0,1,351.22,158.56Z"/><path class="cls-163" d="M399.19,156.88c.61.72.46,1.63.59,2.47C398.73,158.73,399.35,157.71,399.19,156.88Z"/><path class="cls-164" d="M365.33,66.45c-.36-.09-.87-.06-.79-.59,0-.17.47-.28.72-.41a3.24,3.24,0,0,1,2.31-.48c3.63,0,7.25,0,10.88,0a3.24,3.24,0,0,1,2.31.48c.25.14.73.35.71.41-.3,1-1.14.38-1.73.58-1.06.77-2.28.34-3.43.46h-6.63C368.23,66.74,366.71,67.29,365.33,66.45Z"/><path class="cls-165" d="M380.76,65.45h-15.5c.09-.85.67-1,1.38-1h12.75C380.09,64.48,380.67,64.6,380.76,65.45Z"/><path class="cls-166" d="M380.21,67.37l-15.12,0,.41-.39c1.37-.6,2.82-.16,4.23-.29h6.51c1.12.12,2.29-.3,3.39.26Z"/><path class="cls-167" d="M388.52,69.32h-4.85c.92-1.93,2.69-.5,4-1l.85.1a.57.57,0,0,1,0,.91Z"/><path class="cls-168" d="M330.22,129.91c-2-.06-3.93.19-5.82-.5,2.11,0,4.23,0,6.34,0a.31.31,0,0,1,0,.19C330.6,129.73,330.41,129.82,330.22,129.91Z"/><path class="cls-169" d="M328,98.49q0,3.3,0,6.61A9.4,9.4,0,0,1,328,98.49Z"/><path class="cls-147" d="M388.51,69.32c0-.3,0-.61,0-.91,1.39.93,3.18-.2,4.55.87Z"/><path class="cls-170" d="M369.59,66.82l-4.1.14c-.05-.17-.11-.34-.16-.51l4.31,0c.15.1.19.18.13.26A.26.26,0,0,1,369.59,66.82Z"/><path class="cls-103" d="M419.58,93c-.1.44.06,1-.41,1.26-.08.05-.45-.15-.49-.3-.2-.7-.05-1.24.82-1.3A.38.38,0,0,1,419.58,93Z"/><path class="cls-171" d="M322.11,87.12V84.45c1,.82.39,1.84.36,2.79,0,0-.13.06-.19,0A.83.83,0,0,1,322.11,87.12Z"/><path class="cls-172" d="M379.63,66.93l-3.21-.1c-.16-.06-.22-.12-.18-.21s.09-.13.13-.13l3.37,0C379.7,66.6,379.67,66.77,379.63,66.93Z"/><path class="cls-173" d="M394.35,70.27c-.16-.28-.32-.55-.47-.83a5.9,5.9,0,0,1,2.48.74.86.86,0,0,1-.11.24A1.47,1.47,0,0,1,394.35,70.27Z"/><path class="cls-174" d="M397.26,71.21c0-.27,0-.55,0-.82l2,.82-.08.2A1.45,1.45,0,0,1,397.26,71.21Z"/><path class="cls-175" d="M422,125.72c-.08.78,0,1.61-.57,2.26C421.62,127.21,421.07,126.28,422,125.72Z"/><path class="cls-176" d="M418.56,95.48c-.17.67.48,1.74-.89,1.84C417.67,96.56,417.31,95.63,418.56,95.48Z"/><path class="cls-177" d="M397.26,71.21l1.89.2c-.24,1.2-1.21.69-1.91.82C397.25,71.89,397.25,71.55,397.26,71.21Z"/><path class="cls-178" d="M349.83,149.82c1.34.12.73,1.17.88,1.85h-.94Z"/><path class="cls-179" d="M357.51,101.3l-.09,3.85c-1.67-1.29-.86-3-.53-4.46C357,100.31,357.38,101,357.51,101.3Z"/><path class="cls-180" d="M390.53,103.23l0-6.78C391.82,97.77,391.84,101.84,390.53,103.23Z"/><path class="cls-177" d="M394.35,70.27l1.9.15c-.22,1.22-1.21.71-1.92.84Z"/><path class="cls-181" d="M376.37,66.49c0,.11,0,.23.05.34h-6.83c0-.11,0-.23.05-.35Z"/><path class="cls-54" d="M14,132.24c1.52-2.82,4.12-3.37,7-3.18,1.89.12,2.53-.37,2.65-2.45.49-8.48,4.59-14.77,12.23-18.57,1.75-.87,2.31-1.56,1.65-3.65-1.42-4.52,1.2-7.26,5.88-6.27,1.36.28,1.1-.64,1.32-1.1,1-2.13,2.34-3.84,4.82-4.34,3.54-.7,6.28,1.3,6.58,4.91.08,1,0,2.06,0,3.15a5.28,5.28,0,0,0,.86-.14c1.93-.74,4-1.48,5.56.41a5,5,0,0,1,.16,5.93c-.95,1.61-.5,2.25.68,3.3,7,6.23,10.46,14.27,11.52,23.46a6.93,6.93,0,0,0,.13,3.83c.11,6,2.67,11.53,3.28,17.45.62,6.15-1.22,11.6-4.32,16.76a5.6,5.6,0,0,0-.82,1.46c-1.52,7-7.59,8.88-13.67,4.9-.65,2.14-.23,4.34-.56,6.45-.46,1,.06,2.07-.36,3.06s-.7,1.85-2,1.8c-.34.25-.57,0-.81-.18-.32-.54-.91-.83-1.29-1.32.09-1.07,1-1.32,1.74-1.65a2.34,2.34,0,0,0,.86-.27,15.4,15.4,0,0,0-.18-7.3c-.61-1-1.3-.54-2-.11-1.33.67-3.3,0-4.06,1.86-.63,2.22-1.58,1.42-2.58.29-.58-.54-1.12-.73-1.55.17a1.57,1.57,0,0,1-.44.45,1.18,1.18,0,0,1-.92,0,8.55,8.55,0,0,1-1.14-1,3.46,3.46,0,0,0-.89-.77c-1-.37-2-.1-3-.36-1.18-.27-1,.58-1.08,1.28a6.93,6.93,0,0,1-.18,2.08,1.24,1.24,0,0,1-.69.76,1.27,1.27,0,0,1-.67,0c-1-.56,0-1.95-1.06-2.48-.31-2.57-2-3.38-4.33-4.22-6.94-2.55-11.64-7.29-12.6-15-.15-1.14-.81-1.14-1.63-1.32a22.41,22.41,0,0,1-7.63-2.82A11.35,11.35,0,0,1,7,154.12c-1.44-2.24-1.85-4.61-.49-7s3.63-2.25,5.75-2c3.85.43,7.65.87,11.35-.72q2.65-1.46,3.05,1.54a10,10,0,0,1-1.62,5.49c-5,8.83-1.7,18.33,7.69,22.06,6.89,2.74,14,2.54,21.24,1.82,1.85-.18,1.77-.86,1.1-2.31a30.75,30.75,0,0,1-3-13.83c0-.33,0-.65,0-1,.18-1.27.16-2.92,1.89-2.87,1.56,0,1.19,1.64,1.32,2.7.43,3.6.51,7.25,1.93,10.68a15.69,15.69,0,0,0,4.59,6.72c3.45,2.7,7,1.54,7.79-2.76a41.93,41.93,0,0,0,.13-12.05,23.68,23.68,0,0,1-.15-4.83c.11-1,.5-2,1.72-2s1.5.93,1.64,1.8q.52,3.34.77,6.73a7.6,7.6,0,0,0,.26,2.56c2.31-6.85,1.63-13.51-1.24-20a14.23,14.23,0,0,1-.8-6.42,33.92,33.92,0,0,0-6.64-21.36c-4.6-6.36-10.79-9.59-19-8.59-6.14.76-11.38,2.83-15.46,7.58a19.73,19.73,0,0,0-4.33,10.51c.1.36.45.08.13.15-.05,0-.07-.07-.07-.23a7,7,0,0,1,4.31-6.68,6.55,6.55,0,0,1,7.69,2.56c.85,1.15,1.7,1.22,3,1.24,2.87,0,5-.52,7.14-2.88,2.81-3.1,8.63-2.2,11.52,1.07a8.47,8.47,0,0,1-.73,11.41,2.74,2.74,0,0,0-1.22,1.93c-.33,3.82-1.63,5.16-5.43,5.94a3.5,3.5,0,0,1-1.5-.27c-.66-.53-1.59-.68-2.1-1.45.45-1.22,1.75-1,2.59-1.5s2.55-.72,2.51-2.25-1.49-1.9-2.74-2.25l-.93-.25a6,6,0,0,1-4.27-3.55c-1.59-3.47-4.24-3.94-6.39-.89s-4.75,4-8.25,3.76-6.92.18-10.36-.41c-1.64-.29-3.16.44-4.66,1.05a3.6,3.6,0,0,1-1.08.18,2.7,2.7,0,0,1-1-.18A1.16,1.16,0,0,1,14,132.24Z"/><path class="cls-182" d="M44.51,180.18a.9.9,0,0,1,.93,1c.93,1.11.47,2.44.61,3.68.08.72-.34,1.7.9,1.88,2.25.88,4.7.19,7,.86.53.75,1.5.77,2.16,1.3l.54.52c-.12.47-.46.57-.89.51a5.82,5.82,0,0,1-2.12.19c-1.32-.4-2.62-1.13-4-.23a1,1,0,0,1-.31.44,5.18,5.18,0,0,1-4.44-1.38c-.63-.69-1.3-.34-2-.3-2.05.11-4.13.67-6.17-.19a.53.53,0,0,1,0-.64c1.56-.77,3.24-.11,4.58-.37-1.36-.21-3.05.4-4.64-.38a1,1,0,0,1,0-1.05c1.48-.58,3-.09,4.5-.19,2.64-.17,3.21-.75,3.06-3.39C44.11,181.65,43.79,180.84,44.51,180.18Z"/><path class="cls-183" d="M15.37,132.72l.93,0c-.15,3.27,1.77,4.85,4.62,5.71a2.13,2.13,0,0,1,1.46,1.13,1.1,1.1,0,0,1-.26,1c-1.05.83-2.25-.09-3.34.27-2.34-.93-4.7-1.86-5.29-4.75.3-.24.71-.2,1-.43C15.05,134.76,14.5,133.53,15.37,132.72Z"/><path class="cls-184" d="M36.69,186l0,.94a.64.64,0,0,1,0,.95l0,.53c-3-.6-3.92-2.85-1.94-5.12.58-.65,1.28-1.19,1.92-1.79.63.33.44,1.18,1,1.55l.69.09C38.1,184.3,37,184.94,36.69,186Z"/><path class="cls-185" d="M18.78,140.85c1-.76,2.26-.23,3.38-.39l.36.07c1.76.68,3.77-.29,5.46.83a1.09,1.09,0,0,1,.16,1.06c-1.41,1-.37,3.17-2,4,.19-1.91-.89-2.32-2.5-2.09l.52-1c.48-.36.37-.67-.07-1Z"/><path class="cls-186" d="M14.4,136.58l-.91-.48a4.61,4.61,0,0,1,.51-3.86l.41.48A3.76,3.76,0,0,1,14.4,136.58Z"/><path class="cls-187" d="M37.67,183.09c-1-.06-1-.85-1-1.55l0-.77c.41-.5.83-.57,1,.16A15.49,15.49,0,0,1,37.67,183.09Z"/><path class="cls-54" d="M24.07,142.41c.57.1,1.27-.29,1.72.44-.36.82-1.09.39-1.65.52Z"/><path class="cls-188" d="M75,137.53a3.71,3.71,0,0,1-.13-3.83Z"/><path class="cls-189" d="M49.3,190.32v-.45c1-.77,2.09-.51,3.18-.27a.47.47,0,0,1,.2.69A8.94,8.94,0,0,1,49.3,190.32Z"/><path class="cls-190" d="M58.57,187.61c0-1-.42-2.12.36-3.06C59,185.59,59.3,186.66,58.57,187.61Z"/><path class="cls-57" d="M26.12,146.43a3.37,3.37,0,0,0,.36-2.69c-.15-1.31.55-1.4,1.49-1.36a1.64,1.64,0,0,1,1.21-.33,65,65,0,0,0,11.75-.11c2.14-.2,4.3-.37,6.43-.69a5.89,5.89,0,0,0,1.5-.25c1.32-.36,2.71-.09,4-.46,4-1.17,4.85-2.28,4.59-6.25-.06-.9.48-.84.87-1.1a7.27,7.27,0,0,0,3-8,7.66,7.66,0,0,0-6.28-5.6c-4-.43-6.15.67-8.11,4.47-.42.82-.76.59-1.25.4a6.4,6.4,0,0,0-5.6.2c-1.11.61-1.14-.07-1.45-.78-1.35-3.09-3.47-4.31-6.45-3.8A6.52,6.52,0,0,0,27,126a13.14,13.14,0,0,1-.39,3.32,7.63,7.63,0,0,1-.35-5.09c1.62-8.65,9-14.71,18.14-16.28,11.44-2,20,4.39,24.32,13.59,2.53,5.43,4.11,11,3.76,17A17.34,17.34,0,0,0,73.91,146c2.26,5.76,2.92,11.7,1,17.73a6.31,6.31,0,0,1-1.55,2.6c-.26-2.74-.52-5.49-.77-8.23a11.25,11.25,0,0,0-.14-1.93c-.22-.86,0-2.27-1.39-2.15s-.93,1.47-.9,2.36c.15,4.59.71,9.17.4,13.78-.28,4.29-1.45,6.52-4,7.24s-6-1.24-7.91-4.43a27.35,27.35,0,0,1-3.89-14.51,11.69,11.69,0,0,0,0-1.45c-.07-.6.06-1.45-.83-1.5s-1.17.78-1.22,1.5a28,28,0,0,0,.62,8.89A28.76,28.76,0,0,0,57,175.17c-5.7,1.74-11.36,1.33-17,.72-5-.55-9.65-1.87-13.37-5.46a15.55,15.55,0,0,1-2.27-19.1A9,9,0,0,0,26.12,146.43Z"/><path class="cls-191" d="M22.16,139.51c-1.37-.65-2.89-.89-4.22-1.74-2-1.31-2.77-2.83-1.64-5.07A7.41,7.41,0,0,1,22,131.41a106.58,106.58,0,0,0,11.58.36,5.81,5.81,0,0,0,5.56-3.09,5.68,5.68,0,0,1,1.94-2.1c2-1.26,4.51-.81,5.21,1.41,1.07,3.38,3.47,4.66,6.52,5,1.79.23,2.25,1.39,2.47,2.63s-1,1.5-1.86,2.11c-1.31.94-2.9.88-4.19,1.67l-.23.28a3.66,3.66,0,0,1-1.75.37c-.36,0-.72,0-1.07,0-1.4.11-2.83-.29-4.18.37a3,3,0,0,1-.66.36,4.15,4.15,0,0,1-1.15.25c-1.36.08-2.73,0-4.09,0H31.51c-1.11,0-2.21.05-3.31-.09-.53-.11-1.07-.09-1.61-.16C25.1,140.47,23.46,140.55,22.16,139.51Z"/><path class="cls-139" d="M13.4,147.8c3.19.93,6.36-.34,9.83-.08-1.24,3.05-3.08,5.84-3.47,9.12-.09.71-.65.64-1.1.57-3.52-.59-7-1.33-9.12-4.64-1-1.64-1.61-3.38,0-5.05A5.79,5.79,0,0,1,13.4,147.8Z"/><path class="cls-192" d="M54.17,188c-2.61-.11-5.36.76-7.74-1a.91.91,0,0,1-.23-1c.43-.94,1.39-1.21,2.19-1.7,1.55-.93,2.43-2.2,1.9-4.11,0-.73-.07-1.4,1-1.46,1.27-.07,2.53-.31,3.79-.47.93-.51,1.77-.17,1.87.73.27,2.49.92,5.05-.46,7.45l-2,1.53C54.43,188.09,54.31,188.1,54.17,188Z"/><path class="cls-192" d="M36.69,186c-.79-1.74,1.14-1.89,1.67-2.85l.31-.54a3.53,3.53,0,0,0,0-2.52c-.05-1.15-.26-2.48,1.62-1.41,1.09.76,2.46-.24,3.55.55l.64.92C45.15,186.44,43.11,188,36.69,186Z"/><path class="cls-193" d="M59.52,125.91c0,.32.09.75-.07.94-1.55,1.81-3.9,2.36-5.85,3.56-1,.59-2.22-.43-3.25-1-.81-.41-.72-.92.1-1.35,2.25-1.2,4.51-2.39,6.72-3.67C59,123.36,59.4,124.35,59.52,125.91Z"/><path class="cls-194" d="M37.37,125.48a4.89,4.89,0,0,1-.85.73c-2.1,1-4.2,2-6.32,3-.4.18-1,.49-1.25-.1s-.46-1.29.27-1.72a63.92,63.92,0,0,1,6.27-3.57C36.92,123.14,36.41,125.06,37.37,125.48Z"/><path class="cls-195" d="M50.29,180.11c1,3,.66,3.65-2.23,4.95a13.7,13.7,0,0,0-1.63,1,5.65,5.65,0,0,1-.08-4.87l.07-.06c1.24.9,1.42-.32,1.91-.95a3.49,3.49,0,0,1,.82.41c.26.24.16.94.71.77S50.19,180.55,50.29,180.11Z"/><path class="cls-196" d="M57.07,178.27c.42,0,.87.2.88.64,0,2.46,0,4.92,0,7.38,0,.44-.46.6-.87.67A30.12,30.12,0,0,1,57.07,178.27Z"/><path class="cls-197" d="M46.35,181.19c0,1.62.06,3.24.08,4.87v.84c-.15.25-.28.7-.46.72-.54.06-.53-.44-.54-.81,0-1.88,0-3.76,0-5.64Z"/><path class="cls-198" d="M57.07,178.27c0,2.89,0,5.79,0,8.69l-.57-.6a44.18,44.18,0,0,0,.08-6.51c-.12-1-.28-1.74-1.49-1.67C55.82,176.86,56.48,176.88,57.07,178.27Z"/><path class="cls-199" d="M48.33,180.18a1.94,1.94,0,0,0,0,.24c0,.82.49,2-.52,2.32-1.34.47-.42-1.46-1.37-1.61.3-.64-.47-1.65.58-2C47.83,178.86,48,179.73,48.33,180.18Z"/><path class="cls-200" d="M14.4,136.58v-3.86h1C15,134,16.35,135.7,14.4,136.58Z"/><path class="cls-201" d="M52.89,140.54a8.83,8.83,0,0,1-3.94,1c-.44.17-.71,0-.76-.45-.07-.68.41-.87.94-1a2.61,2.61,0,0,1,2.1.42Z"/><path class="cls-98" d="M43.69,177.78c-1.3.53-2.07.62-3.09,0C41.61,177.08,42.38,177.18,43.69,177.78Z"/><path class="cls-202" d="M43.87,179.26l-3.56-.11c-.06,0-.17-.09-.16-.1a2.16,2.16,0,0,1,.17-.34C41.52,178.82,42.79,178.41,43.87,179.26Z"/><path class="cls-203" d="M51.23,140.46H49.29a.75.75,0,0,1,0-1h0C50,139.71,51.1,139.08,51.23,140.46Z"/><path class="cls-204" d="M13.4,147.8l-3.83-.08A3.39,3.39,0,0,1,13.4,147.8Z"/><path class="cls-205" d="M57,135.53c0,.32,0,.69-.38.77s-.51-.33-.48-.62.17-.69.35-.74C57,134.8,56.94,135.25,57,135.53Z"/><path class="cls-206" d="M54.17,188a.35.35,0,0,1,.34-.06c.67.1,1.51-.06,1.57,1C55.34,188.79,54.31,189.27,54.17,188Z"/><path class="cls-207" d="M38.7,180.12a2.09,2.09,0,0,1,0,2.52Z"/><path class="cls-208" d="M36.71,187.92V187h7.42v.95Z"/><path class="cls-209" d="M53.17,189.86H49.3c-.33-.11-.94-.52-.63-.59C50.19,189,51.9,188,53.17,189.86Z"/><path class="cls-185" d="M22.16,139.51a18.2,18.2,0,0,1,4.51.88,4.59,4.59,0,0,1-4.51.07h0Z"/><path class="cls-210" d="M22.16,140.46l4.51-.07,1.3.09a.61.61,0,0,1,.2.74l-.19.21H23.73C23,141.43,22.27,141.45,22.16,140.46Z"/><path class="cls-210" d="M28.75,142.46l-.78-.08c0-.31,0-.63,0-.95h0a6.45,6.45,0,0,1,4.81-.15.92.92,0,0,1,0,1.24A11.91,11.91,0,0,1,28.75,142.46Z"/><path class="cls-211" d="M32.83,141.46l-4.85,0c0-.32,0-.63,0-1l3.44.12a23,23,0,0,0,4.77,0l4.4-.15c.68.76,1.54.25,2.31.33,1.15,0,2.29,0,3.43,0,.63.14,1.42.05,1.51,1a33.74,33.74,0,0,1-6.58.64,6.28,6.28,0,0,1-2.48.14,7,7,0,0,0-3.47-.5A3.57,3.57,0,0,1,32.83,141.46Z"/><path class="cls-212" d="M38.64,142.38l2.61.07a42.24,42.24,0,0,1-12.5,0l4-.11A8.56,8.56,0,0,1,38.64,142.38Z"/><path class="cls-213" d="M47.83,141.81c-.39-.47-.95-.36-1.46-.4a.79.79,0,0,1-.2-.85c.22-.52.81-.6,1.18-.94l1.91-.18,0,1c-.73.14-1.22.36-.34,1Z"/><path class="cls-214" d="M47.35,139.62c0,.65-.44.8-1,.86-1.2.8-2.54.35-3.82.44a1.39,1.39,0,0,1-1.15-.53,3.53,3.53,0,0,0,.21-.32c1.58-.81,3.34.09,4.93-.54Z"/><path class="cls-215" d="M46.56,139.53c-1.59.68-3.27.46-4.93.54C43.16,138.88,44.92,139.73,46.56,139.53Z"/><path class="cls-212" d="M36.18,140.62a7.29,7.29,0,0,1-4.77,0Z"/><path class="cls-216" d="M41.42,140.39l1.16.19a.57.57,0,0,1,0,.83c-.76-.08-1.78.37-2-.94Z"/><path class="cls-217" d="M38.64,142.38l-5.84,0,0-.89,4.22,0C37.77,141.43,38.51,141.39,38.64,142.38Z"/><path class="cls-218" d="M42.53,141.41c0-.27,0-.55,0-.83l3.81-.1c0,.31,0,.62,0,.93Z"/><path class="cls-54" d="M195,190.08a18.32,18.32,0,0,1-9.74-2.65c-1-.68-1.82-1.1-2.1.69a2.29,2.29,0,0,1-2.14,1.82,26.1,26.1,0,0,1-9.2.2c-2.17-.4-2.54-2.16-2.54-3.8,0-2-.78-2.58-2.59-2.27a1.41,1.41,0,0,1-.2,0c-3.88-.24-3.92-.25-4.92,3.57a2.33,2.33,0,0,1-2.21,2,55.46,55.46,0,0,1-5.62-.06,2.29,2.29,0,0,1-2.32-2.31c-.3-3.18-2.1-5-4.93-6.43a10.87,10.87,0,0,1-6-8.94,21,21,0,0,1,3.35-13.77c1.14-1.83.89-2.6-1-3.56-6.4-3.24-10.06-12.71-7.5-19.41,1.5-3.9,4.11-5.83,8.19-5.83,1.06,0,1.14-.39,1.24-1.25a20.92,20.92,0,0,1,3.55-9.7A12.22,12.22,0,0,1,165.66,115a2.26,2.26,0,0,0,2.93.09c6.43-3.84,16.24-1.15,20.27,5.56,3.08,5.12,5.06,10.62,4.85,16.72a98.89,98.89,0,0,0,0,10c-.16,2.74-.23,5.49-.51,8.21a4.19,4.19,0,0,0,1.2,3.63c2.73,2.88,2.75,3.33.71,6.54a1.82,1.82,0,0,0,.29.27c4.45,2.2,5.22,2.26,2.32,7.23-.46.78-.27,1.1.37,1.6,2.53,2,2.64,2.1,1.33,4.77-.8,1.62-.24,2.29,1.18,2.8s2.76,1,4.11,1.56a2.57,2.57,0,0,1,1.78,2.45,2.88,2.88,0,0,1-1.83,2.66c-1.4.64-2.79,1.33-4.41,1A17.24,17.24,0,0,0,195,190.08Z"/><path class="cls-219" d="M193.72,147.4a35.18,35.18,0,0,1,0-10A67.29,67.29,0,0,1,193.72,147.4Z"/><path class="cls-220" d="M156,157H162a1.23,1.23,0,0,1,.56-.33,11.3,11.3,0,0,1,2.25-.14c4.2-.6,8.57-.15,13.08-1.88-1.39-.82-2.35-.16-3.27-.26a4.39,4.39,0,0,0-2.09.3c-1.31.63-2.77.37-4.12.71a3,3,0,0,1-1,0c-2.7-.35-5.42,0-8.12-.17-.84-.1-1.63-.38-2.46-.48l-2.2-.42c-.05-.14-.1-.29-.14-.43-1.15-.67-2.31-.35-3.47-.07l-.24.1c-5-.48-9.34-2.16-12.24-6.47-.84-1.25-1.94-2.77.14-4a10.6,10.6,0,0,0,4.82,0,12,12,0,0,1,1.47,1c4,3.54,5.32,3.62,9.82.57,1.64-1,2.72-.95,4.15.74a7.78,7.78,0,0,0,4.42,2.59,5.63,5.63,0,0,0,5.19-1.5c.57-.52,1.12-1.16.57-2.13-1.12.52-1.24,2-2.5,2.24a1.39,1.39,0,0,1-.53-.1,1.75,1.75,0,0,0-2.37,0,1.93,1.93,0,0,1-.53.17,2.81,2.81,0,0,1-2.37-1.12,9.25,9.25,0,0,0-2.72-2.18,3.7,3.7,0,0,1-.47-.29,5.67,5.67,0,0,0-3.57-.16c-3.13,2.54-5.68,1.95-8.38-1a6,6,0,0,0-7-1.55c-2.15,1-2.37.07-2.38-1.62.37-.66-.09-1.47.36-2.13a17.17,17.17,0,0,1,2.34-3.92,5.06,5.06,0,0,1,5.79-1.53c2.4.91,2.57.81,2.76-1.67,0-.4,0-.82.31-1.13a.8.8,0,0,1,.46,0,.68.68,0,0,0,.8-.17,2.29,2.29,0,0,0-.07-2.58c-.29-.32-.35-.78-.7-1.06.85-4.18,3.06-7.39,7.13-8.86a9.94,9.94,0,0,1,11,3.5c.66.84.93.88,1.71.09a9.23,9.23,0,0,1,7.2-2.9c8.67.42,11,3.26,14.08,12.12,2.28,6.57,1.67,13.37,1.61,20.12,0,.54,0,1.08,0,1.61a.24.24,0,0,1-.33.22c-.2-.1-.36-.29-.62-.21-.19,3.05.07,6.08-.19,9.11a1.53,1.53,0,0,0,.41,1.46c0,.92,0,1.83,0,2.75a.67.67,0,0,1,.09.53,5.23,5.23,0,0,0-.11,4.16,4.43,4.43,0,0,1,.42.29,2.5,2.5,0,0,1,.34.39,21.49,21.49,0,0,0,5.7,13.47,8.1,8.1,0,0,0,4.64,2.56,5,5,0,0,1,2.52,1.15c-.94,1.33-2.52.63-3.65,1.23q-.12.29-.3,0c-3.92.31-7.77.1-11.39-1.6-1.86-.87-3.76-1.73-4.52-3.91a1.2,1.2,0,0,0-1.2-.9,1.47,1.47,0,0,0-1.32,1.07,3.63,3.63,0,0,0-.11.59c-.42,1.49,0,3.55-1.64,4.26a9.59,9.59,0,0,1-7.24.47c-.8-.61-.13-1.66-.71-2.33a5.66,5.66,0,0,1,.08-2.59c.61-1.61-.28-2-1.56-1.85-4.08.56-8.17.3-12.25.36-.73-.48-1.66.15-2.37-.42a20.31,20.31,0,0,1-8.09-2.91,10,10,0,0,1-4.19-6.3,2.68,2.68,0,0,1,.07-.27,4.35,4.35,0,0,0-.19-3.76.77.77,0,0,1,.1-.53c.59-3.26,2.05-6.13,3.48-9.12,1.2-2.53,2.62-1.47,4.11-1.6a1.2,1.2,0,0,1,.65.31,4.13,4.13,0,0,1,.17.45c1.12.69,2.13.24,3.14-.28A1.24,1.24,0,0,1,156,157Z"/><path class="cls-221" d="M166.46,146.66a2.46,2.46,0,0,0,1.45-1.82c.19-.65.33-1.23,1.14-1s1,1,.8,1.77A4.24,4.24,0,0,1,168,147.9a6.93,6.93,0,0,1-8.88-1.31c-1.18-1.52-2.49-2.29-4.41-1.62v-.79c.7-.64,1.72-.46,2.45-1a1,1,0,0,1,.87.17c1.45.07,2,1.34,3,2.14.64.57,1.16,1.28,2.15,1.18A19.37,19.37,0,0,1,166.46,146.66Z"/><path class="cls-222" d="M174.49,153.9c.52-.09,1-.16,1.57-.27.87-.18,2-.45,2.27.57.34,1.27-1,1.42-1.84,1.61a33.46,33.46,0,0,1-4.56.69c-2.39.2-4.79.29-7.19.42a9.56,9.56,0,0,0-2.33,0L162,157c-.51-.67-1.52,0-2-.73,1.76-1.1,3.71-.33,5.55-.56a25.59,25.59,0,0,1,2.76.12,9.31,9.31,0,0,0,1.18,0,1.73,1.73,0,0,1-1-.31.45.45,0,0,1,0-.53c1.29-.79,2.85-.16,4.18-.77C173.14,153.8,173.9,154.32,174.49,153.9Z"/><path class="cls-223" d="M154,186.91l-.11-1.16c-.11-2.45.59-2.9,3.34-2.13h2.57a2.87,2.87,0,0,1-.56,1.86c-.6.4,0,1.27-.62,1.64a4.64,4.64,0,0,1-2.3.34C155.48,187.42,154.64,187.55,154,186.91Z"/><path class="cls-224" d="M190.21,161.11a.82.82,0,0,1-.82-.92q0-5.1,0-10.18c0-.35-.07-.9.59-.67.12,0,.15.35.21.53a22.94,22.94,0,0,1,0,8.93Z"/><path class="cls-225" d="M194.74,172.86a18,18,0,0,1-.94-4.4C197.33,169.34,197.45,169.84,194.74,172.86Z"/><path class="cls-226" d="M166,156.27h-6c-.71-.19-1.79.51-2-.85a23,23,0,0,1,7.9-.16A.66.66,0,0,1,166,156.27Z"/><path class="cls-227" d="M143.42,143.43a3.89,3.89,0,0,1-4.82,0c.5-.6,1.31-.42,1.9-.78.77.42,1.68-.11,2.44.36Z"/><path class="cls-226" d="M151.49,156.23c.78-.76,4.46-1.12,5.33-.49.07,0-.06.36-.09.55C155,156.63,153.22,157.41,151.49,156.23Z"/><path class="cls-228" d="M166,155.47l-8,0v-.33c.43-.37.94-.17,1.42-.22,2.74,0,5.48-.08,8.22.05l.79.11v.41A1.87,1.87,0,0,1,166,155.47Z"/><path class="cls-229" d="M158.75,187.72a3.81,3.81,0,0,1-4.84,0A6.58,6.58,0,0,1,158.75,187.72Z"/><path class="cls-230" d="M149.07,128.87c-.11.21-.19.58-.33.61-.44.07-.42-.35-.49-.64a9.17,9.17,0,0,1-.05-3.69.3.3,0,0,1,.07-.3.73.73,0,0,1,.8.81A3.13,3.13,0,0,1,149.07,128.87Z"/><path class="cls-231" d="M177,188.93a6.3,6.3,0,0,1-4.26,0A6.61,6.61,0,0,1,177,188.93Z"/><path class="cls-232" d="M190.24,158.8c0-3,0-6,0-8.93.37.19.39.55.43.89a26.38,26.38,0,0,1-.07,7.1Z"/><path class="cls-233" d="M160.1,114.74a5.55,5.55,0,0,1-4,.08A5.41,5.41,0,0,1,160.1,114.74Z"/><path class="cls-234" d="M142.63,171.59a2.78,2.78,0,0,1,0-4A3.65,3.65,0,0,1,142.63,171.59Z"/><path class="cls-235" d="M157.2,183.62c-1.48.14-3.45-.49-3.34,2.13a7.59,7.59,0,0,1-.73-2.37,6.15,6.15,0,0,1,3.93-.07A1.73,1.73,0,0,0,157.2,183.62Z"/><path class="cls-236" d="M190.56,157.86c0-2.36.05-4.73.07-7.1l.31-.23C190.88,153,191.44,155.46,190.56,157.86Z"/><path class="cls-237" d="M199.88,187.67a.27.27,0,0,1,.3,0c.86.24,1.82-.2,2.69.36C201.34,188.81,200.78,188.74,199.88,187.67Z"/><path class="cls-238" d="M151.49,156.23l5.24.06c0,.77-.63.22-.9.43-1.44.23-2.89,1.05-4.32,0l-.57-.36Z"/><path class="cls-239" d="M193,161.74c1.79.89,1.17,1.68.16,2.63A5.1,5.1,0,0,1,193,161.74Z"/><path class="cls-240" d="M190.68,169.11l-.48.06a7.06,7.06,0,0,1-.08-4.82c0-.16.08-.33.11-.49l.33.52A13.92,13.92,0,0,1,190.68,169.11Z"/><path class="cls-241" d="M157.06,183.31a15.67,15.67,0,0,0-3.93.07c1.34-1,2.88-.29,4.31-.48,0,0,.08.15.07.15S157.21,183.23,157.06,183.31Z"/><path class="cls-242" d="M158.75,187.72l-4.84,0,0-.42a6.42,6.42,0,0,1,2.18-.17h2.17a.46.46,0,0,1,.49.27C158.77,187.5,158.76,187.61,158.75,187.72Z"/><path class="cls-243" d="M157.12,143.41c-.42,1.43-1.61.48-2.4.77,0-.25,0-.5,0-.75A1.79,1.79,0,0,1,157.12,143.41Z"/><path class="cls-244" d="M190.68,169.11l-.12-4.73c.84,1.56.28,3.23.41,4.85A1.48,1.48,0,0,0,190.68,169.11Z"/><path class="cls-245" d="M142.63,171.59c0-1.34,0-2.68,0-4,.13-.14-.19-.79.43-.37a4.53,4.53,0,0,1,0,4.37Z"/><path class="cls-246" d="M151.51,156.69l4.32,0a1.78,1.78,0,0,1,.17.3l-1.29.12a3.28,3.28,0,0,1-3.21-.06A1.28,1.28,0,0,1,151.51,156.69Z"/><path class="cls-247" d="M154,143.22c1.24-1.17,2.56-.83,3.89-.18-1.21.39-2.51-.14-3.72.31A.37.37,0,0,1,154,143.22Z"/><path class="cls-248" d="M143.08,171.56c0-1.46,0-2.91,0-4.37l.31-.14c0,.18.09.35.13.52a5.42,5.42,0,0,1,0,4l-.13,0Z"/><path class="cls-249" d="M154.69,153.88c-.05.14-.09.29-.14.43-1.29,0-2.62.18-3.86-.4l0-.12A4.82,4.82,0,0,1,154.69,153.88Z"/><path class="cls-250" d="M155.65,180.82a4.06,4.06,0,0,1,2.37.42h-3.83C154.72,180.68,155.22,181,155.65,180.82Z"/><path class="cls-251" d="M148.2,125.15c0,1.23,0,2.46.05,3.69l-.47-.14C147.9,127.52,147.62,126.28,148.2,125.15Z"/><path class="cls-252" d="M154.15,143.35c1.19-.73,2.48-.25,3.72-.31l.17.3-.92.07-2.39,0Z"/><path class="cls-253" d="M171.69,187.7c-.43,0-.77-.16-.81-.65s.13-.89.71-.94A1.09,1.09,0,0,1,171.69,187.7Z"/><path class="cls-254" d="M142.94,143a5.23,5.23,0,0,1-2.44-.36l2.51.06s.06.11.05.15S143,142.93,142.94,143Z"/><path class="cls-255" d="M171.75,185.32c1.27.46.47,1.55.71,2.33l-.18,0-.18,0c-.57-.58,0-1.4-.43-2A.61.61,0,0,1,171.75,185.32Z"/><path class="cls-256" d="M197.85,177.75c0,.26-.06.55-.37.58-.52.06-.55-.46-.7-.75s.18-.38.41-.38A.61.61,0,0,1,197.85,177.75Z"/><path class="cls-257" d="M156.34,187.23l-2.41.05a.59.59,0,0,1,0-.37l2.34,0c.14.06.18.12.15.19S156.38,187.23,156.34,187.23Z"/><path class="cls-226" d="M159.26,155l-1.3.06c-.43,0-.9.05-1.21-.37H159A.24.24,0,0,1,159.26,155Z"/><path class="cls-258" d="M158.72,186.88c.2-.45-.25-1.13.49-1.4-.2.63.23,1.39-.44,1.91l0-.13q-.21-.1-.15-.24C158.64,186.93,158.68,186.88,158.72,186.88Z"/><path class="cls-259" d="M171.67,185.64c.59.57.32,1.33.43,2l-.41.06c0-.53-.07-1.06-.1-1.59C171.62,186,171.64,185.8,171.67,185.64Z"/><path class="cls-260" d="M145.45,133.48a3.85,3.85,0,0,1-.36,2.14C145.12,134.89,144.77,134.1,145.45,133.48Z"/><path class="cls-139" d="M169.81,129.44c-.07-2.83.23-5.84,2.48-8.31a4.77,4.77,0,0,1,6.8-.55c4.12,3.32,4.92,11.75,1.64,15.91-1.66,2.12-3.8,2.37-6.11,2-2.08-.35-3.25-1.83-4-3.8A21.34,21.34,0,0,1,169.81,129.44Z"/><path class="cls-261" d="M151.44,124.84a10,10,0,0,1,2-3.44c2.76-3.12,6.37-2.54,8,1.37,1,2.52.72,5.15.19,7.7-.44,2.11-.58,4.34-2.61,5.86-2.9,2.17-5.31,1.71-7-1.55l-.55-1.07c-.66-1-.38-2.25-.72-3.35V129C151.16,127.64,150.53,126.11,151.44,124.84Z"/><path class="cls-66" d="M184.6,163.66c.16,1.52-.52,3.12,1,4.49.71.66.22,1.8-.36,2.58a6.76,6.76,0,0,1-10.54.23c-.17-.2-.44-.41-.46-.63-.41-4.19-1.08-8.4.64-12.48.12-.28.19-.73.63-.57s.25.57.28.89c.93,3,.34,6,.49,9.06.06.7-.35,1.38-.08,2.09a1,1,0,0,1,.34.27c1.21,2.22,5.24,2.38,6.72.39.76-1-.46-1.53-.32-2.32a4.08,4.08,0,0,1,0-3.48,25,25,0,0,1,1.23-5.92.67.67,0,0,1,.76.72C184.89,160.54,185.25,162.13,184.6,163.66Z"/><path class="cls-262" d="M176.5,159.51c1.14,1.1,1.16,7.69,0,8.85a1.23,1.23,0,0,1-.43-1c0-2,0-4,0-6C176.1,160.74,175.94,160,176.5,159.51Z"/><path class="cls-263" d="M145.06,135.74c0,1.08-.51,1.43-1.11,1.46a1.13,1.13,0,0,1-1.28-1.19c0-.84.57-1.13,1.32-1.09S145.05,135.37,145.06,135.74Z"/><path class="cls-264" d="M154.69,153.88l-4-.09c.79-.73,3.95-1.13,4.49-.47C155.55,153.73,155,153.76,154.69,153.88Z"/><path class="cls-265" d="M190.12,164.35c0,1.61.06,3.22.08,4.82A3.89,3.89,0,0,1,190.12,164.35Z"/><path class="cls-266" d="M175.71,167.94l0-9.77c.13.18.25.37.37.56.37,2.76.07,5.54.17,8.31,0,.24,0,.48,0,.71S176,168.09,175.71,167.94Z"/><path class="cls-267" d="M139.55,136.54a1,1,0,0,1-1-1.21,1,1,0,0,1,1.09-.88c.79,0,1,.52.91,1.19A.89.89,0,0,1,139.55,136.54Z"/><path class="cls-268" d="M176.15,167.54c-.31-2.94,0-5.88,0-8.81.33.16.35.47.39.78l-.06,8.06C176.32,167.75,176.23,167.74,176.15,167.54Z"/><path class="cls-269" d="M159.26,155a2.26,2.26,0,0,1-.23-.31c2.86,0,5.72-.35,8.57.2Z"/><path class="cls-270" d="M143.5,171.57c0-1.34,0-2.67,0-4A2.89,2.89,0,0,1,143.5,171.57Z"/><path class="cls-262" d="M151.5,157.08l3.21.06c-1.07,1.42-2.48.72-3.73.45C150.68,157.53,151.23,157.19,151.5,157.08Z"/><path class="cls-271" d="M184.6,163.66c-.36-1.78.5-3.67-.48-5.4.13-.5.19-1.16.85-.34a15,15,0,0,1-.07,5.55A1.17,1.17,0,0,0,184.6,163.66Z"/><path class="cls-272" d="M149.07,128.87v-3.21Q151,127.27,149.07,128.87Z"/><path class="cls-273" d="M184.9,163.47c0-1.85,0-3.7.07-5.55A7.81,7.81,0,0,1,184.9,163.47Z"/><path class="cls-272" d="M151.44,124.84c-.24,1.38-.48,2.77-.71,4.15C151,127.62,149.85,126,151.44,124.84Z"/><path class="cls-272" d="M150.73,130.36a9.67,9.67,0,0,1,.72,3.35C149.92,132.87,151,131.48,150.73,130.36Z"/><path class="cls-274" d="M163.59,146.55c.8-1.15,1.61-1.16,2.4,0A2.55,2.55,0,0,1,163.59,146.55Z"/><path class="cls-274" d="M186.55,170.15a2.49,2.49,0,0,1,0-2.57A2.25,2.25,0,0,1,186.55,170.15Z"/><path class="cls-275" d="M182.56,167.55a2.79,2.79,0,0,1,0-3.17A6.3,6.3,0,0,1,182.56,167.55Z"/><path class="cls-276" d="M182.56,167.55v-3.17l.33-.2v3.48Z"/><path class="cls-277" d="M163.59,146.55H166l.47.11a3.49,3.49,0,0,1-3.32,0Z"/><path class="cls-278" d="M162.41,157a2.49,2.49,0,0,1,2.33,0Z"/><path class="cls-279" d="M176.15,167.54l.29,0,.09.79c0,.41,0,.82,0,1.23l-.41,0A1.87,1.87,0,0,1,176,168Z"/><path class="cls-280" d="M174.49,153.9a2.51,2.51,0,0,1-1.92.37C173.1,153.56,173.84,154,174.49,153.9Z"/><path class="cls-278" d="M166,155.47l2.38,0c1,.14,2.05-.19,3.48.47-2.25.6-4.07.24-5.86.35Z"/><path class="cls-281" d="M158.72,186.88c0,.13,0,.25,0,.38l-2.41,0,0-.3Z"/><path class="cls-66" d="M180.14,128.81a10.84,10.84,0,0,1-.88,4.76,2.87,2.87,0,0,1-2.75,2,2.59,2.59,0,0,1-2.46-2,10.65,10.65,0,0,1,.08-8.57c.61-1.29,1.54-2.32,3.06-2.16s2.24,1.26,2.61,2.68A13.17,13.17,0,0,1,180.14,128.81Z"/><path class="cls-66" d="M153.61,127.28a9.74,9.74,0,0,1,1.56-4.06c1.43-1.75,3.14-1.64,4.06.43,1.49,3.35.8,6.66-.74,9.8a2,2,0,0,1-2.6,1,3.29,3.29,0,0,1-2.32-3.56A10.88,10.88,0,0,0,153.61,127.28Z"/><path class="cls-282" d="M153.61,127.28a4.51,4.51,0,0,1,0,3.6A9.69,9.69,0,0,1,153.61,127.28Z"/><path class="cls-283" d="M176,168l.07,1.6c-.89-.37-.19-1.1-.37-1.63Z"/><path class="cls-54" d="M525.31,71.44c-.09,3.54-1.17,7-.84,10.85a44.71,44.71,0,0,1,15-.66c1.16.15,1-.61,1.15-1.32.74-5.58,1.45-11.16,2.27-16.73a14.48,14.48,0,0,1,21.71-10.3c5,3,5.54,6.63,6,11.42,1,9.24-3.82,16.38-7.88,23.82-.85,1.55-.94,2.21.68,3.26,7.3,4.74,12.08,17.08,10.29,26.12-.29,1.43-.53,2.85-.84,4.27-1.34,6.15-9.16,14.84-15.09,16.65,1.66,2.47,3.34,4.88,3.67,8a12.62,12.62,0,0,1-2.27,8.88,2.56,2.56,0,0,0-.71,2.16c1.46,6.82-2,11.91-6,16.78a1.38,1.38,0,0,1-.36.32c-4.26,2.48-4.63,6.61-4.36,10.84.13,2-.56,2.88-2.37,3.53a16.67,16.67,0,0,1-8.8.76,14.68,14.68,0,0,0-5.49.08c-4.91.92-9.78-.3-14.67-.51-1.48-.07-2.2-1.15-2.16-2.7a20.6,20.6,0,0,0-.1-3.14c-.46-3.58-.49-3.58-4.13-3.55a7.16,7.16,0,0,1-6.86-6.78,4.06,4.06,0,0,0-1.5-3.59c-3.34-3-3.7-7-2.78-11.14,1.22-5.53,3-10.86,6.45-15.48a1.33,1.33,0,0,0,.14-.19c2.16-3.26,2.13-3.49-1.37-5.13a20.87,20.87,0,0,1-6-4c-.53-.53-.9-1.1-1.95-.52-.69.39-1.3-.74-1.74-1.38-7-10-7.6-20.62-2.69-31.6,2.18-4.88,5.45-9,10.48-11.26,1.64-.75.91-1.88.69-2.82a52.3,52.3,0,0,1-.27-22.07,23,23,0,0,1,2.51-7c3.28-5.77,7.53-6.72,13.71-6.55,2.22.06,3.25,1.88,4.29,3.52a15.36,15.36,0,0,1,2.17,7.07A78,78,0,0,0,525.31,71.44Z"/><path class="cls-284" d="M525.31,71.44a28.32,28.32,0,0,1,0-10.14A61.31,61.31,0,0,1,525.31,71.44Z"/><path class="cls-285" d="M502.78,158.19a9.74,9.74,0,0,1,1.36-4.57,113.24,113.24,0,0,1,6.39-11.37c1.38-2.24,3-4,6.05-3.42-2.12-1.79-4.62-2.44-7-3.38a58.62,58.62,0,0,1-6.83-3c-8.2-4.55-10.85-17-9.17-24.76s6.47-13.2,12.16-18.09a3.49,3.49,0,0,0,1.32-4c-1.92-7.37-1.28-14.71.41-22a13.73,13.73,0,0,1,2.77-5.84c2.89-3.47,7.11-2.8,8.81,1.37a21.88,21.88,0,0,1,1.28,8.8c-.1,5.64-.37,11.27-.74,16.9-.11,1.66.45,1.94,1.87,1.76A63.18,63.18,0,0,1,535,86a40.39,40.39,0,0,1,6.94.86c1.07.29,1.68.24,2-1.18,1.5-7.11,2.21-14.33,3.37-21.48.89-5.44,4.89-9.11,10.48-9.16,3.68,0,8.66,5.24,8.38,8.91a41.15,41.15,0,0,1-3.73,13.92c-1.61,3.52-3.28,7-4.89,10.52-1.13,2.47-.8,2.87,1.6,4a11.09,11.09,0,0,1,3.25,2.84,30.19,30.19,0,0,1,7.29,23.81c-.6,5.46-3.82,9.87-8.36,13.06-5.92,4.17-7.94,4.24-14.09.66a7.7,7.7,0,0,0-5.56-.93c-4.39.82-6.92,4-5.87,8.37,1.15,4.71,3.66,8.51,8.59,10.32,1.84.67,3.22.56,4.61-1-2.57-1.62-5.78-2.17-7.92-4.54.51-1.4,2-1.74,2.94-2.73,1.57-1.67,2.32-3.77,3.33-5.74a39.69,39.69,0,0,1,8.11,5.6,7.64,7.64,0,0,1,2.58,8.08c-.63,2.5-1,2.67-3.25,1.17-.33-.22-.7-.36-1.39-.71.48,2.67,1,5,1.32,7.41a16.29,16.29,0,0,1-3.84,13.48c-1,1.2-2.56,1.45-3.71,2.56-2.78,2.69-3,6-2.83,9.33.09,1.93-.5,2.6-2.21,3-2.21.44-4.34-.06-6.49-.25-1.05-.09-1.07-.81-.9-1.58.3-1.4,1-2.71.5-4.23-.26-.77.51-.79,1-1a5,5,0,0,0,3.12-2.17c-1.6-.88-3.33-.29-5-.52-.93-.12-1.69.81-2,1.85-.56,2.1-1.25,4.17-1.64,6.29-.22,1.15-.56,1.81-1.77,1.78-3.06-.05-6.13.2-9.18-.36-.83-.15-1.51-.29-1.64-1.38-.36-3-1-6-1.17-9.07a1.88,1.88,0,0,0-1.77-2.07,7.3,7.3,0,0,1-2.28-.65c-3.6-2.06-3.76-2.68-1.21-5.8,3-3.68,6.05-12.56,5.68-16.94-3.33,3.25-4.84,7.24-6.38,11.21-.86-.19-1.28-.94-1.83-1.49C507.41,158.3,505,158.47,502.78,158.19Z"/><path class="cls-286" d="M547.3,136.59c-.34,4.12-2.86,6.63-6.27,8.47-2.46-2.13-1.71-5.13-1.75-7.74,0-1.9,2.61-2.91,4.75-2.18C545.15,135.52,546.21,136.1,547.3,136.59Z"/><path class="cls-286" d="M502.78,158.19a6.63,6.63,0,0,1,8.29,3.4,8.47,8.47,0,0,1-1.87,3.32c-1.68,1.91-5.26,1.1-6.14-1.28A10.58,10.58,0,0,1,502.78,158.19Z"/><path class="cls-287" d="M506.57,172.09c1.7,2,3.91,2.91,6,4.33-1.86,1.31-3.2.29-4.46-.59S505.77,174.14,506.57,172.09Z"/><path class="cls-57" d="M548.2,162.12a12.42,12.42,0,0,1-1.65,7.35c-3.34,5.76-14.14,5.11-17.28-.67-2-3.59-1.41-7.73-.56-11.75a10.18,10.18,0,0,1,6.42-7.49c3.23-1.4,8.29.62,10.47,4C547.33,156.21,548.78,159,548.2,162.12Z"/><path class="cls-57" d="M559.35,67.29c0,5.49-2,10.52-3.79,15.57a12.49,12.49,0,0,0-.62,2.55c-.31,2.17-2.43,4.14-4,3.83s-3-2.75-2.68-4.87c.21-1.43.67-2.81,1-4.21.94-4.28.8-8.86,3.36-12.71a17.72,17.72,0,0,1,1.7-2.32c.9-1,1.95-1.8,3.4-1.25S559.41,65.88,559.35,67.29Z"/><path class="cls-139" d="M535.07,118.42c5.12,2.93,3.51,9.79-.82,11.88-4.6,2.23-10.73,1.57-13.51-1.76a7.62,7.62,0,0,1,.65-10.27c.62-.57,1-.68,1.44.06,1.54.86,2.63,2.29,4.08,3.27.66.45.66,1.22.65,2,0,1-.31,2.05.26,3.07.62-.75.33-1.59.42-2.35.12-.94.4-1.81,1.37-2.07C531.91,121.61,533.44,120,535.07,118.42Z"/><path class="cls-288" d="M516.22,67.73c-.93,5.23,0,10.9-1,16.46a5.22,5.22,0,0,1-.32,1.39c-.61,1.16-.85,3-2.58,2.75s-1.54-1.93-1.94-3.21c-2.1-6.59-.22-13,.91-19.4.28-1.61.9-3,2.59-2.88s2.42,1.61,2.32,3.34C516.2,66.58,516.22,67,516.22,67.73Z"/><path class="cls-289" d="M535.07,118.42c-.41,2.29-2.18,3.4-4.09,3.88-1.75.44-2.19,1.2-2.23,2.85,0,1,.66,3-1,2.94-1.45,0-1-2-.88-3,.29-2-.1-3.46-2.07-4.39a4.28,4.28,0,0,1-2-2.35c.13-.79.21-1.54,1.07-2C526.72,114.79,532.84,115.9,535.07,118.42Z"/><path class="cls-290" d="M514.62,110.64c-.21,1.45-.55,3-2.16,3.66a4.09,4.09,0,0,1-4.48-.82c-1.12-1-1.92-2.56-1.06-4.1.71-1.27,0-2.09-.39-3.1-.14-.4-.64-.86-.13-1.28s.92,0,1.23.34a3.15,3.15,0,0,0,3.32,1.12C513,106.1,514.65,108.13,514.62,110.64Z"/><path class="cls-140" d="M540.86,113.59a3.82,3.82,0,0,1,4.42-3.9,3.15,3.15,0,0,1,1.35.46c1,.72,2.7-1.74,2.36-.22-.59,2.61.82,6.69-3.61,7.53C542.63,118,540.89,116.44,540.86,113.59Z"/><path class="cls-291" d="M526.91,118.61a7.05,7.05,0,0,1,4.5.54C529.59,120.24,528.25,120.36,526.91,118.61Z"/><path class="cls-54" d="M426.43,173.72a28.4,28.4,0,0,1-3.1,2.29c-2.6,1.44-4.95.09-5-2.88a23.46,23.46,0,0,1,2.36-9.78,107.17,107.17,0,0,1,6.27-12,9.21,9.21,0,0,0,1-7.82c-2.16-6.72-1.46-13.59-.14-20.33,2.4-12.19,10.09-19.1,22.12-21.6,12.59-2.62,24.67-2.33,35.54,5.66a28.73,28.73,0,0,1,8.47,10.08c4.81,9.21,6.7,19.05,6.73,29.34a6.14,6.14,0,0,0,1,3.36,42.83,42.83,0,0,1,6.35,24.63,6.93,6.93,0,0,1-.12,1.45c-.4,1.54-1.15,3-2.75,3.43s-2.53-.68-3.57-1.59-1.29-2.59-2.37-2.5c-.83.06-1.5,1.65-2.31,2.49-2.62,2.69-6.08,3.84-9.46,5.13-.79.3-1.57.31-1.67,1.61-.41,5.26-4.2,7.19-8.81,4.59a1.26,1.26,0,0,1-.39-.28c-3.07-4.36-7.49-3.41-11.74-2.89a48.1,48.1,0,0,1-15.88-.51c-1.41-.3-2.51.36-3.64.94-2.22,1.12-4.32,2.54-6.87,2.84-1.34.16-2.85.46-3.77-.91a3.64,3.64,0,0,1,.12-4.32c.94-1.3.65-1.79-.69-2.39C430.5,180.17,428.46,176.93,426.43,173.72Z"/><path class="cls-57" d="M470.54,127.91c-1.39-1.36-3.55-1.27-4.32-3.37-1.43-3.93-.89-7.5,1.61-9.27,2.89-2.06,7.53-1.75,10.57.83,3.83,3.25,5.94,7.61,7.23,12.31A31.65,31.65,0,0,1,484,149.69a2.79,2.79,0,0,0,.51,3.36c5.13,6.3,7.27,13.2,3.7,21-1.44,3.17-3.92,5-7.23,6.29-9,3.36-18.2,2.68-27.45,2a62,62,0,0,1-14.23-2.53c-7.42-2.38-9.91-6-10.82-14.47-.67-6.32,1.33-12.11,4.08-17.65a4.45,4.45,0,0,0,.27-4.07c-3-7.22-2.95-14.58-.86-22a13.77,13.77,0,0,1,3-5.71c2.93-3.25,6.34-3.83,9.95-1.66,2.45,1.47,3.74,5.82,2.61,9.05a16.27,16.27,0,0,1-2.38,4.7c-1.91,2.46-1.47,5.07,1,6.93a4,4,0,0,1,1.2,1.12,11.6,11.6,0,0,0,18.87,1.43,5.84,5.84,0,0,1,2.63-1.86c2.05-.78,3.74-2,3.77-4.48,0-.86.48-.69,1.05-.82,2.51-.55,3.31-2,3.53-6,.13-2.3-1.22-4.74-3-5.36s-3.73.8-4,3.29a17.55,17.55,0,0,0,0,2.9C470.26,126,470.41,126.82,470.54,127.91Z"/><path class="cls-292" d="M487.68,178.78a13.15,13.15,0,0,0,4.45-9.47,25.59,25.59,0,0,0-5.25-16.68,2.48,2.48,0,0,1-.22-2.67,38,38,0,0,0,2.39-13.45,33.49,33.49,0,0,0-5-17.65,15.9,15.9,0,0,0-11.13-7.33c-4.93-.83-9.67,3.68-9.91,9.25A6.53,6.53,0,0,0,463,123c.48,1.48-.24,1.68-1.42,1.56-4-.44-8-.79-12,.8.31-4,.87-8-1.57-11.36-2.63-3.58-6.54-3.47-10.54-2.76,4.48-4,9.3-7.26,15.22-8.33a49.4,49.4,0,0,1,21.75,1.23c9.6,2.58,15.65,8.84,18.87,18,1.73,4.93,3.54,9.88,4,15.12a34,34,0,0,1-.14,8.37c-.57,3.65.71,6.66,2.59,9.47a28.29,28.29,0,0,1,4.56,20.07c-3.48-3.91-6.74-7.84-10.66-11.61-.55,2.48.74,4,1.7,5.44,1.25,1.83.85,3.28-.16,4.86a13.57,13.57,0,0,1-7.15,5.46C487.66,179.44,487.54,179.23,487.68,178.78Z"/><path class="cls-293" d="M453.39,126.51l7,0,.6.33c.88.25,1.87,0,2.68.55l1.69.08h0a31.9,31.9,0,0,1,2.94,1.58c2.06,1.4,1.94,3.15-.33,4.16a9.87,9.87,0,0,1-3.72.94c-4.5.15-9,.54-13.46-.65-1.62-.44-3.69-.58-4-2.55s1.74-2.64,3.12-3.53C450.84,126.33,452.25,127,453.39,126.51Z"/><path class="cls-294" d="M450.09,136.3a40.39,40.39,0,0,0,13.4.54C459.87,140.56,453.9,140.39,450.09,136.3Z"/><path class="cls-295" d="M424.28,165.44c0,1.91,1.64,4.05-.87,5.47a1.54,1.54,0,0,1-1.09.24c-.45-.15-.27-.63-.19-1A8.25,8.25,0,0,1,424.28,165.44Z"/><path class="cls-296" d="M438,186.24c-.18-1.19.15-2,1.31-2.06.41,0,.93.23.88.61C440,186,438.63,185.53,438,186.24Z"/><path class="cls-297" d="M480.87,184.65c2.3.07-.29,1.38.47,1.84a1.86,1.86,0,0,1-2.42.07l-.64-.56C478.81,184.91,480.35,185.77,480.87,184.65Z"/><path class="cls-298" d="M480.87,184.65c-.36,1.43-1.82.73-2.59,1.35-.3-.26-1.06-.56-.17-.88A15.76,15.76,0,0,1,480.87,184.65Z"/><path class="cls-299" d="M453.39,126.51l-3.53.9C450.67,125.66,452.19,126.74,453.39,126.51Z"/><path class="cls-300" d="M460.62,126.89a3.51,3.51,0,0,0-.27-.4h3.45s.08.17.08.17c-.17.11-.35.2-.53.3A3.45,3.45,0,0,1,460.62,126.89Z"/><path class="cls-301" d="M465.32,127.45c.2-1.11.88-1,1.75-.76-.29,1.13-1.18.54-1.74.77Z"/><path class="cls-302" d="M487.68,178.78l.47.52a4.06,4.06,0,0,1-2,1A3,3,0,0,1,487.68,178.78Z"/><path class="cls-303" d="M460.62,126.89l2.73.08.28.4C462.62,127.25,461.48,127.91,460.62,126.89Z"/><path class="cls-304" d="M481.35,187c-.8.85-1.6.65-2.4,0A2.87,2.87,0,0,1,481.35,187Z"/><path class="cls-305" d="M481.35,187H479c0-.15,0-.3,0-.44l2.42-.07C481.34,186.66,481.35,186.83,481.35,187Z"/><path class="cls-306" d="M443.53,123.55c-.3,1.22-.49,2.33-.84,3.39a2.94,2.94,0,0,1-2.95,2.37c-1.61-.05-2.41-1.21-2.89-2.54a9.37,9.37,0,0,1,.16-5.92,3.21,3.21,0,0,1,3.21-2.44c1.55,0,2.18,1.17,2.6,2.45C443.11,121.77,443.31,122.7,443.53,123.55Z"/><path class="cls-307" d="M479.91,134.67a5.25,5.25,0,0,1-2.72-.36c-1.46-.76-1.57-2.12-.2-3a9.86,9.86,0,0,1,1.57-.62,3.81,3.81,0,0,1,4.27.66,1.36,1.36,0,0,1,.24,1.77C482.28,134.73,480.74,134.61,479.91,134.67Z"/><path class="cls-308" d="M434.24,129.79c1.29.2,2.93.18,2.95,2,0,1.66-1.47,1.72-2.65,1.62s-3,.31-3.08-1.73C431.39,129.81,432.93,130,434.24,129.79Z"/></svg>